#VRML V2.0 utf8
# DATASHEET-DERIVED Sunlord WPN4020H mechanical envelope; not vendor CAD.
# Units are 2.54 mm per VRML unit for KiCad scale 1.0.
Transform {
  children [
    Transform {
      translation 0 0 0.45275591
      children [ Shape {
        appearance Appearance { material Material { diffuseColor 0.10 0.10 0.11 specularColor 0.20 0.20 0.20 shininess 0.25 } }
        geometry Box { size 1.57480315 1.57480315 0.66929134 }
      } ]
    }
    Transform {
      translation -0.59055118 0 0.05905512
      children [ Shape {
        appearance Appearance { material Material { diffuseColor 0.72 0.72 0.68 specularColor 0.35 0.35 0.35 shininess 0.35 } }
        geometry Box { size 0.43307087 1.45669291 0.11811024 }
      } ]
    }
    Transform {
      translation 0.59055118 0 0.05905512
      children [ Shape {
        appearance Appearance { material Material { diffuseColor 0.72 0.72 0.68 specularColor 0.35 0.35 0.35 shininess 0.35 } }
        geometry Box { size 0.43307087 1.45669291 0.11811024 }
      } ]
    }
  ]
}
