M48
; DRILL file KiCad 10.99.0-3619-g0ef48b972f date 2026-09-29T16:03:13
; FORMAT={-:-/ absolute / metric / decimal}
; #@! TF.CreationDate,2026-09-29T16:03:13+07:00
; #@! TF.GenerationSoftware,Kicad,Pcbnew,10.99.0-3619-g0ef48b972f
; #@! TF.FileFunction,Plated,1,2,PTH
FMAT,2
METRIC
; #@! TA.AperFunction,Plated,PTH,ViaDrill
T1C0.300
; #@! TA.AperFunction,Plated,PTH,ComponentDrill
T2C0.300
; #@! TA.AperFunction,Plated,PTH,ViaDrill
T3C0.350
; #@! TA.AperFunction,Plated,PTH,ViaDrill
T4C0.400
; #@! TA.AperFunction,Plated,PTH,ComponentDrill
T5C0.600
; #@! TA.AperFunction,Plated,PTH,ComponentDrill
T6C0.700
; #@! TA.AperFunction,Plated,PTH,ComponentDrill
T7C1.000
%
G90
G05
T1
X5.875Y-7.4
X5.875Y-8.8
X6.325Y-31.0
X6.862Y-17.05
X8.025Y-15.0
X8.025Y-17.0
X8.5Y-36.175
X8.65Y-41.425
X9.675Y-9.0
X9.675Y-10.0
X9.7Y-37.775
X10.15Y-18.8
X10.537Y-37.0
X10.537Y-41.4
X10.975Y-17.4
X11.275Y-27.0
X11.338Y-35.0
X11.338Y-37.0
X11.825Y-31.0
X12.15Y-17.6
X12.15Y-25.36
X12.15Y-29.76
X12.175Y-15.8
X14.175Y-39.0
X14.175Y-41.4
X14.662Y-23.25
X14.662Y-36.05
X15.05Y-16.0
X15.05Y-42.225
X15.05Y-44.625
X15.775Y-18.6
X15.775Y-39.0
X16.15Y-16.8
X16.15Y-17.6
X16.775Y-12.2
X16.775Y-14.6
X16.975Y-17.6
X16.975Y-36.2
X17.05Y-45.025
X17.4Y-11.0
X17.5Y-8.9
X17.65Y-38.6
X17.75Y-23.36
X17.75Y-25.36
X18.05Y-40.2
X18.217Y-42.66
X18.475Y-28.5
X18.625Y-37.4
X18.625Y-41.0
X18.787Y-31.0
X19.45Y-13.6
X19.45Y-44.0
X19.5Y-8.9
X20.0Y-23.36
X20.175Y-17.0
X20.175Y-17.6
X20.45Y-27.3
X20.45Y-29.1
X20.562Y-37.95
X20.85Y-40.2
X20.85Y-41.0
X21.275Y-27.7
X21.275Y-28.5
X21.75Y-23.71
X22.025Y-34.8
X22.025Y-39.6
X22.4Y-29.9
X22.95Y-14.82
X22.95Y-17.36
X23.1Y-16.5
X23.762Y-36.05
X23.762Y-37.25
X24.787Y-31.0
X25.5Y-37.175
X29.05Y-40.8
X29.05Y-44.0
X30.825Y-34.0
X33.175Y-20.4
X33.175Y-33.2
X33.975Y-31.6
X33.975Y-37.2
X34.775Y-24.4
X34.775Y-31.6
X35.25Y-39.625
X35.25Y-43.225
X35.89Y-18.0
X35.89Y-33.2
X36.025Y-38.0
X36.025Y-44.0
X36.1Y-45.0
X36.7Y-55.7
X38.534Y-44.912
X39.057Y-27.076
X40.625Y-24.4
X40.625Y-38.0
X42.191Y-30.981
X42.425Y-23.6
X42.425Y-26.0
X43.49Y-15.0
X43.49Y-26.2
X43.5Y-10.0
X44.125Y-23.355
X44.313Y-26.096
X44.675Y-18.5
X44.775Y-9.2
X44.775Y-12.4
X44.925Y-24.555
X45.11Y-35.2
X46.0Y-10.0
X46.025Y-32.0
X46.025Y-40.0
X46.125Y-23.165
X46.125Y-27.565
X46.525Y-21.7
X46.91Y-30.0
X46.91Y-41.6
X46.91Y-43.6
X46.91Y-47.6
X49.025Y-13.2
X49.225Y-40.0
X49.225Y-41.6
X49.325Y-23.165
X49.575Y-36.2
X49.575Y-37.0
X50.125Y-21.965
X50.625Y-13.0
X51.075Y-27.095
X51.075Y-35.495
X51.662Y-13.05
X51.662Y-15.05
X51.725Y-21.965
X51.875Y-28.365
X51.875Y-38.765
X52.125Y-24.365
X52.675Y-35.8
X52.8Y-29.635
X52.8Y-30.905
X52.8Y-32.175
X52.8Y-33.445
X53.45Y-16.0
X53.45Y-16.8
X53.5Y-44.8
X53.85Y-40.8
X54.0Y-22.0
X54.075Y-11.5
X54.075Y-13.7
X54.15Y-17.2
X55.05Y-14.0
X55.05Y-16.0
X55.25Y-29.025
X55.5Y-30.25
X55.938Y-13.85
X56.5Y-42.5
X56.6Y-15.2
X56.6Y-18.0
X56.85Y-27.025
X56.925Y-29.305
X56.925Y-30.905
X56.95Y-27.825
X57.137Y-12.25
X57.6Y-28.575
X57.6Y-31.775
X57.65Y-27.025
X57.75Y-9.3
X57.875Y-10.5
X57.875Y-15.3
X57.875Y-38.765
X58.0Y-52.8
X58.15Y-27.825
X58.25Y-5.2
X58.49Y-38.0
X59.0Y-26.55
X59.95Y-44.0
X60.0Y-31.45
X60.025Y-12.8
X60.35Y-7.74
X60.35Y-10.94
X60.425Y-14.4
X60.75Y-30.025
X61.055Y-28.45
X61.055Y-29.25
X61.225Y-6.0
X62.49Y-38.0
X62.5Y-27.25
X63.3Y-45.8
T2
X27.6Y-16.76
X27.6Y-18.16
X28.3Y-16.06
X28.3Y-17.46
X28.3Y-18.86
X29.0Y-16.76
X29.0Y-18.16
X29.7Y-16.06
X29.7Y-17.46
X29.7Y-18.86
X30.4Y-16.76
X30.4Y-18.16
T3
X4.525Y-27.0
X9.525Y-27.0
X54.725Y-10.5
T4
X14.5Y-20.0
X18.5Y-24.5
X55.5Y-34.0
X55.5Y-35.8
T6
X10.0Y-46.7
X10.5Y-48.2
X12.0Y-46.7
X13.0Y-48.2
X14.0Y-46.7
X15.0Y-48.2
X16.0Y-46.7
X17.5Y-48.2
X18.0Y-46.7
X35.2Y-46.7
X35.7Y-48.2
X37.2Y-46.7
X38.2Y-48.2
X39.2Y-46.7
X40.2Y-48.2
X41.2Y-46.7
X42.7Y-48.2
X43.2Y-46.7
T7
X49.0Y-51.0
X52.2Y-51.0
X55.4Y-51.0
T5
G00X7.6Y-49.45
M15
G01X7.6Y-51.15
M16
G05
G00X20.4Y-49.45
M15
G01X20.4Y-51.15
M16
G05
G00X32.8Y-49.45
M15
G01X32.8Y-51.15
M16
G05
G00X45.6Y-49.45
M15
G01X45.6Y-51.15
M16
G05
G00X59.82Y-24.68
M15
G01X60.92Y-24.68
M16
G05
G00X59.82Y-33.32
M15
G01X60.92Y-33.32
M16
G05
G00X64.25Y-24.68
M15
G01X64.85Y-24.68
M16
G05
G00X64.25Y-33.32
M15
G01X64.85Y-33.32
M16
G05
M30
