%TF.GenerationSoftware,KiCad,Pcbnew,10.99.0-3619-g0ef48b972f*%
%TF.CreationDate,2026-09-29T16:03:13+07:00*%
%TF.ProjectId,board,626f6172-642e-46b6-9963-61645f706362,rev?*%
%TF.SameCoordinates,Original*%
%TF.FileFunction,Legend,Top*%
%TF.FilePolarity,Positive*%
%FSLAX46Y46*%
G04 Gerber Fmt 4.6, Leading zero omitted, Abs format (unit mm)*
G04 Created by KiCad (PCBNEW 10.99.0-3619-g0ef48b972f) date 2026-09-29 16:03:13*
%MOMM*%
%LPD*%
G01*
G04 APERTURE LIST*
G04 Aperture macros list*
%AMRoundRect*
0 Rectangle with rounded corners*
0 $1 Rounding radius*
0 $2 $3 $4 $5 $6 $7 $8 $9 X,Y pos of 4 corners*
0 Add a 4 corners polygon primitive as box body*
4,1,4,$2,$3,$4,$5,$6,$7,$8,$9,$2,$3,0*
0 Add four circle primitives for the rounded corners*
1,1,$1+$1,$2,$3*
1,1,$1+$1,$4,$5*
1,1,$1+$1,$6,$7*
1,1,$1+$1,$8,$9*
0 Add four rect primitives between the rounded corners*
20,1,$1+$1,$2,$3,$4,$5,0*
20,1,$1+$1,$4,$5,$6,$7,0*
20,1,$1+$1,$6,$7,$8,$9,0*
20,1,$1+$1,$8,$9,$2,$3,0*%
G04 Aperture macros list end*
%ADD10C,0.130000*%
%ADD11C,0.140000*%
%ADD12C,0.180000*%
%ADD13C,0.150000*%
%ADD14C,0.200000*%
%ADD15C,0.120000*%
%ADD16C,0.300000*%
%ADD17RoundRect,0.200000X-0.550000X-0.300000X0.550000X-0.300000X0.550000X0.300000X-0.550000X0.300000X0*%
%ADD18RoundRect,0.225000X-0.225000X-0.250000X0.225000X-0.250000X0.225000X0.250000X-0.225000X0.250000X0*%
%ADD19RoundRect,0.250000X-0.375000X-0.625000X0.375000X-0.625000X0.375000X0.625000X-0.375000X0.625000X0*%
%ADD20RoundRect,0.200000X0.275000X-0.200000X0.275000X0.200000X-0.275000X0.200000X-0.275000X-0.200000X0*%
%ADD21RoundRect,0.150000X-0.587500X-0.150000X0.587500X-0.150000X0.587500X0.150000X-0.587500X0.150000X0*%
%ADD22RoundRect,0.135000X-0.135000X-0.185000X0.135000X-0.185000X0.135000X0.185000X-0.135000X0.185000X0*%
%ADD23RoundRect,0.200000X-0.200000X-0.275000X0.200000X-0.275000X0.200000X0.275000X-0.200000X0.275000X0*%
%ADD24RoundRect,0.218750X0.218750X0.256250X-0.218750X0.256250X-0.218750X-0.256250X0.218750X-0.256250X0*%
%ADD25C,2.000000*%
%ADD26RoundRect,0.200000X-0.275000X0.200000X-0.275000X-0.200000X0.275000X-0.200000X0.275000X0.200000X0*%
%ADD27RoundRect,0.250000X-0.250000X-0.475000X0.250000X-0.475000X0.250000X0.475000X-0.250000X0.475000X0*%
%ADD28RoundRect,0.050000X0.100000X-0.285000X0.100000X0.285000X-0.100000X0.285000X-0.100000X-0.285000X0*%
%ADD29C,1.200000*%
%ADD30O,1.400000X3.100000*%
%ADD31RoundRect,0.250000X-0.325000X-0.650000X0.325000X-0.650000X0.325000X0.650000X-0.325000X0.650000X0*%
%ADD32RoundRect,0.250000X-1.000000X-0.650000X1.000000X-0.650000X1.000000X0.650000X-1.000000X0.650000X0*%
%ADD33RoundRect,0.075000X-0.075000X-0.075000X0.075000X-0.075000X0.075000X0.075000X-0.075000X0.075000X0*%
%ADD34RoundRect,0.150000X-0.825000X-0.150000X0.825000X-0.150000X0.825000X0.150000X-0.825000X0.150000X0*%
%ADD35RoundRect,0.200000X0.200000X0.275000X-0.200000X0.275000X-0.200000X-0.275000X0.200000X-0.275000X0*%
%ADD36RoundRect,0.150000X-0.512500X-0.150000X0.512500X-0.150000X0.512500X0.150000X-0.512500X0.150000X0*%
%ADD37RoundRect,0.250000X-0.300000X-1.600000X0.300000X-1.600000X0.300000X1.600000X-0.300000X1.600000X0*%
%ADD38C,0.650000*%
%ADD39RoundRect,0.150000X0.575000X-0.150000X0.575000X0.150000X-0.575000X0.150000X-0.575000X-0.150000X0*%
%ADD40RoundRect,0.075000X0.650000X-0.075000X0.650000X0.075000X-0.650000X0.075000X-0.650000X-0.075000X0*%
%ADD41O,2.100000X1.000000*%
%ADD42O,1.600000X1.000000*%
%ADD43RoundRect,0.112500X-0.187500X-0.112500X0.187500X-0.112500X0.187500X0.112500X-0.187500X0.112500X0*%
%ADD44R,1.500000X0.900000*%
%ADD45R,0.900000X1.500000*%
%ADD46R,0.900000X0.900000*%
%ADD47C,0.600000*%
G04 APERTURE END LIST*
D10*
X48390476Y-48401430D02*
X48314286Y-48363335D01*
X48314286Y-48363335D02*
X48200000Y-48363335D01*
X48200000Y-48363335D02*
X48085714Y-48401430D01*
X48085714Y-48401430D02*
X48009524Y-48477620D01*
X48009524Y-48477620D02*
X47971429Y-48553811D01*
X47971429Y-48553811D02*
X47933333Y-48706192D01*
X47933333Y-48706192D02*
X47933333Y-48820478D01*
X47933333Y-48820478D02*
X47971429Y-48972859D01*
X47971429Y-48972859D02*
X48009524Y-49049049D01*
X48009524Y-49049049D02*
X48085714Y-49125240D01*
X48085714Y-49125240D02*
X48200000Y-49163335D01*
X48200000Y-49163335D02*
X48276191Y-49163335D01*
X48276191Y-49163335D02*
X48390476Y-49125240D01*
X48390476Y-49125240D02*
X48428572Y-49087144D01*
X48428572Y-49087144D02*
X48428572Y-48820478D01*
X48428572Y-48820478D02*
X48276191Y-48820478D01*
X48771429Y-49163335D02*
X48771429Y-48363335D01*
X48771429Y-48363335D02*
X49228572Y-49163335D01*
X49228572Y-49163335D02*
X49228572Y-48363335D01*
X49609524Y-49163335D02*
X49609524Y-48363335D01*
X49609524Y-48363335D02*
X49800000Y-48363335D01*
X49800000Y-48363335D02*
X49914286Y-48401430D01*
X49914286Y-48401430D02*
X49990476Y-48477620D01*
X49990476Y-48477620D02*
X50028571Y-48553811D01*
X50028571Y-48553811D02*
X50066667Y-48706192D01*
X50066667Y-48706192D02*
X50066667Y-48820478D01*
X50066667Y-48820478D02*
X50028571Y-48972859D01*
X50028571Y-48972859D02*
X49990476Y-49049049D01*
X49990476Y-49049049D02*
X49914286Y-49125240D01*
X49914286Y-49125240D02*
X49800000Y-49163335D01*
X49800000Y-49163335D02*
X49609524Y-49163335D01*
X51590476Y-48363335D02*
X52047619Y-48363335D01*
X51819047Y-49163335D02*
X51819047Y-48363335D01*
X52238095Y-48363335D02*
X52771429Y-49163335D01*
X52771429Y-48363335D02*
X52238095Y-49163335D01*
X55266667Y-49163335D02*
X55000000Y-48782382D01*
X54809524Y-49163335D02*
X54809524Y-48363335D01*
X54809524Y-48363335D02*
X55114286Y-48363335D01*
X55114286Y-48363335D02*
X55190476Y-48401430D01*
X55190476Y-48401430D02*
X55228571Y-48439525D01*
X55228571Y-48439525D02*
X55266667Y-48515716D01*
X55266667Y-48515716D02*
X55266667Y-48630001D01*
X55266667Y-48630001D02*
X55228571Y-48706192D01*
X55228571Y-48706192D02*
X55190476Y-48744287D01*
X55190476Y-48744287D02*
X55114286Y-48782382D01*
X55114286Y-48782382D02*
X54809524Y-48782382D01*
X55533333Y-48363335D02*
X56066667Y-49163335D01*
X56066667Y-48363335D02*
X55533333Y-49163335D01*
D11*
X25692857Y-41209077D02*
X25392857Y-40780505D01*
X25178571Y-41209077D02*
X25178571Y-40309077D01*
X25178571Y-40309077D02*
X25521428Y-40309077D01*
X25521428Y-40309077D02*
X25607143Y-40351934D01*
X25607143Y-40351934D02*
X25650000Y-40394791D01*
X25650000Y-40394791D02*
X25692857Y-40480505D01*
X25692857Y-40480505D02*
X25692857Y-40609077D01*
X25692857Y-40609077D02*
X25650000Y-40694791D01*
X25650000Y-40694791D02*
X25607143Y-40737648D01*
X25607143Y-40737648D02*
X25521428Y-40780505D01*
X25521428Y-40780505D02*
X25178571Y-40780505D01*
X26078571Y-40737648D02*
X26378571Y-40737648D01*
X26507143Y-41209077D02*
X26078571Y-41209077D01*
X26078571Y-41209077D02*
X26078571Y-40309077D01*
X26078571Y-40309077D02*
X26507143Y-40309077D01*
X26850000Y-41166220D02*
X26978572Y-41209077D01*
X26978572Y-41209077D02*
X27192857Y-41209077D01*
X27192857Y-41209077D02*
X27278572Y-41166220D01*
X27278572Y-41166220D02*
X27321429Y-41123362D01*
X27321429Y-41123362D02*
X27364286Y-41037648D01*
X27364286Y-41037648D02*
X27364286Y-40951934D01*
X27364286Y-40951934D02*
X27321429Y-40866220D01*
X27321429Y-40866220D02*
X27278572Y-40823362D01*
X27278572Y-40823362D02*
X27192857Y-40780505D01*
X27192857Y-40780505D02*
X27021429Y-40737648D01*
X27021429Y-40737648D02*
X26935714Y-40694791D01*
X26935714Y-40694791D02*
X26892857Y-40651934D01*
X26892857Y-40651934D02*
X26850000Y-40566220D01*
X26850000Y-40566220D02*
X26850000Y-40480505D01*
X26850000Y-40480505D02*
X26892857Y-40394791D01*
X26892857Y-40394791D02*
X26935714Y-40351934D01*
X26935714Y-40351934D02*
X27021429Y-40309077D01*
X27021429Y-40309077D02*
X27235714Y-40309077D01*
X27235714Y-40309077D02*
X27364286Y-40351934D01*
X27750000Y-40737648D02*
X28050000Y-40737648D01*
X28178572Y-41209077D02*
X27750000Y-41209077D01*
X27750000Y-41209077D02*
X27750000Y-40309077D01*
X27750000Y-40309077D02*
X28178572Y-40309077D01*
X28435715Y-40309077D02*
X28950001Y-40309077D01*
X28692858Y-41209077D02*
X28692858Y-40309077D01*
X46242857Y-47466220D02*
X46371429Y-47509077D01*
X46371429Y-47509077D02*
X46585714Y-47509077D01*
X46585714Y-47509077D02*
X46671429Y-47466220D01*
X46671429Y-47466220D02*
X46714286Y-47423362D01*
X46714286Y-47423362D02*
X46757143Y-47337648D01*
X46757143Y-47337648D02*
X46757143Y-47251934D01*
X46757143Y-47251934D02*
X46714286Y-47166220D01*
X46714286Y-47166220D02*
X46671429Y-47123362D01*
X46671429Y-47123362D02*
X46585714Y-47080505D01*
X46585714Y-47080505D02*
X46414286Y-47037648D01*
X46414286Y-47037648D02*
X46328571Y-46994791D01*
X46328571Y-46994791D02*
X46285714Y-46951934D01*
X46285714Y-46951934D02*
X46242857Y-46866220D01*
X46242857Y-46866220D02*
X46242857Y-46780505D01*
X46242857Y-46780505D02*
X46285714Y-46694791D01*
X46285714Y-46694791D02*
X46328571Y-46651934D01*
X46328571Y-46651934D02*
X46414286Y-46609077D01*
X46414286Y-46609077D02*
X46628571Y-46609077D01*
X46628571Y-46609077D02*
X46757143Y-46651934D01*
X47142857Y-47037648D02*
X47442857Y-47037648D01*
X47571429Y-47509077D02*
X47142857Y-47509077D01*
X47142857Y-47509077D02*
X47142857Y-46609077D01*
X47142857Y-46609077D02*
X47571429Y-46609077D01*
X48471429Y-47509077D02*
X48171429Y-47080505D01*
X47957143Y-47509077D02*
X47957143Y-46609077D01*
X47957143Y-46609077D02*
X48300000Y-46609077D01*
X48300000Y-46609077D02*
X48385715Y-46651934D01*
X48385715Y-46651934D02*
X48428572Y-46694791D01*
X48428572Y-46694791D02*
X48471429Y-46780505D01*
X48471429Y-46780505D02*
X48471429Y-46909077D01*
X48471429Y-46909077D02*
X48428572Y-46994791D01*
X48428572Y-46994791D02*
X48385715Y-47037648D01*
X48385715Y-47037648D02*
X48300000Y-47080505D01*
X48300000Y-47080505D02*
X47957143Y-47080505D01*
X48728572Y-46609077D02*
X49028572Y-47509077D01*
X49028572Y-47509077D02*
X49328572Y-46609077D01*
X49628572Y-47509077D02*
X49628572Y-46609077D01*
X50571429Y-47423362D02*
X50528572Y-47466220D01*
X50528572Y-47466220D02*
X50400000Y-47509077D01*
X50400000Y-47509077D02*
X50314286Y-47509077D01*
X50314286Y-47509077D02*
X50185715Y-47466220D01*
X50185715Y-47466220D02*
X50100000Y-47380505D01*
X50100000Y-47380505D02*
X50057143Y-47294791D01*
X50057143Y-47294791D02*
X50014286Y-47123362D01*
X50014286Y-47123362D02*
X50014286Y-46994791D01*
X50014286Y-46994791D02*
X50057143Y-46823362D01*
X50057143Y-46823362D02*
X50100000Y-46737648D01*
X50100000Y-46737648D02*
X50185715Y-46651934D01*
X50185715Y-46651934D02*
X50314286Y-46609077D01*
X50314286Y-46609077D02*
X50400000Y-46609077D01*
X50400000Y-46609077D02*
X50528572Y-46651934D01*
X50528572Y-46651934D02*
X50571429Y-46694791D01*
X50957143Y-47037648D02*
X51257143Y-47037648D01*
X51385715Y-47509077D02*
X50957143Y-47509077D01*
X50957143Y-47509077D02*
X50957143Y-46609077D01*
X50957143Y-46609077D02*
X51385715Y-46609077D01*
X53100000Y-46566220D02*
X52328572Y-47723362D01*
X54085714Y-47509077D02*
X54085714Y-46609077D01*
X54085714Y-46609077D02*
X54300000Y-46609077D01*
X54300000Y-46609077D02*
X54428571Y-46651934D01*
X54428571Y-46651934D02*
X54514286Y-46737648D01*
X54514286Y-46737648D02*
X54557143Y-46823362D01*
X54557143Y-46823362D02*
X54600000Y-46994791D01*
X54600000Y-46994791D02*
X54600000Y-47123362D01*
X54600000Y-47123362D02*
X54557143Y-47294791D01*
X54557143Y-47294791D02*
X54514286Y-47380505D01*
X54514286Y-47380505D02*
X54428571Y-47466220D01*
X54428571Y-47466220D02*
X54300000Y-47509077D01*
X54300000Y-47509077D02*
X54085714Y-47509077D01*
X54985714Y-47037648D02*
X55285714Y-47037648D01*
X55414286Y-47509077D02*
X54985714Y-47509077D01*
X54985714Y-47509077D02*
X54985714Y-46609077D01*
X54985714Y-46609077D02*
X55414286Y-46609077D01*
X56100000Y-47037648D02*
X56228572Y-47080505D01*
X56228572Y-47080505D02*
X56271429Y-47123362D01*
X56271429Y-47123362D02*
X56314286Y-47209077D01*
X56314286Y-47209077D02*
X56314286Y-47337648D01*
X56314286Y-47337648D02*
X56271429Y-47423362D01*
X56271429Y-47423362D02*
X56228572Y-47466220D01*
X56228572Y-47466220D02*
X56142857Y-47509077D01*
X56142857Y-47509077D02*
X55800000Y-47509077D01*
X55800000Y-47509077D02*
X55800000Y-46609077D01*
X55800000Y-46609077D02*
X56100000Y-46609077D01*
X56100000Y-46609077D02*
X56185715Y-46651934D01*
X56185715Y-46651934D02*
X56228572Y-46694791D01*
X56228572Y-46694791D02*
X56271429Y-46780505D01*
X56271429Y-46780505D02*
X56271429Y-46866220D01*
X56271429Y-46866220D02*
X56228572Y-46951934D01*
X56228572Y-46951934D02*
X56185715Y-46994791D01*
X56185715Y-46994791D02*
X56100000Y-47037648D01*
X56100000Y-47037648D02*
X55800000Y-47037648D01*
X56700000Y-46609077D02*
X56700000Y-47337648D01*
X56700000Y-47337648D02*
X56742857Y-47423362D01*
X56742857Y-47423362D02*
X56785715Y-47466220D01*
X56785715Y-47466220D02*
X56871429Y-47509077D01*
X56871429Y-47509077D02*
X57042857Y-47509077D01*
X57042857Y-47509077D02*
X57128572Y-47466220D01*
X57128572Y-47466220D02*
X57171429Y-47423362D01*
X57171429Y-47423362D02*
X57214286Y-47337648D01*
X57214286Y-47337648D02*
X57214286Y-46609077D01*
X58114286Y-46651934D02*
X58028572Y-46609077D01*
X58028572Y-46609077D02*
X57900000Y-46609077D01*
X57900000Y-46609077D02*
X57771429Y-46651934D01*
X57771429Y-46651934D02*
X57685714Y-46737648D01*
X57685714Y-46737648D02*
X57642857Y-46823362D01*
X57642857Y-46823362D02*
X57600000Y-46994791D01*
X57600000Y-46994791D02*
X57600000Y-47123362D01*
X57600000Y-47123362D02*
X57642857Y-47294791D01*
X57642857Y-47294791D02*
X57685714Y-47380505D01*
X57685714Y-47380505D02*
X57771429Y-47466220D01*
X57771429Y-47466220D02*
X57900000Y-47509077D01*
X57900000Y-47509077D02*
X57985714Y-47509077D01*
X57985714Y-47509077D02*
X58114286Y-47466220D01*
X58114286Y-47466220D02*
X58157143Y-47423362D01*
X58157143Y-47423362D02*
X58157143Y-47123362D01*
X58157143Y-47123362D02*
X57985714Y-47123362D01*
X54778571Y-40737648D02*
X54907143Y-40780505D01*
X54907143Y-40780505D02*
X54950000Y-40823362D01*
X54950000Y-40823362D02*
X54992857Y-40909077D01*
X54992857Y-40909077D02*
X54992857Y-41037648D01*
X54992857Y-41037648D02*
X54950000Y-41123362D01*
X54950000Y-41123362D02*
X54907143Y-41166220D01*
X54907143Y-41166220D02*
X54821428Y-41209077D01*
X54821428Y-41209077D02*
X54478571Y-41209077D01*
X54478571Y-41209077D02*
X54478571Y-40309077D01*
X54478571Y-40309077D02*
X54778571Y-40309077D01*
X54778571Y-40309077D02*
X54864286Y-40351934D01*
X54864286Y-40351934D02*
X54907143Y-40394791D01*
X54907143Y-40394791D02*
X54950000Y-40480505D01*
X54950000Y-40480505D02*
X54950000Y-40566220D01*
X54950000Y-40566220D02*
X54907143Y-40651934D01*
X54907143Y-40651934D02*
X54864286Y-40694791D01*
X54864286Y-40694791D02*
X54778571Y-40737648D01*
X54778571Y-40737648D02*
X54478571Y-40737648D01*
X55550000Y-40309077D02*
X55721428Y-40309077D01*
X55721428Y-40309077D02*
X55807143Y-40351934D01*
X55807143Y-40351934D02*
X55892857Y-40437648D01*
X55892857Y-40437648D02*
X55935714Y-40609077D01*
X55935714Y-40609077D02*
X55935714Y-40909077D01*
X55935714Y-40909077D02*
X55892857Y-41080505D01*
X55892857Y-41080505D02*
X55807143Y-41166220D01*
X55807143Y-41166220D02*
X55721428Y-41209077D01*
X55721428Y-41209077D02*
X55550000Y-41209077D01*
X55550000Y-41209077D02*
X55464286Y-41166220D01*
X55464286Y-41166220D02*
X55378571Y-41080505D01*
X55378571Y-41080505D02*
X55335714Y-40909077D01*
X55335714Y-40909077D02*
X55335714Y-40609077D01*
X55335714Y-40609077D02*
X55378571Y-40437648D01*
X55378571Y-40437648D02*
X55464286Y-40351934D01*
X55464286Y-40351934D02*
X55550000Y-40309077D01*
X56492857Y-40309077D02*
X56664285Y-40309077D01*
X56664285Y-40309077D02*
X56750000Y-40351934D01*
X56750000Y-40351934D02*
X56835714Y-40437648D01*
X56835714Y-40437648D02*
X56878571Y-40609077D01*
X56878571Y-40609077D02*
X56878571Y-40909077D01*
X56878571Y-40909077D02*
X56835714Y-41080505D01*
X56835714Y-41080505D02*
X56750000Y-41166220D01*
X56750000Y-41166220D02*
X56664285Y-41209077D01*
X56664285Y-41209077D02*
X56492857Y-41209077D01*
X56492857Y-41209077D02*
X56407143Y-41166220D01*
X56407143Y-41166220D02*
X56321428Y-41080505D01*
X56321428Y-41080505D02*
X56278571Y-40909077D01*
X56278571Y-40909077D02*
X56278571Y-40609077D01*
X56278571Y-40609077D02*
X56321428Y-40437648D01*
X56321428Y-40437648D02*
X56407143Y-40351934D01*
X56407143Y-40351934D02*
X56492857Y-40309077D01*
X57135714Y-40309077D02*
X57650000Y-40309077D01*
X57392857Y-41209077D02*
X57392857Y-40309077D01*
X65509077Y-31999999D02*
X66151934Y-31999999D01*
X66151934Y-31999999D02*
X66280505Y-32042856D01*
X66280505Y-32042856D02*
X66366220Y-32128570D01*
X66366220Y-32128570D02*
X66409077Y-32257142D01*
X66409077Y-32257142D02*
X66409077Y-32342856D01*
X65509077Y-31657142D02*
X65509077Y-31099999D01*
X65509077Y-31099999D02*
X65851934Y-31399999D01*
X65851934Y-31399999D02*
X65851934Y-31271428D01*
X65851934Y-31271428D02*
X65894791Y-31185714D01*
X65894791Y-31185714D02*
X65937648Y-31142856D01*
X65937648Y-31142856D02*
X66023362Y-31099999D01*
X66023362Y-31099999D02*
X66237648Y-31099999D01*
X66237648Y-31099999D02*
X66323362Y-31142856D01*
X66323362Y-31142856D02*
X66366220Y-31185714D01*
X66366220Y-31185714D02*
X66409077Y-31271428D01*
X66409077Y-31271428D02*
X66409077Y-31528571D01*
X66409077Y-31528571D02*
X66366220Y-31614285D01*
X66366220Y-31614285D02*
X66323362Y-31657142D01*
X65509077Y-30028571D02*
X66237648Y-30028571D01*
X66237648Y-30028571D02*
X66323362Y-29985714D01*
X66323362Y-29985714D02*
X66366220Y-29942857D01*
X66366220Y-29942857D02*
X66409077Y-29857142D01*
X66409077Y-29857142D02*
X66409077Y-29685714D01*
X66409077Y-29685714D02*
X66366220Y-29599999D01*
X66366220Y-29599999D02*
X66323362Y-29557142D01*
X66323362Y-29557142D02*
X66237648Y-29514285D01*
X66237648Y-29514285D02*
X65509077Y-29514285D01*
X66366220Y-29128571D02*
X66409077Y-29000000D01*
X66409077Y-29000000D02*
X66409077Y-28785714D01*
X66409077Y-28785714D02*
X66366220Y-28700000D01*
X66366220Y-28700000D02*
X66323362Y-28657142D01*
X66323362Y-28657142D02*
X66237648Y-28614285D01*
X66237648Y-28614285D02*
X66151934Y-28614285D01*
X66151934Y-28614285D02*
X66066220Y-28657142D01*
X66066220Y-28657142D02*
X66023362Y-28700000D01*
X66023362Y-28700000D02*
X65980505Y-28785714D01*
X65980505Y-28785714D02*
X65937648Y-28957142D01*
X65937648Y-28957142D02*
X65894791Y-29042857D01*
X65894791Y-29042857D02*
X65851934Y-29085714D01*
X65851934Y-29085714D02*
X65766220Y-29128571D01*
X65766220Y-29128571D02*
X65680505Y-29128571D01*
X65680505Y-29128571D02*
X65594791Y-29085714D01*
X65594791Y-29085714D02*
X65551934Y-29042857D01*
X65551934Y-29042857D02*
X65509077Y-28957142D01*
X65509077Y-28957142D02*
X65509077Y-28742857D01*
X65509077Y-28742857D02*
X65551934Y-28614285D01*
X65937648Y-27928571D02*
X65980505Y-27799999D01*
X65980505Y-27799999D02*
X66023362Y-27757142D01*
X66023362Y-27757142D02*
X66109077Y-27714285D01*
X66109077Y-27714285D02*
X66237648Y-27714285D01*
X66237648Y-27714285D02*
X66323362Y-27757142D01*
X66323362Y-27757142D02*
X66366220Y-27799999D01*
X66366220Y-27799999D02*
X66409077Y-27885714D01*
X66409077Y-27885714D02*
X66409077Y-28228571D01*
X66409077Y-28228571D02*
X65509077Y-28228571D01*
X65509077Y-28228571D02*
X65509077Y-27928571D01*
X65509077Y-27928571D02*
X65551934Y-27842857D01*
X65551934Y-27842857D02*
X65594791Y-27799999D01*
X65594791Y-27799999D02*
X65680505Y-27757142D01*
X65680505Y-27757142D02*
X65766220Y-27757142D01*
X65766220Y-27757142D02*
X65851934Y-27799999D01*
X65851934Y-27799999D02*
X65894791Y-27842857D01*
X65894791Y-27842857D02*
X65937648Y-27928571D01*
X65937648Y-27928571D02*
X65937648Y-28228571D01*
X66066220Y-27328571D02*
X66066220Y-26642857D01*
X66323362Y-25699999D02*
X66366220Y-25742856D01*
X66366220Y-25742856D02*
X66409077Y-25871428D01*
X66409077Y-25871428D02*
X66409077Y-25957142D01*
X66409077Y-25957142D02*
X66366220Y-26085713D01*
X66366220Y-26085713D02*
X66280505Y-26171428D01*
X66280505Y-26171428D02*
X66194791Y-26214285D01*
X66194791Y-26214285D02*
X66023362Y-26257142D01*
X66023362Y-26257142D02*
X65894791Y-26257142D01*
X65894791Y-26257142D02*
X65723362Y-26214285D01*
X65723362Y-26214285D02*
X65637648Y-26171428D01*
X65637648Y-26171428D02*
X65551934Y-26085713D01*
X65551934Y-26085713D02*
X65509077Y-25957142D01*
X65509077Y-25957142D02*
X65509077Y-25871428D01*
X65509077Y-25871428D02*
X65551934Y-25742856D01*
X65551934Y-25742856D02*
X65594791Y-25699999D01*
D12*
X671429Y-3545782D02*
X671429Y-2345782D01*
X671429Y-2345782D02*
X1357143Y-3545782D01*
X1357143Y-3545782D02*
X1357143Y-2345782D01*
X2385715Y-3488640D02*
X2271429Y-3545782D01*
X2271429Y-3545782D02*
X2042858Y-3545782D01*
X2042858Y-3545782D02*
X1928572Y-3488640D01*
X1928572Y-3488640D02*
X1871429Y-3374354D01*
X1871429Y-3374354D02*
X1871429Y-2917211D01*
X1871429Y-2917211D02*
X1928572Y-2802925D01*
X1928572Y-2802925D02*
X2042858Y-2745782D01*
X2042858Y-2745782D02*
X2271429Y-2745782D01*
X2271429Y-2745782D02*
X2385715Y-2802925D01*
X2385715Y-2802925D02*
X2442858Y-2917211D01*
X2442858Y-2917211D02*
X2442858Y-3031497D01*
X2442858Y-3031497D02*
X1871429Y-3145782D01*
X2842857Y-2745782D02*
X3071429Y-3545782D01*
X3071429Y-3545782D02*
X3300000Y-2974354D01*
X3300000Y-2974354D02*
X3528571Y-3545782D01*
X3528571Y-3545782D02*
X3757143Y-2745782D01*
X4214286Y-3545782D02*
X4214286Y-2345782D01*
X4214286Y-2345782D02*
X4671429Y-2345782D01*
X4671429Y-2345782D02*
X4785714Y-2402925D01*
X4785714Y-2402925D02*
X4842857Y-2460068D01*
X4842857Y-2460068D02*
X4900000Y-2574354D01*
X4900000Y-2574354D02*
X4900000Y-2745782D01*
X4900000Y-2745782D02*
X4842857Y-2860068D01*
X4842857Y-2860068D02*
X4785714Y-2917211D01*
X4785714Y-2917211D02*
X4671429Y-2974354D01*
X4671429Y-2974354D02*
X4214286Y-2974354D01*
X5585714Y-3545782D02*
X5471429Y-3488640D01*
X5471429Y-3488640D02*
X5414286Y-3374354D01*
X5414286Y-3374354D02*
X5414286Y-2345782D01*
X6557143Y-3545782D02*
X6557143Y-2917211D01*
X6557143Y-2917211D02*
X6500000Y-2802925D01*
X6500000Y-2802925D02*
X6385714Y-2745782D01*
X6385714Y-2745782D02*
X6157143Y-2745782D01*
X6157143Y-2745782D02*
X6042857Y-2802925D01*
X6557143Y-3488640D02*
X6442857Y-3545782D01*
X6442857Y-3545782D02*
X6157143Y-3545782D01*
X6157143Y-3545782D02*
X6042857Y-3488640D01*
X6042857Y-3488640D02*
X5985714Y-3374354D01*
X5985714Y-3374354D02*
X5985714Y-3260068D01*
X5985714Y-3260068D02*
X6042857Y-3145782D01*
X6042857Y-3145782D02*
X6157143Y-3088640D01*
X6157143Y-3088640D02*
X6442857Y-3088640D01*
X6442857Y-3088640D02*
X6557143Y-3031497D01*
X7014285Y-2745782D02*
X7299999Y-3545782D01*
X7585714Y-2745782D02*
X7299999Y-3545782D01*
X7299999Y-3545782D02*
X7185714Y-3831497D01*
X7185714Y-3831497D02*
X7128571Y-3888640D01*
X7128571Y-3888640D02*
X7014285Y-3945782D01*
X8442857Y-2917211D02*
X8614285Y-2974354D01*
X8614285Y-2974354D02*
X8671428Y-3031497D01*
X8671428Y-3031497D02*
X8728571Y-3145782D01*
X8728571Y-3145782D02*
X8728571Y-3317211D01*
X8728571Y-3317211D02*
X8671428Y-3431497D01*
X8671428Y-3431497D02*
X8614285Y-3488640D01*
X8614285Y-3488640D02*
X8500000Y-3545782D01*
X8500000Y-3545782D02*
X8042857Y-3545782D01*
X8042857Y-3545782D02*
X8042857Y-2345782D01*
X8042857Y-2345782D02*
X8442857Y-2345782D01*
X8442857Y-2345782D02*
X8557143Y-2402925D01*
X8557143Y-2402925D02*
X8614285Y-2460068D01*
X8614285Y-2460068D02*
X8671428Y-2574354D01*
X8671428Y-2574354D02*
X8671428Y-2688640D01*
X8671428Y-2688640D02*
X8614285Y-2802925D01*
X8614285Y-2802925D02*
X8557143Y-2860068D01*
X8557143Y-2860068D02*
X8442857Y-2917211D01*
X8442857Y-2917211D02*
X8042857Y-2917211D01*
X9242857Y-3545782D02*
X9242857Y-2745782D01*
X9242857Y-2974354D02*
X9300000Y-2860068D01*
X9300000Y-2860068D02*
X9357143Y-2802925D01*
X9357143Y-2802925D02*
X9471428Y-2745782D01*
X9471428Y-2745782D02*
X9585714Y-2745782D01*
X9985714Y-3545782D02*
X9985714Y-2745782D01*
X9985714Y-2345782D02*
X9928571Y-2402925D01*
X9928571Y-2402925D02*
X9985714Y-2460068D01*
X9985714Y-2460068D02*
X10042857Y-2402925D01*
X10042857Y-2402925D02*
X9985714Y-2345782D01*
X9985714Y-2345782D02*
X9985714Y-2460068D01*
X11071429Y-3545782D02*
X11071429Y-2345782D01*
X11071429Y-3488640D02*
X10957143Y-3545782D01*
X10957143Y-3545782D02*
X10728571Y-3545782D01*
X10728571Y-3545782D02*
X10614286Y-3488640D01*
X10614286Y-3488640D02*
X10557143Y-3431497D01*
X10557143Y-3431497D02*
X10500000Y-3317211D01*
X10500000Y-3317211D02*
X10500000Y-2974354D01*
X10500000Y-2974354D02*
X10557143Y-2860068D01*
X10557143Y-2860068D02*
X10614286Y-2802925D01*
X10614286Y-2802925D02*
X10728571Y-2745782D01*
X10728571Y-2745782D02*
X10957143Y-2745782D01*
X10957143Y-2745782D02*
X11071429Y-2802925D01*
X12157143Y-2745782D02*
X12157143Y-3717211D01*
X12157143Y-3717211D02*
X12100000Y-3831497D01*
X12100000Y-3831497D02*
X12042857Y-3888640D01*
X12042857Y-3888640D02*
X11928571Y-3945782D01*
X11928571Y-3945782D02*
X11757143Y-3945782D01*
X11757143Y-3945782D02*
X11642857Y-3888640D01*
X12157143Y-3488640D02*
X12042857Y-3545782D01*
X12042857Y-3545782D02*
X11814285Y-3545782D01*
X11814285Y-3545782D02*
X11700000Y-3488640D01*
X11700000Y-3488640D02*
X11642857Y-3431497D01*
X11642857Y-3431497D02*
X11585714Y-3317211D01*
X11585714Y-3317211D02*
X11585714Y-2974354D01*
X11585714Y-2974354D02*
X11642857Y-2860068D01*
X11642857Y-2860068D02*
X11700000Y-2802925D01*
X11700000Y-2802925D02*
X11814285Y-2745782D01*
X11814285Y-2745782D02*
X12042857Y-2745782D01*
X12042857Y-2745782D02*
X12157143Y-2802925D01*
X13185714Y-3488640D02*
X13071428Y-3545782D01*
X13071428Y-3545782D02*
X12842857Y-3545782D01*
X12842857Y-3545782D02*
X12728571Y-3488640D01*
X12728571Y-3488640D02*
X12671428Y-3374354D01*
X12671428Y-3374354D02*
X12671428Y-2917211D01*
X12671428Y-2917211D02*
X12728571Y-2802925D01*
X12728571Y-2802925D02*
X12842857Y-2745782D01*
X12842857Y-2745782D02*
X13071428Y-2745782D01*
X13071428Y-2745782D02*
X13185714Y-2802925D01*
X13185714Y-2802925D02*
X13242857Y-2917211D01*
X13242857Y-2917211D02*
X13242857Y-3031497D01*
X13242857Y-3031497D02*
X12671428Y-3145782D01*
X13699999Y-2460068D02*
X13757142Y-2402925D01*
X13757142Y-2402925D02*
X13871428Y-2345782D01*
X13871428Y-2345782D02*
X14157142Y-2345782D01*
X14157142Y-2345782D02*
X14271428Y-2402925D01*
X14271428Y-2402925D02*
X14328570Y-2460068D01*
X14328570Y-2460068D02*
X14385713Y-2574354D01*
X14385713Y-2574354D02*
X14385713Y-2688640D01*
X14385713Y-2688640D02*
X14328570Y-2860068D01*
X14328570Y-2860068D02*
X13642856Y-3545782D01*
X13642856Y-3545782D02*
X14385713Y-3545782D01*
D13*
X15833333Y-11929580D02*
X15785714Y-11977200D01*
X15785714Y-11977200D02*
X15642857Y-12024819D01*
X15642857Y-12024819D02*
X15547619Y-12024819D01*
X15547619Y-12024819D02*
X15404762Y-11977200D01*
X15404762Y-11977200D02*
X15309524Y-11881961D01*
X15309524Y-11881961D02*
X15261905Y-11786723D01*
X15261905Y-11786723D02*
X15214286Y-11596247D01*
X15214286Y-11596247D02*
X15214286Y-11453390D01*
X15214286Y-11453390D02*
X15261905Y-11262914D01*
X15261905Y-11262914D02*
X15309524Y-11167676D01*
X15309524Y-11167676D02*
X15404762Y-11072438D01*
X15404762Y-11072438D02*
X15547619Y-11024819D01*
X15547619Y-11024819D02*
X15642857Y-11024819D01*
X15642857Y-11024819D02*
X15785714Y-11072438D01*
X15785714Y-11072438D02*
X15833333Y-11120057D01*
X16309524Y-12024819D02*
X16500000Y-12024819D01*
X16500000Y-12024819D02*
X16595238Y-11977200D01*
X16595238Y-11977200D02*
X16642857Y-11929580D01*
X16642857Y-11929580D02*
X16738095Y-11786723D01*
X16738095Y-11786723D02*
X16785714Y-11596247D01*
X16785714Y-11596247D02*
X16785714Y-11215295D01*
X16785714Y-11215295D02*
X16738095Y-11120057D01*
X16738095Y-11120057D02*
X16690476Y-11072438D01*
X16690476Y-11072438D02*
X16595238Y-11024819D01*
X16595238Y-11024819D02*
X16404762Y-11024819D01*
X16404762Y-11024819D02*
X16309524Y-11072438D01*
X16309524Y-11072438D02*
X16261905Y-11120057D01*
X16261905Y-11120057D02*
X16214286Y-11215295D01*
X16214286Y-11215295D02*
X16214286Y-11453390D01*
X16214286Y-11453390D02*
X16261905Y-11548628D01*
X16261905Y-11548628D02*
X16309524Y-11596247D01*
X16309524Y-11596247D02*
X16404762Y-11643866D01*
X16404762Y-11643866D02*
X16595238Y-11643866D01*
X16595238Y-11643866D02*
X16690476Y-11596247D01*
X16690476Y-11596247D02*
X16738095Y-11548628D01*
X16738095Y-11548628D02*
X16785714Y-11453390D01*
X3666666Y-12101009D02*
X3333333Y-12101009D01*
X3333333Y-12624819D02*
X3333333Y-11624819D01*
X3333333Y-11624819D02*
X3809523Y-11624819D01*
X4142857Y-11720057D02*
X4190476Y-11672438D01*
X4190476Y-11672438D02*
X4285714Y-11624819D01*
X4285714Y-11624819D02*
X4523809Y-11624819D01*
X4523809Y-11624819D02*
X4619047Y-11672438D01*
X4619047Y-11672438D02*
X4666666Y-11720057D01*
X4666666Y-11720057D02*
X4714285Y-11815295D01*
X4714285Y-11815295D02*
X4714285Y-11910533D01*
X4714285Y-11910533D02*
X4666666Y-12053390D01*
X4666666Y-12053390D02*
X4095238Y-12624819D01*
X4095238Y-12624819D02*
X4714285Y-12624819D01*
X49833333Y-12929580D02*
X49785714Y-12977200D01*
X49785714Y-12977200D02*
X49642857Y-13024819D01*
X49642857Y-13024819D02*
X49547619Y-13024819D01*
X49547619Y-13024819D02*
X49404762Y-12977200D01*
X49404762Y-12977200D02*
X49309524Y-12881961D01*
X49309524Y-12881961D02*
X49261905Y-12786723D01*
X49261905Y-12786723D02*
X49214286Y-12596247D01*
X49214286Y-12596247D02*
X49214286Y-12453390D01*
X49214286Y-12453390D02*
X49261905Y-12262914D01*
X49261905Y-12262914D02*
X49309524Y-12167676D01*
X49309524Y-12167676D02*
X49404762Y-12072438D01*
X49404762Y-12072438D02*
X49547619Y-12024819D01*
X49547619Y-12024819D02*
X49642857Y-12024819D01*
X49642857Y-12024819D02*
X49785714Y-12072438D01*
X49785714Y-12072438D02*
X49833333Y-12120057D01*
X50166667Y-12024819D02*
X50785714Y-12024819D01*
X50785714Y-12024819D02*
X50452381Y-12405771D01*
X50452381Y-12405771D02*
X50595238Y-12405771D01*
X50595238Y-12405771D02*
X50690476Y-12453390D01*
X50690476Y-12453390D02*
X50738095Y-12501009D01*
X50738095Y-12501009D02*
X50785714Y-12596247D01*
X50785714Y-12596247D02*
X50785714Y-12834342D01*
X50785714Y-12834342D02*
X50738095Y-12929580D01*
X50738095Y-12929580D02*
X50690476Y-12977200D01*
X50690476Y-12977200D02*
X50595238Y-13024819D01*
X50595238Y-13024819D02*
X50309524Y-13024819D01*
X50309524Y-13024819D02*
X50214286Y-12977200D01*
X50214286Y-12977200D02*
X50166667Y-12929580D01*
X7524819Y-37642857D02*
X7048628Y-37976190D01*
X7524819Y-38214285D02*
X6524819Y-38214285D01*
X6524819Y-38214285D02*
X6524819Y-37833333D01*
X6524819Y-37833333D02*
X6572438Y-37738095D01*
X6572438Y-37738095D02*
X6620057Y-37690476D01*
X6620057Y-37690476D02*
X6715295Y-37642857D01*
X6715295Y-37642857D02*
X6858152Y-37642857D01*
X6858152Y-37642857D02*
X6953390Y-37690476D01*
X6953390Y-37690476D02*
X7001009Y-37738095D01*
X7001009Y-37738095D02*
X7048628Y-37833333D01*
X7048628Y-37833333D02*
X7048628Y-38214285D01*
X6524819Y-37309523D02*
X6524819Y-36690476D01*
X6524819Y-36690476D02*
X6905771Y-37023809D01*
X6905771Y-37023809D02*
X6905771Y-36880952D01*
X6905771Y-36880952D02*
X6953390Y-36785714D01*
X6953390Y-36785714D02*
X7001009Y-36738095D01*
X7001009Y-36738095D02*
X7096247Y-36690476D01*
X7096247Y-36690476D02*
X7334342Y-36690476D01*
X7334342Y-36690476D02*
X7429580Y-36738095D01*
X7429580Y-36738095D02*
X7477200Y-36785714D01*
X7477200Y-36785714D02*
X7524819Y-36880952D01*
X7524819Y-36880952D02*
X7524819Y-37166666D01*
X7524819Y-37166666D02*
X7477200Y-37261904D01*
X7477200Y-37261904D02*
X7429580Y-37309523D01*
X6524819Y-35833333D02*
X6524819Y-36023809D01*
X6524819Y-36023809D02*
X6572438Y-36119047D01*
X6572438Y-36119047D02*
X6620057Y-36166666D01*
X6620057Y-36166666D02*
X6762914Y-36261904D01*
X6762914Y-36261904D02*
X6953390Y-36309523D01*
X6953390Y-36309523D02*
X7334342Y-36309523D01*
X7334342Y-36309523D02*
X7429580Y-36261904D01*
X7429580Y-36261904D02*
X7477200Y-36214285D01*
X7477200Y-36214285D02*
X7524819Y-36119047D01*
X7524819Y-36119047D02*
X7524819Y-35928571D01*
X7524819Y-35928571D02*
X7477200Y-35833333D01*
X7477200Y-35833333D02*
X7429580Y-35785714D01*
X7429580Y-35785714D02*
X7334342Y-35738095D01*
X7334342Y-35738095D02*
X7096247Y-35738095D01*
X7096247Y-35738095D02*
X7001009Y-35785714D01*
X7001009Y-35785714D02*
X6953390Y-35833333D01*
X6953390Y-35833333D02*
X6905771Y-35928571D01*
X6905771Y-35928571D02*
X6905771Y-36119047D01*
X6905771Y-36119047D02*
X6953390Y-36214285D01*
X6953390Y-36214285D02*
X7001009Y-36261904D01*
X7001009Y-36261904D02*
X7096247Y-36309523D01*
X11904761Y-35150057D02*
X11809523Y-35102438D01*
X11809523Y-35102438D02*
X11714285Y-35007200D01*
X11714285Y-35007200D02*
X11571428Y-34864342D01*
X11571428Y-34864342D02*
X11476190Y-34816723D01*
X11476190Y-34816723D02*
X11380952Y-34816723D01*
X11428571Y-35054819D02*
X11333333Y-35007200D01*
X11333333Y-35007200D02*
X11238095Y-34911961D01*
X11238095Y-34911961D02*
X11190476Y-34721485D01*
X11190476Y-34721485D02*
X11190476Y-34388152D01*
X11190476Y-34388152D02*
X11238095Y-34197676D01*
X11238095Y-34197676D02*
X11333333Y-34102438D01*
X11333333Y-34102438D02*
X11428571Y-34054819D01*
X11428571Y-34054819D02*
X11619047Y-34054819D01*
X11619047Y-34054819D02*
X11714285Y-34102438D01*
X11714285Y-34102438D02*
X11809523Y-34197676D01*
X11809523Y-34197676D02*
X11857142Y-34388152D01*
X11857142Y-34388152D02*
X11857142Y-34721485D01*
X11857142Y-34721485D02*
X11809523Y-34911961D01*
X11809523Y-34911961D02*
X11714285Y-35007200D01*
X11714285Y-35007200D02*
X11619047Y-35054819D01*
X11619047Y-35054819D02*
X11428571Y-35054819D01*
X12809523Y-35054819D02*
X12238095Y-35054819D01*
X12523809Y-35054819D02*
X12523809Y-34054819D01*
X12523809Y-34054819D02*
X12428571Y-34197676D01*
X12428571Y-34197676D02*
X12333333Y-34292914D01*
X12333333Y-34292914D02*
X12238095Y-34340533D01*
X40857142Y-12784819D02*
X40523809Y-12308628D01*
X40285714Y-12784819D02*
X40285714Y-11784819D01*
X40285714Y-11784819D02*
X40666666Y-11784819D01*
X40666666Y-11784819D02*
X40761904Y-11832438D01*
X40761904Y-11832438D02*
X40809523Y-11880057D01*
X40809523Y-11880057D02*
X40857142Y-11975295D01*
X40857142Y-11975295D02*
X40857142Y-12118152D01*
X40857142Y-12118152D02*
X40809523Y-12213390D01*
X40809523Y-12213390D02*
X40761904Y-12261009D01*
X40761904Y-12261009D02*
X40666666Y-12308628D01*
X40666666Y-12308628D02*
X40285714Y-12308628D01*
X41238095Y-11880057D02*
X41285714Y-11832438D01*
X41285714Y-11832438D02*
X41380952Y-11784819D01*
X41380952Y-11784819D02*
X41619047Y-11784819D01*
X41619047Y-11784819D02*
X41714285Y-11832438D01*
X41714285Y-11832438D02*
X41761904Y-11880057D01*
X41761904Y-11880057D02*
X41809523Y-11975295D01*
X41809523Y-11975295D02*
X41809523Y-12070533D01*
X41809523Y-12070533D02*
X41761904Y-12213390D01*
X41761904Y-12213390D02*
X41190476Y-12784819D01*
X41190476Y-12784819D02*
X41809523Y-12784819D01*
X42142857Y-11784819D02*
X42761904Y-11784819D01*
X42761904Y-11784819D02*
X42428571Y-12165771D01*
X42428571Y-12165771D02*
X42571428Y-12165771D01*
X42571428Y-12165771D02*
X42666666Y-12213390D01*
X42666666Y-12213390D02*
X42714285Y-12261009D01*
X42714285Y-12261009D02*
X42761904Y-12356247D01*
X42761904Y-12356247D02*
X42761904Y-12594342D01*
X42761904Y-12594342D02*
X42714285Y-12689580D01*
X42714285Y-12689580D02*
X42666666Y-12737200D01*
X42666666Y-12737200D02*
X42571428Y-12784819D01*
X42571428Y-12784819D02*
X42285714Y-12784819D01*
X42285714Y-12784819D02*
X42190476Y-12737200D01*
X42190476Y-12737200D02*
X42142857Y-12689580D01*
X35357142Y-33284819D02*
X35023809Y-32808628D01*
X34785714Y-33284819D02*
X34785714Y-32284819D01*
X34785714Y-32284819D02*
X35166666Y-32284819D01*
X35166666Y-32284819D02*
X35261904Y-32332438D01*
X35261904Y-32332438D02*
X35309523Y-32380057D01*
X35309523Y-32380057D02*
X35357142Y-32475295D01*
X35357142Y-32475295D02*
X35357142Y-32618152D01*
X35357142Y-32618152D02*
X35309523Y-32713390D01*
X35309523Y-32713390D02*
X35261904Y-32761009D01*
X35261904Y-32761009D02*
X35166666Y-32808628D01*
X35166666Y-32808628D02*
X34785714Y-32808628D01*
X35738095Y-32380057D02*
X35785714Y-32332438D01*
X35785714Y-32332438D02*
X35880952Y-32284819D01*
X35880952Y-32284819D02*
X36119047Y-32284819D01*
X36119047Y-32284819D02*
X36214285Y-32332438D01*
X36214285Y-32332438D02*
X36261904Y-32380057D01*
X36261904Y-32380057D02*
X36309523Y-32475295D01*
X36309523Y-32475295D02*
X36309523Y-32570533D01*
X36309523Y-32570533D02*
X36261904Y-32713390D01*
X36261904Y-32713390D02*
X35690476Y-33284819D01*
X35690476Y-33284819D02*
X36309523Y-33284819D01*
X37261904Y-33284819D02*
X36690476Y-33284819D01*
X36976190Y-33284819D02*
X36976190Y-32284819D01*
X36976190Y-32284819D02*
X36880952Y-32427676D01*
X36880952Y-32427676D02*
X36785714Y-32522914D01*
X36785714Y-32522914D02*
X36690476Y-32570533D01*
X44857142Y-17524819D02*
X44523809Y-17048628D01*
X44285714Y-17524819D02*
X44285714Y-16524819D01*
X44285714Y-16524819D02*
X44666666Y-16524819D01*
X44666666Y-16524819D02*
X44761904Y-16572438D01*
X44761904Y-16572438D02*
X44809523Y-16620057D01*
X44809523Y-16620057D02*
X44857142Y-16715295D01*
X44857142Y-16715295D02*
X44857142Y-16858152D01*
X44857142Y-16858152D02*
X44809523Y-16953390D01*
X44809523Y-16953390D02*
X44761904Y-17001009D01*
X44761904Y-17001009D02*
X44666666Y-17048628D01*
X44666666Y-17048628D02*
X44285714Y-17048628D01*
X45190476Y-16524819D02*
X45809523Y-16524819D01*
X45809523Y-16524819D02*
X45476190Y-16905771D01*
X45476190Y-16905771D02*
X45619047Y-16905771D01*
X45619047Y-16905771D02*
X45714285Y-16953390D01*
X45714285Y-16953390D02*
X45761904Y-17001009D01*
X45761904Y-17001009D02*
X45809523Y-17096247D01*
X45809523Y-17096247D02*
X45809523Y-17334342D01*
X45809523Y-17334342D02*
X45761904Y-17429580D01*
X45761904Y-17429580D02*
X45714285Y-17477200D01*
X45714285Y-17477200D02*
X45619047Y-17524819D01*
X45619047Y-17524819D02*
X45333333Y-17524819D01*
X45333333Y-17524819D02*
X45238095Y-17477200D01*
X45238095Y-17477200D02*
X45190476Y-17429580D01*
X46714285Y-16524819D02*
X46238095Y-16524819D01*
X46238095Y-16524819D02*
X46190476Y-17001009D01*
X46190476Y-17001009D02*
X46238095Y-16953390D01*
X46238095Y-16953390D02*
X46333333Y-16905771D01*
X46333333Y-16905771D02*
X46571428Y-16905771D01*
X46571428Y-16905771D02*
X46666666Y-16953390D01*
X46666666Y-16953390D02*
X46714285Y-17001009D01*
X46714285Y-17001009D02*
X46761904Y-17096247D01*
X46761904Y-17096247D02*
X46761904Y-17334342D01*
X46761904Y-17334342D02*
X46714285Y-17429580D01*
X46714285Y-17429580D02*
X46666666Y-17477200D01*
X46666666Y-17477200D02*
X46571428Y-17524819D01*
X46571428Y-17524819D02*
X46333333Y-17524819D01*
X46333333Y-17524819D02*
X46238095Y-17477200D01*
X46238095Y-17477200D02*
X46190476Y-17429580D01*
X64904761Y-50950057D02*
X64809523Y-50902438D01*
X64809523Y-50902438D02*
X64714285Y-50807200D01*
X64714285Y-50807200D02*
X64571428Y-50664342D01*
X64571428Y-50664342D02*
X64476190Y-50616723D01*
X64476190Y-50616723D02*
X64380952Y-50616723D01*
X64428571Y-50854819D02*
X64333333Y-50807200D01*
X64333333Y-50807200D02*
X64238095Y-50711961D01*
X64238095Y-50711961D02*
X64190476Y-50521485D01*
X64190476Y-50521485D02*
X64190476Y-50188152D01*
X64190476Y-50188152D02*
X64238095Y-49997676D01*
X64238095Y-49997676D02*
X64333333Y-49902438D01*
X64333333Y-49902438D02*
X64428571Y-49854819D01*
X64428571Y-49854819D02*
X64619047Y-49854819D01*
X64619047Y-49854819D02*
X64714285Y-49902438D01*
X64714285Y-49902438D02*
X64809523Y-49997676D01*
X64809523Y-49997676D02*
X64857142Y-50188152D01*
X64857142Y-50188152D02*
X64857142Y-50521485D01*
X64857142Y-50521485D02*
X64809523Y-50711961D01*
X64809523Y-50711961D02*
X64714285Y-50807200D01*
X64714285Y-50807200D02*
X64619047Y-50854819D01*
X64619047Y-50854819D02*
X64428571Y-50854819D01*
X65761904Y-49854819D02*
X65285714Y-49854819D01*
X65285714Y-49854819D02*
X65238095Y-50331009D01*
X65238095Y-50331009D02*
X65285714Y-50283390D01*
X65285714Y-50283390D02*
X65380952Y-50235771D01*
X65380952Y-50235771D02*
X65619047Y-50235771D01*
X65619047Y-50235771D02*
X65714285Y-50283390D01*
X65714285Y-50283390D02*
X65761904Y-50331009D01*
X65761904Y-50331009D02*
X65809523Y-50426247D01*
X65809523Y-50426247D02*
X65809523Y-50664342D01*
X65809523Y-50664342D02*
X65761904Y-50759580D01*
X65761904Y-50759580D02*
X65714285Y-50807200D01*
X65714285Y-50807200D02*
X65619047Y-50854819D01*
X65619047Y-50854819D02*
X65380952Y-50854819D01*
X65380952Y-50854819D02*
X65285714Y-50807200D01*
X65285714Y-50807200D02*
X65238095Y-50759580D01*
X57884819Y-3642857D02*
X57408628Y-3976190D01*
X57884819Y-4214285D02*
X56884819Y-4214285D01*
X56884819Y-4214285D02*
X56884819Y-3833333D01*
X56884819Y-3833333D02*
X56932438Y-3738095D01*
X56932438Y-3738095D02*
X56980057Y-3690476D01*
X56980057Y-3690476D02*
X57075295Y-3642857D01*
X57075295Y-3642857D02*
X57218152Y-3642857D01*
X57218152Y-3642857D02*
X57313390Y-3690476D01*
X57313390Y-3690476D02*
X57361009Y-3738095D01*
X57361009Y-3738095D02*
X57408628Y-3833333D01*
X57408628Y-3833333D02*
X57408628Y-4214285D01*
X57884819Y-2690476D02*
X57884819Y-3261904D01*
X57884819Y-2976190D02*
X56884819Y-2976190D01*
X56884819Y-2976190D02*
X57027676Y-3071428D01*
X57027676Y-3071428D02*
X57122914Y-3166666D01*
X57122914Y-3166666D02*
X57170533Y-3261904D01*
X56884819Y-1833333D02*
X56884819Y-2023809D01*
X56884819Y-2023809D02*
X56932438Y-2119047D01*
X56932438Y-2119047D02*
X56980057Y-2166666D01*
X56980057Y-2166666D02*
X57122914Y-2261904D01*
X57122914Y-2261904D02*
X57313390Y-2309523D01*
X57313390Y-2309523D02*
X57694342Y-2309523D01*
X57694342Y-2309523D02*
X57789580Y-2261904D01*
X57789580Y-2261904D02*
X57837200Y-2214285D01*
X57837200Y-2214285D02*
X57884819Y-2119047D01*
X57884819Y-2119047D02*
X57884819Y-1928571D01*
X57884819Y-1928571D02*
X57837200Y-1833333D01*
X57837200Y-1833333D02*
X57789580Y-1785714D01*
X57789580Y-1785714D02*
X57694342Y-1738095D01*
X57694342Y-1738095D02*
X57456247Y-1738095D01*
X57456247Y-1738095D02*
X57361009Y-1785714D01*
X57361009Y-1785714D02*
X57313390Y-1833333D01*
X57313390Y-1833333D02*
X57265771Y-1928571D01*
X57265771Y-1928571D02*
X57265771Y-2119047D01*
X57265771Y-2119047D02*
X57313390Y-2214285D01*
X57313390Y-2214285D02*
X57361009Y-2261904D01*
X57361009Y-2261904D02*
X57456247Y-2309523D01*
X16357142Y-36024819D02*
X16023809Y-35548628D01*
X15785714Y-36024819D02*
X15785714Y-35024819D01*
X15785714Y-35024819D02*
X16166666Y-35024819D01*
X16166666Y-35024819D02*
X16261904Y-35072438D01*
X16261904Y-35072438D02*
X16309523Y-35120057D01*
X16309523Y-35120057D02*
X16357142Y-35215295D01*
X16357142Y-35215295D02*
X16357142Y-35358152D01*
X16357142Y-35358152D02*
X16309523Y-35453390D01*
X16309523Y-35453390D02*
X16261904Y-35501009D01*
X16261904Y-35501009D02*
X16166666Y-35548628D01*
X16166666Y-35548628D02*
X15785714Y-35548628D01*
X17309523Y-36024819D02*
X16738095Y-36024819D01*
X17023809Y-36024819D02*
X17023809Y-35024819D01*
X17023809Y-35024819D02*
X16928571Y-35167676D01*
X16928571Y-35167676D02*
X16833333Y-35262914D01*
X16833333Y-35262914D02*
X16738095Y-35310533D01*
X18261904Y-36024819D02*
X17690476Y-36024819D01*
X17976190Y-36024819D02*
X17976190Y-35024819D01*
X17976190Y-35024819D02*
X17880952Y-35167676D01*
X17880952Y-35167676D02*
X17785714Y-35262914D01*
X17785714Y-35262914D02*
X17690476Y-35310533D01*
X18833333Y-11324819D02*
X18500000Y-10848628D01*
X18261905Y-11324819D02*
X18261905Y-10324819D01*
X18261905Y-10324819D02*
X18642857Y-10324819D01*
X18642857Y-10324819D02*
X18738095Y-10372438D01*
X18738095Y-10372438D02*
X18785714Y-10420057D01*
X18785714Y-10420057D02*
X18833333Y-10515295D01*
X18833333Y-10515295D02*
X18833333Y-10658152D01*
X18833333Y-10658152D02*
X18785714Y-10753390D01*
X18785714Y-10753390D02*
X18738095Y-10801009D01*
X18738095Y-10801009D02*
X18642857Y-10848628D01*
X18642857Y-10848628D02*
X18261905Y-10848628D01*
X19166667Y-10324819D02*
X19785714Y-10324819D01*
X19785714Y-10324819D02*
X19452381Y-10705771D01*
X19452381Y-10705771D02*
X19595238Y-10705771D01*
X19595238Y-10705771D02*
X19690476Y-10753390D01*
X19690476Y-10753390D02*
X19738095Y-10801009D01*
X19738095Y-10801009D02*
X19785714Y-10896247D01*
X19785714Y-10896247D02*
X19785714Y-11134342D01*
X19785714Y-11134342D02*
X19738095Y-11229580D01*
X19738095Y-11229580D02*
X19690476Y-11277200D01*
X19690476Y-11277200D02*
X19595238Y-11324819D01*
X19595238Y-11324819D02*
X19309524Y-11324819D01*
X19309524Y-11324819D02*
X19214286Y-11277200D01*
X19214286Y-11277200D02*
X19166667Y-11229580D01*
X54857142Y-9429580D02*
X54809523Y-9477200D01*
X54809523Y-9477200D02*
X54666666Y-9524819D01*
X54666666Y-9524819D02*
X54571428Y-9524819D01*
X54571428Y-9524819D02*
X54428571Y-9477200D01*
X54428571Y-9477200D02*
X54333333Y-9381961D01*
X54333333Y-9381961D02*
X54285714Y-9286723D01*
X54285714Y-9286723D02*
X54238095Y-9096247D01*
X54238095Y-9096247D02*
X54238095Y-8953390D01*
X54238095Y-8953390D02*
X54285714Y-8762914D01*
X54285714Y-8762914D02*
X54333333Y-8667676D01*
X54333333Y-8667676D02*
X54428571Y-8572438D01*
X54428571Y-8572438D02*
X54571428Y-8524819D01*
X54571428Y-8524819D02*
X54666666Y-8524819D01*
X54666666Y-8524819D02*
X54809523Y-8572438D01*
X54809523Y-8572438D02*
X54857142Y-8620057D01*
X55809523Y-9524819D02*
X55238095Y-9524819D01*
X55523809Y-9524819D02*
X55523809Y-8524819D01*
X55523809Y-8524819D02*
X55428571Y-8667676D01*
X55428571Y-8667676D02*
X55333333Y-8762914D01*
X55333333Y-8762914D02*
X55238095Y-8810533D01*
X56380952Y-8953390D02*
X56285714Y-8905771D01*
X56285714Y-8905771D02*
X56238095Y-8858152D01*
X56238095Y-8858152D02*
X56190476Y-8762914D01*
X56190476Y-8762914D02*
X56190476Y-8715295D01*
X56190476Y-8715295D02*
X56238095Y-8620057D01*
X56238095Y-8620057D02*
X56285714Y-8572438D01*
X56285714Y-8572438D02*
X56380952Y-8524819D01*
X56380952Y-8524819D02*
X56571428Y-8524819D01*
X56571428Y-8524819D02*
X56666666Y-8572438D01*
X56666666Y-8572438D02*
X56714285Y-8620057D01*
X56714285Y-8620057D02*
X56761904Y-8715295D01*
X56761904Y-8715295D02*
X56761904Y-8762914D01*
X56761904Y-8762914D02*
X56714285Y-8858152D01*
X56714285Y-8858152D02*
X56666666Y-8905771D01*
X56666666Y-8905771D02*
X56571428Y-8953390D01*
X56571428Y-8953390D02*
X56380952Y-8953390D01*
X56380952Y-8953390D02*
X56285714Y-9001009D01*
X56285714Y-9001009D02*
X56238095Y-9048628D01*
X56238095Y-9048628D02*
X56190476Y-9143866D01*
X56190476Y-9143866D02*
X56190476Y-9334342D01*
X56190476Y-9334342D02*
X56238095Y-9429580D01*
X56238095Y-9429580D02*
X56285714Y-9477200D01*
X56285714Y-9477200D02*
X56380952Y-9524819D01*
X56380952Y-9524819D02*
X56571428Y-9524819D01*
X56571428Y-9524819D02*
X56666666Y-9477200D01*
X56666666Y-9477200D02*
X56714285Y-9429580D01*
X56714285Y-9429580D02*
X56761904Y-9334342D01*
X56761904Y-9334342D02*
X56761904Y-9143866D01*
X56761904Y-9143866D02*
X56714285Y-9048628D01*
X56714285Y-9048628D02*
X56666666Y-9001009D01*
X56666666Y-9001009D02*
X56571428Y-8953390D01*
X16333333Y-27429580D02*
X16285714Y-27477200D01*
X16285714Y-27477200D02*
X16142857Y-27524819D01*
X16142857Y-27524819D02*
X16047619Y-27524819D01*
X16047619Y-27524819D02*
X15904762Y-27477200D01*
X15904762Y-27477200D02*
X15809524Y-27381961D01*
X15809524Y-27381961D02*
X15761905Y-27286723D01*
X15761905Y-27286723D02*
X15714286Y-27096247D01*
X15714286Y-27096247D02*
X15714286Y-26953390D01*
X15714286Y-26953390D02*
X15761905Y-26762914D01*
X15761905Y-26762914D02*
X15809524Y-26667676D01*
X15809524Y-26667676D02*
X15904762Y-26572438D01*
X15904762Y-26572438D02*
X16047619Y-26524819D01*
X16047619Y-26524819D02*
X16142857Y-26524819D01*
X16142857Y-26524819D02*
X16285714Y-26572438D01*
X16285714Y-26572438D02*
X16333333Y-26620057D01*
X16904762Y-26953390D02*
X16809524Y-26905771D01*
X16809524Y-26905771D02*
X16761905Y-26858152D01*
X16761905Y-26858152D02*
X16714286Y-26762914D01*
X16714286Y-26762914D02*
X16714286Y-26715295D01*
X16714286Y-26715295D02*
X16761905Y-26620057D01*
X16761905Y-26620057D02*
X16809524Y-26572438D01*
X16809524Y-26572438D02*
X16904762Y-26524819D01*
X16904762Y-26524819D02*
X17095238Y-26524819D01*
X17095238Y-26524819D02*
X17190476Y-26572438D01*
X17190476Y-26572438D02*
X17238095Y-26620057D01*
X17238095Y-26620057D02*
X17285714Y-26715295D01*
X17285714Y-26715295D02*
X17285714Y-26762914D01*
X17285714Y-26762914D02*
X17238095Y-26858152D01*
X17238095Y-26858152D02*
X17190476Y-26905771D01*
X17190476Y-26905771D02*
X17095238Y-26953390D01*
X17095238Y-26953390D02*
X16904762Y-26953390D01*
X16904762Y-26953390D02*
X16809524Y-27001009D01*
X16809524Y-27001009D02*
X16761905Y-27048628D01*
X16761905Y-27048628D02*
X16714286Y-27143866D01*
X16714286Y-27143866D02*
X16714286Y-27334342D01*
X16714286Y-27334342D02*
X16761905Y-27429580D01*
X16761905Y-27429580D02*
X16809524Y-27477200D01*
X16809524Y-27477200D02*
X16904762Y-27524819D01*
X16904762Y-27524819D02*
X17095238Y-27524819D01*
X17095238Y-27524819D02*
X17190476Y-27477200D01*
X17190476Y-27477200D02*
X17238095Y-27429580D01*
X17238095Y-27429580D02*
X17285714Y-27334342D01*
X17285714Y-27334342D02*
X17285714Y-27143866D01*
X17285714Y-27143866D02*
X17238095Y-27048628D01*
X17238095Y-27048628D02*
X17190476Y-27001009D01*
X17190476Y-27001009D02*
X17095238Y-26953390D01*
X43357142Y-29284819D02*
X43023809Y-28808628D01*
X42785714Y-29284819D02*
X42785714Y-28284819D01*
X42785714Y-28284819D02*
X43166666Y-28284819D01*
X43166666Y-28284819D02*
X43261904Y-28332438D01*
X43261904Y-28332438D02*
X43309523Y-28380057D01*
X43309523Y-28380057D02*
X43357142Y-28475295D01*
X43357142Y-28475295D02*
X43357142Y-28618152D01*
X43357142Y-28618152D02*
X43309523Y-28713390D01*
X43309523Y-28713390D02*
X43261904Y-28761009D01*
X43261904Y-28761009D02*
X43166666Y-28808628D01*
X43166666Y-28808628D02*
X42785714Y-28808628D01*
X43738095Y-28380057D02*
X43785714Y-28332438D01*
X43785714Y-28332438D02*
X43880952Y-28284819D01*
X43880952Y-28284819D02*
X44119047Y-28284819D01*
X44119047Y-28284819D02*
X44214285Y-28332438D01*
X44214285Y-28332438D02*
X44261904Y-28380057D01*
X44261904Y-28380057D02*
X44309523Y-28475295D01*
X44309523Y-28475295D02*
X44309523Y-28570533D01*
X44309523Y-28570533D02*
X44261904Y-28713390D01*
X44261904Y-28713390D02*
X43690476Y-29284819D01*
X43690476Y-29284819D02*
X44309523Y-29284819D01*
X45214285Y-28284819D02*
X44738095Y-28284819D01*
X44738095Y-28284819D02*
X44690476Y-28761009D01*
X44690476Y-28761009D02*
X44738095Y-28713390D01*
X44738095Y-28713390D02*
X44833333Y-28665771D01*
X44833333Y-28665771D02*
X45071428Y-28665771D01*
X45071428Y-28665771D02*
X45166666Y-28713390D01*
X45166666Y-28713390D02*
X45214285Y-28761009D01*
X45214285Y-28761009D02*
X45261904Y-28856247D01*
X45261904Y-28856247D02*
X45261904Y-29094342D01*
X45261904Y-29094342D02*
X45214285Y-29189580D01*
X45214285Y-29189580D02*
X45166666Y-29237200D01*
X45166666Y-29237200D02*
X45071428Y-29284819D01*
X45071428Y-29284819D02*
X44833333Y-29284819D01*
X44833333Y-29284819D02*
X44738095Y-29237200D01*
X44738095Y-29237200D02*
X44690476Y-29189580D01*
X15833333Y-14679580D02*
X15785714Y-14727200D01*
X15785714Y-14727200D02*
X15642857Y-14774819D01*
X15642857Y-14774819D02*
X15547619Y-14774819D01*
X15547619Y-14774819D02*
X15404762Y-14727200D01*
X15404762Y-14727200D02*
X15309524Y-14631961D01*
X15309524Y-14631961D02*
X15261905Y-14536723D01*
X15261905Y-14536723D02*
X15214286Y-14346247D01*
X15214286Y-14346247D02*
X15214286Y-14203390D01*
X15214286Y-14203390D02*
X15261905Y-14012914D01*
X15261905Y-14012914D02*
X15309524Y-13917676D01*
X15309524Y-13917676D02*
X15404762Y-13822438D01*
X15404762Y-13822438D02*
X15547619Y-13774819D01*
X15547619Y-13774819D02*
X15642857Y-13774819D01*
X15642857Y-13774819D02*
X15785714Y-13822438D01*
X15785714Y-13822438D02*
X15833333Y-13870057D01*
X16166667Y-13774819D02*
X16833333Y-13774819D01*
X16833333Y-13774819D02*
X16404762Y-14774819D01*
X16357142Y-33024819D02*
X16023809Y-32548628D01*
X15785714Y-33024819D02*
X15785714Y-32024819D01*
X15785714Y-32024819D02*
X16166666Y-32024819D01*
X16166666Y-32024819D02*
X16261904Y-32072438D01*
X16261904Y-32072438D02*
X16309523Y-32120057D01*
X16309523Y-32120057D02*
X16357142Y-32215295D01*
X16357142Y-32215295D02*
X16357142Y-32358152D01*
X16357142Y-32358152D02*
X16309523Y-32453390D01*
X16309523Y-32453390D02*
X16261904Y-32501009D01*
X16261904Y-32501009D02*
X16166666Y-32548628D01*
X16166666Y-32548628D02*
X15785714Y-32548628D01*
X17309523Y-33024819D02*
X16738095Y-33024819D01*
X17023809Y-33024819D02*
X17023809Y-32024819D01*
X17023809Y-32024819D02*
X16928571Y-32167676D01*
X16928571Y-32167676D02*
X16833333Y-32262914D01*
X16833333Y-32262914D02*
X16738095Y-32310533D01*
X17642857Y-32024819D02*
X18261904Y-32024819D01*
X18261904Y-32024819D02*
X17928571Y-32405771D01*
X17928571Y-32405771D02*
X18071428Y-32405771D01*
X18071428Y-32405771D02*
X18166666Y-32453390D01*
X18166666Y-32453390D02*
X18214285Y-32501009D01*
X18214285Y-32501009D02*
X18261904Y-32596247D01*
X18261904Y-32596247D02*
X18261904Y-32834342D01*
X18261904Y-32834342D02*
X18214285Y-32929580D01*
X18214285Y-32929580D02*
X18166666Y-32977200D01*
X18166666Y-32977200D02*
X18071428Y-33024819D01*
X18071428Y-33024819D02*
X17785714Y-33024819D01*
X17785714Y-33024819D02*
X17690476Y-32977200D01*
X17690476Y-32977200D02*
X17642857Y-32929580D01*
X47833333Y-35929580D02*
X47785714Y-35977200D01*
X47785714Y-35977200D02*
X47642857Y-36024819D01*
X47642857Y-36024819D02*
X47547619Y-36024819D01*
X47547619Y-36024819D02*
X47404762Y-35977200D01*
X47404762Y-35977200D02*
X47309524Y-35881961D01*
X47309524Y-35881961D02*
X47261905Y-35786723D01*
X47261905Y-35786723D02*
X47214286Y-35596247D01*
X47214286Y-35596247D02*
X47214286Y-35453390D01*
X47214286Y-35453390D02*
X47261905Y-35262914D01*
X47261905Y-35262914D02*
X47309524Y-35167676D01*
X47309524Y-35167676D02*
X47404762Y-35072438D01*
X47404762Y-35072438D02*
X47547619Y-35024819D01*
X47547619Y-35024819D02*
X47642857Y-35024819D01*
X47642857Y-35024819D02*
X47785714Y-35072438D01*
X47785714Y-35072438D02*
X47833333Y-35120057D01*
X48690476Y-35024819D02*
X48500000Y-35024819D01*
X48500000Y-35024819D02*
X48404762Y-35072438D01*
X48404762Y-35072438D02*
X48357143Y-35120057D01*
X48357143Y-35120057D02*
X48261905Y-35262914D01*
X48261905Y-35262914D02*
X48214286Y-35453390D01*
X48214286Y-35453390D02*
X48214286Y-35834342D01*
X48214286Y-35834342D02*
X48261905Y-35929580D01*
X48261905Y-35929580D02*
X48309524Y-35977200D01*
X48309524Y-35977200D02*
X48404762Y-36024819D01*
X48404762Y-36024819D02*
X48595238Y-36024819D01*
X48595238Y-36024819D02*
X48690476Y-35977200D01*
X48690476Y-35977200D02*
X48738095Y-35929580D01*
X48738095Y-35929580D02*
X48785714Y-35834342D01*
X48785714Y-35834342D02*
X48785714Y-35596247D01*
X48785714Y-35596247D02*
X48738095Y-35501009D01*
X48738095Y-35501009D02*
X48690476Y-35453390D01*
X48690476Y-35453390D02*
X48595238Y-35405771D01*
X48595238Y-35405771D02*
X48404762Y-35405771D01*
X48404762Y-35405771D02*
X48309524Y-35453390D01*
X48309524Y-35453390D02*
X48261905Y-35501009D01*
X48261905Y-35501009D02*
X48214286Y-35596247D01*
X55254819Y-7761904D02*
X56064342Y-7761904D01*
X56064342Y-7761904D02*
X56159580Y-7714285D01*
X56159580Y-7714285D02*
X56207200Y-7666666D01*
X56207200Y-7666666D02*
X56254819Y-7571428D01*
X56254819Y-7571428D02*
X56254819Y-7380952D01*
X56254819Y-7380952D02*
X56207200Y-7285714D01*
X56207200Y-7285714D02*
X56159580Y-7238095D01*
X56159580Y-7238095D02*
X56064342Y-7190476D01*
X56064342Y-7190476D02*
X55254819Y-7190476D01*
X55254819Y-6285714D02*
X55254819Y-6476190D01*
X55254819Y-6476190D02*
X55302438Y-6571428D01*
X55302438Y-6571428D02*
X55350057Y-6619047D01*
X55350057Y-6619047D02*
X55492914Y-6714285D01*
X55492914Y-6714285D02*
X55683390Y-6761904D01*
X55683390Y-6761904D02*
X56064342Y-6761904D01*
X56064342Y-6761904D02*
X56159580Y-6714285D01*
X56159580Y-6714285D02*
X56207200Y-6666666D01*
X56207200Y-6666666D02*
X56254819Y-6571428D01*
X56254819Y-6571428D02*
X56254819Y-6380952D01*
X56254819Y-6380952D02*
X56207200Y-6285714D01*
X56207200Y-6285714D02*
X56159580Y-6238095D01*
X56159580Y-6238095D02*
X56064342Y-6190476D01*
X56064342Y-6190476D02*
X55826247Y-6190476D01*
X55826247Y-6190476D02*
X55731009Y-6238095D01*
X55731009Y-6238095D02*
X55683390Y-6285714D01*
X55683390Y-6285714D02*
X55635771Y-6380952D01*
X55635771Y-6380952D02*
X55635771Y-6571428D01*
X55635771Y-6571428D02*
X55683390Y-6666666D01*
X55683390Y-6666666D02*
X55731009Y-6714285D01*
X55731009Y-6714285D02*
X55826247Y-6761904D01*
X64357142Y-53884819D02*
X64023809Y-53408628D01*
X63785714Y-53884819D02*
X63785714Y-52884819D01*
X63785714Y-52884819D02*
X64166666Y-52884819D01*
X64166666Y-52884819D02*
X64261904Y-52932438D01*
X64261904Y-52932438D02*
X64309523Y-52980057D01*
X64309523Y-52980057D02*
X64357142Y-53075295D01*
X64357142Y-53075295D02*
X64357142Y-53218152D01*
X64357142Y-53218152D02*
X64309523Y-53313390D01*
X64309523Y-53313390D02*
X64261904Y-53361009D01*
X64261904Y-53361009D02*
X64166666Y-53408628D01*
X64166666Y-53408628D02*
X63785714Y-53408628D01*
X65214285Y-53218152D02*
X65214285Y-53884819D01*
X64976190Y-52837200D02*
X64738095Y-53551485D01*
X64738095Y-53551485D02*
X65357142Y-53551485D01*
X65928571Y-52884819D02*
X66023809Y-52884819D01*
X66023809Y-52884819D02*
X66119047Y-52932438D01*
X66119047Y-52932438D02*
X66166666Y-52980057D01*
X66166666Y-52980057D02*
X66214285Y-53075295D01*
X66214285Y-53075295D02*
X66261904Y-53265771D01*
X66261904Y-53265771D02*
X66261904Y-53503866D01*
X66261904Y-53503866D02*
X66214285Y-53694342D01*
X66214285Y-53694342D02*
X66166666Y-53789580D01*
X66166666Y-53789580D02*
X66119047Y-53837200D01*
X66119047Y-53837200D02*
X66023809Y-53884819D01*
X66023809Y-53884819D02*
X65928571Y-53884819D01*
X65928571Y-53884819D02*
X65833333Y-53837200D01*
X65833333Y-53837200D02*
X65785714Y-53789580D01*
X65785714Y-53789580D02*
X65738095Y-53694342D01*
X65738095Y-53694342D02*
X65690476Y-53503866D01*
X65690476Y-53503866D02*
X65690476Y-53265771D01*
X65690476Y-53265771D02*
X65738095Y-53075295D01*
X65738095Y-53075295D02*
X65785714Y-52980057D01*
X65785714Y-52980057D02*
X65833333Y-52932438D01*
X65833333Y-52932438D02*
X65928571Y-52884819D01*
X29357142Y-30784819D02*
X29023809Y-30308628D01*
X28785714Y-30784819D02*
X28785714Y-29784819D01*
X28785714Y-29784819D02*
X29166666Y-29784819D01*
X29166666Y-29784819D02*
X29261904Y-29832438D01*
X29261904Y-29832438D02*
X29309523Y-29880057D01*
X29309523Y-29880057D02*
X29357142Y-29975295D01*
X29357142Y-29975295D02*
X29357142Y-30118152D01*
X29357142Y-30118152D02*
X29309523Y-30213390D01*
X29309523Y-30213390D02*
X29261904Y-30261009D01*
X29261904Y-30261009D02*
X29166666Y-30308628D01*
X29166666Y-30308628D02*
X28785714Y-30308628D01*
X29738095Y-29880057D02*
X29785714Y-29832438D01*
X29785714Y-29832438D02*
X29880952Y-29784819D01*
X29880952Y-29784819D02*
X30119047Y-29784819D01*
X30119047Y-29784819D02*
X30214285Y-29832438D01*
X30214285Y-29832438D02*
X30261904Y-29880057D01*
X30261904Y-29880057D02*
X30309523Y-29975295D01*
X30309523Y-29975295D02*
X30309523Y-30070533D01*
X30309523Y-30070533D02*
X30261904Y-30213390D01*
X30261904Y-30213390D02*
X29690476Y-30784819D01*
X29690476Y-30784819D02*
X30309523Y-30784819D01*
X30690476Y-29880057D02*
X30738095Y-29832438D01*
X30738095Y-29832438D02*
X30833333Y-29784819D01*
X30833333Y-29784819D02*
X31071428Y-29784819D01*
X31071428Y-29784819D02*
X31166666Y-29832438D01*
X31166666Y-29832438D02*
X31214285Y-29880057D01*
X31214285Y-29880057D02*
X31261904Y-29975295D01*
X31261904Y-29975295D02*
X31261904Y-30070533D01*
X31261904Y-30070533D02*
X31214285Y-30213390D01*
X31214285Y-30213390D02*
X30642857Y-30784819D01*
X30642857Y-30784819D02*
X31261904Y-30784819D01*
X20357142Y-30024819D02*
X20023809Y-29548628D01*
X19785714Y-30024819D02*
X19785714Y-29024819D01*
X19785714Y-29024819D02*
X20166666Y-29024819D01*
X20166666Y-29024819D02*
X20261904Y-29072438D01*
X20261904Y-29072438D02*
X20309523Y-29120057D01*
X20309523Y-29120057D02*
X20357142Y-29215295D01*
X20357142Y-29215295D02*
X20357142Y-29358152D01*
X20357142Y-29358152D02*
X20309523Y-29453390D01*
X20309523Y-29453390D02*
X20261904Y-29501009D01*
X20261904Y-29501009D02*
X20166666Y-29548628D01*
X20166666Y-29548628D02*
X19785714Y-29548628D01*
X21214285Y-29358152D02*
X21214285Y-30024819D01*
X20976190Y-28977200D02*
X20738095Y-29691485D01*
X20738095Y-29691485D02*
X21357142Y-29691485D01*
X21690476Y-29120057D02*
X21738095Y-29072438D01*
X21738095Y-29072438D02*
X21833333Y-29024819D01*
X21833333Y-29024819D02*
X22071428Y-29024819D01*
X22071428Y-29024819D02*
X22166666Y-29072438D01*
X22166666Y-29072438D02*
X22214285Y-29120057D01*
X22214285Y-29120057D02*
X22261904Y-29215295D01*
X22261904Y-29215295D02*
X22261904Y-29310533D01*
X22261904Y-29310533D02*
X22214285Y-29453390D01*
X22214285Y-29453390D02*
X21642857Y-30024819D01*
X21642857Y-30024819D02*
X22261904Y-30024819D01*
X33357142Y-37024819D02*
X33023809Y-36548628D01*
X32785714Y-37024819D02*
X32785714Y-36024819D01*
X32785714Y-36024819D02*
X33166666Y-36024819D01*
X33166666Y-36024819D02*
X33261904Y-36072438D01*
X33261904Y-36072438D02*
X33309523Y-36120057D01*
X33309523Y-36120057D02*
X33357142Y-36215295D01*
X33357142Y-36215295D02*
X33357142Y-36358152D01*
X33357142Y-36358152D02*
X33309523Y-36453390D01*
X33309523Y-36453390D02*
X33261904Y-36501009D01*
X33261904Y-36501009D02*
X33166666Y-36548628D01*
X33166666Y-36548628D02*
X32785714Y-36548628D01*
X34309523Y-37024819D02*
X33738095Y-37024819D01*
X34023809Y-37024819D02*
X34023809Y-36024819D01*
X34023809Y-36024819D02*
X33928571Y-36167676D01*
X33928571Y-36167676D02*
X33833333Y-36262914D01*
X33833333Y-36262914D02*
X33738095Y-36310533D01*
X35166666Y-36358152D02*
X35166666Y-37024819D01*
X34928571Y-35977200D02*
X34690476Y-36691485D01*
X34690476Y-36691485D02*
X35309523Y-36691485D01*
X38866666Y-43254819D02*
X38866666Y-43969104D01*
X38866666Y-43969104D02*
X38819047Y-44111961D01*
X38819047Y-44111961D02*
X38723809Y-44207200D01*
X38723809Y-44207200D02*
X38580952Y-44254819D01*
X38580952Y-44254819D02*
X38485714Y-44254819D01*
X39295238Y-43350057D02*
X39342857Y-43302438D01*
X39342857Y-43302438D02*
X39438095Y-43254819D01*
X39438095Y-43254819D02*
X39676190Y-43254819D01*
X39676190Y-43254819D02*
X39771428Y-43302438D01*
X39771428Y-43302438D02*
X39819047Y-43350057D01*
X39819047Y-43350057D02*
X39866666Y-43445295D01*
X39866666Y-43445295D02*
X39866666Y-43540533D01*
X39866666Y-43540533D02*
X39819047Y-43683390D01*
X39819047Y-43683390D02*
X39247619Y-44254819D01*
X39247619Y-44254819D02*
X39866666Y-44254819D01*
X5357142Y-25509580D02*
X5309523Y-25557200D01*
X5309523Y-25557200D02*
X5166666Y-25604819D01*
X5166666Y-25604819D02*
X5071428Y-25604819D01*
X5071428Y-25604819D02*
X4928571Y-25557200D01*
X4928571Y-25557200D02*
X4833333Y-25461961D01*
X4833333Y-25461961D02*
X4785714Y-25366723D01*
X4785714Y-25366723D02*
X4738095Y-25176247D01*
X4738095Y-25176247D02*
X4738095Y-25033390D01*
X4738095Y-25033390D02*
X4785714Y-24842914D01*
X4785714Y-24842914D02*
X4833333Y-24747676D01*
X4833333Y-24747676D02*
X4928571Y-24652438D01*
X4928571Y-24652438D02*
X5071428Y-24604819D01*
X5071428Y-24604819D02*
X5166666Y-24604819D01*
X5166666Y-24604819D02*
X5309523Y-24652438D01*
X5309523Y-24652438D02*
X5357142Y-24700057D01*
X6309523Y-25604819D02*
X5738095Y-25604819D01*
X6023809Y-25604819D02*
X6023809Y-24604819D01*
X6023809Y-24604819D02*
X5928571Y-24747676D01*
X5928571Y-24747676D02*
X5833333Y-24842914D01*
X5833333Y-24842914D02*
X5738095Y-24890533D01*
X6642857Y-24604819D02*
X7261904Y-24604819D01*
X7261904Y-24604819D02*
X6928571Y-24985771D01*
X6928571Y-24985771D02*
X7071428Y-24985771D01*
X7071428Y-24985771D02*
X7166666Y-25033390D01*
X7166666Y-25033390D02*
X7214285Y-25081009D01*
X7214285Y-25081009D02*
X7261904Y-25176247D01*
X7261904Y-25176247D02*
X7261904Y-25414342D01*
X7261904Y-25414342D02*
X7214285Y-25509580D01*
X7214285Y-25509580D02*
X7166666Y-25557200D01*
X7166666Y-25557200D02*
X7071428Y-25604819D01*
X7071428Y-25604819D02*
X6785714Y-25604819D01*
X6785714Y-25604819D02*
X6690476Y-25557200D01*
X6690476Y-25557200D02*
X6642857Y-25509580D01*
X24524819Y-38642857D02*
X24048628Y-38976190D01*
X24524819Y-39214285D02*
X23524819Y-39214285D01*
X23524819Y-39214285D02*
X23524819Y-38833333D01*
X23524819Y-38833333D02*
X23572438Y-38738095D01*
X23572438Y-38738095D02*
X23620057Y-38690476D01*
X23620057Y-38690476D02*
X23715295Y-38642857D01*
X23715295Y-38642857D02*
X23858152Y-38642857D01*
X23858152Y-38642857D02*
X23953390Y-38690476D01*
X23953390Y-38690476D02*
X24001009Y-38738095D01*
X24001009Y-38738095D02*
X24048628Y-38833333D01*
X24048628Y-38833333D02*
X24048628Y-39214285D01*
X23524819Y-38309523D02*
X23524819Y-37690476D01*
X23524819Y-37690476D02*
X23905771Y-38023809D01*
X23905771Y-38023809D02*
X23905771Y-37880952D01*
X23905771Y-37880952D02*
X23953390Y-37785714D01*
X23953390Y-37785714D02*
X24001009Y-37738095D01*
X24001009Y-37738095D02*
X24096247Y-37690476D01*
X24096247Y-37690476D02*
X24334342Y-37690476D01*
X24334342Y-37690476D02*
X24429580Y-37738095D01*
X24429580Y-37738095D02*
X24477200Y-37785714D01*
X24477200Y-37785714D02*
X24524819Y-37880952D01*
X24524819Y-37880952D02*
X24524819Y-38166666D01*
X24524819Y-38166666D02*
X24477200Y-38261904D01*
X24477200Y-38261904D02*
X24429580Y-38309523D01*
X23953390Y-37119047D02*
X23905771Y-37214285D01*
X23905771Y-37214285D02*
X23858152Y-37261904D01*
X23858152Y-37261904D02*
X23762914Y-37309523D01*
X23762914Y-37309523D02*
X23715295Y-37309523D01*
X23715295Y-37309523D02*
X23620057Y-37261904D01*
X23620057Y-37261904D02*
X23572438Y-37214285D01*
X23572438Y-37214285D02*
X23524819Y-37119047D01*
X23524819Y-37119047D02*
X23524819Y-36928571D01*
X23524819Y-36928571D02*
X23572438Y-36833333D01*
X23572438Y-36833333D02*
X23620057Y-36785714D01*
X23620057Y-36785714D02*
X23715295Y-36738095D01*
X23715295Y-36738095D02*
X23762914Y-36738095D01*
X23762914Y-36738095D02*
X23858152Y-36785714D01*
X23858152Y-36785714D02*
X23905771Y-36833333D01*
X23905771Y-36833333D02*
X23953390Y-36928571D01*
X23953390Y-36928571D02*
X23953390Y-37119047D01*
X23953390Y-37119047D02*
X24001009Y-37214285D01*
X24001009Y-37214285D02*
X24048628Y-37261904D01*
X24048628Y-37261904D02*
X24143866Y-37309523D01*
X24143866Y-37309523D02*
X24334342Y-37309523D01*
X24334342Y-37309523D02*
X24429580Y-37261904D01*
X24429580Y-37261904D02*
X24477200Y-37214285D01*
X24477200Y-37214285D02*
X24524819Y-37119047D01*
X24524819Y-37119047D02*
X24524819Y-36928571D01*
X24524819Y-36928571D02*
X24477200Y-36833333D01*
X24477200Y-36833333D02*
X24429580Y-36785714D01*
X24429580Y-36785714D02*
X24334342Y-36738095D01*
X24334342Y-36738095D02*
X24143866Y-36738095D01*
X24143866Y-36738095D02*
X24048628Y-36785714D01*
X24048628Y-36785714D02*
X24001009Y-36833333D01*
X24001009Y-36833333D02*
X23953390Y-36928571D01*
X61357142Y-4929580D02*
X61309523Y-4977200D01*
X61309523Y-4977200D02*
X61166666Y-5024819D01*
X61166666Y-5024819D02*
X61071428Y-5024819D01*
X61071428Y-5024819D02*
X60928571Y-4977200D01*
X60928571Y-4977200D02*
X60833333Y-4881961D01*
X60833333Y-4881961D02*
X60785714Y-4786723D01*
X60785714Y-4786723D02*
X60738095Y-4596247D01*
X60738095Y-4596247D02*
X60738095Y-4453390D01*
X60738095Y-4453390D02*
X60785714Y-4262914D01*
X60785714Y-4262914D02*
X60833333Y-4167676D01*
X60833333Y-4167676D02*
X60928571Y-4072438D01*
X60928571Y-4072438D02*
X61071428Y-4024819D01*
X61071428Y-4024819D02*
X61166666Y-4024819D01*
X61166666Y-4024819D02*
X61309523Y-4072438D01*
X61309523Y-4072438D02*
X61357142Y-4120057D01*
X62309523Y-5024819D02*
X61738095Y-5024819D01*
X62023809Y-5024819D02*
X62023809Y-4024819D01*
X62023809Y-4024819D02*
X61928571Y-4167676D01*
X61928571Y-4167676D02*
X61833333Y-4262914D01*
X61833333Y-4262914D02*
X61738095Y-4310533D01*
X63166666Y-4024819D02*
X62976190Y-4024819D01*
X62976190Y-4024819D02*
X62880952Y-4072438D01*
X62880952Y-4072438D02*
X62833333Y-4120057D01*
X62833333Y-4120057D02*
X62738095Y-4262914D01*
X62738095Y-4262914D02*
X62690476Y-4453390D01*
X62690476Y-4453390D02*
X62690476Y-4834342D01*
X62690476Y-4834342D02*
X62738095Y-4929580D01*
X62738095Y-4929580D02*
X62785714Y-4977200D01*
X62785714Y-4977200D02*
X62880952Y-5024819D01*
X62880952Y-5024819D02*
X63071428Y-5024819D01*
X63071428Y-5024819D02*
X63166666Y-4977200D01*
X63166666Y-4977200D02*
X63214285Y-4929580D01*
X63214285Y-4929580D02*
X63261904Y-4834342D01*
X63261904Y-4834342D02*
X63261904Y-4596247D01*
X63261904Y-4596247D02*
X63214285Y-4501009D01*
X63214285Y-4501009D02*
X63166666Y-4453390D01*
X63166666Y-4453390D02*
X63071428Y-4405771D01*
X63071428Y-4405771D02*
X62880952Y-4405771D01*
X62880952Y-4405771D02*
X62785714Y-4453390D01*
X62785714Y-4453390D02*
X62738095Y-4501009D01*
X62738095Y-4501009D02*
X62690476Y-4596247D01*
X44357142Y-35284819D02*
X44023809Y-34808628D01*
X43785714Y-35284819D02*
X43785714Y-34284819D01*
X43785714Y-34284819D02*
X44166666Y-34284819D01*
X44166666Y-34284819D02*
X44261904Y-34332438D01*
X44261904Y-34332438D02*
X44309523Y-34380057D01*
X44309523Y-34380057D02*
X44357142Y-34475295D01*
X44357142Y-34475295D02*
X44357142Y-34618152D01*
X44357142Y-34618152D02*
X44309523Y-34713390D01*
X44309523Y-34713390D02*
X44261904Y-34761009D01*
X44261904Y-34761009D02*
X44166666Y-34808628D01*
X44166666Y-34808628D02*
X43785714Y-34808628D01*
X45309523Y-35284819D02*
X44738095Y-35284819D01*
X45023809Y-35284819D02*
X45023809Y-34284819D01*
X45023809Y-34284819D02*
X44928571Y-34427676D01*
X44928571Y-34427676D02*
X44833333Y-34522914D01*
X44833333Y-34522914D02*
X44738095Y-34570533D01*
X45642857Y-34284819D02*
X46309523Y-34284819D01*
X46309523Y-34284819D02*
X45880952Y-35284819D01*
X60261905Y-15954819D02*
X60261905Y-14954819D01*
X60261905Y-14954819D02*
X60500000Y-14954819D01*
X60500000Y-14954819D02*
X60642857Y-15002438D01*
X60642857Y-15002438D02*
X60738095Y-15097676D01*
X60738095Y-15097676D02*
X60785714Y-15192914D01*
X60785714Y-15192914D02*
X60833333Y-15383390D01*
X60833333Y-15383390D02*
X60833333Y-15526247D01*
X60833333Y-15526247D02*
X60785714Y-15716723D01*
X60785714Y-15716723D02*
X60738095Y-15811961D01*
X60738095Y-15811961D02*
X60642857Y-15907200D01*
X60642857Y-15907200D02*
X60500000Y-15954819D01*
X60500000Y-15954819D02*
X60261905Y-15954819D01*
X61785714Y-15954819D02*
X61214286Y-15954819D01*
X61500000Y-15954819D02*
X61500000Y-14954819D01*
X61500000Y-14954819D02*
X61404762Y-15097676D01*
X61404762Y-15097676D02*
X61309524Y-15192914D01*
X61309524Y-15192914D02*
X61214286Y-15240533D01*
X59904761Y-50950057D02*
X59809523Y-50902438D01*
X59809523Y-50902438D02*
X59714285Y-50807200D01*
X59714285Y-50807200D02*
X59571428Y-50664342D01*
X59571428Y-50664342D02*
X59476190Y-50616723D01*
X59476190Y-50616723D02*
X59380952Y-50616723D01*
X59428571Y-50854819D02*
X59333333Y-50807200D01*
X59333333Y-50807200D02*
X59238095Y-50711961D01*
X59238095Y-50711961D02*
X59190476Y-50521485D01*
X59190476Y-50521485D02*
X59190476Y-50188152D01*
X59190476Y-50188152D02*
X59238095Y-49997676D01*
X59238095Y-49997676D02*
X59333333Y-49902438D01*
X59333333Y-49902438D02*
X59428571Y-49854819D01*
X59428571Y-49854819D02*
X59619047Y-49854819D01*
X59619047Y-49854819D02*
X59714285Y-49902438D01*
X59714285Y-49902438D02*
X59809523Y-49997676D01*
X59809523Y-49997676D02*
X59857142Y-50188152D01*
X59857142Y-50188152D02*
X59857142Y-50521485D01*
X59857142Y-50521485D02*
X59809523Y-50711961D01*
X59809523Y-50711961D02*
X59714285Y-50807200D01*
X59714285Y-50807200D02*
X59619047Y-50854819D01*
X59619047Y-50854819D02*
X59428571Y-50854819D01*
X60714285Y-50188152D02*
X60714285Y-50854819D01*
X60476190Y-49807200D02*
X60238095Y-50521485D01*
X60238095Y-50521485D02*
X60857142Y-50521485D01*
X53833333Y-16679580D02*
X53785714Y-16727200D01*
X53785714Y-16727200D02*
X53642857Y-16774819D01*
X53642857Y-16774819D02*
X53547619Y-16774819D01*
X53547619Y-16774819D02*
X53404762Y-16727200D01*
X53404762Y-16727200D02*
X53309524Y-16631961D01*
X53309524Y-16631961D02*
X53261905Y-16536723D01*
X53261905Y-16536723D02*
X53214286Y-16346247D01*
X53214286Y-16346247D02*
X53214286Y-16203390D01*
X53214286Y-16203390D02*
X53261905Y-16012914D01*
X53261905Y-16012914D02*
X53309524Y-15917676D01*
X53309524Y-15917676D02*
X53404762Y-15822438D01*
X53404762Y-15822438D02*
X53547619Y-15774819D01*
X53547619Y-15774819D02*
X53642857Y-15774819D01*
X53642857Y-15774819D02*
X53785714Y-15822438D01*
X53785714Y-15822438D02*
X53833333Y-15870057D01*
X54690476Y-16108152D02*
X54690476Y-16774819D01*
X54452381Y-15727200D02*
X54214286Y-16441485D01*
X54214286Y-16441485D02*
X54833333Y-16441485D01*
X8261905Y-39954819D02*
X8261905Y-38954819D01*
X8261905Y-38954819D02*
X8500000Y-38954819D01*
X8500000Y-38954819D02*
X8642857Y-39002438D01*
X8642857Y-39002438D02*
X8738095Y-39097676D01*
X8738095Y-39097676D02*
X8785714Y-39192914D01*
X8785714Y-39192914D02*
X8833333Y-39383390D01*
X8833333Y-39383390D02*
X8833333Y-39526247D01*
X8833333Y-39526247D02*
X8785714Y-39716723D01*
X8785714Y-39716723D02*
X8738095Y-39811961D01*
X8738095Y-39811961D02*
X8642857Y-39907200D01*
X8642857Y-39907200D02*
X8500000Y-39954819D01*
X8500000Y-39954819D02*
X8261905Y-39954819D01*
X9738095Y-38954819D02*
X9261905Y-38954819D01*
X9261905Y-38954819D02*
X9214286Y-39431009D01*
X9214286Y-39431009D02*
X9261905Y-39383390D01*
X9261905Y-39383390D02*
X9357143Y-39335771D01*
X9357143Y-39335771D02*
X9595238Y-39335771D01*
X9595238Y-39335771D02*
X9690476Y-39383390D01*
X9690476Y-39383390D02*
X9738095Y-39431009D01*
X9738095Y-39431009D02*
X9785714Y-39526247D01*
X9785714Y-39526247D02*
X9785714Y-39764342D01*
X9785714Y-39764342D02*
X9738095Y-39859580D01*
X9738095Y-39859580D02*
X9690476Y-39907200D01*
X9690476Y-39907200D02*
X9595238Y-39954819D01*
X9595238Y-39954819D02*
X9357143Y-39954819D01*
X9357143Y-39954819D02*
X9261905Y-39907200D01*
X9261905Y-39907200D02*
X9214286Y-39859580D01*
X50238095Y-22554819D02*
X50238095Y-23364342D01*
X50238095Y-23364342D02*
X50285714Y-23459580D01*
X50285714Y-23459580D02*
X50333333Y-23507200D01*
X50333333Y-23507200D02*
X50428571Y-23554819D01*
X50428571Y-23554819D02*
X50619047Y-23554819D01*
X50619047Y-23554819D02*
X50714285Y-23507200D01*
X50714285Y-23507200D02*
X50761904Y-23459580D01*
X50761904Y-23459580D02*
X50809523Y-23364342D01*
X50809523Y-23364342D02*
X50809523Y-22554819D01*
X51238095Y-22650057D02*
X51285714Y-22602438D01*
X51285714Y-22602438D02*
X51380952Y-22554819D01*
X51380952Y-22554819D02*
X51619047Y-22554819D01*
X51619047Y-22554819D02*
X51714285Y-22602438D01*
X51714285Y-22602438D02*
X51761904Y-22650057D01*
X51761904Y-22650057D02*
X51809523Y-22745295D01*
X51809523Y-22745295D02*
X51809523Y-22840533D01*
X51809523Y-22840533D02*
X51761904Y-22983390D01*
X51761904Y-22983390D02*
X51190476Y-23554819D01*
X51190476Y-23554819D02*
X51809523Y-23554819D01*
X36261905Y-41954819D02*
X36261905Y-40954819D01*
X36261905Y-40954819D02*
X36500000Y-40954819D01*
X36500000Y-40954819D02*
X36642857Y-41002438D01*
X36642857Y-41002438D02*
X36738095Y-41097676D01*
X36738095Y-41097676D02*
X36785714Y-41192914D01*
X36785714Y-41192914D02*
X36833333Y-41383390D01*
X36833333Y-41383390D02*
X36833333Y-41526247D01*
X36833333Y-41526247D02*
X36785714Y-41716723D01*
X36785714Y-41716723D02*
X36738095Y-41811961D01*
X36738095Y-41811961D02*
X36642857Y-41907200D01*
X36642857Y-41907200D02*
X36500000Y-41954819D01*
X36500000Y-41954819D02*
X36261905Y-41954819D01*
X37166667Y-40954819D02*
X37833333Y-40954819D01*
X37833333Y-40954819D02*
X37404762Y-41954819D01*
X61357142Y-1679580D02*
X61309523Y-1727200D01*
X61309523Y-1727200D02*
X61166666Y-1774819D01*
X61166666Y-1774819D02*
X61071428Y-1774819D01*
X61071428Y-1774819D02*
X60928571Y-1727200D01*
X60928571Y-1727200D02*
X60833333Y-1631961D01*
X60833333Y-1631961D02*
X60785714Y-1536723D01*
X60785714Y-1536723D02*
X60738095Y-1346247D01*
X60738095Y-1346247D02*
X60738095Y-1203390D01*
X60738095Y-1203390D02*
X60785714Y-1012914D01*
X60785714Y-1012914D02*
X60833333Y-917676D01*
X60833333Y-917676D02*
X60928571Y-822438D01*
X60928571Y-822438D02*
X61071428Y-774819D01*
X61071428Y-774819D02*
X61166666Y-774819D01*
X61166666Y-774819D02*
X61309523Y-822438D01*
X61309523Y-822438D02*
X61357142Y-870057D01*
X62309523Y-1774819D02*
X61738095Y-1774819D01*
X62023809Y-1774819D02*
X62023809Y-774819D01*
X62023809Y-774819D02*
X61928571Y-917676D01*
X61928571Y-917676D02*
X61833333Y-1012914D01*
X61833333Y-1012914D02*
X61738095Y-1060533D01*
X63214285Y-774819D02*
X62738095Y-774819D01*
X62738095Y-774819D02*
X62690476Y-1251009D01*
X62690476Y-1251009D02*
X62738095Y-1203390D01*
X62738095Y-1203390D02*
X62833333Y-1155771D01*
X62833333Y-1155771D02*
X63071428Y-1155771D01*
X63071428Y-1155771D02*
X63166666Y-1203390D01*
X63166666Y-1203390D02*
X63214285Y-1251009D01*
X63214285Y-1251009D02*
X63261904Y-1346247D01*
X63261904Y-1346247D02*
X63261904Y-1584342D01*
X63261904Y-1584342D02*
X63214285Y-1679580D01*
X63214285Y-1679580D02*
X63166666Y-1727200D01*
X63166666Y-1727200D02*
X63071428Y-1774819D01*
X63071428Y-1774819D02*
X62833333Y-1774819D01*
X62833333Y-1774819D02*
X62738095Y-1727200D01*
X62738095Y-1727200D02*
X62690476Y-1679580D01*
X8357142Y-33024819D02*
X8023809Y-32548628D01*
X7785714Y-33024819D02*
X7785714Y-32024819D01*
X7785714Y-32024819D02*
X8166666Y-32024819D01*
X8166666Y-32024819D02*
X8261904Y-32072438D01*
X8261904Y-32072438D02*
X8309523Y-32120057D01*
X8309523Y-32120057D02*
X8357142Y-32215295D01*
X8357142Y-32215295D02*
X8357142Y-32358152D01*
X8357142Y-32358152D02*
X8309523Y-32453390D01*
X8309523Y-32453390D02*
X8261904Y-32501009D01*
X8261904Y-32501009D02*
X8166666Y-32548628D01*
X8166666Y-32548628D02*
X7785714Y-32548628D01*
X9309523Y-33024819D02*
X8738095Y-33024819D01*
X9023809Y-33024819D02*
X9023809Y-32024819D01*
X9023809Y-32024819D02*
X8928571Y-32167676D01*
X8928571Y-32167676D02*
X8833333Y-32262914D01*
X8833333Y-32262914D02*
X8738095Y-32310533D01*
X9690476Y-32120057D02*
X9738095Y-32072438D01*
X9738095Y-32072438D02*
X9833333Y-32024819D01*
X9833333Y-32024819D02*
X10071428Y-32024819D01*
X10071428Y-32024819D02*
X10166666Y-32072438D01*
X10166666Y-32072438D02*
X10214285Y-32120057D01*
X10214285Y-32120057D02*
X10261904Y-32215295D01*
X10261904Y-32215295D02*
X10261904Y-32310533D01*
X10261904Y-32310533D02*
X10214285Y-32453390D01*
X10214285Y-32453390D02*
X9642857Y-33024819D01*
X9642857Y-33024819D02*
X10261904Y-33024819D01*
X4357142Y-20929580D02*
X4309523Y-20977200D01*
X4309523Y-20977200D02*
X4166666Y-21024819D01*
X4166666Y-21024819D02*
X4071428Y-21024819D01*
X4071428Y-21024819D02*
X3928571Y-20977200D01*
X3928571Y-20977200D02*
X3833333Y-20881961D01*
X3833333Y-20881961D02*
X3785714Y-20786723D01*
X3785714Y-20786723D02*
X3738095Y-20596247D01*
X3738095Y-20596247D02*
X3738095Y-20453390D01*
X3738095Y-20453390D02*
X3785714Y-20262914D01*
X3785714Y-20262914D02*
X3833333Y-20167676D01*
X3833333Y-20167676D02*
X3928571Y-20072438D01*
X3928571Y-20072438D02*
X4071428Y-20024819D01*
X4071428Y-20024819D02*
X4166666Y-20024819D01*
X4166666Y-20024819D02*
X4309523Y-20072438D01*
X4309523Y-20072438D02*
X4357142Y-20120057D01*
X5309523Y-21024819D02*
X4738095Y-21024819D01*
X5023809Y-21024819D02*
X5023809Y-20024819D01*
X5023809Y-20024819D02*
X4928571Y-20167676D01*
X4928571Y-20167676D02*
X4833333Y-20262914D01*
X4833333Y-20262914D02*
X4738095Y-20310533D01*
X6261904Y-21024819D02*
X5690476Y-21024819D01*
X5976190Y-21024819D02*
X5976190Y-20024819D01*
X5976190Y-20024819D02*
X5880952Y-20167676D01*
X5880952Y-20167676D02*
X5785714Y-20262914D01*
X5785714Y-20262914D02*
X5690476Y-20310533D01*
X63357142Y-10024819D02*
X63023809Y-9548628D01*
X62785714Y-10024819D02*
X62785714Y-9024819D01*
X62785714Y-9024819D02*
X63166666Y-9024819D01*
X63166666Y-9024819D02*
X63261904Y-9072438D01*
X63261904Y-9072438D02*
X63309523Y-9120057D01*
X63309523Y-9120057D02*
X63357142Y-9215295D01*
X63357142Y-9215295D02*
X63357142Y-9358152D01*
X63357142Y-9358152D02*
X63309523Y-9453390D01*
X63309523Y-9453390D02*
X63261904Y-9501009D01*
X63261904Y-9501009D02*
X63166666Y-9548628D01*
X63166666Y-9548628D02*
X62785714Y-9548628D01*
X64309523Y-10024819D02*
X63738095Y-10024819D01*
X64023809Y-10024819D02*
X64023809Y-9024819D01*
X64023809Y-9024819D02*
X63928571Y-9167676D01*
X63928571Y-9167676D02*
X63833333Y-9262914D01*
X63833333Y-9262914D02*
X63738095Y-9310533D01*
X64785714Y-10024819D02*
X64976190Y-10024819D01*
X64976190Y-10024819D02*
X65071428Y-9977200D01*
X65071428Y-9977200D02*
X65119047Y-9929580D01*
X65119047Y-9929580D02*
X65214285Y-9786723D01*
X65214285Y-9786723D02*
X65261904Y-9596247D01*
X65261904Y-9596247D02*
X65261904Y-9215295D01*
X65261904Y-9215295D02*
X65214285Y-9120057D01*
X65214285Y-9120057D02*
X65166666Y-9072438D01*
X65166666Y-9072438D02*
X65071428Y-9024819D01*
X65071428Y-9024819D02*
X64880952Y-9024819D01*
X64880952Y-9024819D02*
X64785714Y-9072438D01*
X64785714Y-9072438D02*
X64738095Y-9120057D01*
X64738095Y-9120057D02*
X64690476Y-9215295D01*
X64690476Y-9215295D02*
X64690476Y-9453390D01*
X64690476Y-9453390D02*
X64738095Y-9548628D01*
X64738095Y-9548628D02*
X64785714Y-9596247D01*
X64785714Y-9596247D02*
X64880952Y-9643866D01*
X64880952Y-9643866D02*
X65071428Y-9643866D01*
X65071428Y-9643866D02*
X65166666Y-9596247D01*
X65166666Y-9596247D02*
X65214285Y-9548628D01*
X65214285Y-9548628D02*
X65261904Y-9453390D01*
X10357142Y-13929580D02*
X10309523Y-13977200D01*
X10309523Y-13977200D02*
X10166666Y-14024819D01*
X10166666Y-14024819D02*
X10071428Y-14024819D01*
X10071428Y-14024819D02*
X9928571Y-13977200D01*
X9928571Y-13977200D02*
X9833333Y-13881961D01*
X9833333Y-13881961D02*
X9785714Y-13786723D01*
X9785714Y-13786723D02*
X9738095Y-13596247D01*
X9738095Y-13596247D02*
X9738095Y-13453390D01*
X9738095Y-13453390D02*
X9785714Y-13262914D01*
X9785714Y-13262914D02*
X9833333Y-13167676D01*
X9833333Y-13167676D02*
X9928571Y-13072438D01*
X9928571Y-13072438D02*
X10071428Y-13024819D01*
X10071428Y-13024819D02*
X10166666Y-13024819D01*
X10166666Y-13024819D02*
X10309523Y-13072438D01*
X10309523Y-13072438D02*
X10357142Y-13120057D01*
X11309523Y-14024819D02*
X10738095Y-14024819D01*
X11023809Y-14024819D02*
X11023809Y-13024819D01*
X11023809Y-13024819D02*
X10928571Y-13167676D01*
X10928571Y-13167676D02*
X10833333Y-13262914D01*
X10833333Y-13262914D02*
X10738095Y-13310533D01*
X11690476Y-13120057D02*
X11738095Y-13072438D01*
X11738095Y-13072438D02*
X11833333Y-13024819D01*
X11833333Y-13024819D02*
X12071428Y-13024819D01*
X12071428Y-13024819D02*
X12166666Y-13072438D01*
X12166666Y-13072438D02*
X12214285Y-13120057D01*
X12214285Y-13120057D02*
X12261904Y-13215295D01*
X12261904Y-13215295D02*
X12261904Y-13310533D01*
X12261904Y-13310533D02*
X12214285Y-13453390D01*
X12214285Y-13453390D02*
X11642857Y-14024819D01*
X11642857Y-14024819D02*
X12261904Y-14024819D01*
X9357142Y-8509580D02*
X9309523Y-8557200D01*
X9309523Y-8557200D02*
X9166666Y-8604819D01*
X9166666Y-8604819D02*
X9071428Y-8604819D01*
X9071428Y-8604819D02*
X8928571Y-8557200D01*
X8928571Y-8557200D02*
X8833333Y-8461961D01*
X8833333Y-8461961D02*
X8785714Y-8366723D01*
X8785714Y-8366723D02*
X8738095Y-8176247D01*
X8738095Y-8176247D02*
X8738095Y-8033390D01*
X8738095Y-8033390D02*
X8785714Y-7842914D01*
X8785714Y-7842914D02*
X8833333Y-7747676D01*
X8833333Y-7747676D02*
X8928571Y-7652438D01*
X8928571Y-7652438D02*
X9071428Y-7604819D01*
X9071428Y-7604819D02*
X9166666Y-7604819D01*
X9166666Y-7604819D02*
X9309523Y-7652438D01*
X9309523Y-7652438D02*
X9357142Y-7700057D01*
X10309523Y-8604819D02*
X9738095Y-8604819D01*
X10023809Y-8604819D02*
X10023809Y-7604819D01*
X10023809Y-7604819D02*
X9928571Y-7747676D01*
X9928571Y-7747676D02*
X9833333Y-7842914D01*
X9833333Y-7842914D02*
X9738095Y-7890533D01*
X10928571Y-7604819D02*
X11023809Y-7604819D01*
X11023809Y-7604819D02*
X11119047Y-7652438D01*
X11119047Y-7652438D02*
X11166666Y-7700057D01*
X11166666Y-7700057D02*
X11214285Y-7795295D01*
X11214285Y-7795295D02*
X11261904Y-7985771D01*
X11261904Y-7985771D02*
X11261904Y-8223866D01*
X11261904Y-8223866D02*
X11214285Y-8414342D01*
X11214285Y-8414342D02*
X11166666Y-8509580D01*
X11166666Y-8509580D02*
X11119047Y-8557200D01*
X11119047Y-8557200D02*
X11023809Y-8604819D01*
X11023809Y-8604819D02*
X10928571Y-8604819D01*
X10928571Y-8604819D02*
X10833333Y-8557200D01*
X10833333Y-8557200D02*
X10785714Y-8509580D01*
X10785714Y-8509580D02*
X10738095Y-8414342D01*
X10738095Y-8414342D02*
X10690476Y-8223866D01*
X10690476Y-8223866D02*
X10690476Y-7985771D01*
X10690476Y-7985771D02*
X10738095Y-7795295D01*
X10738095Y-7795295D02*
X10785714Y-7700057D01*
X10785714Y-7700057D02*
X10833333Y-7652438D01*
X10833333Y-7652438D02*
X10928571Y-7604819D01*
X23357142Y-33024819D02*
X23023809Y-32548628D01*
X22785714Y-33024819D02*
X22785714Y-32024819D01*
X22785714Y-32024819D02*
X23166666Y-32024819D01*
X23166666Y-32024819D02*
X23261904Y-32072438D01*
X23261904Y-32072438D02*
X23309523Y-32120057D01*
X23309523Y-32120057D02*
X23357142Y-32215295D01*
X23357142Y-32215295D02*
X23357142Y-32358152D01*
X23357142Y-32358152D02*
X23309523Y-32453390D01*
X23309523Y-32453390D02*
X23261904Y-32501009D01*
X23261904Y-32501009D02*
X23166666Y-32548628D01*
X23166666Y-32548628D02*
X22785714Y-32548628D01*
X24309523Y-33024819D02*
X23738095Y-33024819D01*
X24023809Y-33024819D02*
X24023809Y-32024819D01*
X24023809Y-32024819D02*
X23928571Y-32167676D01*
X23928571Y-32167676D02*
X23833333Y-32262914D01*
X23833333Y-32262914D02*
X23738095Y-32310533D01*
X24928571Y-32024819D02*
X25023809Y-32024819D01*
X25023809Y-32024819D02*
X25119047Y-32072438D01*
X25119047Y-32072438D02*
X25166666Y-32120057D01*
X25166666Y-32120057D02*
X25214285Y-32215295D01*
X25214285Y-32215295D02*
X25261904Y-32405771D01*
X25261904Y-32405771D02*
X25261904Y-32643866D01*
X25261904Y-32643866D02*
X25214285Y-32834342D01*
X25214285Y-32834342D02*
X25166666Y-32929580D01*
X25166666Y-32929580D02*
X25119047Y-32977200D01*
X25119047Y-32977200D02*
X25023809Y-33024819D01*
X25023809Y-33024819D02*
X24928571Y-33024819D01*
X24928571Y-33024819D02*
X24833333Y-32977200D01*
X24833333Y-32977200D02*
X24785714Y-32929580D01*
X24785714Y-32929580D02*
X24738095Y-32834342D01*
X24738095Y-32834342D02*
X24690476Y-32643866D01*
X24690476Y-32643866D02*
X24690476Y-32405771D01*
X24690476Y-32405771D02*
X24738095Y-32215295D01*
X24738095Y-32215295D02*
X24785714Y-32120057D01*
X24785714Y-32120057D02*
X24833333Y-32072438D01*
X24833333Y-32072438D02*
X24928571Y-32024819D01*
X41833333Y-31024819D02*
X41500000Y-30548628D01*
X41261905Y-31024819D02*
X41261905Y-30024819D01*
X41261905Y-30024819D02*
X41642857Y-30024819D01*
X41642857Y-30024819D02*
X41738095Y-30072438D01*
X41738095Y-30072438D02*
X41785714Y-30120057D01*
X41785714Y-30120057D02*
X41833333Y-30215295D01*
X41833333Y-30215295D02*
X41833333Y-30358152D01*
X41833333Y-30358152D02*
X41785714Y-30453390D01*
X41785714Y-30453390D02*
X41738095Y-30501009D01*
X41738095Y-30501009D02*
X41642857Y-30548628D01*
X41642857Y-30548628D02*
X41261905Y-30548628D01*
X42690476Y-30358152D02*
X42690476Y-31024819D01*
X42452381Y-29977200D02*
X42214286Y-30691485D01*
X42214286Y-30691485D02*
X42833333Y-30691485D01*
X7666666Y-15054819D02*
X7666666Y-15769104D01*
X7666666Y-15769104D02*
X7619047Y-15911961D01*
X7619047Y-15911961D02*
X7523809Y-16007200D01*
X7523809Y-16007200D02*
X7380952Y-16054819D01*
X7380952Y-16054819D02*
X7285714Y-16054819D01*
X8619047Y-15054819D02*
X8142857Y-15054819D01*
X8142857Y-15054819D02*
X8095238Y-15531009D01*
X8095238Y-15531009D02*
X8142857Y-15483390D01*
X8142857Y-15483390D02*
X8238095Y-15435771D01*
X8238095Y-15435771D02*
X8476190Y-15435771D01*
X8476190Y-15435771D02*
X8571428Y-15483390D01*
X8571428Y-15483390D02*
X8619047Y-15531009D01*
X8619047Y-15531009D02*
X8666666Y-15626247D01*
X8666666Y-15626247D02*
X8666666Y-15864342D01*
X8666666Y-15864342D02*
X8619047Y-15959580D01*
X8619047Y-15959580D02*
X8571428Y-16007200D01*
X8571428Y-16007200D02*
X8476190Y-16054819D01*
X8476190Y-16054819D02*
X8238095Y-16054819D01*
X8238095Y-16054819D02*
X8142857Y-16007200D01*
X8142857Y-16007200D02*
X8095238Y-15959580D01*
X62833333Y-37284819D02*
X62500000Y-36808628D01*
X62261905Y-37284819D02*
X62261905Y-36284819D01*
X62261905Y-36284819D02*
X62642857Y-36284819D01*
X62642857Y-36284819D02*
X62738095Y-36332438D01*
X62738095Y-36332438D02*
X62785714Y-36380057D01*
X62785714Y-36380057D02*
X62833333Y-36475295D01*
X62833333Y-36475295D02*
X62833333Y-36618152D01*
X62833333Y-36618152D02*
X62785714Y-36713390D01*
X62785714Y-36713390D02*
X62738095Y-36761009D01*
X62738095Y-36761009D02*
X62642857Y-36808628D01*
X62642857Y-36808628D02*
X62261905Y-36808628D01*
X63214286Y-36380057D02*
X63261905Y-36332438D01*
X63261905Y-36332438D02*
X63357143Y-36284819D01*
X63357143Y-36284819D02*
X63595238Y-36284819D01*
X63595238Y-36284819D02*
X63690476Y-36332438D01*
X63690476Y-36332438D02*
X63738095Y-36380057D01*
X63738095Y-36380057D02*
X63785714Y-36475295D01*
X63785714Y-36475295D02*
X63785714Y-36570533D01*
X63785714Y-36570533D02*
X63738095Y-36713390D01*
X63738095Y-36713390D02*
X63166667Y-37284819D01*
X63166667Y-37284819D02*
X63785714Y-37284819D01*
X29833333Y-33024819D02*
X29500000Y-32548628D01*
X29261905Y-33024819D02*
X29261905Y-32024819D01*
X29261905Y-32024819D02*
X29642857Y-32024819D01*
X29642857Y-32024819D02*
X29738095Y-32072438D01*
X29738095Y-32072438D02*
X29785714Y-32120057D01*
X29785714Y-32120057D02*
X29833333Y-32215295D01*
X29833333Y-32215295D02*
X29833333Y-32358152D01*
X29833333Y-32358152D02*
X29785714Y-32453390D01*
X29785714Y-32453390D02*
X29738095Y-32501009D01*
X29738095Y-32501009D02*
X29642857Y-32548628D01*
X29642857Y-32548628D02*
X29261905Y-32548628D01*
X30166667Y-32024819D02*
X30833333Y-32024819D01*
X30833333Y-32024819D02*
X30404762Y-33024819D01*
X12833333Y-17504819D02*
X12357143Y-17504819D01*
X12357143Y-17504819D02*
X12357143Y-16504819D01*
X13690476Y-17504819D02*
X13119048Y-17504819D01*
X13404762Y-17504819D02*
X13404762Y-16504819D01*
X13404762Y-16504819D02*
X13309524Y-16647676D01*
X13309524Y-16647676D02*
X13214286Y-16742914D01*
X13214286Y-16742914D02*
X13119048Y-16790533D01*
X55261905Y-27954819D02*
X55261905Y-26954819D01*
X55261905Y-26954819D02*
X55500000Y-26954819D01*
X55500000Y-26954819D02*
X55642857Y-27002438D01*
X55642857Y-27002438D02*
X55738095Y-27097676D01*
X55738095Y-27097676D02*
X55785714Y-27192914D01*
X55785714Y-27192914D02*
X55833333Y-27383390D01*
X55833333Y-27383390D02*
X55833333Y-27526247D01*
X55833333Y-27526247D02*
X55785714Y-27716723D01*
X55785714Y-27716723D02*
X55738095Y-27811961D01*
X55738095Y-27811961D02*
X55642857Y-27907200D01*
X55642857Y-27907200D02*
X55500000Y-27954819D01*
X55500000Y-27954819D02*
X55261905Y-27954819D01*
X56690476Y-27288152D02*
X56690476Y-27954819D01*
X56452381Y-26907200D02*
X56214286Y-27621485D01*
X56214286Y-27621485D02*
X56833333Y-27621485D01*
X61833333Y-12929580D02*
X61785714Y-12977200D01*
X61785714Y-12977200D02*
X61642857Y-13024819D01*
X61642857Y-13024819D02*
X61547619Y-13024819D01*
X61547619Y-13024819D02*
X61404762Y-12977200D01*
X61404762Y-12977200D02*
X61309524Y-12881961D01*
X61309524Y-12881961D02*
X61261905Y-12786723D01*
X61261905Y-12786723D02*
X61214286Y-12596247D01*
X61214286Y-12596247D02*
X61214286Y-12453390D01*
X61214286Y-12453390D02*
X61261905Y-12262914D01*
X61261905Y-12262914D02*
X61309524Y-12167676D01*
X61309524Y-12167676D02*
X61404762Y-12072438D01*
X61404762Y-12072438D02*
X61547619Y-12024819D01*
X61547619Y-12024819D02*
X61642857Y-12024819D01*
X61642857Y-12024819D02*
X61785714Y-12072438D01*
X61785714Y-12072438D02*
X61833333Y-12120057D01*
X62214286Y-12120057D02*
X62261905Y-12072438D01*
X62261905Y-12072438D02*
X62357143Y-12024819D01*
X62357143Y-12024819D02*
X62595238Y-12024819D01*
X62595238Y-12024819D02*
X62690476Y-12072438D01*
X62690476Y-12072438D02*
X62738095Y-12120057D01*
X62738095Y-12120057D02*
X62785714Y-12215295D01*
X62785714Y-12215295D02*
X62785714Y-12310533D01*
X62785714Y-12310533D02*
X62738095Y-12453390D01*
X62738095Y-12453390D02*
X62166667Y-13024819D01*
X62166667Y-13024819D02*
X62785714Y-13024819D01*
X58833333Y-37284819D02*
X58500000Y-36808628D01*
X58261905Y-37284819D02*
X58261905Y-36284819D01*
X58261905Y-36284819D02*
X58642857Y-36284819D01*
X58642857Y-36284819D02*
X58738095Y-36332438D01*
X58738095Y-36332438D02*
X58785714Y-36380057D01*
X58785714Y-36380057D02*
X58833333Y-36475295D01*
X58833333Y-36475295D02*
X58833333Y-36618152D01*
X58833333Y-36618152D02*
X58785714Y-36713390D01*
X58785714Y-36713390D02*
X58738095Y-36761009D01*
X58738095Y-36761009D02*
X58642857Y-36808628D01*
X58642857Y-36808628D02*
X58261905Y-36808628D01*
X59785714Y-37284819D02*
X59214286Y-37284819D01*
X59500000Y-37284819D02*
X59500000Y-36284819D01*
X59500000Y-36284819D02*
X59404762Y-36427676D01*
X59404762Y-36427676D02*
X59309524Y-36522914D01*
X59309524Y-36522914D02*
X59214286Y-36570533D01*
X57309819Y-29333333D02*
X58024104Y-29333333D01*
X58024104Y-29333333D02*
X58166961Y-29380952D01*
X58166961Y-29380952D02*
X58262200Y-29476190D01*
X58262200Y-29476190D02*
X58309819Y-29619047D01*
X58309819Y-29619047D02*
X58309819Y-29714285D01*
X57309819Y-28952380D02*
X57309819Y-28333333D01*
X57309819Y-28333333D02*
X57690771Y-28666666D01*
X57690771Y-28666666D02*
X57690771Y-28523809D01*
X57690771Y-28523809D02*
X57738390Y-28428571D01*
X57738390Y-28428571D02*
X57786009Y-28380952D01*
X57786009Y-28380952D02*
X57881247Y-28333333D01*
X57881247Y-28333333D02*
X58119342Y-28333333D01*
X58119342Y-28333333D02*
X58214580Y-28380952D01*
X58214580Y-28380952D02*
X58262200Y-28428571D01*
X58262200Y-28428571D02*
X58309819Y-28523809D01*
X58309819Y-28523809D02*
X58309819Y-28809523D01*
X58309819Y-28809523D02*
X58262200Y-28904761D01*
X58262200Y-28904761D02*
X58214580Y-28952380D01*
X38357142Y-37024819D02*
X38023809Y-36548628D01*
X37785714Y-37024819D02*
X37785714Y-36024819D01*
X37785714Y-36024819D02*
X38166666Y-36024819D01*
X38166666Y-36024819D02*
X38261904Y-36072438D01*
X38261904Y-36072438D02*
X38309523Y-36120057D01*
X38309523Y-36120057D02*
X38357142Y-36215295D01*
X38357142Y-36215295D02*
X38357142Y-36358152D01*
X38357142Y-36358152D02*
X38309523Y-36453390D01*
X38309523Y-36453390D02*
X38261904Y-36501009D01*
X38261904Y-36501009D02*
X38166666Y-36548628D01*
X38166666Y-36548628D02*
X37785714Y-36548628D01*
X39309523Y-37024819D02*
X38738095Y-37024819D01*
X39023809Y-37024819D02*
X39023809Y-36024819D01*
X39023809Y-36024819D02*
X38928571Y-36167676D01*
X38928571Y-36167676D02*
X38833333Y-36262914D01*
X38833333Y-36262914D02*
X38738095Y-36310533D01*
X40214285Y-36024819D02*
X39738095Y-36024819D01*
X39738095Y-36024819D02*
X39690476Y-36501009D01*
X39690476Y-36501009D02*
X39738095Y-36453390D01*
X39738095Y-36453390D02*
X39833333Y-36405771D01*
X39833333Y-36405771D02*
X40071428Y-36405771D01*
X40071428Y-36405771D02*
X40166666Y-36453390D01*
X40166666Y-36453390D02*
X40214285Y-36501009D01*
X40214285Y-36501009D02*
X40261904Y-36596247D01*
X40261904Y-36596247D02*
X40261904Y-36834342D01*
X40261904Y-36834342D02*
X40214285Y-36929580D01*
X40214285Y-36929580D02*
X40166666Y-36977200D01*
X40166666Y-36977200D02*
X40071428Y-37024819D01*
X40071428Y-37024819D02*
X39833333Y-37024819D01*
X39833333Y-37024819D02*
X39738095Y-36977200D01*
X39738095Y-36977200D02*
X39690476Y-36929580D01*
X51833333Y-35929580D02*
X51785714Y-35977200D01*
X51785714Y-35977200D02*
X51642857Y-36024819D01*
X51642857Y-36024819D02*
X51547619Y-36024819D01*
X51547619Y-36024819D02*
X51404762Y-35977200D01*
X51404762Y-35977200D02*
X51309524Y-35881961D01*
X51309524Y-35881961D02*
X51261905Y-35786723D01*
X51261905Y-35786723D02*
X51214286Y-35596247D01*
X51214286Y-35596247D02*
X51214286Y-35453390D01*
X51214286Y-35453390D02*
X51261905Y-35262914D01*
X51261905Y-35262914D02*
X51309524Y-35167676D01*
X51309524Y-35167676D02*
X51404762Y-35072438D01*
X51404762Y-35072438D02*
X51547619Y-35024819D01*
X51547619Y-35024819D02*
X51642857Y-35024819D01*
X51642857Y-35024819D02*
X51785714Y-35072438D01*
X51785714Y-35072438D02*
X51833333Y-35120057D01*
X52738095Y-35024819D02*
X52261905Y-35024819D01*
X52261905Y-35024819D02*
X52214286Y-35501009D01*
X52214286Y-35501009D02*
X52261905Y-35453390D01*
X52261905Y-35453390D02*
X52357143Y-35405771D01*
X52357143Y-35405771D02*
X52595238Y-35405771D01*
X52595238Y-35405771D02*
X52690476Y-35453390D01*
X52690476Y-35453390D02*
X52738095Y-35501009D01*
X52738095Y-35501009D02*
X52785714Y-35596247D01*
X52785714Y-35596247D02*
X52785714Y-35834342D01*
X52785714Y-35834342D02*
X52738095Y-35929580D01*
X52738095Y-35929580D02*
X52690476Y-35977200D01*
X52690476Y-35977200D02*
X52595238Y-36024819D01*
X52595238Y-36024819D02*
X52357143Y-36024819D01*
X52357143Y-36024819D02*
X52261905Y-35977200D01*
X52261905Y-35977200D02*
X52214286Y-35929580D01*
X10357142Y-25509580D02*
X10309523Y-25557200D01*
X10309523Y-25557200D02*
X10166666Y-25604819D01*
X10166666Y-25604819D02*
X10071428Y-25604819D01*
X10071428Y-25604819D02*
X9928571Y-25557200D01*
X9928571Y-25557200D02*
X9833333Y-25461961D01*
X9833333Y-25461961D02*
X9785714Y-25366723D01*
X9785714Y-25366723D02*
X9738095Y-25176247D01*
X9738095Y-25176247D02*
X9738095Y-25033390D01*
X9738095Y-25033390D02*
X9785714Y-24842914D01*
X9785714Y-24842914D02*
X9833333Y-24747676D01*
X9833333Y-24747676D02*
X9928571Y-24652438D01*
X9928571Y-24652438D02*
X10071428Y-24604819D01*
X10071428Y-24604819D02*
X10166666Y-24604819D01*
X10166666Y-24604819D02*
X10309523Y-24652438D01*
X10309523Y-24652438D02*
X10357142Y-24700057D01*
X11309523Y-25604819D02*
X10738095Y-25604819D01*
X11023809Y-25604819D02*
X11023809Y-24604819D01*
X11023809Y-24604819D02*
X10928571Y-24747676D01*
X10928571Y-24747676D02*
X10833333Y-24842914D01*
X10833333Y-24842914D02*
X10738095Y-24890533D01*
X12166666Y-24938152D02*
X12166666Y-25604819D01*
X11928571Y-24557200D02*
X11690476Y-25271485D01*
X11690476Y-25271485D02*
X12309523Y-25271485D01*
X19454819Y-28163220D02*
X20264342Y-28163220D01*
X20264342Y-28163220D02*
X20359580Y-28115601D01*
X20359580Y-28115601D02*
X20407200Y-28067982D01*
X20407200Y-28067982D02*
X20454819Y-27972744D01*
X20454819Y-27972744D02*
X20454819Y-27782268D01*
X20454819Y-27782268D02*
X20407200Y-27687030D01*
X20407200Y-27687030D02*
X20359580Y-27639411D01*
X20359580Y-27639411D02*
X20264342Y-27591792D01*
X20264342Y-27591792D02*
X19454819Y-27591792D01*
X20454819Y-26591792D02*
X20454819Y-27163220D01*
X20454819Y-26877506D02*
X19454819Y-26877506D01*
X19454819Y-26877506D02*
X19597676Y-26972744D01*
X19597676Y-26972744D02*
X19692914Y-27067982D01*
X19692914Y-27067982D02*
X19740533Y-27163220D01*
X10357142Y-30024819D02*
X10023809Y-29548628D01*
X9785714Y-30024819D02*
X9785714Y-29024819D01*
X9785714Y-29024819D02*
X10166666Y-29024819D01*
X10166666Y-29024819D02*
X10261904Y-29072438D01*
X10261904Y-29072438D02*
X10309523Y-29120057D01*
X10309523Y-29120057D02*
X10357142Y-29215295D01*
X10357142Y-29215295D02*
X10357142Y-29358152D01*
X10357142Y-29358152D02*
X10309523Y-29453390D01*
X10309523Y-29453390D02*
X10261904Y-29501009D01*
X10261904Y-29501009D02*
X10166666Y-29548628D01*
X10166666Y-29548628D02*
X9785714Y-29548628D01*
X10690476Y-29024819D02*
X11309523Y-29024819D01*
X11309523Y-29024819D02*
X10976190Y-29405771D01*
X10976190Y-29405771D02*
X11119047Y-29405771D01*
X11119047Y-29405771D02*
X11214285Y-29453390D01*
X11214285Y-29453390D02*
X11261904Y-29501009D01*
X11261904Y-29501009D02*
X11309523Y-29596247D01*
X11309523Y-29596247D02*
X11309523Y-29834342D01*
X11309523Y-29834342D02*
X11261904Y-29929580D01*
X11261904Y-29929580D02*
X11214285Y-29977200D01*
X11214285Y-29977200D02*
X11119047Y-30024819D01*
X11119047Y-30024819D02*
X10833333Y-30024819D01*
X10833333Y-30024819D02*
X10738095Y-29977200D01*
X10738095Y-29977200D02*
X10690476Y-29929580D01*
X11690476Y-29120057D02*
X11738095Y-29072438D01*
X11738095Y-29072438D02*
X11833333Y-29024819D01*
X11833333Y-29024819D02*
X12071428Y-29024819D01*
X12071428Y-29024819D02*
X12166666Y-29072438D01*
X12166666Y-29072438D02*
X12214285Y-29120057D01*
X12214285Y-29120057D02*
X12261904Y-29215295D01*
X12261904Y-29215295D02*
X12261904Y-29310533D01*
X12261904Y-29310533D02*
X12214285Y-29453390D01*
X12214285Y-29453390D02*
X11642857Y-30024819D01*
X11642857Y-30024819D02*
X12261904Y-30024819D01*
X14261905Y-39954819D02*
X14261905Y-38954819D01*
X14261905Y-38954819D02*
X14500000Y-38954819D01*
X14500000Y-38954819D02*
X14642857Y-39002438D01*
X14642857Y-39002438D02*
X14738095Y-39097676D01*
X14738095Y-39097676D02*
X14785714Y-39192914D01*
X14785714Y-39192914D02*
X14833333Y-39383390D01*
X14833333Y-39383390D02*
X14833333Y-39526247D01*
X14833333Y-39526247D02*
X14785714Y-39716723D01*
X14785714Y-39716723D02*
X14738095Y-39811961D01*
X14738095Y-39811961D02*
X14642857Y-39907200D01*
X14642857Y-39907200D02*
X14500000Y-39954819D01*
X14500000Y-39954819D02*
X14261905Y-39954819D01*
X15690476Y-38954819D02*
X15500000Y-38954819D01*
X15500000Y-38954819D02*
X15404762Y-39002438D01*
X15404762Y-39002438D02*
X15357143Y-39050057D01*
X15357143Y-39050057D02*
X15261905Y-39192914D01*
X15261905Y-39192914D02*
X15214286Y-39383390D01*
X15214286Y-39383390D02*
X15214286Y-39764342D01*
X15214286Y-39764342D02*
X15261905Y-39859580D01*
X15261905Y-39859580D02*
X15309524Y-39907200D01*
X15309524Y-39907200D02*
X15404762Y-39954819D01*
X15404762Y-39954819D02*
X15595238Y-39954819D01*
X15595238Y-39954819D02*
X15690476Y-39907200D01*
X15690476Y-39907200D02*
X15738095Y-39859580D01*
X15738095Y-39859580D02*
X15785714Y-39764342D01*
X15785714Y-39764342D02*
X15785714Y-39526247D01*
X15785714Y-39526247D02*
X15738095Y-39431009D01*
X15738095Y-39431009D02*
X15690476Y-39383390D01*
X15690476Y-39383390D02*
X15595238Y-39335771D01*
X15595238Y-39335771D02*
X15404762Y-39335771D01*
X15404762Y-39335771D02*
X15309524Y-39383390D01*
X15309524Y-39383390D02*
X15261905Y-39431009D01*
X15261905Y-39431009D02*
X15214286Y-39526247D01*
X13666666Y-43254819D02*
X13666666Y-43969104D01*
X13666666Y-43969104D02*
X13619047Y-44111961D01*
X13619047Y-44111961D02*
X13523809Y-44207200D01*
X13523809Y-44207200D02*
X13380952Y-44254819D01*
X13380952Y-44254819D02*
X13285714Y-44254819D01*
X14666666Y-44254819D02*
X14095238Y-44254819D01*
X14380952Y-44254819D02*
X14380952Y-43254819D01*
X14380952Y-43254819D02*
X14285714Y-43397676D01*
X14285714Y-43397676D02*
X14190476Y-43492914D01*
X14190476Y-43492914D02*
X14095238Y-43540533D01*
X59357142Y-53884819D02*
X59023809Y-53408628D01*
X58785714Y-53884819D02*
X58785714Y-52884819D01*
X58785714Y-52884819D02*
X59166666Y-52884819D01*
X59166666Y-52884819D02*
X59261904Y-52932438D01*
X59261904Y-52932438D02*
X59309523Y-52980057D01*
X59309523Y-52980057D02*
X59357142Y-53075295D01*
X59357142Y-53075295D02*
X59357142Y-53218152D01*
X59357142Y-53218152D02*
X59309523Y-53313390D01*
X59309523Y-53313390D02*
X59261904Y-53361009D01*
X59261904Y-53361009D02*
X59166666Y-53408628D01*
X59166666Y-53408628D02*
X58785714Y-53408628D01*
X59690476Y-52884819D02*
X60309523Y-52884819D01*
X60309523Y-52884819D02*
X59976190Y-53265771D01*
X59976190Y-53265771D02*
X60119047Y-53265771D01*
X60119047Y-53265771D02*
X60214285Y-53313390D01*
X60214285Y-53313390D02*
X60261904Y-53361009D01*
X60261904Y-53361009D02*
X60309523Y-53456247D01*
X60309523Y-53456247D02*
X60309523Y-53694342D01*
X60309523Y-53694342D02*
X60261904Y-53789580D01*
X60261904Y-53789580D02*
X60214285Y-53837200D01*
X60214285Y-53837200D02*
X60119047Y-53884819D01*
X60119047Y-53884819D02*
X59833333Y-53884819D01*
X59833333Y-53884819D02*
X59738095Y-53837200D01*
X59738095Y-53837200D02*
X59690476Y-53789580D01*
X60785714Y-53884819D02*
X60976190Y-53884819D01*
X60976190Y-53884819D02*
X61071428Y-53837200D01*
X61071428Y-53837200D02*
X61119047Y-53789580D01*
X61119047Y-53789580D02*
X61214285Y-53646723D01*
X61214285Y-53646723D02*
X61261904Y-53456247D01*
X61261904Y-53456247D02*
X61261904Y-53075295D01*
X61261904Y-53075295D02*
X61214285Y-52980057D01*
X61214285Y-52980057D02*
X61166666Y-52932438D01*
X61166666Y-52932438D02*
X61071428Y-52884819D01*
X61071428Y-52884819D02*
X60880952Y-52884819D01*
X60880952Y-52884819D02*
X60785714Y-52932438D01*
X60785714Y-52932438D02*
X60738095Y-52980057D01*
X60738095Y-52980057D02*
X60690476Y-53075295D01*
X60690476Y-53075295D02*
X60690476Y-53313390D01*
X60690476Y-53313390D02*
X60738095Y-53408628D01*
X60738095Y-53408628D02*
X60785714Y-53456247D01*
X60785714Y-53456247D02*
X60880952Y-53503866D01*
X60880952Y-53503866D02*
X61071428Y-53503866D01*
X61071428Y-53503866D02*
X61166666Y-53456247D01*
X61166666Y-53456247D02*
X61214285Y-53408628D01*
X61214285Y-53408628D02*
X61261904Y-53313390D01*
X57833333Y-12679580D02*
X57785714Y-12727200D01*
X57785714Y-12727200D02*
X57642857Y-12774819D01*
X57642857Y-12774819D02*
X57547619Y-12774819D01*
X57547619Y-12774819D02*
X57404762Y-12727200D01*
X57404762Y-12727200D02*
X57309524Y-12631961D01*
X57309524Y-12631961D02*
X57261905Y-12536723D01*
X57261905Y-12536723D02*
X57214286Y-12346247D01*
X57214286Y-12346247D02*
X57214286Y-12203390D01*
X57214286Y-12203390D02*
X57261905Y-12012914D01*
X57261905Y-12012914D02*
X57309524Y-11917676D01*
X57309524Y-11917676D02*
X57404762Y-11822438D01*
X57404762Y-11822438D02*
X57547619Y-11774819D01*
X57547619Y-11774819D02*
X57642857Y-11774819D01*
X57642857Y-11774819D02*
X57785714Y-11822438D01*
X57785714Y-11822438D02*
X57833333Y-11870057D01*
X58785714Y-12774819D02*
X58214286Y-12774819D01*
X58500000Y-12774819D02*
X58500000Y-11774819D01*
X58500000Y-11774819D02*
X58404762Y-11917676D01*
X58404762Y-11917676D02*
X58309524Y-12012914D01*
X58309524Y-12012914D02*
X58214286Y-12060533D01*
X59857142Y-9024819D02*
X59523809Y-8548628D01*
X59285714Y-9024819D02*
X59285714Y-8024819D01*
X59285714Y-8024819D02*
X59666666Y-8024819D01*
X59666666Y-8024819D02*
X59761904Y-8072438D01*
X59761904Y-8072438D02*
X59809523Y-8120057D01*
X59809523Y-8120057D02*
X59857142Y-8215295D01*
X59857142Y-8215295D02*
X59857142Y-8358152D01*
X59857142Y-8358152D02*
X59809523Y-8453390D01*
X59809523Y-8453390D02*
X59761904Y-8501009D01*
X59761904Y-8501009D02*
X59666666Y-8548628D01*
X59666666Y-8548628D02*
X59285714Y-8548628D01*
X60809523Y-9024819D02*
X60238095Y-9024819D01*
X60523809Y-9024819D02*
X60523809Y-8024819D01*
X60523809Y-8024819D02*
X60428571Y-8167676D01*
X60428571Y-8167676D02*
X60333333Y-8262914D01*
X60333333Y-8262914D02*
X60238095Y-8310533D01*
X61380952Y-8453390D02*
X61285714Y-8405771D01*
X61285714Y-8405771D02*
X61238095Y-8358152D01*
X61238095Y-8358152D02*
X61190476Y-8262914D01*
X61190476Y-8262914D02*
X61190476Y-8215295D01*
X61190476Y-8215295D02*
X61238095Y-8120057D01*
X61238095Y-8120057D02*
X61285714Y-8072438D01*
X61285714Y-8072438D02*
X61380952Y-8024819D01*
X61380952Y-8024819D02*
X61571428Y-8024819D01*
X61571428Y-8024819D02*
X61666666Y-8072438D01*
X61666666Y-8072438D02*
X61714285Y-8120057D01*
X61714285Y-8120057D02*
X61761904Y-8215295D01*
X61761904Y-8215295D02*
X61761904Y-8262914D01*
X61761904Y-8262914D02*
X61714285Y-8358152D01*
X61714285Y-8358152D02*
X61666666Y-8405771D01*
X61666666Y-8405771D02*
X61571428Y-8453390D01*
X61571428Y-8453390D02*
X61380952Y-8453390D01*
X61380952Y-8453390D02*
X61285714Y-8501009D01*
X61285714Y-8501009D02*
X61238095Y-8548628D01*
X61238095Y-8548628D02*
X61190476Y-8643866D01*
X61190476Y-8643866D02*
X61190476Y-8834342D01*
X61190476Y-8834342D02*
X61238095Y-8929580D01*
X61238095Y-8929580D02*
X61285714Y-8977200D01*
X61285714Y-8977200D02*
X61380952Y-9024819D01*
X61380952Y-9024819D02*
X61571428Y-9024819D01*
X61571428Y-9024819D02*
X61666666Y-8977200D01*
X61666666Y-8977200D02*
X61714285Y-8929580D01*
X61714285Y-8929580D02*
X61761904Y-8834342D01*
X61761904Y-8834342D02*
X61761904Y-8643866D01*
X61761904Y-8643866D02*
X61714285Y-8548628D01*
X61714285Y-8548628D02*
X61666666Y-8501009D01*
X61666666Y-8501009D02*
X61571428Y-8453390D01*
X41833333Y-21524819D02*
X41500000Y-21048628D01*
X41261905Y-21524819D02*
X41261905Y-20524819D01*
X41261905Y-20524819D02*
X41642857Y-20524819D01*
X41642857Y-20524819D02*
X41738095Y-20572438D01*
X41738095Y-20572438D02*
X41785714Y-20620057D01*
X41785714Y-20620057D02*
X41833333Y-20715295D01*
X41833333Y-20715295D02*
X41833333Y-20858152D01*
X41833333Y-20858152D02*
X41785714Y-20953390D01*
X41785714Y-20953390D02*
X41738095Y-21001009D01*
X41738095Y-21001009D02*
X41642857Y-21048628D01*
X41642857Y-21048628D02*
X41261905Y-21048628D01*
X42690476Y-20524819D02*
X42500000Y-20524819D01*
X42500000Y-20524819D02*
X42404762Y-20572438D01*
X42404762Y-20572438D02*
X42357143Y-20620057D01*
X42357143Y-20620057D02*
X42261905Y-20762914D01*
X42261905Y-20762914D02*
X42214286Y-20953390D01*
X42214286Y-20953390D02*
X42214286Y-21334342D01*
X42214286Y-21334342D02*
X42261905Y-21429580D01*
X42261905Y-21429580D02*
X42309524Y-21477200D01*
X42309524Y-21477200D02*
X42404762Y-21524819D01*
X42404762Y-21524819D02*
X42595238Y-21524819D01*
X42595238Y-21524819D02*
X42690476Y-21477200D01*
X42690476Y-21477200D02*
X42738095Y-21429580D01*
X42738095Y-21429580D02*
X42785714Y-21334342D01*
X42785714Y-21334342D02*
X42785714Y-21096247D01*
X42785714Y-21096247D02*
X42738095Y-21001009D01*
X42738095Y-21001009D02*
X42690476Y-20953390D01*
X42690476Y-20953390D02*
X42595238Y-20905771D01*
X42595238Y-20905771D02*
X42404762Y-20905771D01*
X42404762Y-20905771D02*
X42309524Y-20953390D01*
X42309524Y-20953390D02*
X42261905Y-21001009D01*
X42261905Y-21001009D02*
X42214286Y-21096247D01*
X18833333Y-22084819D02*
X18500000Y-21608628D01*
X18261905Y-22084819D02*
X18261905Y-21084819D01*
X18261905Y-21084819D02*
X18642857Y-21084819D01*
X18642857Y-21084819D02*
X18738095Y-21132438D01*
X18738095Y-21132438D02*
X18785714Y-21180057D01*
X18785714Y-21180057D02*
X18833333Y-21275295D01*
X18833333Y-21275295D02*
X18833333Y-21418152D01*
X18833333Y-21418152D02*
X18785714Y-21513390D01*
X18785714Y-21513390D02*
X18738095Y-21561009D01*
X18738095Y-21561009D02*
X18642857Y-21608628D01*
X18642857Y-21608628D02*
X18261905Y-21608628D01*
X19404762Y-21513390D02*
X19309524Y-21465771D01*
X19309524Y-21465771D02*
X19261905Y-21418152D01*
X19261905Y-21418152D02*
X19214286Y-21322914D01*
X19214286Y-21322914D02*
X19214286Y-21275295D01*
X19214286Y-21275295D02*
X19261905Y-21180057D01*
X19261905Y-21180057D02*
X19309524Y-21132438D01*
X19309524Y-21132438D02*
X19404762Y-21084819D01*
X19404762Y-21084819D02*
X19595238Y-21084819D01*
X19595238Y-21084819D02*
X19690476Y-21132438D01*
X19690476Y-21132438D02*
X19738095Y-21180057D01*
X19738095Y-21180057D02*
X19785714Y-21275295D01*
X19785714Y-21275295D02*
X19785714Y-21322914D01*
X19785714Y-21322914D02*
X19738095Y-21418152D01*
X19738095Y-21418152D02*
X19690476Y-21465771D01*
X19690476Y-21465771D02*
X19595238Y-21513390D01*
X19595238Y-21513390D02*
X19404762Y-21513390D01*
X19404762Y-21513390D02*
X19309524Y-21561009D01*
X19309524Y-21561009D02*
X19261905Y-21608628D01*
X19261905Y-21608628D02*
X19214286Y-21703866D01*
X19214286Y-21703866D02*
X19214286Y-21894342D01*
X19214286Y-21894342D02*
X19261905Y-21989580D01*
X19261905Y-21989580D02*
X19309524Y-22037200D01*
X19309524Y-22037200D02*
X19404762Y-22084819D01*
X19404762Y-22084819D02*
X19595238Y-22084819D01*
X19595238Y-22084819D02*
X19690476Y-22037200D01*
X19690476Y-22037200D02*
X19738095Y-21989580D01*
X19738095Y-21989580D02*
X19785714Y-21894342D01*
X19785714Y-21894342D02*
X19785714Y-21703866D01*
X19785714Y-21703866D02*
X19738095Y-21608628D01*
X19738095Y-21608628D02*
X19690476Y-21561009D01*
X19690476Y-21561009D02*
X19595238Y-21513390D01*
%TO.C,SW1*%
D14*
X23950000Y-42200000D02*
X30050000Y-42200000D01*
X23950000Y-45800000D02*
X30050000Y-45800000D01*
%TO.C,C9*%
D15*
X15859420Y-12490000D02*
X16140580Y-12490000D01*
X15859420Y-13510000D02*
X16140580Y-13510000D01*
%TO.C,F2*%
X3397936Y-13090000D02*
X4602064Y-13090000D01*
X3397936Y-14910000D02*
X4602064Y-14910000D01*
%TO.C,C3*%
X49859420Y-13490000D02*
X50140580Y-13490000D01*
X49859420Y-14510000D02*
X50140580Y-14510000D01*
%TO.C,R36*%
X7977500Y-37237258D02*
X7977500Y-36762742D01*
X9022500Y-37237258D02*
X9022500Y-36762742D01*
%TO.C,Q1*%
X11240000Y-35440000D02*
X12760000Y-35440000D01*
X11240000Y-35490000D02*
X11240000Y-35440000D01*
X11240000Y-37390000D02*
X11240000Y-36610000D01*
X11240000Y-38560000D02*
X11240000Y-38510000D01*
X12760000Y-35440000D02*
X12760000Y-36440000D01*
X12760000Y-37560000D02*
X12760000Y-38560000D01*
X12760000Y-38560000D02*
X11240000Y-38560000D01*
X10700000Y-36620000D02*
X10940000Y-36950000D01*
X10460000Y-36950000D01*
X10700000Y-36620000D01*
G36*
X10940000Y-36950000D02*
G01*
X10460000Y-36950000D01*
X10700000Y-36620000D01*
X10940000Y-36950000D01*
G37*
%TO.C,R23*%
X41346359Y-13120000D02*
X41653641Y-13120000D01*
X41346359Y-13880000D02*
X41653641Y-13880000D01*
%TO.C,R21*%
X35846359Y-33620000D02*
X36153641Y-33620000D01*
X35846359Y-34380000D02*
X36153641Y-34380000D01*
%TO.C,R35*%
X45262742Y-17977500D02*
X45737258Y-17977500D01*
X45262742Y-19022500D02*
X45737258Y-19022500D01*
%TO.C,D8*%
X19485000Y-31735000D02*
X19485000Y-30265000D01*
X19485000Y-30265000D02*
X17200000Y-30265000D01*
X17200000Y-31735000D02*
X19485000Y-31735000D01*
%TO.C,Q5*%
X64240000Y-46440000D02*
X64240000Y-46490000D01*
X64240000Y-47610000D02*
X64240000Y-48390000D01*
X64240000Y-49510000D02*
X64240000Y-49560000D01*
X64240000Y-49560000D02*
X65760000Y-49560000D01*
X65760000Y-46440000D02*
X64240000Y-46440000D01*
X65760000Y-47440000D02*
X65760000Y-46440000D01*
X65760000Y-49560000D02*
X65760000Y-48560000D01*
X63700000Y-48380000D02*
X63940000Y-48050000D01*
X63460000Y-48050000D01*
X63700000Y-48380000D01*
G36*
X63700000Y-48380000D02*
G01*
X63460000Y-48050000D01*
X63940000Y-48050000D01*
X63700000Y-48380000D01*
G37*
%TO.C,TP3*%
X56600000Y-51000000D02*
G75*
G02*
X54200000Y-51000000I-1200000J0D01*
G01*
X54200000Y-51000000D02*
G75*
G02*
X56600000Y-51000000I1200000J0D01*
G01*
%TO.C,R16*%
X56522500Y-2762742D02*
X56522500Y-3237258D01*
X55477500Y-2762742D02*
X55477500Y-3237258D01*
%TO.C,R11*%
X16762742Y-36477500D02*
X17237258Y-36477500D01*
X16762742Y-37522500D02*
X17237258Y-37522500D01*
%TO.C,R3*%
X18762742Y-11777500D02*
X19237258Y-11777500D01*
X18762742Y-12822500D02*
X19237258Y-12822500D01*
%TO.C,Q2*%
X20740000Y-35440000D02*
X22260000Y-35440000D01*
X20740000Y-35490000D02*
X20740000Y-35440000D01*
X20740000Y-37390000D02*
X20740000Y-36610000D01*
X20740000Y-38560000D02*
X20740000Y-38510000D01*
X22260000Y-35440000D02*
X22260000Y-36440000D01*
X22260000Y-37560000D02*
X22260000Y-38560000D01*
X22260000Y-38560000D02*
X20740000Y-38560000D01*
X20200000Y-36620000D02*
X20440000Y-36950000D01*
X19960000Y-36950000D01*
X20200000Y-36620000D01*
G36*
X20440000Y-36950000D02*
G01*
X19960000Y-36950000D01*
X20200000Y-36620000D01*
X20440000Y-36950000D01*
G37*
%TO.C,C18*%
X55359420Y-9990000D02*
X55640580Y-9990000D01*
X55359420Y-11010000D02*
X55640580Y-11010000D01*
%TO.C,C8*%
X16359420Y-27990000D02*
X16640580Y-27990000D01*
X16359420Y-29010000D02*
X16640580Y-29010000D01*
%TO.C,R25*%
X43846359Y-29620000D02*
X44153641Y-29620000D01*
X43846359Y-30380000D02*
X44153641Y-30380000D01*
%TO.C,C7*%
X15738748Y-15265000D02*
X16261252Y-15265000D01*
X15738748Y-16735000D02*
X16261252Y-16735000D01*
%TO.C,R13*%
X16762742Y-33477500D02*
X17237258Y-33477500D01*
X16762742Y-34522500D02*
X17237258Y-34522500D01*
%TO.C,C6*%
X47859420Y-36490000D02*
X48140580Y-36490000D01*
X47859420Y-37510000D02*
X48140580Y-37510000D01*
%TO.C,U6*%
X56840000Y-6350000D02*
X56840000Y-7400000D01*
X59160000Y-6350000D02*
X59160000Y-7650000D01*
X56840000Y-7760000D02*
X56840000Y-8040000D01*
X56560000Y-7760000D01*
X56840000Y-7760000D01*
G36*
X56840000Y-8040000D02*
G01*
X56560000Y-7760000D01*
X56840000Y-7760000D01*
X56840000Y-8040000D01*
G37*
%TO.C,R40*%
X64762742Y-51477500D02*
X65237258Y-51477500D01*
X64762742Y-52522500D02*
X65237258Y-52522500D01*
%TO.C,R5*%
X42762742Y-24477500D02*
X43237258Y-24477500D01*
X42762742Y-25522500D02*
X43237258Y-25522500D01*
%TO.C,R22*%
X29846359Y-31120000D02*
X30153641Y-31120000D01*
X29846359Y-31880000D02*
X30153641Y-31880000D01*
%TO.C,R42*%
X20762742Y-30477500D02*
X21237258Y-30477500D01*
X20762742Y-31522500D02*
X21237258Y-31522500D01*
%TO.C,R14*%
X33762742Y-37477500D02*
X34237258Y-37477500D01*
X33762742Y-38522500D02*
X34237258Y-38522500D01*
%TO.C,J2*%
D14*
X32650000Y-45200000D02*
X34000000Y-45200000D01*
D16*
X32650000Y-62000000D02*
X45750000Y-62000000D01*
D14*
X44400000Y-45200000D02*
X45750000Y-45200000D01*
%TO.C,C13*%
D15*
X5288748Y-26090000D02*
X6711252Y-26090000D01*
X5288748Y-27910000D02*
X6711252Y-27910000D01*
%TO.C,R38*%
X24977500Y-38237258D02*
X24977500Y-37762742D01*
X26022500Y-38237258D02*
X26022500Y-37762742D01*
%TO.C,C16*%
X61859420Y-5490000D02*
X62140580Y-5490000D01*
X61859420Y-6510000D02*
X62140580Y-6510000D01*
%TO.C,R24*%
X43846359Y-26620000D02*
X44153641Y-26620000D01*
X43846359Y-27380000D02*
X44153641Y-27380000D01*
%TO.C,R17*%
X44846359Y-35620000D02*
X45153641Y-35620000D01*
X44846359Y-36380000D02*
X45153641Y-36380000D01*
%TO.C,R37*%
X20262742Y-32977500D02*
X20737258Y-32977500D01*
X20262742Y-34022500D02*
X20737258Y-34022500D01*
%TO.C,R41*%
X14762742Y-30477500D02*
X15237258Y-30477500D01*
X14762742Y-31522500D02*
X15237258Y-31522500D01*
%TO.C,D1*%
X57490000Y-16350000D02*
X57490000Y-19650000D01*
X57490000Y-16350000D02*
X63000000Y-16350000D01*
X57490000Y-19650000D02*
X63000000Y-19650000D01*
%TO.C,C17*%
X63859420Y-7490000D02*
X64140580Y-7490000D01*
X63859420Y-8510000D02*
X64140580Y-8510000D01*
%TO.C,Q4*%
X59240000Y-46440000D02*
X59240000Y-46490000D01*
X59240000Y-47610000D02*
X59240000Y-48390000D01*
X59240000Y-49510000D02*
X59240000Y-49560000D01*
X59240000Y-49560000D02*
X60760000Y-49560000D01*
X60760000Y-46440000D02*
X59240000Y-46440000D01*
X60760000Y-47440000D02*
X60760000Y-46440000D01*
X60760000Y-49560000D02*
X60760000Y-48560000D01*
X58700000Y-48380000D02*
X58940000Y-48050000D01*
X58460000Y-48050000D01*
X58700000Y-48380000D01*
G36*
X58700000Y-48380000D02*
G01*
X58460000Y-48050000D01*
X58940000Y-48050000D01*
X58700000Y-48380000D01*
G37*
%TO.C,C4*%
X53738748Y-17265000D02*
X54261252Y-17265000D01*
X53738748Y-18735000D02*
X54261252Y-18735000D01*
%TO.C,D5*%
X8350000Y-40450000D02*
X8550000Y-40450000D01*
X8350000Y-41000000D02*
X8350000Y-40450000D01*
X9650000Y-40450000D02*
X9450000Y-40450000D01*
X9650000Y-41000000D02*
X9650000Y-40450000D01*
X8240000Y-41430000D02*
X8240000Y-41710000D01*
X7960000Y-41430000D01*
X8240000Y-41430000D01*
G36*
X8240000Y-41710000D02*
G01*
X7960000Y-41430000D01*
X8240000Y-41430000D01*
X8240000Y-41710000D01*
G37*
%TO.C,U2*%
X48940000Y-23940000D02*
X53060000Y-23940000D01*
X48940000Y-23995000D02*
X48940000Y-23940000D01*
X48940000Y-34060000D02*
X48940000Y-34005000D01*
X53060000Y-23940000D02*
X53060000Y-23995000D01*
X53060000Y-34005000D02*
X53060000Y-34060000D01*
X53060000Y-34060000D02*
X48940000Y-34060000D01*
X48400000Y-23990000D02*
X48160000Y-23660000D01*
X48640000Y-23660000D01*
X48400000Y-23990000D01*
G36*
X48400000Y-23990000D02*
G01*
X48160000Y-23660000D01*
X48640000Y-23660000D01*
X48400000Y-23990000D01*
G37*
%TO.C,D7*%
X36350000Y-42450000D02*
X36550000Y-42450000D01*
X36350000Y-43000000D02*
X36350000Y-42450000D01*
X37650000Y-42450000D02*
X37450000Y-42450000D01*
X37650000Y-43000000D02*
X37650000Y-42450000D01*
X36240000Y-43430000D02*
X36240000Y-43710000D01*
X35960000Y-43430000D01*
X36240000Y-43430000D01*
G36*
X36240000Y-43710000D02*
G01*
X35960000Y-43430000D01*
X36240000Y-43430000D01*
X36240000Y-43710000D01*
G37*
%TO.C,C15*%
X61738748Y-2265000D02*
X62261252Y-2265000D01*
X61738748Y-3735000D02*
X62261252Y-3735000D01*
%TO.C,R12*%
X8762742Y-33477500D02*
X9237258Y-33477500D01*
X8762742Y-34522500D02*
X9237258Y-34522500D01*
%TO.C,C11*%
X4859420Y-21490000D02*
X5140580Y-21490000D01*
X4859420Y-22510000D02*
X5140580Y-22510000D01*
%TO.C,R19*%
X63762742Y-10477500D02*
X64237258Y-10477500D01*
X63762742Y-11522500D02*
X64237258Y-11522500D01*
%TO.C,R9*%
X19237258Y-19122500D02*
X18762742Y-19122500D01*
X19237258Y-18077500D02*
X18762742Y-18077500D01*
%TO.C,C12*%
X10859420Y-14490000D02*
X11140580Y-14490000D01*
X10859420Y-15510000D02*
X11140580Y-15510000D01*
%TO.C,C10*%
X9288748Y-9090000D02*
X10711252Y-9090000D01*
X9288748Y-10910000D02*
X10711252Y-10910000D01*
%TO.C,R10*%
X23762742Y-33477500D02*
X24237258Y-33477500D01*
X23762742Y-34522500D02*
X24237258Y-34522500D01*
%TO.C,D9*%
X25485000Y-31735000D02*
X25485000Y-30265000D01*
X25485000Y-30265000D02*
X23200000Y-30265000D01*
X23200000Y-31735000D02*
X25485000Y-31735000D01*
%TO.C,R4*%
X41762742Y-31477500D02*
X42237258Y-31477500D01*
X41762742Y-32522500D02*
X42237258Y-32522500D01*
%TO.C,J5*%
X7090000Y-16440000D02*
X8910000Y-16440000D01*
X7090000Y-16490000D02*
X7090000Y-16440000D01*
X7090000Y-19560000D02*
X7090000Y-19510000D01*
X8910000Y-16440000D02*
X8910000Y-16490000D01*
X8910000Y-19510000D02*
X8910000Y-19560000D01*
X8910000Y-19560000D02*
X7090000Y-19560000D01*
X6550000Y-16490000D02*
X6310000Y-16160000D01*
X6790000Y-16160000D01*
X6550000Y-16490000D01*
G36*
X6550000Y-16490000D02*
G01*
X6310000Y-16160000D01*
X6790000Y-16160000D01*
X6550000Y-16490000D01*
G37*
%TO.C,R2*%
X62846359Y-37620000D02*
X63153641Y-37620000D01*
X62846359Y-38380000D02*
X63153641Y-38380000D01*
%TO.C,TP1*%
X50200000Y-51000000D02*
G75*
G02*
X47800000Y-51000000I-1200000J0D01*
G01*
X47800000Y-51000000D02*
G75*
G02*
X50200000Y-51000000I1200000J0D01*
G01*
%TO.C,F1*%
X61397936Y-21090000D02*
X62602064Y-21090000D01*
X61397936Y-22910000D02*
X62602064Y-22910000D01*
%TO.C,D2*%
X490000Y-4350000D02*
X490000Y-7650000D01*
X490000Y-4350000D02*
X6000000Y-4350000D01*
X490000Y-7650000D02*
X6000000Y-7650000D01*
%TO.C,R7*%
X29762742Y-33477500D02*
X30237258Y-33477500D01*
X29762742Y-34522500D02*
X30237258Y-34522500D01*
%TO.C,L1*%
X10890000Y-17890000D02*
X15110000Y-17890000D01*
X15110000Y-22110000D02*
X10890000Y-22110000D01*
%TO.C,D4*%
X55350000Y-28450000D02*
X55550000Y-28450000D01*
X55350000Y-29000000D02*
X55350000Y-28450000D01*
X56650000Y-28450000D02*
X56450000Y-28450000D01*
X56650000Y-29000000D02*
X56650000Y-28450000D01*
X55240000Y-29430000D02*
X55240000Y-29710000D01*
X54960000Y-29430000D01*
X55240000Y-29430000D01*
G36*
X55240000Y-29710000D02*
G01*
X54960000Y-29430000D01*
X55240000Y-29430000D01*
X55240000Y-29710000D01*
G37*
%TO.C,C2*%
X61859420Y-13490000D02*
X62140580Y-13490000D01*
X61859420Y-14510000D02*
X62140580Y-14510000D01*
%TO.C,R1*%
X58846359Y-37620000D02*
X59153641Y-37620000D01*
X58846359Y-38380000D02*
X59153641Y-38380000D01*
%TO.C,J3*%
X61600000Y-33700000D02*
X63600000Y-33700000D01*
X65500000Y-33700000D02*
X67400000Y-33700000D01*
X67400000Y-33700000D02*
X67400000Y-24300000D01*
X61600000Y-24300000D02*
X63600000Y-24300000D01*
X65500000Y-24300000D02*
X67400000Y-24300000D01*
%TO.C,R15*%
X38762742Y-37477500D02*
X39237258Y-37477500D01*
X38762742Y-38522500D02*
X39237258Y-38522500D01*
%TO.C,SW2*%
D14*
X52950000Y-42200000D02*
X59050000Y-42200000D01*
X52950000Y-45800000D02*
X59050000Y-45800000D01*
%TO.C,C5*%
D15*
X51859420Y-36490000D02*
X52140580Y-36490000D01*
X51859420Y-37510000D02*
X52140580Y-37510000D01*
%TO.C,C14*%
X10288748Y-26090000D02*
X11711252Y-26090000D01*
X10288748Y-27910000D02*
X11711252Y-27910000D01*
%TO.C,U4*%
X53090000Y-12440000D02*
X54910000Y-12440000D01*
X53090000Y-12490000D02*
X53090000Y-12440000D01*
X53090000Y-15560000D02*
X53090000Y-15510000D01*
X54910000Y-12440000D02*
X54910000Y-12490000D01*
X54910000Y-13610000D02*
X54910000Y-14390000D01*
X54910000Y-15510000D02*
X54910000Y-15560000D01*
X54910000Y-15560000D02*
X53090000Y-15560000D01*
X52550000Y-12490000D02*
X52310000Y-12160000D01*
X52790000Y-12160000D01*
X52550000Y-12490000D01*
G36*
X52550000Y-12490000D02*
G01*
X52310000Y-12160000D01*
X52790000Y-12160000D01*
X52550000Y-12490000D01*
G37*
%TO.C,D3*%
X19390000Y-40150000D02*
X19390000Y-41850000D01*
X19390000Y-40150000D02*
X22050000Y-40150000D01*
X19390000Y-41850000D02*
X22050000Y-41850000D01*
%TO.C,U1*%
X21300000Y-27950000D02*
X21300000Y-27000000D01*
X22700000Y-27950000D02*
X21300000Y-27950000D01*
X38300000Y-27950000D02*
X39700000Y-27950000D01*
X39700000Y-27950000D02*
X39700000Y-27000000D01*
X21300000Y-9000000D02*
X20800000Y-9000000D01*
X21300000Y-8500000D01*
X21300000Y-9000000D01*
G36*
X21300000Y-9000000D02*
G01*
X20800000Y-9000000D01*
X21300000Y-8500000D01*
X21300000Y-9000000D01*
G37*
%TO.C,R32*%
X10762742Y-30477500D02*
X11237258Y-30477500D01*
X10762742Y-31522500D02*
X11237258Y-31522500D01*
%TO.C,D6*%
X14350000Y-40450000D02*
X14550000Y-40450000D01*
X14350000Y-41000000D02*
X14350000Y-40450000D01*
X15650000Y-40450000D02*
X15450000Y-40450000D01*
X15650000Y-41000000D02*
X15650000Y-40450000D01*
X14240000Y-41430000D02*
X14240000Y-41710000D01*
X13960000Y-41430000D01*
X14240000Y-41430000D01*
G36*
X14240000Y-41710000D02*
G01*
X13960000Y-41430000D01*
X14240000Y-41430000D01*
X14240000Y-41710000D01*
G37*
%TO.C,J1*%
D14*
X7450000Y-45200000D02*
X8800000Y-45200000D01*
D16*
X7450000Y-62000000D02*
X20550000Y-62000000D01*
D14*
X19200000Y-45200000D02*
X20550000Y-45200000D01*
%TO.C,TP2*%
D15*
X53400000Y-51000000D02*
G75*
G02*
X51000000Y-51000000I-1200000J0D01*
G01*
X51000000Y-51000000D02*
G75*
G02*
X53400000Y-51000000I1200000J0D01*
G01*
%TO.C,R39*%
X59762742Y-51477500D02*
X60237258Y-51477500D01*
X59762742Y-52522500D02*
X60237258Y-52522500D01*
%TO.C,C1*%
X57738748Y-13265000D02*
X58261252Y-13265000D01*
X57738748Y-14735000D02*
X58261252Y-14735000D01*
%TO.C,R18*%
X60262742Y-9477500D02*
X60737258Y-9477500D01*
X60262742Y-10522500D02*
X60737258Y-10522500D01*
%TO.C,R6*%
X41762742Y-21977500D02*
X42237258Y-21977500D01*
X41762742Y-23022500D02*
X42237258Y-23022500D01*
%TO.C,R8*%
X19237258Y-20722500D02*
X18762742Y-20722500D01*
X19237258Y-19677500D02*
X18762742Y-19677500D01*
%TD*%
%LPC*%
D17*
%TO.C,SW1*%
X23050000Y-44000000D03*
X30950000Y-44000000D03*
%TD*%
D18*
%TO.C,C9*%
X15225000Y-13000000D03*
X16775000Y-13000000D03*
%TD*%
D19*
%TO.C,F2*%
X2600000Y-14000000D03*
X5400000Y-14000000D03*
%TD*%
D18*
%TO.C,C3*%
X49225000Y-14000000D03*
X50775000Y-14000000D03*
%TD*%
D20*
%TO.C,R36*%
X8500000Y-37825000D03*
X8500000Y-36175000D03*
%TD*%
D21*
%TO.C,Q1*%
X11062500Y-36050000D03*
X11062500Y-37950000D03*
X12937500Y-37000000D03*
%TD*%
D22*
%TO.C,R23*%
X40990000Y-13500000D03*
X42010000Y-13500000D03*
%TD*%
%TO.C,R21*%
X35490000Y-34000000D03*
X36510000Y-34000000D03*
%TD*%
D23*
%TO.C,R35*%
X44675000Y-18500000D03*
X46325000Y-18500000D03*
%TD*%
D24*
%TO.C,D8*%
X18787500Y-31000000D03*
X17212500Y-31000000D03*
%TD*%
D21*
%TO.C,Q5*%
X64062500Y-48950000D03*
X64062500Y-47050000D03*
X65937500Y-48000000D03*
%TD*%
D25*
%TO.C,TP3*%
X55400000Y-51000000D03*
%TD*%
D26*
%TO.C,R16*%
X56000000Y-2175000D03*
X56000000Y-3825000D03*
%TD*%
D23*
%TO.C,R11*%
X16175000Y-37000000D03*
X17825000Y-37000000D03*
%TD*%
%TO.C,R3*%
X18175000Y-12300000D03*
X19825000Y-12300000D03*
%TD*%
D21*
%TO.C,Q2*%
X20562500Y-36050000D03*
X20562500Y-37950000D03*
X22437500Y-37000000D03*
%TD*%
D18*
%TO.C,C18*%
X54725000Y-10500000D03*
X56275000Y-10500000D03*
%TD*%
%TO.C,C8*%
X15725000Y-28500000D03*
X17275000Y-28500000D03*
%TD*%
D22*
%TO.C,R25*%
X43490000Y-30000000D03*
X44510000Y-30000000D03*
%TD*%
D27*
%TO.C,C7*%
X15050000Y-16000000D03*
X16950000Y-16000000D03*
%TD*%
D23*
%TO.C,R13*%
X16175000Y-34000000D03*
X17825000Y-34000000D03*
%TD*%
D18*
%TO.C,C6*%
X47225000Y-37000000D03*
X48775000Y-37000000D03*
%TD*%
D28*
%TO.C,U6*%
X57250000Y-7740000D03*
X57750000Y-7740000D03*
X58250000Y-7740000D03*
X58750000Y-7740000D03*
X58750000Y-6260000D03*
X58250000Y-6260000D03*
X57750000Y-6260000D03*
X57250000Y-6260000D03*
%TD*%
D23*
%TO.C,R40*%
X64175000Y-52000000D03*
X65825000Y-52000000D03*
%TD*%
%TO.C,R5*%
X42175000Y-25000000D03*
X43825000Y-25000000D03*
%TD*%
D22*
%TO.C,R22*%
X29490000Y-31500000D03*
X30510000Y-31500000D03*
%TD*%
D23*
%TO.C,R42*%
X20175000Y-31000000D03*
X21825000Y-31000000D03*
%TD*%
%TO.C,R14*%
X33175000Y-38000000D03*
X34825000Y-38000000D03*
%TD*%
D29*
%TO.C,J2*%
X35700000Y-48200000D03*
X38200000Y-48200000D03*
X40200000Y-48200000D03*
X42700000Y-48200000D03*
X43200000Y-46700000D03*
X41200000Y-46700000D03*
D30*
X32800000Y-50300000D03*
D29*
X39200000Y-46700000D03*
D30*
X45600000Y-50300000D03*
D29*
X37200000Y-46700000D03*
X35200000Y-46700000D03*
%TD*%
D31*
%TO.C,C13*%
X4525000Y-27000000D03*
X7475000Y-27000000D03*
%TD*%
D20*
%TO.C,R38*%
X25500000Y-38825000D03*
X25500000Y-37175000D03*
%TD*%
D18*
%TO.C,C16*%
X61225000Y-6000000D03*
X62775000Y-6000000D03*
%TD*%
D22*
%TO.C,R24*%
X43490000Y-27000000D03*
X44510000Y-27000000D03*
%TD*%
%TO.C,R17*%
X44490000Y-36000000D03*
X45510000Y-36000000D03*
%TD*%
D23*
%TO.C,R37*%
X19675000Y-33500000D03*
X21325000Y-33500000D03*
%TD*%
%TO.C,R41*%
X14175000Y-31000000D03*
X15825000Y-31000000D03*
%TD*%
D32*
%TO.C,D1*%
X59000000Y-18000000D03*
X63000000Y-18000000D03*
%TD*%
D18*
%TO.C,C17*%
X63225000Y-8000000D03*
X64775000Y-8000000D03*
%TD*%
D21*
%TO.C,Q4*%
X59062500Y-48950000D03*
X59062500Y-47050000D03*
X60937500Y-48000000D03*
%TD*%
D27*
%TO.C,C4*%
X53050000Y-18000000D03*
X54950000Y-18000000D03*
%TD*%
D33*
%TO.C,D5*%
X8650000Y-41425000D03*
X9350000Y-41425000D03*
X9000000Y-40575000D03*
%TD*%
D34*
%TO.C,U2*%
X48525000Y-24555000D03*
X48525000Y-25825000D03*
X48525000Y-27095000D03*
X48525000Y-28365000D03*
X48525000Y-29635000D03*
X48525000Y-30905000D03*
X48525000Y-32175000D03*
X48525000Y-33445000D03*
X53475000Y-33445000D03*
X53475000Y-32175000D03*
X53475000Y-30905000D03*
X53475000Y-29635000D03*
X53475000Y-28365000D03*
X53475000Y-27095000D03*
X53475000Y-25825000D03*
X53475000Y-24555000D03*
%TD*%
D33*
%TO.C,D7*%
X36650000Y-43425000D03*
X37350000Y-43425000D03*
X37000000Y-42575000D03*
%TD*%
D27*
%TO.C,C15*%
X61050000Y-3000000D03*
X62950000Y-3000000D03*
%TD*%
D23*
%TO.C,R12*%
X8175000Y-34000000D03*
X9825000Y-34000000D03*
%TD*%
D18*
%TO.C,C11*%
X4225000Y-22000000D03*
X5775000Y-22000000D03*
%TD*%
D23*
%TO.C,R19*%
X63175000Y-11000000D03*
X64825000Y-11000000D03*
%TD*%
D35*
%TO.C,R9*%
X19825000Y-18600000D03*
X18175000Y-18600000D03*
%TD*%
D18*
%TO.C,C12*%
X10225000Y-15000000D03*
X11775000Y-15000000D03*
%TD*%
D31*
%TO.C,C10*%
X8525000Y-10000000D03*
X11475000Y-10000000D03*
%TD*%
D23*
%TO.C,R10*%
X23175000Y-34000000D03*
X24825000Y-34000000D03*
%TD*%
D24*
%TO.C,D9*%
X24787500Y-31000000D03*
X23212500Y-31000000D03*
%TD*%
D23*
%TO.C,R4*%
X41175000Y-32000000D03*
X42825000Y-32000000D03*
%TD*%
D36*
%TO.C,J5*%
X6862500Y-17050000D03*
X6862500Y-18000000D03*
X6862500Y-18950000D03*
X9137500Y-18950000D03*
X9137500Y-18000000D03*
X9137500Y-17050000D03*
%TD*%
D22*
%TO.C,R2*%
X62490000Y-38000000D03*
X63510000Y-38000000D03*
%TD*%
D25*
%TO.C,TP1*%
X49000000Y-51000000D03*
%TD*%
D19*
%TO.C,F1*%
X60600000Y-22000000D03*
X63400000Y-22000000D03*
%TD*%
D32*
%TO.C,D2*%
X2000000Y-6000000D03*
X6000000Y-6000000D03*
%TD*%
D23*
%TO.C,R7*%
X29175000Y-34000000D03*
X30825000Y-34000000D03*
%TD*%
D37*
%TO.C,L1*%
X11500000Y-20000000D03*
X14500000Y-20000000D03*
%TD*%
D33*
%TO.C,D4*%
X55650000Y-29425000D03*
X56350000Y-29425000D03*
X56000000Y-28575000D03*
%TD*%
D18*
%TO.C,C2*%
X61225000Y-14000000D03*
X62775000Y-14000000D03*
%TD*%
D22*
%TO.C,R1*%
X58490000Y-38000000D03*
X59510000Y-38000000D03*
%TD*%
D38*
%TO.C,J3*%
X60900000Y-31890000D03*
X60900000Y-26110000D03*
D39*
X59455000Y-32250000D03*
X59455000Y-31450000D03*
D40*
X59455000Y-30250000D03*
X59455000Y-29250000D03*
X59455000Y-28750000D03*
X59455000Y-27750000D03*
D39*
X59455000Y-26550000D03*
X59455000Y-25750000D03*
X59455000Y-25750000D03*
X59455000Y-26550000D03*
D40*
X59455000Y-27250000D03*
X59455000Y-28250000D03*
X59455000Y-29750000D03*
X59455000Y-30750000D03*
D39*
X59455000Y-31450000D03*
X59455000Y-32250000D03*
D41*
X60370000Y-33320000D03*
D42*
X64550000Y-33320000D03*
D41*
X60370000Y-24680000D03*
D42*
X64550000Y-24680000D03*
%TD*%
D23*
%TO.C,R15*%
X38175000Y-38000000D03*
X39825000Y-38000000D03*
%TD*%
D17*
%TO.C,SW2*%
X52050000Y-44000000D03*
X59950000Y-44000000D03*
%TD*%
D18*
%TO.C,C5*%
X51225000Y-37000000D03*
X52775000Y-37000000D03*
%TD*%
D31*
%TO.C,C14*%
X9525000Y-27000000D03*
X12475000Y-27000000D03*
%TD*%
D36*
%TO.C,U4*%
X52862500Y-13050000D03*
X52862500Y-14000000D03*
X52862500Y-14950000D03*
X55137500Y-14950000D03*
X55137500Y-13050000D03*
%TD*%
D43*
%TO.C,D3*%
X19950000Y-41000000D03*
X22050000Y-41000000D03*
%TD*%
D44*
%TO.C,U1*%
X21750000Y-9740000D03*
X21750000Y-11010000D03*
X21750000Y-12280000D03*
X21750000Y-13550000D03*
X21750000Y-14820000D03*
X21750000Y-16090000D03*
X21750000Y-17360000D03*
X21750000Y-18630000D03*
X21750000Y-19900000D03*
X21750000Y-21170000D03*
X21750000Y-22440000D03*
X21750000Y-23710000D03*
X21750000Y-24980000D03*
X21750000Y-26250000D03*
D45*
X24785000Y-27500000D03*
X26055000Y-27500000D03*
X27325000Y-27500000D03*
X28595000Y-27500000D03*
X29865000Y-27500000D03*
X31135000Y-27500000D03*
X32405000Y-27500000D03*
X33675000Y-27500000D03*
X34945000Y-27500000D03*
X36215000Y-27500000D03*
D44*
X39250000Y-26250000D03*
X39250000Y-24980000D03*
X39250000Y-23710000D03*
X39250000Y-22440000D03*
X39250000Y-21170000D03*
X39250000Y-19900000D03*
X39250000Y-18630000D03*
X39250000Y-17360000D03*
X39250000Y-16090000D03*
X39250000Y-14820000D03*
X39250000Y-13550000D03*
X39250000Y-12280000D03*
X39250000Y-11010000D03*
X39250000Y-9740000D03*
D46*
X27600000Y-16060000D03*
D47*
X27600000Y-16760000D03*
D46*
X27600000Y-17460000D03*
D47*
X27600000Y-18160000D03*
D46*
X27600000Y-18860000D03*
D47*
X28300000Y-16060000D03*
X28300000Y-17460000D03*
X28300000Y-18860000D03*
D46*
X29000000Y-16060000D03*
D47*
X29000000Y-16760000D03*
D46*
X29000000Y-17460000D03*
D47*
X29000000Y-18160000D03*
D46*
X29000000Y-18860000D03*
D47*
X29700000Y-16060000D03*
X29700000Y-17460000D03*
X29700000Y-18860000D03*
D46*
X30400000Y-16060000D03*
D47*
X30400000Y-16760000D03*
D46*
X30400000Y-17460000D03*
D47*
X30400000Y-18160000D03*
D46*
X30400000Y-18860000D03*
%TD*%
D23*
%TO.C,R32*%
X10175000Y-31000000D03*
X11825000Y-31000000D03*
%TD*%
D33*
%TO.C,D6*%
X14650000Y-41425000D03*
X15350000Y-41425000D03*
X15000000Y-40575000D03*
%TD*%
D29*
%TO.C,J1*%
X10500000Y-48200000D03*
X13000000Y-48200000D03*
X15000000Y-48200000D03*
D30*
X7600000Y-50300000D03*
D29*
X17500000Y-48200000D03*
D30*
X20400000Y-50300000D03*
D29*
X18000000Y-46700000D03*
X16000000Y-46700000D03*
X14000000Y-46700000D03*
X12000000Y-46700000D03*
X10000000Y-46700000D03*
%TD*%
D25*
%TO.C,TP2*%
X52200000Y-51000000D03*
%TD*%
D23*
%TO.C,R39*%
X59175000Y-52000000D03*
X60825000Y-52000000D03*
%TD*%
D27*
%TO.C,C1*%
X57050000Y-14000000D03*
X58950000Y-14000000D03*
%TD*%
D23*
%TO.C,R18*%
X59675000Y-10000000D03*
X61325000Y-10000000D03*
%TD*%
%TO.C,R6*%
X41175000Y-22500000D03*
X42825000Y-22500000D03*
%TD*%
D35*
%TO.C,R8*%
X19825000Y-20200000D03*
X18175000Y-20200000D03*
%TD*%
%LPD*%
M02*
