%TF.GenerationSoftware,KiCad,Pcbnew,10.99.0-3619-g0ef48b972f*%
%TF.CreationDate,2026-10-01T12:58:50+07:00*%
%TF.ProjectId,board,626f6172-642e-46b6-9963-61645f706362,rev?*%
%TF.SameCoordinates,Original*%
%TF.FileFunction,Soldermask,Bot*%
%TF.FilePolarity,Negative*%
%FSLAX46Y46*%
G04 Gerber Fmt 4.6, Leading zero omitted, Abs format (unit mm)*
G04 Created by KiCad (PCBNEW 10.99.0-3619-g0ef48b972f) date 2026-10-01 12:58:50*
%MOMM*%
%LPD*%
G01*
G04 APERTURE LIST*
%ADD10C,2.000000*%
%ADD11C,1.200000*%
%ADD12O,1.400000X3.100000*%
%ADD13C,0.650000*%
%ADD14O,2.100000X1.000000*%
%ADD15O,1.600000X1.000000*%
%ADD16C,0.600000*%
G04 APERTURE END LIST*
D10*
%TO.C,TP3*%
X55400000Y-51000000D03*
%TD*%
D11*
%TO.C,J2*%
X35700000Y-48200000D03*
X38200000Y-48200000D03*
X40200000Y-48200000D03*
X42700000Y-48200000D03*
X43200000Y-46700000D03*
X41200000Y-46700000D03*
D12*
X32800000Y-50300000D03*
D11*
X39200000Y-46700000D03*
D12*
X45600000Y-50300000D03*
D11*
X37200000Y-46700000D03*
X35200000Y-46700000D03*
%TD*%
D10*
%TO.C,TP1*%
X49000000Y-51000000D03*
%TD*%
D13*
%TO.C,J3*%
X60900000Y-31890000D03*
X60900000Y-26110000D03*
D14*
X60370000Y-33320000D03*
D15*
X64550000Y-33320000D03*
D14*
X60370000Y-24680000D03*
D15*
X64550000Y-24680000D03*
%TD*%
D16*
%TO.C,U1*%
X27600000Y-16760000D03*
X27600000Y-18160000D03*
X28300000Y-16060000D03*
X28300000Y-17460000D03*
X28300000Y-18860000D03*
X29000000Y-16760000D03*
X29000000Y-18160000D03*
X29700000Y-16060000D03*
X29700000Y-17460000D03*
X29700000Y-18860000D03*
X30400000Y-16760000D03*
X30400000Y-18160000D03*
%TD*%
D11*
%TO.C,J1*%
X10500000Y-48200000D03*
X13000000Y-48200000D03*
X15000000Y-48200000D03*
D12*
X7600000Y-50300000D03*
D11*
X17500000Y-48200000D03*
D12*
X20400000Y-50300000D03*
D11*
X18000000Y-46700000D03*
X16000000Y-46700000D03*
X14000000Y-46700000D03*
X12000000Y-46700000D03*
X10000000Y-46700000D03*
%TD*%
D10*
%TO.C,TP2*%
X52200000Y-51000000D03*
%TD*%
M02*
