%TF.GenerationSoftware,KiCad,Pcbnew,10.99.0-3619-g0ef48b972f*%
%TF.CreationDate,2026-10-01T12:58:50+07:00*%
%TF.ProjectId,board,626f6172-642e-46b6-9963-61645f706362,rev?*%
%TF.SameCoordinates,Original*%
%TF.FileFunction,Copper,L2,Bot*%
%TF.FilePolarity,Positive*%
%FSLAX46Y46*%
G04 Gerber Fmt 4.6, Leading zero omitted, Abs format (unit mm)*
G04 Created by KiCad (PCBNEW 10.99.0-3619-g0ef48b972f) date 2026-10-01 12:58:50*
%MOMM*%
%LPD*%
G01*
G04 APERTURE LIST*
%TA.AperFunction,ComponentPad*%
%ADD10C,2.000000*%
%TD*%
%TA.AperFunction,ComponentPad*%
%ADD11C,1.200000*%
%TD*%
%TA.AperFunction,ComponentPad*%
%ADD12O,1.400000X3.100000*%
%TD*%
%TA.AperFunction,ComponentPad*%
%ADD13O,2.100000X1.000000*%
%TD*%
%TA.AperFunction,ComponentPad*%
%ADD14O,1.600000X1.000000*%
%TD*%
%TA.AperFunction,HeatsinkPad*%
%ADD15C,0.600000*%
%TD*%
%TA.AperFunction,ViaPad*%
%ADD16C,0.900000*%
%TD*%
%TA.AperFunction,Conductor*%
%ADD17C,0.200000*%
%TD*%
%TA.AperFunction,Conductor*%
%ADD18C,0.300000*%
%TD*%
%TA.AperFunction,Conductor*%
%ADD19C,0.250000*%
%TD*%
%TA.AperFunction,Conductor*%
%ADD20C,0.400000*%
%TD*%
%TA.AperFunction,Conductor*%
%ADD21C,0.350000*%
%TD*%
G04 APERTURE END LIST*
D10*
%TO.P,TP3,1,1_1*%
%TO.N,UART_RX*%
X55400000Y-51000000D03*
%TD*%
D11*
%TO.P,J2,1,Pin_1_1*%
%TO.N,J2_TX*%
X35700000Y-48200000D03*
%TO.P,J2,2,Pin_2_2*%
%TO.N,unconnected-(J2-Pin_2-Pad2)*%
X38200000Y-48200000D03*
%TO.P,J2,3,Pin_3_3*%
%TO.N,unconnected-(J2-Pin_3-Pad3)*%
X40200000Y-48200000D03*
%TO.P,J2,4,Pin_4_4*%
%TO.N,J2_RX*%
X42700000Y-48200000D03*
%TO.P,J2,5,Pin_5_5*%
%TO.N,unconnected-(J2-Pin_5-Pad5)*%
X43200000Y-46700000D03*
%TO.P,J2,6,Pin_6_6*%
%TO.N,unconnected-(J2-Pin_6-Pad6)*%
X41200000Y-46700000D03*
D12*
%TO.P,J2,7,Pin_7_7*%
%TO.N,GND*%
X32800000Y-50300000D03*
D11*
X39200000Y-46700000D03*
D12*
X45600000Y-50300000D03*
D11*
%TO.P,J2,8,Pin_8_8*%
%TO.N,unconnected-(J2-Pin_8-Pad8)*%
X37200000Y-46700000D03*
%TO.P,J2,9,Pin_9_9*%
%TO.N,unconnected-(J2-Pin_9-Pad9)*%
X35200000Y-46700000D03*
%TD*%
D10*
%TO.P,TP1,1,1_1*%
%TO.N,GND*%
X49000000Y-51000000D03*
%TD*%
D13*
%TO.P,J3,S1,SHIELD_S1*%
%TO.N,GND*%
X60370000Y-33320000D03*
D14*
X64550000Y-33320000D03*
D13*
X60370000Y-24680000D03*
D14*
X64550000Y-24680000D03*
%TD*%
D15*
%TO.P,U1,39,GND_39*%
%TO.N,GND*%
X27600000Y-16760000D03*
X27600000Y-18160000D03*
X28300000Y-16060000D03*
X28300000Y-17460000D03*
X28300000Y-18860000D03*
X29000000Y-16760000D03*
X29000000Y-18160000D03*
X29700000Y-16060000D03*
X29700000Y-17460000D03*
X29700000Y-18860000D03*
X30400000Y-16760000D03*
X30400000Y-18160000D03*
%TD*%
D11*
%TO.P,J1,1,Pin_1_1*%
%TO.N,unconnected-(J1-Pin_1-Pad1)*%
X10500000Y-48200000D03*
%TO.P,J1,2,Pin_2_2*%
%TO.N,J1_CMD*%
X13000000Y-48200000D03*
%TO.P,J1,3,Pin_3_3*%
%TO.N,J1_CLK*%
X15000000Y-48200000D03*
D12*
%TO.P,J1,4,Pin_4_4*%
%TO.N,GND*%
X7600000Y-50300000D03*
D11*
X17500000Y-48200000D03*
D12*
X20400000Y-50300000D03*
D11*
%TO.P,J1,5,Pin_5_5*%
%TO.N,J1_ATT*%
X18000000Y-46700000D03*
%TO.P,J1,6,Pin_6_6*%
%TO.N,J1_DATA*%
X16000000Y-46700000D03*
%TO.P,J1,7,Pin_7_7*%
%TO.N,J1_ACK*%
X14000000Y-46700000D03*
%TO.P,J1,8,Pin_8_8*%
%TO.N,PS1_7V6_RAW*%
X12000000Y-46700000D03*
%TO.P,J1,9,Pin_9_9*%
%TO.N,unconnected-(J1-Pin_9-Pad9)*%
X10000000Y-46700000D03*
%TD*%
D10*
%TO.P,TP2,1,1_1*%
%TO.N,UART_TX_SERVICE*%
X52200000Y-51000000D03*
%TD*%
D16*
%TO.N,ESP_EN*%
X19450000Y-13600000D03*
X28880000Y-44000000D03*
X19450000Y-44000000D03*
X53850000Y-40800000D03*
X56500000Y-42500000D03*
X29050000Y-40800000D03*
%TO.N,GND*%
X20562500Y-37950000D03*
X8500000Y-36175000D03*
X25500000Y-37175000D03*
X16150000Y-16800000D03*
X17650000Y-38600000D03*
X16775000Y-12200000D03*
X5875000Y-8800000D03*
X20850000Y-40250000D03*
X57875000Y-15300000D03*
X44175000Y-23305000D03*
X21275000Y-28500000D03*
X11275000Y-27000000D03*
X46525000Y-21700000D03*
X9675000Y-10000000D03*
X10150000Y-18800000D03*
X12150000Y-17600000D03*
X24787500Y-31000000D03*
X16150000Y-17600000D03*
X9700000Y-37775000D03*
X16775000Y-14600000D03*
X49575000Y-36200000D03*
X54400000Y-17200000D03*
X49575000Y-37000000D03*
X57875000Y-10500000D03*
X36700000Y-55700000D03*
X18475000Y-28500000D03*
X21275000Y-27700000D03*
X59950000Y-44000000D03*
X44925000Y-24555000D03*
X18787500Y-31000000D03*
X11825000Y-31000000D03*
X44775000Y-9200000D03*
X54075000Y-13700000D03*
X54075000Y-11500000D03*
X18050000Y-40250000D03*
X9675000Y-9000000D03*
X5875000Y-7400000D03*
X20850000Y-41000000D03*
X44775000Y-12400000D03*
%TO.N,USB_5V_PROTECTED*%
X51662500Y-13050000D03*
X60425000Y-14400000D03*
X56600000Y-18000000D03*
X59975000Y-12750000D03*
X49025000Y-13200000D03*
X50625000Y-12800000D03*
X51662500Y-15050000D03*
X56600000Y-15200000D03*
%TO.N,DATA_GATE*%
X14662500Y-23250000D03*
X14662500Y-36050000D03*
%TO.N,J1_DATA*%
X10537500Y-37000000D03*
X11337500Y-35000000D03*
X10537500Y-41400000D03*
X11337500Y-37000000D03*
%TO.N,UART_TX*%
X43490000Y-15000000D03*
X43490000Y-26700000D03*
%TO.N,GPIO21_ATT*%
X35840000Y-33150000D03*
X35890000Y-18000000D03*
%TO.N,UNUSED_CH340_INPUTS*%
X52800000Y-30870000D03*
X52800000Y-33445000D03*
X52800000Y-29585000D03*
X44675000Y-18500000D03*
X52800000Y-32175000D03*
%TO.N,CH340_DTR*%
X51875000Y-28365000D03*
X57875000Y-38765000D03*
X63300000Y-45800000D03*
X58000000Y-52800000D03*
X51875000Y-38765000D03*
%TO.N,ESP_BOOT*%
X39057300Y-27076300D03*
X49225000Y-40000000D03*
X49225000Y-41600000D03*
X46025000Y-32000000D03*
X46025000Y-40000000D03*
X42191400Y-30980900D03*
%TO.N,UART_RX*%
X42655000Y-26050000D03*
X42425000Y-23600000D03*
X44313100Y-26096300D03*
%TO.N,3V3_SYS*%
X19500000Y-8900000D03*
X6325000Y-31000000D03*
X17450000Y-11050000D03*
X46000000Y-10000000D03*
X15050000Y-16000000D03*
X61225000Y-6000000D03*
X57750000Y-9300000D03*
X17500000Y-8900000D03*
X43500000Y-10000000D03*
%TO.N,GPIO34_ACK*%
X17200000Y-17600000D03*
X20175000Y-17000000D03*
X16975000Y-36200000D03*
X20600000Y-16400000D03*
%TO.N,J1_ACK*%
X18675000Y-41050000D03*
X18216900Y-42660300D03*
X18625000Y-37400000D03*
%TO.N,ACK_GATE*%
X23762500Y-37250000D03*
X23762500Y-36050000D03*
%TO.N,3V3_PS1*%
X54725000Y-10500000D03*
X58250000Y-5200000D03*
X6862500Y-17050000D03*
X4525000Y-27000000D03*
X14500000Y-20000000D03*
X18450000Y-24500000D03*
X9525000Y-27000000D03*
%TO.N,UART_TX_SERVICE*%
X46910000Y-47600000D03*
X46910000Y-43600000D03*
X46910000Y-41580000D03*
X46910000Y-30000000D03*
%TO.N,CH340_3V3*%
X46125000Y-27565000D03*
X45110000Y-35200000D03*
X46125000Y-23145000D03*
X49325000Y-23115000D03*
X50125000Y-21965000D03*
X52125000Y-24365000D03*
X51725000Y-21965000D03*
%TO.N,3V3_USB*%
X55937500Y-13850000D03*
X57137500Y-12250000D03*
X55050000Y-14000000D03*
X53450000Y-16000000D03*
X55050000Y-16000000D03*
X53450000Y-16800000D03*
%TO.N,MUX_PR1*%
X60450000Y-7740000D03*
X60350000Y-10940000D03*
%TO.N,CH340_RTS*%
X51075000Y-27095000D03*
X52675000Y-35800000D03*
X53500000Y-44800000D03*
X51075000Y-35495000D03*
%TO.N,GPIO25_STATUS*%
X20350000Y-27250000D03*
X20450000Y-29150000D03*
%TO.N,GPIO17_UART2_TX*%
X33975000Y-37200000D03*
X34775000Y-24400000D03*
X34775000Y-31600000D03*
X33975000Y-31600000D03*
%TO.N,J2_TX*%
X36075000Y-44050000D03*
X36025000Y-38000000D03*
X36100000Y-45000000D03*
%TO.N,J2_RX*%
X35250000Y-43225000D03*
X35250000Y-39625000D03*
X38533900Y-44911900D03*
%TO.N,GPIO27_ACK_DRIVE*%
X21750000Y-23710000D03*
X22400000Y-29900000D03*
%TO.N,J1_CMD*%
X30825000Y-34000000D03*
X8650000Y-41425000D03*
%TO.N,USB_D+*%
X55250000Y-29025000D03*
X56850000Y-26925000D03*
X57600000Y-26975000D03*
X61055000Y-28450000D03*
X61105000Y-29200000D03*
%TO.N,USB_D-*%
X56925000Y-29305000D03*
X60750000Y-30225000D03*
X56925000Y-30905000D03*
X58150000Y-27825000D03*
X56950000Y-27925000D03*
%TO.N,J1_CLK*%
X15775000Y-18600000D03*
X15050000Y-44625000D03*
X17050000Y-45025000D03*
X15775000Y-39000000D03*
X14175000Y-41400000D03*
X14175000Y-39000000D03*
X15050000Y-42225000D03*
%TO.N,BUCK_BOOT*%
X8075000Y-17000000D03*
X8025000Y-15000000D03*
%TO.N,BUCK_SW*%
X12175000Y-15800000D03*
X10975000Y-17400000D03*
%TO.N,J1_ATT*%
X22025000Y-39600000D03*
X22025000Y-34800000D03*
%TO.N,USB_CC2*%
X62500000Y-27250000D03*
X62490000Y-38000000D03*
%TO.N,USB_VBUS_RAW*%
X57800000Y-26000000D03*
X54000000Y-22000000D03*
X58400000Y-31450000D03*
%TO.N,GPIO19_CMD*%
X33175000Y-20400000D03*
X33175000Y-33200000D03*
%TO.N,USB_CC1*%
X58540000Y-37950000D03*
X55500000Y-35800000D03*
X55500000Y-34000000D03*
X55500000Y-30250000D03*
%TO.N,GPIO16_UART2_RX*%
X40675000Y-24450000D03*
X40625000Y-38000000D03*
%TO.N,UNUSED_ESP_INPUTS*%
X17700000Y-23360000D03*
X22950000Y-14820000D03*
X22950000Y-17360000D03*
X17750000Y-25360000D03*
X12150000Y-25360000D03*
X23100000Y-16500000D03*
X20000000Y-23360000D03*
X12150000Y-29760000D03*
%TD*%
%TO.N,ESP_EN*%
D17*
X19450000Y-44000000D02*
X19450000Y-24200000D01*
X19450000Y-24200000D02*
X19200000Y-23900000D01*
X19200000Y-23900000D02*
X19200000Y-22800000D01*
X19200000Y-22800000D02*
X19450000Y-22500000D01*
X19450000Y-22500000D02*
X19450000Y-13600000D01*
X28880000Y-44000000D02*
X29050000Y-40800000D01*
X53850000Y-40800000D02*
X55500000Y-39800000D01*
X55500000Y-39800000D02*
X55500000Y-40500000D01*
X55500000Y-40500000D02*
X56500000Y-42500000D01*
%TO.N,GND*%
X11550000Y-29000000D02*
X11275000Y-27000000D01*
X45325000Y-20900000D02*
X45925000Y-20900000D01*
X46525000Y-21500000D02*
X46525000Y-21700000D01*
X9300000Y-36175000D02*
X9700000Y-37775000D01*
X54075000Y-11500000D02*
X54075000Y-13700000D01*
X16775000Y-12200000D02*
X16775000Y-14600000D01*
X9675000Y-10000000D02*
X9675000Y-9000000D01*
X54400000Y-17200000D02*
X54150000Y-14000000D01*
X5875000Y-8800000D02*
X5875000Y-7400000D01*
X16150000Y-16800000D02*
X16150000Y-17600000D01*
X37900000Y-56900000D02*
X41500000Y-56900000D01*
X16397000Y-55227300D02*
X16397000Y-55627300D01*
X20850000Y-41000000D02*
X20850000Y-40250000D01*
X44925000Y-21300000D02*
X45325000Y-20900000D01*
X18475000Y-28500000D02*
X18475000Y-35300000D01*
X44775000Y-12400000D02*
X44775000Y-9200000D01*
X49575000Y-37000000D02*
X49575000Y-36200000D01*
X36700000Y-55700000D02*
X37900000Y-56900000D01*
X21275000Y-28500000D02*
X21275000Y-27700000D01*
X12150000Y-17600000D02*
X10150000Y-18800000D01*
X44925000Y-24555000D02*
X44175000Y-23305000D01*
X41500000Y-56900000D02*
X42500000Y-55700000D01*
X18475000Y-35300000D02*
X17650000Y-38600000D01*
X18050000Y-40250000D02*
X17650000Y-38600000D01*
X45925000Y-20900000D02*
X46525000Y-21500000D01*
X57875000Y-10500000D02*
X57875000Y-15300000D01*
X44925000Y-24700000D02*
X44925000Y-21300000D01*
%TO.N,USB_5V_PROTECTED*%
X51662500Y-13050000D02*
X51662500Y-15050000D01*
X49025000Y-13200000D02*
X50625000Y-12800000D01*
X60425000Y-14400000D02*
X59975000Y-12750000D01*
X56600000Y-18000000D02*
X56600000Y-15200000D01*
%TO.N,DATA_GATE*%
X14662500Y-36050000D02*
X14662500Y-23250000D01*
%TO.N,J1_DATA*%
X11337500Y-37000000D02*
X11337500Y-35000000D01*
X10537500Y-37000000D02*
X10537500Y-41400000D01*
%TO.N,UART_TX*%
X43490000Y-26700000D02*
X43490000Y-15000000D01*
%TO.N,GPIO21_ATT*%
X35840000Y-33150000D02*
X35890000Y-18000000D01*
%TO.N,UNUSED_CH340_INPUTS*%
X52800000Y-18500000D02*
X44675000Y-18500000D01*
X52800000Y-18500000D02*
X52800000Y-33445000D01*
%TO.N,CH340_DTR*%
X51875000Y-28365000D02*
X51875000Y-38765000D01*
X57875000Y-38765000D02*
X61000000Y-40000000D01*
X61000000Y-40000000D02*
X63300000Y-43000000D01*
X63300000Y-43000000D02*
X63300000Y-45800000D01*
X57875000Y-38765000D02*
X56800000Y-45000000D01*
X56800000Y-45000000D02*
X56800000Y-52800000D01*
X56800000Y-52800000D02*
X58000000Y-52800000D01*
%TO.N,ESP_BOOT*%
X41391400Y-24180900D02*
X40991400Y-23780900D01*
X42191400Y-30980900D02*
X41391400Y-24180900D01*
X49225000Y-40000000D02*
X49225000Y-41600000D01*
X40191400Y-23780900D02*
X39057300Y-27076300D01*
X46025000Y-32000000D02*
X46025000Y-40000000D01*
X40991400Y-23780900D02*
X40191400Y-23780900D01*
%TO.N,UART_RX*%
X55400000Y-51000000D02*
X44313100Y-39913100D01*
X44313100Y-39913100D02*
X44313100Y-26096300D01*
X42655000Y-26050000D02*
X42425000Y-23600000D01*
%TO.N,3V3_SYS*%
D18*
X57750000Y-9300000D02*
X61225000Y-6000000D01*
X15050000Y-14000000D02*
X2000000Y-14000000D01*
X15050000Y-16000000D02*
X15050000Y-14000000D01*
X54750000Y-9200000D02*
X54750000Y-4200000D01*
X17400000Y-11400000D02*
X17450000Y-11050000D01*
X14000000Y-16000000D02*
X14000000Y-11400000D01*
X46700000Y-9200000D02*
X54750000Y-9200000D01*
X14000000Y-11400000D02*
X17400000Y-11400000D01*
D19*
X6325000Y-31000000D02*
X2000000Y-31000000D01*
D18*
X19500000Y-8900000D02*
X19500000Y-9200000D01*
X42800000Y-9200000D02*
X43500000Y-10000000D01*
X14000000Y-11400000D02*
X14000000Y-8900000D01*
X46000000Y-10000000D02*
X46700000Y-9200000D01*
X19500000Y-9200000D02*
X42800000Y-9200000D01*
X14000000Y-8900000D02*
X17500000Y-8900000D01*
D20*
X2000000Y-14000000D02*
X2000000Y-31000000D01*
D18*
X15050000Y-16000000D02*
X14000000Y-16000000D01*
X59200000Y-4200000D02*
X61225000Y-6000000D01*
X54750000Y-4200000D02*
X59200000Y-4200000D01*
%TO.N,GPIO34_ACK*%
D17*
X16975000Y-36200000D02*
X16400000Y-35600000D01*
X16400000Y-35600000D02*
X16400000Y-19000000D01*
X16400000Y-19000000D02*
X17200000Y-17600000D01*
X20600000Y-16400000D02*
X20175000Y-17000000D01*
%TO.N,J1_ACK*%
X19025000Y-40600000D02*
X18675000Y-41050000D01*
X18625000Y-37400000D02*
X19025000Y-40600000D01*
X18216900Y-42660300D02*
X14000000Y-46700000D01*
%TO.N,ACK_GATE*%
X23762500Y-36050000D02*
X23762500Y-37250000D01*
%TO.N,3V3_PS1*%
D21*
X18500000Y-10800000D02*
X43800000Y-10800000D01*
X4000000Y-17050000D02*
X4000000Y-22000000D01*
X4000000Y-22000000D02*
X14500000Y-22000000D01*
X4525000Y-27000000D02*
X9525000Y-27000000D01*
X18500000Y-20000000D02*
X18500000Y-10800000D01*
X43800000Y-10800000D02*
X43800000Y-13200000D01*
X9525000Y-27000000D02*
X14500000Y-20000000D01*
X45800000Y-13200000D02*
X45800000Y-10800000D01*
X43800000Y-13200000D02*
X45800000Y-13200000D01*
X58250000Y-5200000D02*
X54725000Y-10500000D01*
X14500000Y-22000000D02*
X14500000Y-20000000D01*
X18450000Y-24500000D02*
X18500000Y-20000000D01*
X45800000Y-10800000D02*
X54725000Y-10500000D01*
X6862500Y-17050000D02*
X4000000Y-17050000D01*
%TO.N,UART_TX_SERVICE*%
D17*
X46910000Y-30000000D02*
X46910000Y-41580000D01*
X46910000Y-43600000D02*
X46910000Y-47600000D01*
%TO.N,CH340_3V3*%
X51725000Y-21965000D02*
X52125000Y-24365000D01*
X45110000Y-35200000D02*
X45110000Y-28400000D01*
X49325000Y-23115000D02*
X49325000Y-22765000D01*
X46125000Y-27565000D02*
X46125000Y-23145000D01*
X49325000Y-22765000D02*
X50125000Y-21965000D01*
X45110000Y-28400000D02*
X45910000Y-27600000D01*
%TO.N,3V3_USB*%
X55937500Y-13850000D02*
X57137500Y-12250000D01*
X53450000Y-16800000D02*
X53450000Y-16000000D01*
X55050000Y-16000000D02*
X55050000Y-14000000D01*
%TO.N,MUX_PR1*%
X60450000Y-7740000D02*
X60350000Y-10940000D01*
%TO.N,CH340_RTS*%
X51075000Y-27095000D02*
X51075000Y-35495000D01*
X52675000Y-35800000D02*
X52800000Y-36200000D01*
X52800000Y-36200000D02*
X52800000Y-44800000D01*
X52800000Y-44800000D02*
X53500000Y-44800000D01*
%TO.N,GPIO25_STATUS*%
X20350000Y-27250000D02*
X20450000Y-29150000D01*
%TO.N,GPIO17_UART2_TX*%
X33975000Y-37200000D02*
X33975000Y-31600000D01*
X34775000Y-31600000D02*
X34775000Y-24400000D01*
%TO.N,J2_TX*%
X36100000Y-47800000D02*
X36100000Y-45000000D01*
X35700000Y-48200000D02*
X36100000Y-47800000D01*
X36025000Y-38000000D02*
X36075000Y-44050000D01*
%TO.N,J2_RX*%
X42300000Y-47800000D02*
X42300000Y-46400000D01*
X35250000Y-43225000D02*
X35250000Y-39625000D01*
X40811900Y-44911900D02*
X38533900Y-44911900D01*
X42300000Y-46400000D02*
X40811900Y-44911900D01*
X42700000Y-48200000D02*
X42300000Y-47800000D01*
%TO.N,GPIO27_ACK_DRIVE*%
X21750000Y-23710000D02*
X22400000Y-24360000D01*
X22400000Y-24360000D02*
X22400000Y-29900000D01*
%TO.N,J1_CMD*%
X8650000Y-41425000D02*
X5500000Y-43000000D01*
X26000000Y-52500000D02*
X26000000Y-39000000D01*
X5500000Y-52500000D02*
X13000000Y-52500000D01*
X26000000Y-39000000D02*
X30825000Y-34000000D01*
X5500000Y-43000000D02*
X5500000Y-52500000D01*
X13000000Y-48200000D02*
X13000000Y-52500000D01*
X13000000Y-52500000D02*
X13000000Y-48200000D01*
X13000000Y-52500000D02*
X26000000Y-52500000D01*
%TO.N,USB_D+*%
X55250000Y-28625000D02*
X56850000Y-26925000D01*
X57600000Y-26975000D02*
X58450000Y-27025000D01*
X61105000Y-29200000D02*
X61055000Y-28450000D01*
X58450000Y-27025000D02*
X60850000Y-29025000D01*
X55250000Y-29025000D02*
X55250000Y-28625000D01*
%TO.N,USB_D-*%
X56950000Y-29425000D02*
X56950000Y-27925000D01*
X58055000Y-27750000D02*
X60855000Y-30150000D01*
X56925000Y-30905000D02*
X56925000Y-29305000D01*
X58150000Y-27825000D02*
X60750000Y-30225000D01*
%TO.N,J1_CLK*%
X15775000Y-18600000D02*
X15775000Y-39000000D01*
X17050000Y-47025000D02*
X15875000Y-48200000D01*
X14175000Y-39000000D02*
X14175000Y-41400000D01*
X17050000Y-45025000D02*
X17050000Y-47025000D01*
X15050000Y-42225000D02*
X15050000Y-44625000D01*
X15875000Y-48200000D02*
X15000000Y-48200000D01*
%TO.N,BUCK_BOOT*%
X8025000Y-15000000D02*
X8075000Y-17000000D01*
%TO.N,BUCK_SW*%
X12175000Y-15800000D02*
X12175000Y-16600000D01*
X11375000Y-17400000D02*
X10975000Y-17400000D01*
X12175000Y-16600000D02*
X11375000Y-17400000D01*
%TO.N,J1_ATT*%
X22025000Y-34800000D02*
X22025000Y-39600000D01*
%TO.N,USB_CC2*%
X66500000Y-38000000D02*
X62490000Y-38000000D01*
X66500000Y-27250000D02*
X66500000Y-38000000D01*
X62500000Y-27250000D02*
X66500000Y-27250000D01*
%TO.N,USB_VBUS_RAW*%
D19*
X54000000Y-25000000D02*
X54000000Y-22000000D01*
X58500000Y-31450000D02*
X58500000Y-36000000D01*
X63000000Y-35000000D02*
X54000000Y-35000000D01*
X63000000Y-36000000D02*
X63000000Y-35000000D01*
X58400000Y-31450000D02*
X58500000Y-31450000D01*
X57800000Y-26000000D02*
X54000000Y-25000000D01*
X58500000Y-36000000D02*
X63000000Y-36000000D01*
X54000000Y-35000000D02*
X54000000Y-25000000D01*
%TO.N,GPIO19_CMD*%
D17*
X33175000Y-33200000D02*
X33175000Y-20400000D01*
%TO.N,USB_CC1*%
X55500000Y-35800000D02*
X58540000Y-37950000D01*
X55500000Y-30250000D02*
X55500000Y-34000000D01*
%TO.N,GPIO16_UART2_RX*%
X40625000Y-38000000D02*
X40675000Y-24450000D01*
%TO.N,UNUSED_ESP_INPUTS*%
X17700000Y-23360000D02*
X17750000Y-25360000D01*
X22950000Y-14820000D02*
X23100000Y-16500000D01*
X22950000Y-17360000D02*
X20000000Y-23360000D01*
X12150000Y-25360000D02*
X12150000Y-29760000D01*
%TD*%
%TA.AperFunction,Conductor*%
%TO.N,GND*%
G36*
X6459191Y-519407D02*
G01*
X6495155Y-568907D01*
X6500000Y-599499D01*
X6500000Y-8440000D01*
X13727112Y-8440000D01*
X13785303Y-8458907D01*
X13821267Y-8508407D01*
X13821267Y-8569593D01*
X13789284Y-8614850D01*
X13789377Y-8614943D01*
X13788836Y-8615483D01*
X13787384Y-8617539D01*
X13784791Y-8619528D01*
X13719529Y-8684790D01*
X13673387Y-8764709D01*
X13673386Y-8764711D01*
X13673386Y-8764712D01*
X13650520Y-8850052D01*
X13649500Y-8853857D01*
X13649500Y-13550500D01*
X13630593Y-13608691D01*
X13581093Y-13644655D01*
X13550500Y-13649500D01*
X2220444Y-13649500D01*
X2170945Y-13636237D01*
X2154588Y-13626793D01*
X2120633Y-13617695D01*
X2052727Y-13599500D01*
X1947273Y-13599500D01*
X1845413Y-13626793D01*
X1845412Y-13626793D01*
X1845410Y-13626794D01*
X1845409Y-13626794D01*
X1754089Y-13679518D01*
X1679518Y-13754089D01*
X1626794Y-13845409D01*
X1626794Y-13845410D01*
X1626793Y-13845412D01*
X1626793Y-13845413D01*
X1599500Y-13947273D01*
X1599500Y-31052727D01*
X1626793Y-31154587D01*
X1626794Y-31154589D01*
X1626794Y-31154590D01*
X1679518Y-31245910D01*
X1679520Y-31245913D01*
X1754087Y-31320480D01*
X1845413Y-31373207D01*
X1947273Y-31400500D01*
X1947275Y-31400500D01*
X2052725Y-31400500D01*
X2052727Y-31400500D01*
X2154587Y-31373207D01*
X2214246Y-31338762D01*
X2263745Y-31325500D01*
X5859252Y-31325500D01*
X5917443Y-31344407D01*
X5929249Y-31354490D01*
X5999265Y-31424506D01*
X6120235Y-31494348D01*
X6255158Y-31530500D01*
X6255160Y-31530500D01*
X6394840Y-31530500D01*
X6394842Y-31530500D01*
X6529765Y-31494348D01*
X6650735Y-31424506D01*
X6749506Y-31325735D01*
X6819348Y-31204765D01*
X6855500Y-31069842D01*
X6855500Y-30930158D01*
X6819348Y-30795235D01*
X6808318Y-30776131D01*
X6764497Y-30700231D01*
X6749506Y-30674265D01*
X6650735Y-30575494D01*
X6607851Y-30550735D01*
X6529767Y-30505653D01*
X6529766Y-30505652D01*
X6529765Y-30505652D01*
X6394842Y-30469500D01*
X6255158Y-30469500D01*
X6120235Y-30505652D01*
X6120234Y-30505652D01*
X6120232Y-30505653D01*
X6120231Y-30505653D01*
X5999267Y-30575492D01*
X5999265Y-30575493D01*
X5999265Y-30575494D01*
X5929253Y-30645505D01*
X5874739Y-30673281D01*
X5859252Y-30674500D01*
X2499500Y-30674500D01*
X2441309Y-30655593D01*
X2405345Y-30606093D01*
X2400500Y-30575500D01*
X2400500Y-14449500D01*
X2419407Y-14391309D01*
X2468907Y-14355345D01*
X2499500Y-14350500D01*
X7719494Y-14350500D01*
X7777685Y-14369407D01*
X7813649Y-14418907D01*
X7813649Y-14480093D01*
X7777685Y-14529593D01*
X7769008Y-14535227D01*
X7727399Y-14559251D01*
X7699265Y-14575494D01*
X7600492Y-14674267D01*
X7530653Y-14795231D01*
X7530653Y-14795232D01*
X7530652Y-14795234D01*
X7530652Y-14795235D01*
X7494500Y-14930158D01*
X7494500Y-15069842D01*
X7514836Y-15145737D01*
X7530653Y-15204767D01*
X7530653Y-15204768D01*
X7600492Y-15325732D01*
X7600494Y-15325735D01*
X7699265Y-15424506D01*
X7699267Y-15424507D01*
X7703854Y-15429094D01*
X7702704Y-15430243D01*
X7732854Y-15474116D01*
X7736899Y-15499755D01*
X7762378Y-16518868D01*
X7744931Y-16577513D01*
X7733413Y-16591345D01*
X7650493Y-16674265D01*
X7580653Y-16795231D01*
X7580652Y-16795233D01*
X7557678Y-16880976D01*
X7524354Y-16932291D01*
X7467232Y-16954217D01*
X7408132Y-16938381D01*
X7369626Y-16890831D01*
X7366426Y-16880981D01*
X7356848Y-16845235D01*
X7321788Y-16784510D01*
X7296490Y-16740692D01*
X7287006Y-16724265D01*
X7188235Y-16625494D01*
X7152336Y-16604768D01*
X7067267Y-16555653D01*
X7067266Y-16555652D01*
X7067265Y-16555652D01*
X6932342Y-16519500D01*
X6792658Y-16519500D01*
X6657735Y-16555652D01*
X6657734Y-16555652D01*
X6657732Y-16555653D01*
X6657731Y-16555653D01*
X6536767Y-16625492D01*
X6536765Y-16625493D01*
X6536765Y-16625494D01*
X6516753Y-16645505D01*
X6462239Y-16673281D01*
X6446752Y-16674500D01*
X4049435Y-16674500D01*
X3950565Y-16674500D01*
X3892114Y-16690161D01*
X3855057Y-16700091D01*
X3769440Y-16749523D01*
X3699523Y-16819440D01*
X3650091Y-16905057D01*
X3643365Y-16930159D01*
X3624500Y-17000565D01*
X3624500Y-21950565D01*
X3624500Y-22049435D01*
X3637922Y-22099525D01*
X3650091Y-22144942D01*
X3699523Y-22230559D01*
X3699525Y-22230562D01*
X3769438Y-22300475D01*
X3769440Y-22300476D01*
X3855058Y-22349908D01*
X3855056Y-22349908D01*
X3855060Y-22349909D01*
X3855062Y-22349910D01*
X3950565Y-22375500D01*
X12159205Y-22375500D01*
X12217396Y-22394407D01*
X12253360Y-22443907D01*
X12253360Y-22505093D01*
X12239901Y-22531852D01*
X9458758Y-26445016D01*
X9409636Y-26481494D01*
X9403686Y-26483290D01*
X9320238Y-26505650D01*
X9320231Y-26505653D01*
X9199267Y-26575492D01*
X9199265Y-26575493D01*
X9199265Y-26575494D01*
X9179253Y-26595505D01*
X9124739Y-26623281D01*
X9109252Y-26624500D01*
X4940748Y-26624500D01*
X4882557Y-26605593D01*
X4870750Y-26595509D01*
X4850735Y-26575494D01*
X4842116Y-26570518D01*
X4729767Y-26505653D01*
X4729766Y-26505652D01*
X4729765Y-26505652D01*
X4594842Y-26469500D01*
X4455158Y-26469500D01*
X4320235Y-26505652D01*
X4320234Y-26505652D01*
X4320232Y-26505653D01*
X4320231Y-26505653D01*
X4199267Y-26575492D01*
X4100492Y-26674267D01*
X4030653Y-26795231D01*
X4030653Y-26795232D01*
X4030652Y-26795234D01*
X4030652Y-26795235D01*
X3994500Y-26930158D01*
X3994500Y-27069842D01*
X4027861Y-27194348D01*
X4030653Y-27204767D01*
X4030653Y-27204768D01*
X4100209Y-27325241D01*
X4100494Y-27325735D01*
X4199265Y-27424506D01*
X4320235Y-27494348D01*
X4455158Y-27530500D01*
X4455160Y-27530500D01*
X4594840Y-27530500D01*
X4594842Y-27530500D01*
X4729765Y-27494348D01*
X4850735Y-27424506D01*
X4870746Y-27404494D01*
X4925261Y-27376719D01*
X4940748Y-27375500D01*
X9109252Y-27375500D01*
X9167443Y-27394407D01*
X9179249Y-27404490D01*
X9199265Y-27424506D01*
X9320235Y-27494348D01*
X9455158Y-27530500D01*
X9455160Y-27530500D01*
X9594840Y-27530500D01*
X9594842Y-27530500D01*
X9729765Y-27494348D01*
X9850735Y-27424506D01*
X9949506Y-27325735D01*
X10019348Y-27204765D01*
X10055500Y-27069842D01*
X10055500Y-26933349D01*
X10073804Y-26875997D01*
X10076976Y-26871535D01*
X11107011Y-25422240D01*
X11200883Y-25290158D01*
X11619500Y-25290158D01*
X11619500Y-25429842D01*
X11655652Y-25564765D01*
X11655653Y-25564767D01*
X11655653Y-25564768D01*
X11718873Y-25674267D01*
X11725494Y-25685735D01*
X11820505Y-25780746D01*
X11848281Y-25835261D01*
X11849500Y-25850748D01*
X11849500Y-29269251D01*
X11830593Y-29327442D01*
X11820504Y-29339254D01*
X11725493Y-29434265D01*
X11655653Y-29555231D01*
X11655653Y-29555232D01*
X11655652Y-29555234D01*
X11655652Y-29555235D01*
X11619500Y-29690158D01*
X11619500Y-29829842D01*
X11647357Y-29933807D01*
X11655653Y-29964767D01*
X11655653Y-29964768D01*
X11716317Y-30069840D01*
X11725494Y-30085735D01*
X11824265Y-30184506D01*
X11945235Y-30254348D01*
X12080158Y-30290500D01*
X12080160Y-30290500D01*
X12219840Y-30290500D01*
X12219842Y-30290500D01*
X12354765Y-30254348D01*
X12475735Y-30184506D01*
X12574506Y-30085735D01*
X12644348Y-29964765D01*
X12680500Y-29829842D01*
X12680500Y-29690158D01*
X12644348Y-29555235D01*
X12627314Y-29525732D01*
X12574506Y-29434265D01*
X12479496Y-29339254D01*
X12451719Y-29284738D01*
X12450500Y-29269251D01*
X12450500Y-25850748D01*
X12469407Y-25792557D01*
X12479490Y-25780750D01*
X12574506Y-25685735D01*
X12644348Y-25564765D01*
X12680500Y-25429842D01*
X12680500Y-25290158D01*
X12644348Y-25155235D01*
X12640334Y-25148283D01*
X12574507Y-25034267D01*
X12574506Y-25034265D01*
X12475735Y-24935494D01*
X12471110Y-24932824D01*
X12354767Y-24865653D01*
X12354766Y-24865652D01*
X12354765Y-24865652D01*
X12219842Y-24829500D01*
X12080158Y-24829500D01*
X11945235Y-24865652D01*
X11945234Y-24865652D01*
X11945232Y-24865653D01*
X11945231Y-24865653D01*
X11824267Y-24935492D01*
X11725492Y-25034267D01*
X11655653Y-25155231D01*
X11655653Y-25155232D01*
X11655652Y-25155234D01*
X11655652Y-25155235D01*
X11619500Y-25290158D01*
X11200883Y-25290158D01*
X11246256Y-25226317D01*
X11493193Y-24878868D01*
X12700490Y-23180158D01*
X14132000Y-23180158D01*
X14132000Y-23319842D01*
X14161474Y-23429842D01*
X14168153Y-23454767D01*
X14168153Y-23454768D01*
X14237992Y-23575732D01*
X14237994Y-23575735D01*
X14333005Y-23670746D01*
X14360781Y-23725261D01*
X14362000Y-23740748D01*
X14362000Y-35559251D01*
X14343093Y-35617442D01*
X14333004Y-35629254D01*
X14237993Y-35724265D01*
X14168153Y-35845231D01*
X14168153Y-35845232D01*
X14168152Y-35845234D01*
X14168152Y-35845235D01*
X14132000Y-35980158D01*
X14132000Y-36119842D01*
X14165339Y-36244266D01*
X14168153Y-36254767D01*
X14168153Y-36254768D01*
X14237992Y-36375732D01*
X14237994Y-36375735D01*
X14336765Y-36474506D01*
X14457735Y-36544348D01*
X14592658Y-36580500D01*
X14592660Y-36580500D01*
X14732340Y-36580500D01*
X14732342Y-36580500D01*
X14867265Y-36544348D01*
X14988235Y-36474506D01*
X15087006Y-36375735D01*
X15156848Y-36254765D01*
X15193000Y-36119842D01*
X15193000Y-35980158D01*
X15156848Y-35845235D01*
X15087006Y-35724265D01*
X15043278Y-35680537D01*
X14991996Y-35629254D01*
X14964219Y-35574738D01*
X14963000Y-35559251D01*
X14963000Y-23740748D01*
X14981907Y-23682557D01*
X14991990Y-23670750D01*
X15087006Y-23575735D01*
X15156848Y-23454765D01*
X15193000Y-23319842D01*
X15193000Y-23180158D01*
X15156848Y-23045235D01*
X15150514Y-23034265D01*
X15096226Y-22940235D01*
X15087006Y-22924265D01*
X14988235Y-22825494D01*
X14970126Y-22815039D01*
X14867267Y-22755653D01*
X14867266Y-22755652D01*
X14867265Y-22755652D01*
X14732342Y-22719500D01*
X14592658Y-22719500D01*
X14457735Y-22755652D01*
X14457734Y-22755652D01*
X14457732Y-22755653D01*
X14457731Y-22755653D01*
X14336767Y-22825492D01*
X14237992Y-22924267D01*
X14168153Y-23045231D01*
X14168153Y-23045232D01*
X14168152Y-23045234D01*
X14168152Y-23045235D01*
X14132000Y-23180158D01*
X12700490Y-23180158D01*
X13242773Y-22417147D01*
X13291895Y-22380670D01*
X13323469Y-22375500D01*
X14549433Y-22375500D01*
X14549435Y-22375500D01*
X14644938Y-22349910D01*
X14644940Y-22349908D01*
X14644942Y-22349908D01*
X14686810Y-22325735D01*
X14730562Y-22300475D01*
X14800475Y-22230562D01*
X14849910Y-22144938D01*
X14875500Y-22049435D01*
X14875500Y-20415748D01*
X14894407Y-20357557D01*
X14904490Y-20345750D01*
X14924506Y-20325735D01*
X14994348Y-20204765D01*
X15030500Y-20069842D01*
X15030500Y-19930158D01*
X14994348Y-19795235D01*
X14924506Y-19674265D01*
X14825735Y-19575494D01*
X14704765Y-19505652D01*
X14569842Y-19469500D01*
X14430158Y-19469500D01*
X14295235Y-19505652D01*
X14295234Y-19505652D01*
X14295232Y-19505653D01*
X14295231Y-19505653D01*
X14174267Y-19575492D01*
X14075492Y-19674267D01*
X14005653Y-19795231D01*
X14005653Y-19795232D01*
X14005652Y-19795234D01*
X14005652Y-19795235D01*
X13976067Y-19905652D01*
X13969500Y-19930159D01*
X13969500Y-20066648D01*
X13951195Y-20124000D01*
X13417265Y-20875261D01*
X12914370Y-21582852D01*
X12865248Y-21619330D01*
X12833674Y-21624500D01*
X4474500Y-21624500D01*
X4416309Y-21605593D01*
X4380345Y-21556093D01*
X4375500Y-21525500D01*
X4375500Y-18530158D01*
X15244500Y-18530158D01*
X15244500Y-18669842D01*
X15279836Y-18801719D01*
X15280653Y-18804767D01*
X15280653Y-18804768D01*
X15294930Y-18829496D01*
X15350494Y-18925735D01*
X15445505Y-19020746D01*
X15473281Y-19075261D01*
X15474500Y-19090748D01*
X15474500Y-38509251D01*
X15455593Y-38567442D01*
X15445504Y-38579254D01*
X15350493Y-38674265D01*
X15280653Y-38795231D01*
X15280653Y-38795232D01*
X15280652Y-38795234D01*
X15280652Y-38795235D01*
X15244500Y-38930158D01*
X15244500Y-39069842D01*
X15279508Y-39200494D01*
X15280653Y-39204767D01*
X15280653Y-39204768D01*
X15350492Y-39325732D01*
X15350494Y-39325735D01*
X15449265Y-39424506D01*
X15570235Y-39494348D01*
X15705158Y-39530500D01*
X15705160Y-39530500D01*
X15844840Y-39530500D01*
X15844842Y-39530500D01*
X15979765Y-39494348D01*
X16100735Y-39424506D01*
X16199506Y-39325735D01*
X16269348Y-39204765D01*
X16305500Y-39069842D01*
X16305500Y-38930158D01*
X16269348Y-38795235D01*
X16266342Y-38790029D01*
X16199506Y-38674265D01*
X16104496Y-38579254D01*
X16076719Y-38524738D01*
X16075500Y-38509251D01*
X16075500Y-35942087D01*
X16094407Y-35883896D01*
X16143907Y-35847932D01*
X16205093Y-35847932D01*
X16245975Y-35873587D01*
X16356913Y-35989348D01*
X16417341Y-36052403D01*
X16443952Y-36107499D01*
X16443993Y-36123670D01*
X16444500Y-36123670D01*
X16444500Y-36130158D01*
X16444500Y-36269842D01*
X16472873Y-36375732D01*
X16480653Y-36404767D01*
X16480653Y-36404768D01*
X16540977Y-36509251D01*
X16550494Y-36525735D01*
X16649265Y-36624506D01*
X16770235Y-36694348D01*
X16905158Y-36730500D01*
X16905160Y-36730500D01*
X17044840Y-36730500D01*
X17044842Y-36730500D01*
X17179765Y-36694348D01*
X17300735Y-36624506D01*
X17399506Y-36525735D01*
X17469348Y-36404765D01*
X17505500Y-36269842D01*
X17505500Y-36130158D01*
X17469348Y-35995235D01*
X17463293Y-35984748D01*
X17399507Y-35874267D01*
X17399506Y-35874265D01*
X17300735Y-35775494D01*
X17266778Y-35755889D01*
X17179767Y-35705653D01*
X17179766Y-35705652D01*
X17179765Y-35705652D01*
X17044842Y-35669500D01*
X16925062Y-35669500D01*
X16866871Y-35650593D01*
X16853585Y-35638998D01*
X16728023Y-35507976D01*
X16701412Y-35452881D01*
X16700500Y-35439478D01*
X16700500Y-19106093D01*
X16713544Y-19056975D01*
X16803530Y-18899500D01*
X17217626Y-18174831D01*
X17262912Y-18133690D01*
X17277946Y-18128328D01*
X17404765Y-18094348D01*
X17525735Y-18024506D01*
X17624506Y-17925735D01*
X17694348Y-17804765D01*
X17730500Y-17669842D01*
X17730500Y-17530158D01*
X17694348Y-17395235D01*
X17654220Y-17325732D01*
X17624507Y-17274267D01*
X17624506Y-17274265D01*
X17525735Y-17175494D01*
X17514525Y-17169022D01*
X17404767Y-17105653D01*
X17404766Y-17105652D01*
X17404765Y-17105652D01*
X17269842Y-17069500D01*
X17130158Y-17069500D01*
X16995235Y-17105652D01*
X16995234Y-17105652D01*
X16995232Y-17105653D01*
X16995231Y-17105653D01*
X16874267Y-17175492D01*
X16775492Y-17274267D01*
X16705653Y-17395231D01*
X16705653Y-17395232D01*
X16705652Y-17395234D01*
X16705652Y-17395235D01*
X16669500Y-17530158D01*
X16669500Y-17669842D01*
X16705077Y-17802618D01*
X16701874Y-17863720D01*
X16695406Y-17877359D01*
X16420262Y-18358864D01*
X16374975Y-18400007D01*
X16314154Y-18406673D01*
X16261031Y-18376317D01*
X16248570Y-18359246D01*
X16199507Y-18274267D01*
X16199506Y-18274265D01*
X16100735Y-18175494D01*
X16099590Y-18174833D01*
X15979767Y-18105653D01*
X15979766Y-18105652D01*
X15979765Y-18105652D01*
X15844842Y-18069500D01*
X15705158Y-18069500D01*
X15570235Y-18105652D01*
X15570234Y-18105652D01*
X15570232Y-18105653D01*
X15570231Y-18105653D01*
X15449267Y-18175492D01*
X15350492Y-18274267D01*
X15280653Y-18395231D01*
X15280653Y-18395232D01*
X15280652Y-18395234D01*
X15280652Y-18395235D01*
X15244500Y-18530158D01*
X4375500Y-18530158D01*
X4375500Y-17524500D01*
X4394407Y-17466309D01*
X4443907Y-17430345D01*
X4474500Y-17425500D01*
X6446752Y-17425500D01*
X6504943Y-17444407D01*
X6516749Y-17454490D01*
X6536765Y-17474506D01*
X6657735Y-17544348D01*
X6792658Y-17580500D01*
X6792660Y-17580500D01*
X6932340Y-17580500D01*
X6932342Y-17580500D01*
X7067265Y-17544348D01*
X7188235Y-17474506D01*
X7287006Y-17375735D01*
X7356848Y-17254765D01*
X7379822Y-17169021D01*
X7413144Y-17117709D01*
X7470266Y-17095782D01*
X7529366Y-17111617D01*
X7567872Y-17159167D01*
X7571074Y-17169022D01*
X7580650Y-17204761D01*
X7580653Y-17204768D01*
X7650492Y-17325732D01*
X7650494Y-17325735D01*
X7749265Y-17424506D01*
X7870235Y-17494348D01*
X8005158Y-17530500D01*
X8005160Y-17530500D01*
X8144840Y-17530500D01*
X8144842Y-17530500D01*
X8279765Y-17494348D01*
X8400735Y-17424506D01*
X8495083Y-17330158D01*
X10444500Y-17330158D01*
X10444500Y-17469842D01*
X10480652Y-17604765D01*
X10480653Y-17604767D01*
X10480653Y-17604768D01*
X10550483Y-17725716D01*
X10550494Y-17725735D01*
X10649265Y-17824506D01*
X10770235Y-17894348D01*
X10905158Y-17930500D01*
X10905160Y-17930500D01*
X11044840Y-17930500D01*
X11044842Y-17930500D01*
X11179765Y-17894348D01*
X11300735Y-17824506D01*
X11399506Y-17725735D01*
X11399511Y-17725724D01*
X11399519Y-17725716D01*
X11399534Y-17725705D01*
X11404094Y-17721146D01*
X11404938Y-17721990D01*
X11449940Y-17691055D01*
X11452390Y-17690363D01*
X11490989Y-17680021D01*
X11559511Y-17640460D01*
X11615460Y-17584511D01*
X12415460Y-16784511D01*
X12440759Y-16740691D01*
X12455021Y-16715989D01*
X12475500Y-16639562D01*
X12475500Y-16290748D01*
X12494407Y-16232557D01*
X12504490Y-16220750D01*
X12599506Y-16125735D01*
X12669348Y-16004765D01*
X12705500Y-15869842D01*
X12705500Y-15730158D01*
X12669348Y-15595235D01*
X12660121Y-15579254D01*
X12599507Y-15474267D01*
X12599506Y-15474265D01*
X12500735Y-15375494D01*
X12379765Y-15305652D01*
X12244842Y-15269500D01*
X12105158Y-15269500D01*
X11970235Y-15305652D01*
X11970234Y-15305652D01*
X11970232Y-15305653D01*
X11970231Y-15305653D01*
X11849267Y-15375492D01*
X11750492Y-15474267D01*
X11680653Y-15595231D01*
X11680653Y-15595232D01*
X11680652Y-15595234D01*
X11680652Y-15595235D01*
X11644500Y-15730158D01*
X11644500Y-15869842D01*
X11672809Y-15975494D01*
X11680653Y-16004767D01*
X11680653Y-16004768D01*
X11747725Y-16120939D01*
X11750494Y-16125735D01*
X11845505Y-16220746D01*
X11873281Y-16275261D01*
X11874500Y-16290748D01*
X11874500Y-16434521D01*
X11855593Y-16492712D01*
X11845503Y-16504525D01*
X11401236Y-16948791D01*
X11346720Y-16976568D01*
X11286288Y-16966997D01*
X11281756Y-16964536D01*
X11179765Y-16905652D01*
X11044842Y-16869500D01*
X10905158Y-16869500D01*
X10770235Y-16905652D01*
X10770234Y-16905652D01*
X10770232Y-16905653D01*
X10770231Y-16905653D01*
X10649267Y-16975492D01*
X10550492Y-17074267D01*
X10480653Y-17195231D01*
X10480653Y-17195232D01*
X10480652Y-17195234D01*
X10480652Y-17195235D01*
X10444500Y-17330158D01*
X8495083Y-17330158D01*
X8499506Y-17325735D01*
X8569348Y-17204765D01*
X8605500Y-17069842D01*
X8605500Y-16930158D01*
X8569348Y-16795235D01*
X8529220Y-16725732D01*
X8499507Y-16674267D01*
X8499506Y-16674265D01*
X8400735Y-16575494D01*
X8400732Y-16575492D01*
X8396146Y-16570906D01*
X8397295Y-16569756D01*
X8367146Y-16525891D01*
X8363099Y-16500244D01*
X8362450Y-16474266D01*
X8337620Y-15481128D01*
X8355067Y-15422487D01*
X8366581Y-15408659D01*
X8449506Y-15325735D01*
X8519348Y-15204765D01*
X8555500Y-15069842D01*
X8555500Y-14930158D01*
X8519348Y-14795235D01*
X8507949Y-14775492D01*
X8449507Y-14674267D01*
X8449506Y-14674265D01*
X8350735Y-14575494D01*
X8281004Y-14535234D01*
X8240065Y-14489767D01*
X8233669Y-14428917D01*
X8264262Y-14375929D01*
X8320157Y-14351042D01*
X8330506Y-14350500D01*
X13550500Y-14350500D01*
X13608691Y-14369407D01*
X13644655Y-14418907D01*
X13649500Y-14449500D01*
X13649500Y-15953856D01*
X13649500Y-16046144D01*
X13673386Y-16135288D01*
X13719531Y-16215212D01*
X13784788Y-16280469D01*
X13864712Y-16326614D01*
X13953856Y-16350500D01*
X14609251Y-16350500D01*
X14667442Y-16369407D01*
X14679254Y-16379496D01*
X14702847Y-16403088D01*
X14724265Y-16424506D01*
X14845235Y-16494348D01*
X14980158Y-16530500D01*
X14980160Y-16530500D01*
X15119840Y-16530500D01*
X15119842Y-16530500D01*
X15254765Y-16494348D01*
X15375735Y-16424506D01*
X15474506Y-16325735D01*
X15544348Y-16204765D01*
X15580500Y-16069842D01*
X15580500Y-15930158D01*
X15544348Y-15795235D01*
X15506776Y-15730159D01*
X15474506Y-15674265D01*
X15429496Y-15629254D01*
X15401719Y-15574737D01*
X15400500Y-15559251D01*
X15400500Y-13953857D01*
X15394150Y-13930158D01*
X15376614Y-13864712D01*
X15330469Y-13784788D01*
X15265212Y-13719531D01*
X15195827Y-13679471D01*
X15185290Y-13673387D01*
X15185289Y-13673386D01*
X15185288Y-13673386D01*
X15096144Y-13649500D01*
X15096142Y-13649500D01*
X14449500Y-13649500D01*
X14391309Y-13630593D01*
X14355345Y-13581093D01*
X14350500Y-13550500D01*
X14350500Y-11849500D01*
X14369407Y-11791309D01*
X14418907Y-11755345D01*
X14449500Y-11750500D01*
X17368054Y-11750500D01*
X17382055Y-11751495D01*
X17396111Y-11753503D01*
X17396111Y-11753502D01*
X17396112Y-11753503D01*
X17408303Y-11752034D01*
X17415137Y-11751211D01*
X17426978Y-11750500D01*
X17446143Y-11750500D01*
X17446144Y-11750500D01*
X17459864Y-11746823D01*
X17473645Y-11744162D01*
X17477345Y-11743716D01*
X17487738Y-11742464D01*
X17505532Y-11735321D01*
X17516760Y-11731578D01*
X17535288Y-11726614D01*
X17547591Y-11719509D01*
X17560197Y-11713378D01*
X17573385Y-11708086D01*
X17588713Y-11696588D01*
X17598614Y-11690051D01*
X17615212Y-11680469D01*
X17625247Y-11670432D01*
X17635856Y-11661232D01*
X17639656Y-11658381D01*
X17647215Y-11652713D01*
X17659048Y-11637636D01*
X17666909Y-11628770D01*
X17680469Y-11615212D01*
X17687571Y-11602908D01*
X17695428Y-11591289D01*
X17704199Y-11580118D01*
X17711728Y-11562488D01*
X17717036Y-11551875D01*
X17726614Y-11535288D01*
X17726614Y-11535285D01*
X17729098Y-11529292D01*
X17730589Y-11529909D01*
X17759588Y-11485239D01*
X17772404Y-11476428D01*
X17775735Y-11474506D01*
X17874506Y-11375735D01*
X17939764Y-11262703D01*
X17985233Y-11221764D01*
X18046083Y-11215368D01*
X18099071Y-11245961D01*
X18123958Y-11301857D01*
X18124500Y-11312205D01*
X18124500Y-19997315D01*
X18124494Y-19998415D01*
X18093319Y-22804144D01*
X18073766Y-22862121D01*
X18023870Y-22897533D01*
X17962688Y-22896853D01*
X17944826Y-22888781D01*
X17904766Y-22865652D01*
X17859790Y-22853601D01*
X17769842Y-22829500D01*
X17630158Y-22829500D01*
X17495235Y-22865652D01*
X17495234Y-22865652D01*
X17495232Y-22865653D01*
X17495231Y-22865653D01*
X17374267Y-22935492D01*
X17275492Y-23034267D01*
X17205653Y-23155231D01*
X17205653Y-23155232D01*
X17205653Y-23155233D01*
X17205652Y-23155235D01*
X17169500Y-23290158D01*
X17169500Y-23429842D01*
X17205652Y-23564765D01*
X17205653Y-23564767D01*
X17205653Y-23564768D01*
X17262939Y-23663989D01*
X17275494Y-23685735D01*
X17374265Y-23784506D01*
X17374267Y-23784507D01*
X17378854Y-23789094D01*
X17377704Y-23790243D01*
X17407854Y-23834116D01*
X17411899Y-23859755D01*
X17437378Y-24878868D01*
X17419931Y-24937513D01*
X17408413Y-24951345D01*
X17325493Y-25034265D01*
X17255653Y-25155231D01*
X17255653Y-25155232D01*
X17255652Y-25155234D01*
X17255652Y-25155235D01*
X17219500Y-25290158D01*
X17219500Y-25429842D01*
X17255652Y-25564765D01*
X17255653Y-25564767D01*
X17255653Y-25564768D01*
X17318873Y-25674267D01*
X17325494Y-25685735D01*
X17424265Y-25784506D01*
X17545235Y-25854348D01*
X17680158Y-25890500D01*
X17680160Y-25890500D01*
X17819840Y-25890500D01*
X17819842Y-25890500D01*
X17954765Y-25854348D01*
X18075735Y-25784506D01*
X18174506Y-25685735D01*
X18244348Y-25564765D01*
X18280500Y-25429842D01*
X18280500Y-25290158D01*
X18244348Y-25155235D01*
X18244347Y-25155233D01*
X18242668Y-25148967D01*
X18245218Y-25148283D01*
X18241300Y-25098464D01*
X18273272Y-25046296D01*
X18329801Y-25022884D01*
X18363182Y-25025951D01*
X18380158Y-25030500D01*
X18380161Y-25030500D01*
X18519840Y-25030500D01*
X18519842Y-25030500D01*
X18654765Y-24994348D01*
X18775735Y-24924506D01*
X18874506Y-24825735D01*
X18944348Y-24704765D01*
X18954873Y-24665481D01*
X18988197Y-24614168D01*
X19045318Y-24592241D01*
X19104419Y-24608076D01*
X19142924Y-24655626D01*
X19149500Y-24691105D01*
X19149500Y-36935252D01*
X19130593Y-36993443D01*
X19081093Y-37029407D01*
X19019907Y-37029407D01*
X18980498Y-37005257D01*
X18950735Y-36975494D01*
X18872212Y-36930159D01*
X18829767Y-36905653D01*
X18829766Y-36905652D01*
X18829765Y-36905652D01*
X18694842Y-36869500D01*
X18555158Y-36869500D01*
X18420235Y-36905652D01*
X18420234Y-36905652D01*
X18420232Y-36905653D01*
X18420231Y-36905653D01*
X18299267Y-36975492D01*
X18200492Y-37074267D01*
X18130653Y-37195231D01*
X18130653Y-37195232D01*
X18130652Y-37195234D01*
X18130652Y-37195235D01*
X18094500Y-37330158D01*
X18094500Y-37469842D01*
X18130652Y-37604765D01*
X18130653Y-37604767D01*
X18130653Y-37604768D01*
X18182550Y-37694655D01*
X18200494Y-37725735D01*
X18299265Y-37824506D01*
X18338500Y-37847158D01*
X18379442Y-37892627D01*
X18387237Y-37920616D01*
X18698189Y-40408221D01*
X18686645Y-40468307D01*
X18641988Y-40510133D01*
X18611368Y-40516956D01*
X18611592Y-40518653D01*
X18605160Y-40519499D01*
X18510318Y-40544911D01*
X18470235Y-40555652D01*
X18470234Y-40555652D01*
X18470232Y-40555653D01*
X18470231Y-40555653D01*
X18349267Y-40625492D01*
X18250492Y-40724267D01*
X18180653Y-40845231D01*
X18180653Y-40845232D01*
X18180652Y-40845234D01*
X18180652Y-40845235D01*
X18144500Y-40980158D01*
X18144500Y-41119842D01*
X18172906Y-41225855D01*
X18180653Y-41254767D01*
X18180653Y-41254768D01*
X18250205Y-41375235D01*
X18250494Y-41375735D01*
X18349265Y-41474506D01*
X18470235Y-41544348D01*
X18605158Y-41580500D01*
X18605160Y-41580500D01*
X18744840Y-41580500D01*
X18744842Y-41580500D01*
X18879765Y-41544348D01*
X19000735Y-41474506D01*
X19000735Y-41474505D01*
X19001000Y-41474353D01*
X19060848Y-41461631D01*
X19116744Y-41486518D01*
X19147337Y-41539506D01*
X19149500Y-41560089D01*
X19149500Y-43509251D01*
X19130593Y-43567442D01*
X19120504Y-43579254D01*
X19025493Y-43674265D01*
X18955653Y-43795231D01*
X18955653Y-43795232D01*
X18955652Y-43795234D01*
X18955652Y-43795235D01*
X18919500Y-43930158D01*
X18919500Y-44069842D01*
X18955652Y-44204765D01*
X18955653Y-44204767D01*
X18955653Y-44204768D01*
X19025492Y-44325732D01*
X19025494Y-44325735D01*
X19124265Y-44424506D01*
X19245235Y-44494348D01*
X19380158Y-44530500D01*
X19380160Y-44530500D01*
X19519840Y-44530500D01*
X19519842Y-44530500D01*
X19654765Y-44494348D01*
X19775735Y-44424506D01*
X19874506Y-44325735D01*
X19944348Y-44204765D01*
X19980500Y-44069842D01*
X19980500Y-43930158D01*
X19944348Y-43795235D01*
X19903373Y-43724265D01*
X19874506Y-43674265D01*
X19779496Y-43579254D01*
X19751719Y-43524738D01*
X19750500Y-43509251D01*
X19750500Y-34730158D01*
X21494500Y-34730158D01*
X21494500Y-34869842D01*
X21530652Y-35004765D01*
X21530653Y-35004767D01*
X21530653Y-35004768D01*
X21570771Y-35074254D01*
X21600494Y-35125735D01*
X21695505Y-35220746D01*
X21723281Y-35275261D01*
X21724500Y-35290748D01*
X21724500Y-39109251D01*
X21705593Y-39167442D01*
X21695504Y-39179254D01*
X21600493Y-39274265D01*
X21530653Y-39395231D01*
X21530653Y-39395232D01*
X21530652Y-39395234D01*
X21530652Y-39395235D01*
X21494500Y-39530158D01*
X21494500Y-39669842D01*
X21528233Y-39795737D01*
X21530653Y-39804767D01*
X21530653Y-39804768D01*
X21600492Y-39925732D01*
X21600494Y-39925735D01*
X21699265Y-40024506D01*
X21820235Y-40094348D01*
X21955158Y-40130500D01*
X21955160Y-40130500D01*
X22094840Y-40130500D01*
X22094842Y-40130500D01*
X22229765Y-40094348D01*
X22350735Y-40024506D01*
X22449506Y-39925735D01*
X22519348Y-39804765D01*
X22555500Y-39669842D01*
X22555500Y-39530158D01*
X22519348Y-39395235D01*
X22479220Y-39325732D01*
X22449506Y-39274265D01*
X22354496Y-39179254D01*
X22326719Y-39124738D01*
X22325500Y-39109251D01*
X22325500Y-35980158D01*
X23232000Y-35980158D01*
X23232000Y-36119842D01*
X23265339Y-36244266D01*
X23268153Y-36254767D01*
X23268153Y-36254768D01*
X23337992Y-36375732D01*
X23337994Y-36375735D01*
X23433005Y-36470746D01*
X23460781Y-36525261D01*
X23462000Y-36540748D01*
X23462000Y-36759251D01*
X23443093Y-36817442D01*
X23433004Y-36829254D01*
X23337993Y-36924265D01*
X23268153Y-37045231D01*
X23268153Y-37045232D01*
X23268152Y-37045234D01*
X23268152Y-37045235D01*
X23232000Y-37180158D01*
X23232000Y-37319842D01*
X23263948Y-37439075D01*
X23268153Y-37454767D01*
X23268153Y-37454768D01*
X23337855Y-37575494D01*
X23337994Y-37575735D01*
X23436765Y-37674506D01*
X23557735Y-37744348D01*
X23692658Y-37780500D01*
X23692660Y-37780500D01*
X23832340Y-37780500D01*
X23832342Y-37780500D01*
X23967265Y-37744348D01*
X24088235Y-37674506D01*
X24187006Y-37575735D01*
X24256848Y-37454765D01*
X24293000Y-37319842D01*
X24293000Y-37180158D01*
X24256848Y-37045235D01*
X24187006Y-36924265D01*
X24168393Y-36905652D01*
X24091996Y-36829254D01*
X24064219Y-36774738D01*
X24063000Y-36759251D01*
X24063000Y-36540748D01*
X24081907Y-36482557D01*
X24091990Y-36470750D01*
X24187006Y-36375735D01*
X24256848Y-36254765D01*
X24293000Y-36119842D01*
X24293000Y-35980158D01*
X24256848Y-35845235D01*
X24187006Y-35724265D01*
X24088235Y-35625494D01*
X24086525Y-35624507D01*
X23967267Y-35555653D01*
X23967266Y-35555652D01*
X23967265Y-35555652D01*
X23832342Y-35519500D01*
X23692658Y-35519500D01*
X23557735Y-35555652D01*
X23557734Y-35555652D01*
X23557732Y-35555653D01*
X23557731Y-35555653D01*
X23436767Y-35625492D01*
X23337992Y-35724267D01*
X23268153Y-35845231D01*
X23268153Y-35845232D01*
X23268152Y-35845234D01*
X23268152Y-35845235D01*
X23232000Y-35980158D01*
X22325500Y-35980158D01*
X22325500Y-35290748D01*
X22344407Y-35232557D01*
X22354490Y-35220750D01*
X22449506Y-35125735D01*
X22519348Y-35004765D01*
X22555500Y-34869842D01*
X22555500Y-34730158D01*
X22519348Y-34595235D01*
X22507949Y-34575492D01*
X22449507Y-34474267D01*
X22449506Y-34474265D01*
X22350735Y-34375494D01*
X22229765Y-34305652D01*
X22094842Y-34269500D01*
X21955158Y-34269500D01*
X21820235Y-34305652D01*
X21820234Y-34305652D01*
X21820232Y-34305653D01*
X21820231Y-34305653D01*
X21699267Y-34375492D01*
X21600492Y-34474267D01*
X21530653Y-34595231D01*
X21530653Y-34595232D01*
X21530652Y-34595234D01*
X21530652Y-34595235D01*
X21494500Y-34730158D01*
X19750500Y-34730158D01*
X19750500Y-29341105D01*
X19769407Y-29282914D01*
X19818907Y-29246950D01*
X19880093Y-29246950D01*
X19929593Y-29282914D01*
X19945126Y-29315480D01*
X19951346Y-29338695D01*
X19955652Y-29354765D01*
X19955653Y-29354768D01*
X20010351Y-29449507D01*
X20025494Y-29475735D01*
X20124265Y-29574506D01*
X20245235Y-29644348D01*
X20380158Y-29680500D01*
X20380160Y-29680500D01*
X20519840Y-29680500D01*
X20519842Y-29680500D01*
X20654765Y-29644348D01*
X20775735Y-29574506D01*
X20874506Y-29475735D01*
X20944348Y-29354765D01*
X20980500Y-29219842D01*
X20980500Y-29080158D01*
X20944348Y-28945235D01*
X20903373Y-28874265D01*
X20874507Y-28824267D01*
X20874506Y-28824265D01*
X20775735Y-28725494D01*
X20775732Y-28725492D01*
X20775730Y-28725490D01*
X20773627Y-28724276D01*
X20772463Y-28722983D01*
X20770586Y-28721543D01*
X20770853Y-28721194D01*
X20732689Y-28678804D01*
X20724270Y-28643748D01*
X20675699Y-27720887D01*
X20691522Y-27661784D01*
X20704554Y-27645686D01*
X20774506Y-27575735D01*
X20844348Y-27454765D01*
X20880500Y-27319842D01*
X20880500Y-27180158D01*
X20844348Y-27045235D01*
X20840133Y-27037935D01*
X20774507Y-26924267D01*
X20774506Y-26924265D01*
X20675735Y-26825494D01*
X20654602Y-26813293D01*
X20554767Y-26755653D01*
X20554766Y-26755652D01*
X20554765Y-26755652D01*
X20419842Y-26719500D01*
X20280158Y-26719500D01*
X20145235Y-26755652D01*
X20145234Y-26755652D01*
X20145232Y-26755653D01*
X20145231Y-26755653D01*
X20024267Y-26825492D01*
X20024265Y-26825493D01*
X20024265Y-26825494D01*
X19925494Y-26924265D01*
X19925492Y-26924267D01*
X19920906Y-26928854D01*
X19919125Y-26927073D01*
X19877614Y-26955601D01*
X19816450Y-26953997D01*
X19767910Y-26916749D01*
X19750500Y-26860677D01*
X19750500Y-24218110D01*
X19750907Y-24209145D01*
X19752847Y-24187807D01*
X19752846Y-24187803D01*
X19751946Y-24182590D01*
X19750500Y-24165732D01*
X19750500Y-24160438D01*
X19744949Y-24139722D01*
X19743022Y-24130958D01*
X19739372Y-24109841D01*
X19737155Y-24105044D01*
X19731391Y-24089125D01*
X19730021Y-24084011D01*
X19727994Y-24080500D01*
X19719301Y-24065442D01*
X19715172Y-24057478D01*
X19706177Y-24038017D01*
X19706176Y-24038015D01*
X19702791Y-24033954D01*
X19693107Y-24020073D01*
X19690460Y-24015489D01*
X19690458Y-24015487D01*
X19686511Y-24010343D01*
X19688437Y-24008864D01*
X19665441Y-23963731D01*
X19675012Y-23903299D01*
X19718277Y-23860034D01*
X19778709Y-23850463D01*
X19788791Y-23853324D01*
X19788967Y-23852668D01*
X19795233Y-23854347D01*
X19795235Y-23854348D01*
X19930158Y-23890500D01*
X19930160Y-23890500D01*
X20069840Y-23890500D01*
X20069842Y-23890500D01*
X20204765Y-23854348D01*
X20325735Y-23784506D01*
X20424506Y-23685735D01*
X20450820Y-23640158D01*
X21219500Y-23640158D01*
X21219500Y-23779842D01*
X21254963Y-23912193D01*
X21255653Y-23914767D01*
X21255653Y-23914768D01*
X21325492Y-24035732D01*
X21325494Y-24035735D01*
X21424265Y-24134506D01*
X21545235Y-24204348D01*
X21680158Y-24240500D01*
X21680160Y-24240500D01*
X21814521Y-24240500D01*
X21872712Y-24259407D01*
X21884525Y-24269496D01*
X22070504Y-24455475D01*
X22098281Y-24509992D01*
X22099500Y-24525479D01*
X22099500Y-29409251D01*
X22080593Y-29467442D01*
X22070504Y-29479254D01*
X21975493Y-29574265D01*
X21905653Y-29695231D01*
X21905653Y-29695232D01*
X21905652Y-29695234D01*
X21905652Y-29695235D01*
X21869500Y-29830158D01*
X21869500Y-29969842D01*
X21900553Y-30085735D01*
X21905653Y-30104767D01*
X21905653Y-30104768D01*
X21975492Y-30225732D01*
X21975494Y-30225735D01*
X22074265Y-30324506D01*
X22195235Y-30394348D01*
X22330158Y-30430500D01*
X22330160Y-30430500D01*
X22469840Y-30430500D01*
X22469842Y-30430500D01*
X22604765Y-30394348D01*
X22725735Y-30324506D01*
X22824506Y-30225735D01*
X22894348Y-30104765D01*
X22930500Y-29969842D01*
X22930500Y-29830158D01*
X22894348Y-29695235D01*
X22893835Y-29694347D01*
X22824506Y-29574265D01*
X22729496Y-29479254D01*
X22701719Y-29424738D01*
X22700500Y-29409251D01*
X22700500Y-24320437D01*
X22700499Y-24320435D01*
X22680021Y-24244011D01*
X22680019Y-24244007D01*
X22640460Y-24175489D01*
X22584511Y-24119539D01*
X22584511Y-24119540D01*
X22309496Y-23844525D01*
X22281719Y-23790008D01*
X22280500Y-23774521D01*
X22280500Y-23640159D01*
X22275523Y-23621583D01*
X22244348Y-23505235D01*
X22241834Y-23500881D01*
X22197786Y-23424588D01*
X22174506Y-23384265D01*
X22075735Y-23285494D01*
X22056289Y-23274267D01*
X21954767Y-23215653D01*
X21954766Y-23215652D01*
X21954765Y-23215652D01*
X21819842Y-23179500D01*
X21680158Y-23179500D01*
X21545235Y-23215652D01*
X21545234Y-23215652D01*
X21545232Y-23215653D01*
X21545231Y-23215653D01*
X21424267Y-23285492D01*
X21325492Y-23384267D01*
X21255653Y-23505231D01*
X21255653Y-23505232D01*
X21255652Y-23505234D01*
X21255652Y-23505235D01*
X21219500Y-23640158D01*
X20450820Y-23640158D01*
X20494348Y-23564765D01*
X20530500Y-23429842D01*
X20530500Y-23290158D01*
X20494348Y-23155235D01*
X20489003Y-23145978D01*
X20476281Y-23086132D01*
X20485895Y-23052802D01*
X21824528Y-20330158D01*
X32644500Y-20330158D01*
X32644500Y-20469842D01*
X32680652Y-20604765D01*
X32680653Y-20604767D01*
X32680653Y-20604768D01*
X32750492Y-20725732D01*
X32750494Y-20725735D01*
X32845505Y-20820746D01*
X32873281Y-20875261D01*
X32874500Y-20890748D01*
X32874500Y-32709251D01*
X32855593Y-32767442D01*
X32845504Y-32779254D01*
X32750493Y-32874265D01*
X32680653Y-32995231D01*
X32680653Y-32995232D01*
X32680652Y-32995234D01*
X32680652Y-32995235D01*
X32644500Y-33130158D01*
X32644500Y-33269842D01*
X32675578Y-33385828D01*
X32680653Y-33404767D01*
X32680653Y-33404768D01*
X32744205Y-33514842D01*
X32750494Y-33525735D01*
X32849265Y-33624506D01*
X32970235Y-33694348D01*
X33105158Y-33730500D01*
X33105160Y-33730500D01*
X33244840Y-33730500D01*
X33244842Y-33730500D01*
X33379765Y-33694348D01*
X33500735Y-33624506D01*
X33505498Y-33619742D01*
X33560013Y-33591967D01*
X33620445Y-33601538D01*
X33663710Y-33644803D01*
X33674500Y-33689748D01*
X33674500Y-36709251D01*
X33655593Y-36767442D01*
X33645504Y-36779254D01*
X33550493Y-36874265D01*
X33480653Y-36995231D01*
X33480653Y-36995232D01*
X33480652Y-36995234D01*
X33480652Y-36995235D01*
X33444500Y-37130158D01*
X33444500Y-37269842D01*
X33480652Y-37404765D01*
X33480653Y-37404767D01*
X33480653Y-37404768D01*
X33550355Y-37525494D01*
X33550494Y-37525735D01*
X33649265Y-37624506D01*
X33770235Y-37694348D01*
X33905158Y-37730500D01*
X33905160Y-37730500D01*
X34044840Y-37730500D01*
X34044842Y-37730500D01*
X34179765Y-37694348D01*
X34300735Y-37624506D01*
X34399506Y-37525735D01*
X34469348Y-37404765D01*
X34505500Y-37269842D01*
X34505500Y-37130158D01*
X34469348Y-36995235D01*
X34468313Y-36993443D01*
X34399506Y-36874265D01*
X34304496Y-36779254D01*
X34276719Y-36724738D01*
X34275500Y-36709251D01*
X34275500Y-33080158D01*
X35309500Y-33080158D01*
X35309500Y-33219842D01*
X35345652Y-33354765D01*
X35345653Y-33354767D01*
X35345653Y-33354768D01*
X35374521Y-33404768D01*
X35415494Y-33475735D01*
X35514265Y-33574506D01*
X35635235Y-33644348D01*
X35770158Y-33680500D01*
X35770160Y-33680500D01*
X35909840Y-33680500D01*
X35909842Y-33680500D01*
X36044765Y-33644348D01*
X36165735Y-33574506D01*
X36264506Y-33475735D01*
X36334348Y-33354765D01*
X36370500Y-33219842D01*
X36370500Y-33080158D01*
X36334348Y-32945235D01*
X36319720Y-32919899D01*
X36264506Y-32824265D01*
X36171112Y-32730870D01*
X36143335Y-32676354D01*
X36142117Y-32660540D01*
X36142677Y-32490748D01*
X36160776Y-27006458D01*
X38526800Y-27006458D01*
X38526800Y-27146142D01*
X38551752Y-27239265D01*
X38562953Y-27281067D01*
X38562953Y-27281068D01*
X38628390Y-27394407D01*
X38632794Y-27402035D01*
X38731565Y-27500806D01*
X38852535Y-27570648D01*
X38987458Y-27606800D01*
X38987460Y-27606800D01*
X39127140Y-27606800D01*
X39127142Y-27606800D01*
X39262065Y-27570648D01*
X39383035Y-27500806D01*
X39481806Y-27402035D01*
X39551648Y-27281065D01*
X39587800Y-27146142D01*
X39587800Y-27006458D01*
X39551648Y-26871535D01*
X39507736Y-26795478D01*
X39495016Y-26735632D01*
X39499861Y-26713768D01*
X40136683Y-24863326D01*
X40173498Y-24814456D01*
X40232007Y-24796558D01*
X40289862Y-24816468D01*
X40300291Y-24825532D01*
X40343698Y-24868939D01*
X40371474Y-24923454D01*
X40372692Y-24939306D01*
X40326313Y-37507801D01*
X40307191Y-37565922D01*
X40297318Y-37577439D01*
X40200493Y-37674265D01*
X40130653Y-37795231D01*
X40130653Y-37795232D01*
X40130652Y-37795234D01*
X40130652Y-37795235D01*
X40094500Y-37930158D01*
X40094500Y-38069842D01*
X40130652Y-38204765D01*
X40130653Y-38204767D01*
X40130653Y-38204768D01*
X40186628Y-38301719D01*
X40200494Y-38325735D01*
X40299265Y-38424506D01*
X40420235Y-38494348D01*
X40555158Y-38530500D01*
X40555160Y-38530500D01*
X40694840Y-38530500D01*
X40694842Y-38530500D01*
X40829765Y-38494348D01*
X40950735Y-38424506D01*
X41049506Y-38325735D01*
X41119348Y-38204765D01*
X41155500Y-38069842D01*
X41155500Y-37930158D01*
X41119348Y-37795235D01*
X41089968Y-37744348D01*
X41049507Y-37674267D01*
X41049506Y-37674265D01*
X40956299Y-37581058D01*
X40928524Y-37526544D01*
X40927306Y-37510702D01*
X40973685Y-24942196D01*
X40992807Y-24884077D01*
X41002667Y-24872573D01*
X41008113Y-24867127D01*
X41062626Y-24839353D01*
X41123058Y-24848924D01*
X41166323Y-24892189D01*
X41176434Y-24925566D01*
X41250678Y-25556634D01*
X41836098Y-30532707D01*
X41824119Y-30592708D01*
X41807781Y-30614276D01*
X41766893Y-30655164D01*
X41697053Y-30776131D01*
X41697053Y-30776132D01*
X41697052Y-30776134D01*
X41697052Y-30776135D01*
X41660900Y-30911058D01*
X41660900Y-31050742D01*
X41695487Y-31179824D01*
X41697053Y-31185667D01*
X41697053Y-31185668D01*
X41766892Y-31306632D01*
X41766894Y-31306635D01*
X41865665Y-31405406D01*
X41986635Y-31475248D01*
X42121558Y-31511400D01*
X42121560Y-31511400D01*
X42261240Y-31511400D01*
X42261242Y-31511400D01*
X42396165Y-31475248D01*
X42517135Y-31405406D01*
X42615906Y-31306635D01*
X42685748Y-31185665D01*
X42721900Y-31050742D01*
X42721900Y-30911058D01*
X42685748Y-30776135D01*
X42673834Y-30755500D01*
X42631721Y-30682557D01*
X42615906Y-30655165D01*
X42517135Y-30556394D01*
X42481718Y-30535946D01*
X42440778Y-30490475D01*
X42432898Y-30461777D01*
X42040278Y-27124507D01*
X41692578Y-24169049D01*
X41691900Y-24157482D01*
X41691900Y-24141339D01*
X41691467Y-24139722D01*
X41689152Y-24131086D01*
X41686458Y-24117041D01*
X41685219Y-24106498D01*
X41679241Y-24091485D01*
X41675601Y-24080513D01*
X41671421Y-24064912D01*
X41666115Y-24055721D01*
X41659877Y-24042847D01*
X41655952Y-24032989D01*
X41655946Y-24032980D01*
X41646300Y-24020043D01*
X41639926Y-24010360D01*
X41631861Y-23996390D01*
X41631859Y-23996388D01*
X41624353Y-23988881D01*
X41614993Y-23978057D01*
X41608657Y-23969560D01*
X41608654Y-23969556D01*
X41595990Y-23959559D01*
X41587331Y-23951859D01*
X41229149Y-23593678D01*
X41175911Y-23540440D01*
X41175908Y-23540438D01*
X41158103Y-23530158D01*
X41894500Y-23530158D01*
X41894500Y-23669842D01*
X41930652Y-23804764D01*
X41930653Y-23804767D01*
X41930653Y-23804768D01*
X41994162Y-23914768D01*
X42000494Y-23925735D01*
X42099265Y-24024506D01*
X42099267Y-24024507D01*
X42122396Y-24037861D01*
X42163337Y-24083330D01*
X42171463Y-24114344D01*
X42310343Y-25593721D01*
X42296957Y-25653424D01*
X42281781Y-25672976D01*
X42230493Y-25724264D01*
X42160653Y-25845231D01*
X42160653Y-25845232D01*
X42160652Y-25845234D01*
X42160652Y-25845235D01*
X42124500Y-25980158D01*
X42124500Y-26119842D01*
X42157376Y-26242537D01*
X42160653Y-26254767D01*
X42160653Y-26254768D01*
X42209345Y-26339104D01*
X42230494Y-26375735D01*
X42329265Y-26474506D01*
X42450235Y-26544348D01*
X42585158Y-26580500D01*
X42585160Y-26580500D01*
X42724840Y-26580500D01*
X42724842Y-26580500D01*
X42834878Y-26551016D01*
X42895979Y-26554219D01*
X42943529Y-26592724D01*
X42959500Y-26646643D01*
X42959500Y-26769842D01*
X42987944Y-26875997D01*
X42995653Y-26904767D01*
X42995653Y-26904768D01*
X43065161Y-27025158D01*
X43065494Y-27025735D01*
X43164265Y-27124506D01*
X43285235Y-27194348D01*
X43420158Y-27230500D01*
X43420160Y-27230500D01*
X43559840Y-27230500D01*
X43559842Y-27230500D01*
X43694765Y-27194348D01*
X43815735Y-27124506D01*
X43843598Y-27096642D01*
X43898113Y-27068867D01*
X43958545Y-27078438D01*
X44001810Y-27121703D01*
X44012600Y-27166648D01*
X44012600Y-39952664D01*
X44033078Y-40029088D01*
X44033079Y-40029090D01*
X44042695Y-40045744D01*
X44053278Y-40064075D01*
X44056606Y-40069838D01*
X44056607Y-40069843D01*
X44056609Y-40069843D01*
X44072640Y-40097611D01*
X45485187Y-41510158D01*
X46880090Y-42905061D01*
X46907867Y-42959578D01*
X46898296Y-43020010D01*
X46855031Y-43063275D01*
X46835708Y-43070692D01*
X46705235Y-43105652D01*
X46705233Y-43105653D01*
X46705231Y-43105653D01*
X46584267Y-43175492D01*
X46485492Y-43274267D01*
X46415653Y-43395231D01*
X46415653Y-43395232D01*
X46415652Y-43395234D01*
X46415652Y-43395235D01*
X46379500Y-43530158D01*
X46379500Y-43669842D01*
X46415652Y-43804765D01*
X46415653Y-43804767D01*
X46415653Y-43804768D01*
X46439017Y-43845235D01*
X46485494Y-43925735D01*
X46580505Y-44020746D01*
X46608281Y-44075261D01*
X46609500Y-44090748D01*
X46609500Y-47109251D01*
X46590593Y-47167442D01*
X46580504Y-47179254D01*
X46485493Y-47274265D01*
X46415653Y-47395231D01*
X46415653Y-47395232D01*
X46415652Y-47395234D01*
X46415652Y-47395235D01*
X46379500Y-47530158D01*
X46379500Y-47669842D01*
X46415652Y-47804765D01*
X46415653Y-47804767D01*
X46415653Y-47804768D01*
X46441768Y-47850000D01*
X46485494Y-47925735D01*
X46584265Y-48024506D01*
X46705235Y-48094348D01*
X46840158Y-48130500D01*
X46840160Y-48130500D01*
X46979840Y-48130500D01*
X46979842Y-48130500D01*
X47114765Y-48094348D01*
X47235735Y-48024506D01*
X47334506Y-47925735D01*
X47404348Y-47804765D01*
X47440500Y-47669842D01*
X47440500Y-47530158D01*
X47404348Y-47395235D01*
X47361943Y-47321788D01*
X47334506Y-47274265D01*
X47239496Y-47179254D01*
X47211719Y-47124738D01*
X47210500Y-47109251D01*
X47210500Y-44090748D01*
X47229407Y-44032557D01*
X47239490Y-44020750D01*
X47334506Y-43925735D01*
X47404348Y-43804765D01*
X47439308Y-43674288D01*
X47472631Y-43622976D01*
X47529752Y-43601049D01*
X47588853Y-43616884D01*
X47604938Y-43629909D01*
X54313127Y-50338098D01*
X54340904Y-50392615D01*
X54331333Y-50453046D01*
X54287454Y-50539164D01*
X54229058Y-50718886D01*
X54199500Y-50905515D01*
X54199500Y-51094484D01*
X54229058Y-51281113D01*
X54277291Y-51429556D01*
X54287453Y-51460832D01*
X54373240Y-51629199D01*
X54484310Y-51782073D01*
X54617927Y-51915690D01*
X54770801Y-52026760D01*
X54939168Y-52112547D01*
X55118882Y-52170940D01*
X55118883Y-52170940D01*
X55118886Y-52170941D01*
X55305516Y-52200500D01*
X55305519Y-52200500D01*
X55494484Y-52200500D01*
X55681113Y-52170941D01*
X55681114Y-52170940D01*
X55681118Y-52170940D01*
X55860832Y-52112547D01*
X56029199Y-52026760D01*
X56182073Y-51915690D01*
X56315690Y-51782073D01*
X56320405Y-51775582D01*
X56369904Y-51739617D01*
X56431089Y-51739614D01*
X56480590Y-51775576D01*
X56499500Y-51833766D01*
X56499500Y-52839564D01*
X56519978Y-52915988D01*
X56519980Y-52915992D01*
X56559538Y-52984508D01*
X56559540Y-52984511D01*
X56615489Y-53040460D01*
X56615491Y-53040461D01*
X56684007Y-53080019D01*
X56684011Y-53080021D01*
X56760435Y-53100499D01*
X56760437Y-53100500D01*
X56760438Y-53100500D01*
X57509252Y-53100500D01*
X57567443Y-53119407D01*
X57579249Y-53129490D01*
X57674265Y-53224506D01*
X57795235Y-53294348D01*
X57930158Y-53330500D01*
X57930160Y-53330500D01*
X58069840Y-53330500D01*
X58069842Y-53330500D01*
X58204765Y-53294348D01*
X58325735Y-53224506D01*
X58424506Y-53125735D01*
X58494348Y-53004765D01*
X58530500Y-52869842D01*
X58530500Y-52730158D01*
X58494348Y-52595235D01*
X58424506Y-52474265D01*
X58325735Y-52375494D01*
X58204765Y-52305652D01*
X58069842Y-52269500D01*
X57930158Y-52269500D01*
X57795235Y-52305652D01*
X57795234Y-52305652D01*
X57795232Y-52305653D01*
X57795231Y-52305653D01*
X57674267Y-52375492D01*
X57674265Y-52375493D01*
X57674265Y-52375494D01*
X57579253Y-52470505D01*
X57524739Y-52498281D01*
X57509252Y-52499500D01*
X57199500Y-52499500D01*
X57141309Y-52480593D01*
X57105345Y-52431093D01*
X57100500Y-52400500D01*
X57100500Y-45034190D01*
X57101939Y-45017369D01*
X57116975Y-44930159D01*
X58087634Y-39300333D01*
X58116154Y-39246202D01*
X58171045Y-39219171D01*
X58221580Y-39225083D01*
X60786658Y-40238802D01*
X60828838Y-40270638D01*
X61537693Y-41195231D01*
X62944676Y-43030428D01*
X62979067Y-43075285D01*
X62999467Y-43132970D01*
X62999500Y-43135520D01*
X62999500Y-45309251D01*
X62980593Y-45367442D01*
X62970504Y-45379254D01*
X62875493Y-45474265D01*
X62805653Y-45595231D01*
X62805653Y-45595232D01*
X62805652Y-45595234D01*
X62805652Y-45595235D01*
X62769500Y-45730158D01*
X62769500Y-45869842D01*
X62801859Y-45990608D01*
X62805653Y-46004767D01*
X62805653Y-46004768D01*
X62848173Y-46078414D01*
X62875494Y-46125735D01*
X62974265Y-46224506D01*
X63095235Y-46294348D01*
X63230158Y-46330500D01*
X63230160Y-46330500D01*
X63369840Y-46330500D01*
X63369842Y-46330500D01*
X63504765Y-46294348D01*
X63625735Y-46224506D01*
X63724506Y-46125735D01*
X63794348Y-46004765D01*
X63830500Y-45869842D01*
X63830500Y-45730158D01*
X63794348Y-45595235D01*
X63724506Y-45474265D01*
X63682798Y-45432557D01*
X63629496Y-45379254D01*
X63601719Y-45324738D01*
X63600500Y-45309251D01*
X63600500Y-43026269D01*
X63601352Y-43013308D01*
X63603093Y-43000126D01*
X63601341Y-42986781D01*
X63600500Y-42973900D01*
X63600500Y-42960438D01*
X63597060Y-42947602D01*
X63594527Y-42934853D01*
X63592798Y-42921679D01*
X63592798Y-42921676D01*
X63587651Y-42909236D01*
X63583503Y-42897008D01*
X63580021Y-42884012D01*
X63580021Y-42884011D01*
X63573377Y-42872504D01*
X63567632Y-42860847D01*
X63562552Y-42848568D01*
X63562550Y-42848563D01*
X63554354Y-42837873D01*
X63547187Y-42827141D01*
X63546375Y-42825735D01*
X63540460Y-42815489D01*
X63538109Y-42813138D01*
X63531058Y-42806086D01*
X63522497Y-42796320D01*
X62839715Y-41905735D01*
X61266215Y-39853344D01*
X61260075Y-39844310D01*
X61237472Y-39815830D01*
X61236451Y-39814521D01*
X61214319Y-39785653D01*
X61214139Y-39785451D01*
X61213237Y-39784578D01*
X61212055Y-39783415D01*
X61211114Y-39782473D01*
X61210923Y-39782308D01*
X61181704Y-39760636D01*
X61180384Y-39759640D01*
X61179324Y-39758826D01*
X61151655Y-39737577D01*
X61151651Y-39737575D01*
X61151531Y-39737483D01*
X61151284Y-39737320D01*
X61150150Y-39736690D01*
X61148730Y-39735885D01*
X61147638Y-39735254D01*
X61147380Y-39735129D01*
X61113564Y-39721765D01*
X61112027Y-39721142D01*
X61078434Y-39707210D01*
X61068050Y-39703777D01*
X58456191Y-38671570D01*
X58409023Y-38632599D01*
X58393769Y-38573346D01*
X58416257Y-38516443D01*
X58467897Y-38483626D01*
X58492578Y-38480500D01*
X58609840Y-38480500D01*
X58609842Y-38480500D01*
X58744765Y-38444348D01*
X58865735Y-38374506D01*
X58964506Y-38275735D01*
X59034348Y-38154765D01*
X59070500Y-38019842D01*
X59070500Y-37930158D01*
X61959500Y-37930158D01*
X61959500Y-38069842D01*
X61995652Y-38204765D01*
X61995653Y-38204767D01*
X61995653Y-38204768D01*
X62051628Y-38301719D01*
X62065494Y-38325735D01*
X62164265Y-38424506D01*
X62285235Y-38494348D01*
X62420158Y-38530500D01*
X62420160Y-38530500D01*
X62559840Y-38530500D01*
X62559842Y-38530500D01*
X62694765Y-38494348D01*
X62815735Y-38424506D01*
X62910746Y-38329494D01*
X62965261Y-38301719D01*
X62980748Y-38300500D01*
X66539563Y-38300500D01*
X66539563Y-38300499D01*
X66615989Y-38280021D01*
X66684511Y-38240460D01*
X66740460Y-38184511D01*
X66780021Y-38115989D01*
X66800500Y-38039562D01*
X66800500Y-27210438D01*
X66780021Y-27134011D01*
X66774533Y-27124506D01*
X66740461Y-27065491D01*
X66740460Y-27065489D01*
X66684511Y-27009540D01*
X66670291Y-27001330D01*
X66615992Y-26969980D01*
X66615988Y-26969978D01*
X66539564Y-26949500D01*
X66539562Y-26949500D01*
X62990748Y-26949500D01*
X62932557Y-26930593D01*
X62920750Y-26920509D01*
X62825735Y-26825494D01*
X62804602Y-26813293D01*
X62704767Y-26755653D01*
X62704766Y-26755652D01*
X62704765Y-26755652D01*
X62569842Y-26719500D01*
X62430158Y-26719500D01*
X62295235Y-26755652D01*
X62295234Y-26755652D01*
X62295232Y-26755653D01*
X62295231Y-26755653D01*
X62174267Y-26825492D01*
X62075492Y-26924267D01*
X62005653Y-27045231D01*
X62005653Y-27045232D01*
X62005652Y-27045234D01*
X62005652Y-27045235D01*
X61969500Y-27180158D01*
X61969500Y-27319842D01*
X62005652Y-27454765D01*
X62005653Y-27454767D01*
X62005653Y-27454768D01*
X62075492Y-27575732D01*
X62075494Y-27575735D01*
X62174265Y-27674506D01*
X62295235Y-27744348D01*
X62430158Y-27780500D01*
X62430160Y-27780500D01*
X62569840Y-27780500D01*
X62569842Y-27780500D01*
X62704765Y-27744348D01*
X62825735Y-27674506D01*
X62920746Y-27579494D01*
X62975261Y-27551719D01*
X62990748Y-27550500D01*
X66100500Y-27550500D01*
X66158691Y-27569407D01*
X66194655Y-27618907D01*
X66199500Y-27649500D01*
X66199500Y-37600500D01*
X66180593Y-37658691D01*
X66131093Y-37694655D01*
X66100500Y-37699500D01*
X62980748Y-37699500D01*
X62922557Y-37680593D01*
X62910750Y-37670509D01*
X62815735Y-37575494D01*
X62792118Y-37561859D01*
X62694767Y-37505653D01*
X62694766Y-37505652D01*
X62694765Y-37505652D01*
X62559842Y-37469500D01*
X62420158Y-37469500D01*
X62285235Y-37505652D01*
X62285234Y-37505652D01*
X62285232Y-37505653D01*
X62285231Y-37505653D01*
X62164267Y-37575492D01*
X62065492Y-37674267D01*
X61995653Y-37795231D01*
X61995653Y-37795232D01*
X61995652Y-37795234D01*
X61995652Y-37795235D01*
X61959500Y-37930158D01*
X59070500Y-37930158D01*
X59070500Y-37880158D01*
X59034348Y-37745235D01*
X59004968Y-37694348D01*
X58964507Y-37624267D01*
X58964506Y-37624265D01*
X58865735Y-37525494D01*
X58840097Y-37510692D01*
X58744767Y-37455653D01*
X58744766Y-37455652D01*
X58744765Y-37455652D01*
X58609842Y-37419500D01*
X58470158Y-37419500D01*
X58470155Y-37419500D01*
X58399097Y-37438539D01*
X58337996Y-37435336D01*
X58316311Y-37423740D01*
X56072335Y-35836717D01*
X56035743Y-35787680D01*
X56030500Y-35755889D01*
X56030500Y-35730159D01*
X56030500Y-35730158D01*
X55994348Y-35595235D01*
X55924506Y-35474265D01*
X55924505Y-35474264D01*
X55924353Y-35474000D01*
X55911631Y-35414152D01*
X55936518Y-35358256D01*
X55989506Y-35327663D01*
X56010089Y-35325500D01*
X58075500Y-35325500D01*
X58133691Y-35344407D01*
X58169655Y-35393907D01*
X58174500Y-35424500D01*
X58174500Y-35957147D01*
X58174500Y-36042853D01*
X58196682Y-36125638D01*
X58239535Y-36199862D01*
X58300138Y-36260465D01*
X58374362Y-36303318D01*
X58457147Y-36325500D01*
X58457149Y-36325500D01*
X63042851Y-36325500D01*
X63042853Y-36325500D01*
X63125638Y-36303318D01*
X63199862Y-36260465D01*
X63260465Y-36199862D01*
X63303318Y-36125638D01*
X63325500Y-36042853D01*
X63325500Y-34957147D01*
X63303318Y-34874362D01*
X63260465Y-34800138D01*
X63199862Y-34739535D01*
X63125638Y-34696682D01*
X63042853Y-34674500D01*
X63042851Y-34674500D01*
X58924500Y-34674500D01*
X58866309Y-34655593D01*
X58830345Y-34606093D01*
X58825500Y-34575500D01*
X58825500Y-33254171D01*
X59320000Y-33254171D01*
X59320000Y-33385828D01*
X59354074Y-33512992D01*
X59354076Y-33512996D01*
X59419899Y-33627004D01*
X59512995Y-33720100D01*
X59627003Y-33785923D01*
X59627007Y-33785925D01*
X59754171Y-33819999D01*
X59754173Y-33820000D01*
X60985827Y-33820000D01*
X60985828Y-33819999D01*
X61112992Y-33785925D01*
X61112996Y-33785923D01*
X61227004Y-33720100D01*
X61320100Y-33627004D01*
X61385923Y-33512996D01*
X61385925Y-33512992D01*
X61419999Y-33385828D01*
X61420000Y-33385826D01*
X61420000Y-33254173D01*
X61419999Y-33254171D01*
X63750000Y-33254171D01*
X63750000Y-33385828D01*
X63784074Y-33512992D01*
X63784076Y-33512996D01*
X63849899Y-33627004D01*
X63942995Y-33720100D01*
X64057003Y-33785923D01*
X64057007Y-33785925D01*
X64184171Y-33819999D01*
X64184173Y-33820000D01*
X64915827Y-33820000D01*
X64915828Y-33819999D01*
X65042992Y-33785925D01*
X65042996Y-33785923D01*
X65157004Y-33720100D01*
X65250100Y-33627004D01*
X65315923Y-33512996D01*
X65315925Y-33512992D01*
X65349999Y-33385828D01*
X65350000Y-33385826D01*
X65350000Y-33254173D01*
X65349999Y-33254171D01*
X65315925Y-33127007D01*
X65315923Y-33127003D01*
X65250100Y-33012995D01*
X65157004Y-32919899D01*
X65042996Y-32854076D01*
X65042992Y-32854074D01*
X64915828Y-32820000D01*
X64184171Y-32820000D01*
X64057007Y-32854074D01*
X64057003Y-32854076D01*
X63942995Y-32919899D01*
X63849899Y-33012995D01*
X63784076Y-33127003D01*
X63784074Y-33127007D01*
X63750000Y-33254171D01*
X61419999Y-33254171D01*
X61385925Y-33127007D01*
X61385923Y-33127003D01*
X61320100Y-33012995D01*
X61227004Y-32919899D01*
X61112996Y-32854076D01*
X61112992Y-32854074D01*
X60985828Y-32820000D01*
X59754171Y-32820000D01*
X59627007Y-32854074D01*
X59627003Y-32854076D01*
X59512995Y-32919899D01*
X59419899Y-33012995D01*
X59354076Y-33127003D01*
X59354074Y-33127007D01*
X59320000Y-33254171D01*
X58825500Y-33254171D01*
X58825500Y-31814234D01*
X60324500Y-31814234D01*
X60324500Y-31965766D01*
X60357988Y-32090748D01*
X60363720Y-32112139D01*
X60439481Y-32243360D01*
X60439483Y-32243362D01*
X60439485Y-32243365D01*
X60546635Y-32350515D01*
X60546637Y-32350516D01*
X60546639Y-32350518D01*
X60677861Y-32426279D01*
X60677859Y-32426279D01*
X60677863Y-32426280D01*
X60677865Y-32426281D01*
X60824234Y-32465500D01*
X60824236Y-32465500D01*
X60975764Y-32465500D01*
X60975766Y-32465500D01*
X61122135Y-32426281D01*
X61122137Y-32426279D01*
X61122139Y-32426279D01*
X61253360Y-32350518D01*
X61253360Y-32350517D01*
X61253365Y-32350515D01*
X61360515Y-32243365D01*
X61436281Y-32112135D01*
X61475500Y-31965766D01*
X61475500Y-31814234D01*
X61436281Y-31667865D01*
X61436279Y-31667862D01*
X61436279Y-31667860D01*
X61360518Y-31536639D01*
X61360516Y-31536637D01*
X61360515Y-31536635D01*
X61253365Y-31429485D01*
X61253362Y-31429483D01*
X61253360Y-31429481D01*
X61122138Y-31353720D01*
X61122140Y-31353720D01*
X61065347Y-31338503D01*
X60975766Y-31314500D01*
X60824234Y-31314500D01*
X60734652Y-31338503D01*
X60677860Y-31353720D01*
X60546639Y-31429481D01*
X60439481Y-31536639D01*
X60363720Y-31667860D01*
X60359328Y-31684251D01*
X60324500Y-31814234D01*
X58825500Y-31814234D01*
X58825500Y-31800539D01*
X58838763Y-31751040D01*
X58894348Y-31654765D01*
X58930500Y-31519842D01*
X58930500Y-31380158D01*
X58894348Y-31245235D01*
X58885976Y-31230735D01*
X58824507Y-31124267D01*
X58824506Y-31124265D01*
X58725735Y-31025494D01*
X58604765Y-30955652D01*
X58469842Y-30919500D01*
X58330158Y-30919500D01*
X58195235Y-30955652D01*
X58195234Y-30955652D01*
X58195232Y-30955653D01*
X58195231Y-30955653D01*
X58074267Y-31025492D01*
X57975492Y-31124267D01*
X57905653Y-31245231D01*
X57905653Y-31245232D01*
X57905652Y-31245234D01*
X57905652Y-31245235D01*
X57869500Y-31380158D01*
X57869500Y-31519842D01*
X57884412Y-31575494D01*
X57905653Y-31654767D01*
X57905653Y-31654768D01*
X57949497Y-31730707D01*
X57975494Y-31775735D01*
X58074265Y-31874506D01*
X58125000Y-31903798D01*
X58165941Y-31949267D01*
X58174500Y-31989534D01*
X58174500Y-34575500D01*
X58155593Y-34633691D01*
X58106093Y-34669655D01*
X58075500Y-34674500D01*
X55762205Y-34674500D01*
X55704014Y-34655593D01*
X55668050Y-34606093D01*
X55668050Y-34544907D01*
X55704014Y-34495407D01*
X55712693Y-34489770D01*
X55825735Y-34424506D01*
X55924506Y-34325735D01*
X55994348Y-34204765D01*
X56030500Y-34069842D01*
X56030500Y-33930158D01*
X55994348Y-33795235D01*
X55924506Y-33674265D01*
X55877245Y-33627004D01*
X55829496Y-33579254D01*
X55801719Y-33524738D01*
X55800500Y-33509251D01*
X55800500Y-30740748D01*
X55819407Y-30682557D01*
X55829490Y-30670750D01*
X55924506Y-30575735D01*
X55994348Y-30454765D01*
X56030500Y-30319842D01*
X56030500Y-30180158D01*
X55994348Y-30045235D01*
X55982131Y-30024075D01*
X55924507Y-29924267D01*
X55924506Y-29924265D01*
X55825735Y-29825494D01*
X55774213Y-29795748D01*
X55704767Y-29755653D01*
X55704766Y-29755652D01*
X55704765Y-29755652D01*
X55569842Y-29719500D01*
X55430158Y-29719500D01*
X55295235Y-29755652D01*
X55295234Y-29755652D01*
X55295232Y-29755653D01*
X55295231Y-29755653D01*
X55174267Y-29825492D01*
X55075492Y-29924267D01*
X55005653Y-30045231D01*
X55005653Y-30045232D01*
X55005652Y-30045234D01*
X55005652Y-30045235D01*
X54969500Y-30180158D01*
X54969500Y-30319842D01*
X55005652Y-30454765D01*
X55005653Y-30454767D01*
X55005653Y-30454768D01*
X55075355Y-30575494D01*
X55075494Y-30575735D01*
X55170505Y-30670746D01*
X55198281Y-30725261D01*
X55199500Y-30740748D01*
X55199500Y-33509251D01*
X55180593Y-33567442D01*
X55170504Y-33579254D01*
X55075493Y-33674265D01*
X55005653Y-33795231D01*
X55005653Y-33795232D01*
X55005652Y-33795234D01*
X55005652Y-33795235D01*
X54969500Y-33930158D01*
X54969500Y-34069842D01*
X55005652Y-34204765D01*
X55005653Y-34204767D01*
X55005653Y-34204768D01*
X55075492Y-34325732D01*
X55075494Y-34325735D01*
X55174265Y-34424506D01*
X55287296Y-34489764D01*
X55328236Y-34535233D01*
X55334632Y-34596083D01*
X55304039Y-34649071D01*
X55248143Y-34673958D01*
X55237795Y-34674500D01*
X54424500Y-34674500D01*
X54366309Y-34655593D01*
X54330345Y-34606093D01*
X54325500Y-34575500D01*
X54325500Y-25550662D01*
X54344407Y-25492471D01*
X54393907Y-25456507D01*
X54449691Y-25454922D01*
X57266920Y-26196298D01*
X57290225Y-26211285D01*
X57314415Y-26224829D01*
X57315733Y-26227688D01*
X57318381Y-26229391D01*
X57327454Y-26242528D01*
X57375494Y-26325735D01*
X57389704Y-26339945D01*
X57417480Y-26394460D01*
X57407909Y-26454892D01*
X57369199Y-26495683D01*
X57309286Y-26530274D01*
X57304691Y-26531250D01*
X57301241Y-26534441D01*
X57275143Y-26537531D01*
X57249438Y-26542996D01*
X57245144Y-26541084D01*
X57240480Y-26541637D01*
X57211010Y-26525887D01*
X57193542Y-26518110D01*
X57192240Y-26515855D01*
X57189784Y-26514543D01*
X57175735Y-26500494D01*
X57167402Y-26495683D01*
X57054767Y-26430653D01*
X57054766Y-26430652D01*
X57054765Y-26430652D01*
X56919842Y-26394500D01*
X56780158Y-26394500D01*
X56645235Y-26430652D01*
X56645234Y-26430652D01*
X56645232Y-26430653D01*
X56645231Y-26430653D01*
X56524267Y-26500492D01*
X56425492Y-26599267D01*
X56355653Y-26720231D01*
X56355653Y-26720232D01*
X56355652Y-26720234D01*
X56355652Y-26720235D01*
X56327449Y-26825494D01*
X56319500Y-26855159D01*
X56319500Y-26994840D01*
X56319763Y-26996838D01*
X56319500Y-26998257D01*
X56319500Y-27001330D01*
X56318930Y-27001330D01*
X56308613Y-27056999D01*
X56293702Y-27077612D01*
X55035325Y-28414638D01*
X55033239Y-28416788D01*
X55009539Y-28440489D01*
X55006757Y-28444114D01*
X55004060Y-28447859D01*
X54988194Y-28477367D01*
X54986739Y-28479977D01*
X54969980Y-28509006D01*
X54968219Y-28513258D01*
X54966593Y-28517549D01*
X54960164Y-28544817D01*
X54928408Y-28597116D01*
X54924312Y-28600445D01*
X54825493Y-28699265D01*
X54755653Y-28820231D01*
X54755653Y-28820232D01*
X54755652Y-28820234D01*
X54755652Y-28820235D01*
X54719500Y-28955158D01*
X54719500Y-29094842D01*
X54755652Y-29229765D01*
X54755653Y-29229767D01*
X54755653Y-29229768D01*
X54818865Y-29339254D01*
X54825494Y-29350735D01*
X54924265Y-29449506D01*
X55045235Y-29519348D01*
X55180158Y-29555500D01*
X55180160Y-29555500D01*
X55280405Y-29555500D01*
X55319842Y-29555500D01*
X55454765Y-29519348D01*
X55575735Y-29449506D01*
X55674506Y-29350735D01*
X55744348Y-29229765D01*
X55780500Y-29094842D01*
X55780500Y-28955158D01*
X55744348Y-28820235D01*
X55680231Y-28709181D01*
X55667511Y-28649336D01*
X55692398Y-28593440D01*
X55693877Y-28591833D01*
X56261470Y-27988764D01*
X56315118Y-27959350D01*
X56375813Y-27967086D01*
X56420368Y-28009021D01*
X56429186Y-28030992D01*
X56454178Y-28124265D01*
X56455653Y-28129767D01*
X56455653Y-28129768D01*
X56524784Y-28249506D01*
X56525494Y-28250735D01*
X56620505Y-28345746D01*
X56648281Y-28400261D01*
X56649500Y-28415748D01*
X56649500Y-28794332D01*
X56630593Y-28852523D01*
X56604208Y-28876282D01*
X56604410Y-28876545D01*
X56601075Y-28879103D01*
X56600010Y-28880063D01*
X56599264Y-28880493D01*
X56500493Y-28979265D01*
X56430653Y-29100231D01*
X56430653Y-29100232D01*
X56430652Y-29100234D01*
X56430652Y-29100235D01*
X56394500Y-29235158D01*
X56394500Y-29374842D01*
X56430652Y-29509765D01*
X56430653Y-29509767D01*
X56430653Y-29509768D01*
X56496898Y-29624507D01*
X56500494Y-29630735D01*
X56595505Y-29725746D01*
X56623281Y-29780261D01*
X56624500Y-29795748D01*
X56624500Y-30414251D01*
X56605593Y-30472442D01*
X56595504Y-30484254D01*
X56500493Y-30579265D01*
X56430653Y-30700231D01*
X56430653Y-30700232D01*
X56430652Y-30700234D01*
X56430652Y-30700235D01*
X56394500Y-30835158D01*
X56394500Y-30974842D01*
X56430652Y-31109765D01*
X56430653Y-31109767D01*
X56430653Y-31109768D01*
X56481546Y-31197916D01*
X56500494Y-31230735D01*
X56599265Y-31329506D01*
X56720235Y-31399348D01*
X56855158Y-31435500D01*
X56855160Y-31435500D01*
X56994840Y-31435500D01*
X56994842Y-31435500D01*
X57129765Y-31399348D01*
X57250735Y-31329506D01*
X57349506Y-31230735D01*
X57419348Y-31109765D01*
X57455500Y-30974842D01*
X57455500Y-30835158D01*
X57419348Y-30700235D01*
X57404493Y-30674506D01*
X57349506Y-30579265D01*
X57254496Y-30484254D01*
X57226719Y-30429738D01*
X57225500Y-30414251D01*
X57225500Y-29795748D01*
X57244407Y-29737557D01*
X57254490Y-29725750D01*
X57349506Y-29630735D01*
X57419348Y-29509765D01*
X57455500Y-29374842D01*
X57455500Y-29235158D01*
X57419348Y-29100235D01*
X57416234Y-29094842D01*
X57358726Y-28995235D01*
X57349506Y-28979265D01*
X57279494Y-28909253D01*
X57251719Y-28854739D01*
X57250500Y-28839252D01*
X57250500Y-28415748D01*
X57269407Y-28357557D01*
X57279490Y-28345750D01*
X57374506Y-28250735D01*
X57444348Y-28129765D01*
X57468134Y-28040991D01*
X57501457Y-27989680D01*
X57558578Y-27967753D01*
X57617679Y-27983588D01*
X57651733Y-28024533D01*
X57652407Y-28024145D01*
X57654670Y-28028064D01*
X57655225Y-28028732D01*
X57655655Y-28029772D01*
X57725492Y-28150732D01*
X57725494Y-28150735D01*
X57824265Y-28249506D01*
X57945235Y-28319348D01*
X58080158Y-28355500D01*
X58080160Y-28355500D01*
X58219841Y-28355500D01*
X58219842Y-28355500D01*
X58219842Y-28355499D01*
X58226274Y-28354653D01*
X58226633Y-28357384D01*
X58276171Y-28359978D01*
X58307847Y-28379658D01*
X59389795Y-29378379D01*
X60112218Y-30045231D01*
X60187650Y-30114860D01*
X60217584Y-30168223D01*
X60219500Y-30187606D01*
X60219500Y-30294842D01*
X60253235Y-30420744D01*
X60255653Y-30429767D01*
X60255653Y-30429768D01*
X60325492Y-30550732D01*
X60325494Y-30550735D01*
X60424265Y-30649506D01*
X60545235Y-30719348D01*
X60680158Y-30755500D01*
X60680160Y-30755500D01*
X60819840Y-30755500D01*
X60819842Y-30755500D01*
X60954765Y-30719348D01*
X61075735Y-30649506D01*
X61174506Y-30550735D01*
X61244348Y-30429765D01*
X61280500Y-30294842D01*
X61280500Y-30155158D01*
X61244348Y-30020235D01*
X61215252Y-29969840D01*
X61174507Y-29899267D01*
X61174506Y-29899265D01*
X61162723Y-29887482D01*
X61134948Y-29832968D01*
X61144519Y-29772536D01*
X61187784Y-29729271D01*
X61207100Y-29721856D01*
X61309765Y-29694348D01*
X61430735Y-29624506D01*
X61529506Y-29525735D01*
X61599348Y-29404765D01*
X61635500Y-29269842D01*
X61635500Y-29130158D01*
X61599348Y-28995235D01*
X61598850Y-28994373D01*
X61530822Y-28876545D01*
X61529506Y-28874265D01*
X61515455Y-28860214D01*
X61487680Y-28805700D01*
X61497251Y-28745268D01*
X61499700Y-28740756D01*
X61549348Y-28654765D01*
X61585500Y-28519842D01*
X61585500Y-28380158D01*
X61549348Y-28245235D01*
X61548047Y-28242982D01*
X61482683Y-28129768D01*
X61479506Y-28124265D01*
X61380735Y-28025494D01*
X61379070Y-28024533D01*
X61259767Y-27955653D01*
X61259766Y-27955652D01*
X61259765Y-27955652D01*
X61124842Y-27919500D01*
X60985158Y-27919500D01*
X60850235Y-27955652D01*
X60850234Y-27955652D01*
X60850232Y-27955653D01*
X60850231Y-27955653D01*
X60729267Y-28025492D01*
X60630493Y-28124266D01*
X60561952Y-28242982D01*
X60516482Y-28283922D01*
X60455632Y-28290317D01*
X60412838Y-28269535D01*
X58665347Y-26813293D01*
X58654729Y-26803008D01*
X58648314Y-26795790D01*
X58648312Y-26795789D01*
X58634033Y-26786385D01*
X58625109Y-26779761D01*
X58611982Y-26768822D01*
X58611981Y-26768821D01*
X58603211Y-26764768D01*
X58590305Y-26757589D01*
X58587363Y-26755652D01*
X58582232Y-26752273D01*
X58582229Y-26752272D01*
X58582227Y-26752271D01*
X58565998Y-26746882D01*
X58555665Y-26742794D01*
X58540156Y-26735626D01*
X58530629Y-26733979D01*
X58516311Y-26730386D01*
X58507145Y-26727343D01*
X58507134Y-26727341D01*
X58490081Y-26726338D01*
X58479038Y-26725063D01*
X58462190Y-26722151D01*
X58452558Y-26723026D01*
X58437792Y-26723261D01*
X58107453Y-26703830D01*
X58050473Y-26681539D01*
X58027529Y-26654500D01*
X58024508Y-26649268D01*
X58024507Y-26649267D01*
X58024506Y-26649265D01*
X58010294Y-26635053D01*
X57982519Y-26580539D01*
X57992090Y-26520107D01*
X58030798Y-26479317D01*
X58125735Y-26424506D01*
X58224506Y-26325735D01*
X58294348Y-26204765D01*
X58330500Y-26069842D01*
X58330500Y-26034234D01*
X60324500Y-26034234D01*
X60324500Y-26185766D01*
X60355395Y-26301068D01*
X60363720Y-26332139D01*
X60439481Y-26463360D01*
X60439483Y-26463362D01*
X60439485Y-26463365D01*
X60546635Y-26570515D01*
X60546637Y-26570516D01*
X60546639Y-26570518D01*
X60677861Y-26646279D01*
X60677859Y-26646279D01*
X60677863Y-26646280D01*
X60677865Y-26646281D01*
X60824234Y-26685500D01*
X60824236Y-26685500D01*
X60975764Y-26685500D01*
X60975766Y-26685500D01*
X61122135Y-26646281D01*
X61122137Y-26646279D01*
X61122139Y-26646279D01*
X61253360Y-26570518D01*
X61253360Y-26570517D01*
X61253365Y-26570515D01*
X61360515Y-26463365D01*
X61371109Y-26445016D01*
X61436279Y-26332139D01*
X61436279Y-26332137D01*
X61436281Y-26332135D01*
X61475500Y-26185766D01*
X61475500Y-26034234D01*
X61436281Y-25887865D01*
X61436279Y-25887862D01*
X61436279Y-25887860D01*
X61360518Y-25756639D01*
X61360516Y-25756637D01*
X61360515Y-25756635D01*
X61253365Y-25649485D01*
X61253362Y-25649483D01*
X61253360Y-25649481D01*
X61122138Y-25573720D01*
X61122140Y-25573720D01*
X61058372Y-25556634D01*
X60975766Y-25534500D01*
X60824234Y-25534500D01*
X60741628Y-25556634D01*
X60677860Y-25573720D01*
X60546639Y-25649481D01*
X60439481Y-25756639D01*
X60363720Y-25887860D01*
X60352387Y-25930158D01*
X60324500Y-26034234D01*
X58330500Y-26034234D01*
X58330500Y-25930158D01*
X58294348Y-25795235D01*
X58253373Y-25724265D01*
X58224507Y-25674267D01*
X58224506Y-25674265D01*
X58125735Y-25575494D01*
X58122662Y-25573720D01*
X58004767Y-25505653D01*
X58004766Y-25505652D01*
X58004765Y-25505652D01*
X57869842Y-25469500D01*
X57730158Y-25469500D01*
X57662696Y-25487576D01*
X57595233Y-25505652D01*
X57506930Y-25556634D01*
X57447082Y-25569355D01*
X57432236Y-25566637D01*
X57429055Y-25565800D01*
X56912415Y-25429842D01*
X54399305Y-24768497D01*
X54396840Y-24766912D01*
X54393907Y-24766912D01*
X54371312Y-24750495D01*
X54347842Y-24735403D01*
X54346779Y-24732671D01*
X54344407Y-24730948D01*
X54335779Y-24704394D01*
X54325660Y-24678381D01*
X54325500Y-24672757D01*
X54325500Y-24614173D01*
X59320000Y-24614173D01*
X59320000Y-24745828D01*
X59354074Y-24872992D01*
X59354076Y-24872996D01*
X59419899Y-24987004D01*
X59512995Y-25080100D01*
X59627003Y-25145923D01*
X59627007Y-25145925D01*
X59754171Y-25179999D01*
X59754173Y-25180000D01*
X60985827Y-25180000D01*
X60985828Y-25179999D01*
X61112992Y-25145925D01*
X61112996Y-25145923D01*
X61227004Y-25080100D01*
X61320100Y-24987004D01*
X61385923Y-24872996D01*
X61385925Y-24872992D01*
X61419999Y-24745828D01*
X61420000Y-24745826D01*
X61420000Y-24614173D01*
X63750000Y-24614173D01*
X63750000Y-24745828D01*
X63784074Y-24872992D01*
X63784076Y-24872996D01*
X63849899Y-24987004D01*
X63942995Y-25080100D01*
X64057003Y-25145923D01*
X64057007Y-25145925D01*
X64184171Y-25179999D01*
X64184173Y-25180000D01*
X64915827Y-25180000D01*
X64915828Y-25179999D01*
X65042992Y-25145925D01*
X65042996Y-25145923D01*
X65157004Y-25080100D01*
X65250100Y-24987004D01*
X65315923Y-24872996D01*
X65315925Y-24872992D01*
X65349999Y-24745828D01*
X65350000Y-24745826D01*
X65350000Y-24614173D01*
X65349999Y-24614168D01*
X65315925Y-24487007D01*
X65315923Y-24487003D01*
X65250100Y-24372995D01*
X65157004Y-24279899D01*
X65042996Y-24214076D01*
X65042992Y-24214074D01*
X64915828Y-24180000D01*
X64184171Y-24180000D01*
X64057007Y-24214074D01*
X64057003Y-24214076D01*
X63942995Y-24279899D01*
X63849899Y-24372995D01*
X63784076Y-24487003D01*
X63784074Y-24487007D01*
X63750001Y-24614168D01*
X63750000Y-24614173D01*
X61420000Y-24614173D01*
X61419999Y-24614168D01*
X61385925Y-24487007D01*
X61385923Y-24487003D01*
X61320100Y-24372995D01*
X61227004Y-24279899D01*
X61112996Y-24214076D01*
X61112992Y-24214074D01*
X60985828Y-24180000D01*
X59754171Y-24180000D01*
X59627007Y-24214074D01*
X59627003Y-24214076D01*
X59512995Y-24279899D01*
X59419899Y-24372995D01*
X59354076Y-24487003D01*
X59354074Y-24487007D01*
X59320001Y-24614168D01*
X59320000Y-24614173D01*
X54325500Y-24614173D01*
X54325500Y-22465748D01*
X54344407Y-22407557D01*
X54354490Y-22395750D01*
X54424506Y-22325735D01*
X54494348Y-22204765D01*
X54530500Y-22069842D01*
X54530500Y-21930158D01*
X54494348Y-21795235D01*
X54474138Y-21760231D01*
X54424507Y-21674267D01*
X54424506Y-21674265D01*
X54325735Y-21575494D01*
X54292131Y-21556093D01*
X54204767Y-21505653D01*
X54204766Y-21505652D01*
X54204765Y-21505652D01*
X54069842Y-21469500D01*
X53930158Y-21469500D01*
X53795235Y-21505652D01*
X53795234Y-21505652D01*
X53795232Y-21505653D01*
X53795231Y-21505653D01*
X53674267Y-21575492D01*
X53575492Y-21674267D01*
X53505653Y-21795231D01*
X53505653Y-21795232D01*
X53505652Y-21795234D01*
X53505652Y-21795235D01*
X53469500Y-21930158D01*
X53469500Y-22069842D01*
X53496275Y-22169768D01*
X53505653Y-22204767D01*
X53505653Y-22204768D01*
X53566935Y-22310911D01*
X53575494Y-22325735D01*
X53645505Y-22395746D01*
X53673281Y-22450261D01*
X53674500Y-22465748D01*
X53674500Y-24950856D01*
X53674291Y-24954159D01*
X53674311Y-24958604D01*
X53674500Y-25000786D01*
X53674500Y-35042853D01*
X53696682Y-35125638D01*
X53739535Y-35199862D01*
X53800138Y-35260465D01*
X53874362Y-35303318D01*
X53957147Y-35325500D01*
X54042853Y-35325500D01*
X54989911Y-35325500D01*
X55048102Y-35344407D01*
X55084066Y-35393907D01*
X55084066Y-35455093D01*
X55075647Y-35474000D01*
X55005653Y-35595232D01*
X55005652Y-35595234D01*
X55005652Y-35595235D01*
X54969500Y-35730158D01*
X54969500Y-35869842D01*
X55005652Y-36004765D01*
X55005653Y-36004767D01*
X55005653Y-36004768D01*
X55075437Y-36125637D01*
X55075494Y-36125735D01*
X55174265Y-36224506D01*
X55295235Y-36294348D01*
X55430158Y-36330500D01*
X55430160Y-36330500D01*
X55569843Y-36330500D01*
X55569843Y-36330499D01*
X55640899Y-36311460D01*
X55702001Y-36314661D01*
X55723688Y-36326258D01*
X57967666Y-37913282D01*
X58004257Y-37962318D01*
X58009500Y-37994109D01*
X58009500Y-38019842D01*
X58033624Y-38109878D01*
X58030422Y-38170979D01*
X57991917Y-38218529D01*
X57937998Y-38234500D01*
X57805158Y-38234500D01*
X57670235Y-38270652D01*
X57670234Y-38270652D01*
X57670232Y-38270653D01*
X57670231Y-38270653D01*
X57549267Y-38340492D01*
X57450492Y-38439267D01*
X57380653Y-38560231D01*
X57380653Y-38560232D01*
X57380652Y-38560234D01*
X57380652Y-38560235D01*
X57344500Y-38695158D01*
X57344500Y-38834842D01*
X57379589Y-38965796D01*
X57380653Y-38969767D01*
X57380653Y-38969768D01*
X57425568Y-39047562D01*
X57450494Y-39090735D01*
X57468307Y-39108548D01*
X57496083Y-39163063D01*
X57495863Y-39195371D01*
X57006230Y-42035242D01*
X56977710Y-42089374D01*
X56922819Y-42116405D01*
X56862524Y-42106009D01*
X56838668Y-42088427D01*
X56825735Y-42075494D01*
X56825732Y-42075492D01*
X56704768Y-42005653D01*
X56704761Y-42005650D01*
X56613863Y-41981294D01*
X56562549Y-41947970D01*
X56550941Y-41929945D01*
X55810952Y-40449965D01*
X55800500Y-40405691D01*
X55800500Y-39845618D01*
X55801095Y-39834779D01*
X55801273Y-39833162D01*
X55800522Y-39797842D01*
X55800500Y-39795737D01*
X55800500Y-39760443D01*
X55800500Y-39760438D01*
X55800498Y-39760433D01*
X55800287Y-39758826D01*
X55800252Y-39758374D01*
X55800242Y-39758305D01*
X55799935Y-39756150D01*
X55799930Y-39756112D01*
X55799839Y-39755679D01*
X55799591Y-39754064D01*
X55799591Y-39754058D01*
X55789714Y-39720106D01*
X55789156Y-39718106D01*
X55786252Y-39707267D01*
X55780021Y-39684011D01*
X55780017Y-39684004D01*
X55779402Y-39682518D01*
X55779253Y-39682094D01*
X55779212Y-39682000D01*
X55778385Y-39680063D01*
X55778337Y-39679948D01*
X55778137Y-39679553D01*
X55777493Y-39678090D01*
X55777492Y-39678084D01*
X55759172Y-39647856D01*
X55758144Y-39646119D01*
X55740460Y-39615489D01*
X55740457Y-39615486D01*
X55739466Y-39614194D01*
X55739207Y-39613816D01*
X55739129Y-39613718D01*
X55737843Y-39612079D01*
X55737794Y-39612015D01*
X55737508Y-39611696D01*
X55736481Y-39610416D01*
X55710991Y-39585987D01*
X55709486Y-39584515D01*
X55684508Y-39559537D01*
X55683207Y-39558539D01*
X55682873Y-39558252D01*
X55682809Y-39558205D01*
X55681151Y-39556961D01*
X55681057Y-39556889D01*
X55680679Y-39556642D01*
X55679354Y-39555669D01*
X55648432Y-39538683D01*
X55646600Y-39537651D01*
X55615986Y-39519977D01*
X55614455Y-39519343D01*
X55614068Y-39519157D01*
X55614000Y-39519131D01*
X55612062Y-39518352D01*
X55611966Y-39518312D01*
X55611535Y-39518171D01*
X55610004Y-39517574D01*
X55575747Y-39509172D01*
X55573709Y-39508649D01*
X55539560Y-39499499D01*
X55537925Y-39499284D01*
X55537497Y-39499204D01*
X55537406Y-39499194D01*
X55535381Y-39498949D01*
X55535237Y-39498930D01*
X55534779Y-39498905D01*
X55533162Y-39498726D01*
X55497843Y-39499478D01*
X55495738Y-39499500D01*
X55460432Y-39499500D01*
X55458773Y-39499718D01*
X55458336Y-39499751D01*
X55458269Y-39499762D01*
X55456206Y-39500056D01*
X55456138Y-39500064D01*
X55455712Y-39500154D01*
X55454058Y-39500407D01*
X55420150Y-39510271D01*
X55418126Y-39510837D01*
X55384003Y-39519981D01*
X55382483Y-39520611D01*
X55382065Y-39520757D01*
X55381999Y-39520787D01*
X55380083Y-39521605D01*
X55379995Y-39521641D01*
X55379596Y-39521843D01*
X55378083Y-39522507D01*
X55347893Y-39540803D01*
X55346090Y-39541870D01*
X55315493Y-39559536D01*
X55314190Y-39560537D01*
X55305243Y-39566653D01*
X54112479Y-40289539D01*
X54052915Y-40303529D01*
X54035545Y-40300501D01*
X53942687Y-40275621D01*
X53919842Y-40269500D01*
X53780158Y-40269500D01*
X53645235Y-40305652D01*
X53645234Y-40305652D01*
X53645232Y-40305653D01*
X53645231Y-40305653D01*
X53524267Y-40375492D01*
X53425492Y-40474267D01*
X53355653Y-40595231D01*
X53355653Y-40595232D01*
X53355652Y-40595234D01*
X53355652Y-40595235D01*
X53319500Y-40730158D01*
X53319500Y-40869842D01*
X53354508Y-41000494D01*
X53355653Y-41004767D01*
X53355653Y-41004768D01*
X53424918Y-41124738D01*
X53425494Y-41125735D01*
X53524265Y-41224506D01*
X53645235Y-41294348D01*
X53780158Y-41330500D01*
X53780160Y-41330500D01*
X53919840Y-41330500D01*
X53919842Y-41330500D01*
X54054765Y-41294348D01*
X54175735Y-41224506D01*
X54274506Y-41125735D01*
X54344348Y-41004765D01*
X54380500Y-40869842D01*
X54380500Y-40869840D01*
X54382179Y-40863574D01*
X54384468Y-40864187D01*
X54406339Y-40818306D01*
X54426852Y-40801772D01*
X55047867Y-40425399D01*
X55107429Y-40411410D01*
X55163842Y-40435102D01*
X55195554Y-40487427D01*
X55197999Y-40515995D01*
X55197669Y-40521481D01*
X55197885Y-40524512D01*
X55199109Y-40536593D01*
X55199499Y-40539562D01*
X55206638Y-40566200D01*
X55208002Y-40571979D01*
X55213530Y-40598996D01*
X55214505Y-40601818D01*
X55218842Y-40613244D01*
X55219978Y-40615986D01*
X55219979Y-40615989D01*
X55225465Y-40625492D01*
X55233772Y-40639881D01*
X55236582Y-40645104D01*
X56011838Y-42195615D01*
X56020951Y-42256118D01*
X56009029Y-42289384D01*
X56005654Y-42295230D01*
X56005653Y-42295230D01*
X56005652Y-42295235D01*
X55969500Y-42430158D01*
X55969500Y-42569842D01*
X56005652Y-42704765D01*
X56005653Y-42704767D01*
X56005653Y-42704768D01*
X56075492Y-42825732D01*
X56075494Y-42825735D01*
X56174265Y-42924506D01*
X56295235Y-42994348D01*
X56430158Y-43030500D01*
X56430160Y-43030500D01*
X56569840Y-43030500D01*
X56569842Y-43030500D01*
X56697986Y-42996164D01*
X56759083Y-42999366D01*
X56806633Y-43037871D01*
X56822469Y-43096972D01*
X56821166Y-43108612D01*
X56506959Y-44931014D01*
X56505026Y-44939811D01*
X56499500Y-44960436D01*
X56499500Y-44965809D01*
X56498061Y-44982625D01*
X56497146Y-44987927D01*
X56499090Y-45009204D01*
X56499500Y-45018208D01*
X56499500Y-50166229D01*
X56480593Y-50224420D01*
X56431093Y-50260384D01*
X56369907Y-50260384D01*
X56320408Y-50224420D01*
X56315694Y-50217932D01*
X56315692Y-50217930D01*
X56315690Y-50217927D01*
X56182073Y-50084310D01*
X56029199Y-49973240D01*
X56029198Y-49973239D01*
X56029196Y-49973238D01*
X55860832Y-49887453D01*
X55681113Y-49829058D01*
X55494484Y-49799500D01*
X55494481Y-49799500D01*
X55305519Y-49799500D01*
X55305516Y-49799500D01*
X55118886Y-49829058D01*
X54939164Y-49887454D01*
X54853046Y-49931333D01*
X54792614Y-49940904D01*
X54738098Y-49913127D01*
X47066097Y-42241126D01*
X47038320Y-42186609D01*
X47047891Y-42126177D01*
X47091156Y-42082912D01*
X47110479Y-42075496D01*
X47114765Y-42074348D01*
X47235735Y-42004506D01*
X47334506Y-41905735D01*
X47404348Y-41784765D01*
X47440500Y-41649842D01*
X47440500Y-41510158D01*
X47404348Y-41375235D01*
X47378323Y-41330159D01*
X47334506Y-41254265D01*
X47239496Y-41159254D01*
X47211719Y-41104738D01*
X47210500Y-41089251D01*
X47210500Y-40069839D01*
X48694499Y-40069839D01*
X48730653Y-40204767D01*
X48730653Y-40204768D01*
X48789658Y-40306967D01*
X48800494Y-40325735D01*
X48895505Y-40420746D01*
X48923281Y-40475261D01*
X48924500Y-40490748D01*
X48924500Y-41109251D01*
X48905593Y-41167442D01*
X48895504Y-41179254D01*
X48800493Y-41274265D01*
X48730653Y-41395231D01*
X48730653Y-41395232D01*
X48730652Y-41395234D01*
X48730652Y-41395235D01*
X48694500Y-41530158D01*
X48694500Y-41669842D01*
X48729508Y-41800494D01*
X48730653Y-41804767D01*
X48730653Y-41804768D01*
X48787973Y-41904048D01*
X48800494Y-41925735D01*
X48899265Y-42024506D01*
X49020235Y-42094348D01*
X49155158Y-42130500D01*
X49155160Y-42130500D01*
X49294840Y-42130500D01*
X49294842Y-42130500D01*
X49429765Y-42094348D01*
X49550735Y-42024506D01*
X49649506Y-41925735D01*
X49719348Y-41804765D01*
X49755500Y-41669842D01*
X49755500Y-41530158D01*
X49719348Y-41395235D01*
X49707799Y-41375232D01*
X49649506Y-41274265D01*
X49554496Y-41179254D01*
X49526719Y-41124738D01*
X49525500Y-41109251D01*
X49525500Y-40490748D01*
X49544407Y-40432557D01*
X49554490Y-40420750D01*
X49649506Y-40325735D01*
X49719348Y-40204765D01*
X49755500Y-40069842D01*
X49755500Y-39930158D01*
X49719348Y-39795235D01*
X49713883Y-39785770D01*
X49649507Y-39674267D01*
X49649506Y-39674265D01*
X49550735Y-39575494D01*
X49518510Y-39556889D01*
X49429767Y-39505653D01*
X49429766Y-39505652D01*
X49429765Y-39505652D01*
X49294842Y-39469500D01*
X49155158Y-39469500D01*
X49020235Y-39505652D01*
X49020234Y-39505652D01*
X49020232Y-39505653D01*
X49020231Y-39505653D01*
X48899267Y-39575492D01*
X48800492Y-39674267D01*
X48730653Y-39795231D01*
X48730653Y-39795232D01*
X48730652Y-39795234D01*
X48730652Y-39795235D01*
X48720057Y-39834779D01*
X48694500Y-39930159D01*
X48694500Y-40069838D01*
X48694499Y-40069839D01*
X47210500Y-40069839D01*
X47210500Y-30490748D01*
X47229407Y-30432557D01*
X47239490Y-30420750D01*
X47334506Y-30325735D01*
X47404348Y-30204765D01*
X47440500Y-30069842D01*
X47440500Y-29930158D01*
X47404348Y-29795235D01*
X47361981Y-29721854D01*
X47334507Y-29674267D01*
X47334506Y-29674265D01*
X47235735Y-29575494D01*
X47234025Y-29574507D01*
X47114767Y-29505653D01*
X47114766Y-29505652D01*
X47114765Y-29505652D01*
X46979842Y-29469500D01*
X46840158Y-29469500D01*
X46705235Y-29505652D01*
X46705234Y-29505652D01*
X46705232Y-29505653D01*
X46705231Y-29505653D01*
X46584267Y-29575492D01*
X46485492Y-29674267D01*
X46415653Y-29795231D01*
X46415653Y-29795232D01*
X46415652Y-29795234D01*
X46415652Y-29795235D01*
X46379500Y-29930158D01*
X46379500Y-30069842D01*
X46415652Y-30204765D01*
X46415653Y-30204767D01*
X46415653Y-30204768D01*
X46484784Y-30324506D01*
X46485494Y-30325735D01*
X46580505Y-30420746D01*
X46608281Y-30475261D01*
X46609500Y-30490748D01*
X46609500Y-31595252D01*
X46590593Y-31653443D01*
X46541093Y-31689407D01*
X46479907Y-31689407D01*
X46440498Y-31665257D01*
X46350735Y-31575494D01*
X46283429Y-31536635D01*
X46229767Y-31505653D01*
X46229766Y-31505652D01*
X46229765Y-31505652D01*
X46094842Y-31469500D01*
X45955158Y-31469500D01*
X45820235Y-31505652D01*
X45820234Y-31505652D01*
X45820232Y-31505653D01*
X45820231Y-31505653D01*
X45699267Y-31575492D01*
X45600492Y-31674267D01*
X45595235Y-31683373D01*
X45549765Y-31724313D01*
X45488914Y-31730707D01*
X45435927Y-31700113D01*
X45411042Y-31644217D01*
X45410500Y-31633871D01*
X45410500Y-28565477D01*
X45429407Y-28507286D01*
X45439484Y-28495486D01*
X45844635Y-28090334D01*
X45899150Y-28062559D01*
X45940257Y-28064712D01*
X46055158Y-28095500D01*
X46055160Y-28095500D01*
X46194840Y-28095500D01*
X46194842Y-28095500D01*
X46329765Y-28059348D01*
X46450735Y-27989506D01*
X46549506Y-27890735D01*
X46619348Y-27769765D01*
X46655500Y-27634842D01*
X46655500Y-27495158D01*
X46619348Y-27360235D01*
X46600585Y-27327737D01*
X46549506Y-27239265D01*
X46454496Y-27144254D01*
X46426719Y-27089738D01*
X46425500Y-27074251D01*
X46425500Y-23635748D01*
X46444407Y-23577557D01*
X46454490Y-23565750D01*
X46549506Y-23470735D01*
X46619348Y-23349765D01*
X46655500Y-23214842D01*
X46655500Y-23075158D01*
X46647462Y-23045158D01*
X48794500Y-23045158D01*
X48794500Y-23184842D01*
X48830652Y-23319765D01*
X48830653Y-23319767D01*
X48830653Y-23319768D01*
X48894205Y-23429842D01*
X48900494Y-23440735D01*
X48999265Y-23539506D01*
X49120235Y-23609348D01*
X49255158Y-23645500D01*
X49255160Y-23645500D01*
X49394840Y-23645500D01*
X49394842Y-23645500D01*
X49529765Y-23609348D01*
X49650735Y-23539506D01*
X49749506Y-23440735D01*
X49819348Y-23319765D01*
X49855500Y-23184842D01*
X49855500Y-23045158D01*
X49819348Y-22910235D01*
X49778776Y-22839963D01*
X49766055Y-22780116D01*
X49790941Y-22724220D01*
X49794479Y-22720492D01*
X49990475Y-22524494D01*
X50044990Y-22496719D01*
X50060477Y-22495500D01*
X50194840Y-22495500D01*
X50194842Y-22495500D01*
X50329765Y-22459348D01*
X50450735Y-22389506D01*
X50549506Y-22290735D01*
X50619348Y-22169765D01*
X50655500Y-22034842D01*
X50655500Y-21895158D01*
X50619348Y-21760235D01*
X50549506Y-21639265D01*
X50450735Y-21540494D01*
X50329765Y-21470652D01*
X50194842Y-21434500D01*
X50055158Y-21434500D01*
X49920235Y-21470652D01*
X49920234Y-21470652D01*
X49920232Y-21470653D01*
X49920231Y-21470653D01*
X49799267Y-21540492D01*
X49700492Y-21639267D01*
X49630653Y-21760231D01*
X49630653Y-21760232D01*
X49594500Y-21895159D01*
X49594500Y-22029521D01*
X49575593Y-22087712D01*
X49565509Y-22099518D01*
X49140489Y-22524540D01*
X49140488Y-22524539D01*
X49084540Y-22580487D01*
X49045174Y-22648672D01*
X49008946Y-22684903D01*
X48999263Y-22690494D01*
X48900493Y-22789265D01*
X48830653Y-22910231D01*
X48830653Y-22910232D01*
X48830652Y-22910234D01*
X48830652Y-22910235D01*
X48794500Y-23045158D01*
X46647462Y-23045158D01*
X46619348Y-22940235D01*
X46594301Y-22896853D01*
X46562873Y-22842418D01*
X46549506Y-22819265D01*
X46450735Y-22720494D01*
X46450676Y-22720460D01*
X46329767Y-22650653D01*
X46329766Y-22650652D01*
X46329765Y-22650652D01*
X46194842Y-22614500D01*
X46055158Y-22614500D01*
X45920235Y-22650652D01*
X45920234Y-22650652D01*
X45920232Y-22650653D01*
X45920231Y-22650653D01*
X45799267Y-22720492D01*
X45700492Y-22819267D01*
X45630653Y-22940231D01*
X45630653Y-22940232D01*
X45630652Y-22940234D01*
X45630652Y-22940235D01*
X45594500Y-23075158D01*
X45594500Y-23214842D01*
X45630652Y-23349765D01*
X45630653Y-23349767D01*
X45630653Y-23349768D01*
X45691275Y-23454767D01*
X45700494Y-23470735D01*
X45795505Y-23565746D01*
X45823281Y-23620261D01*
X45824500Y-23635748D01*
X45824500Y-27074251D01*
X45805593Y-27132442D01*
X45795504Y-27144254D01*
X45700493Y-27239265D01*
X45630653Y-27360230D01*
X45603060Y-27463210D01*
X45577437Y-27507591D01*
X44925489Y-28159540D01*
X44925488Y-28159539D01*
X44869539Y-28215489D01*
X44829980Y-28284007D01*
X44829978Y-28284011D01*
X44808226Y-28365190D01*
X44774902Y-28416504D01*
X44717780Y-28438430D01*
X44658680Y-28422594D01*
X44620175Y-28375044D01*
X44613600Y-28339566D01*
X44613600Y-26587048D01*
X44632507Y-26528857D01*
X44642590Y-26517050D01*
X44737606Y-26422035D01*
X44807448Y-26301065D01*
X44843600Y-26166142D01*
X44843600Y-26026458D01*
X44807448Y-25891535D01*
X44806850Y-25890500D01*
X44737607Y-25770567D01*
X44737606Y-25770565D01*
X44638835Y-25671794D01*
X44607050Y-25653443D01*
X44517867Y-25601953D01*
X44517866Y-25601952D01*
X44517865Y-25601952D01*
X44382942Y-25565800D01*
X44243258Y-25565800D01*
X44108335Y-25601952D01*
X44108334Y-25601952D01*
X44108332Y-25601953D01*
X44108331Y-25601953D01*
X43987367Y-25671792D01*
X43987365Y-25671793D01*
X43987365Y-25671794D01*
X43959501Y-25699657D01*
X43904987Y-25727433D01*
X43844555Y-25717862D01*
X43801290Y-25674597D01*
X43790500Y-25629652D01*
X43790500Y-18430158D01*
X44144500Y-18430158D01*
X44144500Y-18569842D01*
X44171294Y-18669840D01*
X44180653Y-18704767D01*
X44180653Y-18704768D01*
X44250492Y-18825732D01*
X44250494Y-18825735D01*
X44349265Y-18924506D01*
X44470235Y-18994348D01*
X44605158Y-19030500D01*
X44605160Y-19030500D01*
X44744840Y-19030500D01*
X44744842Y-19030500D01*
X44879765Y-18994348D01*
X45000735Y-18924506D01*
X45095746Y-18829494D01*
X45150261Y-18801719D01*
X45165748Y-18800500D01*
X52400500Y-18800500D01*
X52458691Y-18819407D01*
X52494655Y-18868907D01*
X52499500Y-18899500D01*
X52499500Y-23587940D01*
X52480593Y-23646131D01*
X52431093Y-23682095D01*
X52369907Y-23682095D01*
X52320407Y-23646131D01*
X52302847Y-23604216D01*
X52301543Y-23596390D01*
X52101676Y-22397190D01*
X52110760Y-22336685D01*
X52129323Y-22310916D01*
X52149506Y-22290735D01*
X52219348Y-22169765D01*
X52255500Y-22034842D01*
X52255500Y-21895158D01*
X52219348Y-21760235D01*
X52149506Y-21639265D01*
X52050735Y-21540494D01*
X51929765Y-21470652D01*
X51794842Y-21434500D01*
X51655158Y-21434500D01*
X51520235Y-21470652D01*
X51520234Y-21470652D01*
X51520232Y-21470653D01*
X51520231Y-21470653D01*
X51399267Y-21540492D01*
X51300492Y-21639267D01*
X51230653Y-21760231D01*
X51230653Y-21760232D01*
X51230652Y-21760234D01*
X51230652Y-21760235D01*
X51194500Y-21895158D01*
X51194500Y-22034842D01*
X51211832Y-22099525D01*
X51230653Y-22169767D01*
X51230653Y-22169768D01*
X51265751Y-22230559D01*
X51300494Y-22290735D01*
X51399265Y-22389506D01*
X51460412Y-22424809D01*
X51501354Y-22470279D01*
X51508566Y-22494271D01*
X51748322Y-23932807D01*
X51739238Y-23993314D01*
X51720674Y-24019084D01*
X51700493Y-24039264D01*
X51630653Y-24160231D01*
X51630653Y-24160232D01*
X51630652Y-24160234D01*
X51630652Y-24160235D01*
X51594500Y-24295158D01*
X51594500Y-24434842D01*
X51618786Y-24525479D01*
X51630653Y-24569767D01*
X51630653Y-24569768D01*
X51700492Y-24690732D01*
X51700494Y-24690735D01*
X51799265Y-24789506D01*
X51920235Y-24859348D01*
X52055158Y-24895500D01*
X52055160Y-24895500D01*
X52194840Y-24895500D01*
X52194842Y-24895500D01*
X52329765Y-24859348D01*
X52351000Y-24847087D01*
X52410848Y-24834366D01*
X52466743Y-24859252D01*
X52497336Y-24912240D01*
X52499500Y-24932824D01*
X52499500Y-28016192D01*
X52480593Y-28074383D01*
X52431093Y-28110347D01*
X52369907Y-28110347D01*
X52320407Y-28074383D01*
X52314764Y-28065692D01*
X52299507Y-28039267D01*
X52299506Y-28039265D01*
X52200735Y-27940494D01*
X52164372Y-27919500D01*
X52079767Y-27870653D01*
X52079766Y-27870652D01*
X52079765Y-27870652D01*
X51944842Y-27834500D01*
X51805158Y-27834500D01*
X51670235Y-27870652D01*
X51670234Y-27870652D01*
X51670232Y-27870653D01*
X51670231Y-27870653D01*
X51549267Y-27940492D01*
X51549265Y-27940493D01*
X51549265Y-27940494D01*
X51544501Y-27945257D01*
X51489987Y-27973033D01*
X51429555Y-27963462D01*
X51386290Y-27920197D01*
X51375500Y-27875252D01*
X51375500Y-27585748D01*
X51394407Y-27527557D01*
X51404490Y-27515750D01*
X51499506Y-27420735D01*
X51569348Y-27299765D01*
X51605500Y-27164842D01*
X51605500Y-27025158D01*
X51569348Y-26890235D01*
X51499506Y-26769265D01*
X51400735Y-26670494D01*
X51368342Y-26651792D01*
X51279767Y-26600653D01*
X51279766Y-26600652D01*
X51279765Y-26600652D01*
X51144842Y-26564500D01*
X51005158Y-26564500D01*
X50870235Y-26600652D01*
X50870234Y-26600652D01*
X50870232Y-26600653D01*
X50870231Y-26600653D01*
X50749267Y-26670492D01*
X50650492Y-26769267D01*
X50580653Y-26890231D01*
X50580653Y-26890232D01*
X50580652Y-26890234D01*
X50580652Y-26890235D01*
X50544500Y-27025158D01*
X50544500Y-27164842D01*
X50580652Y-27299765D01*
X50580653Y-27299767D01*
X50580653Y-27299768D01*
X50641118Y-27404496D01*
X50650494Y-27420735D01*
X50745505Y-27515746D01*
X50773281Y-27570261D01*
X50774500Y-27585748D01*
X50774500Y-35004251D01*
X50755593Y-35062442D01*
X50745504Y-35074254D01*
X50650493Y-35169265D01*
X50580653Y-35290231D01*
X50580653Y-35290232D01*
X50580652Y-35290234D01*
X50580652Y-35290235D01*
X50544500Y-35425158D01*
X50544500Y-35564842D01*
X50575500Y-35680537D01*
X50580653Y-35699767D01*
X50580653Y-35699768D01*
X50642639Y-35807130D01*
X50650494Y-35820735D01*
X50749265Y-35919506D01*
X50870235Y-35989348D01*
X51005158Y-36025500D01*
X51005160Y-36025500D01*
X51144840Y-36025500D01*
X51144842Y-36025500D01*
X51279765Y-35989348D01*
X51400735Y-35919506D01*
X51405498Y-35914742D01*
X51460013Y-35886967D01*
X51520445Y-35896538D01*
X51563710Y-35939803D01*
X51574500Y-35984748D01*
X51574500Y-38274251D01*
X51555593Y-38332442D01*
X51545504Y-38344254D01*
X51450493Y-38439265D01*
X51380653Y-38560231D01*
X51380653Y-38560232D01*
X51380652Y-38560234D01*
X51380652Y-38560235D01*
X51344500Y-38695158D01*
X51344500Y-38834842D01*
X51379589Y-38965796D01*
X51380653Y-38969767D01*
X51380653Y-38969768D01*
X51425568Y-39047562D01*
X51450494Y-39090735D01*
X51549265Y-39189506D01*
X51670235Y-39259348D01*
X51805158Y-39295500D01*
X51805160Y-39295500D01*
X51944840Y-39295500D01*
X51944842Y-39295500D01*
X52079765Y-39259348D01*
X52200735Y-39189506D01*
X52299506Y-39090735D01*
X52314764Y-39064306D01*
X52360232Y-39023366D01*
X52421082Y-39016970D01*
X52474071Y-39047562D01*
X52498958Y-39103458D01*
X52499500Y-39113807D01*
X52499500Y-44839564D01*
X52519978Y-44915988D01*
X52519980Y-44915992D01*
X52548742Y-44965809D01*
X52559540Y-44984511D01*
X52615489Y-45040460D01*
X52615491Y-45040461D01*
X52684007Y-45080019D01*
X52684011Y-45080021D01*
X52760435Y-45100499D01*
X52760437Y-45100500D01*
X52760438Y-45100500D01*
X53009252Y-45100500D01*
X53067443Y-45119407D01*
X53079249Y-45129490D01*
X53174265Y-45224506D01*
X53295235Y-45294348D01*
X53430158Y-45330500D01*
X53430160Y-45330500D01*
X53569840Y-45330500D01*
X53569842Y-45330500D01*
X53704765Y-45294348D01*
X53825735Y-45224506D01*
X53924506Y-45125735D01*
X53994348Y-45004765D01*
X54030500Y-44869842D01*
X54030500Y-44730158D01*
X53994348Y-44595235D01*
X53989111Y-44586165D01*
X53924507Y-44474267D01*
X53924506Y-44474265D01*
X53825735Y-44375494D01*
X53751000Y-44332346D01*
X53704767Y-44305653D01*
X53704766Y-44305652D01*
X53704765Y-44305652D01*
X53569842Y-44269500D01*
X53430158Y-44269500D01*
X53362696Y-44287576D01*
X53295233Y-44305652D01*
X53248999Y-44332346D01*
X53189151Y-44345067D01*
X53133256Y-44320180D01*
X53102663Y-44267192D01*
X53100500Y-44246609D01*
X53100500Y-36244266D01*
X53101673Y-36233684D01*
X53101289Y-36233650D01*
X53101871Y-36227184D01*
X53100584Y-36195880D01*
X53100500Y-36191812D01*
X53100500Y-36153949D01*
X53102864Y-36153949D01*
X53112124Y-36103946D01*
X53113354Y-36101748D01*
X53169348Y-36004765D01*
X53205500Y-35869842D01*
X53205500Y-35730158D01*
X53169348Y-35595235D01*
X53151799Y-35564840D01*
X53099507Y-35474267D01*
X53099506Y-35474265D01*
X53000735Y-35375494D01*
X52984826Y-35366309D01*
X52879767Y-35305653D01*
X52879766Y-35305652D01*
X52879765Y-35305652D01*
X52744842Y-35269500D01*
X52605158Y-35269500D01*
X52470235Y-35305652D01*
X52470234Y-35305652D01*
X52470232Y-35305653D01*
X52470231Y-35305653D01*
X52349267Y-35375492D01*
X52349265Y-35375493D01*
X52349265Y-35375494D01*
X52344501Y-35380257D01*
X52289987Y-35408033D01*
X52229555Y-35398462D01*
X52186290Y-35355197D01*
X52175500Y-35310252D01*
X52175500Y-33793807D01*
X52194407Y-33735616D01*
X52243907Y-33699652D01*
X52305093Y-33699652D01*
X52354593Y-33735616D01*
X52360231Y-33744299D01*
X52375494Y-33770735D01*
X52474265Y-33869506D01*
X52595235Y-33939348D01*
X52730158Y-33975500D01*
X52730160Y-33975500D01*
X52869840Y-33975500D01*
X52869842Y-33975500D01*
X53004765Y-33939348D01*
X53125735Y-33869506D01*
X53224506Y-33770735D01*
X53294348Y-33649765D01*
X53330500Y-33514842D01*
X53330500Y-33375158D01*
X53294348Y-33240235D01*
X53224506Y-33119265D01*
X53185181Y-33079940D01*
X53129496Y-33024254D01*
X53101719Y-32969738D01*
X53100500Y-32954251D01*
X53100500Y-32665748D01*
X53119407Y-32607557D01*
X53129490Y-32595750D01*
X53224506Y-32500735D01*
X53294348Y-32379765D01*
X53330500Y-32244842D01*
X53330500Y-32105158D01*
X53294348Y-31970235D01*
X53282804Y-31950241D01*
X53224506Y-31849265D01*
X53129496Y-31754254D01*
X53101719Y-31699738D01*
X53100500Y-31684251D01*
X53100500Y-31360748D01*
X53119407Y-31302557D01*
X53129490Y-31290750D01*
X53224506Y-31195735D01*
X53294348Y-31074765D01*
X53330500Y-30939842D01*
X53330500Y-30800158D01*
X53294348Y-30665235D01*
X53288535Y-30655167D01*
X53224506Y-30544265D01*
X53129496Y-30449254D01*
X53101719Y-30394738D01*
X53100500Y-30379251D01*
X53100500Y-30075748D01*
X53119407Y-30017557D01*
X53129490Y-30005750D01*
X53224506Y-29910735D01*
X53294348Y-29789765D01*
X53330500Y-29654842D01*
X53330500Y-29515158D01*
X53294348Y-29380235D01*
X53293276Y-29378379D01*
X53224506Y-29259265D01*
X53129496Y-29164254D01*
X53101719Y-29109738D01*
X53100500Y-29094251D01*
X53100500Y-18460437D01*
X53100499Y-18460435D01*
X53093393Y-18433917D01*
X53080021Y-18384011D01*
X53065502Y-18358864D01*
X53053647Y-18338329D01*
X53040460Y-18315489D01*
X52984511Y-18259540D01*
X52984508Y-18259538D01*
X52915992Y-18219980D01*
X52915988Y-18219978D01*
X52839564Y-18199500D01*
X52839562Y-18199500D01*
X45165748Y-18199500D01*
X45107557Y-18180593D01*
X45095750Y-18170509D01*
X45000735Y-18075494D01*
X44990945Y-18069842D01*
X44879767Y-18005653D01*
X44879766Y-18005652D01*
X44879765Y-18005652D01*
X44744842Y-17969500D01*
X44605158Y-17969500D01*
X44470235Y-18005652D01*
X44470234Y-18005652D01*
X44470232Y-18005653D01*
X44470231Y-18005653D01*
X44349267Y-18075492D01*
X44250492Y-18174267D01*
X44180653Y-18295231D01*
X44180653Y-18295232D01*
X44180652Y-18295234D01*
X44180652Y-18295235D01*
X44144500Y-18430158D01*
X43790500Y-18430158D01*
X43790500Y-15930158D01*
X52919500Y-15930158D01*
X52919500Y-16069842D01*
X52955652Y-16204765D01*
X52955653Y-16204767D01*
X52955653Y-16204768D01*
X53007883Y-16295232D01*
X53025494Y-16325735D01*
X53029755Y-16329996D01*
X53029759Y-16330000D01*
X53057533Y-16384519D01*
X53047958Y-16444950D01*
X53029759Y-16470000D01*
X53025493Y-16474266D01*
X52955653Y-16595231D01*
X52955653Y-16595232D01*
X52955652Y-16595234D01*
X52955652Y-16595235D01*
X52919500Y-16730158D01*
X52919500Y-16869842D01*
X52947809Y-16975494D01*
X52955653Y-17004767D01*
X52955653Y-17004768D01*
X53025492Y-17125732D01*
X53025494Y-17125735D01*
X53124265Y-17224506D01*
X53245235Y-17294348D01*
X53380158Y-17330500D01*
X53380160Y-17330500D01*
X53519840Y-17330500D01*
X53519842Y-17330500D01*
X53654765Y-17294348D01*
X53775735Y-17224506D01*
X53874506Y-17125735D01*
X53944348Y-17004765D01*
X53980500Y-16869842D01*
X53980500Y-16730158D01*
X53944348Y-16595235D01*
X53929687Y-16569842D01*
X53874507Y-16474267D01*
X53874506Y-16474265D01*
X53870242Y-16470001D01*
X53842467Y-16415487D01*
X53852038Y-16355055D01*
X53870241Y-16329999D01*
X53874506Y-16325735D01*
X53944348Y-16204765D01*
X53980500Y-16069842D01*
X53980500Y-15930158D01*
X53944348Y-15795235D01*
X53874506Y-15674265D01*
X53775735Y-15575494D01*
X53747601Y-15559251D01*
X53654767Y-15505653D01*
X53654766Y-15505652D01*
X53654765Y-15505652D01*
X53519842Y-15469500D01*
X53380158Y-15469500D01*
X53245235Y-15505652D01*
X53245234Y-15505652D01*
X53245232Y-15505653D01*
X53245231Y-15505653D01*
X53124267Y-15575492D01*
X53025492Y-15674267D01*
X52955653Y-15795231D01*
X52955653Y-15795232D01*
X52955652Y-15795234D01*
X52955652Y-15795235D01*
X52919500Y-15930158D01*
X43790500Y-15930158D01*
X43790500Y-15490748D01*
X43809407Y-15432557D01*
X43819490Y-15420750D01*
X43914506Y-15325735D01*
X43984348Y-15204765D01*
X44020500Y-15069842D01*
X44020500Y-14930158D01*
X43984348Y-14795235D01*
X43972949Y-14775492D01*
X43914507Y-14674267D01*
X43914506Y-14674265D01*
X43815735Y-14575494D01*
X43787601Y-14559251D01*
X43694767Y-14505653D01*
X43694766Y-14505652D01*
X43694765Y-14505652D01*
X43559842Y-14469500D01*
X43420158Y-14469500D01*
X43285235Y-14505652D01*
X43285234Y-14505652D01*
X43285232Y-14505653D01*
X43285231Y-14505653D01*
X43164267Y-14575492D01*
X43065492Y-14674267D01*
X42995653Y-14795231D01*
X42995653Y-14795232D01*
X42995652Y-14795234D01*
X42995652Y-14795235D01*
X42959500Y-14930158D01*
X42959500Y-15069842D01*
X42979836Y-15145737D01*
X42995653Y-15204767D01*
X42995653Y-15204768D01*
X43065492Y-15325732D01*
X43065494Y-15325735D01*
X43160505Y-15420746D01*
X43188281Y-15475261D01*
X43189500Y-15490748D01*
X43189500Y-25595252D01*
X43170593Y-25653443D01*
X43121093Y-25689407D01*
X43059907Y-25689407D01*
X43020498Y-25665257D01*
X42980735Y-25625494D01*
X42957602Y-25612138D01*
X42916661Y-25566669D01*
X42908535Y-25535655D01*
X42908427Y-25534500D01*
X42769655Y-24056276D01*
X42783041Y-23996575D01*
X42798220Y-23977020D01*
X42810630Y-23964611D01*
X42849506Y-23925735D01*
X42919348Y-23804765D01*
X42955500Y-23669842D01*
X42955500Y-23530158D01*
X42919348Y-23395235D01*
X42913014Y-23384265D01*
X42849507Y-23274267D01*
X42849506Y-23274265D01*
X42750735Y-23175494D01*
X42715645Y-23155235D01*
X42629767Y-23105653D01*
X42629766Y-23105652D01*
X42629765Y-23105652D01*
X42494842Y-23069500D01*
X42355158Y-23069500D01*
X42220235Y-23105652D01*
X42220234Y-23105652D01*
X42220232Y-23105653D01*
X42220231Y-23105653D01*
X42099267Y-23175492D01*
X42000492Y-23274267D01*
X41930653Y-23395231D01*
X41930653Y-23395232D01*
X41930652Y-23395234D01*
X41930652Y-23395235D01*
X41894500Y-23530158D01*
X41158103Y-23530158D01*
X41154520Y-23528089D01*
X41154520Y-23528090D01*
X41107389Y-23500879D01*
X41107388Y-23500878D01*
X41107387Y-23500878D01*
X41030964Y-23480400D01*
X41030962Y-23480400D01*
X40205322Y-23480400D01*
X40198431Y-23480160D01*
X40172848Y-23478374D01*
X40172078Y-23478524D01*
X40171802Y-23478578D01*
X40152899Y-23480400D01*
X40151835Y-23480400D01*
X40127073Y-23487035D01*
X40120360Y-23488586D01*
X40095178Y-23493485D01*
X40095177Y-23493485D01*
X40094214Y-23493956D01*
X40076454Y-23500598D01*
X40075425Y-23500873D01*
X40075407Y-23500881D01*
X40053214Y-23513694D01*
X40047133Y-23516928D01*
X40024068Y-23528183D01*
X40024065Y-23528185D01*
X40023257Y-23528888D01*
X40007813Y-23539906D01*
X40006889Y-23540439D01*
X40006888Y-23540439D01*
X39988752Y-23558575D01*
X39983718Y-23563270D01*
X39964369Y-23580097D01*
X39964358Y-23580108D01*
X39963761Y-23580995D01*
X39951705Y-23595623D01*
X39950944Y-23596383D01*
X39950939Y-23596390D01*
X39938110Y-23618608D01*
X39934462Y-23624447D01*
X39920129Y-23645703D01*
X39920129Y-23645704D01*
X39919781Y-23646717D01*
X39911914Y-23663982D01*
X39911379Y-23664911D01*
X39911378Y-23664913D01*
X39904743Y-23689674D01*
X39902729Y-23696264D01*
X38932562Y-26515315D01*
X38895747Y-26564186D01*
X38864578Y-26578724D01*
X38852536Y-26581951D01*
X38852531Y-26581953D01*
X38731567Y-26651792D01*
X38632792Y-26750567D01*
X38562953Y-26871531D01*
X38562953Y-26871532D01*
X38562952Y-26871534D01*
X38562952Y-26871535D01*
X38526800Y-27006458D01*
X36160776Y-27006458D01*
X36188876Y-18492042D01*
X36207975Y-18433917D01*
X36217866Y-18422374D01*
X36314506Y-18325735D01*
X36384348Y-18204765D01*
X36420500Y-18069842D01*
X36420500Y-17930158D01*
X36384348Y-17795235D01*
X36344220Y-17725732D01*
X36324200Y-17691055D01*
X36314506Y-17674265D01*
X36215735Y-17575494D01*
X36197155Y-17564767D01*
X36094767Y-17505653D01*
X36094766Y-17505652D01*
X36094765Y-17505652D01*
X35959842Y-17469500D01*
X35820158Y-17469500D01*
X35685235Y-17505652D01*
X35685234Y-17505652D01*
X35685232Y-17505653D01*
X35685231Y-17505653D01*
X35564267Y-17575492D01*
X35465492Y-17674267D01*
X35395653Y-17795231D01*
X35395653Y-17795232D01*
X35395652Y-17795234D01*
X35395652Y-17795235D01*
X35359500Y-17930158D01*
X35359500Y-18069842D01*
X35395652Y-18204765D01*
X35395653Y-18204767D01*
X35395653Y-18204768D01*
X35465492Y-18325732D01*
X35465494Y-18325735D01*
X35558887Y-18419128D01*
X35586663Y-18473643D01*
X35587881Y-18489457D01*
X35541122Y-32657955D01*
X35522023Y-32716083D01*
X35512127Y-32727631D01*
X35415493Y-32824265D01*
X35345653Y-32945231D01*
X35345653Y-32945232D01*
X35345652Y-32945234D01*
X35345652Y-32945235D01*
X35309500Y-33080158D01*
X34275500Y-33080158D01*
X34275500Y-32090748D01*
X34294407Y-32032557D01*
X34304490Y-32020750D01*
X34304998Y-32020242D01*
X34359513Y-31992467D01*
X34419945Y-32002038D01*
X34445000Y-32020241D01*
X34449265Y-32024506D01*
X34570235Y-32094348D01*
X34705158Y-32130500D01*
X34705160Y-32130500D01*
X34844840Y-32130500D01*
X34844842Y-32130500D01*
X34979765Y-32094348D01*
X35100735Y-32024506D01*
X35199506Y-31925735D01*
X35269348Y-31804765D01*
X35305500Y-31669842D01*
X35305500Y-31530158D01*
X35269348Y-31395235D01*
X35260643Y-31380158D01*
X35199506Y-31274265D01*
X35104496Y-31179254D01*
X35076719Y-31124738D01*
X35075500Y-31109251D01*
X35075500Y-24890748D01*
X35094407Y-24832557D01*
X35104490Y-24820750D01*
X35199506Y-24725735D01*
X35269348Y-24604765D01*
X35305500Y-24469842D01*
X35305500Y-24330158D01*
X35269348Y-24195235D01*
X35265059Y-24187807D01*
X35206342Y-24086106D01*
X35199506Y-24074265D01*
X35100735Y-23975494D01*
X35090450Y-23969556D01*
X34979767Y-23905653D01*
X34979766Y-23905652D01*
X34979765Y-23905652D01*
X34844842Y-23869500D01*
X34705158Y-23869500D01*
X34570235Y-23905652D01*
X34570234Y-23905652D01*
X34570232Y-23905653D01*
X34570231Y-23905653D01*
X34449267Y-23975492D01*
X34350492Y-24074267D01*
X34280653Y-24195231D01*
X34280653Y-24195232D01*
X34280652Y-24195234D01*
X34280652Y-24195235D01*
X34244500Y-24330158D01*
X34244500Y-24469842D01*
X34280652Y-24604765D01*
X34280653Y-24604767D01*
X34280653Y-24604768D01*
X34346892Y-24719496D01*
X34350494Y-24725735D01*
X34445505Y-24820746D01*
X34473281Y-24875261D01*
X34474500Y-24890748D01*
X34474500Y-31109251D01*
X34455593Y-31167442D01*
X34445434Y-31179324D01*
X34444933Y-31179824D01*
X34390388Y-31207548D01*
X34329966Y-31197916D01*
X34304998Y-31179757D01*
X34300735Y-31175494D01*
X34264528Y-31154590D01*
X34179767Y-31105653D01*
X34179766Y-31105652D01*
X34179765Y-31105652D01*
X34044842Y-31069500D01*
X33905158Y-31069500D01*
X33770235Y-31105652D01*
X33770234Y-31105652D01*
X33770232Y-31105653D01*
X33770231Y-31105653D01*
X33649267Y-31175492D01*
X33649265Y-31175493D01*
X33649265Y-31175494D01*
X33644501Y-31180257D01*
X33589987Y-31208033D01*
X33529555Y-31198462D01*
X33486290Y-31155197D01*
X33475500Y-31110252D01*
X33475500Y-20890748D01*
X33494407Y-20832557D01*
X33504490Y-20820750D01*
X33599506Y-20725735D01*
X33669348Y-20604765D01*
X33705500Y-20469842D01*
X33705500Y-20330158D01*
X33669348Y-20195235D01*
X33628220Y-20124000D01*
X33599507Y-20074267D01*
X33599506Y-20074265D01*
X33500735Y-19975494D01*
X33446939Y-19944435D01*
X33379767Y-19905653D01*
X33379766Y-19905652D01*
X33379765Y-19905652D01*
X33244842Y-19869500D01*
X33105158Y-19869500D01*
X32970235Y-19905652D01*
X32970234Y-19905652D01*
X32970232Y-19905653D01*
X32970231Y-19905653D01*
X32849267Y-19975492D01*
X32750492Y-20074267D01*
X32680653Y-20195231D01*
X32680653Y-20195232D01*
X32680652Y-20195234D01*
X32680652Y-20195235D01*
X32644500Y-20330158D01*
X21824528Y-20330158D01*
X23004839Y-17929524D01*
X23047481Y-17885647D01*
X23068049Y-17877582D01*
X23154765Y-17854348D01*
X23275735Y-17784506D01*
X23374506Y-17685735D01*
X23444348Y-17564765D01*
X23480500Y-17429842D01*
X23480500Y-17290158D01*
X23444348Y-17155235D01*
X23389284Y-17059862D01*
X23376564Y-17000016D01*
X23401451Y-16944120D01*
X23420668Y-16928559D01*
X23420589Y-16928455D01*
X23424572Y-16925398D01*
X23425525Y-16924627D01*
X23425735Y-16924506D01*
X23524506Y-16825735D01*
X23594348Y-16704765D01*
X23630500Y-16569842D01*
X23630500Y-16430158D01*
X23594348Y-16295235D01*
X23591757Y-16290748D01*
X23524507Y-16174267D01*
X23524506Y-16174265D01*
X23425735Y-16075494D01*
X23404959Y-16063499D01*
X23364019Y-16018029D01*
X23355853Y-15986571D01*
X23292576Y-15277867D01*
X23306234Y-15218226D01*
X23321182Y-15199058D01*
X23374504Y-15145737D01*
X23374504Y-15145736D01*
X23374506Y-15145735D01*
X23444348Y-15024765D01*
X23480500Y-14889842D01*
X23480500Y-14750158D01*
X23444348Y-14615235D01*
X23438304Y-14604767D01*
X23374507Y-14494267D01*
X23374506Y-14494265D01*
X23275735Y-14395494D01*
X23268486Y-14391309D01*
X23154767Y-14325653D01*
X23154766Y-14325652D01*
X23154765Y-14325652D01*
X23019842Y-14289500D01*
X22880158Y-14289500D01*
X22745235Y-14325652D01*
X22745234Y-14325652D01*
X22745232Y-14325653D01*
X22745231Y-14325653D01*
X22624267Y-14395492D01*
X22525492Y-14494267D01*
X22455653Y-14615231D01*
X22455653Y-14615232D01*
X22455652Y-14615234D01*
X22455652Y-14615235D01*
X22419500Y-14750158D01*
X22419500Y-14889842D01*
X22447739Y-14995232D01*
X22455653Y-15024767D01*
X22455653Y-15024768D01*
X22516501Y-15130159D01*
X22525494Y-15145735D01*
X22624265Y-15244506D01*
X22645037Y-15256499D01*
X22685979Y-15301967D01*
X22694146Y-15333431D01*
X22757423Y-16042132D01*
X22743765Y-16101773D01*
X22728819Y-16120939D01*
X22675493Y-16174265D01*
X22605653Y-16295231D01*
X22605653Y-16295232D01*
X22605652Y-16295234D01*
X22605652Y-16295235D01*
X22569500Y-16430158D01*
X22569500Y-16569842D01*
X22605652Y-16704765D01*
X22660714Y-16800136D01*
X22673435Y-16859982D01*
X22648548Y-16915878D01*
X22629334Y-16931439D01*
X22629414Y-16931543D01*
X22625455Y-16934580D01*
X22624487Y-16935365D01*
X22624269Y-16935490D01*
X22525492Y-17034267D01*
X22455653Y-17155231D01*
X22455653Y-17155232D01*
X22455652Y-17155234D01*
X22455652Y-17155235D01*
X22419500Y-17290158D01*
X22419500Y-17429842D01*
X22455652Y-17564765D01*
X22460996Y-17574021D01*
X22473717Y-17633869D01*
X22464101Y-17667201D01*
X19945159Y-22790473D01*
X19942374Y-22793337D01*
X19941501Y-22797237D01*
X19921284Y-22815039D01*
X19902517Y-22834351D01*
X19898580Y-22835032D01*
X19895582Y-22837673D01*
X19881941Y-22842418D01*
X19795235Y-22865651D01*
X19795233Y-22865652D01*
X19777953Y-22875629D01*
X19718105Y-22888350D01*
X19662209Y-22863463D01*
X19631617Y-22810474D01*
X19638013Y-22749624D01*
X19652397Y-22726518D01*
X19669258Y-22706284D01*
X19675287Y-22699682D01*
X19690460Y-22684511D01*
X19693108Y-22679922D01*
X19693607Y-22679208D01*
X19693658Y-22678982D01*
X19693936Y-22678737D01*
X19702793Y-22666043D01*
X19706177Y-22661983D01*
X19715180Y-22642500D01*
X19719288Y-22634576D01*
X19730021Y-22615989D01*
X19731390Y-22610875D01*
X19737150Y-22594966D01*
X19739372Y-22590160D01*
X19743023Y-22569035D01*
X19744945Y-22560288D01*
X19750500Y-22539562D01*
X19750500Y-22534267D01*
X19751946Y-22517406D01*
X19752847Y-22512192D01*
X19750907Y-22490853D01*
X19750500Y-22481889D01*
X19750500Y-17538956D01*
X19769407Y-17480765D01*
X19818907Y-17444801D01*
X19880093Y-17444801D01*
X19898992Y-17453216D01*
X19970235Y-17494348D01*
X20105158Y-17530500D01*
X20105160Y-17530500D01*
X20244840Y-17530500D01*
X20244842Y-17530500D01*
X20379765Y-17494348D01*
X20500735Y-17424506D01*
X20599506Y-17325735D01*
X20669348Y-17204765D01*
X20705500Y-17069842D01*
X20705500Y-16996911D01*
X20724407Y-16938720D01*
X20773907Y-16902756D01*
X20778879Y-16901284D01*
X20785444Y-16899524D01*
X20804765Y-16894348D01*
X20925735Y-16824506D01*
X21024506Y-16725735D01*
X21094348Y-16604765D01*
X21130500Y-16469842D01*
X21130500Y-16330158D01*
X21094348Y-16195235D01*
X21054220Y-16125732D01*
X21032563Y-16088220D01*
X21024506Y-16074265D01*
X20925735Y-15975494D01*
X20847212Y-15930159D01*
X20804767Y-15905653D01*
X20804766Y-15905652D01*
X20804765Y-15905652D01*
X20669842Y-15869500D01*
X20530158Y-15869500D01*
X20395235Y-15905652D01*
X20395234Y-15905652D01*
X20395232Y-15905653D01*
X20395231Y-15905653D01*
X20274267Y-15975492D01*
X20175492Y-16074267D01*
X20105653Y-16195231D01*
X20105653Y-16195232D01*
X20105652Y-16195234D01*
X20105652Y-16195235D01*
X20069543Y-16330000D01*
X20069500Y-16330159D01*
X20069500Y-16403088D01*
X20050593Y-16461279D01*
X20001093Y-16497243D01*
X19996125Y-16498714D01*
X19970237Y-16505651D01*
X19970235Y-16505651D01*
X19970235Y-16505652D01*
X19898998Y-16546780D01*
X19839151Y-16559501D01*
X19783256Y-16534614D01*
X19752663Y-16481626D01*
X19750500Y-16461043D01*
X19750500Y-14090748D01*
X19769407Y-14032557D01*
X19779490Y-14020750D01*
X19874506Y-13925735D01*
X19944348Y-13804765D01*
X19980500Y-13669842D01*
X19980500Y-13530158D01*
X19944348Y-13395235D01*
X19874506Y-13274265D01*
X19775735Y-13175494D01*
X19753180Y-13162472D01*
X19654767Y-13105653D01*
X19654766Y-13105652D01*
X19654765Y-13105652D01*
X19519842Y-13069500D01*
X19380158Y-13069500D01*
X19245235Y-13105652D01*
X19245234Y-13105652D01*
X19245232Y-13105653D01*
X19245231Y-13105653D01*
X19124267Y-13175492D01*
X19124265Y-13175493D01*
X19124265Y-13175494D01*
X19044501Y-13255257D01*
X18989987Y-13283033D01*
X18929555Y-13273462D01*
X18886290Y-13230197D01*
X18875500Y-13185252D01*
X18875500Y-11274500D01*
X18894407Y-11216309D01*
X18943907Y-11180345D01*
X18974500Y-11175500D01*
X43325500Y-11175500D01*
X43383691Y-11194407D01*
X43419655Y-11243907D01*
X43424500Y-11274500D01*
X43424500Y-13150565D01*
X43424500Y-13249435D01*
X43438832Y-13302923D01*
X43450091Y-13344942D01*
X43496598Y-13425492D01*
X43499525Y-13430562D01*
X43569438Y-13500475D01*
X43569440Y-13500476D01*
X43655058Y-13549908D01*
X43655056Y-13549908D01*
X43655060Y-13549909D01*
X43655062Y-13549910D01*
X43750565Y-13575500D01*
X43750567Y-13575500D01*
X45849433Y-13575500D01*
X45849435Y-13575500D01*
X45944938Y-13549910D01*
X45944940Y-13549908D01*
X45944942Y-13549908D01*
X45986812Y-13525734D01*
X46030562Y-13500475D01*
X46100475Y-13430562D01*
X46149910Y-13344938D01*
X46175500Y-13249435D01*
X46175500Y-13130158D01*
X48494500Y-13130158D01*
X48494500Y-13269842D01*
X48530652Y-13404765D01*
X48530653Y-13404767D01*
X48530653Y-13404768D01*
X48599645Y-13524265D01*
X48600494Y-13525735D01*
X48699265Y-13624506D01*
X48820235Y-13694348D01*
X48955158Y-13730500D01*
X48955160Y-13730500D01*
X49094840Y-13730500D01*
X49094842Y-13730500D01*
X49229765Y-13694348D01*
X49350735Y-13624506D01*
X49449506Y-13525735D01*
X49510909Y-13419380D01*
X49556377Y-13378442D01*
X49572630Y-13372839D01*
X50220148Y-13210960D01*
X50281185Y-13215189D01*
X50293657Y-13221268D01*
X50299264Y-13224505D01*
X50299265Y-13224506D01*
X50420235Y-13294348D01*
X50555158Y-13330500D01*
X50555160Y-13330500D01*
X50694840Y-13330500D01*
X50694842Y-13330500D01*
X50829765Y-13294348D01*
X50950735Y-13224506D01*
X50994563Y-13180677D01*
X51049077Y-13152901D01*
X51109509Y-13162472D01*
X51152774Y-13205736D01*
X51160191Y-13225057D01*
X51168151Y-13254762D01*
X51168153Y-13254768D01*
X51236322Y-13372839D01*
X51237994Y-13375735D01*
X51333005Y-13470746D01*
X51360781Y-13525261D01*
X51362000Y-13540748D01*
X51362000Y-14559251D01*
X51343093Y-14617442D01*
X51333004Y-14629254D01*
X51237993Y-14724265D01*
X51168153Y-14845231D01*
X51168153Y-14845232D01*
X51168152Y-14845234D01*
X51168152Y-14845235D01*
X51132000Y-14980158D01*
X51132000Y-15119842D01*
X51168152Y-15254765D01*
X51168153Y-15254767D01*
X51168153Y-15254768D01*
X51237855Y-15375494D01*
X51237994Y-15375735D01*
X51336765Y-15474506D01*
X51457735Y-15544348D01*
X51592658Y-15580500D01*
X51592660Y-15580500D01*
X51732340Y-15580500D01*
X51732342Y-15580500D01*
X51867265Y-15544348D01*
X51988235Y-15474506D01*
X52087006Y-15375735D01*
X52156848Y-15254765D01*
X52193000Y-15119842D01*
X52193000Y-14980158D01*
X52156848Y-14845235D01*
X52087006Y-14724265D01*
X52068393Y-14705652D01*
X51991996Y-14629254D01*
X51964219Y-14574738D01*
X51963000Y-14559251D01*
X51963000Y-13930158D01*
X54519500Y-13930158D01*
X54519500Y-14069842D01*
X54555652Y-14204765D01*
X54555653Y-14204767D01*
X54555653Y-14204768D01*
X54625492Y-14325732D01*
X54625494Y-14325735D01*
X54720505Y-14420746D01*
X54748281Y-14475261D01*
X54749500Y-14490748D01*
X54749500Y-15509251D01*
X54730593Y-15567442D01*
X54720504Y-15579254D01*
X54625493Y-15674265D01*
X54555653Y-15795231D01*
X54555653Y-15795232D01*
X54555652Y-15795234D01*
X54555652Y-15795235D01*
X54519500Y-15930158D01*
X54519500Y-16069842D01*
X54555652Y-16204765D01*
X54555653Y-16204767D01*
X54555653Y-16204768D01*
X54625492Y-16325732D01*
X54625494Y-16325735D01*
X54724265Y-16424506D01*
X54845235Y-16494348D01*
X54980158Y-16530500D01*
X54980160Y-16530500D01*
X55119840Y-16530500D01*
X55119842Y-16530500D01*
X55254765Y-16494348D01*
X55375735Y-16424506D01*
X55474506Y-16325735D01*
X55544348Y-16204765D01*
X55580500Y-16069842D01*
X55580500Y-15930158D01*
X55544348Y-15795235D01*
X55506776Y-15730159D01*
X55474506Y-15674265D01*
X55379496Y-15579254D01*
X55351719Y-15524738D01*
X55350500Y-15509251D01*
X55350500Y-15130158D01*
X56069500Y-15130158D01*
X56069500Y-15269842D01*
X56097809Y-15375494D01*
X56105653Y-15404767D01*
X56105653Y-15404768D01*
X56165977Y-15509251D01*
X56175494Y-15525735D01*
X56270505Y-15620746D01*
X56298281Y-15675261D01*
X56299500Y-15690748D01*
X56299500Y-17509251D01*
X56280593Y-17567442D01*
X56270504Y-17579254D01*
X56175493Y-17674265D01*
X56105653Y-17795231D01*
X56105653Y-17795232D01*
X56105652Y-17795234D01*
X56105652Y-17795235D01*
X56069500Y-17930158D01*
X56069500Y-18069842D01*
X56105652Y-18204765D01*
X56105653Y-18204767D01*
X56105653Y-18204768D01*
X56175492Y-18325732D01*
X56175494Y-18325735D01*
X56274265Y-18424506D01*
X56395235Y-18494348D01*
X56530158Y-18530500D01*
X56530160Y-18530500D01*
X56669840Y-18530500D01*
X56669842Y-18530500D01*
X56804765Y-18494348D01*
X56925735Y-18424506D01*
X57024506Y-18325735D01*
X57094348Y-18204765D01*
X57130500Y-18069842D01*
X57130500Y-17930158D01*
X57094348Y-17795235D01*
X57054220Y-17725732D01*
X57024506Y-17674265D01*
X56929496Y-17579254D01*
X56901719Y-17524738D01*
X56900500Y-17509251D01*
X56900500Y-15690748D01*
X56919407Y-15632557D01*
X56929490Y-15620750D01*
X57024506Y-15525735D01*
X57094348Y-15404765D01*
X57130500Y-15269842D01*
X57130500Y-15130158D01*
X57094348Y-14995235D01*
X57085643Y-14980158D01*
X57024507Y-14874267D01*
X57024506Y-14874265D01*
X56925735Y-14775494D01*
X56881853Y-14750159D01*
X56804767Y-14705653D01*
X56804766Y-14705652D01*
X56804765Y-14705652D01*
X56669842Y-14669500D01*
X56530158Y-14669500D01*
X56395235Y-14705652D01*
X56395234Y-14705652D01*
X56395232Y-14705653D01*
X56395231Y-14705653D01*
X56274267Y-14775492D01*
X56175492Y-14874267D01*
X56105653Y-14995231D01*
X56105653Y-14995232D01*
X56105652Y-14995234D01*
X56105652Y-14995235D01*
X56069500Y-15130158D01*
X55350500Y-15130158D01*
X55350500Y-14490748D01*
X55369407Y-14432557D01*
X55379490Y-14420750D01*
X55474506Y-14325735D01*
X55481503Y-14313614D01*
X55526968Y-14272675D01*
X55587817Y-14266276D01*
X55616735Y-14277375D01*
X55732735Y-14344348D01*
X55867658Y-14380500D01*
X55867660Y-14380500D01*
X56007340Y-14380500D01*
X56007342Y-14380500D01*
X56142265Y-14344348D01*
X56263235Y-14274506D01*
X56362006Y-14175735D01*
X56431848Y-14054765D01*
X56468000Y-13919842D01*
X56468000Y-13780158D01*
X56453482Y-13725976D01*
X56456683Y-13664875D01*
X56469903Y-13640960D01*
X57085550Y-12820100D01*
X57135590Y-12784892D01*
X57164750Y-12780500D01*
X57207340Y-12780500D01*
X57207342Y-12780500D01*
X57342265Y-12744348D01*
X57453445Y-12680158D01*
X59444500Y-12680158D01*
X59444500Y-12819842D01*
X59459083Y-12874267D01*
X59480653Y-12954767D01*
X59480653Y-12954768D01*
X59546894Y-13069500D01*
X59550494Y-13075735D01*
X59649265Y-13174506D01*
X59768313Y-13243238D01*
X59809251Y-13288705D01*
X59814321Y-13302920D01*
X59966604Y-13861291D01*
X60006068Y-14005993D01*
X60003138Y-14067109D01*
X59996294Y-14081538D01*
X59930652Y-14195235D01*
X59894500Y-14330158D01*
X59894500Y-14469842D01*
X59922809Y-14575494D01*
X59930653Y-14604767D01*
X59930653Y-14604768D01*
X59999645Y-14724265D01*
X60000494Y-14725735D01*
X60099265Y-14824506D01*
X60220235Y-14894348D01*
X60355158Y-14930500D01*
X60355160Y-14930500D01*
X60494840Y-14930500D01*
X60494842Y-14930500D01*
X60629765Y-14894348D01*
X60750735Y-14824506D01*
X60849506Y-14725735D01*
X60919348Y-14604765D01*
X60955500Y-14469842D01*
X60955500Y-14330158D01*
X60919348Y-14195235D01*
X60849506Y-14074265D01*
X60750735Y-13975494D01*
X60713257Y-13953856D01*
X60631687Y-13906761D01*
X60590747Y-13861291D01*
X60585678Y-13847081D01*
X60393931Y-13144005D01*
X60396862Y-13082891D01*
X60403707Y-13068458D01*
X60469348Y-12954765D01*
X60505500Y-12819842D01*
X60505500Y-12680158D01*
X60469348Y-12545235D01*
X60428373Y-12474265D01*
X60399507Y-12424267D01*
X60399506Y-12424265D01*
X60300735Y-12325494D01*
X60290945Y-12319842D01*
X60179767Y-12255653D01*
X60179766Y-12255652D01*
X60179765Y-12255652D01*
X60044842Y-12219500D01*
X59905158Y-12219500D01*
X59770235Y-12255652D01*
X59770234Y-12255652D01*
X59770232Y-12255653D01*
X59770231Y-12255653D01*
X59649267Y-12325492D01*
X59550492Y-12424267D01*
X59480653Y-12545231D01*
X59480653Y-12545232D01*
X59480652Y-12545234D01*
X59480652Y-12545235D01*
X59444500Y-12680158D01*
X57453445Y-12680158D01*
X57463235Y-12674506D01*
X57562006Y-12575735D01*
X57631848Y-12454765D01*
X57668000Y-12319842D01*
X57668000Y-12180158D01*
X57631848Y-12045235D01*
X57562006Y-11924265D01*
X57463235Y-11825494D01*
X57342265Y-11755652D01*
X57207342Y-11719500D01*
X57067658Y-11719500D01*
X56932735Y-11755652D01*
X56932734Y-11755652D01*
X56932732Y-11755653D01*
X56932731Y-11755653D01*
X56811767Y-11825492D01*
X56712992Y-11924267D01*
X56643153Y-12045231D01*
X56643153Y-12045232D01*
X56643152Y-12045234D01*
X56643152Y-12045235D01*
X56607000Y-12180158D01*
X56607000Y-12319842D01*
X56617772Y-12360046D01*
X56621517Y-12374022D01*
X56618314Y-12435123D01*
X56605090Y-12459044D01*
X55989450Y-13279900D01*
X55939410Y-13315108D01*
X55910250Y-13319500D01*
X55867658Y-13319500D01*
X55732735Y-13355652D01*
X55732734Y-13355652D01*
X55732732Y-13355653D01*
X55732731Y-13355653D01*
X55611767Y-13425492D01*
X55512992Y-13524267D01*
X55505994Y-13536388D01*
X55460523Y-13577327D01*
X55399672Y-13583721D01*
X55370759Y-13572621D01*
X55254767Y-13505653D01*
X55254766Y-13505652D01*
X55254765Y-13505652D01*
X55119842Y-13469500D01*
X54980158Y-13469500D01*
X54845235Y-13505652D01*
X54845234Y-13505652D01*
X54845232Y-13505653D01*
X54845231Y-13505653D01*
X54724267Y-13575492D01*
X54625492Y-13674267D01*
X54555653Y-13795231D01*
X54555653Y-13795232D01*
X54555652Y-13795234D01*
X54555652Y-13795235D01*
X54519500Y-13930158D01*
X51963000Y-13930158D01*
X51963000Y-13540748D01*
X51981907Y-13482557D01*
X51991990Y-13470750D01*
X52087006Y-13375735D01*
X52156848Y-13254765D01*
X52193000Y-13119842D01*
X52193000Y-12980158D01*
X52156848Y-12845235D01*
X52142336Y-12820100D01*
X52087007Y-12724267D01*
X52087006Y-12724265D01*
X51988235Y-12625494D01*
X51987275Y-12624940D01*
X51867267Y-12555653D01*
X51867266Y-12555652D01*
X51867265Y-12555652D01*
X51732342Y-12519500D01*
X51592658Y-12519500D01*
X51457735Y-12555652D01*
X51457734Y-12555652D01*
X51457732Y-12555653D01*
X51457731Y-12555653D01*
X51336765Y-12625493D01*
X51292937Y-12669321D01*
X51238420Y-12697098D01*
X51177988Y-12687526D01*
X51134724Y-12644261D01*
X51127307Y-12624940D01*
X51119348Y-12595235D01*
X51049506Y-12474265D01*
X50950735Y-12375494D01*
X50948185Y-12374022D01*
X50829767Y-12305653D01*
X50829766Y-12305652D01*
X50829765Y-12305652D01*
X50694842Y-12269500D01*
X50555158Y-12269500D01*
X50420235Y-12305652D01*
X50420234Y-12305652D01*
X50420232Y-12305653D01*
X50420231Y-12305653D01*
X50299267Y-12375492D01*
X50200493Y-12474266D01*
X50139091Y-12580616D01*
X50093621Y-12621556D01*
X50077366Y-12627159D01*
X49429850Y-12789037D01*
X49368811Y-12784808D01*
X49356339Y-12778730D01*
X49350736Y-12775495D01*
X49350735Y-12775494D01*
X49229765Y-12705652D01*
X49094842Y-12669500D01*
X48955158Y-12669500D01*
X48820235Y-12705652D01*
X48820234Y-12705652D01*
X48820232Y-12705653D01*
X48820231Y-12705653D01*
X48699267Y-12775492D01*
X48600492Y-12874267D01*
X48530653Y-12995231D01*
X48530653Y-12995232D01*
X48530652Y-12995234D01*
X48530652Y-12995235D01*
X48494500Y-13130158D01*
X46175500Y-13130158D01*
X46175500Y-11258818D01*
X46194407Y-11200627D01*
X46243907Y-11164663D01*
X46271173Y-11159874D01*
X54319705Y-10889334D01*
X54378497Y-10906276D01*
X54393028Y-10918269D01*
X54399265Y-10924506D01*
X54520235Y-10994348D01*
X54655158Y-11030500D01*
X54655160Y-11030500D01*
X54794840Y-11030500D01*
X54794842Y-11030500D01*
X54929765Y-10994348D01*
X55050735Y-10924506D01*
X55149506Y-10825735D01*
X55219348Y-10704765D01*
X55255500Y-10569842D01*
X55255500Y-10430158D01*
X55254882Y-10425467D01*
X55266028Y-10365306D01*
X55270592Y-10357726D01*
X58333569Y-5752399D01*
X58381538Y-5714418D01*
X58390381Y-5711599D01*
X58454759Y-5694350D01*
X58454760Y-5694349D01*
X58454765Y-5694348D01*
X58575735Y-5624506D01*
X58674506Y-5525735D01*
X58744348Y-5404765D01*
X58780500Y-5269842D01*
X58780500Y-5130158D01*
X58744348Y-4995235D01*
X58674506Y-4874265D01*
X58575735Y-4775494D01*
X58506004Y-4735234D01*
X58465065Y-4689767D01*
X58458669Y-4628917D01*
X58489262Y-4575929D01*
X58545157Y-4551042D01*
X58555506Y-4550500D01*
X59029100Y-4550500D01*
X59087291Y-4569407D01*
X59094869Y-4575503D01*
X60626490Y-5936945D01*
X60657421Y-5989736D01*
X60651415Y-6050626D01*
X60628891Y-6082726D01*
X57828293Y-8742288D01*
X57773077Y-8768648D01*
X57760120Y-8769500D01*
X57680158Y-8769500D01*
X57545235Y-8805652D01*
X57545234Y-8805652D01*
X57545232Y-8805653D01*
X57545231Y-8805653D01*
X57424267Y-8875492D01*
X57325492Y-8974267D01*
X57255653Y-9095231D01*
X57255653Y-9095232D01*
X57255652Y-9095234D01*
X57255652Y-9095235D01*
X57219500Y-9230158D01*
X57219500Y-9369842D01*
X57255652Y-9504765D01*
X57255653Y-9504767D01*
X57255653Y-9504768D01*
X57292973Y-9569407D01*
X57325494Y-9625735D01*
X57424265Y-9724506D01*
X57545235Y-9794348D01*
X57680158Y-9830500D01*
X57680160Y-9830500D01*
X57819840Y-9830500D01*
X57819842Y-9830500D01*
X57954765Y-9794348D01*
X58075735Y-9724506D01*
X58174506Y-9625735D01*
X58244348Y-9504765D01*
X58280500Y-9369842D01*
X58280500Y-9322090D01*
X58299407Y-9263899D01*
X58311327Y-9250302D01*
X59780265Y-7855340D01*
X59835477Y-7828982D01*
X59895642Y-7840110D01*
X59937775Y-7884478D01*
X59944060Y-7901506D01*
X59955650Y-7944761D01*
X59955653Y-7944768D01*
X60025492Y-8065732D01*
X60025494Y-8065735D01*
X60105443Y-8145684D01*
X60133219Y-8200199D01*
X60134390Y-8218778D01*
X60065025Y-10438451D01*
X60044309Y-10496023D01*
X60026339Y-10513902D01*
X60024263Y-10515494D01*
X59925493Y-10614265D01*
X59855653Y-10735231D01*
X59855653Y-10735232D01*
X59855652Y-10735234D01*
X59855652Y-10735235D01*
X59819500Y-10870158D01*
X59819500Y-11009842D01*
X59848974Y-11119842D01*
X59855653Y-11144767D01*
X59855653Y-11144768D01*
X59925492Y-11265732D01*
X59925494Y-11265735D01*
X60024265Y-11364506D01*
X60145235Y-11434348D01*
X60280158Y-11470500D01*
X60280160Y-11470500D01*
X60419840Y-11470500D01*
X60419842Y-11470500D01*
X60554765Y-11434348D01*
X60675735Y-11364506D01*
X60774506Y-11265735D01*
X60844348Y-11144765D01*
X60880500Y-11009842D01*
X60880500Y-10870158D01*
X60844348Y-10735235D01*
X60838014Y-10724265D01*
X60774506Y-10614265D01*
X60694556Y-10534314D01*
X60666779Y-10479797D01*
X60665608Y-10461224D01*
X60734973Y-8241549D01*
X60755689Y-8183978D01*
X60773657Y-8166100D01*
X60775728Y-8164509D01*
X60775735Y-8164506D01*
X60874506Y-8065735D01*
X60944348Y-7944765D01*
X60980500Y-7809842D01*
X60980500Y-7670158D01*
X60944348Y-7535235D01*
X60874506Y-7414265D01*
X60775735Y-7315494D01*
X60775732Y-7315492D01*
X60654768Y-7245653D01*
X60654764Y-7245651D01*
X60644126Y-7242801D01*
X60592813Y-7209475D01*
X60570888Y-7152353D01*
X60586725Y-7093253D01*
X60601575Y-7075391D01*
X61146707Y-6557712D01*
X61201923Y-6531352D01*
X61214880Y-6530500D01*
X61294840Y-6530500D01*
X61294842Y-6530500D01*
X61429765Y-6494348D01*
X61550735Y-6424506D01*
X61649506Y-6325735D01*
X61719348Y-6204765D01*
X61755500Y-6069842D01*
X61755500Y-5930158D01*
X61719348Y-5795235D01*
X61649506Y-5674265D01*
X61550735Y-5575494D01*
X61429765Y-5505652D01*
X61294842Y-5469500D01*
X61294840Y-5469500D01*
X61193399Y-5469500D01*
X61135208Y-5450593D01*
X61127627Y-5444494D01*
X61082935Y-5404768D01*
X59442731Y-3946808D01*
X59438501Y-3942819D01*
X59415214Y-3919533D01*
X59415208Y-3919528D01*
X59414906Y-3919354D01*
X59398633Y-3907610D01*
X59398371Y-3907377D01*
X59368917Y-3892605D01*
X59363800Y-3889847D01*
X59335290Y-3873387D01*
X59335289Y-3873386D01*
X59335113Y-3873339D01*
X59334937Y-3873292D01*
X59316199Y-3866167D01*
X59315878Y-3866006D01*
X59315875Y-3866005D01*
X59309872Y-3864769D01*
X59283616Y-3859363D01*
X59277960Y-3858024D01*
X59246146Y-3849500D01*
X59246144Y-3849500D01*
X59245786Y-3849500D01*
X59225823Y-3847466D01*
X59225482Y-3847396D01*
X59225480Y-3847396D01*
X59192619Y-3849329D01*
X59186806Y-3849500D01*
X54796144Y-3849500D01*
X54703856Y-3849500D01*
X54680225Y-3855831D01*
X54624622Y-3870730D01*
X54563521Y-3867527D01*
X54515971Y-3829021D01*
X54500000Y-3775103D01*
X54500000Y-599500D01*
X54518907Y-541309D01*
X54568407Y-505345D01*
X54599000Y-500500D01*
X67400500Y-500500D01*
X67458691Y-519407D01*
X67494655Y-568907D01*
X67499500Y-599500D01*
X67499500Y-59400500D01*
X67480593Y-59458691D01*
X67431093Y-59494655D01*
X67400500Y-59499500D01*
X599500Y-59499500D01*
X541309Y-59480593D01*
X505345Y-59431093D01*
X500500Y-59400500D01*
X500500Y-43021482D01*
X5197669Y-43021482D01*
X5197885Y-43024512D01*
X5199500Y-43040452D01*
X5199500Y-52539564D01*
X5219978Y-52615988D01*
X5219980Y-52615992D01*
X5259538Y-52684508D01*
X5259540Y-52684511D01*
X5315489Y-52740460D01*
X5315491Y-52740461D01*
X5384007Y-52780019D01*
X5384011Y-52780021D01*
X5460435Y-52800499D01*
X5460437Y-52800500D01*
X5460438Y-52800500D01*
X26039563Y-52800500D01*
X26039563Y-52800499D01*
X26115989Y-52780021D01*
X26184511Y-52740460D01*
X26240460Y-52684511D01*
X26280021Y-52615989D01*
X26300500Y-52539562D01*
X26300500Y-49381055D01*
X32100000Y-49381055D01*
X32100000Y-51218944D01*
X32126901Y-51354183D01*
X32179666Y-51481571D01*
X32256271Y-51596220D01*
X32353779Y-51693728D01*
X32468428Y-51770333D01*
X32595816Y-51823098D01*
X32731055Y-51849999D01*
X32731057Y-51850000D01*
X32868943Y-51850000D01*
X32868944Y-51849999D01*
X33004183Y-51823098D01*
X33131571Y-51770333D01*
X33246220Y-51693728D01*
X33343728Y-51596220D01*
X33420333Y-51481571D01*
X33473098Y-51354183D01*
X33499999Y-51218944D01*
X33500000Y-51218942D01*
X33500000Y-49381057D01*
X33499999Y-49381055D01*
X44900000Y-49381055D01*
X44900000Y-51218944D01*
X44926901Y-51354183D01*
X44979666Y-51481571D01*
X45056271Y-51596220D01*
X45153779Y-51693728D01*
X45268428Y-51770333D01*
X45395816Y-51823098D01*
X45531055Y-51849999D01*
X45531057Y-51850000D01*
X45668943Y-51850000D01*
X45668944Y-51849999D01*
X45804183Y-51823098D01*
X45931571Y-51770333D01*
X46046220Y-51693728D01*
X46143728Y-51596220D01*
X46220333Y-51481571D01*
X46273098Y-51354183D01*
X46299999Y-51218944D01*
X46300000Y-51218942D01*
X46300000Y-50901506D01*
X48000000Y-50901506D01*
X48000000Y-51098493D01*
X48038429Y-51291688D01*
X48038429Y-51291690D01*
X48113808Y-51473673D01*
X48113814Y-51473685D01*
X48223249Y-51637462D01*
X48223252Y-51637466D01*
X48362533Y-51776747D01*
X48362537Y-51776750D01*
X48526314Y-51886185D01*
X48526326Y-51886191D01*
X48708310Y-51961570D01*
X48901506Y-51999999D01*
X48901510Y-52000000D01*
X49098490Y-52000000D01*
X49098493Y-51999999D01*
X49291688Y-51961570D01*
X49291690Y-51961570D01*
X49473673Y-51886191D01*
X49473685Y-51886185D01*
X49637462Y-51776750D01*
X49637466Y-51776747D01*
X49776747Y-51637466D01*
X49776750Y-51637462D01*
X49886185Y-51473685D01*
X49886191Y-51473673D01*
X49961570Y-51291690D01*
X49961570Y-51291688D01*
X49999999Y-51098493D01*
X50000000Y-51098490D01*
X50000000Y-50905515D01*
X50999500Y-50905515D01*
X50999500Y-51094484D01*
X51029058Y-51281113D01*
X51077291Y-51429556D01*
X51087453Y-51460832D01*
X51173240Y-51629199D01*
X51284310Y-51782073D01*
X51417927Y-51915690D01*
X51570801Y-52026760D01*
X51739168Y-52112547D01*
X51918882Y-52170940D01*
X51918883Y-52170940D01*
X51918886Y-52170941D01*
X52105516Y-52200500D01*
X52105519Y-52200500D01*
X52294484Y-52200500D01*
X52481113Y-52170941D01*
X52481114Y-52170940D01*
X52481118Y-52170940D01*
X52660832Y-52112547D01*
X52829199Y-52026760D01*
X52982073Y-51915690D01*
X53115690Y-51782073D01*
X53226760Y-51629199D01*
X53312547Y-51460832D01*
X53370940Y-51281118D01*
X53373367Y-51265796D01*
X53400500Y-51094484D01*
X53400500Y-50905515D01*
X53370941Y-50718886D01*
X53367505Y-50708311D01*
X53312547Y-50539168D01*
X53226760Y-50370801D01*
X53115690Y-50217927D01*
X52982073Y-50084310D01*
X52829199Y-49973240D01*
X52829198Y-49973239D01*
X52829196Y-49973238D01*
X52660832Y-49887453D01*
X52481113Y-49829058D01*
X52294484Y-49799500D01*
X52294481Y-49799500D01*
X52105519Y-49799500D01*
X52105516Y-49799500D01*
X51918886Y-49829058D01*
X51739167Y-49887453D01*
X51570803Y-49973238D01*
X51417928Y-50084309D01*
X51284309Y-50217928D01*
X51173238Y-50370803D01*
X51087453Y-50539167D01*
X51029058Y-50718886D01*
X50999500Y-50905515D01*
X50000000Y-50905515D01*
X50000000Y-50901509D01*
X49999999Y-50901506D01*
X49961570Y-50708311D01*
X49961570Y-50708309D01*
X49886191Y-50526326D01*
X49886185Y-50526314D01*
X49776750Y-50362537D01*
X49776747Y-50362533D01*
X49637466Y-50223252D01*
X49637462Y-50223249D01*
X49473685Y-50113814D01*
X49473673Y-50113808D01*
X49291689Y-50038429D01*
X49098493Y-50000000D01*
X48901506Y-50000000D01*
X48708311Y-50038429D01*
X48708309Y-50038429D01*
X48526326Y-50113808D01*
X48526314Y-50113814D01*
X48362537Y-50223249D01*
X48362533Y-50223252D01*
X48223252Y-50362533D01*
X48223249Y-50362537D01*
X48113814Y-50526314D01*
X48113808Y-50526326D01*
X48038429Y-50708309D01*
X48038429Y-50708311D01*
X48000000Y-50901506D01*
X46300000Y-50901506D01*
X46300000Y-49381057D01*
X46299999Y-49381055D01*
X46273098Y-49245816D01*
X46220333Y-49118428D01*
X46143728Y-49003779D01*
X46046220Y-48906271D01*
X45931571Y-48829666D01*
X45804183Y-48776901D01*
X45668944Y-48750000D01*
X45531055Y-48750000D01*
X45395816Y-48776901D01*
X45268428Y-48829666D01*
X45153779Y-48906271D01*
X45056271Y-49003779D01*
X44979666Y-49118428D01*
X44926901Y-49245816D01*
X44900000Y-49381055D01*
X33499999Y-49381055D01*
X33473098Y-49245816D01*
X33420333Y-49118428D01*
X33343728Y-49003779D01*
X33246220Y-48906271D01*
X33131571Y-48829666D01*
X33004183Y-48776901D01*
X32868944Y-48750000D01*
X32731055Y-48750000D01*
X32595816Y-48776901D01*
X32468428Y-48829666D01*
X32353779Y-48906271D01*
X32256271Y-49003779D01*
X32179666Y-49118428D01*
X32126901Y-49245816D01*
X32100000Y-49381055D01*
X26300500Y-49381055D01*
X26300500Y-46621155D01*
X34399500Y-46621155D01*
X34399500Y-46778844D01*
X34430263Y-46933496D01*
X34430263Y-46933498D01*
X34490603Y-47079174D01*
X34490609Y-47079185D01*
X34530560Y-47138975D01*
X34578211Y-47210289D01*
X34689711Y-47321789D01*
X34767876Y-47374017D01*
X34820814Y-47409390D01*
X34820825Y-47409396D01*
X34828370Y-47412521D01*
X34966503Y-47469737D01*
X35061498Y-47488632D01*
X35114881Y-47518529D01*
X35140497Y-47574094D01*
X35128560Y-47634103D01*
X35112188Y-47655733D01*
X35078214Y-47689707D01*
X35078211Y-47689711D01*
X34990609Y-47820814D01*
X34990603Y-47820825D01*
X34930263Y-47966501D01*
X34930263Y-47966503D01*
X34899500Y-48121155D01*
X34899500Y-48278844D01*
X34930263Y-48433496D01*
X34930263Y-48433498D01*
X34990603Y-48579174D01*
X34990609Y-48579185D01*
X35043312Y-48658059D01*
X35078211Y-48710289D01*
X35189711Y-48821789D01*
X35267876Y-48874017D01*
X35320814Y-48909390D01*
X35320825Y-48909396D01*
X35338382Y-48916668D01*
X35466503Y-48969737D01*
X35621158Y-49000500D01*
X35621159Y-49000500D01*
X35778841Y-49000500D01*
X35778842Y-49000500D01*
X35933497Y-48969737D01*
X36079179Y-48909394D01*
X36210289Y-48821789D01*
X36321789Y-48710289D01*
X36409394Y-48579179D01*
X36469737Y-48433497D01*
X36500500Y-48278842D01*
X36500500Y-48121158D01*
X36500499Y-48121155D01*
X37399500Y-48121155D01*
X37399500Y-48278844D01*
X37430263Y-48433496D01*
X37430263Y-48433498D01*
X37490603Y-48579174D01*
X37490609Y-48579185D01*
X37543312Y-48658059D01*
X37578211Y-48710289D01*
X37689711Y-48821789D01*
X37767876Y-48874017D01*
X37820814Y-48909390D01*
X37820825Y-48909396D01*
X37838382Y-48916668D01*
X37966503Y-48969737D01*
X38121158Y-49000500D01*
X38121159Y-49000500D01*
X38278841Y-49000500D01*
X38278842Y-49000500D01*
X38433497Y-48969737D01*
X38579179Y-48909394D01*
X38710289Y-48821789D01*
X38821789Y-48710289D01*
X38909394Y-48579179D01*
X38969737Y-48433497D01*
X39000500Y-48278842D01*
X39000500Y-48121158D01*
X39000499Y-48121155D01*
X39399500Y-48121155D01*
X39399500Y-48278844D01*
X39430263Y-48433496D01*
X39430263Y-48433498D01*
X39490603Y-48579174D01*
X39490609Y-48579185D01*
X39543312Y-48658059D01*
X39578211Y-48710289D01*
X39689711Y-48821789D01*
X39767876Y-48874017D01*
X39820814Y-48909390D01*
X39820825Y-48909396D01*
X39838382Y-48916668D01*
X39966503Y-48969737D01*
X40121158Y-49000500D01*
X40121159Y-49000500D01*
X40278841Y-49000500D01*
X40278842Y-49000500D01*
X40433497Y-48969737D01*
X40579179Y-48909394D01*
X40710289Y-48821789D01*
X40821789Y-48710289D01*
X40909394Y-48579179D01*
X40969737Y-48433497D01*
X41000500Y-48278842D01*
X41000500Y-48121158D01*
X40969737Y-47966503D01*
X40921480Y-47850000D01*
X40909396Y-47820825D01*
X40909390Y-47820814D01*
X40874017Y-47767876D01*
X40821789Y-47689711D01*
X40710289Y-47578211D01*
X40654277Y-47540785D01*
X40579185Y-47490609D01*
X40579174Y-47490603D01*
X40433497Y-47430263D01*
X40278844Y-47399500D01*
X40278842Y-47399500D01*
X40121158Y-47399500D01*
X40121155Y-47399500D01*
X39966503Y-47430263D01*
X39966501Y-47430263D01*
X39820825Y-47490603D01*
X39820814Y-47490609D01*
X39689711Y-47578211D01*
X39689707Y-47578214D01*
X39578214Y-47689707D01*
X39578211Y-47689711D01*
X39490609Y-47820814D01*
X39490603Y-47820825D01*
X39430263Y-47966501D01*
X39430263Y-47966503D01*
X39399500Y-48121155D01*
X39000499Y-48121155D01*
X38969737Y-47966503D01*
X38921480Y-47850000D01*
X38909396Y-47820825D01*
X38909390Y-47820814D01*
X38874017Y-47767876D01*
X38821789Y-47689711D01*
X38710289Y-47578211D01*
X38654277Y-47540785D01*
X38579185Y-47490609D01*
X38579174Y-47490603D01*
X38433497Y-47430263D01*
X38278844Y-47399500D01*
X38278842Y-47399500D01*
X38121158Y-47399500D01*
X38121155Y-47399500D01*
X37966503Y-47430263D01*
X37966501Y-47430263D01*
X37820825Y-47490603D01*
X37820814Y-47490609D01*
X37689711Y-47578211D01*
X37689707Y-47578214D01*
X37578214Y-47689707D01*
X37578211Y-47689711D01*
X37490609Y-47820814D01*
X37490603Y-47820825D01*
X37430263Y-47966501D01*
X37430263Y-47966503D01*
X37399500Y-48121155D01*
X36500499Y-48121155D01*
X36469737Y-47966503D01*
X36456193Y-47933805D01*
X36408036Y-47817541D01*
X36400500Y-47779656D01*
X36400500Y-47270433D01*
X36419407Y-47212242D01*
X36468907Y-47176278D01*
X36530093Y-47176278D01*
X36576037Y-47207639D01*
X36578210Y-47210288D01*
X36578211Y-47210289D01*
X36689711Y-47321789D01*
X36767876Y-47374017D01*
X36820814Y-47409390D01*
X36820825Y-47409396D01*
X36828370Y-47412521D01*
X36966503Y-47469737D01*
X37121158Y-47500500D01*
X37121159Y-47500500D01*
X37278841Y-47500500D01*
X37278842Y-47500500D01*
X37433497Y-47469737D01*
X37579179Y-47409394D01*
X37710289Y-47321789D01*
X37821789Y-47210289D01*
X37909394Y-47079179D01*
X37969737Y-46933497D01*
X38000500Y-46778842D01*
X38000500Y-46621158D01*
X38000499Y-46621155D01*
X38000470Y-46621010D01*
X38600000Y-46621010D01*
X38600000Y-46778989D01*
X38640890Y-46931595D01*
X38719877Y-47068403D01*
X38831596Y-47180122D01*
X38968405Y-47259109D01*
X38968403Y-47259109D01*
X39121011Y-47300000D01*
X39278989Y-47300000D01*
X39431595Y-47259109D01*
X39568403Y-47180122D01*
X39680122Y-47068403D01*
X39759109Y-46931595D01*
X39800000Y-46778989D01*
X39800000Y-46621010D01*
X39759109Y-46468404D01*
X39680122Y-46331596D01*
X39568403Y-46219877D01*
X39431594Y-46140890D01*
X39431596Y-46140890D01*
X39278989Y-46100000D01*
X39121011Y-46100000D01*
X38968404Y-46140890D01*
X38831596Y-46219877D01*
X38719877Y-46331596D01*
X38640890Y-46468404D01*
X38600000Y-46621010D01*
X38000470Y-46621010D01*
X37995395Y-46595498D01*
X37969737Y-46466503D01*
X37909394Y-46320821D01*
X37909393Y-46320819D01*
X37909390Y-46320814D01*
X37874017Y-46267876D01*
X37821789Y-46189711D01*
X37710289Y-46078211D01*
X37645498Y-46034919D01*
X37579185Y-45990609D01*
X37579174Y-45990603D01*
X37433497Y-45930263D01*
X37278844Y-45899500D01*
X37278842Y-45899500D01*
X37121158Y-45899500D01*
X37121155Y-45899500D01*
X36966503Y-45930263D01*
X36966501Y-45930263D01*
X36820825Y-45990603D01*
X36820814Y-45990609D01*
X36689711Y-46078211D01*
X36689707Y-46078214D01*
X36578208Y-46189713D01*
X36576032Y-46192366D01*
X36524503Y-46225357D01*
X36463424Y-46221759D01*
X36416124Y-46182947D01*
X36400500Y-46129566D01*
X36400500Y-45490748D01*
X36419407Y-45432557D01*
X36429490Y-45420750D01*
X36524506Y-45325735D01*
X36594348Y-45204765D01*
X36630500Y-45069842D01*
X36630500Y-44930158D01*
X36606894Y-44842058D01*
X38003400Y-44842058D01*
X38003400Y-44981742D01*
X38035221Y-45100500D01*
X38039553Y-45116667D01*
X38039553Y-45116668D01*
X38109392Y-45237632D01*
X38109394Y-45237635D01*
X38208165Y-45336406D01*
X38329135Y-45406248D01*
X38464058Y-45442400D01*
X38464060Y-45442400D01*
X38603740Y-45442400D01*
X38603742Y-45442400D01*
X38738665Y-45406248D01*
X38859635Y-45336406D01*
X38954646Y-45241394D01*
X39009161Y-45213619D01*
X39024648Y-45212400D01*
X40646421Y-45212400D01*
X40704612Y-45231307D01*
X40716425Y-45241396D01*
X41205525Y-45730496D01*
X41233302Y-45785013D01*
X41223731Y-45845445D01*
X41180466Y-45888710D01*
X41135521Y-45899500D01*
X41121155Y-45899500D01*
X40966503Y-45930263D01*
X40966501Y-45930263D01*
X40820825Y-45990603D01*
X40820814Y-45990609D01*
X40689711Y-46078211D01*
X40689707Y-46078214D01*
X40578214Y-46189707D01*
X40578211Y-46189711D01*
X40490609Y-46320814D01*
X40490603Y-46320825D01*
X40430263Y-46466501D01*
X40430263Y-46466503D01*
X40399500Y-46621155D01*
X40399500Y-46778844D01*
X40430263Y-46933496D01*
X40430263Y-46933498D01*
X40490603Y-47079174D01*
X40490609Y-47079185D01*
X40530560Y-47138975D01*
X40578211Y-47210289D01*
X40689711Y-47321789D01*
X40767876Y-47374017D01*
X40820814Y-47409390D01*
X40820825Y-47409396D01*
X40828370Y-47412521D01*
X40966503Y-47469737D01*
X41121158Y-47500500D01*
X41121159Y-47500500D01*
X41278841Y-47500500D01*
X41278842Y-47500500D01*
X41433497Y-47469737D01*
X41579179Y-47409394D01*
X41710289Y-47321789D01*
X41821789Y-47210289D01*
X41821793Y-47210282D01*
X41823963Y-47207639D01*
X41875489Y-47174644D01*
X41936569Y-47178237D01*
X41983872Y-47217046D01*
X41999500Y-47270433D01*
X41999500Y-47779656D01*
X41991964Y-47817541D01*
X41930263Y-47966501D01*
X41930263Y-47966503D01*
X41899500Y-48121155D01*
X41899500Y-48278844D01*
X41930263Y-48433496D01*
X41930263Y-48433498D01*
X41990603Y-48579174D01*
X41990609Y-48579185D01*
X42043312Y-48658059D01*
X42078211Y-48710289D01*
X42189711Y-48821789D01*
X42267876Y-48874017D01*
X42320814Y-48909390D01*
X42320825Y-48909396D01*
X42338382Y-48916668D01*
X42466503Y-48969737D01*
X42621158Y-49000500D01*
X42621159Y-49000500D01*
X42778841Y-49000500D01*
X42778842Y-49000500D01*
X42933497Y-48969737D01*
X43079179Y-48909394D01*
X43210289Y-48821789D01*
X43321789Y-48710289D01*
X43409394Y-48579179D01*
X43469737Y-48433497D01*
X43500500Y-48278842D01*
X43500500Y-48121158D01*
X43469737Y-47966503D01*
X43421480Y-47850000D01*
X43409396Y-47820825D01*
X43409390Y-47820814D01*
X43374017Y-47767876D01*
X43321789Y-47689711D01*
X43287811Y-47655733D01*
X43260035Y-47601217D01*
X43269606Y-47540785D01*
X43312871Y-47497520D01*
X43338498Y-47488633D01*
X43433497Y-47469737D01*
X43579179Y-47409394D01*
X43710289Y-47321789D01*
X43821789Y-47210289D01*
X43909394Y-47079179D01*
X43969737Y-46933497D01*
X44000500Y-46778842D01*
X44000500Y-46621158D01*
X43969737Y-46466503D01*
X43909394Y-46320821D01*
X43909393Y-46320819D01*
X43909390Y-46320814D01*
X43874017Y-46267876D01*
X43821789Y-46189711D01*
X43710289Y-46078211D01*
X43645498Y-46034919D01*
X43579185Y-45990609D01*
X43579174Y-45990603D01*
X43433497Y-45930263D01*
X43278844Y-45899500D01*
X43278842Y-45899500D01*
X43121158Y-45899500D01*
X43121155Y-45899500D01*
X42966503Y-45930263D01*
X42966501Y-45930263D01*
X42820825Y-45990603D01*
X42820814Y-45990609D01*
X42689711Y-46078211D01*
X42689701Y-46078219D01*
X42616449Y-46151471D01*
X42561932Y-46179248D01*
X42501500Y-46169676D01*
X42476442Y-46151471D01*
X41745715Y-45420744D01*
X40996411Y-44671440D01*
X40996408Y-44671438D01*
X40984497Y-44664561D01*
X40984497Y-44664560D01*
X40927889Y-44631879D01*
X40927885Y-44631877D01*
X40851464Y-44611400D01*
X40851462Y-44611400D01*
X39024648Y-44611400D01*
X38966457Y-44592493D01*
X38954650Y-44582409D01*
X38859635Y-44487394D01*
X38837312Y-44474506D01*
X38738667Y-44417553D01*
X38738666Y-44417552D01*
X38738665Y-44417552D01*
X38603742Y-44381400D01*
X38464058Y-44381400D01*
X38329135Y-44417552D01*
X38329134Y-44417552D01*
X38329132Y-44417553D01*
X38329131Y-44417553D01*
X38208167Y-44487392D01*
X38109392Y-44586167D01*
X38039553Y-44707131D01*
X38039553Y-44707132D01*
X38039552Y-44707134D01*
X38039552Y-44707135D01*
X38003400Y-44842058D01*
X36606894Y-44842058D01*
X36594348Y-44795235D01*
X36524506Y-44674265D01*
X36432742Y-44582501D01*
X36404967Y-44527987D01*
X36414538Y-44467555D01*
X36432741Y-44442499D01*
X36499506Y-44375735D01*
X36569348Y-44254765D01*
X36605500Y-44119842D01*
X36605500Y-43980158D01*
X36569348Y-43845235D01*
X36546040Y-43804865D01*
X36522786Y-43764588D01*
X36499506Y-43724265D01*
X36400735Y-43625494D01*
X36400732Y-43625492D01*
X36400420Y-43625180D01*
X36372643Y-43570663D01*
X36371427Y-43555994D01*
X36371355Y-43547283D01*
X36329538Y-38487527D01*
X36347964Y-38429185D01*
X36358526Y-38416714D01*
X36449506Y-38325735D01*
X36519348Y-38204765D01*
X36555500Y-38069842D01*
X36555500Y-37930158D01*
X36519348Y-37795235D01*
X36489968Y-37744348D01*
X36449507Y-37674267D01*
X36449506Y-37674265D01*
X36350735Y-37575494D01*
X36327118Y-37561859D01*
X36229767Y-37505653D01*
X36229766Y-37505652D01*
X36229765Y-37505652D01*
X36094842Y-37469500D01*
X35955158Y-37469500D01*
X35820235Y-37505652D01*
X35820234Y-37505652D01*
X35820232Y-37505653D01*
X35820231Y-37505653D01*
X35699267Y-37575492D01*
X35600492Y-37674267D01*
X35530653Y-37795231D01*
X35530653Y-37795232D01*
X35530652Y-37795234D01*
X35530652Y-37795235D01*
X35494500Y-37930158D01*
X35494500Y-38069842D01*
X35530652Y-38204765D01*
X35530653Y-38204767D01*
X35530653Y-38204768D01*
X35586628Y-38301719D01*
X35600494Y-38325735D01*
X35699265Y-38424506D01*
X35699267Y-38424507D01*
X35699578Y-38424818D01*
X35727355Y-38479335D01*
X35728571Y-38494004D01*
X35733746Y-39120172D01*
X35715320Y-39178517D01*
X35666119Y-39214889D01*
X35604935Y-39215394D01*
X35581631Y-39203257D01*
X35581354Y-39203738D01*
X35454767Y-39130653D01*
X35454766Y-39130652D01*
X35454765Y-39130652D01*
X35319842Y-39094500D01*
X35180158Y-39094500D01*
X35045235Y-39130652D01*
X35045234Y-39130652D01*
X35045232Y-39130653D01*
X35045231Y-39130653D01*
X34924267Y-39200492D01*
X34825492Y-39299267D01*
X34755653Y-39420231D01*
X34755653Y-39420232D01*
X34755652Y-39420234D01*
X34755652Y-39420235D01*
X34719500Y-39555158D01*
X34719500Y-39694842D01*
X34755652Y-39829765D01*
X34755653Y-39829767D01*
X34755653Y-39829768D01*
X34811060Y-39925735D01*
X34825494Y-39950735D01*
X34920505Y-40045746D01*
X34948281Y-40100261D01*
X34949500Y-40115748D01*
X34949500Y-42734251D01*
X34930593Y-42792442D01*
X34920504Y-42804254D01*
X34825493Y-42899265D01*
X34755653Y-43020231D01*
X34755653Y-43020232D01*
X34755652Y-43020234D01*
X34755652Y-43020235D01*
X34719500Y-43155158D01*
X34719500Y-43294842D01*
X34746400Y-43395235D01*
X34755653Y-43429767D01*
X34755653Y-43429768D01*
X34813112Y-43529289D01*
X34825494Y-43550735D01*
X34924265Y-43649506D01*
X35045235Y-43719348D01*
X35180158Y-43755500D01*
X35180160Y-43755500D01*
X35319840Y-43755500D01*
X35319842Y-43755500D01*
X35454765Y-43719348D01*
X35454766Y-43719347D01*
X35461033Y-43717668D01*
X35461893Y-43720879D01*
X35509237Y-43716850D01*
X35561609Y-43748487D01*
X35585382Y-43804865D01*
X35580315Y-43838426D01*
X35582332Y-43838967D01*
X35580652Y-43845233D01*
X35580652Y-43845235D01*
X35544500Y-43980158D01*
X35544500Y-44119842D01*
X35567256Y-44204768D01*
X35580653Y-44254767D01*
X35580653Y-44254768D01*
X35650355Y-44375494D01*
X35650494Y-44375735D01*
X35742257Y-44467498D01*
X35770033Y-44522013D01*
X35760462Y-44582445D01*
X35742258Y-44607500D01*
X35685199Y-44664560D01*
X35675492Y-44674267D01*
X35605653Y-44795231D01*
X35605653Y-44795232D01*
X35605652Y-44795234D01*
X35605652Y-44795235D01*
X35569500Y-44930158D01*
X35569500Y-45069842D01*
X35605652Y-45204765D01*
X35605653Y-45204767D01*
X35605653Y-45204768D01*
X35661178Y-45300939D01*
X35675494Y-45325735D01*
X35770505Y-45420746D01*
X35798281Y-45475261D01*
X35799500Y-45490748D01*
X35799500Y-45952603D01*
X35780593Y-46010794D01*
X35731093Y-46046758D01*
X35669907Y-46046758D01*
X35645499Y-46034919D01*
X35579183Y-45990608D01*
X35579174Y-45990603D01*
X35433497Y-45930263D01*
X35278844Y-45899500D01*
X35278842Y-45899500D01*
X35121158Y-45899500D01*
X35121155Y-45899500D01*
X34966503Y-45930263D01*
X34966501Y-45930263D01*
X34820825Y-45990603D01*
X34820814Y-45990609D01*
X34689711Y-46078211D01*
X34689707Y-46078214D01*
X34578214Y-46189707D01*
X34578211Y-46189711D01*
X34490609Y-46320814D01*
X34490603Y-46320825D01*
X34430263Y-46466501D01*
X34430263Y-46466503D01*
X34399500Y-46621155D01*
X26300500Y-46621155D01*
X26300500Y-43930158D01*
X28349500Y-43930158D01*
X28349500Y-44069842D01*
X28385652Y-44204765D01*
X28385653Y-44204767D01*
X28385653Y-44204768D01*
X28455492Y-44325732D01*
X28455494Y-44325735D01*
X28554265Y-44424506D01*
X28675235Y-44494348D01*
X28810158Y-44530500D01*
X28810160Y-44530500D01*
X28949840Y-44530500D01*
X28949842Y-44530500D01*
X29084765Y-44494348D01*
X29205735Y-44424506D01*
X29304506Y-44325735D01*
X29374348Y-44204765D01*
X29410500Y-44069842D01*
X29410500Y-43930158D01*
X29374348Y-43795235D01*
X29333373Y-43724265D01*
X29304506Y-43674265D01*
X29234786Y-43604544D01*
X29207009Y-43550027D01*
X29205929Y-43529289D01*
X29206994Y-43509251D01*
X29324024Y-41306343D01*
X29345991Y-41249240D01*
X29373390Y-41225859D01*
X29375735Y-41224506D01*
X29474506Y-41125735D01*
X29544348Y-41004765D01*
X29580500Y-40869842D01*
X29580500Y-40730158D01*
X29544348Y-40595235D01*
X29474506Y-40474265D01*
X29375735Y-40375494D01*
X29348557Y-40359803D01*
X29254767Y-40305653D01*
X29254766Y-40305652D01*
X29254765Y-40305652D01*
X29119842Y-40269500D01*
X28980158Y-40269500D01*
X28845235Y-40305652D01*
X28845234Y-40305652D01*
X28845232Y-40305653D01*
X28845231Y-40305653D01*
X28724267Y-40375492D01*
X28625492Y-40474267D01*
X28555653Y-40595231D01*
X28555653Y-40595232D01*
X28555652Y-40595234D01*
X28555652Y-40595235D01*
X28519500Y-40730158D01*
X28519500Y-40869842D01*
X28554508Y-41000494D01*
X28555653Y-41004767D01*
X28555653Y-41004768D01*
X28624918Y-41124738D01*
X28625494Y-41125735D01*
X28695213Y-41195454D01*
X28722989Y-41249969D01*
X28724069Y-41270708D01*
X28605975Y-43493653D01*
X28584007Y-43550759D01*
X28556623Y-43574132D01*
X28554267Y-43575492D01*
X28554260Y-43575497D01*
X28455493Y-43674265D01*
X28385653Y-43795231D01*
X28385653Y-43795232D01*
X28385652Y-43795234D01*
X28385652Y-43795235D01*
X28349500Y-43930158D01*
X26300500Y-43930158D01*
X26300500Y-39161325D01*
X26319407Y-39103134D01*
X26328261Y-39092579D01*
X30701472Y-34560753D01*
X30755485Y-34532010D01*
X30772711Y-34530500D01*
X30894840Y-34530500D01*
X30894842Y-34530500D01*
X31029765Y-34494348D01*
X31150735Y-34424506D01*
X31249506Y-34325735D01*
X31319348Y-34204765D01*
X31355500Y-34069842D01*
X31355500Y-33930158D01*
X31319348Y-33795235D01*
X31249506Y-33674265D01*
X31150735Y-33575494D01*
X31149025Y-33574507D01*
X31029767Y-33505653D01*
X31029766Y-33505652D01*
X31029765Y-33505652D01*
X30894842Y-33469500D01*
X30755158Y-33469500D01*
X30620235Y-33505652D01*
X30620234Y-33505652D01*
X30620232Y-33505653D01*
X30620231Y-33505653D01*
X30499267Y-33575492D01*
X30400492Y-33674267D01*
X30330653Y-33795231D01*
X30330653Y-33795232D01*
X30330652Y-33795234D01*
X30330652Y-33795235D01*
X30310752Y-33869506D01*
X30294500Y-33930159D01*
X30294500Y-34076330D01*
X30291460Y-34076330D01*
X30282552Y-34124227D01*
X30266818Y-34145679D01*
X25786233Y-38788773D01*
X25784999Y-38790029D01*
X25759531Y-38815496D01*
X25759386Y-38815687D01*
X25759006Y-38816128D01*
X25758424Y-38816916D01*
X25757387Y-38818293D01*
X25756765Y-38819102D01*
X25756436Y-38819605D01*
X25756295Y-38819794D01*
X25738814Y-38851355D01*
X25737950Y-38852883D01*
X25719974Y-38884018D01*
X25719883Y-38884240D01*
X25719624Y-38884776D01*
X25719265Y-38885691D01*
X25718605Y-38887326D01*
X25718233Y-38888222D01*
X25718049Y-38888782D01*
X25717958Y-38889011D01*
X25709252Y-38923979D01*
X25708812Y-38925679D01*
X25699498Y-38960441D01*
X25699468Y-38960673D01*
X25699359Y-38961250D01*
X25699245Y-38962254D01*
X25699034Y-38963975D01*
X25698901Y-38964980D01*
X25698868Y-38965578D01*
X25698842Y-38965800D01*
X25699484Y-39001785D01*
X25699500Y-39003549D01*
X25699500Y-52100500D01*
X25680593Y-52158691D01*
X25631093Y-52194655D01*
X25600500Y-52199500D01*
X13399500Y-52199500D01*
X13341309Y-52180593D01*
X13305345Y-52131093D01*
X13300500Y-52100500D01*
X13300500Y-49381055D01*
X19700000Y-49381055D01*
X19700000Y-51218944D01*
X19726901Y-51354183D01*
X19779666Y-51481571D01*
X19856271Y-51596220D01*
X19953779Y-51693728D01*
X20068428Y-51770333D01*
X20195816Y-51823098D01*
X20331055Y-51849999D01*
X20331057Y-51850000D01*
X20468943Y-51850000D01*
X20468944Y-51849999D01*
X20604183Y-51823098D01*
X20731571Y-51770333D01*
X20846220Y-51693728D01*
X20943728Y-51596220D01*
X21020333Y-51481571D01*
X21073098Y-51354183D01*
X21099999Y-51218944D01*
X21100000Y-51218942D01*
X21100000Y-49381057D01*
X21099999Y-49381055D01*
X21073098Y-49245816D01*
X21020333Y-49118428D01*
X20943728Y-49003779D01*
X20846220Y-48906271D01*
X20731571Y-48829666D01*
X20604183Y-48776901D01*
X20468944Y-48750000D01*
X20331055Y-48750000D01*
X20195816Y-48776901D01*
X20068428Y-48829666D01*
X19953779Y-48906271D01*
X19856271Y-49003779D01*
X19779666Y-49118428D01*
X19726901Y-49245816D01*
X19700000Y-49381055D01*
X13300500Y-49381055D01*
X13300500Y-49008133D01*
X13319407Y-48949942D01*
X13361612Y-48916670D01*
X13379179Y-48909394D01*
X13510289Y-48821789D01*
X13621789Y-48710289D01*
X13709394Y-48579179D01*
X13769737Y-48433497D01*
X13800500Y-48278842D01*
X13800500Y-48121158D01*
X13769737Y-47966503D01*
X13721480Y-47850000D01*
X13709396Y-47820825D01*
X13709390Y-47820814D01*
X13674017Y-47767876D01*
X13621789Y-47689711D01*
X13510289Y-47578211D01*
X13454277Y-47540785D01*
X13379185Y-47490609D01*
X13379174Y-47490603D01*
X13233497Y-47430263D01*
X13078844Y-47399500D01*
X13078842Y-47399500D01*
X12921158Y-47399500D01*
X12921155Y-47399500D01*
X12766503Y-47430263D01*
X12766501Y-47430263D01*
X12620825Y-47490603D01*
X12620814Y-47490609D01*
X12489711Y-47578211D01*
X12489707Y-47578214D01*
X12378214Y-47689707D01*
X12378211Y-47689711D01*
X12290609Y-47820814D01*
X12290603Y-47820825D01*
X12230263Y-47966501D01*
X12230263Y-47966503D01*
X12199500Y-48121155D01*
X12199500Y-48278844D01*
X12230263Y-48433496D01*
X12230263Y-48433498D01*
X12290603Y-48579174D01*
X12290609Y-48579185D01*
X12343312Y-48658059D01*
X12378211Y-48710289D01*
X12489711Y-48821789D01*
X12567876Y-48874017D01*
X12620814Y-48909390D01*
X12620816Y-48909390D01*
X12620821Y-48909394D01*
X12638387Y-48916670D01*
X12684911Y-48956405D01*
X12699500Y-49008133D01*
X12699500Y-52100500D01*
X12680593Y-52158691D01*
X12631093Y-52194655D01*
X12600500Y-52199500D01*
X5899500Y-52199500D01*
X5841309Y-52180593D01*
X5805345Y-52131093D01*
X5800500Y-52100500D01*
X5800500Y-49381055D01*
X6900000Y-49381055D01*
X6900000Y-51218944D01*
X6926901Y-51354183D01*
X6979666Y-51481571D01*
X7056271Y-51596220D01*
X7153779Y-51693728D01*
X7268428Y-51770333D01*
X7395816Y-51823098D01*
X7531055Y-51849999D01*
X7531057Y-51850000D01*
X7668943Y-51850000D01*
X7668944Y-51849999D01*
X7804183Y-51823098D01*
X7931571Y-51770333D01*
X8046220Y-51693728D01*
X8143728Y-51596220D01*
X8220333Y-51481571D01*
X8273098Y-51354183D01*
X8299999Y-51218944D01*
X8300000Y-51218942D01*
X8300000Y-49381057D01*
X8299999Y-49381055D01*
X8273098Y-49245816D01*
X8220333Y-49118428D01*
X8143728Y-49003779D01*
X8046220Y-48906271D01*
X7931571Y-48829666D01*
X7804183Y-48776901D01*
X7668944Y-48750000D01*
X7531055Y-48750000D01*
X7395816Y-48776901D01*
X7268428Y-48829666D01*
X7153779Y-48906271D01*
X7056271Y-49003779D01*
X6979666Y-49118428D01*
X6926901Y-49245816D01*
X6900000Y-49381055D01*
X5800500Y-49381055D01*
X5800500Y-46621155D01*
X9199500Y-46621155D01*
X9199500Y-46778844D01*
X9230263Y-46933496D01*
X9230263Y-46933498D01*
X9290603Y-47079174D01*
X9290609Y-47079185D01*
X9330560Y-47138975D01*
X9378211Y-47210289D01*
X9489711Y-47321789D01*
X9567876Y-47374017D01*
X9620814Y-47409390D01*
X9620825Y-47409396D01*
X9628370Y-47412521D01*
X9766503Y-47469737D01*
X9861498Y-47488632D01*
X9914881Y-47518529D01*
X9940497Y-47574094D01*
X9928560Y-47634103D01*
X9912188Y-47655733D01*
X9878214Y-47689707D01*
X9878211Y-47689711D01*
X9790609Y-47820814D01*
X9790603Y-47820825D01*
X9730263Y-47966501D01*
X9730263Y-47966503D01*
X9699500Y-48121155D01*
X9699500Y-48278844D01*
X9730263Y-48433496D01*
X9730263Y-48433498D01*
X9790603Y-48579174D01*
X9790609Y-48579185D01*
X9843312Y-48658059D01*
X9878211Y-48710289D01*
X9989711Y-48821789D01*
X10067876Y-48874017D01*
X10120814Y-48909390D01*
X10120825Y-48909396D01*
X10138382Y-48916668D01*
X10266503Y-48969737D01*
X10421158Y-49000500D01*
X10421159Y-49000500D01*
X10578841Y-49000500D01*
X10578842Y-49000500D01*
X10733497Y-48969737D01*
X10879179Y-48909394D01*
X11010289Y-48821789D01*
X11121789Y-48710289D01*
X11209394Y-48579179D01*
X11269737Y-48433497D01*
X11300500Y-48278842D01*
X11300500Y-48121158D01*
X11269737Y-47966503D01*
X11221480Y-47850000D01*
X11209396Y-47820825D01*
X11209390Y-47820814D01*
X11174017Y-47767876D01*
X11121789Y-47689711D01*
X11010289Y-47578211D01*
X10954277Y-47540785D01*
X10879185Y-47490609D01*
X10879174Y-47490603D01*
X10733497Y-47430263D01*
X10638502Y-47411367D01*
X10585118Y-47381470D01*
X10559502Y-47325905D01*
X10571439Y-47265895D01*
X10587809Y-47244268D01*
X10621789Y-47210289D01*
X10709394Y-47079179D01*
X10769737Y-46933497D01*
X10800500Y-46778842D01*
X10800500Y-46621158D01*
X10800499Y-46621155D01*
X11199500Y-46621155D01*
X11199500Y-46778844D01*
X11230263Y-46933496D01*
X11230263Y-46933498D01*
X11290603Y-47079174D01*
X11290609Y-47079185D01*
X11330560Y-47138975D01*
X11378211Y-47210289D01*
X11489711Y-47321789D01*
X11567876Y-47374017D01*
X11620814Y-47409390D01*
X11620825Y-47409396D01*
X11628370Y-47412521D01*
X11766503Y-47469737D01*
X11921158Y-47500500D01*
X11921159Y-47500500D01*
X12078841Y-47500500D01*
X12078842Y-47500500D01*
X12233497Y-47469737D01*
X12379179Y-47409394D01*
X12510289Y-47321789D01*
X12621789Y-47210289D01*
X12709394Y-47079179D01*
X12769737Y-46933497D01*
X12800500Y-46778842D01*
X12800500Y-46621158D01*
X12800499Y-46621155D01*
X13199500Y-46621155D01*
X13199500Y-46778844D01*
X13230263Y-46933496D01*
X13230263Y-46933498D01*
X13290603Y-47079174D01*
X13290609Y-47079185D01*
X13330560Y-47138975D01*
X13378211Y-47210289D01*
X13489711Y-47321789D01*
X13567876Y-47374017D01*
X13620814Y-47409390D01*
X13620825Y-47409396D01*
X13628370Y-47412521D01*
X13766503Y-47469737D01*
X13921158Y-47500500D01*
X13921159Y-47500500D01*
X14078841Y-47500500D01*
X14078842Y-47500500D01*
X14233497Y-47469737D01*
X14379179Y-47409394D01*
X14510289Y-47321789D01*
X14621789Y-47210289D01*
X14709394Y-47079179D01*
X14769737Y-46933497D01*
X14800500Y-46778842D01*
X14800500Y-46621158D01*
X14769737Y-46466503D01*
X14769623Y-46466229D01*
X14769613Y-46466097D01*
X14768325Y-46461850D01*
X14769256Y-46461567D01*
X14764815Y-46405235D01*
X14792598Y-46356845D01*
X14830202Y-46320821D01*
X16354783Y-44860305D01*
X16409882Y-44833704D01*
X16470094Y-44844570D01*
X16512421Y-44888753D01*
X16520693Y-44949377D01*
X16519643Y-44954068D01*
X16519500Y-44955157D01*
X16519500Y-44955158D01*
X16519500Y-45094842D01*
X16555652Y-45229765D01*
X16555653Y-45229767D01*
X16555653Y-45229768D01*
X16625492Y-45350732D01*
X16625494Y-45350735D01*
X16720505Y-45445746D01*
X16748281Y-45500261D01*
X16749500Y-45515748D01*
X16749500Y-46078414D01*
X16730593Y-46136605D01*
X16681093Y-46172569D01*
X16619907Y-46172569D01*
X16580496Y-46148418D01*
X16510292Y-46078214D01*
X16510289Y-46078211D01*
X16445498Y-46034919D01*
X16379185Y-45990609D01*
X16379174Y-45990603D01*
X16233497Y-45930263D01*
X16078844Y-45899500D01*
X16078842Y-45899500D01*
X15921158Y-45899500D01*
X15921155Y-45899500D01*
X15766503Y-45930263D01*
X15766501Y-45930263D01*
X15620825Y-45990603D01*
X15620814Y-45990609D01*
X15489711Y-46078211D01*
X15489707Y-46078214D01*
X15378214Y-46189707D01*
X15378211Y-46189711D01*
X15290609Y-46320814D01*
X15290603Y-46320825D01*
X15230263Y-46466501D01*
X15230263Y-46466503D01*
X15199500Y-46621155D01*
X15199500Y-46778844D01*
X15230263Y-46933496D01*
X15230263Y-46933498D01*
X15290603Y-47079174D01*
X15290609Y-47079185D01*
X15330560Y-47138975D01*
X15378211Y-47210289D01*
X15489711Y-47321789D01*
X15567876Y-47374017D01*
X15620814Y-47409390D01*
X15620825Y-47409396D01*
X15628370Y-47412521D01*
X15766503Y-47469737D01*
X15882468Y-47492804D01*
X15925928Y-47501449D01*
X15925693Y-47502628D01*
X15976787Y-47524968D01*
X16007734Y-47577750D01*
X16001747Y-47638641D01*
X15981042Y-47668986D01*
X15842684Y-47807344D01*
X15788167Y-47835121D01*
X15727735Y-47825550D01*
X15690365Y-47792342D01*
X15681888Y-47779656D01*
X15621789Y-47689711D01*
X15510289Y-47578211D01*
X15454277Y-47540785D01*
X15379185Y-47490609D01*
X15379174Y-47490603D01*
X15233497Y-47430263D01*
X15078844Y-47399500D01*
X15078842Y-47399500D01*
X14921158Y-47399500D01*
X14921155Y-47399500D01*
X14766503Y-47430263D01*
X14766501Y-47430263D01*
X14620825Y-47490603D01*
X14620814Y-47490609D01*
X14489711Y-47578211D01*
X14489707Y-47578214D01*
X14378214Y-47689707D01*
X14378211Y-47689711D01*
X14290609Y-47820814D01*
X14290603Y-47820825D01*
X14230263Y-47966501D01*
X14230263Y-47966503D01*
X14199500Y-48121155D01*
X14199500Y-48278844D01*
X14230263Y-48433496D01*
X14230263Y-48433498D01*
X14290603Y-48579174D01*
X14290609Y-48579185D01*
X14343312Y-48658059D01*
X14378211Y-48710289D01*
X14489711Y-48821789D01*
X14567876Y-48874017D01*
X14620814Y-48909390D01*
X14620825Y-48909396D01*
X14638382Y-48916668D01*
X14766503Y-48969737D01*
X14921158Y-49000500D01*
X14921159Y-49000500D01*
X15078841Y-49000500D01*
X15078842Y-49000500D01*
X15233497Y-48969737D01*
X15379179Y-48909394D01*
X15510289Y-48821789D01*
X15621789Y-48710289D01*
X15709394Y-48579179D01*
X15716670Y-48561612D01*
X15756408Y-48515088D01*
X15808134Y-48500500D01*
X15914563Y-48500500D01*
X15914563Y-48500499D01*
X15990989Y-48480021D01*
X16059511Y-48440460D01*
X16115460Y-48384511D01*
X17263944Y-47236026D01*
X17318459Y-47208251D01*
X17378891Y-47217822D01*
X17403950Y-47236028D01*
X17489711Y-47321789D01*
X17567876Y-47374017D01*
X17620814Y-47409390D01*
X17620823Y-47409395D01*
X17621161Y-47409535D01*
X17621288Y-47409643D01*
X17625106Y-47411684D01*
X17624658Y-47412521D01*
X17667688Y-47449271D01*
X17681973Y-47508765D01*
X17658560Y-47565294D01*
X17606391Y-47597264D01*
X17583278Y-47600000D01*
X17421011Y-47600000D01*
X17268404Y-47640890D01*
X17131596Y-47719877D01*
X17019877Y-47831596D01*
X16940890Y-47968404D01*
X16900000Y-48121010D01*
X16900000Y-48278989D01*
X16940890Y-48431595D01*
X17019877Y-48568403D01*
X17131596Y-48680122D01*
X17268405Y-48759109D01*
X17268403Y-48759109D01*
X17421011Y-48800000D01*
X17578989Y-48800000D01*
X17731595Y-48759109D01*
X17868403Y-48680122D01*
X17980122Y-48568403D01*
X18059109Y-48431595D01*
X18100000Y-48278989D01*
X18100000Y-48121010D01*
X18059109Y-47968404D01*
X17980122Y-47831596D01*
X17868405Y-47719879D01*
X17780280Y-47668999D01*
X17739340Y-47623529D01*
X17732945Y-47562679D01*
X17763538Y-47509691D01*
X17819434Y-47484805D01*
X17849090Y-47486164D01*
X17921158Y-47500500D01*
X17921159Y-47500500D01*
X18078841Y-47500500D01*
X18078842Y-47500500D01*
X18233497Y-47469737D01*
X18379179Y-47409394D01*
X18510289Y-47321789D01*
X18621789Y-47210289D01*
X18709394Y-47079179D01*
X18769737Y-46933497D01*
X18800500Y-46778842D01*
X18800500Y-46621158D01*
X18769737Y-46466503D01*
X18709394Y-46320821D01*
X18709393Y-46320819D01*
X18709390Y-46320814D01*
X18674017Y-46267876D01*
X18621789Y-46189711D01*
X18510289Y-46078211D01*
X18445498Y-46034919D01*
X18379185Y-45990609D01*
X18379174Y-45990603D01*
X18233497Y-45930263D01*
X18078844Y-45899500D01*
X18078842Y-45899500D01*
X17921158Y-45899500D01*
X17921155Y-45899500D01*
X17766503Y-45930263D01*
X17766501Y-45930263D01*
X17620825Y-45990603D01*
X17620813Y-45990609D01*
X17504502Y-46068328D01*
X17445614Y-46084937D01*
X17388210Y-46063760D01*
X17354217Y-46012886D01*
X17350500Y-45986013D01*
X17350500Y-45515748D01*
X17369407Y-45457557D01*
X17379490Y-45445750D01*
X17474506Y-45350735D01*
X17544348Y-45229765D01*
X17580500Y-45094842D01*
X17580500Y-44955158D01*
X17544348Y-44820235D01*
X17474506Y-44699265D01*
X17375735Y-44600494D01*
X17366626Y-44595235D01*
X17254767Y-44530653D01*
X17254766Y-44530652D01*
X17254765Y-44530652D01*
X17119842Y-44494500D01*
X16983088Y-44494500D01*
X16924897Y-44475593D01*
X16888933Y-44426093D01*
X16888933Y-44364907D01*
X16914603Y-44324011D01*
X18069200Y-43217931D01*
X18124300Y-43191329D01*
X18140569Y-43191291D01*
X18140569Y-43190800D01*
X18286740Y-43190800D01*
X18286742Y-43190800D01*
X18421665Y-43154648D01*
X18542635Y-43084806D01*
X18641406Y-42986035D01*
X18711248Y-42865065D01*
X18747400Y-42730142D01*
X18747400Y-42590458D01*
X18711248Y-42455535D01*
X18696371Y-42429768D01*
X18641407Y-42334567D01*
X18641406Y-42334565D01*
X18542635Y-42235794D01*
X18421665Y-42165952D01*
X18286742Y-42129800D01*
X18147058Y-42129800D01*
X18012135Y-42165952D01*
X18012134Y-42165952D01*
X18012132Y-42165953D01*
X18012131Y-42165953D01*
X17891167Y-42235792D01*
X17792392Y-42334567D01*
X17722553Y-42455531D01*
X17722553Y-42455532D01*
X17722552Y-42455534D01*
X17722552Y-42455535D01*
X17691925Y-42569840D01*
X17686400Y-42590459D01*
X17686400Y-42710112D01*
X17667493Y-42768303D01*
X17655887Y-42781599D01*
X17073831Y-43339197D01*
X15746718Y-44610542D01*
X15691618Y-44637143D01*
X15631406Y-44626277D01*
X15589079Y-44582094D01*
X15582852Y-44561245D01*
X15582179Y-44561426D01*
X15580500Y-44555159D01*
X15580500Y-44555158D01*
X15544348Y-44420235D01*
X15512404Y-44364907D01*
X15474506Y-44299265D01*
X15379496Y-44204254D01*
X15351719Y-44149738D01*
X15350500Y-44134251D01*
X15350500Y-42715748D01*
X15369407Y-42657557D01*
X15379490Y-42645750D01*
X15474506Y-42550735D01*
X15544348Y-42429765D01*
X15580500Y-42294842D01*
X15580500Y-42155158D01*
X15544348Y-42020235D01*
X15535927Y-42005650D01*
X15497786Y-41939588D01*
X15474506Y-41899265D01*
X15375735Y-41800494D01*
X15254765Y-41730652D01*
X15119842Y-41694500D01*
X14980158Y-41694500D01*
X14912696Y-41712576D01*
X14845233Y-41730652D01*
X14792354Y-41761182D01*
X14732505Y-41773903D01*
X14676610Y-41749015D01*
X14646018Y-41696027D01*
X14652415Y-41635177D01*
X14657113Y-41625956D01*
X14669348Y-41604765D01*
X14705500Y-41469842D01*
X14705500Y-41330158D01*
X14669348Y-41195235D01*
X14660121Y-41179254D01*
X14599506Y-41074265D01*
X14504496Y-40979254D01*
X14476719Y-40924738D01*
X14475500Y-40909251D01*
X14475500Y-39490748D01*
X14494407Y-39432557D01*
X14504490Y-39420750D01*
X14599506Y-39325735D01*
X14669348Y-39204765D01*
X14705500Y-39069842D01*
X14705500Y-38930158D01*
X14669348Y-38795235D01*
X14666342Y-38790029D01*
X14611569Y-38695159D01*
X14599506Y-38674265D01*
X14500735Y-38575494D01*
X14474300Y-38560232D01*
X14379767Y-38505653D01*
X14379766Y-38505652D01*
X14379765Y-38505652D01*
X14244842Y-38469500D01*
X14105158Y-38469500D01*
X13970235Y-38505652D01*
X13970234Y-38505652D01*
X13970232Y-38505653D01*
X13970231Y-38505653D01*
X13849267Y-38575492D01*
X13750492Y-38674267D01*
X13680653Y-38795231D01*
X13680653Y-38795232D01*
X13680652Y-38795234D01*
X13680652Y-38795235D01*
X13644500Y-38930158D01*
X13644500Y-39069842D01*
X13679508Y-39200494D01*
X13680653Y-39204767D01*
X13680653Y-39204768D01*
X13750492Y-39325732D01*
X13750494Y-39325735D01*
X13845505Y-39420746D01*
X13873281Y-39475261D01*
X13874500Y-39490748D01*
X13874500Y-40909251D01*
X13855593Y-40967442D01*
X13845504Y-40979254D01*
X13750493Y-41074265D01*
X13680653Y-41195231D01*
X13680653Y-41195232D01*
X13680652Y-41195234D01*
X13680652Y-41195235D01*
X13644500Y-41330158D01*
X13644500Y-41469842D01*
X13680652Y-41604765D01*
X13680653Y-41604767D01*
X13680653Y-41604768D01*
X13706677Y-41649842D01*
X13750494Y-41725735D01*
X13849265Y-41824506D01*
X13970235Y-41894348D01*
X14105158Y-41930500D01*
X14105160Y-41930500D01*
X14244840Y-41930500D01*
X14244842Y-41930500D01*
X14379765Y-41894348D01*
X14432645Y-41863817D01*
X14492492Y-41851096D01*
X14548387Y-41875982D01*
X14578980Y-41928970D01*
X14572585Y-41989820D01*
X14567881Y-41999053D01*
X14555652Y-42020233D01*
X14535794Y-42094346D01*
X14519500Y-42155158D01*
X14519500Y-42294842D01*
X14555652Y-42429765D01*
X14555653Y-42429767D01*
X14555653Y-42429768D01*
X14570530Y-42455535D01*
X14625494Y-42550735D01*
X14720505Y-42645746D01*
X14748281Y-42700261D01*
X14749500Y-42715748D01*
X14749500Y-44134251D01*
X14730593Y-44192442D01*
X14720504Y-44204254D01*
X14625493Y-44299265D01*
X14555653Y-44420231D01*
X14555653Y-44420232D01*
X14555652Y-44420234D01*
X14555652Y-44420235D01*
X14519500Y-44555158D01*
X14519500Y-44694842D01*
X14555652Y-44829765D01*
X14555653Y-44829767D01*
X14555653Y-44829768D01*
X14619187Y-44939811D01*
X14625494Y-44950735D01*
X14724265Y-45049506D01*
X14845235Y-45119348D01*
X14964834Y-45151394D01*
X15016147Y-45184717D01*
X15038074Y-45241838D01*
X15022239Y-45300939D01*
X15007695Y-45318509D01*
X14374838Y-45924773D01*
X14319738Y-45951375D01*
X14268471Y-45944749D01*
X14233497Y-45930263D01*
X14233493Y-45930262D01*
X14078844Y-45899500D01*
X14078842Y-45899500D01*
X13921158Y-45899500D01*
X13921155Y-45899500D01*
X13766503Y-45930263D01*
X13766501Y-45930263D01*
X13620825Y-45990603D01*
X13620814Y-45990609D01*
X13489711Y-46078211D01*
X13489707Y-46078214D01*
X13378214Y-46189707D01*
X13378211Y-46189711D01*
X13290609Y-46320814D01*
X13290603Y-46320825D01*
X13230263Y-46466501D01*
X13230263Y-46466503D01*
X13199500Y-46621155D01*
X12800499Y-46621155D01*
X12769737Y-46466503D01*
X12709394Y-46320821D01*
X12709393Y-46320819D01*
X12709390Y-46320814D01*
X12674017Y-46267876D01*
X12621789Y-46189711D01*
X12510289Y-46078211D01*
X12445498Y-46034919D01*
X12379185Y-45990609D01*
X12379174Y-45990603D01*
X12233497Y-45930263D01*
X12078844Y-45899500D01*
X12078842Y-45899500D01*
X11921158Y-45899500D01*
X11921155Y-45899500D01*
X11766503Y-45930263D01*
X11766501Y-45930263D01*
X11620825Y-45990603D01*
X11620814Y-45990609D01*
X11489711Y-46078211D01*
X11489707Y-46078214D01*
X11378214Y-46189707D01*
X11378211Y-46189711D01*
X11290609Y-46320814D01*
X11290603Y-46320825D01*
X11230263Y-46466501D01*
X11230263Y-46466503D01*
X11199500Y-46621155D01*
X10800499Y-46621155D01*
X10769737Y-46466503D01*
X10709394Y-46320821D01*
X10709393Y-46320819D01*
X10709390Y-46320814D01*
X10674017Y-46267876D01*
X10621789Y-46189711D01*
X10510289Y-46078211D01*
X10445498Y-46034919D01*
X10379185Y-45990609D01*
X10379174Y-45990603D01*
X10233497Y-45930263D01*
X10078844Y-45899500D01*
X10078842Y-45899500D01*
X9921158Y-45899500D01*
X9921155Y-45899500D01*
X9766503Y-45930263D01*
X9766501Y-45930263D01*
X9620825Y-45990603D01*
X9620814Y-45990609D01*
X9489711Y-46078211D01*
X9489707Y-46078214D01*
X9378214Y-46189707D01*
X9378211Y-46189711D01*
X9290609Y-46320814D01*
X9290603Y-46320825D01*
X9230263Y-46466501D01*
X9230263Y-46466503D01*
X9199500Y-46621155D01*
X5800500Y-46621155D01*
X5800500Y-43246903D01*
X5819407Y-43188712D01*
X5855223Y-43158357D01*
X8345615Y-41913160D01*
X8406117Y-41904048D01*
X8439390Y-41915973D01*
X8445235Y-41919348D01*
X8580158Y-41955500D01*
X8580160Y-41955500D01*
X8719840Y-41955500D01*
X8719842Y-41955500D01*
X8854765Y-41919348D01*
X8975735Y-41849506D01*
X9074506Y-41750735D01*
X9144348Y-41629765D01*
X9180500Y-41494842D01*
X9180500Y-41355158D01*
X9144348Y-41220235D01*
X9074506Y-41099265D01*
X8975735Y-41000494D01*
X8938946Y-40979254D01*
X8854767Y-40930653D01*
X8854766Y-40930652D01*
X8854765Y-40930652D01*
X8719842Y-40894500D01*
X8580158Y-40894500D01*
X8445235Y-40930652D01*
X8445234Y-40930652D01*
X8445232Y-40930653D01*
X8445231Y-40930653D01*
X8324267Y-41000492D01*
X8225492Y-41099267D01*
X8155653Y-41220231D01*
X8155650Y-41220238D01*
X8131294Y-41311135D01*
X8097970Y-41362449D01*
X8079942Y-41374059D01*
X5401793Y-42713133D01*
X5386778Y-42718831D01*
X5384016Y-42719976D01*
X5384011Y-42719979D01*
X5360127Y-42733767D01*
X5354914Y-42736572D01*
X5330231Y-42748914D01*
X5327782Y-42750569D01*
X5317808Y-42757759D01*
X5315490Y-42759538D01*
X5295987Y-42779040D01*
X5291674Y-42783102D01*
X5271027Y-42801412D01*
X5269097Y-42803637D01*
X5261343Y-42813138D01*
X5259542Y-42815486D01*
X5245747Y-42839376D01*
X5242635Y-42844411D01*
X5227431Y-42867441D01*
X5226122Y-42870133D01*
X5221115Y-42881265D01*
X5219978Y-42884010D01*
X5212838Y-42910653D01*
X5211135Y-42916324D01*
X5202410Y-42942503D01*
X5201842Y-42945442D01*
X5199889Y-42957480D01*
X5199500Y-42960439D01*
X5199500Y-42988026D01*
X5199322Y-42993957D01*
X5197669Y-43021482D01*
X500500Y-43021482D01*
X500500Y-36930158D01*
X10007000Y-36930158D01*
X10007000Y-37069842D01*
X10043152Y-37204765D01*
X10043153Y-37204767D01*
X10043153Y-37204768D01*
X10112992Y-37325732D01*
X10112994Y-37325735D01*
X10208005Y-37420746D01*
X10235781Y-37475261D01*
X10237000Y-37490748D01*
X10237000Y-40909251D01*
X10218093Y-40967442D01*
X10208004Y-40979254D01*
X10112993Y-41074265D01*
X10043153Y-41195231D01*
X10043153Y-41195232D01*
X10043152Y-41195234D01*
X10043152Y-41195235D01*
X10007000Y-41330158D01*
X10007000Y-41469842D01*
X10043152Y-41604765D01*
X10043153Y-41604767D01*
X10043153Y-41604768D01*
X10069177Y-41649842D01*
X10112994Y-41725735D01*
X10211765Y-41824506D01*
X10332735Y-41894348D01*
X10467658Y-41930500D01*
X10467660Y-41930500D01*
X10607340Y-41930500D01*
X10607342Y-41930500D01*
X10742265Y-41894348D01*
X10863235Y-41824506D01*
X10962006Y-41725735D01*
X11031848Y-41604765D01*
X11068000Y-41469842D01*
X11068000Y-41330158D01*
X11031848Y-41195235D01*
X11022621Y-41179254D01*
X10962006Y-41074265D01*
X10866996Y-40979254D01*
X10839219Y-40924738D01*
X10838000Y-40909251D01*
X10838000Y-37490748D01*
X10856907Y-37432557D01*
X10866990Y-37420750D01*
X10867498Y-37420242D01*
X10922013Y-37392467D01*
X10982445Y-37402038D01*
X11007500Y-37420241D01*
X11011765Y-37424506D01*
X11132735Y-37494348D01*
X11267658Y-37530500D01*
X11267660Y-37530500D01*
X11407340Y-37530500D01*
X11407342Y-37530500D01*
X11542265Y-37494348D01*
X11663235Y-37424506D01*
X11762006Y-37325735D01*
X11831848Y-37204765D01*
X11868000Y-37069842D01*
X11868000Y-36930158D01*
X11831848Y-36795235D01*
X11822621Y-36779254D01*
X11762006Y-36674265D01*
X11666996Y-36579254D01*
X11639219Y-36524738D01*
X11638000Y-36509251D01*
X11638000Y-35490748D01*
X11656907Y-35432557D01*
X11666990Y-35420750D01*
X11762006Y-35325735D01*
X11831848Y-35204765D01*
X11868000Y-35069842D01*
X11868000Y-34930158D01*
X11831848Y-34795235D01*
X11822621Y-34779254D01*
X11762007Y-34674267D01*
X11762006Y-34674265D01*
X11663235Y-34575494D01*
X11587918Y-34532010D01*
X11542267Y-34505653D01*
X11542266Y-34505652D01*
X11542265Y-34505652D01*
X11407342Y-34469500D01*
X11267658Y-34469500D01*
X11132735Y-34505652D01*
X11132734Y-34505652D01*
X11132732Y-34505653D01*
X11132731Y-34505653D01*
X11011767Y-34575492D01*
X10912992Y-34674267D01*
X10843153Y-34795231D01*
X10843153Y-34795232D01*
X10843152Y-34795234D01*
X10843152Y-34795235D01*
X10807000Y-34930158D01*
X10807000Y-35069842D01*
X10843152Y-35204765D01*
X10843153Y-35204767D01*
X10843153Y-35204768D01*
X10904055Y-35310252D01*
X10912994Y-35325735D01*
X11008005Y-35420746D01*
X11035781Y-35475261D01*
X11037000Y-35490748D01*
X11037000Y-36509251D01*
X11018093Y-36567442D01*
X11007934Y-36579324D01*
X11007433Y-36579824D01*
X10952888Y-36607548D01*
X10892466Y-36597916D01*
X10867498Y-36579757D01*
X10863235Y-36575494D01*
X10809288Y-36544348D01*
X10742267Y-36505653D01*
X10742266Y-36505652D01*
X10742265Y-36505652D01*
X10607342Y-36469500D01*
X10467658Y-36469500D01*
X10332735Y-36505652D01*
X10332734Y-36505652D01*
X10332732Y-36505653D01*
X10332731Y-36505653D01*
X10211767Y-36575492D01*
X10112992Y-36674267D01*
X10043153Y-36795231D01*
X10043153Y-36795232D01*
X10043152Y-36795234D01*
X10043152Y-36795235D01*
X10007000Y-36930158D01*
X500500Y-36930158D01*
X500500Y-599500D01*
X519407Y-541309D01*
X568907Y-505345D01*
X599500Y-500500D01*
X6401000Y-500500D01*
X6459191Y-519407D01*
G37*
%TD.AperFunction*%
%TA.AperFunction,Conductor*%
G36*
X20459191Y-8458907D02*
G01*
X20495155Y-8508407D01*
X20500000Y-8539000D01*
X20500000Y-8600000D01*
X40499999Y-8600000D01*
X40500000Y-8600000D01*
X40500000Y-8539000D01*
X40518907Y-8480809D01*
X40568407Y-8444845D01*
X40599000Y-8440000D01*
X54300500Y-8440000D01*
X54358691Y-8458907D01*
X54394655Y-8508407D01*
X54399500Y-8539000D01*
X54399500Y-8750500D01*
X54380593Y-8808691D01*
X54331093Y-8844655D01*
X54300500Y-8849500D01*
X46744016Y-8849500D01*
X46724811Y-8847619D01*
X46722729Y-8847207D01*
X46722727Y-8847207D01*
X46701305Y-8848635D01*
X46691617Y-8849281D01*
X46685033Y-8849500D01*
X46653856Y-8849500D01*
X46651788Y-8850054D01*
X46632771Y-8853204D01*
X46630643Y-8853346D01*
X46601135Y-8863399D01*
X46594832Y-8865315D01*
X46564714Y-8873385D01*
X46564704Y-8873389D01*
X46562865Y-8874451D01*
X46545305Y-8882419D01*
X46543292Y-8883104D01*
X46543287Y-8883107D01*
X46517377Y-8900461D01*
X46511792Y-8903938D01*
X46484786Y-8919531D01*
X46483274Y-8921043D01*
X46468391Y-8933272D01*
X46466607Y-8934466D01*
X46446068Y-8957939D01*
X46441572Y-8962745D01*
X46419530Y-8984788D01*
X46418467Y-8986630D01*
X46407239Y-9002316D01*
X46028036Y-9435692D01*
X45975488Y-9467034D01*
X45953531Y-9469500D01*
X45930158Y-9469500D01*
X45795235Y-9505652D01*
X45795234Y-9505652D01*
X45795232Y-9505653D01*
X45795231Y-9505653D01*
X45674267Y-9575492D01*
X45575492Y-9674267D01*
X45505653Y-9795231D01*
X45505653Y-9795232D01*
X45505652Y-9795234D01*
X45505652Y-9795235D01*
X45469500Y-9930158D01*
X45469500Y-10069842D01*
X45505652Y-10204764D01*
X45505653Y-10204767D01*
X45505653Y-10204768D01*
X45574733Y-10324417D01*
X45575494Y-10325735D01*
X45592226Y-10342467D01*
X45620002Y-10396982D01*
X45610431Y-10457414D01*
X45574420Y-10495366D01*
X45574583Y-10495578D01*
X45573248Y-10496601D01*
X45571735Y-10498197D01*
X45569447Y-10499518D01*
X45564378Y-10503407D01*
X45559475Y-10507438D01*
X45531136Y-10537747D01*
X45528829Y-10540133D01*
X45499525Y-10569437D01*
X45495629Y-10574514D01*
X45491951Y-10579657D01*
X45472421Y-10616271D01*
X45470809Y-10619173D01*
X45450092Y-10655058D01*
X45447645Y-10660963D01*
X45445417Y-10666900D01*
X45436038Y-10707286D01*
X45435232Y-10710509D01*
X45424500Y-10750562D01*
X45423666Y-10756896D01*
X45423050Y-10763206D01*
X45424444Y-10804642D01*
X45424500Y-10807968D01*
X45424500Y-12725500D01*
X45405593Y-12783691D01*
X45356093Y-12819655D01*
X45325500Y-12824500D01*
X44274500Y-12824500D01*
X44216309Y-12805593D01*
X44180345Y-12756093D01*
X44175500Y-12725500D01*
X44175500Y-10750566D01*
X44171392Y-10735235D01*
X44149910Y-10655062D01*
X44149908Y-10655058D01*
X44149908Y-10655057D01*
X44100476Y-10569440D01*
X44100475Y-10569438D01*
X44030562Y-10499525D01*
X43961502Y-10459653D01*
X43920562Y-10414183D01*
X43914167Y-10353333D01*
X43925267Y-10324417D01*
X43994346Y-10204768D01*
X43994348Y-10204765D01*
X44030500Y-10069842D01*
X44030500Y-9930158D01*
X43994348Y-9795235D01*
X43924506Y-9674265D01*
X43825735Y-9575494D01*
X43786715Y-9552966D01*
X43704767Y-9505653D01*
X43704766Y-9505652D01*
X43704765Y-9505652D01*
X43569842Y-9469500D01*
X43569840Y-9469500D01*
X43546469Y-9469500D01*
X43488278Y-9450593D01*
X43471964Y-9435692D01*
X43092763Y-9002320D01*
X43081530Y-8986625D01*
X43080470Y-8984789D01*
X43058422Y-8962741D01*
X43053921Y-8957929D01*
X43033393Y-8934468D01*
X43033392Y-8934467D01*
X43031617Y-8933278D01*
X43016715Y-8921034D01*
X43015212Y-8919531D01*
X42988204Y-8903937D01*
X42982615Y-8900457D01*
X42956716Y-8883110D01*
X42956708Y-8883106D01*
X42954699Y-8882422D01*
X42937130Y-8874449D01*
X42935290Y-8873386D01*
X42935285Y-8873384D01*
X42905170Y-8865315D01*
X42898868Y-8863400D01*
X42869357Y-8853346D01*
X42867228Y-8853204D01*
X42848205Y-8850052D01*
X42846147Y-8849500D01*
X42846144Y-8849500D01*
X42814967Y-8849500D01*
X42808383Y-8849281D01*
X42801175Y-8848800D01*
X42777273Y-8847207D01*
X42777272Y-8847207D01*
X42777270Y-8847207D01*
X42775189Y-8847619D01*
X42755984Y-8849500D01*
X20111648Y-8849500D01*
X20053457Y-8830593D01*
X20017493Y-8781093D01*
X20016026Y-8776143D01*
X19994348Y-8695235D01*
X19932723Y-8588498D01*
X19920003Y-8528652D01*
X19944890Y-8472756D01*
X19997878Y-8442163D01*
X20018461Y-8440000D01*
X20401000Y-8440000D01*
X20459191Y-8458907D01*
G37*
%TD.AperFunction*%
%TD*%
M02*
