%TF.GenerationSoftware,KiCad,Pcbnew,10.99.0-3619-g0ef48b972f*%
%TF.CreationDate,2026-09-25T16:29:42+07:00*%
%TF.ProjectId,board,626f6172-642e-46b6-9963-61645f706362,rev?*%
%TF.SameCoordinates,Original*%
%TF.FileFunction,Paste,Top*%
%TF.FilePolarity,Positive*%
%FSLAX46Y46*%
G04 Gerber Fmt 4.6, Leading zero omitted, Abs format (unit mm)*
G04 Created by KiCad (PCBNEW 10.99.0-3619-g0ef48b972f) date 2026-09-25 16:29:42*
%MOMM*%
%LPD*%
G01*
G04 APERTURE LIST*
G04 Aperture macros list*
%AMRoundRect*
0 Rectangle with rounded corners*
0 $1 Rounding radius*
0 $2 $3 $4 $5 $6 $7 $8 $9 X,Y pos of 4 corners*
0 Add a 4 corners polygon primitive as box body*
4,1,4,$2,$3,$4,$5,$6,$7,$8,$9,$2,$3,0*
0 Add four circle primitives for the rounded corners*
1,1,$1+$1,$2,$3*
1,1,$1+$1,$4,$5*
1,1,$1+$1,$6,$7*
1,1,$1+$1,$8,$9*
0 Add four rect primitives between the rounded corners*
20,1,$1+$1,$2,$3,$4,$5,0*
20,1,$1+$1,$4,$5,$6,$7,0*
20,1,$1+$1,$6,$7,$8,$9,0*
20,1,$1+$1,$8,$9,$2,$3,0*%
G04 Aperture macros list end*
%ADD10RoundRect,0.250000X-0.325000X-0.650000X0.325000X-0.650000X0.325000X0.650000X-0.325000X0.650000X0*%
%ADD11RoundRect,0.200000X-0.200000X-0.275000X0.200000X-0.275000X0.200000X0.275000X-0.200000X0.275000X0*%
%ADD12RoundRect,0.135000X-0.135000X-0.185000X0.135000X-0.185000X0.135000X0.185000X-0.135000X0.185000X0*%
%ADD13RoundRect,0.250000X-0.250000X-0.475000X0.250000X-0.475000X0.250000X0.475000X-0.250000X0.475000X0*%
%ADD14RoundRect,0.218750X0.218750X0.256250X-0.218750X0.256250X-0.218750X-0.256250X0.218750X-0.256250X0*%
%ADD15R,1.500000X0.900000*%
%ADD16R,0.900000X1.500000*%
%ADD17R,1.050000X1.050000*%
%ADD18RoundRect,0.225000X-0.225000X-0.250000X0.225000X-0.250000X0.225000X0.250000X-0.225000X0.250000X0*%
%ADD19RoundRect,0.150000X0.512500X0.150000X-0.512500X0.150000X-0.512500X-0.150000X0.512500X-0.150000X0*%
%ADD20R,1.500000X1.500000*%
%ADD21RoundRect,0.150000X-0.512500X-0.150000X0.512500X-0.150000X0.512500X0.150000X-0.512500X0.150000X0*%
%ADD22RoundRect,0.150000X-0.587500X-0.150000X0.587500X-0.150000X0.587500X0.150000X-0.587500X0.150000X0*%
%ADD23RoundRect,0.250000X-1.000000X-0.650000X1.000000X-0.650000X1.000000X0.650000X-1.000000X0.650000X0*%
%ADD24RoundRect,0.250000X-0.300000X-1.600000X0.300000X-1.600000X0.300000X1.600000X-0.300000X1.600000X0*%
%ADD25RoundRect,0.218750X-0.218750X-0.256250X0.218750X-0.256250X0.218750X0.256250X-0.218750X0.256250X0*%
%ADD26R,1.450000X0.300000*%
%ADD27RoundRect,0.135000X-0.185000X0.135000X-0.185000X-0.135000X0.185000X-0.135000X0.185000X0.135000X0*%
%ADD28R,1.100000X0.400000*%
%ADD29RoundRect,0.250000X-0.375000X-0.625000X0.375000X-0.625000X0.375000X0.625000X-0.375000X0.625000X0*%
%ADD30RoundRect,0.112500X-0.187500X-0.112500X0.187500X-0.112500X0.187500X0.112500X-0.187500X0.112500X0*%
%ADD31RoundRect,0.150000X-0.825000X-0.150000X0.825000X-0.150000X0.825000X0.150000X-0.825000X0.150000X0*%
G04 APERTURE END LIST*
%TO.C,J3*%
G36*
X46255000Y-11775000D02*
G01*
X47705000Y-11775000D01*
X47705000Y-12375000D01*
X46255000Y-12375000D01*
X46255000Y-11775000D01*
G37*
G36*
X46255000Y-10725000D02*
G01*
X47705000Y-10725000D01*
X47705000Y-11025000D01*
X46255000Y-11025000D01*
X46255000Y-10725000D01*
G37*
G36*
X46255000Y-10225000D02*
G01*
X47705000Y-10225000D01*
X47705000Y-10525000D01*
X46255000Y-10525000D01*
X46255000Y-10225000D01*
G37*
G36*
X46255000Y-9725000D02*
G01*
X47705000Y-9725000D01*
X47705000Y-10025000D01*
X46255000Y-10025000D01*
X46255000Y-9725000D01*
G37*
G36*
X46255000Y-9225000D02*
G01*
X47705000Y-9225000D01*
X47705000Y-9525000D01*
X46255000Y-9525000D01*
X46255000Y-9225000D01*
G37*
G36*
X46255000Y-8725000D02*
G01*
X47705000Y-8725000D01*
X47705000Y-9025000D01*
X46255000Y-9025000D01*
X46255000Y-8725000D01*
G37*
G36*
X46255000Y-7725000D02*
G01*
X47705000Y-7725000D01*
X47705000Y-8025000D01*
X46255000Y-8025000D01*
X46255000Y-7725000D01*
G37*
G36*
X46255000Y-6875000D02*
G01*
X47705000Y-6875000D01*
X47705000Y-7475000D01*
X46255000Y-7475000D01*
X46255000Y-6875000D01*
G37*
%TD*%
D10*
%TO.C,C1*%
X35205000Y-34625000D03*
X38155000Y-34625000D03*
%TD*%
D11*
%TO.C,R31*%
X37175000Y-42500000D03*
X38825000Y-42500000D03*
%TD*%
D12*
%TO.C,R23*%
X36015000Y-11525000D03*
X37035000Y-11525000D03*
%TD*%
D11*
%TO.C,R2*%
X4700000Y-26025000D03*
X6350000Y-26025000D03*
%TD*%
D13*
%TO.C,C9*%
X43730000Y-36625000D03*
X45630000Y-36625000D03*
%TD*%
D11*
%TO.C,R1*%
X1700000Y-24525000D03*
X3350000Y-24525000D03*
%TD*%
D12*
%TO.C,R22*%
X36015000Y-9525000D03*
X37035000Y-9525000D03*
%TD*%
D11*
%TO.C,R30*%
X33375000Y-42500000D03*
X35025000Y-42500000D03*
%TD*%
D14*
%TO.C,D6*%
X30087500Y-41500000D03*
X28512500Y-41500000D03*
%TD*%
D11*
%TO.C,R5*%
X3675000Y-44500000D03*
X5325000Y-44500000D03*
%TD*%
D15*
%TO.C,U1*%
X2475000Y-1475000D03*
X2475000Y-2745000D03*
X2475000Y-4015000D03*
X2475000Y-5285000D03*
X2475000Y-6555000D03*
X2475000Y-7825000D03*
X2475000Y-9095000D03*
X2475000Y-10365000D03*
X2475000Y-11635000D03*
X2475000Y-12905000D03*
X2475000Y-14175000D03*
X2475000Y-15445000D03*
X2475000Y-16715000D03*
X2475000Y-17985000D03*
D16*
X5515000Y-19235000D03*
X6785000Y-19235000D03*
X8055000Y-19235000D03*
X9325000Y-19235000D03*
X10595000Y-19235000D03*
X11865000Y-19235000D03*
X13135000Y-19235000D03*
X14405000Y-19235000D03*
X15675000Y-19235000D03*
X16945000Y-19235000D03*
D15*
X19975000Y-17985000D03*
X19975000Y-16715000D03*
X19975000Y-15445000D03*
X19975000Y-14175000D03*
X19975000Y-12905000D03*
X19975000Y-11635000D03*
X19975000Y-10365000D03*
X19975000Y-9095000D03*
X19975000Y-7825000D03*
X19975000Y-6555000D03*
X19975000Y-5285000D03*
X19975000Y-4015000D03*
X19975000Y-2745000D03*
X19975000Y-1475000D03*
D17*
X9020000Y-7290000D03*
X9020000Y-8815000D03*
X9020000Y-10340000D03*
X10545000Y-7290000D03*
X10545000Y-8815000D03*
X10545000Y-10340000D03*
X12070000Y-7290000D03*
X12070000Y-8815000D03*
X12070000Y-10340000D03*
%TD*%
D18*
%TO.C,C7*%
X28905000Y-5625000D03*
X30455000Y-5625000D03*
%TD*%
D11*
%TO.C,R18*%
X23700000Y-25025000D03*
X25350000Y-25025000D03*
%TD*%
%TO.C,R10*%
X16855000Y-41525000D03*
X18505000Y-41525000D03*
%TD*%
%TO.C,R20*%
X44700000Y-31525000D03*
X46350000Y-31525000D03*
%TD*%
D19*
%TO.C,U6*%
X34662500Y-11575000D03*
X34662500Y-10625000D03*
X34662500Y-9675000D03*
X32387500Y-9675000D03*
X32387500Y-10625000D03*
X32387500Y-11575000D03*
%TD*%
D11*
%TO.C,R17*%
X19200000Y-22525000D03*
X20850000Y-22525000D03*
%TD*%
%TO.C,R6*%
X2175000Y-41500000D03*
X3825000Y-41500000D03*
%TD*%
D20*
%TO.C,SW2*%
X43525000Y-43525000D03*
X51525000Y-43525000D03*
%TD*%
D12*
%TO.C,R24*%
X37015000Y-13525000D03*
X38035000Y-13525000D03*
%TD*%
D18*
%TO.C,C13*%
X24250000Y-27525000D03*
X25800000Y-27525000D03*
%TD*%
D11*
%TO.C,R11*%
X17855000Y-24025000D03*
X19505000Y-24025000D03*
%TD*%
D18*
%TO.C,C8*%
X25905000Y-7625000D03*
X27455000Y-7625000D03*
%TD*%
D21*
%TO.C,U3*%
X40542500Y-18675000D03*
X40542500Y-19625000D03*
X40542500Y-20575000D03*
X42817500Y-20575000D03*
X42817500Y-18675000D03*
%TD*%
D13*
%TO.C,C3*%
X19730000Y-31525000D03*
X21630000Y-31525000D03*
%TD*%
D21*
%TO.C,U2*%
X29542500Y-28675000D03*
X29542500Y-29625000D03*
X29542500Y-30575000D03*
X31817500Y-30575000D03*
X31817500Y-29625000D03*
X31817500Y-28675000D03*
%TD*%
D12*
%TO.C,R14*%
X40015000Y-11525000D03*
X41035000Y-11525000D03*
%TD*%
D18*
%TO.C,C5*%
X24905000Y-4625000D03*
X26455000Y-4625000D03*
%TD*%
D22*
%TO.C,Q2*%
X16062500Y-43550000D03*
X16062500Y-45450000D03*
X17937500Y-44500000D03*
%TD*%
%TO.C,Q1*%
X7562500Y-43550000D03*
X7562500Y-45450000D03*
X9437500Y-44500000D03*
%TD*%
D18*
%TO.C,C11*%
X27750000Y-25525000D03*
X29300000Y-25525000D03*
%TD*%
D12*
%TO.C,R25*%
X46015000Y-17525000D03*
X47035000Y-17525000D03*
%TD*%
D11*
%TO.C,R19*%
X22700000Y-22525000D03*
X24350000Y-22525000D03*
%TD*%
%TO.C,R4*%
X1700000Y-22525000D03*
X3350000Y-22525000D03*
%TD*%
%TO.C,R9*%
X13855000Y-41525000D03*
X15505000Y-41525000D03*
%TD*%
%TO.C,R29*%
X25355000Y-41500000D03*
X27005000Y-41500000D03*
%TD*%
D23*
%TO.C,D2*%
X28680000Y-34625000D03*
X32680000Y-34625000D03*
%TD*%
D11*
%TO.C,R13*%
X25855000Y-38625000D03*
X27505000Y-38625000D03*
%TD*%
D12*
%TO.C,R28*%
X46015000Y-23525000D03*
X47035000Y-23525000D03*
%TD*%
D11*
%TO.C,R16*%
X22700000Y-20525000D03*
X24350000Y-20525000D03*
%TD*%
D24*
%TO.C,L1*%
X34025000Y-26025000D03*
X37025000Y-26025000D03*
%TD*%
D11*
%TO.C,R3*%
X14200000Y-33025000D03*
X15850000Y-33025000D03*
%TD*%
D22*
%TO.C,Q4*%
X22087500Y-10575000D03*
X22087500Y-12475000D03*
X23962500Y-11525000D03*
%TD*%
D18*
%TO.C,C12*%
X15750000Y-35525000D03*
X17300000Y-35525000D03*
%TD*%
D10*
%TO.C,C2*%
X39050000Y-38525000D03*
X42000000Y-38525000D03*
%TD*%
D25*
%TO.C,D1*%
X22892500Y-38625000D03*
X24467500Y-38625000D03*
%TD*%
D13*
%TO.C,C6*%
X46075000Y-21625000D03*
X47975000Y-21625000D03*
%TD*%
D26*
%TO.C,J3*%
X46980000Y-8375000D03*
X46980000Y-11375000D03*
%TD*%
D27*
%TO.C,R26*%
X44475000Y-15625000D03*
X44475000Y-16645000D03*
%TD*%
D12*
%TO.C,R21*%
X36015000Y-7525000D03*
X37035000Y-7525000D03*
%TD*%
D28*
%TO.C,U4*%
X40425000Y-26550000D03*
X40425000Y-27200000D03*
X40425000Y-27850000D03*
X40425000Y-28500000D03*
X44725000Y-28500000D03*
X44725000Y-27850000D03*
X44725000Y-27200000D03*
X44725000Y-26550000D03*
%TD*%
D11*
%TO.C,R7*%
X6855000Y-41525000D03*
X8505000Y-41525000D03*
%TD*%
D18*
%TO.C,C4*%
X23250000Y-31525000D03*
X24800000Y-31525000D03*
%TD*%
D29*
%TO.C,F1*%
X11100000Y-38000000D03*
X13900000Y-38000000D03*
%TD*%
D30*
%TO.C,D5*%
X1950000Y-38500000D03*
X4050000Y-38500000D03*
%TD*%
D11*
%TO.C,R12*%
X19855000Y-25525000D03*
X21505000Y-25525000D03*
%TD*%
D12*
%TO.C,R15*%
X33515000Y-6875000D03*
X34535000Y-6875000D03*
%TD*%
D22*
%TO.C,Q3*%
X23587500Y-14575000D03*
X23587500Y-16475000D03*
X25462500Y-15525000D03*
%TD*%
D30*
%TO.C,D3*%
X3630000Y-28025000D03*
X5730000Y-28025000D03*
%TD*%
%TO.C,D4*%
X8630000Y-28025000D03*
X10730000Y-28025000D03*
%TD*%
D12*
%TO.C,R27*%
X36815000Y-3625000D03*
X37835000Y-3625000D03*
%TD*%
D20*
%TO.C,SW1*%
X2025000Y-34525000D03*
X10025000Y-34525000D03*
%TD*%
D31*
%TO.C,U5*%
X28165000Y-13180000D03*
X28165000Y-14450000D03*
X28165000Y-15720000D03*
X28165000Y-16990000D03*
X28165000Y-18260000D03*
X28165000Y-19530000D03*
X28165000Y-20800000D03*
X28165000Y-22070000D03*
X33115000Y-22070000D03*
X33115000Y-20800000D03*
X33115000Y-19530000D03*
X33115000Y-18260000D03*
X33115000Y-16990000D03*
X33115000Y-15720000D03*
X33115000Y-14450000D03*
X33115000Y-13180000D03*
%TD*%
D11*
%TO.C,R8*%
X9855000Y-41525000D03*
X11505000Y-41525000D03*
%TD*%
D18*
%TO.C,C10*%
X37750000Y-22525000D03*
X39300000Y-22525000D03*
%TD*%
M02*
