%TF.GenerationSoftware,KiCad,Pcbnew,10.99.0-3619-g0ef48b972f*%
%TF.CreationDate,2026-09-25T16:29:42+07:00*%
%TF.ProjectId,board,626f6172-642e-46b6-9963-61645f706362,rev?*%
%TF.SameCoordinates,Original*%
%TF.FileFunction,Copper,L1,Top*%
%TF.FilePolarity,Positive*%
%FSLAX46Y46*%
G04 Gerber Fmt 4.6, Leading zero omitted, Abs format (unit mm)*
G04 Created by KiCad (PCBNEW 10.99.0-3619-g0ef48b972f) date 2026-09-25 16:29:42*
%MOMM*%
%LPD*%
G01*
G04 APERTURE LIST*
G04 Aperture macros list*
%AMRoundRect*
0 Rectangle with rounded corners*
0 $1 Rounding radius*
0 $2 $3 $4 $5 $6 $7 $8 $9 X,Y pos of 4 corners*
0 Add a 4 corners polygon primitive as box body*
4,1,4,$2,$3,$4,$5,$6,$7,$8,$9,$2,$3,0*
0 Add four circle primitives for the rounded corners*
1,1,$1+$1,$2,$3*
1,1,$1+$1,$4,$5*
1,1,$1+$1,$6,$7*
1,1,$1+$1,$8,$9*
0 Add four rect primitives between the rounded corners*
20,1,$1+$1,$2,$3,$4,$5,0*
20,1,$1+$1,$4,$5,$6,$7,0*
20,1,$1+$1,$6,$7,$8,$9,0*
20,1,$1+$1,$8,$9,$2,$3,0*%
%AMFreePoly0*
4,1,35,0.114805,0.277164,0.182628,0.238006,0.238006,0.182628,0.277164,0.114805,0.297433,0.039158,0.297433,-0.039158,0.289617,-0.068327,2.525000,-0.780000,2.750000,-0.780000,2.750000,-2.230000,2.150000,-2.230000,2.150000,-0.780000,2.375000,-0.780000,0.277827,-0.112328,0.277164,-0.114805,0.238006,-0.182628,0.217509,-0.203124,1.500000,-2.420000,1.260000,-2.420000,0.063488,-0.290913,
0.039158,-0.297433,-0.039158,-0.297433,-0.114805,-0.277164,-0.182628,-0.238006,-0.238006,-0.182628,-0.277164,-0.114805,-0.297433,-0.039158,-0.297433,0.039158,-0.277164,0.114805,-0.238006,0.182628,-0.182628,0.238006,-0.114805,0.277164,-0.039158,0.297433,0.039158,0.297433,0.114805,0.277164,0.114805,0.277164,$1*%
%AMFreePoly1*
4,1,32,0.114805,0.277164,0.182628,0.238006,0.238006,0.182628,0.277164,0.114805,0.297433,0.039158,0.297433,-0.039158,0.280338,-0.102958,3.625000,-1.780000,3.850000,-1.780000,3.850000,-3.230000,3.250000,-3.230000,3.250000,-1.780000,3.475000,-1.780000,0.249506,-0.162709,0.238006,-0.182628,0.182628,-0.238006,0.114805,-0.277164,0.039158,-0.297433,-0.039158,-0.297433,-0.114805,-0.277164,
-0.182628,-0.238006,-0.238006,-0.182628,-0.277164,-0.114805,-0.297433,-0.039158,-0.297433,0.039158,-0.277164,0.114805,-0.238006,0.182628,-0.182628,0.238006,-0.114805,0.277164,-0.039158,0.297433,0.039158,0.297433,0.114805,0.277164,0.114805,0.277164,$1*%
%AMFreePoly2*
4,1,25,0.138893,0.207867,0.207867,0.138893,0.245196,0.048773,0.245196,-0.048773,0.237284,-0.067872,1.940000,-0.780000,1.900000,-0.780000,1.900000,-2.230000,1.600000,-2.230000,1.600000,-0.780000,1.790000,-0.780000,0.215136,-0.121343,0.207867,-0.138893,0.138893,-0.207867,0.048773,-0.245196,-0.048773,-0.245196,-0.138893,-0.207867,-0.207867,-0.138893,-0.245196,-0.048773,-0.245196,0.048773,
-0.207867,0.138893,-0.138893,0.207867,-0.048773,0.245196,0.048773,0.245196,0.138893,0.207867,0.138893,0.207867,$1*%
%AMFreePoly3*
4,1,23,0.138893,0.207867,0.207867,0.138893,0.245196,0.048773,0.245196,-0.048773,0.207867,-0.138893,0.150488,-0.196271,0.375000,-0.780000,0.450000,-0.780000,0.450000,-2.230000,0.150000,-2.230000,0.150000,-0.780000,0.225000,-0.780000,0.019306,-0.245196,-0.048773,-0.245196,-0.138893,-0.207867,-0.207867,-0.138893,-0.245196,-0.048773,-0.245196,0.048773,-0.207867,0.138893,-0.138893,0.207867,
-0.048773,0.245196,0.048773,0.245196,0.138893,0.207867,0.138893,0.207867,$1*%
%AMFreePoly4*
4,1,23,0.138893,0.207867,0.207867,0.138893,0.245196,0.048773,0.245196,-0.048773,0.207867,-0.138893,0.138893,-0.207867,0.048773,-0.245196,-0.019306,-0.245196,-0.225000,-0.780000,-0.150000,-0.780000,-0.150000,-2.230000,-0.450000,-2.230000,-0.450000,-0.780000,-0.375000,-0.780000,-0.150488,-0.196271,-0.207867,-0.138893,-0.245196,-0.048773,-0.245196,0.048773,-0.207867,0.138893,-0.138893,0.207867,
-0.048773,0.245196,0.048773,0.245196,0.138893,0.207867,0.138893,0.207867,$1*%
%AMFreePoly5*
4,1,32,0.114805,0.277164,0.182628,0.238006,0.238006,0.182628,0.277164,0.114805,0.297433,0.039158,0.297433,-0.039158,0.277164,-0.114805,0.238006,-0.182628,0.182628,-0.238006,0.114805,-0.277164,0.039158,-0.297433,-0.039158,-0.297433,-0.114805,-0.277164,-0.182628,-0.238006,-0.238006,-0.182628,-0.249506,-0.162709,-3.475000,-1.780000,-3.250000,-1.780000,-3.250000,-3.230000,-3.850000,-3.230000,
-3.850000,-1.780000,-3.625000,-1.780000,-0.280338,-0.102958,-0.297433,-0.039158,-0.297433,0.039158,-0.277164,0.114805,-0.238006,0.182628,-0.182628,0.238006,-0.114805,0.277164,-0.039158,0.297433,0.039158,0.297433,0.114805,0.277164,0.114805,0.277164,$1*%
%AMFreePoly6*
4,1,35,0.114805,0.277164,0.182628,0.238006,0.238006,0.182628,0.277164,0.114805,0.297433,0.039158,0.297433,-0.039158,0.277164,-0.114805,0.238006,-0.182628,0.182628,-0.238006,0.114805,-0.277164,0.039158,-0.297433,-0.039158,-0.297433,-0.063488,-0.290913,-1.260000,-2.420000,-1.500000,-2.420000,-0.217509,-0.203124,-0.238006,-0.182628,-0.277164,-0.114805,-0.277827,-0.112328,-2.375000,-0.780000,
-2.150000,-0.780000,-2.150000,-2.230000,-2.750000,-2.230000,-2.750000,-0.780000,-2.525000,-0.780000,-0.289617,-0.068327,-0.297433,-0.039158,-0.297433,0.039158,-0.277164,0.114805,-0.238006,0.182628,-0.182628,0.238006,-0.114805,0.277164,-0.039158,0.297433,0.039158,0.297433,0.114805,0.277164,0.114805,0.277164,$1*%
%AMFreePoly7*
4,1,24,0.138893,0.207867,0.207867,0.138893,0.245196,0.048773,0.245196,-0.048773,0.207867,-0.138893,0.138893,-0.207867,0.048773,-0.245196,-0.048773,-0.245196,-0.138893,-0.207867,-0.161943,-0.184816,-0.925000,-0.780000,-0.850000,-0.780000,-0.850000,-2.230000,-1.150000,-2.230000,-1.150000,-0.780000,-1.075000,-0.780000,-0.218904,-0.112245,-0.245196,-0.048773,-0.245196,0.048773,-0.207867,0.138893,
-0.138893,0.207867,-0.048773,0.245196,0.048773,0.245196,0.138893,0.207867,0.138893,0.207867,$1*%
%AMFreePoly8*
4,1,24,0.138893,0.207867,0.207867,0.138893,0.245196,0.048773,0.245196,-0.048773,0.207867,-0.138893,0.138893,-0.207867,0.048773,-0.245196,-0.048773,-0.245196,-0.138893,-0.207867,-0.150942,-0.195817,-0.825000,-0.780000,-0.750000,-0.780000,-0.750000,-2.230000,-1.050000,-2.230000,-1.050000,-0.780000,-0.975000,-0.780000,-0.215103,-0.121422,-0.245196,-0.048773,-0.245196,0.048773,-0.207867,0.138893,
-0.138893,0.207867,-0.048773,0.245196,0.048773,0.245196,0.138893,0.207867,0.138893,0.207867,$1*%
%AMFreePoly9*
4,1,24,0.138893,0.207867,0.207867,0.138893,0.245196,0.048773,0.245196,-0.048773,0.215103,-0.121422,0.975000,-0.780000,1.050000,-0.780000,1.050000,-2.230000,0.750000,-2.230000,0.750000,-0.780000,0.825000,-0.780000,0.150942,-0.195817,0.138893,-0.207867,0.048773,-0.245196,-0.048773,-0.245196,-0.138893,-0.207867,-0.207867,-0.138893,-0.245196,-0.048773,-0.245196,0.048773,-0.207867,0.138893,
-0.138893,0.207867,-0.048773,0.245196,0.048773,0.245196,0.138893,0.207867,0.138893,0.207867,$1*%
G04 Aperture macros list end*
%TA.AperFunction,SMDPad,CuDef*%
%ADD10RoundRect,0.250000X-0.325000X-0.650000X0.325000X-0.650000X0.325000X0.650000X-0.325000X0.650000X0*%
%TD*%
%TA.AperFunction,SMDPad,CuDef*%
%ADD11RoundRect,0.200000X-0.200000X-0.275000X0.200000X-0.275000X0.200000X0.275000X-0.200000X0.275000X0*%
%TD*%
%TA.AperFunction,ComponentPad*%
%ADD12C,1.200000*%
%TD*%
%TA.AperFunction,ComponentPad*%
%ADD13O,1.400000X3.000000*%
%TD*%
%TA.AperFunction,SMDPad,CuDef*%
%ADD14RoundRect,0.135000X-0.135000X-0.185000X0.135000X-0.185000X0.135000X0.185000X-0.135000X0.185000X0*%
%TD*%
%TA.AperFunction,ComponentPad*%
%ADD15C,2.000000*%
%TD*%
%TA.AperFunction,SMDPad,CuDef*%
%ADD16RoundRect,0.250000X-0.250000X-0.475000X0.250000X-0.475000X0.250000X0.475000X-0.250000X0.475000X0*%
%TD*%
%TA.AperFunction,SMDPad,CuDef*%
%ADD17RoundRect,0.218750X0.218750X0.256250X-0.218750X0.256250X-0.218750X-0.256250X0.218750X-0.256250X0*%
%TD*%
%TA.AperFunction,SMDPad,CuDef*%
%ADD18R,1.500000X0.900000*%
%TD*%
%TA.AperFunction,SMDPad,CuDef*%
%ADD19R,0.900000X1.500000*%
%TD*%
%TA.AperFunction,SMDPad,CuDef*%
%ADD20R,1.050000X1.050000*%
%TD*%
%TA.AperFunction,HeatsinkPad*%
%ADD21C,0.600000*%
%TD*%
%TA.AperFunction,HeatsinkPad*%
%ADD22R,4.200000X4.200000*%
%TD*%
%TA.AperFunction,SMDPad,CuDef*%
%ADD23RoundRect,0.225000X-0.225000X-0.250000X0.225000X-0.250000X0.225000X0.250000X-0.225000X0.250000X0*%
%TD*%
%TA.AperFunction,SMDPad,CuDef*%
%ADD24RoundRect,0.150000X0.512500X0.150000X-0.512500X0.150000X-0.512500X-0.150000X0.512500X-0.150000X0*%
%TD*%
%TA.AperFunction,SMDPad,CuDef*%
%ADD25R,1.500000X1.500000*%
%TD*%
%TA.AperFunction,SMDPad,CuDef*%
%ADD26RoundRect,0.150000X-0.512500X-0.150000X0.512500X-0.150000X0.512500X0.150000X-0.512500X0.150000X0*%
%TD*%
%TA.AperFunction,SMDPad,CuDef*%
%ADD27RoundRect,0.150000X-0.587500X-0.150000X0.587500X-0.150000X0.587500X0.150000X-0.587500X0.150000X0*%
%TD*%
%TA.AperFunction,SMDPad,CuDef*%
%ADD28RoundRect,0.250000X-1.000000X-0.650000X1.000000X-0.650000X1.000000X0.650000X-1.000000X0.650000X0*%
%TD*%
%TA.AperFunction,SMDPad,CuDef*%
%ADD29RoundRect,0.250000X-0.300000X-1.600000X0.300000X-1.600000X0.300000X1.600000X-0.300000X1.600000X0*%
%TD*%
%TA.AperFunction,SMDPad,CuDef*%
%ADD30RoundRect,0.218750X-0.218750X-0.256250X0.218750X-0.256250X0.218750X0.256250X-0.218750X0.256250X0*%
%TD*%
%TA.AperFunction,SMDPad,CuDef*%
%ADD31FreePoly0,90.000000*%
%TD*%
%TA.AperFunction,SMDPad,CuDef*%
%ADD32FreePoly1,90.000000*%
%TD*%
%TA.AperFunction,SMDPad,CuDef*%
%ADD33FreePoly2,90.000000*%
%TD*%
%TA.AperFunction,SMDPad,CuDef*%
%ADD34FreePoly3,90.000000*%
%TD*%
%TA.AperFunction,SMDPad,CuDef*%
%ADD35FreePoly4,90.000000*%
%TD*%
%TA.AperFunction,SMDPad,CuDef*%
%ADD36R,1.450000X0.300000*%
%TD*%
%TA.AperFunction,SMDPad,CuDef*%
%ADD37FreePoly5,90.000000*%
%TD*%
%TA.AperFunction,SMDPad,CuDef*%
%ADD38FreePoly6,90.000000*%
%TD*%
%TA.AperFunction,SMDPad,CuDef*%
%ADD39FreePoly7,90.000000*%
%TD*%
%TA.AperFunction,SMDPad,CuDef*%
%ADD40FreePoly8,90.000000*%
%TD*%
%TA.AperFunction,SMDPad,CuDef*%
%ADD41FreePoly9,90.000000*%
%TD*%
%TA.AperFunction,ComponentPad*%
%ADD42O,2.100000X1.000000*%
%TD*%
%TA.AperFunction,ComponentPad*%
%ADD43O,1.600000X1.000000*%
%TD*%
%TA.AperFunction,SMDPad,CuDef*%
%ADD44RoundRect,0.135000X-0.185000X0.135000X-0.185000X-0.135000X0.185000X-0.135000X0.185000X0.135000X0*%
%TD*%
%TA.AperFunction,SMDPad,CuDef*%
%ADD45C,1.500000*%
%TD*%
%TA.AperFunction,SMDPad,CuDef*%
%ADD46R,1.100000X0.400000*%
%TD*%
%TA.AperFunction,SMDPad,CuDef*%
%ADD47RoundRect,0.250000X-0.375000X-0.625000X0.375000X-0.625000X0.375000X0.625000X-0.375000X0.625000X0*%
%TD*%
%TA.AperFunction,SMDPad,CuDef*%
%ADD48RoundRect,0.112500X-0.187500X-0.112500X0.187500X-0.112500X0.187500X0.112500X-0.187500X0.112500X0*%
%TD*%
%TA.AperFunction,SMDPad,CuDef*%
%ADD49RoundRect,0.150000X-0.825000X-0.150000X0.825000X-0.150000X0.825000X0.150000X-0.825000X0.150000X0*%
%TD*%
%TA.AperFunction,ViaPad*%
%ADD50C,0.600000*%
%TD*%
%TA.AperFunction,Conductor*%
%ADD51C,0.150000*%
%TD*%
%TA.AperFunction,Conductor*%
%ADD52C,0.250000*%
%TD*%
%TA.AperFunction,Conductor*%
%ADD53C,0.200000*%
%TD*%
G04 APERTURE END LIST*
D10*
%TO.P,C1,1,PS_8V_1*%
%TO.N,PS_8V*%
X35205000Y-34625000D03*
%TO.P,C1,2,GND_2*%
%TO.N,GND*%
X38155000Y-34625000D03*
%TD*%
D11*
%TO.P,R31,1*%
%TO.N,PS1_TXD*%
X37175000Y-42500000D03*
%TO.P,R31,2*%
%TO.N,U2_RX_RAW*%
X38825000Y-42500000D03*
%TD*%
D12*
%TO.P,J1,1*%
%TO.N,N/C*%
X4525000Y-50525000D03*
%TO.P,J1,2,PS_CMD_2*%
%TO.N,PS_CMD*%
X7025000Y-50525000D03*
%TO.P,J1,3,PS_CLK_3*%
%TO.N,PS_CLK*%
X9025000Y-50525000D03*
%TO.P,J1,4,GND_4*%
%TO.N,GND*%
X11525000Y-50525000D03*
%TO.P,J1,5,PS_ATT_5*%
%TO.N,PS_ATT*%
X12025000Y-49025000D03*
%TO.P,J1,6,PS_DATA_6*%
%TO.N,PS_DATA*%
X10025000Y-49025000D03*
%TO.P,J1,7,PS_ACK_7*%
%TO.N,PS_ACK*%
X8025000Y-49025000D03*
%TO.P,J1,8,PS_8V_RAW_8*%
%TO.N,PS_8V_RAW*%
X6025000Y-49025000D03*
%TO.P,J1,9*%
%TO.N,N/C*%
X4025000Y-49025000D03*
D13*
%TO.P,J1,SH*%
X1625000Y-52625000D03*
X14425000Y-52625000D03*
%TD*%
D14*
%TO.P,R23,1,USB_DM_A_1*%
%TO.N,USB_DM_A*%
X36015000Y-11525000D03*
%TO.P,R23,2,USB_DM_RAW_2*%
%TO.N,USB_DM_RAW*%
X37035000Y-11525000D03*
%TD*%
D11*
%TO.P,R2,1,CMD_IN_1*%
%TO.N,CMD_IN*%
X4700000Y-26025000D03*
%TO.P,R2,2,GND_2*%
%TO.N,GND*%
X6350000Y-26025000D03*
%TD*%
D15*
%TO.P,TP4,1,UART_RX_1*%
%TO.N,UART_RX*%
X49900000Y-54000000D03*
%TD*%
D16*
%TO.P,C9,1,PS_3V3_1*%
%TO.N,PS_3V3*%
X43730000Y-36625000D03*
%TO.P,C9,2,GND_2*%
%TO.N,GND*%
X45630000Y-36625000D03*
%TD*%
D11*
%TO.P,R1,1,PS_CMD_1*%
%TO.N,PS_CMD*%
X1700000Y-24525000D03*
%TO.P,R1,2,CMD_IN_2*%
%TO.N,CMD_IN*%
X3350000Y-24525000D03*
%TD*%
D14*
%TO.P,R22,1,USB_DP_B_1*%
%TO.N,USB_DP_B*%
X36015000Y-9525000D03*
%TO.P,R22,2,USB_DP_RAW_2*%
%TO.N,USB_DP_RAW*%
X37035000Y-9525000D03*
%TD*%
D11*
%TO.P,R30,1*%
%TO.N,U2_TX_RAW*%
X33375000Y-42500000D03*
%TO.P,R30,2*%
%TO.N,PS1_RXD*%
X35025000Y-42500000D03*
%TD*%
D15*
%TO.P,TP2,1,GND_1*%
%TO.N,GND*%
X43500000Y-54000000D03*
%TD*%
D17*
%TO.P,D6,1,K_1*%
%TO.N,GND*%
X30087500Y-41500000D03*
%TO.P,D6,2,A_2*%
%TO.N,POWER_LED_A*%
X28512500Y-41500000D03*
%TD*%
D11*
%TO.P,R5,1,PS_ATT_1*%
%TO.N,PS_ATT*%
X3675000Y-44500000D03*
%TO.P,R5,2,ATT_IN_2*%
%TO.N,ATT_IN*%
X5325000Y-44500000D03*
%TD*%
D18*
%TO.P,U1,1,GND_1*%
%TO.N,GND*%
X2475000Y-1475000D03*
%TO.P,U1,2,3V3_2*%
%TO.N,3V3*%
X2475000Y-2745000D03*
%TO.P,U1,3,EN_3*%
%TO.N,EN*%
X2475000Y-4015000D03*
%TO.P,U1,4*%
%TO.N,N/C*%
X2475000Y-5285000D03*
%TO.P,U1,5*%
X2475000Y-6555000D03*
%TO.P,U1,6,ATT_IN_6*%
%TO.N,ATT_IN*%
X2475000Y-7825000D03*
%TO.P,U1,7*%
%TO.N,N/C*%
X2475000Y-9095000D03*
%TO.P,U1,8,CMD_IN_8*%
%TO.N,CMD_IN*%
X2475000Y-10365000D03*
%TO.P,U1,9,CLK_IN_9*%
%TO.N,CLK_IN*%
X2475000Y-11635000D03*
%TO.P,U1,10*%
%TO.N,N/C*%
X2475000Y-12905000D03*
%TO.P,U1,11*%
X2475000Y-14175000D03*
%TO.P,U1,12*%
X2475000Y-15445000D03*
%TO.P,U1,13*%
X2475000Y-16715000D03*
%TO.P,U1,14*%
X2475000Y-17985000D03*
D19*
%TO.P,U1,15,GND_15*%
%TO.N,GND*%
X5515000Y-19235000D03*
%TO.P,U1,16*%
%TO.N,N/C*%
X6785000Y-19235000D03*
%TO.P,U1,17*%
X8055000Y-19235000D03*
%TO.P,U1,18*%
X9325000Y-19235000D03*
%TO.P,U1,19*%
X10595000Y-19235000D03*
%TO.P,U1,20*%
X11865000Y-19235000D03*
%TO.P,U1,21*%
X13135000Y-19235000D03*
%TO.P,U1,22*%
X14405000Y-19235000D03*
%TO.P,U1,23*%
X15675000Y-19235000D03*
%TO.P,U1,24*%
X16945000Y-19235000D03*
D18*
%TO.P,U1,25,BOOT_25*%
%TO.N,BOOT*%
X19975000Y-17985000D03*
%TO.P,U1,26,STATUS_LED_26*%
%TO.N,STATUS_LED*%
X19975000Y-16715000D03*
%TO.P,U1,27,U2_RX_RAW_27*%
%TO.N,U2_RX_RAW*%
X19975000Y-15445000D03*
%TO.P,U1,28,U2_TX_RAW_28*%
%TO.N,U2_TX_RAW*%
X19975000Y-14175000D03*
%TO.P,U1,29*%
%TO.N,N/C*%
X19975000Y-12905000D03*
%TO.P,U1,30*%
X19975000Y-11635000D03*
%TO.P,U1,31,DATA_GATE_31*%
%TO.N,DATA_GATE*%
X19975000Y-10365000D03*
%TO.P,U1,32*%
%TO.N,N/C*%
X19975000Y-9095000D03*
%TO.P,U1,33,ACK_GATE_33*%
%TO.N,ACK_GATE*%
X19975000Y-7825000D03*
%TO.P,U1,34,UART_RX_34*%
%TO.N,UART_RX*%
X19975000Y-6555000D03*
%TO.P,U1,35,UART_TX_35*%
%TO.N,UART_TX*%
X19975000Y-5285000D03*
%TO.P,U1,36*%
%TO.N,N/C*%
X19975000Y-4015000D03*
%TO.P,U1,37*%
X19975000Y-2745000D03*
%TO.P,U1,38,GND_38*%
%TO.N,GND*%
X19975000Y-1475000D03*
D20*
%TO.P,U1,39,GND_39*%
X9020000Y-7290000D03*
D21*
X9020000Y-8052500D03*
D20*
X9020000Y-8815000D03*
D21*
X9020000Y-9577500D03*
D20*
X9020000Y-10340000D03*
D21*
X9782500Y-7290000D03*
X9782500Y-8815000D03*
X9782500Y-10340000D03*
D20*
X10545000Y-7290000D03*
D21*
X10545000Y-8052500D03*
D20*
X10545000Y-8815000D03*
D22*
X10545000Y-8815000D03*
D21*
X10545000Y-9577500D03*
D20*
X10545000Y-10340000D03*
D21*
X11307500Y-7290000D03*
X11307500Y-8815000D03*
X11307500Y-10340000D03*
D20*
X12070000Y-7290000D03*
D21*
X12070000Y-8052500D03*
D20*
X12070000Y-8815000D03*
D21*
X12070000Y-9577500D03*
D20*
X12070000Y-10340000D03*
%TD*%
D23*
%TO.P,C7,1,USB_5V_1*%
%TO.N,USB_5V*%
X28905000Y-5625000D03*
%TO.P,C7,2,GND_2*%
%TO.N,GND*%
X30455000Y-5625000D03*
%TD*%
D11*
%TO.P,R18,1,USB_DTR_1*%
%TO.N,USB_DTR*%
X23700000Y-25025000D03*
%TO.P,R18,2,AUTO_BOOT_2*%
%TO.N,AUTO_BOOT*%
X25350000Y-25025000D03*
%TD*%
%TO.P,R10,1,ACK_DRIVE_1*%
%TO.N,ACK_DRIVE*%
X16855000Y-41525000D03*
%TO.P,R10,2,GND_2*%
%TO.N,GND*%
X18505000Y-41525000D03*
%TD*%
%TO.P,R20,1,MUX_ILIM_1*%
%TO.N,MUX_ILIM*%
X44700000Y-31525000D03*
%TO.P,R20,2,GND_2*%
%TO.N,GND*%
X46350000Y-31525000D03*
%TD*%
D24*
%TO.P,U6,1,USB_DM_RAW_1*%
%TO.N,USB_DM_RAW*%
X34662500Y-11575000D03*
%TO.P,U6,2,GND_2*%
%TO.N,GND*%
X34662500Y-10625000D03*
%TO.P,U6,3,USB_DP_RAW_3*%
%TO.N,USB_DP_RAW*%
X34662500Y-9675000D03*
%TO.P,U6,4,USB_DP_4*%
%TO.N,USB_DP*%
X32387500Y-9675000D03*
%TO.P,U6,5,USB_5V_5*%
%TO.N,USB_5V*%
X32387500Y-10625000D03*
%TO.P,U6,6,USB_DM_6*%
%TO.N,USB_DM*%
X32387500Y-11575000D03*
%TD*%
D11*
%TO.P,R17,1,UART_RX_1*%
%TO.N,UART_RX*%
X19200000Y-22525000D03*
%TO.P,R17,2,GND_2*%
%TO.N,GND*%
X20850000Y-22525000D03*
%TD*%
%TO.P,R6,1,ATT_IN_1*%
%TO.N,ATT_IN*%
X2175000Y-41500000D03*
%TO.P,R6,2,GND_2*%
%TO.N,GND*%
X3825000Y-41500000D03*
%TD*%
D25*
%TO.P,SW2,1,BOOT_1*%
%TO.N,BOOT*%
X43525000Y-43525000D03*
%TO.P,SW2,2,GND_2*%
%TO.N,GND*%
X51525000Y-43525000D03*
%TD*%
D14*
%TO.P,R24,1,USB_DM_B_1*%
%TO.N,USB_DM_B*%
X37015000Y-13525000D03*
%TO.P,R24,2,USB_DM_RAW_2*%
%TO.N,USB_DM_RAW*%
X38035000Y-13525000D03*
%TD*%
D23*
%TO.P,C13,1,BUCK_SW_1*%
%TO.N,BUCK_SW*%
X24250000Y-27525000D03*
%TO.P,C13,2,BUCK_BST_2*%
%TO.N,BUCK_BST*%
X25800000Y-27525000D03*
%TD*%
D11*
%TO.P,R11,1,3V3_1*%
%TO.N,3V3*%
X17855000Y-24025000D03*
%TO.P,R11,2,EN_2*%
%TO.N,EN*%
X19505000Y-24025000D03*
%TD*%
D23*
%TO.P,C8,1,CH340_V3_1*%
%TO.N,CH340_V3*%
X25905000Y-7625000D03*
%TO.P,C8,2,GND_2*%
%TO.N,GND*%
X27455000Y-7625000D03*
%TD*%
D26*
%TO.P,U3,1,USB_5V_1*%
%TO.N,USB_5V*%
X40542500Y-18675000D03*
%TO.P,U3,2,GND_2*%
%TO.N,GND*%
X40542500Y-19625000D03*
%TO.P,U3,3,USB_LDO_EN_3*%
%TO.N,USB_LDO_EN*%
X40542500Y-20575000D03*
%TO.P,U3,4*%
%TO.N,N/C*%
X42817500Y-20575000D03*
%TO.P,U3,5,USB_3V3_5*%
%TO.N,USB_3V3*%
X42817500Y-18675000D03*
%TD*%
D16*
%TO.P,C3,1,3V3_1*%
%TO.N,3V3*%
X19730000Y-31525000D03*
%TO.P,C3,2,GND_2*%
%TO.N,GND*%
X21630000Y-31525000D03*
%TD*%
D26*
%TO.P,U2,1,PS_3V3_1*%
%TO.N,PS_3V3*%
X29542500Y-28675000D03*
%TO.P,U2,2,PS_8V_2*%
%TO.N,PS_8V*%
X29542500Y-29625000D03*
%TO.P,U2,3,PS_8V_3*%
X29542500Y-30575000D03*
%TO.P,U2,4,GND_4*%
%TO.N,GND*%
X31817500Y-30575000D03*
%TO.P,U2,5,BUCK_SW_5*%
%TO.N,BUCK_SW*%
X31817500Y-29625000D03*
%TO.P,U2,6,BUCK_BST_6*%
%TO.N,BUCK_BST*%
X31817500Y-28675000D03*
%TD*%
D14*
%TO.P,R14,1,USB_CC1_1*%
%TO.N,USB_CC1*%
X40015000Y-11525000D03*
%TO.P,R14,2,GND_2*%
%TO.N,GND*%
X41035000Y-11525000D03*
%TD*%
D23*
%TO.P,C5,1,USB_5V_1*%
%TO.N,USB_5V*%
X24905000Y-4625000D03*
%TO.P,C5,2,GND_2*%
%TO.N,GND*%
X26455000Y-4625000D03*
%TD*%
D27*
%TO.P,Q2,1,ACK_DRIVE_1*%
%TO.N,ACK_DRIVE*%
X16062500Y-43550000D03*
%TO.P,Q2,2,GND_2*%
%TO.N,GND*%
X16062500Y-45450000D03*
%TO.P,Q2,3,PS_ACK_3*%
%TO.N,PS_ACK*%
X17937500Y-44500000D03*
%TD*%
%TO.P,Q1,1,DATA_DRIVE_1*%
%TO.N,DATA_DRIVE*%
X7562500Y-43550000D03*
%TO.P,Q1,2,GND_2*%
%TO.N,GND*%
X7562500Y-45450000D03*
%TO.P,Q1,3,PS_DATA_3*%
%TO.N,PS_DATA*%
X9437500Y-44500000D03*
%TD*%
D23*
%TO.P,C11,1,3V3_1*%
%TO.N,3V3*%
X27750000Y-25525000D03*
%TO.P,C11,2,GND_2*%
%TO.N,GND*%
X29300000Y-25525000D03*
%TD*%
D14*
%TO.P,R25,1,USB_5V_1*%
%TO.N,USB_5V*%
X46015000Y-17525000D03*
%TO.P,R25,2,USB_LDO_EN_2*%
%TO.N,USB_LDO_EN*%
X47035000Y-17525000D03*
%TD*%
D11*
%TO.P,R19,1,USB_RTS_1*%
%TO.N,USB_RTS*%
X22700000Y-22525000D03*
%TO.P,R19,2,AUTO_RESET_2*%
%TO.N,AUTO_RESET*%
X24350000Y-22525000D03*
%TD*%
%TO.P,R4,1,CLK_IN_1*%
%TO.N,CLK_IN*%
X1700000Y-22525000D03*
%TO.P,R4,2,GND_2*%
%TO.N,GND*%
X3350000Y-22525000D03*
%TD*%
%TO.P,R9,1,ACK_GATE_1*%
%TO.N,ACK_GATE*%
X13855000Y-41525000D03*
%TO.P,R9,2,ACK_DRIVE_2*%
%TO.N,ACK_DRIVE*%
X15505000Y-41525000D03*
%TD*%
%TO.P,R29,1*%
%TO.N,3V3*%
X25355000Y-41500000D03*
%TO.P,R29,2*%
%TO.N,POWER_LED_A*%
X27005000Y-41500000D03*
%TD*%
D28*
%TO.P,D2,1,PS_8V_1*%
%TO.N,PS_8V*%
X28680000Y-34625000D03*
%TO.P,D2,2,GND_2*%
%TO.N,GND*%
X32680000Y-34625000D03*
%TD*%
D11*
%TO.P,R13,1,3V3_1*%
%TO.N,3V3*%
X25855000Y-38625000D03*
%TO.P,R13,2,LED_A_2*%
%TO.N,LED_A*%
X27505000Y-38625000D03*
%TD*%
D14*
%TO.P,R28,1,USB_5V_1*%
%TO.N,USB_5V*%
X46015000Y-23525000D03*
%TO.P,R28,2,USB_UART_5V_2*%
%TO.N,USB_UART_5V*%
X47035000Y-23525000D03*
%TD*%
D11*
%TO.P,R16,1,CH_TX_5V_1*%
%TO.N,CH_TX_5V*%
X22700000Y-20525000D03*
%TO.P,R16,2,UART_RX_2*%
%TO.N,UART_RX*%
X24350000Y-20525000D03*
%TD*%
D29*
%TO.P,L1,1,BUCK_SW_1*%
%TO.N,BUCK_SW*%
X34025000Y-26025000D03*
%TO.P,L1,2,PS_3V3_2*%
%TO.N,PS_3V3*%
X37025000Y-26025000D03*
%TD*%
D11*
%TO.P,R3,1,PS_CLK_1*%
%TO.N,PS_CLK*%
X14200000Y-33025000D03*
%TO.P,R3,2,CLK_IN_2*%
%TO.N,CLK_IN*%
X15850000Y-33025000D03*
%TD*%
D27*
%TO.P,Q4,1,AUTO_RESET_1*%
%TO.N,AUTO_RESET*%
X22087500Y-10575000D03*
%TO.P,Q4,2,USB_DTR_2*%
%TO.N,USB_DTR*%
X22087500Y-12475000D03*
%TO.P,Q4,3,EN_3*%
%TO.N,EN*%
X23962500Y-11525000D03*
%TD*%
D23*
%TO.P,C12,1,EN_1*%
%TO.N,EN*%
X15750000Y-35525000D03*
%TO.P,C12,2,GND_2*%
%TO.N,GND*%
X17300000Y-35525000D03*
%TD*%
D10*
%TO.P,C2,1,PS_3V3_1*%
%TO.N,PS_3V3*%
X39050000Y-38525000D03*
%TO.P,C2,2,GND_2*%
%TO.N,GND*%
X42000000Y-38525000D03*
%TD*%
D15*
%TO.P,TP3,1,UART_TX_1*%
%TO.N,UART_TX*%
X46700000Y-54000000D03*
%TD*%
D30*
%TO.P,D1,1,LED_A_1*%
%TO.N,LED_A*%
X22892500Y-38625000D03*
%TO.P,D1,2,STATUS_LED_2*%
%TO.N,STATUS_LED*%
X24467500Y-38625000D03*
%TD*%
D16*
%TO.P,C6,1,USB_3V3_1*%
%TO.N,USB_3V3*%
X46075000Y-21625000D03*
%TO.P,C6,2,GND_2*%
%TO.N,GND*%
X47975000Y-21625000D03*
%TD*%
D31*
%TO.P,J3,A1_B12,GND_A1_B12*%
%TO.N,GND*%
X45475000Y-15325000D03*
D32*
%TO.P,J3,A4_B9,USB_VBUS_A_A4_B9*%
%TO.N,USB_VBUS_A*%
X44475000Y-15625000D03*
D33*
%TO.P,J3,A5,USB_CC1_A5*%
%TO.N,USB_CC1*%
X45475000Y-12625000D03*
D34*
%TO.P,J3,A6,USB_DP_A_A6*%
%TO.N,USB_DP_A*%
X45475000Y-10175000D03*
D35*
%TO.P,J3,A7,USB_DM_A_A7*%
%TO.N,USB_DM_A*%
X45475000Y-9075000D03*
D36*
%TO.P,J3,A8*%
%TO.N,N/C*%
X46980000Y-8375000D03*
D37*
%TO.P,J3,A9_B4,USB_VBUS_B_A9_B4*%
%TO.N,USB_VBUS_B*%
X44475000Y-3625000D03*
D38*
%TO.P,J3,A12_B1,GND_A12_B1*%
%TO.N,GND*%
X45475000Y-3925000D03*
D39*
%TO.P,J3,B5,USB_CC2_B5*%
%TO.N,USB_CC2*%
X45475000Y-6875000D03*
D40*
%TO.P,J3,B6,USB_DP_B_B6*%
%TO.N,USB_DP_B*%
X45475000Y-7975000D03*
D41*
%TO.P,J3,B7,USB_DM_B_B7*%
%TO.N,USB_DM_B*%
X45475000Y-11275000D03*
D36*
%TO.P,J3,B8*%
%TO.N,N/C*%
X46980000Y-11375000D03*
D42*
%TO.P,J3,S1,GND_S1*%
%TO.N,GND*%
X47895000Y-13945000D03*
D43*
X52075000Y-13945000D03*
D42*
X47895000Y-5305000D03*
D43*
X52075000Y-5305000D03*
%TD*%
D44*
%TO.P,R26,1,USB_VBUS_A_1*%
%TO.N,USB_VBUS_A*%
X44475000Y-15625000D03*
%TO.P,R26,2,USB_5V_2*%
%TO.N,USB_5V*%
X44475000Y-16645000D03*
%TD*%
D14*
%TO.P,R21,1,USB_DP_A_1*%
%TO.N,USB_DP_A*%
X36015000Y-7525000D03*
%TO.P,R21,2,USB_DP_RAW_2*%
%TO.N,USB_DP_RAW*%
X37035000Y-7525000D03*
%TD*%
D45*
%TO.P,TP1,1,3V3_1*%
%TO.N,3V3*%
X12525000Y-31525000D03*
%TD*%
D46*
%TO.P,U4,1*%
%TO.N,N/C*%
X40425000Y-26550000D03*
%TO.P,U4,2,GND_2*%
%TO.N,GND*%
X40425000Y-27200000D03*
%TO.P,U4,3,PS_3V3_3*%
%TO.N,PS_3V3*%
X40425000Y-27850000D03*
%TO.P,U4,4,MUX_ILIM_4*%
%TO.N,MUX_ILIM*%
X40425000Y-28500000D03*
%TO.P,U4,5,GND_5*%
%TO.N,GND*%
X44725000Y-28500000D03*
%TO.P,U4,6,USB_3V3_6*%
%TO.N,USB_3V3*%
X44725000Y-27850000D03*
%TO.P,U4,7,3V3_7*%
%TO.N,3V3*%
X44725000Y-27200000D03*
%TO.P,U4,8,PS_3V3_8*%
%TO.N,PS_3V3*%
X44725000Y-26550000D03*
%TD*%
D12*
%TO.P,J2,1,PS1_RXD_1*%
%TO.N,PS1_RXD*%
X22525000Y-50525000D03*
%TO.P,J2,2*%
%TO.N,N/C*%
X25025000Y-50525000D03*
%TO.P,J2,3*%
X27025000Y-50525000D03*
%TO.P,J2,4,PS1_TXD_4*%
%TO.N,PS1_TXD*%
X29525000Y-50525000D03*
%TO.P,J2,5*%
%TO.N,N/C*%
X30025000Y-49025000D03*
%TO.P,J2,6*%
X28025000Y-49025000D03*
%TO.P,J2,7,GND_7*%
%TO.N,GND*%
X26025000Y-49025000D03*
%TO.P,J2,8*%
%TO.N,N/C*%
X24025000Y-49025000D03*
%TO.P,J2,9*%
X22025000Y-49025000D03*
D13*
%TO.P,J2,SH*%
X19625000Y-52625000D03*
X32425000Y-52625000D03*
%TD*%
D11*
%TO.P,R7,1,DATA_GATE_1*%
%TO.N,DATA_GATE*%
X6855000Y-41525000D03*
%TO.P,R7,2,DATA_DRIVE_2*%
%TO.N,DATA_DRIVE*%
X8505000Y-41525000D03*
%TD*%
D23*
%TO.P,C4,1,3V3_1*%
%TO.N,3V3*%
X23250000Y-31525000D03*
%TO.P,C4,2,GND_2*%
%TO.N,GND*%
X24800000Y-31525000D03*
%TD*%
D47*
%TO.P,F1,1,PS_8V_RAW_1*%
%TO.N,PS_8V_RAW*%
X11100000Y-38000000D03*
%TO.P,F1,2,PS_8V_2*%
%TO.N,PS_8V*%
X13900000Y-38000000D03*
%TD*%
D48*
%TO.P,D5,1,PS_3V3_1*%
%TO.N,PS_3V3*%
X1950000Y-38500000D03*
%TO.P,D5,2,ATT_IN_2*%
%TO.N,ATT_IN*%
X4050000Y-38500000D03*
%TD*%
D11*
%TO.P,R12,1,3V3_1*%
%TO.N,3V3*%
X19855000Y-25525000D03*
%TO.P,R12,2,BOOT_2*%
%TO.N,BOOT*%
X21505000Y-25525000D03*
%TD*%
D14*
%TO.P,R15,1,USB_CC2_1*%
%TO.N,USB_CC2*%
X33515000Y-6875000D03*
%TO.P,R15,2,GND_2*%
%TO.N,GND*%
X34535000Y-6875000D03*
%TD*%
D27*
%TO.P,Q3,1,AUTO_BOOT_1*%
%TO.N,AUTO_BOOT*%
X23587500Y-14575000D03*
%TO.P,Q3,2,USB_RTS_2*%
%TO.N,USB_RTS*%
X23587500Y-16475000D03*
%TO.P,Q3,3,BOOT_3*%
%TO.N,BOOT*%
X25462500Y-15525000D03*
%TD*%
D48*
%TO.P,D3,1,PS_3V3_1*%
%TO.N,PS_3V3*%
X3630000Y-28025000D03*
%TO.P,D3,2,CMD_IN_2*%
%TO.N,CMD_IN*%
X5730000Y-28025000D03*
%TD*%
%TO.P,D4,1,PS_3V3_1*%
%TO.N,PS_3V3*%
X8630000Y-28025000D03*
%TO.P,D4,2,CLK_IN_2*%
%TO.N,CLK_IN*%
X10730000Y-28025000D03*
%TD*%
D14*
%TO.P,R27,1,USB_VBUS_B_1*%
%TO.N,USB_VBUS_B*%
X36815000Y-3625000D03*
%TO.P,R27,2,USB_5V_2*%
%TO.N,USB_5V*%
X37835000Y-3625000D03*
%TD*%
D25*
%TO.P,SW1,1,EN_1*%
%TO.N,EN*%
X2025000Y-34525000D03*
%TO.P,SW1,2,GND_2*%
%TO.N,GND*%
X10025000Y-34525000D03*
%TD*%
D49*
%TO.P,U5,1,GND_1*%
%TO.N,GND*%
X28165000Y-13180000D03*
%TO.P,U5,2,CH_TX_5V_2*%
%TO.N,CH_TX_5V*%
X28165000Y-14450000D03*
%TO.P,U5,3,UART_TX_3*%
%TO.N,UART_TX*%
X28165000Y-15720000D03*
%TO.P,U5,4,CH340_V3_4*%
%TO.N,CH340_V3*%
X28165000Y-16990000D03*
%TO.P,U5,5,USB_DP_5*%
%TO.N,USB_DP*%
X28165000Y-18260000D03*
%TO.P,U5,6,USB_DM_6*%
%TO.N,USB_DM*%
X28165000Y-19530000D03*
%TO.P,U5,7*%
%TO.N,N/C*%
X28165000Y-20800000D03*
%TO.P,U5,8*%
X28165000Y-22070000D03*
%TO.P,U5,9*%
X33115000Y-22070000D03*
%TO.P,U5,10*%
X33115000Y-20800000D03*
%TO.P,U5,11*%
X33115000Y-19530000D03*
%TO.P,U5,12*%
X33115000Y-18260000D03*
%TO.P,U5,13,USB_DTR_13*%
%TO.N,USB_DTR*%
X33115000Y-16990000D03*
%TO.P,U5,14,USB_RTS_14*%
%TO.N,USB_RTS*%
X33115000Y-15720000D03*
%TO.P,U5,15,GND_15*%
%TO.N,GND*%
X33115000Y-14450000D03*
%TO.P,U5,16,USB_UART_5V_16*%
%TO.N,USB_UART_5V*%
X33115000Y-13180000D03*
%TD*%
D11*
%TO.P,R8,1,DATA_DRIVE_1*%
%TO.N,DATA_DRIVE*%
X9855000Y-41525000D03*
%TO.P,R8,2,GND_2*%
%TO.N,GND*%
X11505000Y-41525000D03*
%TD*%
D23*
%TO.P,C10,1,USB_3V3_1*%
%TO.N,USB_3V3*%
X37750000Y-22525000D03*
%TO.P,C10,2,GND_2*%
%TO.N,GND*%
X39300000Y-22525000D03*
%TD*%
D50*
%TO.N,PS_8V*%
X19680000Y-35525000D03*
X14880000Y-36425000D03*
X26880000Y-35525000D03*
X19680000Y-36125000D03*
X36105000Y-34625000D03*
X30405000Y-34625000D03*
%TO.N,GND*%
X20850000Y-23425000D03*
X6350000Y-29625000D03*
X11505000Y-45450000D03*
X1200000Y-1200000D03*
X40962500Y-10025000D03*
X19230000Y-32725000D03*
X47975000Y-22825000D03*
X41625000Y-27800000D03*
X28050000Y-24025000D03*
X31765000Y-14080000D03*
X11225000Y-40525000D03*
X35712500Y-10325000D03*
X25442500Y-30800000D03*
X33755000Y-5925000D03*
X47075000Y-28225000D03*
X29965000Y-13180000D03*
X31355000Y-6225000D03*
X7550000Y-31725000D03*
X30842500Y-30800000D03*
%TO.N,PS1_TXD*%
X37175000Y-43500000D03*
%TO.N,U2_RX_RAW*%
X21000000Y-15445000D03*
X38825000Y-41500000D03*
%TO.N,PS_CMD*%
X3425000Y-26525000D03*
X7025000Y-28925000D03*
X5525000Y-28925000D03*
X5525000Y-26825000D03*
%TO.N,PS_CLK*%
X13944800Y-33888100D03*
%TO.N,PS_ATT*%
X11233700Y-48596200D03*
%TO.N,PS_DATA*%
X10025000Y-46025000D03*
X10625000Y-46025000D03*
X10625000Y-44825000D03*
%TO.N,PS_ACK*%
X12981300Y-46762500D03*
%TO.N,PS_8V_RAW*%
X10347300Y-39635100D03*
%TO.N,USB_DM_A*%
X44449999Y-8670558D03*
X40370663Y-10625107D03*
%TO.N,USB_DM_RAW*%
X38635000Y-13525000D03*
X35435000Y-12325000D03*
X38635000Y-10725000D03*
%TO.N,CMD_IN*%
X3574999Y-25725001D03*
X4300000Y-9952000D03*
%TO.N,UART_RX*%
X18049198Y-13351622D03*
X13753503Y-8842770D03*
X17292685Y-10776067D03*
X47633000Y-35490000D03*
X25558114Y-21012005D03*
X18031000Y-22606000D03*
X24193414Y-19324999D03*
%TO.N,PS_3V3*%
X39475000Y-27850000D03*
X23242500Y-28075000D03*
X1950000Y-29800000D03*
X8842500Y-28675000D03*
X1950000Y-35800000D03*
X42775000Y-27250000D03*
X8130000Y-27425000D03*
X40130000Y-37825000D03*
X43430000Y-37825000D03*
X28642500Y-28075000D03*
X23242500Y-28675000D03*
X3630000Y-27425000D03*
X35242500Y-28075000D03*
X30442500Y-28075000D03*
%TO.N,USB_DP_B*%
X31198242Y-8345258D03*
X41606000Y-4671000D03*
X33112537Y-5483317D03*
X34767415Y-4202603D03*
%TO.N,USB_DP_RAW*%
X33635000Y-9525000D03*
X37635000Y-9525000D03*
%TO.N,U2_TX_RAW*%
X33375000Y-41500000D03*
X21000000Y-14175000D03*
%TO.N,ATT_IN*%
X2775000Y-37225000D03*
X3375000Y-38725000D03*
X1275000Y-11425000D03*
%TO.N,3V3*%
X1300000Y-2745000D03*
X16950000Y-24950000D03*
X18850000Y-31525000D03*
X27750000Y-26650000D03*
X25855000Y-37650000D03*
X13500000Y-31525000D03*
X45550000Y-27200000D03*
X23250000Y-33500000D03*
X19855000Y-26450000D03*
X25355000Y-41500000D03*
X25855000Y-38625000D03*
%TO.N,EN*%
X19977344Y-33193442D03*
X7253021Y-4155983D03*
X16213604Y-15107963D03*
X18747637Y-35389870D03*
X18540506Y-25254092D03*
X24387459Y-9342110D03*
X18295280Y-14933481D03*
X15925001Y-36739131D03*
X20580933Y-30183340D03*
%TO.N,CLK_IN*%
X3184012Y-30211321D03*
X1951000Y-21316000D03*
%TO.N,BOOT*%
X27334051Y-37536687D03*
X21012839Y-26725001D03*
X25925807Y-36244752D03*
X25730000Y-17503000D03*
X21838974Y-28095994D03*
X18309000Y-19644000D03*
X22453232Y-17805934D03*
X41411000Y-44031000D03*
%TO.N,STATUS_LED*%
X24402813Y-37291112D03*
X13346000Y-16424000D03*
%TO.N,DATA_GATE*%
X7115233Y-16157103D03*
X4475462Y-36801434D03*
X16104317Y-10508211D03*
X10501923Y-13540803D03*
%TO.N,ACK_GATE*%
X8912191Y-30826321D03*
X12231000Y-13621000D03*
X10307000Y-32692000D03*
X15269880Y-40333717D03*
%TO.N,UART_TX*%
X34930000Y-38018683D03*
X29931441Y-15214595D03*
X22585068Y-5049999D03*
X35104749Y-29462580D03*
X30226271Y-17337238D03*
X37200000Y-45500000D03*
%TO.N,USB_5V*%
X34787500Y-5225000D03*
X34387500Y-8025000D03*
X24905000Y-3825000D03*
X37187500Y-14625000D03*
X24505000Y-5625000D03*
X31187500Y-13425000D03*
X31387500Y-10425000D03*
X31987500Y-8025000D03*
X28505000Y-8425000D03*
X29305000Y-8425000D03*
X46015000Y-20325000D03*
X45215000Y-20325000D03*
X36387500Y-5225000D03*
X28105000Y-5625000D03*
X28505000Y-6425000D03*
%TO.N,USB_DTR*%
X23065221Y-27018251D03*
X31078000Y-23709000D03*
X31402543Y-16261348D03*
X25489281Y-13576103D03*
%TO.N,AUTO_BOOT*%
X25372804Y-14685000D03*
X27669000Y-23170000D03*
%TO.N,MUX_ILIM*%
X44700000Y-30725000D03*
X41900000Y-30725000D03*
%TO.N,USB_DP*%
X30787500Y-9675000D03*
X29809600Y-11186200D03*
X26387500Y-16475000D03*
%TO.N,USB_DM*%
X32387500Y-12375000D03*
X31587500Y-17575000D03*
%TO.N,USB_DM_B*%
X43503745Y-12786888D03*
X35620000Y-14575000D03*
%TO.N,BUCK_SW*%
X24633759Y-28804715D03*
X33019968Y-28922787D03*
%TO.N,CH340_V3*%
X29898428Y-12194297D03*
X28695763Y-11084623D03*
%TO.N,USB_LDO_EN*%
X49365465Y-19376340D03*
X42498000Y-21782000D03*
%TO.N,USB_3V3*%
X46875000Y-22425000D03*
X46875000Y-20825000D03*
X42817500Y-19475000D03*
X46817500Y-20275000D03*
X38417500Y-19475000D03*
X44475000Y-21225000D03*
X46875000Y-26025000D03*
%TO.N,USB_RTS*%
X26512697Y-12120496D03*
X28088883Y-12019994D03*
X22025000Y-14288000D03*
X31396494Y-15147112D03*
%TO.N,AUTO_RESET*%
X14865968Y-9032731D03*
X17757823Y-8001015D03*
X21556230Y-9443802D03*
X25459287Y-22122615D03*
%TO.N,USB_UART_5V*%
X43445357Y-14908115D03*
X52366000Y-22355000D03*
%TO.N,CH_TX_5V*%
X26550773Y-13234845D03*
X23510294Y-17413496D03*
%TO.N,USB_CC2*%
X32043275Y-3012645D03*
X43813000Y-4671000D03*
%TD*%
%TO.N,PS_8V*%
D51*
X28680000Y-34625000D02*
X26880000Y-35525000D01*
X35205000Y-34625000D02*
X36105000Y-34625000D01*
X30405000Y-34625000D02*
X28680000Y-34625000D01*
X29542500Y-29625000D02*
X29542500Y-30575000D01*
X29542500Y-30575000D02*
X28680000Y-34625000D01*
X14880000Y-36425000D02*
X13900000Y-38000000D01*
X19680000Y-35525000D02*
X19680000Y-36125000D01*
%TO.N,GND*%
X39300000Y-27200000D02*
X39300000Y-22525000D01*
X38155000Y-34625000D02*
X42000000Y-38525000D01*
X30455000Y-5625000D02*
X28455000Y-7625000D01*
X18505000Y-41525000D02*
X17300000Y-35525000D01*
X28455000Y-7625000D02*
X27455000Y-7625000D01*
X7562500Y-45450000D02*
X11505000Y-45450000D01*
X45630000Y-36625000D02*
X46350000Y-31525000D01*
D52*
X30087500Y-41500000D02*
X32000000Y-43400000D01*
D51*
X11505000Y-45450000D02*
X11505000Y-41525000D01*
X3825000Y-41500000D02*
X7562500Y-45450000D01*
X31817500Y-30575000D02*
X32680000Y-34625000D01*
X47975000Y-21625000D02*
X47975000Y-22825000D01*
X7550000Y-31725000D02*
X10025000Y-34525000D01*
X23730000Y-30625000D02*
X24800000Y-31525000D01*
X5515000Y-19235000D02*
X3350000Y-22525000D01*
X25442500Y-30800000D02*
X24800000Y-31525000D01*
X6350000Y-26025000D02*
X3350000Y-22525000D01*
X40425000Y-27200000D02*
X41025000Y-27200000D01*
X11225000Y-40525000D02*
X11505000Y-41525000D01*
X24555000Y-6525000D02*
X26455000Y-4625000D01*
X40542500Y-19625000D02*
X39300000Y-19625000D01*
D52*
X43500000Y-57000000D02*
X43500000Y-54000000D01*
X32000000Y-43400000D02*
X34000000Y-45500000D01*
D51*
X39300000Y-19625000D02*
X39300000Y-22525000D01*
X31765000Y-14080000D02*
X33115000Y-14450000D01*
X2475000Y-1475000D02*
X1200000Y-1200000D01*
X46350000Y-31525000D02*
X44725000Y-28500000D01*
X34662500Y-10625000D02*
X35862500Y-10325000D01*
X43730000Y-38525000D02*
X42000000Y-38525000D01*
D52*
X34000000Y-45500000D02*
X34000000Y-57000000D01*
D51*
X23525000Y-6525000D02*
X23525000Y-1475000D01*
X45630000Y-36625000D02*
X51525000Y-43525000D01*
X31817500Y-30575000D02*
X30842500Y-30800000D01*
X6350000Y-26025000D02*
X6350000Y-29625000D01*
X45630000Y-36625000D02*
X43730000Y-38525000D01*
X41025000Y-27200000D02*
X41625000Y-27800000D01*
D52*
X34000000Y-57000000D02*
X43500000Y-57000000D01*
D51*
X30455000Y-5625000D02*
X31355000Y-6225000D01*
X27455000Y-7625000D02*
X26455000Y-4625000D01*
X34662500Y-10625000D02*
X35712500Y-10325000D01*
X40962500Y-10025000D02*
X41035000Y-11525000D01*
X33755000Y-5925000D02*
X34535000Y-6875000D01*
X23525000Y-6525000D02*
X24555000Y-6525000D01*
X22530000Y-30625000D02*
X23730000Y-30625000D01*
X40425000Y-27200000D02*
X39300000Y-27200000D01*
X47075000Y-28225000D02*
X44725000Y-28500000D01*
X19230000Y-32725000D02*
X17300000Y-35525000D01*
X21630000Y-31525000D02*
X22530000Y-30625000D01*
X28050000Y-24025000D02*
X29300000Y-25525000D01*
X20850000Y-22525000D02*
X20850000Y-23425000D01*
X28165000Y-13180000D02*
X29965000Y-13180000D01*
X23525000Y-1475000D02*
X19975000Y-1475000D01*
X16062500Y-45450000D02*
X11505000Y-41525000D01*
%TO.N,PS1_TXD*%
X37175000Y-42500000D02*
X37175000Y-43500000D01*
%TO.N,U2_RX_RAW*%
X19975000Y-15445000D02*
X21000000Y-15445000D01*
X38825000Y-42500000D02*
X38825000Y-41500000D01*
%TO.N,PS_CMD*%
X3425000Y-26525000D02*
X1700000Y-24525000D01*
%TO.N,PS_CLK*%
X13944800Y-33888100D02*
X14200000Y-33025000D01*
%TO.N,PS_ATT*%
X7171200Y-47996200D02*
X3675000Y-44500000D01*
X11233700Y-48596200D02*
X10333700Y-47996200D01*
X10333700Y-47996200D02*
X7171200Y-47996200D01*
%TO.N,PS_DATA*%
X10625000Y-44825000D02*
X9437500Y-44500000D01*
%TO.N,PS_ACK*%
X17937500Y-46762500D02*
X17937500Y-44500000D01*
X12981300Y-46762500D02*
X17937500Y-46762500D01*
%TO.N,PS_8V_RAW*%
X10347300Y-39635100D02*
X11100000Y-38000000D01*
%TO.N,USB_DM_A*%
X39430872Y-10769597D02*
X39424647Y-10760979D01*
X39306330Y-10944836D02*
X39406332Y-10797621D01*
X40534000Y-10755000D02*
X40536000Y-10755000D01*
X39939000Y-10755000D02*
X39964000Y-10755000D01*
X39839000Y-10755000D02*
X39864000Y-10755000D01*
X39222243Y-11122688D02*
X39230572Y-11106366D01*
X36925452Y-12295000D02*
X37224409Y-12295000D01*
X37430600Y-12299305D02*
X37734094Y-12290699D01*
X39406332Y-10797621D02*
X39430872Y-10769597D01*
X39295000Y-10985128D02*
X39295000Y-10981873D01*
X39989000Y-10755000D02*
X40014000Y-10755000D01*
X39295000Y-10973188D02*
X39295000Y-10969989D01*
X39230572Y-11106366D02*
X39250812Y-11070351D01*
X40457176Y-10755000D02*
X40490000Y-10755000D01*
X39513000Y-10755000D02*
X39538000Y-10755000D01*
X39713000Y-10755000D02*
X39738000Y-10755000D01*
X39738000Y-10755000D02*
X39764000Y-10755000D01*
X39295000Y-10965939D02*
X39306330Y-10944836D01*
X39563000Y-10755000D02*
X39588000Y-10755000D01*
X40537000Y-10724000D02*
X40370663Y-10625107D01*
X40140000Y-10755000D02*
X40165000Y-10755000D01*
X40396341Y-10755000D02*
X40426649Y-10755000D01*
X40426649Y-10755000D02*
X40457176Y-10755000D01*
X39538000Y-10755000D02*
X39563000Y-10755000D01*
X36742260Y-12295000D02*
X36925452Y-12295000D01*
X40064000Y-10755000D02*
X40090000Y-10755000D01*
X39889000Y-10755000D02*
X39914000Y-10755000D01*
X39295000Y-10978986D02*
X39295000Y-10976118D01*
X40358103Y-10755000D02*
X40371695Y-10755000D01*
X40371695Y-10755000D02*
X40396341Y-10755000D01*
X37734094Y-12290699D02*
X37924508Y-12214241D01*
X39588000Y-10755000D02*
X39613000Y-10755000D01*
X38080000Y-12120000D02*
X38280000Y-11920000D01*
X40265000Y-10755000D02*
X40290000Y-10755000D01*
X39964000Y-10755000D02*
X39989000Y-10755000D01*
X39638000Y-10755000D02*
X39663000Y-10755000D01*
X36015000Y-11555559D02*
X36170100Y-11710659D01*
X39258155Y-11055892D02*
X39269221Y-11037516D01*
X39814000Y-10755000D02*
X39839000Y-10755000D01*
X40290000Y-10755000D02*
X40315000Y-10755000D01*
X40215000Y-10755000D02*
X40240000Y-10755000D01*
X38682913Y-11775132D02*
X38846492Y-11634685D01*
X38846492Y-11634685D02*
X38999848Y-11496829D01*
X39295000Y-10990545D02*
X39295000Y-10985128D01*
X39424647Y-10760979D02*
X39452626Y-10752487D01*
X36170100Y-11710659D02*
X36145760Y-11732394D01*
X39295000Y-10969989D02*
X39295000Y-10965939D01*
X39295000Y-10981873D02*
X39295000Y-10978986D01*
X40536000Y-10755000D02*
X40537000Y-10755000D01*
X40014000Y-10755000D02*
X40039000Y-10755000D01*
X44449999Y-8670558D02*
X44854441Y-9075000D01*
X39295000Y-10976118D02*
X39295000Y-10973188D01*
X38999848Y-11496829D02*
X39098011Y-11335411D01*
X39789000Y-10755000D02*
X39814000Y-10755000D01*
X40039000Y-10755000D02*
X40064000Y-10755000D01*
X40340000Y-10755000D02*
X40358103Y-10755000D01*
X40240000Y-10755000D02*
X40265000Y-10755000D01*
X40190000Y-10755000D02*
X40215000Y-10755000D01*
X39613000Y-10755000D02*
X39638000Y-10755000D01*
X37224409Y-12295000D02*
X37430600Y-12299305D01*
X39291672Y-11002695D02*
X39295000Y-10990545D01*
X39914000Y-10755000D02*
X39939000Y-10755000D01*
X40165000Y-10755000D02*
X40190000Y-10755000D01*
X40530000Y-10755000D02*
X40534000Y-10755000D01*
X39250812Y-11070351D02*
X39258155Y-11055892D01*
X39098011Y-11335411D02*
X39222243Y-11122688D01*
X40315000Y-10755000D02*
X40340000Y-10755000D01*
X39688000Y-10755000D02*
X39713000Y-10755000D01*
X39864000Y-10755000D02*
X39889000Y-10755000D01*
X39452626Y-10752487D02*
X39488000Y-10755000D01*
X40537000Y-10755000D02*
X40537000Y-10724000D01*
X40512000Y-10755000D02*
X40530000Y-10755000D01*
X40090000Y-10755000D02*
X40115000Y-10755000D01*
X39269221Y-11037516D02*
X39282556Y-11017188D01*
X40490000Y-10755000D02*
X40512000Y-10755000D01*
X39282556Y-11017188D02*
X39291672Y-11002695D01*
X36145760Y-11732394D02*
X36380913Y-12317954D01*
X38280000Y-11920000D02*
X38682913Y-11775132D01*
X37924508Y-12214241D02*
X38080000Y-12120000D01*
X36380913Y-12317954D02*
X36742260Y-12295000D01*
X39663000Y-10755000D02*
X39688000Y-10755000D01*
X40115000Y-10755000D02*
X40140000Y-10755000D01*
X39488000Y-10755000D02*
X39513000Y-10755000D01*
X36015000Y-11525000D02*
X36015000Y-11555559D01*
X39764000Y-10755000D02*
X39789000Y-10755000D01*
X44854441Y-9075000D02*
X45475000Y-9075000D01*
%TO.N,USB_DM_RAW*%
D53*
X35435000Y-12325000D02*
X34662500Y-11575000D01*
X37035000Y-11525000D02*
X38635000Y-10725000D01*
X38635000Y-13525000D02*
X38035000Y-13525000D01*
%TO.N,CMD_IN*%
D51*
X4300000Y-9952000D02*
X3887000Y-10365000D01*
X3350000Y-24525000D02*
X3350000Y-24675000D01*
X3604377Y-25669444D02*
X3604377Y-25695623D01*
X4700000Y-26995000D02*
X5730000Y-28025000D01*
X4700000Y-26025000D02*
X4700000Y-26995000D01*
X3350000Y-25415067D02*
X3604377Y-25669444D01*
X3604377Y-25695623D02*
X3574999Y-25725001D01*
X3887000Y-10365000D02*
X2475000Y-10365000D01*
X3350000Y-24675000D02*
X4700000Y-26025000D01*
X3350000Y-24525000D02*
X3350000Y-25415067D01*
%TO.N,UART_RX*%
X47633000Y-35490000D02*
X50560000Y-35490000D01*
X17344869Y-12558087D02*
X18002071Y-13215289D01*
X18112000Y-22525000D02*
X18049382Y-22587618D01*
X19975000Y-6555000D02*
X16057941Y-6555000D01*
X24193414Y-19324999D02*
X24190383Y-20365383D01*
X52000000Y-29620000D02*
X52000000Y-33000000D01*
X18002071Y-13304495D02*
X18049198Y-13351622D01*
X16057941Y-6555000D02*
X13878164Y-8734777D01*
X24350000Y-20525000D02*
X25115229Y-20525000D01*
X25115229Y-20525000D02*
X25457954Y-20867725D01*
X18049382Y-22587618D02*
X18031000Y-22606000D01*
X24837005Y-21012005D02*
X24350000Y-20525000D01*
X24190383Y-20365383D02*
X24350000Y-20525000D01*
X50560000Y-35490000D02*
X52525000Y-33525000D01*
X25457954Y-20911846D02*
X25558114Y-21012005D01*
X54000000Y-29620000D02*
X52000000Y-29620000D01*
X25457954Y-20867725D02*
X25457954Y-20911846D01*
X18002071Y-13215289D02*
X18002071Y-13304495D01*
X13868223Y-8734777D02*
X13753503Y-8842770D01*
X19200000Y-22525000D02*
X18112000Y-22525000D01*
X52000000Y-33000000D02*
X52525000Y-33525000D01*
X25558114Y-21012005D02*
X24837005Y-21012005D01*
X13878164Y-8734777D02*
X13868223Y-8734777D01*
X17292685Y-10776067D02*
X17344869Y-12558087D01*
%TO.N,PS_3V3*%
X43730000Y-36625000D02*
X43430000Y-37825000D01*
X29542500Y-28675000D02*
X30442500Y-28075000D01*
X37025000Y-26025000D02*
X38850000Y-27850000D01*
X29542500Y-28675000D02*
X28642500Y-28075000D01*
X40130000Y-37825000D02*
X39050000Y-38525000D01*
X1950000Y-29800000D02*
X3630000Y-28025000D01*
X8130000Y-27425000D02*
X8630000Y-28025000D01*
X3630000Y-28025000D02*
X3630000Y-27425000D01*
X23242500Y-28075000D02*
X23242500Y-28675000D01*
X43730000Y-36625000D02*
X39530000Y-32425000D01*
X42775000Y-27250000D02*
X43475000Y-26550000D01*
X39530000Y-28225000D02*
X39905000Y-27850000D01*
X40375000Y-27850000D02*
X39475000Y-27850000D01*
X1950000Y-38500000D02*
X1950000Y-35800000D01*
X39905000Y-27850000D02*
X40375000Y-27850000D01*
X8842500Y-28675000D02*
X8630000Y-28025000D01*
X39530000Y-32425000D02*
X39530000Y-28225000D01*
X38850000Y-27850000D02*
X40375000Y-27850000D01*
X43475000Y-26550000D02*
X44675000Y-26550000D01*
X35242500Y-28075000D02*
X37025000Y-26025000D01*
%TO.N,USB_DP_B*%
X34952982Y-8832286D02*
X35001055Y-8878055D01*
X31404747Y-8512709D02*
X31365709Y-8512709D01*
X35643119Y-8836800D02*
X35053000Y-8925000D01*
X33283145Y-3471086D02*
X33915646Y-3417285D01*
X33112537Y-5483317D02*
X33028203Y-4883012D01*
X32897399Y-3960361D02*
X33283145Y-3471086D01*
X35925308Y-9293663D02*
X35643119Y-8836800D01*
X35001055Y-8878055D02*
X31770094Y-8878055D01*
X33915646Y-3417285D02*
X34153097Y-3558351D01*
X33028203Y-4883012D02*
X32897399Y-3960361D01*
X34153097Y-3558351D02*
X34438383Y-3884366D01*
X31365709Y-8512709D02*
X31198242Y-8345258D01*
X35834859Y-9356582D02*
X35925308Y-9293663D01*
X35053000Y-8925000D02*
X34952982Y-8832286D01*
X44910000Y-7975000D02*
X45475000Y-7975000D01*
X36015000Y-9525000D02*
X36003277Y-9525000D01*
X34438383Y-3884366D02*
X34767415Y-4202603D01*
X36003277Y-9525000D02*
X35834859Y-9356582D01*
X31770094Y-8878055D02*
X31404747Y-8512709D01*
X41606000Y-4671000D02*
X44910000Y-7975000D01*
%TO.N,USB_DP_RAW*%
D53*
X33635000Y-9525000D02*
X34662500Y-9675000D01*
X37035000Y-9525000D02*
X37035000Y-7525000D01*
X37035000Y-9525000D02*
X37635000Y-9525000D01*
%TO.N,U2_TX_RAW*%
D51*
X33375000Y-42500000D02*
X33375000Y-41500000D01*
X19975000Y-14175000D02*
X21000000Y-14175000D01*
%TO.N,PS1_RXD*%
X35025000Y-42500000D02*
X34200000Y-41600000D01*
X30800000Y-41000000D02*
X30400000Y-40600000D01*
X33000000Y-40800000D02*
X32800000Y-41000000D01*
X33600000Y-40800000D02*
X33000000Y-40800000D01*
X25000000Y-40600000D02*
X23000000Y-42600000D01*
X34200000Y-41600000D02*
X34200000Y-41400000D01*
X23000000Y-49600000D02*
X22600000Y-50000000D01*
X22600000Y-50000000D02*
X22525000Y-50525000D01*
X30400000Y-40600000D02*
X25000000Y-40600000D01*
X32800000Y-41000000D02*
X30800000Y-41000000D01*
X23000000Y-42600000D02*
X23000000Y-49600000D01*
X34200000Y-41400000D02*
X33600000Y-40800000D01*
%TO.N,POWER_LED_A*%
D52*
X27005000Y-41500000D02*
X28512500Y-41500000D01*
%TO.N,ATT_IN*%
D51*
X5325000Y-44500000D02*
X2175000Y-41500000D01*
X1875000Y-8125000D02*
X1275000Y-8725000D01*
X1275000Y-8725000D02*
X1275000Y-11425000D01*
X3375000Y-38725000D02*
X4050000Y-38500000D01*
X2475000Y-7825000D02*
X1875000Y-8125000D01*
X2175000Y-41500000D02*
X4050000Y-38500000D01*
%TO.N,3V3*%
D53*
X2475000Y-2745000D02*
X1300000Y-2745000D01*
X17855000Y-24025000D02*
X16950000Y-24950000D01*
X19730000Y-31525000D02*
X18850000Y-31525000D01*
X27750000Y-25525000D02*
X27750000Y-26650000D01*
X25855000Y-38625000D02*
X25855000Y-37650000D01*
X12525000Y-31525000D02*
X13500000Y-31525000D01*
X44675000Y-27200000D02*
X45550000Y-27200000D01*
X23250000Y-31525000D02*
X23250000Y-33500000D01*
X19855000Y-25525000D02*
X19855000Y-26450000D01*
%TO.N,EN*%
D51*
X7230845Y-4178155D02*
X7253021Y-4155983D01*
X19505000Y-24060672D02*
X18511123Y-25054550D01*
X15947127Y-36717005D02*
X15925001Y-36739131D01*
X18206868Y-15017840D02*
X18295280Y-14933481D01*
X24387459Y-9342110D02*
X24387459Y-11100541D01*
X10421270Y-36848587D02*
X11429858Y-35839999D01*
X9812440Y-36848587D02*
X10421270Y-36848587D01*
X17893101Y-15109556D02*
X17984817Y-15017840D01*
X16213604Y-15107963D02*
X17893101Y-15109556D01*
X19505000Y-24025000D02*
X19505000Y-24060672D01*
X7157273Y-4178155D02*
X7230845Y-4178155D01*
X6994118Y-4015000D02*
X7157273Y-4178155D01*
X15750000Y-36496134D02*
X15947127Y-36693261D01*
X24387459Y-11100541D02*
X23963000Y-11525000D01*
X15947127Y-36693261D02*
X15947127Y-36717005D01*
X20900281Y-30078434D02*
X22447973Y-28502572D01*
X22579037Y-27578703D02*
X22348108Y-27343614D01*
X15750000Y-35525000D02*
X15750000Y-36496134D01*
X2475000Y-4015000D02*
X6994118Y-4015000D01*
X7488852Y-34525000D02*
X9812440Y-36848587D01*
X22348108Y-27343614D02*
X22365362Y-24669367D01*
X24387459Y-11100541D02*
X23963000Y-11525000D01*
X22365362Y-24669367D02*
X21706315Y-24041384D01*
X11429858Y-35839999D02*
X11744857Y-35525000D01*
X24387459Y-9342110D02*
X24387459Y-11100541D01*
X19751464Y-33293173D02*
X19977344Y-33193442D01*
X21706315Y-24041384D02*
X19505000Y-24025000D01*
X18747637Y-35389870D02*
X19751464Y-34367381D01*
X22549667Y-28350988D02*
X22579037Y-27578703D01*
X22447973Y-28502572D02*
X22549667Y-28350988D01*
X17984817Y-15017840D02*
X18206868Y-15017840D01*
X20580933Y-30183340D02*
X20900281Y-30078434D01*
X18511123Y-25054550D02*
X18421720Y-25066366D01*
X11744857Y-35525000D02*
X15750000Y-35525000D01*
X2025000Y-34525000D02*
X7488852Y-34525000D01*
X19751464Y-34367381D02*
X19751464Y-33293173D01*
X18421720Y-25066366D02*
X18540506Y-25254092D01*
%TO.N,CLK_IN*%
X1271893Y-22096893D02*
X1700000Y-22525000D01*
X15850000Y-32481786D02*
X11454229Y-28086015D01*
X1950743Y-21378961D02*
X1950743Y-21316257D01*
X1700000Y-22525000D02*
X1700000Y-21629703D01*
X11454229Y-28086015D02*
X10791015Y-28086015D01*
X1271893Y-12822917D02*
X1271893Y-22096893D01*
X3184012Y-30211321D02*
X8546096Y-30212157D01*
X1597396Y-11930288D02*
X1290718Y-11979552D01*
X10791015Y-28086015D02*
X10730000Y-28025000D01*
X15850000Y-33025000D02*
X15850000Y-32481786D01*
X8546096Y-30212157D02*
X10730000Y-28025000D01*
X1892684Y-11635000D02*
X1597396Y-11930288D01*
X2475000Y-11635000D02*
X1892684Y-11635000D01*
X1290718Y-11979552D02*
X1215994Y-12898794D01*
X1215994Y-12898794D02*
X1271893Y-12822917D01*
X1950743Y-21316257D02*
X1951000Y-21316000D01*
X1700000Y-21629703D02*
X1950743Y-21378961D01*
%TO.N,BOOT*%
X43019000Y-44031000D02*
X43525000Y-43525000D01*
X19975000Y-17985000D02*
X19972861Y-17985000D01*
X21012839Y-26725001D02*
X21012839Y-26017161D01*
X21505000Y-27736098D02*
X21885773Y-28116871D01*
X25730000Y-17503000D02*
X25730000Y-15792000D01*
X22211701Y-17985000D02*
X22397824Y-17798878D01*
X18378591Y-19574409D02*
X18309000Y-19644000D01*
X25730000Y-15792000D02*
X25463000Y-15525000D01*
X25925807Y-36244752D02*
X26106139Y-36250001D01*
X19975000Y-17985000D02*
X22211701Y-17985000D01*
X27209797Y-37353659D02*
X27334051Y-37536687D01*
X21885773Y-28116871D02*
X21838974Y-28095994D01*
X18383452Y-19574409D02*
X18378591Y-19574409D01*
X22397824Y-17798878D02*
X22483541Y-17798878D01*
X19972861Y-17985000D02*
X18383452Y-19574409D01*
X26106139Y-36250001D02*
X27209797Y-37353659D01*
X21505000Y-25525000D02*
X21505000Y-27736098D01*
X21012839Y-26017161D02*
X21505000Y-25525000D01*
X22483541Y-17798878D02*
X22453232Y-17805934D01*
X41411000Y-44031000D02*
X43019000Y-44031000D01*
%TO.N,STATUS_LED*%
X13356924Y-16413076D02*
X13346000Y-16424000D01*
X13658849Y-16715000D02*
X13356924Y-16413076D01*
X19975000Y-16715000D02*
X13658849Y-16715000D01*
X24432778Y-38589778D02*
X24468000Y-38625000D01*
X24402813Y-37291112D02*
X24432778Y-38589778D01*
%TO.N,DATA_GATE*%
X19723730Y-10113730D02*
X19975000Y-10365000D01*
X10283462Y-13549850D02*
X10494150Y-13549850D01*
X9722487Y-13549850D02*
X10283462Y-13549850D01*
X6855000Y-41525000D02*
X6855000Y-39356982D01*
X16104317Y-10508211D02*
X16416438Y-10050636D01*
X4499002Y-36824974D02*
X4475462Y-36801434D01*
X6855000Y-39356982D02*
X4499002Y-37000984D01*
X10494150Y-13549850D02*
X10501923Y-13540803D01*
X16416438Y-10050636D02*
X19662110Y-10089094D01*
X4499002Y-37000984D02*
X4499002Y-36824974D01*
X7115233Y-16157103D02*
X9722487Y-13549850D01*
X19662110Y-10089094D02*
X19723730Y-10113730D01*
%TO.N,ACK_GATE*%
X13988069Y-41391931D02*
X13855000Y-41525000D01*
X15269880Y-40333717D02*
X15001160Y-40324999D01*
X18090580Y-8727192D02*
X16907527Y-8688787D01*
X8912191Y-30826321D02*
X8912000Y-31115192D01*
X13988069Y-41338090D02*
X13988069Y-41391931D01*
X12246733Y-13605267D02*
X12231000Y-13621000D01*
X13317915Y-12292255D02*
X13332995Y-12519005D01*
X16907527Y-8688787D02*
X13317915Y-12292255D01*
X19975000Y-7825000D02*
X18971762Y-7825160D01*
X15001160Y-40324999D02*
X13988069Y-41338090D01*
X10295996Y-32499188D02*
X10295996Y-32680996D01*
X13332995Y-12519005D02*
X12246733Y-13605267D01*
X8912000Y-31115192D02*
X10295996Y-32499188D01*
X10295996Y-32680996D02*
X10307000Y-32692000D01*
X18971762Y-7825160D02*
X18090580Y-8727192D01*
%TO.N,UART_TX*%
X28671243Y-15213757D02*
X28165000Y-15720000D01*
X34930000Y-38120000D02*
X32525000Y-40525000D01*
X52000000Y-27080000D02*
X46855000Y-32225000D01*
X41200000Y-38140866D02*
X38809134Y-35750000D01*
X46855000Y-32225000D02*
X46855000Y-36905000D01*
X29010296Y-15720000D02*
X30168102Y-16877806D01*
X34925000Y-29464000D02*
X35106169Y-29464000D01*
X22349499Y-5285000D02*
X22584784Y-5049715D01*
D53*
X37200000Y-45500000D02*
X34930000Y-38120000D01*
D51*
X22584784Y-5049715D02*
X22585068Y-5049999D01*
X29931441Y-15214595D02*
X28671243Y-15213757D01*
X54000000Y-27080000D02*
X52000000Y-27080000D01*
X37355000Y-31894000D02*
X34925000Y-29464000D01*
X30168102Y-16877806D02*
X30168102Y-17455421D01*
X30168102Y-17455421D02*
X30226271Y-17337238D01*
X38809134Y-35750000D02*
X37626322Y-35750000D01*
X46855000Y-36905000D02*
X52500000Y-42550000D01*
X46321322Y-44500000D02*
X45703561Y-43882239D01*
X37626322Y-35750000D02*
X37355000Y-35478678D01*
X45703561Y-43882239D02*
X41200000Y-39378678D01*
X52500000Y-42550000D02*
X52500000Y-44500000D01*
X52500000Y-44500000D02*
X46321322Y-44500000D01*
X41200000Y-39378678D02*
X41200000Y-38140866D01*
X34930000Y-38018683D02*
X34930000Y-38120000D01*
X19975000Y-5285000D02*
X22349499Y-5285000D01*
X35106169Y-29464000D02*
X35104749Y-29462580D01*
X37355000Y-35478678D02*
X37355000Y-31894000D01*
X28165000Y-15720000D02*
X29010296Y-15720000D01*
%TO.N,USB_5V*%
D53*
X28905000Y-5625000D02*
X28505000Y-6425000D01*
X45215000Y-22725000D02*
X46015000Y-23525000D01*
X46015000Y-20325000D02*
X45215000Y-20325000D01*
X37187500Y-14625000D02*
X37835000Y-15625000D01*
X24905000Y-4625000D02*
X24905000Y-3825000D01*
X28505000Y-8425000D02*
X29305000Y-8425000D01*
X29305000Y-9225000D02*
X30705000Y-10625000D01*
X45215000Y-20325000D02*
X45215000Y-22725000D01*
X41692500Y-17525000D02*
X46015000Y-17525000D01*
X40542500Y-18675000D02*
X37835000Y-15625000D01*
X31187500Y-11025000D02*
X31187500Y-13425000D01*
X46015000Y-17525000D02*
X44475000Y-16645000D01*
X32387500Y-10625000D02*
X31187500Y-11025000D01*
X40542500Y-18675000D02*
X41692500Y-17525000D01*
X29305000Y-8425000D02*
X29305000Y-9225000D01*
X36387500Y-5225000D02*
X37835000Y-3625000D01*
X32387500Y-10625000D02*
X31387500Y-10425000D01*
X46015000Y-17525000D02*
X46015000Y-20325000D01*
X28905000Y-5625000D02*
X28105000Y-5625000D01*
X30705000Y-10625000D02*
X32387500Y-10625000D01*
X24505000Y-5625000D02*
X24905000Y-4625000D01*
%TO.N,USB_DTR*%
D51*
X34228706Y-17284988D02*
X33409988Y-17284988D01*
X23302165Y-13689165D02*
X22088000Y-12475000D01*
X33637069Y-23709000D02*
X35127774Y-22218296D01*
X33409988Y-17284988D02*
X33115000Y-16990000D01*
X22970830Y-26830473D02*
X22970830Y-26978159D01*
X35127774Y-18184056D02*
X34228706Y-17284988D01*
X33115000Y-16990000D02*
X31959373Y-16990000D01*
X23700000Y-26101302D02*
X22970830Y-26830473D01*
X31078000Y-23709000D02*
X33637069Y-23709000D01*
X31435957Y-16466584D02*
X31402543Y-16261348D01*
X25489281Y-13576103D02*
X23302165Y-13689165D01*
X31959373Y-16990000D02*
X31435957Y-16466584D01*
X23700000Y-25025000D02*
X23700000Y-26101302D01*
X35127774Y-22218296D02*
X35127774Y-18184056D01*
X22970830Y-26978159D02*
X23065221Y-27018251D01*
%TO.N,AUTO_BOOT*%
X25350000Y-25025000D02*
X26167637Y-25048571D01*
X27390593Y-23870206D02*
X27345270Y-23451306D01*
X27345270Y-23451306D02*
X27611601Y-23184976D01*
X25372804Y-14685000D02*
X23663001Y-14499999D01*
X27654024Y-23184976D02*
X27669000Y-23170000D01*
X23663001Y-14499999D02*
X23588000Y-14575000D01*
X26167637Y-25048571D02*
X27390593Y-23870206D01*
X27611601Y-23184976D02*
X27654024Y-23184976D01*
%TO.N,ACK_DRIVE*%
X16855000Y-41525000D02*
X15505000Y-41525000D01*
X16062500Y-43550000D02*
X15505000Y-41525000D01*
%TO.N,MUX_ILIM*%
D53*
X44700000Y-30725000D02*
X41900000Y-30725000D01*
X41900000Y-30725000D02*
X41900000Y-29325000D01*
X41900000Y-29325000D02*
X40375000Y-28500000D01*
X44700000Y-31525000D02*
X44700000Y-30725000D01*
%TO.N,USB_DP*%
X27372500Y-18260000D02*
X28165000Y-18260000D01*
X32387500Y-9675000D02*
X30787500Y-9675000D01*
X26387500Y-16475000D02*
X27372500Y-18260000D01*
%TO.N,USB_DM*%
X32387500Y-11575000D02*
X32387500Y-12375000D01*
X31587500Y-17575000D02*
X30032500Y-19530000D01*
X30032500Y-19530000D02*
X28165000Y-19530000D01*
%TO.N,USB_DM_B*%
D51*
X35700116Y-14575000D02*
X35620000Y-14575000D01*
X36750116Y-13525000D02*
X35700116Y-14575000D01*
X43503745Y-12786888D02*
X43883084Y-12866916D01*
X43883084Y-12866916D02*
X45475000Y-11275000D01*
X37015000Y-13525000D02*
X36750116Y-13525000D01*
%TO.N,BUCK_SW*%
X31992392Y-29450108D02*
X31817500Y-29625000D01*
X33030391Y-29332796D02*
X32620139Y-29456893D01*
X32620139Y-29456893D02*
X32509321Y-29450108D01*
X32702029Y-29438334D02*
X32540624Y-29442194D01*
X33071093Y-29114743D02*
X33001515Y-29348845D01*
X24250000Y-28303342D02*
X24583450Y-28636792D01*
X32000306Y-29442194D02*
X31817500Y-29625000D01*
X24583450Y-28754450D02*
X24633759Y-28804715D01*
X33001515Y-29348845D02*
X32702029Y-29438334D01*
X24250000Y-27525000D02*
X24250000Y-28303342D01*
X32540624Y-29442194D02*
X32447077Y-29442194D01*
X32473596Y-29450108D02*
X31992392Y-29450108D01*
X24583450Y-28636792D02*
X24583450Y-28754450D01*
X33019968Y-28922787D02*
X33030391Y-29332796D01*
X34025000Y-26025000D02*
X34025000Y-28160836D01*
X32509321Y-29450108D02*
X32473596Y-29450108D01*
X34025000Y-28160836D02*
X33071093Y-29114743D01*
X32447077Y-29442194D02*
X32000306Y-29442194D01*
%TO.N,BUCK_BST*%
X30667500Y-27525000D02*
X31817500Y-28675000D01*
X25800000Y-27525000D02*
X30667500Y-27525000D01*
%TO.N,CH340_V3*%
X29452905Y-17165960D02*
X29474463Y-17067984D01*
X30878150Y-17025086D02*
X30954255Y-17311555D01*
X26885063Y-10978892D02*
X28428269Y-10962539D01*
X29710544Y-17865932D02*
X29610901Y-17717000D01*
X30449460Y-18034957D02*
X30241060Y-18061413D01*
X29415000Y-16864000D02*
X29415000Y-16753000D01*
X29444314Y-17271412D02*
X29452905Y-17165960D01*
X30720227Y-17889881D02*
X30449460Y-18034957D01*
X30705520Y-16793173D02*
X30878150Y-17025086D01*
X28428269Y-10962539D02*
X28585023Y-11119292D01*
X25775971Y-10016785D02*
X26885063Y-10978892D01*
X29893623Y-18021305D02*
X29710544Y-17865932D01*
X30904620Y-17597335D02*
X30720227Y-17889881D01*
X29469000Y-16972000D02*
X29415000Y-16864000D01*
X30954255Y-17311555D02*
X30904620Y-17597335D01*
X25905000Y-7625000D02*
X25775971Y-10016785D01*
X30241060Y-18061413D02*
X29893623Y-18021305D01*
X29415000Y-16753000D02*
X28165000Y-16990000D01*
X29451737Y-17375042D02*
X29444314Y-17271412D01*
X29531746Y-17524963D02*
X29473195Y-17472854D01*
X29610901Y-17717000D02*
X29531746Y-17524963D01*
X29898428Y-12194297D02*
X30572523Y-12889758D01*
X29474463Y-17067984D02*
X29469000Y-16972000D01*
X30572523Y-12889758D02*
X30705520Y-16793173D01*
X29473195Y-17472854D02*
X29451737Y-17375042D01*
X28585023Y-11119292D02*
X28649293Y-11119292D01*
X28649293Y-11119292D02*
X28695763Y-11084623D01*
%TO.N,USB_LDO_EN*%
X42498000Y-21782000D02*
X41750000Y-21782000D01*
X41750000Y-21782000D02*
X40543000Y-20575000D01*
X47035000Y-17525000D02*
X47690224Y-17525000D01*
X49348162Y-19318162D02*
X49365465Y-19376340D01*
X49348162Y-19182938D02*
X49348162Y-19318162D01*
X47690224Y-17525000D02*
X49348162Y-19182938D01*
%TO.N,USB_3V3*%
D53*
X46075000Y-21625000D02*
X46875000Y-22425000D01*
X46875000Y-26025000D02*
X46650000Y-27850000D01*
X42817500Y-18675000D02*
X42817500Y-19475000D01*
X44475000Y-21225000D02*
X43525000Y-19475000D01*
X42817500Y-18675000D02*
X42817500Y-19475000D01*
X46817500Y-20275000D02*
X46075000Y-21625000D01*
X43525000Y-19475000D02*
X42817500Y-19475000D01*
X38417500Y-19475000D02*
X37750000Y-22525000D01*
X46650000Y-27850000D02*
X44675000Y-27850000D01*
X46075000Y-21625000D02*
X46875000Y-20825000D01*
%TO.N,USB_CC1*%
D51*
X41466936Y-13423406D02*
X41553616Y-13428354D01*
X44591129Y-13543689D02*
X45475000Y-12625000D01*
X40015000Y-11971470D02*
X41466936Y-13423406D01*
X41553616Y-13428354D02*
X44591129Y-13543689D01*
X40015000Y-11525000D02*
X40015000Y-11971470D01*
%TO.N,DATA_DRIVE*%
X7562500Y-43550000D02*
X8505000Y-41525000D01*
X8505000Y-41525000D02*
X9855000Y-41525000D01*
%TO.N,USB_RTS*%
X26269642Y-19144386D02*
X23588000Y-16475000D01*
X31482849Y-15436157D02*
X31461997Y-15436157D01*
X26672041Y-12141597D02*
X26529597Y-12141597D01*
X25104529Y-23443517D02*
X26275569Y-22334254D01*
X26529597Y-12141597D02*
X26512697Y-12120496D01*
X26794056Y-12019582D02*
X26672041Y-12141597D01*
X31799848Y-15666886D02*
X31482849Y-15436157D01*
X31461997Y-15436157D02*
X31396494Y-15147112D01*
X23601705Y-23449875D02*
X25017688Y-23452282D01*
X22025000Y-14288000D02*
X22025000Y-14912000D01*
X22025000Y-14912000D02*
X23588000Y-16475000D01*
X25017688Y-23452282D02*
X25104529Y-23443517D01*
X26275569Y-22334254D02*
X26269642Y-19144386D01*
X23541528Y-23392443D02*
X23601705Y-23449875D01*
X28088883Y-12019994D02*
X26794056Y-12019582D01*
X33115000Y-15720000D02*
X31799848Y-15666886D01*
X22700000Y-22577755D02*
X23541528Y-23392443D01*
X22700000Y-22525000D02*
X22700000Y-22577755D01*
%TO.N,AUTO_RESET*%
X17677034Y-8111966D02*
X17757823Y-8001015D01*
X21550000Y-10037000D02*
X22088000Y-10575000D01*
X24350000Y-22525000D02*
X25049917Y-22525000D01*
X15809214Y-8111966D02*
X17677034Y-8111966D01*
X25049917Y-22525000D02*
X25438823Y-22136094D01*
X14865968Y-9032731D02*
X15809214Y-8111966D01*
X25438823Y-22136094D02*
X25438823Y-21990359D01*
X25438823Y-21990359D02*
X25459287Y-22122615D01*
X21556230Y-9443802D02*
X21550000Y-10037000D01*
%TO.N,LED_A*%
X23674911Y-39558774D02*
X23138502Y-39022365D01*
X23138502Y-39022365D02*
X23138502Y-38870502D01*
X23138502Y-38870502D02*
X22893000Y-38625000D01*
X27505000Y-38625000D02*
X27505000Y-38824850D01*
X27505000Y-38824850D02*
X26771076Y-39558774D01*
X26771076Y-39558774D02*
X23674911Y-39558774D01*
%TO.N,USB_UART_5V*%
X35576999Y-13290566D02*
X36227530Y-12738755D01*
X52366000Y-22355000D02*
X51196000Y-23525000D01*
X33115000Y-13180000D02*
X33206009Y-13279257D01*
X33206009Y-13279257D02*
X35576999Y-13290566D01*
X43436864Y-14916609D02*
X43445357Y-14908115D01*
X41756695Y-14910612D02*
X43417534Y-14916609D01*
X36227530Y-12738755D02*
X39455274Y-12673381D01*
X51196000Y-23525000D02*
X47035000Y-23525000D01*
X43417534Y-14916609D02*
X43436864Y-14916609D01*
X39455274Y-12673381D02*
X41756695Y-14910612D01*
%TO.N,CH_TX_5V*%
X26550773Y-13234845D02*
X26436772Y-13640767D01*
X23480491Y-17525309D02*
X23510294Y-17413496D01*
X26436772Y-13640767D02*
X27216765Y-14420761D01*
X23478053Y-19744508D02*
X23479899Y-17598388D01*
X23479899Y-17598388D02*
X23480491Y-17525309D01*
X22700000Y-20525000D02*
X23478053Y-19744508D01*
X27216765Y-14420761D02*
X28135761Y-14420761D01*
X28135761Y-14420761D02*
X28165000Y-14450000D01*
%TO.N,USB_DP_A*%
X36776703Y-6421555D02*
X41264400Y-6513460D01*
X44870167Y-10175000D02*
X45475000Y-10175000D01*
X36272327Y-7131681D02*
X36288791Y-6838515D01*
X41264400Y-6513460D02*
X44870167Y-10175000D01*
X36015000Y-7525000D02*
X36015000Y-7389008D01*
X36584444Y-6681987D02*
X36593177Y-6751823D01*
X36015000Y-7389008D02*
X36272327Y-7131681D01*
X36288791Y-6838515D02*
X36584444Y-6681987D01*
X36593177Y-6751823D02*
X36776703Y-6421555D01*
%TO.N,USB_VBUS_B*%
X37779749Y-2274700D02*
X43124700Y-2274700D01*
X43124700Y-2274700D02*
X44475000Y-3625000D01*
X36815000Y-3625000D02*
X36815000Y-3239449D01*
X36815000Y-3239449D02*
X37779749Y-2274700D01*
%TO.N,USB_CC2*%
X33515000Y-6875000D02*
X32384104Y-5845006D01*
X32384104Y-5845006D02*
X32466310Y-3553101D01*
X32466310Y-3553101D02*
X32362615Y-3553430D01*
X43813000Y-4671000D02*
X43813000Y-5213000D01*
X32362615Y-3553430D02*
X32043275Y-3012645D01*
X43813000Y-5213000D02*
X45475000Y-6875000D01*
%TD*%
M02*
