%TF.GenerationSoftware,KiCad,Pcbnew,10.99.0-3619-g0ef48b972f*%
%TF.CreationDate,2026-09-25T15:31:27+07:00*%
%TF.ProjectId,board,626f6172-642e-46b6-9963-61645f706362,rev?*%
%TF.SameCoordinates,Original*%
%TF.FileFunction,Legend,Top*%
%TF.FilePolarity,Positive*%
%FSLAX46Y46*%
G04 Gerber Fmt 4.6, Leading zero omitted, Abs format (unit mm)*
G04 Created by KiCad (PCBNEW 10.99.0-3619-g0ef48b972f) date 2026-09-25 15:31:27*
%MOMM*%
%LPD*%
G01*
G04 APERTURE LIST*
%ADD10C,0.120000*%
%ADD11C,0.150000*%
%ADD12C,0.130000*%
%ADD13C,0.140000*%
G04 APERTURE END LIST*
D10*
X21699047Y-36825760D02*
X21813333Y-36863855D01*
X21813333Y-36863855D02*
X22003809Y-36863855D01*
X22003809Y-36863855D02*
X22080000Y-36825760D01*
X22080000Y-36825760D02*
X22118095Y-36787664D01*
X22118095Y-36787664D02*
X22156190Y-36711474D01*
X22156190Y-36711474D02*
X22156190Y-36635283D01*
X22156190Y-36635283D02*
X22118095Y-36559093D01*
X22118095Y-36559093D02*
X22080000Y-36520998D01*
X22080000Y-36520998D02*
X22003809Y-36482902D01*
X22003809Y-36482902D02*
X21851428Y-36444807D01*
X21851428Y-36444807D02*
X21775238Y-36406712D01*
X21775238Y-36406712D02*
X21737143Y-36368617D01*
X21737143Y-36368617D02*
X21699047Y-36292426D01*
X21699047Y-36292426D02*
X21699047Y-36216236D01*
X21699047Y-36216236D02*
X21737143Y-36140045D01*
X21737143Y-36140045D02*
X21775238Y-36101950D01*
X21775238Y-36101950D02*
X21851428Y-36063855D01*
X21851428Y-36063855D02*
X22041905Y-36063855D01*
X22041905Y-36063855D02*
X22156190Y-36101950D01*
X22384762Y-36063855D02*
X22841905Y-36063855D01*
X22613333Y-36863855D02*
X22613333Y-36063855D01*
X23070476Y-36635283D02*
X23451429Y-36635283D01*
X22994286Y-36863855D02*
X23260953Y-36063855D01*
X23260953Y-36063855D02*
X23527619Y-36863855D01*
X23680000Y-36063855D02*
X24137143Y-36063855D01*
X23908571Y-36863855D02*
X23908571Y-36063855D01*
X24403810Y-36063855D02*
X24403810Y-36711474D01*
X24403810Y-36711474D02*
X24441905Y-36787664D01*
X24441905Y-36787664D02*
X24480000Y-36825760D01*
X24480000Y-36825760D02*
X24556191Y-36863855D01*
X24556191Y-36863855D02*
X24708572Y-36863855D01*
X24708572Y-36863855D02*
X24784762Y-36825760D01*
X24784762Y-36825760D02*
X24822857Y-36787664D01*
X24822857Y-36787664D02*
X24860953Y-36711474D01*
X24860953Y-36711474D02*
X24860953Y-36063855D01*
X25203809Y-36825760D02*
X25318095Y-36863855D01*
X25318095Y-36863855D02*
X25508571Y-36863855D01*
X25508571Y-36863855D02*
X25584762Y-36825760D01*
X25584762Y-36825760D02*
X25622857Y-36787664D01*
X25622857Y-36787664D02*
X25660952Y-36711474D01*
X25660952Y-36711474D02*
X25660952Y-36635283D01*
X25660952Y-36635283D02*
X25622857Y-36559093D01*
X25622857Y-36559093D02*
X25584762Y-36520998D01*
X25584762Y-36520998D02*
X25508571Y-36482902D01*
X25508571Y-36482902D02*
X25356190Y-36444807D01*
X25356190Y-36444807D02*
X25280000Y-36406712D01*
X25280000Y-36406712D02*
X25241905Y-36368617D01*
X25241905Y-36368617D02*
X25203809Y-36292426D01*
X25203809Y-36292426D02*
X25203809Y-36216236D01*
X25203809Y-36216236D02*
X25241905Y-36140045D01*
X25241905Y-36140045D02*
X25280000Y-36101950D01*
X25280000Y-36101950D02*
X25356190Y-36063855D01*
X25356190Y-36063855D02*
X25546667Y-36063855D01*
X25546667Y-36063855D02*
X25660952Y-36101950D01*
X28233333Y-43563855D02*
X28233333Y-42763855D01*
X28233333Y-42763855D02*
X28538095Y-42763855D01*
X28538095Y-42763855D02*
X28614285Y-42801950D01*
X28614285Y-42801950D02*
X28652380Y-42840045D01*
X28652380Y-42840045D02*
X28690476Y-42916236D01*
X28690476Y-42916236D02*
X28690476Y-43030521D01*
X28690476Y-43030521D02*
X28652380Y-43106712D01*
X28652380Y-43106712D02*
X28614285Y-43144807D01*
X28614285Y-43144807D02*
X28538095Y-43182902D01*
X28538095Y-43182902D02*
X28233333Y-43182902D01*
X28957142Y-42763855D02*
X29147618Y-43563855D01*
X29147618Y-43563855D02*
X29299999Y-42992426D01*
X29299999Y-42992426D02*
X29452380Y-43563855D01*
X29452380Y-43563855D02*
X29642857Y-42763855D01*
X30404762Y-43563855D02*
X30138095Y-43182902D01*
X29947619Y-43563855D02*
X29947619Y-42763855D01*
X29947619Y-42763855D02*
X30252381Y-42763855D01*
X30252381Y-42763855D02*
X30328571Y-42801950D01*
X30328571Y-42801950D02*
X30366666Y-42840045D01*
X30366666Y-42840045D02*
X30404762Y-42916236D01*
X30404762Y-42916236D02*
X30404762Y-43030521D01*
X30404762Y-43030521D02*
X30366666Y-43106712D01*
X30366666Y-43106712D02*
X30328571Y-43144807D01*
X30328571Y-43144807D02*
X30252381Y-43182902D01*
X30252381Y-43182902D02*
X29947619Y-43182902D01*
X41404761Y-50025760D02*
X41519047Y-50063855D01*
X41519047Y-50063855D02*
X41709523Y-50063855D01*
X41709523Y-50063855D02*
X41785714Y-50025760D01*
X41785714Y-50025760D02*
X41823809Y-49987664D01*
X41823809Y-49987664D02*
X41861904Y-49911474D01*
X41861904Y-49911474D02*
X41861904Y-49835283D01*
X41861904Y-49835283D02*
X41823809Y-49759093D01*
X41823809Y-49759093D02*
X41785714Y-49720998D01*
X41785714Y-49720998D02*
X41709523Y-49682902D01*
X41709523Y-49682902D02*
X41557142Y-49644807D01*
X41557142Y-49644807D02*
X41480952Y-49606712D01*
X41480952Y-49606712D02*
X41442857Y-49568617D01*
X41442857Y-49568617D02*
X41404761Y-49492426D01*
X41404761Y-49492426D02*
X41404761Y-49416236D01*
X41404761Y-49416236D02*
X41442857Y-49340045D01*
X41442857Y-49340045D02*
X41480952Y-49301950D01*
X41480952Y-49301950D02*
X41557142Y-49263855D01*
X41557142Y-49263855D02*
X41747619Y-49263855D01*
X41747619Y-49263855D02*
X41861904Y-49301950D01*
X42204762Y-49644807D02*
X42471428Y-49644807D01*
X42585714Y-50063855D02*
X42204762Y-50063855D01*
X42204762Y-50063855D02*
X42204762Y-49263855D01*
X42204762Y-49263855D02*
X42585714Y-49263855D01*
X43385715Y-50063855D02*
X43119048Y-49682902D01*
X42928572Y-50063855D02*
X42928572Y-49263855D01*
X42928572Y-49263855D02*
X43233334Y-49263855D01*
X43233334Y-49263855D02*
X43309524Y-49301950D01*
X43309524Y-49301950D02*
X43347619Y-49340045D01*
X43347619Y-49340045D02*
X43385715Y-49416236D01*
X43385715Y-49416236D02*
X43385715Y-49530521D01*
X43385715Y-49530521D02*
X43347619Y-49606712D01*
X43347619Y-49606712D02*
X43309524Y-49644807D01*
X43309524Y-49644807D02*
X43233334Y-49682902D01*
X43233334Y-49682902D02*
X42928572Y-49682902D01*
X43614286Y-49263855D02*
X43880953Y-50063855D01*
X43880953Y-50063855D02*
X44147619Y-49263855D01*
X44414286Y-50063855D02*
X44414286Y-49263855D01*
X45252381Y-49987664D02*
X45214285Y-50025760D01*
X45214285Y-50025760D02*
X45100000Y-50063855D01*
X45100000Y-50063855D02*
X45023809Y-50063855D01*
X45023809Y-50063855D02*
X44909523Y-50025760D01*
X44909523Y-50025760D02*
X44833333Y-49949569D01*
X44833333Y-49949569D02*
X44795238Y-49873379D01*
X44795238Y-49873379D02*
X44757142Y-49720998D01*
X44757142Y-49720998D02*
X44757142Y-49606712D01*
X44757142Y-49606712D02*
X44795238Y-49454331D01*
X44795238Y-49454331D02*
X44833333Y-49378140D01*
X44833333Y-49378140D02*
X44909523Y-49301950D01*
X44909523Y-49301950D02*
X45023809Y-49263855D01*
X45023809Y-49263855D02*
X45100000Y-49263855D01*
X45100000Y-49263855D02*
X45214285Y-49301950D01*
X45214285Y-49301950D02*
X45252381Y-49340045D01*
X45595238Y-49644807D02*
X45861904Y-49644807D01*
X45976190Y-50063855D02*
X45595238Y-50063855D01*
X45595238Y-50063855D02*
X45595238Y-49263855D01*
X45595238Y-49263855D02*
X45976190Y-49263855D01*
X47500000Y-49225760D02*
X46814286Y-50254331D01*
X48376191Y-50063855D02*
X48376191Y-49263855D01*
X48376191Y-49263855D02*
X48566667Y-49263855D01*
X48566667Y-49263855D02*
X48680953Y-49301950D01*
X48680953Y-49301950D02*
X48757143Y-49378140D01*
X48757143Y-49378140D02*
X48795238Y-49454331D01*
X48795238Y-49454331D02*
X48833334Y-49606712D01*
X48833334Y-49606712D02*
X48833334Y-49720998D01*
X48833334Y-49720998D02*
X48795238Y-49873379D01*
X48795238Y-49873379D02*
X48757143Y-49949569D01*
X48757143Y-49949569D02*
X48680953Y-50025760D01*
X48680953Y-50025760D02*
X48566667Y-50063855D01*
X48566667Y-50063855D02*
X48376191Y-50063855D01*
X49176191Y-49644807D02*
X49442857Y-49644807D01*
X49557143Y-50063855D02*
X49176191Y-50063855D01*
X49176191Y-50063855D02*
X49176191Y-49263855D01*
X49176191Y-49263855D02*
X49557143Y-49263855D01*
X50166667Y-49644807D02*
X50280953Y-49682902D01*
X50280953Y-49682902D02*
X50319048Y-49720998D01*
X50319048Y-49720998D02*
X50357144Y-49797188D01*
X50357144Y-49797188D02*
X50357144Y-49911474D01*
X50357144Y-49911474D02*
X50319048Y-49987664D01*
X50319048Y-49987664D02*
X50280953Y-50025760D01*
X50280953Y-50025760D02*
X50204763Y-50063855D01*
X50204763Y-50063855D02*
X49900001Y-50063855D01*
X49900001Y-50063855D02*
X49900001Y-49263855D01*
X49900001Y-49263855D02*
X50166667Y-49263855D01*
X50166667Y-49263855D02*
X50242858Y-49301950D01*
X50242858Y-49301950D02*
X50280953Y-49340045D01*
X50280953Y-49340045D02*
X50319048Y-49416236D01*
X50319048Y-49416236D02*
X50319048Y-49492426D01*
X50319048Y-49492426D02*
X50280953Y-49568617D01*
X50280953Y-49568617D02*
X50242858Y-49606712D01*
X50242858Y-49606712D02*
X50166667Y-49644807D01*
X50166667Y-49644807D02*
X49900001Y-49644807D01*
X50700001Y-49263855D02*
X50700001Y-49911474D01*
X50700001Y-49911474D02*
X50738096Y-49987664D01*
X50738096Y-49987664D02*
X50776191Y-50025760D01*
X50776191Y-50025760D02*
X50852382Y-50063855D01*
X50852382Y-50063855D02*
X51004763Y-50063855D01*
X51004763Y-50063855D02*
X51080953Y-50025760D01*
X51080953Y-50025760D02*
X51119048Y-49987664D01*
X51119048Y-49987664D02*
X51157144Y-49911474D01*
X51157144Y-49911474D02*
X51157144Y-49263855D01*
X51957143Y-49301950D02*
X51880953Y-49263855D01*
X51880953Y-49263855D02*
X51766667Y-49263855D01*
X51766667Y-49263855D02*
X51652381Y-49301950D01*
X51652381Y-49301950D02*
X51576191Y-49378140D01*
X51576191Y-49378140D02*
X51538096Y-49454331D01*
X51538096Y-49454331D02*
X51500000Y-49606712D01*
X51500000Y-49606712D02*
X51500000Y-49720998D01*
X51500000Y-49720998D02*
X51538096Y-49873379D01*
X51538096Y-49873379D02*
X51576191Y-49949569D01*
X51576191Y-49949569D02*
X51652381Y-50025760D01*
X51652381Y-50025760D02*
X51766667Y-50063855D01*
X51766667Y-50063855D02*
X51842858Y-50063855D01*
X51842858Y-50063855D02*
X51957143Y-50025760D01*
X51957143Y-50025760D02*
X51995239Y-49987664D01*
X51995239Y-49987664D02*
X51995239Y-49720998D01*
X51995239Y-49720998D02*
X51842858Y-49720998D01*
D11*
X2166666Y-45654819D02*
X2166666Y-46369104D01*
X2166666Y-46369104D02*
X2119047Y-46511961D01*
X2119047Y-46511961D02*
X2023809Y-46607200D01*
X2023809Y-46607200D02*
X1880952Y-46654819D01*
X1880952Y-46654819D02*
X1785714Y-46654819D01*
X3166666Y-46654819D02*
X2595238Y-46654819D01*
X2880952Y-46654819D02*
X2880952Y-45654819D01*
X2880952Y-45654819D02*
X2785714Y-45797676D01*
X2785714Y-45797676D02*
X2690476Y-45892914D01*
X2690476Y-45892914D02*
X2595238Y-45940533D01*
X19666666Y-43954819D02*
X19666666Y-44669104D01*
X19666666Y-44669104D02*
X19619047Y-44811961D01*
X19619047Y-44811961D02*
X19523809Y-44907200D01*
X19523809Y-44907200D02*
X19380952Y-44954819D01*
X19380952Y-44954819D02*
X19285714Y-44954819D01*
X20095238Y-44050057D02*
X20142857Y-44002438D01*
X20142857Y-44002438D02*
X20238095Y-43954819D01*
X20238095Y-43954819D02*
X20476190Y-43954819D01*
X20476190Y-43954819D02*
X20571428Y-44002438D01*
X20571428Y-44002438D02*
X20619047Y-44050057D01*
X20619047Y-44050057D02*
X20666666Y-44145295D01*
X20666666Y-44145295D02*
X20666666Y-44240533D01*
X20666666Y-44240533D02*
X20619047Y-44383390D01*
X20619047Y-44383390D02*
X20047619Y-44954819D01*
X20047619Y-44954819D02*
X20666666Y-44954819D01*
X52166666Y-16454819D02*
X52166666Y-17169104D01*
X52166666Y-17169104D02*
X52119047Y-17311961D01*
X52119047Y-17311961D02*
X52023809Y-17407200D01*
X52023809Y-17407200D02*
X51880952Y-17454819D01*
X51880952Y-17454819D02*
X51785714Y-17454819D01*
X52547619Y-16454819D02*
X53166666Y-16454819D01*
X53166666Y-16454819D02*
X52833333Y-16835771D01*
X52833333Y-16835771D02*
X52976190Y-16835771D01*
X52976190Y-16835771D02*
X53071428Y-16883390D01*
X53071428Y-16883390D02*
X53119047Y-16931009D01*
X53119047Y-16931009D02*
X53166666Y-17026247D01*
X53166666Y-17026247D02*
X53166666Y-17264342D01*
X53166666Y-17264342D02*
X53119047Y-17359580D01*
X53119047Y-17359580D02*
X53071428Y-17407200D01*
X53071428Y-17407200D02*
X52976190Y-17454819D01*
X52976190Y-17454819D02*
X52690476Y-17454819D01*
X52690476Y-17454819D02*
X52595238Y-17407200D01*
X52595238Y-17407200D02*
X52547619Y-17359580D01*
X36513333Y-33134580D02*
X36465714Y-33182200D01*
X36465714Y-33182200D02*
X36322857Y-33229819D01*
X36322857Y-33229819D02*
X36227619Y-33229819D01*
X36227619Y-33229819D02*
X36084762Y-33182200D01*
X36084762Y-33182200D02*
X35989524Y-33086961D01*
X35989524Y-33086961D02*
X35941905Y-32991723D01*
X35941905Y-32991723D02*
X35894286Y-32801247D01*
X35894286Y-32801247D02*
X35894286Y-32658390D01*
X35894286Y-32658390D02*
X35941905Y-32467914D01*
X35941905Y-32467914D02*
X35989524Y-32372676D01*
X35989524Y-32372676D02*
X36084762Y-32277438D01*
X36084762Y-32277438D02*
X36227619Y-32229819D01*
X36227619Y-32229819D02*
X36322857Y-32229819D01*
X36322857Y-32229819D02*
X36465714Y-32277438D01*
X36465714Y-32277438D02*
X36513333Y-32325057D01*
X37465714Y-33229819D02*
X36894286Y-33229819D01*
X37180000Y-33229819D02*
X37180000Y-32229819D01*
X37180000Y-32229819D02*
X37084762Y-32372676D01*
X37084762Y-32372676D02*
X36989524Y-32467914D01*
X36989524Y-32467914D02*
X36894286Y-32515533D01*
X49733333Y-52456819D02*
X49400000Y-51980628D01*
X49161905Y-52456819D02*
X49161905Y-51456819D01*
X49161905Y-51456819D02*
X49542857Y-51456819D01*
X49542857Y-51456819D02*
X49638095Y-51504438D01*
X49638095Y-51504438D02*
X49685714Y-51552057D01*
X49685714Y-51552057D02*
X49733333Y-51647295D01*
X49733333Y-51647295D02*
X49733333Y-51790152D01*
X49733333Y-51790152D02*
X49685714Y-51885390D01*
X49685714Y-51885390D02*
X49638095Y-51933009D01*
X49638095Y-51933009D02*
X49542857Y-51980628D01*
X49542857Y-51980628D02*
X49161905Y-51980628D01*
X50066667Y-51456819D02*
X50733333Y-52456819D01*
X50733333Y-51456819D02*
X50066667Y-52456819D01*
X42738095Y-51504438D02*
X42642857Y-51456819D01*
X42642857Y-51456819D02*
X42500000Y-51456819D01*
X42500000Y-51456819D02*
X42357143Y-51504438D01*
X42357143Y-51504438D02*
X42261905Y-51599676D01*
X42261905Y-51599676D02*
X42214286Y-51694914D01*
X42214286Y-51694914D02*
X42166667Y-51885390D01*
X42166667Y-51885390D02*
X42166667Y-52028247D01*
X42166667Y-52028247D02*
X42214286Y-52218723D01*
X42214286Y-52218723D02*
X42261905Y-52313961D01*
X42261905Y-52313961D02*
X42357143Y-52409200D01*
X42357143Y-52409200D02*
X42500000Y-52456819D01*
X42500000Y-52456819D02*
X42595238Y-52456819D01*
X42595238Y-52456819D02*
X42738095Y-52409200D01*
X42738095Y-52409200D02*
X42785714Y-52361580D01*
X42785714Y-52361580D02*
X42785714Y-52028247D01*
X42785714Y-52028247D02*
X42595238Y-52028247D01*
X43214286Y-52456819D02*
X43214286Y-51456819D01*
X43214286Y-51456819D02*
X43785714Y-52456819D01*
X43785714Y-52456819D02*
X43785714Y-51456819D01*
X44261905Y-52456819D02*
X44261905Y-51456819D01*
X44261905Y-51456819D02*
X44500000Y-51456819D01*
X44500000Y-51456819D02*
X44642857Y-51504438D01*
X44642857Y-51504438D02*
X44738095Y-51599676D01*
X44738095Y-51599676D02*
X44785714Y-51694914D01*
X44785714Y-51694914D02*
X44833333Y-51885390D01*
X44833333Y-51885390D02*
X44833333Y-52028247D01*
X44833333Y-52028247D02*
X44785714Y-52218723D01*
X44785714Y-52218723D02*
X44738095Y-52313961D01*
X44738095Y-52313961D02*
X44642857Y-52409200D01*
X44642857Y-52409200D02*
X44500000Y-52456819D01*
X44500000Y-52456819D02*
X44261905Y-52456819D01*
D12*
X46303571Y-41363168D02*
X46432143Y-41406025D01*
X46432143Y-41406025D02*
X46475000Y-41448882D01*
X46475000Y-41448882D02*
X46517857Y-41534597D01*
X46517857Y-41534597D02*
X46517857Y-41663168D01*
X46517857Y-41663168D02*
X46475000Y-41748882D01*
X46475000Y-41748882D02*
X46432143Y-41791740D01*
X46432143Y-41791740D02*
X46346428Y-41834597D01*
X46346428Y-41834597D02*
X46003571Y-41834597D01*
X46003571Y-41834597D02*
X46003571Y-40934597D01*
X46003571Y-40934597D02*
X46303571Y-40934597D01*
X46303571Y-40934597D02*
X46389286Y-40977454D01*
X46389286Y-40977454D02*
X46432143Y-41020311D01*
X46432143Y-41020311D02*
X46475000Y-41106025D01*
X46475000Y-41106025D02*
X46475000Y-41191740D01*
X46475000Y-41191740D02*
X46432143Y-41277454D01*
X46432143Y-41277454D02*
X46389286Y-41320311D01*
X46389286Y-41320311D02*
X46303571Y-41363168D01*
X46303571Y-41363168D02*
X46003571Y-41363168D01*
X47075000Y-40934597D02*
X47246428Y-40934597D01*
X47246428Y-40934597D02*
X47332143Y-40977454D01*
X47332143Y-40977454D02*
X47417857Y-41063168D01*
X47417857Y-41063168D02*
X47460714Y-41234597D01*
X47460714Y-41234597D02*
X47460714Y-41534597D01*
X47460714Y-41534597D02*
X47417857Y-41706025D01*
X47417857Y-41706025D02*
X47332143Y-41791740D01*
X47332143Y-41791740D02*
X47246428Y-41834597D01*
X47246428Y-41834597D02*
X47075000Y-41834597D01*
X47075000Y-41834597D02*
X46989286Y-41791740D01*
X46989286Y-41791740D02*
X46903571Y-41706025D01*
X46903571Y-41706025D02*
X46860714Y-41534597D01*
X46860714Y-41534597D02*
X46860714Y-41234597D01*
X46860714Y-41234597D02*
X46903571Y-41063168D01*
X46903571Y-41063168D02*
X46989286Y-40977454D01*
X46989286Y-40977454D02*
X47075000Y-40934597D01*
X48017857Y-40934597D02*
X48189285Y-40934597D01*
X48189285Y-40934597D02*
X48275000Y-40977454D01*
X48275000Y-40977454D02*
X48360714Y-41063168D01*
X48360714Y-41063168D02*
X48403571Y-41234597D01*
X48403571Y-41234597D02*
X48403571Y-41534597D01*
X48403571Y-41534597D02*
X48360714Y-41706025D01*
X48360714Y-41706025D02*
X48275000Y-41791740D01*
X48275000Y-41791740D02*
X48189285Y-41834597D01*
X48189285Y-41834597D02*
X48017857Y-41834597D01*
X48017857Y-41834597D02*
X47932143Y-41791740D01*
X47932143Y-41791740D02*
X47846428Y-41706025D01*
X47846428Y-41706025D02*
X47803571Y-41534597D01*
X47803571Y-41534597D02*
X47803571Y-41234597D01*
X47803571Y-41234597D02*
X47846428Y-41063168D01*
X47846428Y-41063168D02*
X47932143Y-40977454D01*
X47932143Y-40977454D02*
X48017857Y-40934597D01*
X48660714Y-40934597D02*
X49175000Y-40934597D01*
X48917857Y-41834597D02*
X48917857Y-40934597D01*
D11*
X40918095Y-16679819D02*
X40918095Y-17489342D01*
X40918095Y-17489342D02*
X40965714Y-17584580D01*
X40965714Y-17584580D02*
X41013333Y-17632200D01*
X41013333Y-17632200D02*
X41108571Y-17679819D01*
X41108571Y-17679819D02*
X41299047Y-17679819D01*
X41299047Y-17679819D02*
X41394285Y-17632200D01*
X41394285Y-17632200D02*
X41441904Y-17584580D01*
X41441904Y-17584580D02*
X41489523Y-17489342D01*
X41489523Y-17489342D02*
X41489523Y-16679819D01*
X41870476Y-16679819D02*
X42489523Y-16679819D01*
X42489523Y-16679819D02*
X42156190Y-17060771D01*
X42156190Y-17060771D02*
X42299047Y-17060771D01*
X42299047Y-17060771D02*
X42394285Y-17108390D01*
X42394285Y-17108390D02*
X42441904Y-17156009D01*
X42441904Y-17156009D02*
X42489523Y-17251247D01*
X42489523Y-17251247D02*
X42489523Y-17489342D01*
X42489523Y-17489342D02*
X42441904Y-17584580D01*
X42441904Y-17584580D02*
X42394285Y-17632200D01*
X42394285Y-17632200D02*
X42299047Y-17679819D01*
X42299047Y-17679819D02*
X42013333Y-17679819D01*
X42013333Y-17679819D02*
X41918095Y-17632200D01*
X41918095Y-17632200D02*
X41870476Y-17584580D01*
X29918095Y-26679819D02*
X29918095Y-27489342D01*
X29918095Y-27489342D02*
X29965714Y-27584580D01*
X29965714Y-27584580D02*
X30013333Y-27632200D01*
X30013333Y-27632200D02*
X30108571Y-27679819D01*
X30108571Y-27679819D02*
X30299047Y-27679819D01*
X30299047Y-27679819D02*
X30394285Y-27632200D01*
X30394285Y-27632200D02*
X30441904Y-27584580D01*
X30441904Y-27584580D02*
X30489523Y-27489342D01*
X30489523Y-27489342D02*
X30489523Y-26679819D01*
X30918095Y-26775057D02*
X30965714Y-26727438D01*
X30965714Y-26727438D02*
X31060952Y-26679819D01*
X31060952Y-26679819D02*
X31299047Y-26679819D01*
X31299047Y-26679819D02*
X31394285Y-26727438D01*
X31394285Y-26727438D02*
X31441904Y-26775057D01*
X31441904Y-26775057D02*
X31489523Y-26870295D01*
X31489523Y-26870295D02*
X31489523Y-26965533D01*
X31489523Y-26965533D02*
X31441904Y-27108390D01*
X31441904Y-27108390D02*
X30870476Y-27679819D01*
X30870476Y-27679819D02*
X31489523Y-27679819D01*
X25537142Y-40524819D02*
X25203809Y-40048628D01*
X24965714Y-40524819D02*
X24965714Y-39524819D01*
X24965714Y-39524819D02*
X25346666Y-39524819D01*
X25346666Y-39524819D02*
X25441904Y-39572438D01*
X25441904Y-39572438D02*
X25489523Y-39620057D01*
X25489523Y-39620057D02*
X25537142Y-39715295D01*
X25537142Y-39715295D02*
X25537142Y-39858152D01*
X25537142Y-39858152D02*
X25489523Y-39953390D01*
X25489523Y-39953390D02*
X25441904Y-40001009D01*
X25441904Y-40001009D02*
X25346666Y-40048628D01*
X25346666Y-40048628D02*
X24965714Y-40048628D01*
X25918095Y-39620057D02*
X25965714Y-39572438D01*
X25965714Y-39572438D02*
X26060952Y-39524819D01*
X26060952Y-39524819D02*
X26299047Y-39524819D01*
X26299047Y-39524819D02*
X26394285Y-39572438D01*
X26394285Y-39572438D02*
X26441904Y-39620057D01*
X26441904Y-39620057D02*
X26489523Y-39715295D01*
X26489523Y-39715295D02*
X26489523Y-39810533D01*
X26489523Y-39810533D02*
X26441904Y-39953390D01*
X26441904Y-39953390D02*
X25870476Y-40524819D01*
X25870476Y-40524819D02*
X26489523Y-40524819D01*
X26965714Y-40524819D02*
X27156190Y-40524819D01*
X27156190Y-40524819D02*
X27251428Y-40477200D01*
X27251428Y-40477200D02*
X27299047Y-40429580D01*
X27299047Y-40429580D02*
X27394285Y-40286723D01*
X27394285Y-40286723D02*
X27441904Y-40096247D01*
X27441904Y-40096247D02*
X27441904Y-39715295D01*
X27441904Y-39715295D02*
X27394285Y-39620057D01*
X27394285Y-39620057D02*
X27346666Y-39572438D01*
X27346666Y-39572438D02*
X27251428Y-39524819D01*
X27251428Y-39524819D02*
X27060952Y-39524819D01*
X27060952Y-39524819D02*
X26965714Y-39572438D01*
X26965714Y-39572438D02*
X26918095Y-39620057D01*
X26918095Y-39620057D02*
X26870476Y-39715295D01*
X26870476Y-39715295D02*
X26870476Y-39953390D01*
X26870476Y-39953390D02*
X26918095Y-40048628D01*
X26918095Y-40048628D02*
X26965714Y-40096247D01*
X26965714Y-40096247D02*
X27060952Y-40143866D01*
X27060952Y-40143866D02*
X27251428Y-40143866D01*
X27251428Y-40143866D02*
X27346666Y-40096247D01*
X27346666Y-40096247D02*
X27394285Y-40048628D01*
X27394285Y-40048628D02*
X27441904Y-39953390D01*
X40358333Y-37034580D02*
X40310714Y-37082200D01*
X40310714Y-37082200D02*
X40167857Y-37129819D01*
X40167857Y-37129819D02*
X40072619Y-37129819D01*
X40072619Y-37129819D02*
X39929762Y-37082200D01*
X39929762Y-37082200D02*
X39834524Y-36986961D01*
X39834524Y-36986961D02*
X39786905Y-36891723D01*
X39786905Y-36891723D02*
X39739286Y-36701247D01*
X39739286Y-36701247D02*
X39739286Y-36558390D01*
X39739286Y-36558390D02*
X39786905Y-36367914D01*
X39786905Y-36367914D02*
X39834524Y-36272676D01*
X39834524Y-36272676D02*
X39929762Y-36177438D01*
X39929762Y-36177438D02*
X40072619Y-36129819D01*
X40072619Y-36129819D02*
X40167857Y-36129819D01*
X40167857Y-36129819D02*
X40310714Y-36177438D01*
X40310714Y-36177438D02*
X40358333Y-36225057D01*
X40739286Y-36225057D02*
X40786905Y-36177438D01*
X40786905Y-36177438D02*
X40882143Y-36129819D01*
X40882143Y-36129819D02*
X41120238Y-36129819D01*
X41120238Y-36129819D02*
X41215476Y-36177438D01*
X41215476Y-36177438D02*
X41263095Y-36225057D01*
X41263095Y-36225057D02*
X41310714Y-36320295D01*
X41310714Y-36320295D02*
X41310714Y-36415533D01*
X41310714Y-36415533D02*
X41263095Y-36558390D01*
X41263095Y-36558390D02*
X40691667Y-37129819D01*
X40691667Y-37129819D02*
X41310714Y-37129819D01*
X45938095Y-51456819D02*
X46509523Y-51456819D01*
X46223809Y-52456819D02*
X46223809Y-51456819D01*
X46747619Y-51456819D02*
X47414285Y-52456819D01*
X47414285Y-51456819D02*
X46747619Y-52456819D01*
D10*
X53988855Y-11529761D02*
X54636474Y-11529761D01*
X54636474Y-11529761D02*
X54712664Y-11491666D01*
X54712664Y-11491666D02*
X54750760Y-11453571D01*
X54750760Y-11453571D02*
X54788855Y-11377380D01*
X54788855Y-11377380D02*
X54788855Y-11224999D01*
X54788855Y-11224999D02*
X54750760Y-11148809D01*
X54750760Y-11148809D02*
X54712664Y-11110714D01*
X54712664Y-11110714D02*
X54636474Y-11072618D01*
X54636474Y-11072618D02*
X53988855Y-11072618D01*
X54750760Y-10729762D02*
X54788855Y-10615476D01*
X54788855Y-10615476D02*
X54788855Y-10425000D01*
X54788855Y-10425000D02*
X54750760Y-10348809D01*
X54750760Y-10348809D02*
X54712664Y-10310714D01*
X54712664Y-10310714D02*
X54636474Y-10272619D01*
X54636474Y-10272619D02*
X54560283Y-10272619D01*
X54560283Y-10272619D02*
X54484093Y-10310714D01*
X54484093Y-10310714D02*
X54445998Y-10348809D01*
X54445998Y-10348809D02*
X54407902Y-10425000D01*
X54407902Y-10425000D02*
X54369807Y-10577381D01*
X54369807Y-10577381D02*
X54331712Y-10653571D01*
X54331712Y-10653571D02*
X54293617Y-10691666D01*
X54293617Y-10691666D02*
X54217426Y-10729762D01*
X54217426Y-10729762D02*
X54141236Y-10729762D01*
X54141236Y-10729762D02*
X54065045Y-10691666D01*
X54065045Y-10691666D02*
X54026950Y-10653571D01*
X54026950Y-10653571D02*
X53988855Y-10577381D01*
X53988855Y-10577381D02*
X53988855Y-10386904D01*
X53988855Y-10386904D02*
X54026950Y-10272619D01*
X54369807Y-9663095D02*
X54407902Y-9548809D01*
X54407902Y-9548809D02*
X54445998Y-9510714D01*
X54445998Y-9510714D02*
X54522188Y-9472618D01*
X54522188Y-9472618D02*
X54636474Y-9472618D01*
X54636474Y-9472618D02*
X54712664Y-9510714D01*
X54712664Y-9510714D02*
X54750760Y-9548809D01*
X54750760Y-9548809D02*
X54788855Y-9624999D01*
X54788855Y-9624999D02*
X54788855Y-9929761D01*
X54788855Y-9929761D02*
X53988855Y-9929761D01*
X53988855Y-9929761D02*
X53988855Y-9663095D01*
X53988855Y-9663095D02*
X54026950Y-9586904D01*
X54026950Y-9586904D02*
X54065045Y-9548809D01*
X54065045Y-9548809D02*
X54141236Y-9510714D01*
X54141236Y-9510714D02*
X54217426Y-9510714D01*
X54217426Y-9510714D02*
X54293617Y-9548809D01*
X54293617Y-9548809D02*
X54331712Y-9586904D01*
X54331712Y-9586904D02*
X54369807Y-9663095D01*
X54369807Y-9663095D02*
X54369807Y-9929761D01*
X54484093Y-9129761D02*
X54484093Y-8520238D01*
X54712664Y-7682142D02*
X54750760Y-7720238D01*
X54750760Y-7720238D02*
X54788855Y-7834523D01*
X54788855Y-7834523D02*
X54788855Y-7910714D01*
X54788855Y-7910714D02*
X54750760Y-8025000D01*
X54750760Y-8025000D02*
X54674569Y-8101190D01*
X54674569Y-8101190D02*
X54598379Y-8139285D01*
X54598379Y-8139285D02*
X54445998Y-8177381D01*
X54445998Y-8177381D02*
X54331712Y-8177381D01*
X54331712Y-8177381D02*
X54179331Y-8139285D01*
X54179331Y-8139285D02*
X54103140Y-8101190D01*
X54103140Y-8101190D02*
X54026950Y-8025000D01*
X54026950Y-8025000D02*
X53988855Y-7910714D01*
X53988855Y-7910714D02*
X53988855Y-7834523D01*
X53988855Y-7834523D02*
X54026950Y-7720238D01*
X54026950Y-7720238D02*
X54065045Y-7682142D01*
D11*
X11263095Y-32629819D02*
X11834523Y-32629819D01*
X11548809Y-33629819D02*
X11548809Y-32629819D01*
X12167857Y-33629819D02*
X12167857Y-32629819D01*
X12167857Y-32629819D02*
X12548809Y-32629819D01*
X12548809Y-32629819D02*
X12644047Y-32677438D01*
X12644047Y-32677438D02*
X12691666Y-32725057D01*
X12691666Y-32725057D02*
X12739285Y-32820295D01*
X12739285Y-32820295D02*
X12739285Y-32963152D01*
X12739285Y-32963152D02*
X12691666Y-33058390D01*
X12691666Y-33058390D02*
X12644047Y-33106009D01*
X12644047Y-33106009D02*
X12548809Y-33153628D01*
X12548809Y-33153628D02*
X12167857Y-33153628D01*
X13691666Y-33629819D02*
X13120238Y-33629819D01*
X13405952Y-33629819D02*
X13405952Y-32629819D01*
X13405952Y-32629819D02*
X13310714Y-32772676D01*
X13310714Y-32772676D02*
X13215476Y-32867914D01*
X13215476Y-32867914D02*
X13120238Y-32915533D01*
X41813095Y-24429819D02*
X41813095Y-25239342D01*
X41813095Y-25239342D02*
X41860714Y-25334580D01*
X41860714Y-25334580D02*
X41908333Y-25382200D01*
X41908333Y-25382200D02*
X42003571Y-25429819D01*
X42003571Y-25429819D02*
X42194047Y-25429819D01*
X42194047Y-25429819D02*
X42289285Y-25382200D01*
X42289285Y-25382200D02*
X42336904Y-25334580D01*
X42336904Y-25334580D02*
X42384523Y-25239342D01*
X42384523Y-25239342D02*
X42384523Y-24429819D01*
X43289285Y-24763152D02*
X43289285Y-25429819D01*
X43051190Y-24382200D02*
X42813095Y-25096485D01*
X42813095Y-25096485D02*
X43432142Y-25096485D01*
D13*
G36*
X22123297Y-45624073D02*
G01*
X22294572Y-45624073D01*
X22294572Y-46165718D01*
X22292071Y-46237074D01*
X22285479Y-46290366D01*
X22275992Y-46329156D01*
X22254785Y-46375788D01*
X22224841Y-46415496D01*
X22185423Y-46449153D01*
X22139569Y-46473293D01*
X22082771Y-46488769D01*
X22012383Y-46494359D01*
X21949740Y-46489387D01*
X21897766Y-46475455D01*
X21854503Y-46453455D01*
X21818479Y-46423461D01*
X21790168Y-46386291D01*
X21768922Y-46340503D01*
X21755141Y-46284284D01*
X21749969Y-46215336D01*
X21911954Y-46198727D01*
X21916373Y-46247869D01*
X21923945Y-46280987D01*
X21933441Y-46302271D01*
X21955242Y-46327786D01*
X21982851Y-46342888D01*
X22018196Y-46348204D01*
X22054966Y-46343995D01*
X22081123Y-46332734D01*
X22099474Y-46315195D01*
X22110920Y-46291191D01*
X22119677Y-46248376D01*
X22123297Y-46177967D01*
X22123297Y-45624073D01*
G37*
G36*
X22992182Y-46324952D02*
G01*
X22992182Y-46477751D01*
X22420278Y-46477751D01*
X22430533Y-46421883D01*
X22448997Y-46367922D01*
X22476020Y-46315350D01*
X22510862Y-46266266D01*
X22569431Y-46199887D01*
X22659493Y-46111792D01*
X22757950Y-46015913D01*
X22794748Y-45972800D01*
X22814033Y-45938050D01*
X22824925Y-45905077D01*
X22828432Y-45873201D01*
X22824814Y-45838064D01*
X22814848Y-45810772D01*
X22799108Y-45789535D01*
X22777868Y-45773700D01*
X22751367Y-45763809D01*
X22718090Y-45760263D01*
X22685327Y-45763928D01*
X22658692Y-45774262D01*
X22636812Y-45791040D01*
X22620767Y-45813562D01*
X22608768Y-45846443D01*
X22601986Y-45893131D01*
X22439430Y-45876886D01*
X22451776Y-45809568D01*
X22471582Y-45756457D01*
X22497895Y-45714904D01*
X22530569Y-45682929D01*
X22570163Y-45657761D01*
X22614692Y-45639444D01*
X22665013Y-45628050D01*
X22722190Y-45624073D01*
X22784978Y-45628796D01*
X22837819Y-45642094D01*
X22882444Y-45663143D01*
X22920194Y-45691804D01*
X22951871Y-45727967D01*
X22974094Y-45767538D01*
X22987554Y-45811263D01*
X22992182Y-45860225D01*
X22986996Y-45916331D01*
X22971577Y-45969322D01*
X22946034Y-46020510D01*
X22906233Y-46077797D01*
X22869750Y-46118562D01*
X22799419Y-46186063D01*
X22701585Y-46279798D01*
X22668212Y-46324952D01*
X22992182Y-46324952D01*
G37*
G36*
X23887848Y-45628245D02*
G01*
X23948884Y-45636893D01*
X23994691Y-45654537D01*
X24035272Y-45682052D01*
X24071424Y-45720454D01*
X24098074Y-45765714D01*
X24114816Y-45820321D01*
X24120782Y-45886591D01*
X24117322Y-45938366D01*
X24107608Y-45981965D01*
X24092340Y-46018733D01*
X24071153Y-46052585D01*
X24047082Y-46080408D01*
X24020041Y-46102865D01*
X23975034Y-46128613D01*
X23930874Y-46143297D01*
X23862424Y-46151985D01*
X23752592Y-46155545D01*
X23640537Y-46155545D01*
X23640537Y-46477751D01*
X23468691Y-46477751D01*
X23468691Y-46012712D01*
X23640537Y-46012712D01*
X23734583Y-46012712D01*
X23827818Y-46008382D01*
X23870461Y-45999114D01*
X23901205Y-45981539D01*
X23924179Y-45956606D01*
X23938659Y-45925688D01*
X23943642Y-45889238D01*
X23940431Y-45858755D01*
X23931278Y-45833096D01*
X23916342Y-45811230D01*
X23896565Y-45793330D01*
X23873741Y-45780602D01*
X23847261Y-45772823D01*
X23808792Y-45768799D01*
X23723579Y-45766906D01*
X23640537Y-45766906D01*
X23640537Y-46012712D01*
X23468691Y-46012712D01*
X23468691Y-45624073D01*
X23744496Y-45624073D01*
X23887848Y-45628245D01*
G37*
G36*
X24218202Y-46205371D02*
G01*
X24385429Y-46188762D01*
X24400010Y-46241532D01*
X24420626Y-46280900D01*
X24446673Y-46309641D01*
X24479496Y-46330357D01*
X24520311Y-46343479D01*
X24571236Y-46348204D01*
X24625665Y-46343728D01*
X24666318Y-46331731D01*
X24696371Y-46313586D01*
X24720422Y-46288279D01*
X24733982Y-46261617D01*
X24738463Y-46232619D01*
X24733944Y-46204830D01*
X24720765Y-46182015D01*
X24698627Y-46163806D01*
X24658898Y-46145684D01*
X24521307Y-46107900D01*
X24429890Y-46079842D01*
X24367615Y-46051196D01*
X24327351Y-46022729D01*
X24292532Y-45984680D01*
X24268386Y-45943765D01*
X24253916Y-45899267D01*
X24248979Y-45850104D01*
X24253049Y-45807502D01*
X24265211Y-45766889D01*
X24285829Y-45727565D01*
X24313585Y-45692991D01*
X24348663Y-45664093D01*
X24392124Y-45640630D01*
X24439313Y-45624627D01*
X24494675Y-45614417D01*
X24559610Y-45610786D01*
X24640884Y-45616005D01*
X24706389Y-45630361D01*
X24758956Y-45652403D01*
X24800901Y-45681424D01*
X24836370Y-45719367D01*
X24862158Y-45762690D01*
X24878795Y-45812382D01*
X24885968Y-45869879D01*
X24714070Y-45876522D01*
X24702992Y-45834526D01*
X24687028Y-45803969D01*
X24666735Y-45782321D01*
X24640913Y-45767350D01*
X24605590Y-45757366D01*
X24557898Y-45753619D01*
X24508748Y-45757519D01*
X24470401Y-45768156D01*
X24440600Y-45784501D01*
X24425295Y-45799356D01*
X24416367Y-45816711D01*
X24413300Y-45837440D01*
X24419521Y-45865226D01*
X24438835Y-45889290D01*
X24463294Y-45904318D01*
X24511886Y-45923291D01*
X24596772Y-45946745D01*
X24713354Y-45979793D01*
X24782268Y-46008560D01*
X24819801Y-46032541D01*
X24850940Y-46061310D01*
X24876314Y-46095184D01*
X24894669Y-46133223D01*
X24906218Y-46178001D01*
X24910310Y-46230958D01*
X24905819Y-46278623D01*
X24892403Y-46324112D01*
X24869671Y-46368186D01*
X24839073Y-46406927D01*
X24801087Y-46438482D01*
X24754709Y-46463270D01*
X24704194Y-46479786D01*
X24643095Y-46490499D01*
X24569472Y-46494359D01*
X24487998Y-46489011D01*
X24421121Y-46474172D01*
X24366319Y-46451156D01*
X24321538Y-46420555D01*
X24283830Y-46380968D01*
X24253961Y-46332946D01*
X24231872Y-46275057D01*
X24218202Y-46205371D01*
G37*
G36*
X25436280Y-46477751D02*
G01*
X25273102Y-46477751D01*
X25273102Y-45864585D01*
X25210248Y-45915774D01*
X25140274Y-45957320D01*
X25062329Y-45989460D01*
X25062329Y-45839984D01*
X25103475Y-45823151D01*
X25149475Y-45797250D01*
X25201114Y-45760574D01*
X25246835Y-45718289D01*
X25280651Y-45672958D01*
X25303879Y-45624073D01*
X25436280Y-45624073D01*
X25436280Y-46477751D01*
G37*
G36*
X26002786Y-46205371D02*
G01*
X26170013Y-46188762D01*
X26184595Y-46241532D01*
X26205211Y-46280900D01*
X26231257Y-46309641D01*
X26264081Y-46330357D01*
X26304896Y-46343479D01*
X26355821Y-46348204D01*
X26410249Y-46343728D01*
X26450903Y-46331731D01*
X26480956Y-46313586D01*
X26505007Y-46288279D01*
X26518566Y-46261617D01*
X26523048Y-46232619D01*
X26518529Y-46204830D01*
X26505350Y-46182015D01*
X26483212Y-46163806D01*
X26443483Y-46145684D01*
X26305892Y-46107900D01*
X26214475Y-46079842D01*
X26152200Y-46051196D01*
X26111936Y-46022729D01*
X26077117Y-45984680D01*
X26052971Y-45943765D01*
X26038501Y-45899267D01*
X26033564Y-45850104D01*
X26037634Y-45807502D01*
X26049796Y-45766889D01*
X26070414Y-45727565D01*
X26098170Y-45692991D01*
X26133248Y-45664093D01*
X26176709Y-45640630D01*
X26223898Y-45624627D01*
X26279260Y-45614417D01*
X26344195Y-45610786D01*
X26425469Y-45616005D01*
X26490974Y-45630361D01*
X26543541Y-45652403D01*
X26585486Y-45681424D01*
X26620955Y-45719367D01*
X26646743Y-45762690D01*
X26663380Y-45812382D01*
X26670552Y-45869879D01*
X26498654Y-45876522D01*
X26487577Y-45834526D01*
X26471613Y-45803969D01*
X26451320Y-45782321D01*
X26425497Y-45767350D01*
X26390175Y-45757366D01*
X26342482Y-45753619D01*
X26293333Y-45757519D01*
X26254985Y-45768156D01*
X26225185Y-45784501D01*
X26209880Y-45799356D01*
X26200952Y-45816711D01*
X26197885Y-45837440D01*
X26204106Y-45865226D01*
X26223420Y-45889290D01*
X26247879Y-45904318D01*
X26296470Y-45923291D01*
X26381357Y-45946745D01*
X26497939Y-45979793D01*
X26566853Y-46008560D01*
X26604385Y-46032541D01*
X26635525Y-46061310D01*
X26660899Y-46095184D01*
X26679253Y-46133223D01*
X26690803Y-46178001D01*
X26694894Y-46230958D01*
X26690404Y-46278623D01*
X26676988Y-46324112D01*
X26654255Y-46368186D01*
X26623658Y-46406927D01*
X26585672Y-46438482D01*
X26539293Y-46463270D01*
X26488779Y-46479786D01*
X26427680Y-46490499D01*
X26354057Y-46494359D01*
X26272583Y-46489011D01*
X26205705Y-46474172D01*
X26150904Y-46451156D01*
X26106123Y-46420555D01*
X26068415Y-46380968D01*
X26038546Y-46332946D01*
X26016457Y-46275057D01*
X26002786Y-46205371D01*
G37*
G36*
X26839388Y-46477751D02*
G01*
X26839388Y-45624073D01*
X27470564Y-45624073D01*
X27470564Y-45766906D01*
X27011235Y-45766906D01*
X27011235Y-45956243D01*
X27438592Y-45956243D01*
X27438592Y-46099076D01*
X27011235Y-46099076D01*
X27011235Y-46334917D01*
X27486809Y-46334917D01*
X27486809Y-46477751D01*
X26839388Y-46477751D01*
G37*
G36*
X28086780Y-45627327D02*
G01*
X28150628Y-45635635D01*
X28193034Y-45647117D01*
X28231348Y-45666350D01*
X28264150Y-45693400D01*
X28292062Y-45729122D01*
X28312521Y-45769794D01*
X28324953Y-45814410D01*
X28329224Y-45863910D01*
X28325460Y-45911433D01*
X28314650Y-45953153D01*
X28297161Y-45990067D01*
X28272859Y-46022937D01*
X28242949Y-46050116D01*
X28205826Y-46072510D01*
X28160216Y-46089989D01*
X28104490Y-46101983D01*
X28156498Y-46137003D01*
X28196512Y-46173451D01*
X28234442Y-46220855D01*
X28294398Y-46311665D01*
X28398305Y-46477751D01*
X28192775Y-46477751D01*
X28068522Y-46292254D01*
X28006461Y-46202762D01*
X27977954Y-46167275D01*
X27952164Y-46145087D01*
X27926260Y-46131930D01*
X27894937Y-46125196D01*
X27839740Y-46122328D01*
X27804914Y-46122328D01*
X27804914Y-46477751D01*
X27633016Y-46477751D01*
X27633016Y-45986138D01*
X27804914Y-45986138D01*
X27932073Y-45986138D01*
X28044452Y-45982563D01*
X28086532Y-45975551D01*
X28114092Y-45960997D01*
X28134697Y-45939012D01*
X28147531Y-45910726D01*
X28152136Y-45874187D01*
X28149372Y-45845917D01*
X28141613Y-45822799D01*
X28129195Y-45803756D01*
X28102299Y-45782266D01*
X28064474Y-45769865D01*
X27939028Y-45766906D01*
X27804914Y-45766906D01*
X27804914Y-45986138D01*
X27633016Y-45986138D01*
X27633016Y-45624073D01*
X27994770Y-45624073D01*
X28086780Y-45627327D01*
G37*
G36*
X28485863Y-46477751D02*
G01*
X28485863Y-45624073D01*
X28657761Y-45624073D01*
X28657761Y-46477751D01*
X28485863Y-46477751D01*
G37*
G36*
X29589239Y-46477751D02*
G01*
X29402238Y-46477751D01*
X29327915Y-46285092D01*
X28987700Y-46285092D01*
X28917425Y-46477751D01*
X28735095Y-46477751D01*
X28865392Y-46142259D01*
X29040535Y-46142259D01*
X29272795Y-46142259D01*
X29155498Y-45823375D01*
X29040535Y-46142259D01*
X28865392Y-46142259D01*
X29066642Y-45624073D01*
X29248401Y-45624073D01*
X29589239Y-46477751D01*
G37*
G36*
X29684894Y-46477751D02*
G01*
X29684894Y-45634038D01*
X29856792Y-45634038D01*
X29856792Y-46334917D01*
X30284150Y-46334917D01*
X30284150Y-46477751D01*
X29684894Y-46477751D01*
G37*
D11*
X12166666Y-36101009D02*
X11833333Y-36101009D01*
X11833333Y-36624819D02*
X11833333Y-35624819D01*
X11833333Y-35624819D02*
X12309523Y-35624819D01*
X13214285Y-36624819D02*
X12642857Y-36624819D01*
X12928571Y-36624819D02*
X12928571Y-35624819D01*
X12928571Y-35624819D02*
X12833333Y-35767676D01*
X12833333Y-35767676D02*
X12738095Y-35862914D01*
X12738095Y-35862914D02*
X12642857Y-35910533D01*
D12*
X4717857Y-32834597D02*
X4417857Y-32406025D01*
X4203571Y-32834597D02*
X4203571Y-31934597D01*
X4203571Y-31934597D02*
X4546428Y-31934597D01*
X4546428Y-31934597D02*
X4632143Y-31977454D01*
X4632143Y-31977454D02*
X4675000Y-32020311D01*
X4675000Y-32020311D02*
X4717857Y-32106025D01*
X4717857Y-32106025D02*
X4717857Y-32234597D01*
X4717857Y-32234597D02*
X4675000Y-32320311D01*
X4675000Y-32320311D02*
X4632143Y-32363168D01*
X4632143Y-32363168D02*
X4546428Y-32406025D01*
X4546428Y-32406025D02*
X4203571Y-32406025D01*
X5103571Y-32363168D02*
X5403571Y-32363168D01*
X5532143Y-32834597D02*
X5103571Y-32834597D01*
X5103571Y-32834597D02*
X5103571Y-31934597D01*
X5103571Y-31934597D02*
X5532143Y-31934597D01*
X5875000Y-32791740D02*
X6003572Y-32834597D01*
X6003572Y-32834597D02*
X6217857Y-32834597D01*
X6217857Y-32834597D02*
X6303572Y-32791740D01*
X6303572Y-32791740D02*
X6346429Y-32748882D01*
X6346429Y-32748882D02*
X6389286Y-32663168D01*
X6389286Y-32663168D02*
X6389286Y-32577454D01*
X6389286Y-32577454D02*
X6346429Y-32491740D01*
X6346429Y-32491740D02*
X6303572Y-32448882D01*
X6303572Y-32448882D02*
X6217857Y-32406025D01*
X6217857Y-32406025D02*
X6046429Y-32363168D01*
X6046429Y-32363168D02*
X5960714Y-32320311D01*
X5960714Y-32320311D02*
X5917857Y-32277454D01*
X5917857Y-32277454D02*
X5875000Y-32191740D01*
X5875000Y-32191740D02*
X5875000Y-32106025D01*
X5875000Y-32106025D02*
X5917857Y-32020311D01*
X5917857Y-32020311D02*
X5960714Y-31977454D01*
X5960714Y-31977454D02*
X6046429Y-31934597D01*
X6046429Y-31934597D02*
X6260714Y-31934597D01*
X6260714Y-31934597D02*
X6389286Y-31977454D01*
X6775000Y-32363168D02*
X7075000Y-32363168D01*
X7203572Y-32834597D02*
X6775000Y-32834597D01*
X6775000Y-32834597D02*
X6775000Y-31934597D01*
X6775000Y-31934597D02*
X7203572Y-31934597D01*
X7460715Y-31934597D02*
X7975001Y-31934597D01*
X7717858Y-32834597D02*
X7717858Y-31934597D01*
D11*
X29878095Y-11179819D02*
X29878095Y-11989342D01*
X29878095Y-11989342D02*
X29925714Y-12084580D01*
X29925714Y-12084580D02*
X29973333Y-12132200D01*
X29973333Y-12132200D02*
X30068571Y-12179819D01*
X30068571Y-12179819D02*
X30259047Y-12179819D01*
X30259047Y-12179819D02*
X30354285Y-12132200D01*
X30354285Y-12132200D02*
X30401904Y-12084580D01*
X30401904Y-12084580D02*
X30449523Y-11989342D01*
X30449523Y-11989342D02*
X30449523Y-11179819D01*
X31401904Y-11179819D02*
X30925714Y-11179819D01*
X30925714Y-11179819D02*
X30878095Y-11656009D01*
X30878095Y-11656009D02*
X30925714Y-11608390D01*
X30925714Y-11608390D02*
X31020952Y-11560771D01*
X31020952Y-11560771D02*
X31259047Y-11560771D01*
X31259047Y-11560771D02*
X31354285Y-11608390D01*
X31354285Y-11608390D02*
X31401904Y-11656009D01*
X31401904Y-11656009D02*
X31449523Y-11751247D01*
X31449523Y-11751247D02*
X31449523Y-11989342D01*
X31449523Y-11989342D02*
X31401904Y-12084580D01*
X31401904Y-12084580D02*
X31354285Y-12132200D01*
X31354285Y-12132200D02*
X31259047Y-12179819D01*
X31259047Y-12179819D02*
X31020952Y-12179819D01*
X31020952Y-12179819D02*
X30925714Y-12132200D01*
X30925714Y-12132200D02*
X30878095Y-12084580D01*
%TO.C,C1*%
D10*
X35968748Y-33715000D02*
X37391252Y-33715000D01*
X35968748Y-35535000D02*
X37391252Y-35535000D01*
%TO.C,R31*%
X37762742Y-41977500D02*
X38237258Y-41977500D01*
X37762742Y-43022500D02*
X38237258Y-43022500D01*
%TO.C,R23*%
X36371359Y-11145000D02*
X36678641Y-11145000D01*
X36371359Y-11905000D02*
X36678641Y-11905000D01*
%TO.C,R2*%
X5287742Y-25502500D02*
X5762258Y-25502500D01*
X5287742Y-26547500D02*
X5762258Y-26547500D01*
%TO.C,TP4*%
X51100000Y-54000000D02*
G75*
G02*
X48700000Y-54000000I-1200000J0D01*
G01*
X48700000Y-54000000D02*
G75*
G02*
X51100000Y-54000000I1200000J0D01*
G01*
%TO.C,C9*%
X44418748Y-35890000D02*
X44941252Y-35890000D01*
X44418748Y-37360000D02*
X44941252Y-37360000D01*
%TO.C,R1*%
X2287742Y-24002500D02*
X2762258Y-24002500D01*
X2287742Y-25047500D02*
X2762258Y-25047500D01*
%TO.C,R22*%
X36371359Y-9145000D02*
X36678641Y-9145000D01*
X36371359Y-9905000D02*
X36678641Y-9905000D01*
%TO.C,R30*%
X33962742Y-41977500D02*
X34437258Y-41977500D01*
X33962742Y-43022500D02*
X34437258Y-43022500D01*
%TO.C,TP2*%
X44700000Y-54000000D02*
G75*
G02*
X42300000Y-54000000I-1200000J0D01*
G01*
X42300000Y-54000000D02*
G75*
G02*
X44700000Y-54000000I1200000J0D01*
G01*
%TO.C,D6*%
X30785000Y-42235000D02*
X30785000Y-40765000D01*
X30785000Y-40765000D02*
X28500000Y-40765000D01*
X28500000Y-42235000D02*
X30785000Y-42235000D01*
%TO.C,R5*%
X4262742Y-43977500D02*
X4737258Y-43977500D01*
X4262742Y-45022500D02*
X4737258Y-45022500D01*
%TO.C,U1*%
X2105000Y-18825000D02*
X2105000Y-19605000D01*
X2105000Y-19605000D02*
X3105000Y-19605000D01*
X20345000Y-18825000D02*
X20345000Y-19605000D01*
X20345000Y-19605000D02*
X19345000Y-19605000D01*
X2100000Y-750000D02*
X1600000Y-750000D01*
X2100000Y-250000D01*
X2100000Y-750000D01*
G36*
X2100000Y-750000D02*
G01*
X1600000Y-750000D01*
X2100000Y-250000D01*
X2100000Y-750000D01*
G37*
%TO.C,C7*%
X29539420Y-5115000D02*
X29820580Y-5115000D01*
X29539420Y-6135000D02*
X29820580Y-6135000D01*
%TO.C,R18*%
X24287742Y-24502500D02*
X24762258Y-24502500D01*
X24287742Y-25547500D02*
X24762258Y-25547500D01*
%TO.C,R10*%
X17442742Y-41002500D02*
X17917258Y-41002500D01*
X17442742Y-42047500D02*
X17917258Y-42047500D01*
%TO.C,R20*%
X45287742Y-31002500D02*
X45762258Y-31002500D01*
X45287742Y-32047500D02*
X45762258Y-32047500D01*
%TO.C,U6*%
X34435000Y-12185000D02*
X32615000Y-12185000D01*
X34435000Y-12135000D02*
X34435000Y-12185000D01*
X34435000Y-9065000D02*
X34435000Y-9115000D01*
X32615000Y-12185000D02*
X32615000Y-12135000D01*
X32615000Y-9115000D02*
X32615000Y-9065000D01*
X32615000Y-9065000D02*
X34435000Y-9065000D01*
X34975000Y-12135000D02*
X35215000Y-12465000D01*
X34735000Y-12465000D01*
X34975000Y-12135000D01*
G36*
X35215000Y-12465000D02*
G01*
X34735000Y-12465000D01*
X34975000Y-12135000D01*
X35215000Y-12465000D01*
G37*
%TO.C,R17*%
X19787742Y-22002500D02*
X20262258Y-22002500D01*
X19787742Y-23047500D02*
X20262258Y-23047500D01*
%TO.C,R6*%
X2762742Y-40977500D02*
X3237258Y-40977500D01*
X2762742Y-42022500D02*
X3237258Y-42022500D01*
%TO.C,R24*%
X37371359Y-13145000D02*
X37678641Y-13145000D01*
X37371359Y-13905000D02*
X37678641Y-13905000D01*
%TO.C,C13*%
X24884420Y-27015000D02*
X25165580Y-27015000D01*
X24884420Y-28035000D02*
X25165580Y-28035000D01*
%TO.C,R11*%
X18442742Y-23502500D02*
X18917258Y-23502500D01*
X18442742Y-24547500D02*
X18917258Y-24547500D01*
%TO.C,C8*%
X26539420Y-7115000D02*
X26820580Y-7115000D01*
X26539420Y-8135000D02*
X26820580Y-8135000D01*
%TO.C,U3*%
X40770000Y-18065000D02*
X42590000Y-18065000D01*
X40770000Y-18115000D02*
X40770000Y-18065000D01*
X40770000Y-21185000D02*
X40770000Y-21135000D01*
X42590000Y-18065000D02*
X42590000Y-18115000D01*
X42590000Y-19235000D02*
X42590000Y-20015000D01*
X42590000Y-21135000D02*
X42590000Y-21185000D01*
X42590000Y-21185000D02*
X40770000Y-21185000D01*
X40230000Y-18115000D02*
X39990000Y-17785000D01*
X40470000Y-17785000D01*
X40230000Y-18115000D01*
G36*
X40230000Y-18115000D02*
G01*
X39990000Y-17785000D01*
X40470000Y-17785000D01*
X40230000Y-18115000D01*
G37*
%TO.C,C3*%
X20418748Y-30790000D02*
X20941252Y-30790000D01*
X20418748Y-32260000D02*
X20941252Y-32260000D01*
%TO.C,U2*%
X29770000Y-28065000D02*
X31590000Y-28065000D01*
X29770000Y-28115000D02*
X29770000Y-28065000D01*
X29770000Y-31185000D02*
X29770000Y-31135000D01*
X31590000Y-28065000D02*
X31590000Y-28115000D01*
X31590000Y-31135000D02*
X31590000Y-31185000D01*
X31590000Y-31185000D02*
X29770000Y-31185000D01*
X29230000Y-28115000D02*
X28990000Y-27785000D01*
X29470000Y-27785000D01*
X29230000Y-28115000D01*
G36*
X29230000Y-28115000D02*
G01*
X28990000Y-27785000D01*
X29470000Y-27785000D01*
X29230000Y-28115000D01*
G37*
%TO.C,R14*%
X40371359Y-11145000D02*
X40678641Y-11145000D01*
X40371359Y-11905000D02*
X40678641Y-11905000D01*
%TO.C,C5*%
X25539420Y-4115000D02*
X25820580Y-4115000D01*
X25539420Y-5135000D02*
X25820580Y-5135000D01*
%TO.C,Q2*%
X16240000Y-42990000D02*
X16240000Y-42940000D01*
X16240000Y-44890000D02*
X16240000Y-44110000D01*
X16240000Y-46060000D02*
X16240000Y-46010000D01*
X17760000Y-42940000D02*
X17760000Y-43940000D01*
X17760000Y-45060000D02*
X17760000Y-46060000D01*
X17760000Y-46060000D02*
X16240000Y-46060000D01*
X15700000Y-44120000D02*
X15940000Y-44450000D01*
X15460000Y-44450000D01*
X15700000Y-44120000D01*
G36*
X15940000Y-44450000D02*
G01*
X15460000Y-44450000D01*
X15700000Y-44120000D01*
X15940000Y-44450000D01*
G37*
%TO.C,Q1*%
X7740000Y-42990000D02*
X7740000Y-42940000D01*
X7740000Y-44890000D02*
X7740000Y-44110000D01*
X7740000Y-46060000D02*
X7740000Y-46010000D01*
X9260000Y-42940000D02*
X9260000Y-43940000D01*
X9260000Y-45060000D02*
X9260000Y-46060000D01*
X9260000Y-46060000D02*
X7740000Y-46060000D01*
X7200000Y-44120000D02*
X7440000Y-44450000D01*
X6960000Y-44450000D01*
X7200000Y-44120000D01*
G36*
X7440000Y-44450000D02*
G01*
X6960000Y-44450000D01*
X7200000Y-44120000D01*
X7440000Y-44450000D01*
G37*
%TO.C,C11*%
X28384420Y-25015000D02*
X28665580Y-25015000D01*
X28384420Y-26035000D02*
X28665580Y-26035000D01*
%TO.C,R25*%
X46371359Y-17145000D02*
X46678641Y-17145000D01*
X46371359Y-17905000D02*
X46678641Y-17905000D01*
%TO.C,R19*%
X23287742Y-22002500D02*
X23762258Y-22002500D01*
X23287742Y-23047500D02*
X23762258Y-23047500D01*
%TO.C,R4*%
X2287742Y-22002500D02*
X2762258Y-22002500D01*
X2287742Y-23047500D02*
X2762258Y-23047500D01*
%TO.C,R9*%
X14442742Y-41002500D02*
X14917258Y-41002500D01*
X14442742Y-42047500D02*
X14917258Y-42047500D01*
%TO.C,R29*%
X25942742Y-40977500D02*
X26417258Y-40977500D01*
X25942742Y-42022500D02*
X26417258Y-42022500D01*
%TO.C,D2*%
X27170000Y-32975000D02*
X27170000Y-36275000D01*
X27170000Y-32975000D02*
X32680000Y-32975000D01*
X27170000Y-36275000D02*
X32680000Y-36275000D01*
%TO.C,R13*%
X26442742Y-38102500D02*
X26917258Y-38102500D01*
X26442742Y-39147500D02*
X26917258Y-39147500D01*
%TO.C,R28*%
X46371359Y-23145000D02*
X46678641Y-23145000D01*
X46371359Y-23905000D02*
X46678641Y-23905000D01*
%TO.C,R16*%
X23287742Y-20002500D02*
X23762258Y-20002500D01*
X23287742Y-21047500D02*
X23762258Y-21047500D01*
%TO.C,L1*%
X33415000Y-23915000D02*
X37635000Y-23915000D01*
X37635000Y-28135000D02*
X33415000Y-28135000D01*
%TO.C,R3*%
X14787742Y-32502500D02*
X15262258Y-32502500D01*
X14787742Y-33547500D02*
X15262258Y-33547500D01*
%TO.C,Q4*%
X22265000Y-10015000D02*
X22265000Y-9965000D01*
X22265000Y-11915000D02*
X22265000Y-11135000D01*
X22265000Y-13085000D02*
X22265000Y-13035000D01*
X23785000Y-9965000D02*
X23785000Y-10965000D01*
X23785000Y-12085000D02*
X23785000Y-13085000D01*
X23785000Y-13085000D02*
X22265000Y-13085000D01*
X21725000Y-11145000D02*
X21965000Y-11475000D01*
X21485000Y-11475000D01*
X21725000Y-11145000D01*
G36*
X21965000Y-11475000D02*
G01*
X21485000Y-11475000D01*
X21725000Y-11145000D01*
X21965000Y-11475000D01*
G37*
%TO.C,C12*%
X16384420Y-35015000D02*
X16665580Y-35015000D01*
X16384420Y-36035000D02*
X16665580Y-36035000D01*
%TO.C,C2*%
X39813748Y-37615000D02*
X41236252Y-37615000D01*
X39813748Y-39435000D02*
X41236252Y-39435000D01*
%TO.C,TP3*%
X47900000Y-54000000D02*
G75*
G02*
X45500000Y-54000000I-1200000J0D01*
G01*
X45500000Y-54000000D02*
G75*
G02*
X47900000Y-54000000I1200000J0D01*
G01*
%TO.C,D1*%
X22195000Y-37890000D02*
X22195000Y-39360000D01*
X22195000Y-39360000D02*
X24480000Y-39360000D01*
X24480000Y-37890000D02*
X22195000Y-37890000D01*
%TO.C,C6*%
X46763748Y-20890000D02*
X47286252Y-20890000D01*
X46763748Y-22360000D02*
X47286252Y-22360000D01*
%TO.C,R26*%
X44855000Y-15981359D02*
X44855000Y-16288641D01*
X44095000Y-15981359D02*
X44095000Y-16288641D01*
%TO.C,R21*%
X36371359Y-7145000D02*
X36678641Y-7145000D01*
X36371359Y-7905000D02*
X36678641Y-7905000D01*
%TO.C,TP1*%
X13475000Y-31525000D02*
G75*
G02*
X11575000Y-31525000I-950000J0D01*
G01*
X11575000Y-31525000D02*
G75*
G02*
X13475000Y-31525000I950000J0D01*
G01*
%TO.C,U4*%
D11*
X40950000Y-25900000D02*
X40950000Y-26075000D01*
X40950000Y-25900000D02*
X44200000Y-25900000D01*
X40950000Y-28975000D02*
X40950000Y-29150000D01*
X40950000Y-29150000D02*
X44200000Y-29150000D01*
X44200000Y-25900000D02*
X44200000Y-26075000D01*
X44200000Y-28975000D02*
X44200000Y-29150000D01*
D10*
X40475000Y-26075000D02*
X40235000Y-25745000D01*
X40715000Y-25745000D01*
X40475000Y-26075000D01*
G36*
X40475000Y-26075000D02*
G01*
X40235000Y-25745000D01*
X40715000Y-25745000D01*
X40475000Y-26075000D01*
G37*
%TO.C,R7*%
X7442742Y-41002500D02*
X7917258Y-41002500D01*
X7442742Y-42047500D02*
X7917258Y-42047500D01*
%TO.C,C4*%
X23884420Y-31015000D02*
X24165580Y-31015000D01*
X23884420Y-32035000D02*
X24165580Y-32035000D01*
%TO.C,F1*%
X11897936Y-37090000D02*
X13102064Y-37090000D01*
X11897936Y-38910000D02*
X13102064Y-38910000D01*
%TO.C,D5*%
X1390000Y-37650000D02*
X1390000Y-39350000D01*
X1390000Y-37650000D02*
X4050000Y-37650000D01*
X1390000Y-39350000D02*
X4050000Y-39350000D01*
%TO.C,R12*%
X20442742Y-25002500D02*
X20917258Y-25002500D01*
X20442742Y-26047500D02*
X20917258Y-26047500D01*
%TO.C,R15*%
X33871359Y-6495000D02*
X34178641Y-6495000D01*
X33871359Y-7255000D02*
X34178641Y-7255000D01*
%TO.C,Q3*%
X23765000Y-14015000D02*
X23765000Y-13965000D01*
X23765000Y-15915000D02*
X23765000Y-15135000D01*
X23765000Y-17085000D02*
X23765000Y-17035000D01*
X25285000Y-13965000D02*
X25285000Y-14965000D01*
X25285000Y-16085000D02*
X25285000Y-17085000D01*
X25285000Y-17085000D02*
X23765000Y-17085000D01*
X23225000Y-15145000D02*
X23465000Y-15475000D01*
X22985000Y-15475000D01*
X23225000Y-15145000D01*
G36*
X23465000Y-15475000D02*
G01*
X22985000Y-15475000D01*
X23225000Y-15145000D01*
X23465000Y-15475000D01*
G37*
%TO.C,D3*%
X3070000Y-27175000D02*
X3070000Y-28875000D01*
X3070000Y-27175000D02*
X5730000Y-27175000D01*
X3070000Y-28875000D02*
X5730000Y-28875000D01*
%TO.C,D4*%
X8070000Y-27175000D02*
X8070000Y-28875000D01*
X8070000Y-27175000D02*
X10730000Y-27175000D01*
X8070000Y-28875000D02*
X10730000Y-28875000D01*
%TO.C,R27*%
X37171359Y-3245000D02*
X37478641Y-3245000D01*
X37171359Y-4005000D02*
X37478641Y-4005000D01*
%TO.C,U5*%
X28580000Y-12565000D02*
X32700000Y-12565000D01*
X28580000Y-12620000D02*
X28580000Y-12565000D01*
X28580000Y-22685000D02*
X28580000Y-22630000D01*
X32700000Y-12565000D02*
X32700000Y-12620000D01*
X32700000Y-22630000D02*
X32700000Y-22685000D01*
X32700000Y-22685000D02*
X28580000Y-22685000D01*
%TO.C,R8*%
X10442742Y-41002500D02*
X10917258Y-41002500D01*
X10442742Y-42047500D02*
X10917258Y-42047500D01*
%TO.C,C10*%
X38384420Y-22015000D02*
X38665580Y-22015000D01*
X38384420Y-23035000D02*
X38665580Y-23035000D01*
%TD*%
M02*
