M48
; DRILL file KiCad 10.99.0-3619-g0ef48b972f date 2026-09-25T14:41:27
; FORMAT={-:-/ absolute / metric / decimal}
; #@! TF.CreationDate,2026-09-25T14:41:27+07:00
; #@! TF.GenerationSoftware,Kicad,Pcbnew,10.99.0-3619-g0ef48b972f
; #@! TF.FileFunction,MixedPlating,1,4
FMAT,2
METRIC
; #@! TA.AperFunction,Plated,PTH,ViaDrill
T1C0.300
; #@! TA.AperFunction,Plated,PTH,ComponentDrill
T2C0.300
; #@! TA.AperFunction,Plated,PTH,ComponentDrill
T3C0.600
; #@! TA.AperFunction,Plated,PTH,ComponentDrill
T4C0.700
; #@! TA.AperFunction,Plated,PTH,ComponentDrill
T5C1.000
; #@! TA.AperFunction,NonPlated,NPTH,ComponentDrill
T6C0.650
%
G90
G05
T1
X1.2Y-1.2
X1.275Y-11.425
X1.3Y-2.745
X1.95Y-29.8
X1.95Y-35.8
X1.951Y-21.316
X2.775Y-37.225
X3.184Y-30.211
X3.375Y-38.725
X3.425Y-26.525
X3.575Y-25.725
X3.63Y-27.425
X4.3Y-9.952
X4.475Y-36.801
X5.525Y-26.825
X5.525Y-28.925
X6.35Y-29.625
X7.025Y-28.925
X7.115Y-16.157
X7.253Y-4.156
X7.55Y-31.725
X8.13Y-27.425
X8.842Y-28.675
X8.912Y-30.826
X10.025Y-46.025
X10.307Y-32.692
X10.347Y-39.635
X10.502Y-13.541
X10.625Y-44.825
X10.625Y-46.025
X11.225Y-40.525
X11.234Y-48.596
X11.505Y-45.45
X12.231Y-13.621
X12.981Y-46.762
X13.346Y-16.424
X13.5Y-31.525
X13.754Y-8.843
X13.945Y-33.888
X14.866Y-9.033
X14.88Y-36.425
X15.27Y-40.334
X15.925Y-36.739
X16.104Y-10.508
X16.214Y-15.108
X16.95Y-24.95
X17.293Y-10.776
X17.758Y-8.001
X18.031Y-22.606
X18.049Y-13.352
X18.295Y-14.933
X18.309Y-19.644
X18.541Y-25.254
X18.748Y-35.39
X18.85Y-31.525
X19.23Y-32.725
X19.68Y-35.525
X19.68Y-36.125
X19.855Y-26.45
X19.977Y-33.193
X20.581Y-30.183
X20.85Y-23.425
X21.0Y-14.175
X21.0Y-15.445
X21.013Y-26.725
X21.556Y-9.444
X21.839Y-28.096
X22.025Y-14.288
X22.453Y-17.806
X22.585Y-5.05
X23.065Y-27.018
X23.242Y-28.075
X23.242Y-28.675
X23.25Y-33.5
X23.51Y-17.413
X24.193Y-19.325
X24.387Y-9.342
X24.403Y-37.291
X24.505Y-5.625
X24.634Y-28.805
X24.905Y-3.825
X25.355Y-41.5
X25.373Y-14.685
X25.442Y-30.8
X25.459Y-22.123
X25.489Y-13.576
X25.558Y-21.012
X25.73Y-17.503
X25.855Y-37.65
X25.855Y-38.625
X25.926Y-36.245
X26.387Y-16.475
X26.513Y-12.12
X26.551Y-13.235
X26.88Y-35.525
X27.334Y-37.537
X27.669Y-23.17
X27.75Y-26.65
X28.05Y-24.025
X28.089Y-12.02
X28.105Y-5.625
X28.505Y-6.425
X28.505Y-8.425
X28.642Y-28.075
X28.696Y-11.085
X29.305Y-8.425
X29.81Y-11.186
X29.898Y-12.194
X29.931Y-15.215
X29.965Y-13.18
X30.226Y-17.337
X30.405Y-34.625
X30.442Y-28.075
X30.787Y-9.675
X30.842Y-30.8
X31.078Y-23.709
X31.188Y-13.425
X31.198Y-8.345
X31.355Y-6.225
X31.387Y-10.425
X31.396Y-15.147
X31.403Y-16.261
X31.587Y-17.575
X31.765Y-14.08
X31.987Y-8.025
X32.043Y-3.013
X32.387Y-12.375
X33.02Y-28.923
X33.113Y-5.483
X33.375Y-41.5
X33.635Y-9.525
X33.755Y-5.925
X34.387Y-8.025
X34.767Y-4.203
X34.788Y-5.225
X34.93Y-38.019
X35.105Y-29.463
X35.242Y-28.075
X35.435Y-12.325
X35.62Y-14.575
X35.712Y-10.325
X36.105Y-34.625
X36.387Y-5.225
X37.175Y-43.5
X37.188Y-14.625
X37.2Y-45.5
X37.635Y-9.525
X38.417Y-19.475
X38.635Y-10.725
X38.635Y-13.525
X38.825Y-41.5
X39.475Y-27.85
X40.13Y-37.825
X40.371Y-10.625
X40.962Y-10.025
X41.411Y-44.031
X41.606Y-4.671
X41.625Y-27.8
X41.9Y-30.725
X42.498Y-21.782
X42.775Y-27.25
X42.817Y-19.475
X43.43Y-37.825
X43.445Y-14.908
X43.504Y-12.787
X43.813Y-4.671
X44.45Y-8.671
X44.475Y-21.225
X44.7Y-30.725
X45.215Y-20.325
X45.55Y-27.2
X46.015Y-20.325
X46.817Y-20.275
X46.875Y-20.825
X46.875Y-22.425
X46.875Y-26.025
X47.075Y-28.225
X47.633Y-35.49
X47.975Y-22.825
X49.365Y-19.376
X52.366Y-22.355
T2
X9.02Y-8.053
X9.02Y-9.577
X9.782Y-7.29
X9.782Y-8.815
X9.782Y-10.34
X10.545Y-8.053
X10.545Y-9.577
X11.307Y-7.29
X11.307Y-8.815
X11.307Y-10.34
X12.07Y-8.053
X12.07Y-9.577
T4
X4.025Y-49.025
X4.525Y-50.525
X6.025Y-49.025
X7.025Y-50.525
X8.025Y-49.025
X9.025Y-50.525
X10.025Y-49.025
X11.525Y-50.525
X12.025Y-49.025
X22.025Y-49.025
X22.525Y-50.525
X24.025Y-49.025
X25.025Y-50.525
X26.025Y-49.025
X27.025Y-50.525
X28.025Y-49.025
X29.525Y-50.525
X30.025Y-49.025
T5
X43.5Y-54.0
X46.7Y-54.0
X49.9Y-54.0
T6
X48.425Y-6.735
X48.425Y-12.515
T3
X1.625Y-49.225G85X1.625Y-50.325
G05
X1.625Y-57.875G85X1.625Y-58.675
G05
X14.425Y-49.225G85X14.425Y-50.325
G05
X14.425Y-57.875G85X14.425Y-58.675
G05
X19.625Y-49.225G85X19.625Y-50.325
G05
X19.625Y-57.875G85X19.625Y-58.675
G05
X32.425Y-49.225G85X32.425Y-50.325
G05
X32.425Y-57.875G85X32.425Y-58.675
G05
X47.345Y-5.305G85X48.445Y-5.305
G05
X47.345Y-13.945G85X48.445Y-13.945
G05
X51.775Y-5.305G85X52.375Y-5.305
G05
X51.775Y-13.945G85X52.375Y-13.945
G05
M30
