%TF.GenerationSoftware,KiCad,Pcbnew,10.99.0-3619-g0ef48b972f*%
%TF.CreationDate,2026-09-25T15:31:27+07:00*%
%TF.ProjectId,board,626f6172-642e-46b6-9963-61645f706362,rev?*%
%TF.SameCoordinates,Original*%
%TF.FileFunction,Soldermask,Bot*%
%TF.FilePolarity,Negative*%
%FSLAX46Y46*%
G04 Gerber Fmt 4.6, Leading zero omitted, Abs format (unit mm)*
G04 Created by KiCad (PCBNEW 10.99.0-3619-g0ef48b972f) date 2026-09-25 15:31:27*
%MOMM*%
%LPD*%
G01*
G04 APERTURE LIST*
%ADD10C,1.200000*%
%ADD11O,1.400000X3.000000*%
%ADD12C,2.000000*%
%ADD13C,0.650000*%
%ADD14O,2.100000X1.000000*%
%ADD15O,1.600000X1.000000*%
%ADD16C,0.350000*%
%ADD17O,0.600000X2.300000*%
%ADD18O,1.700000X0.600000*%
%ADD19O,1.200000X0.600000*%
G04 APERTURE END LIST*
D10*
%TO.C,J1*%
X4525000Y-50525000D03*
X7025000Y-50525000D03*
X9025000Y-50525000D03*
X11525000Y-50525000D03*
X12025000Y-49025000D03*
X10025000Y-49025000D03*
X8025000Y-49025000D03*
X6025000Y-49025000D03*
X4025000Y-49025000D03*
D11*
X1625000Y-52625000D03*
X14425000Y-52625000D03*
%TD*%
D12*
%TO.C,TP4*%
X49900000Y-54000000D03*
%TD*%
%TO.C,TP2*%
X43500000Y-54000000D03*
%TD*%
%TO.C,TP3*%
X46700000Y-54000000D03*
%TD*%
D13*
%TO.C,J3*%
X48425000Y-12515000D03*
X48425000Y-6735000D03*
D14*
X47895000Y-13945000D03*
D15*
X52075000Y-13945000D03*
D14*
X47895000Y-5305000D03*
D15*
X52075000Y-5305000D03*
%TD*%
D10*
%TO.C,J2*%
X22525000Y-50525000D03*
X25025000Y-50525000D03*
X27025000Y-50525000D03*
X29525000Y-50525000D03*
X30025000Y-49025000D03*
X28025000Y-49025000D03*
X26025000Y-49025000D03*
X24025000Y-49025000D03*
X22025000Y-49025000D03*
D11*
X19625000Y-52625000D03*
X32425000Y-52625000D03*
%TD*%
D16*
X4525000Y-50525000D03*
X7025000Y-50525000D03*
X9025000Y-50525000D03*
X11525000Y-50525000D03*
X12025000Y-49025000D03*
X10025000Y-49025000D03*
X8025000Y-49025000D03*
X6025000Y-49025000D03*
X4025000Y-49025000D03*
D17*
X1625000Y-52625000D03*
X14425000Y-52625000D03*
D16*
X49900000Y-54000000D03*
X43500000Y-54000000D03*
X46700000Y-54000000D03*
X48425000Y-12515000D03*
X48425000Y-6735000D03*
D18*
X47895000Y-13945000D03*
D19*
X52075000Y-13945000D03*
D18*
X47895000Y-5305000D03*
D19*
X52075000Y-5305000D03*
D16*
X22525000Y-50525000D03*
X25025000Y-50525000D03*
X27025000Y-50525000D03*
X29525000Y-50525000D03*
X30025000Y-49025000D03*
X28025000Y-49025000D03*
X26025000Y-49025000D03*
X24025000Y-49025000D03*
X22025000Y-49025000D03*
D17*
X19625000Y-52625000D03*
X32425000Y-52625000D03*
M02*
