%TF.GenerationSoftware,KiCad,Pcbnew,10.99.0-3619-g0ef48b972f*%
%TF.CreationDate,2026-09-25T14:41:27+07:00*%
%TF.ProjectId,board,626f6172-642e-46b6-9963-61645f706362,rev?*%
%TF.SameCoordinates,Original*%
%TF.FileFunction,Soldermask,Bot*%
%TF.FilePolarity,Negative*%
%FSLAX46Y46*%
G04 Gerber Fmt 4.6, Leading zero omitted, Abs format (unit mm)*
G04 Created by KiCad (PCBNEW 10.99.0-3619-g0ef48b972f) date 2026-09-25 14:41:27*
%MOMM*%
%LPD*%
G01*
G04 APERTURE LIST*
G04 Aperture macros list*
%AMRoundRect*
0 Rectangle with rounded corners*
0 $1 Rounding radius*
0 $2 $3 $4 $5 $6 $7 $8 $9 X,Y pos of 4 corners*
0 Add a 4 corners polygon primitive as box body*
4,1,4,$2,$3,$4,$5,$6,$7,$8,$9,$2,$3,0*
0 Add four circle primitives for the rounded corners*
1,1,$1+$1,$2,$3*
1,1,$1+$1,$4,$5*
1,1,$1+$1,$6,$7*
1,1,$1+$1,$8,$9*
0 Add four rect primitives between the rounded corners*
20,1,$1+$1,$2,$3,$4,$5,0*
20,1,$1+$1,$4,$5,$6,$7,0*
20,1,$1+$1,$6,$7,$8,$9,0*
20,1,$1+$1,$8,$9,$2,$3,0*%
G04 Aperture macros list end*
%ADD10RoundRect,0.250000X-0.350000X-0.350000X0.350000X-0.350000X0.350000X0.350000X-0.350000X0.350000X0*%
%ADD11C,1.200000*%
%ADD12O,1.200000X2.400000*%
%ADD13O,1.200000X2.100000*%
%ADD14C,2.000000*%
%ADD15C,0.650000*%
%ADD16O,2.100000X1.000000*%
%ADD17O,1.600000X1.000000*%
%ADD18C,0.350000*%
%ADD19O,0.600000X1.700000*%
%ADD20O,0.600000X1.400000*%
%ADD21O,1.700000X0.600000*%
%ADD22O,1.200000X0.600000*%
G04 APERTURE END LIST*
D10*
%TO.C,J1*%
X4525000Y-50525000D03*
D11*
X7025000Y-50525000D03*
X9025000Y-50525000D03*
X11525000Y-50525000D03*
X12025000Y-49025000D03*
X10025000Y-49025000D03*
X8025000Y-49025000D03*
X6025000Y-49025000D03*
X4025000Y-49025000D03*
D12*
X1625000Y-49775000D03*
D13*
X1625000Y-58275000D03*
D12*
X14425000Y-49775000D03*
D13*
X14425000Y-58275000D03*
%TD*%
D14*
%TO.C,TP4*%
X49900000Y-54000000D03*
%TD*%
%TO.C,TP2*%
X43500000Y-54000000D03*
%TD*%
%TO.C,TP3*%
X46700000Y-54000000D03*
%TD*%
D15*
%TO.C,J3*%
X48425000Y-12515000D03*
X48425000Y-6735000D03*
D16*
X47895000Y-13945000D03*
D17*
X52075000Y-13945000D03*
D16*
X47895000Y-5305000D03*
D17*
X52075000Y-5305000D03*
%TD*%
D10*
%TO.C,J2*%
X22525000Y-50525000D03*
D11*
X25025000Y-50525000D03*
X27025000Y-50525000D03*
X29525000Y-50525000D03*
X30025000Y-49025000D03*
X28025000Y-49025000D03*
X26025000Y-49025000D03*
X24025000Y-49025000D03*
X22025000Y-49025000D03*
D12*
X19625000Y-49775000D03*
D13*
X19625000Y-58275000D03*
D12*
X32425000Y-49775000D03*
D13*
X32425000Y-58275000D03*
%TD*%
D18*
X4525000Y-50525000D03*
X7025000Y-50525000D03*
X9025000Y-50525000D03*
X11525000Y-50525000D03*
X12025000Y-49025000D03*
X10025000Y-49025000D03*
X8025000Y-49025000D03*
X6025000Y-49025000D03*
X4025000Y-49025000D03*
D19*
X1625000Y-49775000D03*
D20*
X1625000Y-58275000D03*
D19*
X14425000Y-49775000D03*
D20*
X14425000Y-58275000D03*
D18*
X49900000Y-54000000D03*
X43500000Y-54000000D03*
X46700000Y-54000000D03*
X48425000Y-12515000D03*
X48425000Y-6735000D03*
D21*
X47895000Y-13945000D03*
D22*
X52075000Y-13945000D03*
D21*
X47895000Y-5305000D03*
D22*
X52075000Y-5305000D03*
D18*
X22525000Y-50525000D03*
X25025000Y-50525000D03*
X27025000Y-50525000D03*
X29525000Y-50525000D03*
X30025000Y-49025000D03*
X28025000Y-49025000D03*
X26025000Y-49025000D03*
X24025000Y-49025000D03*
X22025000Y-49025000D03*
D19*
X19625000Y-49775000D03*
D20*
X19625000Y-58275000D03*
D19*
X32425000Y-49775000D03*
D20*
X32425000Y-58275000D03*
M02*
