%TF.GenerationSoftware,KiCad,Pcbnew,10.99.0-3619-g0ef48b972f*%
%TF.CreationDate,2026-09-25T15:31:27+07:00*%
%TF.ProjectId,board,626f6172-642e-46b6-9963-61645f706362,rev?*%
%TF.SameCoordinates,Original*%
%TF.FileFunction,Copper,L2,Inr*%
%TF.FilePolarity,Positive*%
%FSLAX46Y46*%
G04 Gerber Fmt 4.6, Leading zero omitted, Abs format (unit mm)*
G04 Created by KiCad (PCBNEW 10.99.0-3619-g0ef48b972f) date 2026-09-25 15:31:27*
%MOMM*%
%LPD*%
G01*
G04 APERTURE LIST*
%TA.AperFunction,ComponentPad*%
%ADD10C,1.200000*%
%TD*%
%TA.AperFunction,ComponentPad*%
%ADD11O,1.400000X3.000000*%
%TD*%
%TA.AperFunction,ComponentPad*%
%ADD12C,2.000000*%
%TD*%
%TA.AperFunction,HeatsinkPad*%
%ADD13C,0.600000*%
%TD*%
%TA.AperFunction,ComponentPad*%
%ADD14O,2.100000X1.000000*%
%TD*%
%TA.AperFunction,ComponentPad*%
%ADD15O,1.600000X1.000000*%
%TD*%
%TA.AperFunction,ViaPad*%
%ADD16C,0.600000*%
%TD*%
%TA.AperFunction,Conductor*%
%ADD17C,0.150000*%
%TD*%
%ADD18C,0.300000*%
%ADD19C,0.350000*%
%ADD20O,0.600000X2.300000*%
%ADD21O,1.700000X0.600000*%
%ADD22O,1.200000X0.600000*%
G04 APERTURE END LIST*
D10*
%TO.N,N/C*%
%TO.C,J1*%
X4525000Y-50525000D03*
%TO.N,PS_CMD*%
X7025000Y-50525000D03*
%TO.N,PS_CLK*%
X9025000Y-50525000D03*
%TO.N,GND*%
X11525000Y-50525000D03*
%TO.N,PS_ATT*%
X12025000Y-49025000D03*
%TO.N,PS_DATA*%
X10025000Y-49025000D03*
%TO.N,PS_ACK*%
X8025000Y-49025000D03*
%TO.N,PS_8V_RAW*%
X6025000Y-49025000D03*
%TO.N,N/C*%
X4025000Y-49025000D03*
D11*
X1625000Y-52625000D03*
X14425000Y-52625000D03*
%TD*%
D12*
%TO.N,UART_RX*%
%TO.C,TP4*%
X49900000Y-54000000D03*
%TD*%
%TO.N,GND*%
%TO.C,TP2*%
X43500000Y-54000000D03*
%TD*%
D13*
%TO.N,GND*%
%TO.C,U1*%
X9020000Y-8052500D03*
X9020000Y-9577500D03*
X9782500Y-7290000D03*
X9782500Y-8815000D03*
X9782500Y-10340000D03*
X10545000Y-8052500D03*
X10545000Y-9577500D03*
X11307500Y-7290000D03*
X11307500Y-8815000D03*
X11307500Y-10340000D03*
X12070000Y-8052500D03*
X12070000Y-9577500D03*
%TD*%
D12*
%TO.N,UART_TX*%
%TO.C,TP3*%
X46700000Y-54000000D03*
%TD*%
D14*
%TO.N,GND*%
%TO.C,J3*%
X47895000Y-13945000D03*
D15*
X52075000Y-13945000D03*
D14*
X47895000Y-5305000D03*
D15*
X52075000Y-5305000D03*
%TD*%
D10*
%TO.N,PS1_RXD*%
%TO.C,J2*%
X22525000Y-50525000D03*
%TO.N,N/C*%
X25025000Y-50525000D03*
X27025000Y-50525000D03*
%TO.N,PS1_TXD*%
X29525000Y-50525000D03*
%TO.N,N/C*%
X30025000Y-49025000D03*
X28025000Y-49025000D03*
%TO.N,GND*%
X26025000Y-49025000D03*
%TO.N,N/C*%
X24025000Y-49025000D03*
X22025000Y-49025000D03*
D11*
X19625000Y-52625000D03*
X32425000Y-52625000D03*
%TD*%
D16*
%TO.N,PS_8V*%
X19680000Y-35525000D03*
X14880000Y-36425000D03*
X26880000Y-35525000D03*
X19680000Y-36125000D03*
X36105000Y-34625000D03*
X30405000Y-34625000D03*
%TO.N,GND*%
X20850000Y-23425000D03*
X6350000Y-29625000D03*
X11505000Y-45450000D03*
X1200000Y-1200000D03*
X40962500Y-10025000D03*
X19230000Y-32725000D03*
X47975000Y-22825000D03*
X41625000Y-27800000D03*
X28050000Y-24025000D03*
X31765000Y-14080000D03*
X11225000Y-40525000D03*
X35712500Y-10325000D03*
X25442500Y-30800000D03*
X33755000Y-5925000D03*
X47075000Y-28225000D03*
X29965000Y-13180000D03*
X31355000Y-6225000D03*
X7550000Y-31725000D03*
X30842500Y-30800000D03*
%TO.N,PS1_TXD*%
X37175000Y-43500000D03*
%TO.N,U2_RX_RAW*%
X21000000Y-15445000D03*
X38825000Y-41500000D03*
%TO.N,PS_CMD*%
X3425000Y-26525000D03*
X7025000Y-28925000D03*
X5525000Y-28925000D03*
X5525000Y-26825000D03*
%TO.N,PS_CLK*%
X13944800Y-33888100D03*
%TO.N,PS_ATT*%
X11233700Y-48596200D03*
%TO.N,PS_DATA*%
X10025000Y-46025000D03*
X10625000Y-46025000D03*
X10625000Y-44825000D03*
%TO.N,PS_ACK*%
X12981300Y-46762500D03*
%TO.N,PS_8V_RAW*%
X10347300Y-39635100D03*
%TO.N,USB_DM_A*%
X44449999Y-8670558D03*
X40370663Y-10625107D03*
%TO.N,USB_DM_RAW*%
X38635000Y-13525000D03*
X35435000Y-12325000D03*
X38635000Y-10725000D03*
%TO.N,CMD_IN*%
X3574999Y-25725001D03*
X4300000Y-9952000D03*
%TO.N,UART_RX*%
X18049198Y-13351622D03*
X13753503Y-8842770D03*
X17292685Y-10776067D03*
X47633000Y-35490000D03*
X25558114Y-21012005D03*
X18031000Y-22606000D03*
X24193414Y-19324999D03*
%TO.N,PS_3V3*%
X39475000Y-27850000D03*
X23242500Y-28075000D03*
X1950000Y-29800000D03*
X8842500Y-28675000D03*
X1950000Y-35800000D03*
X42775000Y-27250000D03*
X8130000Y-27425000D03*
X40130000Y-37825000D03*
X43430000Y-37825000D03*
X28642500Y-28075000D03*
X23242500Y-28675000D03*
X3630000Y-27425000D03*
X35242500Y-28075000D03*
X30442500Y-28075000D03*
%TO.N,USB_DP_B*%
X31198242Y-8345258D03*
X41606000Y-4671000D03*
X33112537Y-5483317D03*
X34767415Y-4202603D03*
%TO.N,USB_DP_RAW*%
X33635000Y-9525000D03*
X37635000Y-9525000D03*
%TO.N,U2_TX_RAW*%
X33375000Y-41500000D03*
X21000000Y-14175000D03*
%TO.N,ATT_IN*%
X2775000Y-37225000D03*
X3375000Y-38725000D03*
X1275000Y-11425000D03*
%TO.N,3V3*%
X1300000Y-2745000D03*
X16950000Y-24950000D03*
X18850000Y-31525000D03*
X27750000Y-26650000D03*
X25855000Y-37650000D03*
X13500000Y-31525000D03*
X45550000Y-27200000D03*
X23250000Y-33500000D03*
X19855000Y-26450000D03*
X25355000Y-41500000D03*
X25855000Y-38625000D03*
%TO.N,EN*%
X19977344Y-33193442D03*
X7253021Y-4155983D03*
X16213604Y-15107963D03*
X18747637Y-35389870D03*
X18540506Y-25254092D03*
X24387459Y-9342110D03*
X18295280Y-14933481D03*
X15925001Y-36739131D03*
X20580933Y-30183340D03*
%TO.N,CLK_IN*%
X3184012Y-30211321D03*
X1951000Y-21316000D03*
%TO.N,BOOT*%
X27334051Y-37536687D03*
X21012839Y-26725001D03*
X25925807Y-36244752D03*
X25730000Y-17503000D03*
X21838974Y-28095994D03*
X18309000Y-19644000D03*
X22453232Y-17805934D03*
X41411000Y-44031000D03*
%TO.N,STATUS_LED*%
X24402813Y-37291112D03*
X13346000Y-16424000D03*
%TO.N,DATA_GATE*%
X7115233Y-16157103D03*
X4475462Y-36801434D03*
X16104317Y-10508211D03*
X10501923Y-13540803D03*
%TO.N,ACK_GATE*%
X8912191Y-30826321D03*
X12231000Y-13621000D03*
X10307000Y-32692000D03*
X15269880Y-40333717D03*
%TO.N,UART_TX*%
X34930000Y-38018683D03*
X29931441Y-15214595D03*
X22585068Y-5049999D03*
X35104749Y-29462580D03*
X30226271Y-17337238D03*
X37200000Y-45500000D03*
%TO.N,USB_5V*%
X34787500Y-5225000D03*
X34387500Y-8025000D03*
X24905000Y-3825000D03*
X37187500Y-14625000D03*
X24505000Y-5625000D03*
X31187500Y-13425000D03*
X31387500Y-10425000D03*
X31987500Y-8025000D03*
X28505000Y-8425000D03*
X29305000Y-8425000D03*
X46015000Y-20325000D03*
X45215000Y-20325000D03*
X36387500Y-5225000D03*
X28105000Y-5625000D03*
X28505000Y-6425000D03*
%TO.N,USB_DTR*%
X23065221Y-27018251D03*
X31078000Y-23709000D03*
X31402543Y-16261348D03*
X25489281Y-13576103D03*
%TO.N,AUTO_BOOT*%
X25372804Y-14685000D03*
X27669000Y-23170000D03*
%TO.N,MUX_ILIM*%
X44700000Y-30725000D03*
X41900000Y-30725000D03*
%TO.N,USB_DP*%
X30787500Y-9675000D03*
X29809600Y-11186200D03*
X26387500Y-16475000D03*
%TO.N,USB_DM*%
X32387500Y-12375000D03*
X31587500Y-17575000D03*
%TO.N,USB_DM_B*%
X43503745Y-12786888D03*
X35620000Y-14575000D03*
%TO.N,BUCK_SW*%
X24633759Y-28804715D03*
X33019968Y-28922787D03*
%TO.N,CH340_V3*%
X29898428Y-12194297D03*
X28695763Y-11084623D03*
%TO.N,USB_LDO_EN*%
X49365465Y-19376340D03*
X42498000Y-21782000D03*
%TO.N,USB_3V3*%
X46875000Y-22425000D03*
X46875000Y-20825000D03*
X42817500Y-19475000D03*
X46817500Y-20275000D03*
X38417500Y-19475000D03*
X44475000Y-21225000D03*
X46875000Y-26025000D03*
%TO.N,USB_RTS*%
X26512697Y-12120496D03*
X28088883Y-12019994D03*
X22025000Y-14288000D03*
X31396494Y-15147112D03*
%TO.N,AUTO_RESET*%
X14865968Y-9032731D03*
X17757823Y-8001015D03*
X21556230Y-9443802D03*
X25459287Y-22122615D03*
%TO.N,USB_UART_5V*%
X43445357Y-14908115D03*
X52366000Y-22355000D03*
%TO.N,CH_TX_5V*%
X26550773Y-13234845D03*
X23510294Y-17413496D03*
%TO.N,USB_CC2*%
X32043275Y-3012645D03*
X43813000Y-4671000D03*
%TD*%
%TO.N,PS_8V*%
D17*
X15180000Y-36125000D02*
X14880000Y-36425000D01*
X36105000Y-34625000D02*
X30405000Y-34625000D01*
X26880000Y-35525000D02*
X19680000Y-35525000D01*
X19680000Y-36125000D02*
X15180000Y-36125000D01*
%TO.N,GND*%
X20730000Y-32425000D02*
X19230000Y-32725000D01*
X30842500Y-30800000D02*
X25442500Y-30800000D01*
X31355000Y-6225000D02*
X33455000Y-6225000D01*
X35862500Y-10325000D02*
X35262500Y-8225000D01*
X35712500Y-10325000D02*
X35862500Y-10175000D01*
X6350000Y-31725000D02*
X7550000Y-31725000D01*
X20850000Y-23425000D02*
X26250000Y-23425000D01*
X33455000Y-6225000D02*
X33755000Y-5925000D01*
X10025000Y-40525000D02*
X11225000Y-40525000D01*
X26250000Y-24025000D02*
X28050000Y-24025000D01*
X18505000Y-42875000D02*
X17155000Y-42875000D01*
X39462500Y-10025000D02*
X40962500Y-10025000D01*
X29965000Y-13180000D02*
X30865000Y-14080000D01*
X30865000Y-14080000D02*
X31765000Y-14080000D01*
X47975000Y-28225000D02*
X47075000Y-28225000D01*
X37555000Y-33425000D02*
X33955000Y-33425000D01*
X30917500Y-31175000D02*
X30617500Y-31175000D01*
X35862500Y-10175000D02*
X39462500Y-10175000D01*
X41625000Y-27800000D02*
X42225000Y-27800000D01*
%TO.N,PS_CMD*%
X7025000Y-28925000D02*
X5525000Y-28925000D01*
X5525000Y-26825000D02*
X3425000Y-26525000D01*
%TO.N,PS_CLK*%
X9025000Y-38807900D02*
X13944800Y-33888100D01*
X9025000Y-50525000D02*
X9025000Y-38807900D01*
%TO.N,PS_ATT*%
X12025000Y-49025000D02*
X11233700Y-48596200D01*
%TO.N,PS_DATA*%
X10025000Y-46025000D02*
X10625000Y-46025000D01*
%TO.N,PS_ACK*%
X8025000Y-49025000D02*
X8025000Y-50825000D01*
X8025000Y-50825000D02*
X8625000Y-51425000D01*
X8625000Y-51425000D02*
X11925000Y-51425000D01*
X11925000Y-51425000D02*
X13125000Y-50225000D01*
X13125000Y-50225000D02*
X12981300Y-46762500D01*
%TO.N,PS_3V3*%
X30442500Y-28075000D02*
X35242500Y-28075000D01*
X28642500Y-28075000D02*
X23242500Y-28075000D01*
X23242500Y-28675000D02*
X8842500Y-28675000D01*
X43430000Y-37825000D02*
X40130000Y-37825000D01*
X39475000Y-27850000D02*
X40075000Y-27250000D01*
X40075000Y-27250000D02*
X42775000Y-27250000D01*
X3630000Y-27425000D02*
X8130000Y-27425000D01*
%TO.N,ATT_IN*%
X2475000Y-37225000D02*
X2775000Y-37225000D01*
%TO.N,USB_DP*%
X29809600Y-11186200D02*
X26387500Y-16475000D01*
%TD*%
%TA.AperFunction,Conductor*%
%TO.N,GND*%
G36*
X10961497Y-48959235D02*
G01*
X11059814Y-49015999D01*
X11174391Y-49046700D01*
X11174403Y-49046700D01*
X11178425Y-49047230D01*
X11181579Y-49048625D01*
X11182242Y-49048803D01*
X11182214Y-49048906D01*
X11242322Y-49075495D01*
X11280795Y-49133819D01*
X11283860Y-49145977D01*
X11303341Y-49243908D01*
X11303343Y-49243917D01*
X11359912Y-49380488D01*
X11359919Y-49380501D01*
X11442048Y-49503415D01*
X11442051Y-49503419D01*
X11546580Y-49607948D01*
X11546584Y-49607951D01*
X11669498Y-49690080D01*
X11669511Y-49690087D01*
X11806082Y-49746656D01*
X11806087Y-49746658D01*
X11806091Y-49746658D01*
X11806092Y-49746659D01*
X11951079Y-49775500D01*
X11951082Y-49775500D01*
X12098920Y-49775500D01*
X12207350Y-49753931D01*
X12243913Y-49746658D01*
X12380495Y-49690084D01*
X12503416Y-49607951D01*
X12607951Y-49503416D01*
X12642841Y-49451198D01*
X12696451Y-49406394D01*
X12765776Y-49397685D01*
X12828804Y-49427839D01*
X12865524Y-49487282D01*
X12869836Y-49514947D01*
X12893335Y-50081147D01*
X12876448Y-50148945D01*
X12857123Y-50173970D01*
X11867914Y-51163181D01*
X11806591Y-51196666D01*
X11780233Y-51199500D01*
X9708920Y-51199500D01*
X9641881Y-51179815D01*
X9596126Y-51127011D01*
X9586182Y-51057853D01*
X9605818Y-51006609D01*
X9690080Y-50880501D01*
X9690080Y-50880500D01*
X9690084Y-50880495D01*
X9746658Y-50743913D01*
X9775500Y-50598918D01*
X9775500Y-50451082D01*
X9775500Y-50451079D01*
X9746659Y-50306092D01*
X9746658Y-50306091D01*
X9746658Y-50306087D01*
X9727761Y-50260466D01*
X9690087Y-50169511D01*
X9690080Y-50169498D01*
X9607951Y-50046584D01*
X9607948Y-50046580D01*
X9503419Y-49942051D01*
X9503415Y-49942048D01*
X9380501Y-49859919D01*
X9380486Y-49859911D01*
X9327046Y-49837775D01*
X9272643Y-49793934D01*
X9250579Y-49727639D01*
X9250500Y-49723215D01*
X9250500Y-49611230D01*
X9270185Y-49544191D01*
X9322989Y-49498436D01*
X9392147Y-49488492D01*
X9455703Y-49517517D01*
X9462181Y-49523549D01*
X9546580Y-49607948D01*
X9546584Y-49607951D01*
X9669498Y-49690080D01*
X9669511Y-49690087D01*
X9806082Y-49746656D01*
X9806087Y-49746658D01*
X9806091Y-49746658D01*
X9806092Y-49746659D01*
X9951079Y-49775500D01*
X9951082Y-49775500D01*
X10098920Y-49775500D01*
X10207350Y-49753931D01*
X10243913Y-49746658D01*
X10380495Y-49690084D01*
X10503416Y-49607951D01*
X10607951Y-49503416D01*
X10690084Y-49380495D01*
X10746658Y-49243913D01*
X10775500Y-49098918D01*
X10775500Y-49066623D01*
X10795185Y-48999584D01*
X10847989Y-48953829D01*
X10917147Y-48943885D01*
X10961497Y-48959235D01*
G37*
%TD.AperFunction*%
%TA.AperFunction,Conductor*%
G36*
X55737539Y-520185D02*
G01*
X55783294Y-572989D01*
X55794500Y-624500D01*
X55794500Y-61375500D01*
X55774815Y-61442539D01*
X55722011Y-61488294D01*
X55670500Y-61499500D01*
X624500Y-61499500D01*
X557461Y-61479815D01*
X511706Y-61427011D01*
X500500Y-61375500D01*
X500500Y-51741228D01*
X774500Y-51741228D01*
X774500Y-53508771D01*
X807182Y-53673074D01*
X807184Y-53673082D01*
X871295Y-53827860D01*
X964373Y-53967162D01*
X1082837Y-54085626D01*
X1175494Y-54147537D01*
X1222137Y-54178703D01*
X1376918Y-54242816D01*
X1541228Y-54275499D01*
X1541232Y-54275500D01*
X1541233Y-54275500D01*
X1708768Y-54275500D01*
X1708769Y-54275499D01*
X1873082Y-54242816D01*
X2027863Y-54178703D01*
X2167162Y-54085626D01*
X2285626Y-53967162D01*
X2378703Y-53827863D01*
X2442816Y-53673082D01*
X2475500Y-53508767D01*
X2475500Y-51741233D01*
X2475499Y-51741228D01*
X13574500Y-51741228D01*
X13574500Y-53508771D01*
X13607182Y-53673074D01*
X13607184Y-53673082D01*
X13671295Y-53827860D01*
X13764373Y-53967162D01*
X13882837Y-54085626D01*
X13975494Y-54147537D01*
X14022137Y-54178703D01*
X14176918Y-54242816D01*
X14341228Y-54275499D01*
X14341232Y-54275500D01*
X14341233Y-54275500D01*
X14508768Y-54275500D01*
X14508769Y-54275499D01*
X14673082Y-54242816D01*
X14827863Y-54178703D01*
X14967162Y-54085626D01*
X15085626Y-53967162D01*
X15178703Y-53827863D01*
X15242816Y-53673082D01*
X15275500Y-53508767D01*
X15275500Y-51741233D01*
X15275499Y-51741228D01*
X18774500Y-51741228D01*
X18774500Y-53508771D01*
X18807182Y-53673074D01*
X18807184Y-53673082D01*
X18871295Y-53827860D01*
X18964373Y-53967162D01*
X19082837Y-54085626D01*
X19175494Y-54147537D01*
X19222137Y-54178703D01*
X19376918Y-54242816D01*
X19541228Y-54275499D01*
X19541232Y-54275500D01*
X19541233Y-54275500D01*
X19708768Y-54275500D01*
X19708769Y-54275499D01*
X19873082Y-54242816D01*
X20027863Y-54178703D01*
X20167162Y-54085626D01*
X20285626Y-53967162D01*
X20378703Y-53827863D01*
X20442816Y-53673082D01*
X20475500Y-53508767D01*
X20475500Y-51741233D01*
X20475499Y-51741228D01*
X31574500Y-51741228D01*
X31574500Y-53508771D01*
X31607182Y-53673074D01*
X31607184Y-53673082D01*
X31671295Y-53827860D01*
X31764373Y-53967162D01*
X31882837Y-54085626D01*
X31975494Y-54147537D01*
X32022137Y-54178703D01*
X32176918Y-54242816D01*
X32341228Y-54275499D01*
X32341232Y-54275500D01*
X32341233Y-54275500D01*
X32508768Y-54275500D01*
X32508769Y-54275499D01*
X32673082Y-54242816D01*
X32827863Y-54178703D01*
X32967162Y-54085626D01*
X33085626Y-53967162D01*
X33124189Y-53909448D01*
X45549500Y-53909448D01*
X45549500Y-54090551D01*
X45577829Y-54269410D01*
X45633787Y-54441636D01*
X45633788Y-54441639D01*
X45716006Y-54602997D01*
X45822441Y-54749494D01*
X45822445Y-54749499D01*
X45950500Y-54877554D01*
X45950505Y-54877558D01*
X46078287Y-54970396D01*
X46097006Y-54983996D01*
X46202484Y-55037740D01*
X46258360Y-55066211D01*
X46258363Y-55066212D01*
X46344476Y-55094191D01*
X46430591Y-55122171D01*
X46513429Y-55135291D01*
X46609449Y-55150500D01*
X46609454Y-55150500D01*
X46790551Y-55150500D01*
X46877259Y-55136765D01*
X46969409Y-55122171D01*
X47141639Y-55066211D01*
X47302994Y-54983996D01*
X47449501Y-54877553D01*
X47577553Y-54749501D01*
X47683996Y-54602994D01*
X47766211Y-54441639D01*
X47822171Y-54269409D01*
X47836765Y-54177259D01*
X47850500Y-54090551D01*
X47850500Y-53909448D01*
X48749500Y-53909448D01*
X48749500Y-54090551D01*
X48777829Y-54269410D01*
X48833787Y-54441636D01*
X48833788Y-54441639D01*
X48916006Y-54602997D01*
X49022441Y-54749494D01*
X49022445Y-54749499D01*
X49150500Y-54877554D01*
X49150505Y-54877558D01*
X49278287Y-54970396D01*
X49297006Y-54983996D01*
X49402484Y-55037740D01*
X49458360Y-55066211D01*
X49458363Y-55066212D01*
X49544476Y-55094191D01*
X49630591Y-55122171D01*
X49713429Y-55135291D01*
X49809449Y-55150500D01*
X49809454Y-55150500D01*
X49990551Y-55150500D01*
X50077259Y-55136765D01*
X50169409Y-55122171D01*
X50341639Y-55066211D01*
X50502994Y-54983996D01*
X50649501Y-54877553D01*
X50777553Y-54749501D01*
X50883996Y-54602994D01*
X50966211Y-54441639D01*
X51022171Y-54269409D01*
X51036765Y-54177259D01*
X51050500Y-54090551D01*
X51050500Y-53909448D01*
X51034019Y-53805397D01*
X51022171Y-53730591D01*
X50966211Y-53558361D01*
X50966211Y-53558360D01*
X50937740Y-53502484D01*
X50883996Y-53397006D01*
X50870396Y-53378287D01*
X50777558Y-53250505D01*
X50777554Y-53250500D01*
X50649499Y-53122445D01*
X50649494Y-53122441D01*
X50502997Y-53016006D01*
X50502996Y-53016005D01*
X50502994Y-53016004D01*
X50451300Y-52989664D01*
X50341639Y-52933788D01*
X50341636Y-52933787D01*
X50169410Y-52877829D01*
X49990551Y-52849500D01*
X49990546Y-52849500D01*
X49809454Y-52849500D01*
X49809449Y-52849500D01*
X49630589Y-52877829D01*
X49458363Y-52933787D01*
X49458360Y-52933788D01*
X49297002Y-53016006D01*
X49150505Y-53122441D01*
X49150500Y-53122445D01*
X49022445Y-53250500D01*
X49022441Y-53250505D01*
X48916006Y-53397002D01*
X48833788Y-53558360D01*
X48833787Y-53558363D01*
X48777829Y-53730589D01*
X48749500Y-53909448D01*
X47850500Y-53909448D01*
X47834019Y-53805397D01*
X47822171Y-53730591D01*
X47766211Y-53558361D01*
X47766211Y-53558360D01*
X47737740Y-53502484D01*
X47683996Y-53397006D01*
X47670396Y-53378287D01*
X47577558Y-53250505D01*
X47577554Y-53250500D01*
X47449499Y-53122445D01*
X47449494Y-53122441D01*
X47302997Y-53016006D01*
X47302996Y-53016005D01*
X47302994Y-53016004D01*
X47251300Y-52989664D01*
X47141639Y-52933788D01*
X47141636Y-52933787D01*
X46969410Y-52877829D01*
X46790551Y-52849500D01*
X46790546Y-52849500D01*
X46609454Y-52849500D01*
X46609449Y-52849500D01*
X46430589Y-52877829D01*
X46258363Y-52933787D01*
X46258360Y-52933788D01*
X46097002Y-53016006D01*
X45950505Y-53122441D01*
X45950500Y-53122445D01*
X45822445Y-53250500D01*
X45822441Y-53250505D01*
X45716006Y-53397002D01*
X45633788Y-53558360D01*
X45633787Y-53558363D01*
X45577829Y-53730589D01*
X45549500Y-53909448D01*
X33124189Y-53909448D01*
X33178703Y-53827863D01*
X33242816Y-53673082D01*
X33275500Y-53508767D01*
X33275500Y-51741233D01*
X33242816Y-51576918D01*
X33178703Y-51422137D01*
X33147537Y-51375494D01*
X33085626Y-51282837D01*
X32967162Y-51164373D01*
X32827860Y-51071295D01*
X32673082Y-51007184D01*
X32673074Y-51007182D01*
X32508771Y-50974500D01*
X32508767Y-50974500D01*
X32341233Y-50974500D01*
X32341228Y-50974500D01*
X32176925Y-51007182D01*
X32176917Y-51007184D01*
X32022139Y-51071295D01*
X31882837Y-51164373D01*
X31764373Y-51282837D01*
X31671295Y-51422139D01*
X31607184Y-51576917D01*
X31607182Y-51576925D01*
X31574500Y-51741228D01*
X20475499Y-51741228D01*
X20442816Y-51576918D01*
X20378703Y-51422137D01*
X20347537Y-51375494D01*
X20285626Y-51282837D01*
X20167162Y-51164373D01*
X20027860Y-51071295D01*
X19873082Y-51007184D01*
X19873074Y-51007182D01*
X19708771Y-50974500D01*
X19708767Y-50974500D01*
X19541233Y-50974500D01*
X19541228Y-50974500D01*
X19376925Y-51007182D01*
X19376917Y-51007184D01*
X19222139Y-51071295D01*
X19082837Y-51164373D01*
X18964373Y-51282837D01*
X18871295Y-51422139D01*
X18807184Y-51576917D01*
X18807182Y-51576925D01*
X18774500Y-51741228D01*
X15275499Y-51741228D01*
X15242816Y-51576918D01*
X15178703Y-51422137D01*
X15147537Y-51375494D01*
X15085626Y-51282837D01*
X14967162Y-51164373D01*
X14827860Y-51071295D01*
X14673082Y-51007184D01*
X14673074Y-51007182D01*
X14508771Y-50974500D01*
X14508767Y-50974500D01*
X14341233Y-50974500D01*
X14341228Y-50974500D01*
X14176925Y-51007182D01*
X14176917Y-51007184D01*
X14022139Y-51071295D01*
X13882837Y-51164373D01*
X13764373Y-51282837D01*
X13671295Y-51422139D01*
X13607184Y-51576917D01*
X13607182Y-51576925D01*
X13574500Y-51741228D01*
X2475499Y-51741228D01*
X2442816Y-51576918D01*
X2378703Y-51422137D01*
X2347537Y-51375494D01*
X2285626Y-51282837D01*
X2167162Y-51164373D01*
X2027860Y-51071295D01*
X1873082Y-51007184D01*
X1873074Y-51007182D01*
X1708771Y-50974500D01*
X1708767Y-50974500D01*
X1541233Y-50974500D01*
X1541228Y-50974500D01*
X1376925Y-51007182D01*
X1376917Y-51007184D01*
X1222139Y-51071295D01*
X1082837Y-51164373D01*
X964373Y-51282837D01*
X871295Y-51422139D01*
X807184Y-51576917D01*
X807182Y-51576925D01*
X774500Y-51741228D01*
X500500Y-51741228D01*
X500500Y-49098920D01*
X3274499Y-49098920D01*
X3303340Y-49243907D01*
X3303343Y-49243917D01*
X3359912Y-49380488D01*
X3359919Y-49380501D01*
X3442048Y-49503415D01*
X3442051Y-49503419D01*
X3546580Y-49607948D01*
X3546584Y-49607951D01*
X3669498Y-49690080D01*
X3669511Y-49690087D01*
X3806082Y-49746656D01*
X3806087Y-49746658D01*
X3942125Y-49773718D01*
X4004036Y-49806103D01*
X4038610Y-49866818D01*
X4034871Y-49936588D01*
X4005616Y-49983016D01*
X3942048Y-50046584D01*
X3859919Y-50169498D01*
X3859912Y-50169511D01*
X3803343Y-50306082D01*
X3803340Y-50306092D01*
X3774500Y-50451079D01*
X3774500Y-50451082D01*
X3774500Y-50598918D01*
X3774500Y-50598920D01*
X3774499Y-50598920D01*
X3803340Y-50743907D01*
X3803343Y-50743917D01*
X3859912Y-50880488D01*
X3859919Y-50880501D01*
X3942048Y-51003415D01*
X3942051Y-51003419D01*
X4046580Y-51107948D01*
X4046584Y-51107951D01*
X4169498Y-51190080D01*
X4169511Y-51190087D01*
X4306082Y-51246656D01*
X4306087Y-51246658D01*
X4306091Y-51246658D01*
X4306092Y-51246659D01*
X4451079Y-51275500D01*
X4451082Y-51275500D01*
X4598920Y-51275500D01*
X4696462Y-51256096D01*
X4743913Y-51246658D01*
X4880495Y-51190084D01*
X5003416Y-51107951D01*
X5107951Y-51003416D01*
X5190084Y-50880495D01*
X5246658Y-50743913D01*
X5275500Y-50598920D01*
X6274499Y-50598920D01*
X6303340Y-50743907D01*
X6303343Y-50743917D01*
X6359912Y-50880488D01*
X6359919Y-50880501D01*
X6442048Y-51003415D01*
X6442051Y-51003419D01*
X6546580Y-51107948D01*
X6546584Y-51107951D01*
X6669498Y-51190080D01*
X6669511Y-51190087D01*
X6806082Y-51246656D01*
X6806087Y-51246658D01*
X6806091Y-51246658D01*
X6806092Y-51246659D01*
X6951079Y-51275500D01*
X6951082Y-51275500D01*
X7098920Y-51275500D01*
X7196462Y-51256096D01*
X7243913Y-51246658D01*
X7380495Y-51190084D01*
X7503416Y-51107951D01*
X7607951Y-51003416D01*
X7634782Y-50963261D01*
X7688394Y-50918456D01*
X7757719Y-50909749D01*
X7820746Y-50939903D01*
X7825565Y-50944471D01*
X7914700Y-51033606D01*
X7914706Y-51033611D01*
X8426759Y-51545664D01*
X8426762Y-51545668D01*
X8497266Y-51616172D01*
X8561365Y-51642721D01*
X8580145Y-51650500D01*
X11880143Y-51650500D01*
X11880145Y-51650501D01*
X11969855Y-51650501D01*
X12028460Y-51626225D01*
X12052736Y-51616170D01*
X12116170Y-51552736D01*
X12116170Y-51552735D01*
X12133608Y-51535297D01*
X12133610Y-51535294D01*
X13245023Y-50423880D01*
X13259601Y-50411403D01*
X13260547Y-50410711D01*
X13260553Y-50410709D01*
X13286061Y-50382989D01*
X13289577Y-50379327D01*
X13316170Y-50352735D01*
X13316171Y-50352731D01*
X13316815Y-50351769D01*
X13317615Y-50350751D01*
X13320110Y-50346845D01*
X13320701Y-50345683D01*
X13321296Y-50344704D01*
X13321302Y-50344699D01*
X13334259Y-50309335D01*
X13336091Y-50304638D01*
X13350500Y-50269855D01*
X13350500Y-50269851D01*
X13350729Y-50268703D01*
X13351081Y-50267448D01*
X13351883Y-50262927D01*
X13351985Y-50261626D01*
X13352166Y-50260464D01*
X13350607Y-50222901D01*
X13350500Y-50217758D01*
X13350500Y-50180149D01*
X13350500Y-50180146D01*
X13350498Y-50180143D01*
X13350271Y-50178999D01*
X13347993Y-50159943D01*
X13303959Y-49098920D01*
X21274499Y-49098920D01*
X21303340Y-49243907D01*
X21303343Y-49243917D01*
X21359912Y-49380488D01*
X21359919Y-49380501D01*
X21442048Y-49503415D01*
X21442051Y-49503419D01*
X21546580Y-49607948D01*
X21546584Y-49607951D01*
X21669498Y-49690080D01*
X21669511Y-49690087D01*
X21806082Y-49746656D01*
X21806087Y-49746658D01*
X21942125Y-49773718D01*
X22004036Y-49806103D01*
X22038610Y-49866818D01*
X22034871Y-49936588D01*
X22005616Y-49983016D01*
X21942048Y-50046584D01*
X21859919Y-50169498D01*
X21859912Y-50169511D01*
X21803343Y-50306082D01*
X21803340Y-50306092D01*
X21774500Y-50451079D01*
X21774500Y-50451082D01*
X21774500Y-50598918D01*
X21774500Y-50598920D01*
X21774499Y-50598920D01*
X21803340Y-50743907D01*
X21803343Y-50743917D01*
X21859912Y-50880488D01*
X21859919Y-50880501D01*
X21942048Y-51003415D01*
X21942051Y-51003419D01*
X22046580Y-51107948D01*
X22046584Y-51107951D01*
X22169498Y-51190080D01*
X22169511Y-51190087D01*
X22306082Y-51246656D01*
X22306087Y-51246658D01*
X22306091Y-51246658D01*
X22306092Y-51246659D01*
X22451079Y-51275500D01*
X22451082Y-51275500D01*
X22598920Y-51275500D01*
X22696462Y-51256096D01*
X22743913Y-51246658D01*
X22880495Y-51190084D01*
X23003416Y-51107951D01*
X23107951Y-51003416D01*
X23190084Y-50880495D01*
X23246658Y-50743913D01*
X23275500Y-50598920D01*
X24274499Y-50598920D01*
X24303340Y-50743907D01*
X24303343Y-50743917D01*
X24359912Y-50880488D01*
X24359919Y-50880501D01*
X24442048Y-51003415D01*
X24442051Y-51003419D01*
X24546580Y-51107948D01*
X24546584Y-51107951D01*
X24669498Y-51190080D01*
X24669511Y-51190087D01*
X24806082Y-51246656D01*
X24806087Y-51246658D01*
X24806091Y-51246658D01*
X24806092Y-51246659D01*
X24951079Y-51275500D01*
X24951082Y-51275500D01*
X25098920Y-51275500D01*
X25196462Y-51256096D01*
X25243913Y-51246658D01*
X25380495Y-51190084D01*
X25503416Y-51107951D01*
X25607951Y-51003416D01*
X25690084Y-50880495D01*
X25746658Y-50743913D01*
X25775500Y-50598920D01*
X26274499Y-50598920D01*
X26303340Y-50743907D01*
X26303343Y-50743917D01*
X26359912Y-50880488D01*
X26359919Y-50880501D01*
X26442048Y-51003415D01*
X26442051Y-51003419D01*
X26546580Y-51107948D01*
X26546584Y-51107951D01*
X26669498Y-51190080D01*
X26669511Y-51190087D01*
X26806082Y-51246656D01*
X26806087Y-51246658D01*
X26806091Y-51246658D01*
X26806092Y-51246659D01*
X26951079Y-51275500D01*
X26951082Y-51275500D01*
X27098920Y-51275500D01*
X27196462Y-51256096D01*
X27243913Y-51246658D01*
X27380495Y-51190084D01*
X27503416Y-51107951D01*
X27607951Y-51003416D01*
X27690084Y-50880495D01*
X27746658Y-50743913D01*
X27775500Y-50598920D01*
X28774499Y-50598920D01*
X28803340Y-50743907D01*
X28803343Y-50743917D01*
X28859912Y-50880488D01*
X28859919Y-50880501D01*
X28942048Y-51003415D01*
X28942051Y-51003419D01*
X29046580Y-51107948D01*
X29046584Y-51107951D01*
X29169498Y-51190080D01*
X29169511Y-51190087D01*
X29306082Y-51246656D01*
X29306087Y-51246658D01*
X29306091Y-51246658D01*
X29306092Y-51246659D01*
X29451079Y-51275500D01*
X29451082Y-51275500D01*
X29598920Y-51275500D01*
X29696462Y-51256096D01*
X29743913Y-51246658D01*
X29880495Y-51190084D01*
X30003416Y-51107951D01*
X30107951Y-51003416D01*
X30190084Y-50880495D01*
X30246658Y-50743913D01*
X30275500Y-50598918D01*
X30275500Y-50451082D01*
X30275500Y-50451079D01*
X30246659Y-50306092D01*
X30246658Y-50306091D01*
X30246658Y-50306087D01*
X30227761Y-50260466D01*
X30190087Y-50169511D01*
X30190080Y-50169498D01*
X30107951Y-50046584D01*
X30107948Y-50046580D01*
X30044384Y-49983016D01*
X30010899Y-49921693D01*
X30015883Y-49852001D01*
X30057755Y-49796068D01*
X30107871Y-49773718D01*
X30243913Y-49746658D01*
X30380495Y-49690084D01*
X30503416Y-49607951D01*
X30607951Y-49503416D01*
X30690084Y-49380495D01*
X30746658Y-49243913D01*
X30775500Y-49098918D01*
X30775500Y-48951082D01*
X30775500Y-48951079D01*
X30746659Y-48806092D01*
X30746658Y-48806091D01*
X30746658Y-48806087D01*
X30731746Y-48770086D01*
X30690087Y-48669511D01*
X30690080Y-48669498D01*
X30607951Y-48546584D01*
X30607948Y-48546580D01*
X30503419Y-48442051D01*
X30503415Y-48442048D01*
X30380501Y-48359919D01*
X30380488Y-48359912D01*
X30243917Y-48303343D01*
X30243907Y-48303340D01*
X30098920Y-48274500D01*
X30098918Y-48274500D01*
X29951082Y-48274500D01*
X29951080Y-48274500D01*
X29806092Y-48303340D01*
X29806082Y-48303343D01*
X29669511Y-48359912D01*
X29669498Y-48359919D01*
X29546584Y-48442048D01*
X29546580Y-48442051D01*
X29442051Y-48546580D01*
X29442048Y-48546584D01*
X29359919Y-48669498D01*
X29359912Y-48669511D01*
X29303343Y-48806082D01*
X29303340Y-48806092D01*
X29274500Y-48951079D01*
X29274500Y-48951082D01*
X29274500Y-49098918D01*
X29274500Y-49098920D01*
X29274499Y-49098920D01*
X29303340Y-49243907D01*
X29303343Y-49243917D01*
X29359912Y-49380488D01*
X29359919Y-49380501D01*
X29442048Y-49503415D01*
X29442051Y-49503419D01*
X29505615Y-49566983D01*
X29539100Y-49628306D01*
X29534116Y-49697998D01*
X29492244Y-49753931D01*
X29442126Y-49776281D01*
X29306092Y-49803340D01*
X29306082Y-49803343D01*
X29169511Y-49859912D01*
X29169498Y-49859919D01*
X29046584Y-49942048D01*
X29046580Y-49942051D01*
X28942051Y-50046580D01*
X28942048Y-50046584D01*
X28859919Y-50169498D01*
X28859912Y-50169511D01*
X28803343Y-50306082D01*
X28803340Y-50306092D01*
X28774500Y-50451079D01*
X28774500Y-50451082D01*
X28774500Y-50598918D01*
X28774500Y-50598920D01*
X28774499Y-50598920D01*
X27775500Y-50598920D01*
X27775500Y-50598918D01*
X27775500Y-50451082D01*
X27775500Y-50451079D01*
X27746659Y-50306092D01*
X27746658Y-50306091D01*
X27746658Y-50306087D01*
X27727761Y-50260466D01*
X27690087Y-50169511D01*
X27690080Y-50169498D01*
X27607951Y-50046584D01*
X27607948Y-50046580D01*
X27503419Y-49942051D01*
X27503415Y-49942048D01*
X27380501Y-49859919D01*
X27380488Y-49859912D01*
X27243917Y-49803343D01*
X27243907Y-49803340D01*
X27098920Y-49774500D01*
X27098918Y-49774500D01*
X26951082Y-49774500D01*
X26951080Y-49774500D01*
X26806092Y-49803340D01*
X26806082Y-49803343D01*
X26669511Y-49859912D01*
X26669498Y-49859919D01*
X26546584Y-49942048D01*
X26546580Y-49942051D01*
X26442051Y-50046580D01*
X26442048Y-50046584D01*
X26359919Y-50169498D01*
X26359912Y-50169511D01*
X26303343Y-50306082D01*
X26303340Y-50306092D01*
X26274500Y-50451079D01*
X26274500Y-50451082D01*
X26274500Y-50598918D01*
X26274500Y-50598920D01*
X26274499Y-50598920D01*
X25775500Y-50598920D01*
X25775500Y-50598918D01*
X25775500Y-50451082D01*
X25775500Y-50451079D01*
X25746659Y-50306092D01*
X25746658Y-50306091D01*
X25746658Y-50306087D01*
X25727761Y-50260466D01*
X25690087Y-50169511D01*
X25690080Y-50169498D01*
X25607951Y-50046584D01*
X25607948Y-50046580D01*
X25503419Y-49942051D01*
X25503415Y-49942048D01*
X25380501Y-49859919D01*
X25380488Y-49859912D01*
X25243917Y-49803343D01*
X25243907Y-49803340D01*
X25098920Y-49774500D01*
X25098918Y-49774500D01*
X24951082Y-49774500D01*
X24951080Y-49774500D01*
X24806092Y-49803340D01*
X24806082Y-49803343D01*
X24669511Y-49859912D01*
X24669498Y-49859919D01*
X24546584Y-49942048D01*
X24546580Y-49942051D01*
X24442051Y-50046580D01*
X24442048Y-50046584D01*
X24359919Y-50169498D01*
X24359912Y-50169511D01*
X24303343Y-50306082D01*
X24303340Y-50306092D01*
X24274500Y-50451079D01*
X24274500Y-50451082D01*
X24274500Y-50598918D01*
X24274500Y-50598920D01*
X24274499Y-50598920D01*
X23275500Y-50598920D01*
X23275500Y-50598918D01*
X23275500Y-50451082D01*
X23275500Y-50451079D01*
X23246659Y-50306092D01*
X23246658Y-50306091D01*
X23246658Y-50306087D01*
X23227761Y-50260466D01*
X23190087Y-50169511D01*
X23190080Y-50169498D01*
X23107951Y-50046584D01*
X23107948Y-50046580D01*
X23003419Y-49942051D01*
X23003415Y-49942048D01*
X22880501Y-49859919D01*
X22880488Y-49859912D01*
X22743917Y-49803343D01*
X22743907Y-49803340D01*
X22607873Y-49776281D01*
X22545962Y-49743896D01*
X22511388Y-49683180D01*
X22515128Y-49613411D01*
X22544382Y-49566984D01*
X22607951Y-49503416D01*
X22690084Y-49380495D01*
X22746658Y-49243913D01*
X22775500Y-49098920D01*
X23274499Y-49098920D01*
X23303340Y-49243907D01*
X23303343Y-49243917D01*
X23359912Y-49380488D01*
X23359919Y-49380501D01*
X23442048Y-49503415D01*
X23442051Y-49503419D01*
X23546580Y-49607948D01*
X23546584Y-49607951D01*
X23669498Y-49690080D01*
X23669511Y-49690087D01*
X23806082Y-49746656D01*
X23806087Y-49746658D01*
X23806091Y-49746658D01*
X23806092Y-49746659D01*
X23951079Y-49775500D01*
X23951082Y-49775500D01*
X24098920Y-49775500D01*
X24207350Y-49753931D01*
X24243913Y-49746658D01*
X24380495Y-49690084D01*
X24503416Y-49607951D01*
X24607951Y-49503416D01*
X24690084Y-49380495D01*
X24746658Y-49243913D01*
X24775500Y-49098920D01*
X27274499Y-49098920D01*
X27303340Y-49243907D01*
X27303343Y-49243917D01*
X27359912Y-49380488D01*
X27359919Y-49380501D01*
X27442048Y-49503415D01*
X27442051Y-49503419D01*
X27546580Y-49607948D01*
X27546584Y-49607951D01*
X27669498Y-49690080D01*
X27669511Y-49690087D01*
X27806082Y-49746656D01*
X27806087Y-49746658D01*
X27806091Y-49746658D01*
X27806092Y-49746659D01*
X27951079Y-49775500D01*
X27951082Y-49775500D01*
X28098920Y-49775500D01*
X28207350Y-49753931D01*
X28243913Y-49746658D01*
X28380495Y-49690084D01*
X28503416Y-49607951D01*
X28607951Y-49503416D01*
X28690084Y-49380495D01*
X28746658Y-49243913D01*
X28775500Y-49098918D01*
X28775500Y-48951082D01*
X28775500Y-48951079D01*
X28746659Y-48806092D01*
X28746658Y-48806091D01*
X28746658Y-48806087D01*
X28731746Y-48770086D01*
X28690087Y-48669511D01*
X28690080Y-48669498D01*
X28607951Y-48546584D01*
X28607948Y-48546580D01*
X28503419Y-48442051D01*
X28503415Y-48442048D01*
X28380501Y-48359919D01*
X28380488Y-48359912D01*
X28243917Y-48303343D01*
X28243907Y-48303340D01*
X28098920Y-48274500D01*
X28098918Y-48274500D01*
X27951082Y-48274500D01*
X27951080Y-48274500D01*
X27806092Y-48303340D01*
X27806082Y-48303343D01*
X27669511Y-48359912D01*
X27669498Y-48359919D01*
X27546584Y-48442048D01*
X27546580Y-48442051D01*
X27442051Y-48546580D01*
X27442048Y-48546584D01*
X27359919Y-48669498D01*
X27359912Y-48669511D01*
X27303343Y-48806082D01*
X27303340Y-48806092D01*
X27274500Y-48951079D01*
X27274500Y-48951082D01*
X27274500Y-49098918D01*
X27274500Y-49098920D01*
X27274499Y-49098920D01*
X24775500Y-49098920D01*
X24775500Y-49098918D01*
X24775500Y-48951082D01*
X24775500Y-48951079D01*
X24746659Y-48806092D01*
X24746658Y-48806091D01*
X24746658Y-48806087D01*
X24731746Y-48770086D01*
X24690087Y-48669511D01*
X24690080Y-48669498D01*
X24607951Y-48546584D01*
X24607948Y-48546580D01*
X24503419Y-48442051D01*
X24503415Y-48442048D01*
X24380501Y-48359919D01*
X24380488Y-48359912D01*
X24243917Y-48303343D01*
X24243907Y-48303340D01*
X24098920Y-48274500D01*
X24098918Y-48274500D01*
X23951082Y-48274500D01*
X23951080Y-48274500D01*
X23806092Y-48303340D01*
X23806082Y-48303343D01*
X23669511Y-48359912D01*
X23669498Y-48359919D01*
X23546584Y-48442048D01*
X23546580Y-48442051D01*
X23442051Y-48546580D01*
X23442048Y-48546584D01*
X23359919Y-48669498D01*
X23359912Y-48669511D01*
X23303343Y-48806082D01*
X23303340Y-48806092D01*
X23274500Y-48951079D01*
X23274500Y-48951082D01*
X23274500Y-49098918D01*
X23274500Y-49098920D01*
X23274499Y-49098920D01*
X22775500Y-49098920D01*
X22775500Y-49098918D01*
X22775500Y-48951082D01*
X22775500Y-48951079D01*
X22746659Y-48806092D01*
X22746658Y-48806091D01*
X22746658Y-48806087D01*
X22731746Y-48770086D01*
X22690087Y-48669511D01*
X22690080Y-48669498D01*
X22607951Y-48546584D01*
X22607948Y-48546580D01*
X22503419Y-48442051D01*
X22503415Y-48442048D01*
X22380501Y-48359919D01*
X22380488Y-48359912D01*
X22243917Y-48303343D01*
X22243907Y-48303340D01*
X22098920Y-48274500D01*
X22098918Y-48274500D01*
X21951082Y-48274500D01*
X21951080Y-48274500D01*
X21806092Y-48303340D01*
X21806082Y-48303343D01*
X21669511Y-48359912D01*
X21669498Y-48359919D01*
X21546584Y-48442048D01*
X21546580Y-48442051D01*
X21442051Y-48546580D01*
X21442048Y-48546584D01*
X21359919Y-48669498D01*
X21359912Y-48669511D01*
X21303343Y-48806082D01*
X21303340Y-48806092D01*
X21274500Y-48951079D01*
X21274500Y-48951082D01*
X21274500Y-49098918D01*
X21274500Y-49098920D01*
X21274499Y-49098920D01*
X13303959Y-49098920D01*
X13225643Y-47211868D01*
X13242530Y-47144072D01*
X13261855Y-47119047D01*
X13341789Y-47039113D01*
X13401099Y-46936386D01*
X13431800Y-46821809D01*
X13431800Y-46703191D01*
X13401099Y-46588614D01*
X13341789Y-46485887D01*
X13257913Y-46402011D01*
X13155186Y-46342701D01*
X13040609Y-46312000D01*
X12921991Y-46312000D01*
X12807414Y-46342701D01*
X12807412Y-46342701D01*
X12807412Y-46342702D01*
X12704687Y-46402011D01*
X12704684Y-46402013D01*
X12620813Y-46485884D01*
X12620811Y-46485887D01*
X12561501Y-46588614D01*
X12530800Y-46703191D01*
X12530800Y-46821809D01*
X12561501Y-46936386D01*
X12620811Y-47039113D01*
X12704687Y-47122989D01*
X12713116Y-47127855D01*
X12761333Y-47178421D01*
X12775012Y-47230102D01*
X12826088Y-48460816D01*
X12809201Y-48528614D01*
X12758339Y-48576519D01*
X12689653Y-48589322D01*
X12624948Y-48562957D01*
X12612479Y-48550670D01*
X12612259Y-48550891D01*
X12503419Y-48442051D01*
X12503415Y-48442048D01*
X12380501Y-48359919D01*
X12380488Y-48359912D01*
X12243917Y-48303343D01*
X12243907Y-48303340D01*
X12098920Y-48274500D01*
X12098918Y-48274500D01*
X11951082Y-48274500D01*
X11951080Y-48274500D01*
X11806092Y-48303340D01*
X11806091Y-48303341D01*
X11806090Y-48303341D01*
X11806087Y-48303342D01*
X11747677Y-48327536D01*
X11721311Y-48338457D01*
X11651841Y-48345925D01*
X11589362Y-48314649D01*
X11586178Y-48311576D01*
X11510315Y-48235713D01*
X11510313Y-48235711D01*
X11407586Y-48176401D01*
X11293009Y-48145700D01*
X11174391Y-48145700D01*
X11059814Y-48176401D01*
X11059812Y-48176401D01*
X11059812Y-48176402D01*
X10957087Y-48235711D01*
X10957084Y-48235713D01*
X10873213Y-48319584D01*
X10873211Y-48319587D01*
X10813900Y-48422314D01*
X10813900Y-48422315D01*
X10799704Y-48475295D01*
X10763339Y-48534955D01*
X10700492Y-48565483D01*
X10631116Y-48557188D01*
X10592249Y-48530881D01*
X10503419Y-48442051D01*
X10503415Y-48442048D01*
X10380501Y-48359919D01*
X10380488Y-48359912D01*
X10243917Y-48303343D01*
X10243907Y-48303340D01*
X10098920Y-48274500D01*
X10098918Y-48274500D01*
X9951082Y-48274500D01*
X9951080Y-48274500D01*
X9806092Y-48303340D01*
X9806082Y-48303343D01*
X9669511Y-48359912D01*
X9669498Y-48359919D01*
X9546584Y-48442048D01*
X9546580Y-48442051D01*
X9462181Y-48526451D01*
X9400858Y-48559936D01*
X9331166Y-48554952D01*
X9275233Y-48513080D01*
X9250816Y-48447616D01*
X9250500Y-48438770D01*
X9250500Y-45965691D01*
X9574500Y-45965691D01*
X9574500Y-46084309D01*
X9605201Y-46198886D01*
X9664511Y-46301613D01*
X9748387Y-46385489D01*
X9851114Y-46444799D01*
X9965691Y-46475500D01*
X9965694Y-46475500D01*
X10084306Y-46475500D01*
X10084309Y-46475500D01*
X10198886Y-46444799D01*
X10262999Y-46407782D01*
X10330898Y-46391309D01*
X10386999Y-46407782D01*
X10451114Y-46444799D01*
X10565691Y-46475500D01*
X10565694Y-46475500D01*
X10684306Y-46475500D01*
X10684309Y-46475500D01*
X10798886Y-46444799D01*
X10901613Y-46385489D01*
X10985489Y-46301613D01*
X11044799Y-46198886D01*
X11075500Y-46084309D01*
X11075500Y-45965691D01*
X11044799Y-45851114D01*
X10985489Y-45748387D01*
X10901613Y-45664511D01*
X10798886Y-45605201D01*
X10684309Y-45574500D01*
X10565691Y-45574500D01*
X10460505Y-45602684D01*
X10451110Y-45605202D01*
X10387000Y-45642217D01*
X10319100Y-45658690D01*
X10263000Y-45642217D01*
X10198889Y-45605202D01*
X10198890Y-45605202D01*
X10189494Y-45602684D01*
X10084309Y-45574500D01*
X9965691Y-45574500D01*
X9851114Y-45605201D01*
X9851112Y-45605201D01*
X9851112Y-45605202D01*
X9748387Y-45664511D01*
X9748384Y-45664513D01*
X9664513Y-45748384D01*
X9664511Y-45748387D01*
X9605201Y-45851114D01*
X9574500Y-45965691D01*
X9250500Y-45965691D01*
X9250500Y-45440691D01*
X36749500Y-45440691D01*
X36749500Y-45559309D01*
X36780201Y-45673886D01*
X36839511Y-45776613D01*
X36923387Y-45860489D01*
X37026114Y-45919799D01*
X37140691Y-45950500D01*
X37140694Y-45950500D01*
X37259306Y-45950500D01*
X37259309Y-45950500D01*
X37373886Y-45919799D01*
X37476613Y-45860489D01*
X37560489Y-45776613D01*
X37619799Y-45673886D01*
X37650500Y-45559309D01*
X37650500Y-45440691D01*
X37619799Y-45326114D01*
X37560489Y-45223387D01*
X37476613Y-45139511D01*
X37373886Y-45080201D01*
X37259309Y-45049500D01*
X37140691Y-45049500D01*
X37026114Y-45080201D01*
X37026112Y-45080201D01*
X37026112Y-45080202D01*
X36923387Y-45139511D01*
X36923384Y-45139513D01*
X36839513Y-45223384D01*
X36839511Y-45223387D01*
X36780201Y-45326114D01*
X36749500Y-45440691D01*
X9250500Y-45440691D01*
X9250500Y-44765691D01*
X10174500Y-44765691D01*
X10174500Y-44884309D01*
X10205201Y-44998886D01*
X10264511Y-45101613D01*
X10348387Y-45185489D01*
X10451114Y-45244799D01*
X10565691Y-45275500D01*
X10565694Y-45275500D01*
X10684306Y-45275500D01*
X10684309Y-45275500D01*
X10798886Y-45244799D01*
X10901613Y-45185489D01*
X10985489Y-45101613D01*
X11044799Y-44998886D01*
X11075500Y-44884309D01*
X11075500Y-44765691D01*
X11044799Y-44651114D01*
X10985489Y-44548387D01*
X10901613Y-44464511D01*
X10798886Y-44405201D01*
X10684309Y-44374500D01*
X10565691Y-44374500D01*
X10451114Y-44405201D01*
X10451112Y-44405201D01*
X10451112Y-44405202D01*
X10348387Y-44464511D01*
X10348384Y-44464513D01*
X10264513Y-44548384D01*
X10264511Y-44548387D01*
X10205201Y-44651114D01*
X10174500Y-44765691D01*
X9250500Y-44765691D01*
X9250500Y-43971691D01*
X40960500Y-43971691D01*
X40960500Y-44090309D01*
X40991201Y-44204886D01*
X41050511Y-44307613D01*
X41134387Y-44391489D01*
X41237114Y-44450799D01*
X41351691Y-44481500D01*
X41351694Y-44481500D01*
X41470306Y-44481500D01*
X41470309Y-44481500D01*
X41584886Y-44450799D01*
X41687613Y-44391489D01*
X41771489Y-44307613D01*
X41830799Y-44204886D01*
X41861500Y-44090309D01*
X41861500Y-43971691D01*
X41830799Y-43857114D01*
X41771489Y-43754387D01*
X41687613Y-43670511D01*
X41584886Y-43611201D01*
X41470309Y-43580500D01*
X41351691Y-43580500D01*
X41237114Y-43611201D01*
X41237112Y-43611201D01*
X41237112Y-43611202D01*
X41134387Y-43670511D01*
X41134384Y-43670513D01*
X41050513Y-43754384D01*
X41050511Y-43754387D01*
X40991201Y-43857114D01*
X40960500Y-43971691D01*
X9250500Y-43971691D01*
X9250500Y-43440691D01*
X36724500Y-43440691D01*
X36724500Y-43559309D01*
X36755201Y-43673886D01*
X36814511Y-43776613D01*
X36898387Y-43860489D01*
X37001114Y-43919799D01*
X37115691Y-43950500D01*
X37115694Y-43950500D01*
X37234306Y-43950500D01*
X37234309Y-43950500D01*
X37348886Y-43919799D01*
X37451613Y-43860489D01*
X37535489Y-43776613D01*
X37594799Y-43673886D01*
X37625500Y-43559309D01*
X37625500Y-43440691D01*
X37594799Y-43326114D01*
X37535489Y-43223387D01*
X37451613Y-43139511D01*
X37348886Y-43080201D01*
X37234309Y-43049500D01*
X37115691Y-43049500D01*
X37001114Y-43080201D01*
X37001112Y-43080201D01*
X37001112Y-43080202D01*
X36898387Y-43139511D01*
X36898384Y-43139513D01*
X36814513Y-43223384D01*
X36814511Y-43223387D01*
X36755201Y-43326114D01*
X36724500Y-43440691D01*
X9250500Y-43440691D01*
X9250500Y-41440691D01*
X24904500Y-41440691D01*
X24904500Y-41559309D01*
X24935201Y-41673886D01*
X24994511Y-41776613D01*
X25078387Y-41860489D01*
X25181114Y-41919799D01*
X25295691Y-41950500D01*
X25295694Y-41950500D01*
X25414306Y-41950500D01*
X25414309Y-41950500D01*
X25528886Y-41919799D01*
X25631613Y-41860489D01*
X25715489Y-41776613D01*
X25774799Y-41673886D01*
X25805500Y-41559309D01*
X25805500Y-41440691D01*
X32924500Y-41440691D01*
X32924500Y-41559309D01*
X32955201Y-41673886D01*
X33014511Y-41776613D01*
X33098387Y-41860489D01*
X33201114Y-41919799D01*
X33315691Y-41950500D01*
X33315694Y-41950500D01*
X33434306Y-41950500D01*
X33434309Y-41950500D01*
X33548886Y-41919799D01*
X33651613Y-41860489D01*
X33735489Y-41776613D01*
X33794799Y-41673886D01*
X33825500Y-41559309D01*
X33825500Y-41440691D01*
X38374500Y-41440691D01*
X38374500Y-41559309D01*
X38405201Y-41673886D01*
X38464511Y-41776613D01*
X38548387Y-41860489D01*
X38651114Y-41919799D01*
X38765691Y-41950500D01*
X38765694Y-41950500D01*
X38884306Y-41950500D01*
X38884309Y-41950500D01*
X38998886Y-41919799D01*
X39101613Y-41860489D01*
X39185489Y-41776613D01*
X39244799Y-41673886D01*
X39275500Y-41559309D01*
X39275500Y-41440691D01*
X39244799Y-41326114D01*
X39185489Y-41223387D01*
X39101613Y-41139511D01*
X38998886Y-41080201D01*
X38884309Y-41049500D01*
X38765691Y-41049500D01*
X38651114Y-41080201D01*
X38651112Y-41080201D01*
X38651112Y-41080202D01*
X38548387Y-41139511D01*
X38548384Y-41139513D01*
X38464513Y-41223384D01*
X38464511Y-41223387D01*
X38405201Y-41326114D01*
X38374500Y-41440691D01*
X33825500Y-41440691D01*
X33794799Y-41326114D01*
X33735489Y-41223387D01*
X33651613Y-41139511D01*
X33548886Y-41080201D01*
X33434309Y-41049500D01*
X33315691Y-41049500D01*
X33201114Y-41080201D01*
X33201112Y-41080201D01*
X33201112Y-41080202D01*
X33098387Y-41139511D01*
X33098384Y-41139513D01*
X33014513Y-41223384D01*
X33014511Y-41223387D01*
X32955201Y-41326114D01*
X32924500Y-41440691D01*
X25805500Y-41440691D01*
X25774799Y-41326114D01*
X25715489Y-41223387D01*
X25631613Y-41139511D01*
X25528886Y-41080201D01*
X25414309Y-41049500D01*
X25295691Y-41049500D01*
X25181114Y-41080201D01*
X25181112Y-41080201D01*
X25181112Y-41080202D01*
X25078387Y-41139511D01*
X25078384Y-41139513D01*
X24994513Y-41223384D01*
X24994511Y-41223387D01*
X24935201Y-41326114D01*
X24904500Y-41440691D01*
X9250500Y-41440691D01*
X9250500Y-40274408D01*
X14819380Y-40274408D01*
X14819380Y-40393026D01*
X14850081Y-40507603D01*
X14909391Y-40610330D01*
X14993267Y-40694206D01*
X15095994Y-40753516D01*
X15210571Y-40784217D01*
X15210574Y-40784217D01*
X15329186Y-40784217D01*
X15329189Y-40784217D01*
X15443766Y-40753516D01*
X15546493Y-40694206D01*
X15630369Y-40610330D01*
X15689679Y-40507603D01*
X15720380Y-40393026D01*
X15720380Y-40274408D01*
X15689679Y-40159831D01*
X15630369Y-40057104D01*
X15546493Y-39973228D01*
X15443766Y-39913918D01*
X15329189Y-39883217D01*
X15210571Y-39883217D01*
X15095994Y-39913918D01*
X15095992Y-39913918D01*
X15095992Y-39913919D01*
X14993267Y-39973228D01*
X14993264Y-39973230D01*
X14909393Y-40057101D01*
X14909391Y-40057104D01*
X14850081Y-40159831D01*
X14819380Y-40274408D01*
X9250500Y-40274408D01*
X9250500Y-39575791D01*
X9896800Y-39575791D01*
X9896800Y-39694409D01*
X9927501Y-39808986D01*
X9986811Y-39911713D01*
X10070687Y-39995589D01*
X10173414Y-40054899D01*
X10287991Y-40085600D01*
X10287994Y-40085600D01*
X10406606Y-40085600D01*
X10406609Y-40085600D01*
X10521186Y-40054899D01*
X10623913Y-39995589D01*
X10707789Y-39911713D01*
X10767099Y-39808986D01*
X10797800Y-39694409D01*
X10797800Y-39575791D01*
X10767099Y-39461214D01*
X10707789Y-39358487D01*
X10623913Y-39274611D01*
X10521186Y-39215301D01*
X10406609Y-39184600D01*
X10287991Y-39184600D01*
X10173414Y-39215301D01*
X10173412Y-39215301D01*
X10173412Y-39215302D01*
X10070687Y-39274611D01*
X10070684Y-39274613D01*
X9986813Y-39358484D01*
X9986811Y-39358487D01*
X9927501Y-39461214D01*
X9896800Y-39575791D01*
X9250500Y-39575791D01*
X9250500Y-38952666D01*
X9270185Y-38885627D01*
X9286814Y-38864990D01*
X10920000Y-37231803D01*
X23952313Y-37231803D01*
X23952313Y-37350421D01*
X23983014Y-37464998D01*
X24042324Y-37567725D01*
X24126200Y-37651601D01*
X24228927Y-37710911D01*
X24343504Y-37741612D01*
X24343507Y-37741612D01*
X24462119Y-37741612D01*
X24462122Y-37741612D01*
X24576699Y-37710911D01*
X24679426Y-37651601D01*
X24740336Y-37590691D01*
X25404500Y-37590691D01*
X25404500Y-37709309D01*
X25435201Y-37823886D01*
X25494511Y-37926613D01*
X25578387Y-38010489D01*
X25612377Y-38030113D01*
X25660592Y-38080681D01*
X25673814Y-38149288D01*
X25647846Y-38214153D01*
X25612378Y-38244886D01*
X25578390Y-38264509D01*
X25578387Y-38264511D01*
X25578384Y-38264513D01*
X25494513Y-38348384D01*
X25494511Y-38348387D01*
X25435201Y-38451114D01*
X25404500Y-38565691D01*
X25404500Y-38684309D01*
X25435201Y-38798886D01*
X25494511Y-38901613D01*
X25578387Y-38985489D01*
X25681114Y-39044799D01*
X25795691Y-39075500D01*
X25795694Y-39075500D01*
X25914306Y-39075500D01*
X25914309Y-39075500D01*
X26028886Y-39044799D01*
X26131613Y-38985489D01*
X26215489Y-38901613D01*
X26274799Y-38798886D01*
X26305500Y-38684309D01*
X26305500Y-38565691D01*
X26274799Y-38451114D01*
X26215489Y-38348387D01*
X26131613Y-38264511D01*
X26097622Y-38244886D01*
X26049408Y-38194320D01*
X26036184Y-38125713D01*
X26062152Y-38060848D01*
X26097621Y-38030113D01*
X26131613Y-38010489D01*
X26215489Y-37926613D01*
X26274799Y-37823886D01*
X26305500Y-37709309D01*
X26305500Y-37590691D01*
X26275138Y-37477378D01*
X26883551Y-37477378D01*
X26883551Y-37595996D01*
X26914252Y-37710573D01*
X26973562Y-37813300D01*
X27057438Y-37897176D01*
X27160165Y-37956486D01*
X27274742Y-37987187D01*
X27274745Y-37987187D01*
X27393357Y-37987187D01*
X27393360Y-37987187D01*
X27497159Y-37959374D01*
X34479500Y-37959374D01*
X34479500Y-38077992D01*
X34510201Y-38192569D01*
X34569511Y-38295296D01*
X34653387Y-38379172D01*
X34756114Y-38438482D01*
X34870691Y-38469183D01*
X34870694Y-38469183D01*
X34989306Y-38469183D01*
X34989309Y-38469183D01*
X35103886Y-38438482D01*
X35206613Y-38379172D01*
X35290489Y-38295296D01*
X35349799Y-38192569D01*
X35380500Y-38077992D01*
X35380500Y-37959374D01*
X35349799Y-37844797D01*
X35304127Y-37765691D01*
X39679500Y-37765691D01*
X39679500Y-37884309D01*
X39710201Y-37998886D01*
X39769511Y-38101613D01*
X39853387Y-38185489D01*
X39956114Y-38244799D01*
X40070691Y-38275500D01*
X40070694Y-38275500D01*
X40189306Y-38275500D01*
X40189309Y-38275500D01*
X40303886Y-38244799D01*
X40406613Y-38185489D01*
X40490489Y-38101613D01*
X40490492Y-38101606D01*
X40492483Y-38099014D01*
X40494725Y-38097376D01*
X40496236Y-38095866D01*
X40496471Y-38096101D01*
X40548911Y-38057811D01*
X40590859Y-38050500D01*
X42969141Y-38050500D01*
X43036180Y-38070185D01*
X43067517Y-38099014D01*
X43069510Y-38101611D01*
X43069511Y-38101613D01*
X43153387Y-38185489D01*
X43256114Y-38244799D01*
X43370691Y-38275500D01*
X43370694Y-38275500D01*
X43489306Y-38275500D01*
X43489309Y-38275500D01*
X43603886Y-38244799D01*
X43706613Y-38185489D01*
X43790489Y-38101613D01*
X43849799Y-37998886D01*
X43880500Y-37884309D01*
X43880500Y-37765691D01*
X43849799Y-37651114D01*
X43790489Y-37548387D01*
X43706613Y-37464511D01*
X43603886Y-37405201D01*
X43489309Y-37374500D01*
X43370691Y-37374500D01*
X43256114Y-37405201D01*
X43256112Y-37405201D01*
X43256112Y-37405202D01*
X43153387Y-37464511D01*
X43153384Y-37464513D01*
X43069512Y-37548385D01*
X43067517Y-37550986D01*
X43065274Y-37552623D01*
X43063764Y-37554134D01*
X43063528Y-37553898D01*
X43011089Y-37592189D01*
X42969141Y-37599500D01*
X40590859Y-37599500D01*
X40523820Y-37579815D01*
X40492483Y-37550986D01*
X40490487Y-37548385D01*
X40406615Y-37464513D01*
X40406613Y-37464511D01*
X40303886Y-37405201D01*
X40189309Y-37374500D01*
X40070691Y-37374500D01*
X39956114Y-37405201D01*
X39956112Y-37405201D01*
X39956112Y-37405202D01*
X39853387Y-37464511D01*
X39853384Y-37464513D01*
X39769513Y-37548384D01*
X39769511Y-37548387D01*
X39745087Y-37590691D01*
X39710201Y-37651114D01*
X39679500Y-37765691D01*
X35304127Y-37765691D01*
X35290489Y-37742070D01*
X35206613Y-37658194D01*
X35103886Y-37598884D01*
X34989309Y-37568183D01*
X34870691Y-37568183D01*
X34756114Y-37598884D01*
X34756112Y-37598884D01*
X34756112Y-37598885D01*
X34653387Y-37658194D01*
X34653384Y-37658196D01*
X34569513Y-37742067D01*
X34569511Y-37742070D01*
X34522274Y-37823887D01*
X34510201Y-37844797D01*
X34479500Y-37959374D01*
X27497159Y-37959374D01*
X27507937Y-37956486D01*
X27610664Y-37897176D01*
X27694540Y-37813300D01*
X27753850Y-37710573D01*
X27784551Y-37595996D01*
X27784551Y-37477378D01*
X27753850Y-37362801D01*
X27694540Y-37260074D01*
X27610664Y-37176198D01*
X27507937Y-37116888D01*
X27393360Y-37086187D01*
X27274742Y-37086187D01*
X27160165Y-37116888D01*
X27160163Y-37116888D01*
X27160163Y-37116889D01*
X27057438Y-37176198D01*
X27057435Y-37176200D01*
X26973564Y-37260071D01*
X26973562Y-37260074D01*
X26959572Y-37284306D01*
X26914252Y-37362801D01*
X26883551Y-37477378D01*
X26275138Y-37477378D01*
X26274799Y-37476114D01*
X26215489Y-37373387D01*
X26131613Y-37289511D01*
X26028886Y-37230201D01*
X25914309Y-37199500D01*
X25795691Y-37199500D01*
X25681114Y-37230201D01*
X25681112Y-37230201D01*
X25681112Y-37230202D01*
X25578387Y-37289511D01*
X25578384Y-37289513D01*
X25494513Y-37373384D01*
X25494511Y-37373387D01*
X25444102Y-37460698D01*
X25435201Y-37476114D01*
X25404500Y-37590691D01*
X24740336Y-37590691D01*
X24763302Y-37567725D01*
X24822612Y-37464998D01*
X24853313Y-37350421D01*
X24853313Y-37231803D01*
X24822612Y-37117226D01*
X24763302Y-37014499D01*
X24679426Y-36930623D01*
X24576699Y-36871313D01*
X24462122Y-36840612D01*
X24343504Y-36840612D01*
X24228927Y-36871313D01*
X24228925Y-36871313D01*
X24228925Y-36871314D01*
X24126200Y-36930623D01*
X24126197Y-36930625D01*
X24042326Y-37014496D01*
X24042324Y-37014499D01*
X23983209Y-37116889D01*
X23983014Y-37117226D01*
X23952313Y-37231803D01*
X10920000Y-37231803D01*
X11786112Y-36365691D01*
X14429500Y-36365691D01*
X14429500Y-36484309D01*
X14460201Y-36598886D01*
X14519511Y-36701613D01*
X14603387Y-36785489D01*
X14706114Y-36844799D01*
X14820691Y-36875500D01*
X14820694Y-36875500D01*
X14939306Y-36875500D01*
X14939309Y-36875500D01*
X15053886Y-36844799D01*
X15156613Y-36785489D01*
X15240489Y-36701613D01*
X15243114Y-36697065D01*
X15293680Y-36648851D01*
X15362287Y-36635627D01*
X15427152Y-36661595D01*
X15467681Y-36718508D01*
X15474501Y-36759066D01*
X15474501Y-36798440D01*
X15505202Y-36913017D01*
X15564512Y-37015744D01*
X15648388Y-37099620D01*
X15751115Y-37158930D01*
X15865692Y-37189631D01*
X15865695Y-37189631D01*
X15984307Y-37189631D01*
X15984310Y-37189631D01*
X16098887Y-37158930D01*
X16201614Y-37099620D01*
X16285490Y-37015744D01*
X16344800Y-36913017D01*
X16375501Y-36798440D01*
X16375501Y-36679822D01*
X16344800Y-36565245D01*
X16328204Y-36536501D01*
X16311731Y-36468602D01*
X16334583Y-36402574D01*
X16389503Y-36359383D01*
X16435591Y-36350500D01*
X19219141Y-36350500D01*
X19286180Y-36370185D01*
X19317517Y-36399014D01*
X19319510Y-36401611D01*
X19319511Y-36401613D01*
X19403387Y-36485489D01*
X19506114Y-36544799D01*
X19620691Y-36575500D01*
X19620694Y-36575500D01*
X19739306Y-36575500D01*
X19739309Y-36575500D01*
X19853886Y-36544799D01*
X19956613Y-36485489D01*
X20040489Y-36401613D01*
X20099799Y-36298886D01*
X20130500Y-36184309D01*
X20130500Y-36065691D01*
X20099799Y-35951114D01*
X20091361Y-35936500D01*
X20074889Y-35868601D01*
X20097741Y-35802574D01*
X20152662Y-35759383D01*
X20198749Y-35750500D01*
X25483595Y-35750500D01*
X25550634Y-35770185D01*
X25596389Y-35822989D01*
X25606333Y-35892147D01*
X25577308Y-35955703D01*
X25571276Y-35962181D01*
X25565320Y-35968136D01*
X25565318Y-35968139D01*
X25506008Y-36070866D01*
X25475307Y-36185443D01*
X25475307Y-36304061D01*
X25506008Y-36418638D01*
X25565318Y-36521365D01*
X25649194Y-36605241D01*
X25751921Y-36664551D01*
X25866498Y-36695252D01*
X25866501Y-36695252D01*
X25985113Y-36695252D01*
X25985116Y-36695252D01*
X26099693Y-36664551D01*
X26202420Y-36605241D01*
X26286296Y-36521365D01*
X26345606Y-36418638D01*
X26376307Y-36304061D01*
X26376307Y-36185443D01*
X26345606Y-36070866D01*
X26286296Y-35968139D01*
X26280338Y-35962181D01*
X26246853Y-35900858D01*
X26251837Y-35831166D01*
X26293709Y-35775233D01*
X26359173Y-35750816D01*
X26368019Y-35750500D01*
X26419141Y-35750500D01*
X26486180Y-35770185D01*
X26517517Y-35799014D01*
X26519510Y-35801611D01*
X26519511Y-35801613D01*
X26603387Y-35885489D01*
X26706114Y-35944799D01*
X26820691Y-35975500D01*
X26820694Y-35975500D01*
X26939306Y-35975500D01*
X26939309Y-35975500D01*
X27053886Y-35944799D01*
X27156613Y-35885489D01*
X27240489Y-35801613D01*
X27299799Y-35698886D01*
X27330500Y-35584309D01*
X27330500Y-35465691D01*
X27321122Y-35430691D01*
X47182500Y-35430691D01*
X47182500Y-35549309D01*
X47213201Y-35663886D01*
X47272511Y-35766613D01*
X47356387Y-35850489D01*
X47459114Y-35909799D01*
X47573691Y-35940500D01*
X47573694Y-35940500D01*
X47692306Y-35940500D01*
X47692309Y-35940500D01*
X47806886Y-35909799D01*
X47909613Y-35850489D01*
X47993489Y-35766613D01*
X48052799Y-35663886D01*
X48083500Y-35549309D01*
X48083500Y-35430691D01*
X48052799Y-35316114D01*
X47993489Y-35213387D01*
X47909613Y-35129511D01*
X47806886Y-35070201D01*
X47692309Y-35039500D01*
X47573691Y-35039500D01*
X47459114Y-35070201D01*
X47459112Y-35070201D01*
X47459112Y-35070202D01*
X47356387Y-35129511D01*
X47356384Y-35129513D01*
X47272513Y-35213384D01*
X47272511Y-35213387D01*
X47213201Y-35316114D01*
X47182500Y-35430691D01*
X27321122Y-35430691D01*
X27299799Y-35351114D01*
X27240489Y-35248387D01*
X27156613Y-35164511D01*
X27053886Y-35105201D01*
X26939309Y-35074500D01*
X26820691Y-35074500D01*
X26706114Y-35105201D01*
X26706112Y-35105201D01*
X26706112Y-35105202D01*
X26603387Y-35164511D01*
X26603384Y-35164513D01*
X26519512Y-35248385D01*
X26517517Y-35250986D01*
X26515274Y-35252623D01*
X26513764Y-35254134D01*
X26513528Y-35253898D01*
X26461089Y-35292189D01*
X26419141Y-35299500D01*
X20140859Y-35299500D01*
X20073820Y-35279815D01*
X20042483Y-35250986D01*
X20040487Y-35248385D01*
X19956615Y-35164513D01*
X19956613Y-35164511D01*
X19853886Y-35105201D01*
X19739309Y-35074500D01*
X19620691Y-35074500D01*
X19506114Y-35105201D01*
X19506112Y-35105201D01*
X19506112Y-35105202D01*
X19403387Y-35164511D01*
X19349228Y-35218670D01*
X19287904Y-35252154D01*
X19218212Y-35247169D01*
X19162279Y-35205298D01*
X19154161Y-35192989D01*
X19108129Y-35113263D01*
X19108126Y-35113257D01*
X19024250Y-35029381D01*
X18921523Y-34970071D01*
X18806946Y-34939370D01*
X18688328Y-34939370D01*
X18573751Y-34970071D01*
X18573749Y-34970071D01*
X18573749Y-34970072D01*
X18471024Y-35029381D01*
X18471021Y-35029383D01*
X18387150Y-35113254D01*
X18387148Y-35113257D01*
X18334008Y-35205298D01*
X18327838Y-35215984D01*
X18297137Y-35330561D01*
X18297137Y-35449179D01*
X18327838Y-35563756D01*
X18387148Y-35666483D01*
X18387150Y-35666485D01*
X18408484Y-35687819D01*
X18441969Y-35749142D01*
X18436985Y-35818834D01*
X18395113Y-35874767D01*
X18329649Y-35899184D01*
X18320803Y-35899500D01*
X15239297Y-35899500D01*
X15239289Y-35899499D01*
X15224855Y-35899499D01*
X15135145Y-35899499D01*
X15135143Y-35899499D01*
X15110278Y-35909799D01*
X15076539Y-35923774D01*
X15076537Y-35923774D01*
X15052265Y-35933828D01*
X15052260Y-35933831D01*
X15046417Y-35939675D01*
X14985092Y-35973156D01*
X14942562Y-35974928D01*
X14939310Y-35974500D01*
X14939309Y-35974500D01*
X14820691Y-35974500D01*
X14706114Y-36005201D01*
X14706112Y-36005201D01*
X14706112Y-36005202D01*
X14603387Y-36064511D01*
X14603384Y-36064513D01*
X14519513Y-36148384D01*
X14519511Y-36148387D01*
X14498117Y-36185443D01*
X14460201Y-36251114D01*
X14429500Y-36365691D01*
X11786112Y-36365691D01*
X13586112Y-34565691D01*
X29954500Y-34565691D01*
X29954500Y-34684309D01*
X29985201Y-34798886D01*
X30044511Y-34901613D01*
X30128387Y-34985489D01*
X30231114Y-35044799D01*
X30345691Y-35075500D01*
X30345694Y-35075500D01*
X30464306Y-35075500D01*
X30464309Y-35075500D01*
X30578886Y-35044799D01*
X30681613Y-34985489D01*
X30765489Y-34901613D01*
X30765492Y-34901606D01*
X30767483Y-34899014D01*
X30769725Y-34897376D01*
X30771236Y-34895866D01*
X30771471Y-34896101D01*
X30823911Y-34857811D01*
X30865859Y-34850500D01*
X35644141Y-34850500D01*
X35711180Y-34870185D01*
X35742517Y-34899014D01*
X35744510Y-34901611D01*
X35744511Y-34901613D01*
X35828387Y-34985489D01*
X35931114Y-35044799D01*
X36045691Y-35075500D01*
X36045694Y-35075500D01*
X36164306Y-35075500D01*
X36164309Y-35075500D01*
X36278886Y-35044799D01*
X36381613Y-34985489D01*
X36465489Y-34901613D01*
X36524799Y-34798886D01*
X36555500Y-34684309D01*
X36555500Y-34565691D01*
X36524799Y-34451114D01*
X36465489Y-34348387D01*
X36381613Y-34264511D01*
X36278886Y-34205201D01*
X36164309Y-34174500D01*
X36045691Y-34174500D01*
X35931114Y-34205201D01*
X35931112Y-34205201D01*
X35931112Y-34205202D01*
X35828387Y-34264511D01*
X35828384Y-34264513D01*
X35744512Y-34348385D01*
X35742517Y-34350986D01*
X35740274Y-34352623D01*
X35738764Y-34354134D01*
X35738528Y-34353898D01*
X35686089Y-34392189D01*
X35644141Y-34399500D01*
X30865859Y-34399500D01*
X30798820Y-34379815D01*
X30767483Y-34350986D01*
X30765487Y-34348385D01*
X30681615Y-34264513D01*
X30681613Y-34264511D01*
X30578886Y-34205201D01*
X30464309Y-34174500D01*
X30345691Y-34174500D01*
X30231114Y-34205201D01*
X30231112Y-34205201D01*
X30231112Y-34205202D01*
X30128387Y-34264511D01*
X30128384Y-34264513D01*
X30044513Y-34348384D01*
X30044511Y-34348387D01*
X29985201Y-34451114D01*
X29954500Y-34565691D01*
X13586112Y-34565691D01*
X13778376Y-34373427D01*
X13839697Y-34339944D01*
X13882252Y-34338172D01*
X13885482Y-34338597D01*
X13885491Y-34338600D01*
X13885500Y-34338600D01*
X14004106Y-34338600D01*
X14004109Y-34338600D01*
X14118686Y-34307899D01*
X14221413Y-34248589D01*
X14305289Y-34164713D01*
X14364599Y-34061986D01*
X14395300Y-33947409D01*
X14395300Y-33828791D01*
X14364599Y-33714214D01*
X14305289Y-33611487D01*
X14221413Y-33527611D01*
X14118686Y-33468301D01*
X14004109Y-33437600D01*
X13885491Y-33437600D01*
X13770914Y-33468301D01*
X13770912Y-33468301D01*
X13770912Y-33468302D01*
X13668187Y-33527611D01*
X13668184Y-33527613D01*
X13584313Y-33611484D01*
X13584311Y-33611487D01*
X13548285Y-33673886D01*
X13525001Y-33714214D01*
X13494300Y-33828791D01*
X13494300Y-33828793D01*
X13494300Y-33947411D01*
X13494728Y-33950664D01*
X13494300Y-33953407D01*
X13494300Y-33955536D01*
X13493968Y-33955536D01*
X13483959Y-34019699D01*
X13459469Y-34054524D01*
X8897265Y-38616729D01*
X8833830Y-38680163D01*
X8833830Y-38680165D01*
X8799499Y-38763044D01*
X8799499Y-38867188D01*
X8799500Y-38867197D01*
X8799500Y-48438770D01*
X8779815Y-48505809D01*
X8727011Y-48551564D01*
X8657853Y-48561508D01*
X8594297Y-48532483D01*
X8587819Y-48526451D01*
X8503419Y-48442051D01*
X8503415Y-48442048D01*
X8380501Y-48359919D01*
X8380488Y-48359912D01*
X8243917Y-48303343D01*
X8243907Y-48303340D01*
X8098920Y-48274500D01*
X8098918Y-48274500D01*
X7951082Y-48274500D01*
X7951080Y-48274500D01*
X7806092Y-48303340D01*
X7806082Y-48303343D01*
X7669511Y-48359912D01*
X7669498Y-48359919D01*
X7546584Y-48442048D01*
X7546580Y-48442051D01*
X7442051Y-48546580D01*
X7442048Y-48546584D01*
X7359919Y-48669498D01*
X7359912Y-48669511D01*
X7303343Y-48806082D01*
X7303340Y-48806092D01*
X7274500Y-48951079D01*
X7274500Y-48951082D01*
X7274500Y-49098918D01*
X7274500Y-49098920D01*
X7274499Y-49098920D01*
X7303340Y-49243907D01*
X7303343Y-49243917D01*
X7359912Y-49380488D01*
X7359919Y-49380501D01*
X7442048Y-49503415D01*
X7442051Y-49503419D01*
X7546580Y-49607948D01*
X7546588Y-49607954D01*
X7669494Y-49690077D01*
X7669497Y-49690078D01*
X7669505Y-49690084D01*
X7722955Y-49712223D01*
X7777355Y-49756062D01*
X7799421Y-49822356D01*
X7799500Y-49826783D01*
X7799500Y-49938770D01*
X7779815Y-50005809D01*
X7727011Y-50051564D01*
X7657853Y-50061508D01*
X7594297Y-50032483D01*
X7587819Y-50026451D01*
X7503419Y-49942051D01*
X7503415Y-49942048D01*
X7380501Y-49859919D01*
X7380488Y-49859912D01*
X7243917Y-49803343D01*
X7243907Y-49803340D01*
X7098920Y-49774500D01*
X7098918Y-49774500D01*
X6951082Y-49774500D01*
X6951080Y-49774500D01*
X6806092Y-49803340D01*
X6806082Y-49803343D01*
X6669511Y-49859912D01*
X6669498Y-49859919D01*
X6546584Y-49942048D01*
X6546580Y-49942051D01*
X6442051Y-50046580D01*
X6442048Y-50046584D01*
X6359919Y-50169498D01*
X6359912Y-50169511D01*
X6303343Y-50306082D01*
X6303340Y-50306092D01*
X6274500Y-50451079D01*
X6274500Y-50451082D01*
X6274500Y-50598918D01*
X6274500Y-50598920D01*
X6274499Y-50598920D01*
X5275500Y-50598920D01*
X5275500Y-50598918D01*
X5275500Y-50451082D01*
X5275500Y-50451079D01*
X5246659Y-50306092D01*
X5246658Y-50306091D01*
X5246658Y-50306087D01*
X5227761Y-50260466D01*
X5190087Y-50169511D01*
X5190080Y-50169498D01*
X5107951Y-50046584D01*
X5107948Y-50046580D01*
X5003419Y-49942051D01*
X5003415Y-49942048D01*
X4880501Y-49859919D01*
X4880488Y-49859912D01*
X4743917Y-49803343D01*
X4743907Y-49803340D01*
X4607873Y-49776281D01*
X4545962Y-49743896D01*
X4511388Y-49683180D01*
X4515128Y-49613411D01*
X4544382Y-49566984D01*
X4607951Y-49503416D01*
X4690084Y-49380495D01*
X4746658Y-49243913D01*
X4775500Y-49098920D01*
X5274499Y-49098920D01*
X5303340Y-49243907D01*
X5303343Y-49243917D01*
X5359912Y-49380488D01*
X5359919Y-49380501D01*
X5442048Y-49503415D01*
X5442051Y-49503419D01*
X5546580Y-49607948D01*
X5546584Y-49607951D01*
X5669498Y-49690080D01*
X5669511Y-49690087D01*
X5806082Y-49746656D01*
X5806087Y-49746658D01*
X5806091Y-49746658D01*
X5806092Y-49746659D01*
X5951079Y-49775500D01*
X5951082Y-49775500D01*
X6098920Y-49775500D01*
X6207350Y-49753931D01*
X6243913Y-49746658D01*
X6380495Y-49690084D01*
X6503416Y-49607951D01*
X6607951Y-49503416D01*
X6690084Y-49380495D01*
X6746658Y-49243913D01*
X6775500Y-49098918D01*
X6775500Y-48951082D01*
X6775500Y-48951079D01*
X6746659Y-48806092D01*
X6746658Y-48806091D01*
X6746658Y-48806087D01*
X6731746Y-48770086D01*
X6690087Y-48669511D01*
X6690080Y-48669498D01*
X6607951Y-48546584D01*
X6607948Y-48546580D01*
X6503419Y-48442051D01*
X6503415Y-48442048D01*
X6380501Y-48359919D01*
X6380488Y-48359912D01*
X6243917Y-48303343D01*
X6243907Y-48303340D01*
X6098920Y-48274500D01*
X6098918Y-48274500D01*
X5951082Y-48274500D01*
X5951080Y-48274500D01*
X5806092Y-48303340D01*
X5806082Y-48303343D01*
X5669511Y-48359912D01*
X5669498Y-48359919D01*
X5546584Y-48442048D01*
X5546580Y-48442051D01*
X5442051Y-48546580D01*
X5442048Y-48546584D01*
X5359919Y-48669498D01*
X5359912Y-48669511D01*
X5303343Y-48806082D01*
X5303340Y-48806092D01*
X5274500Y-48951079D01*
X5274500Y-48951082D01*
X5274500Y-49098918D01*
X5274500Y-49098920D01*
X5274499Y-49098920D01*
X4775500Y-49098920D01*
X4775500Y-49098918D01*
X4775500Y-48951082D01*
X4775500Y-48951079D01*
X4746659Y-48806092D01*
X4746658Y-48806091D01*
X4746658Y-48806087D01*
X4731746Y-48770086D01*
X4690087Y-48669511D01*
X4690080Y-48669498D01*
X4607951Y-48546584D01*
X4607948Y-48546580D01*
X4503419Y-48442051D01*
X4503415Y-48442048D01*
X4380501Y-48359919D01*
X4380488Y-48359912D01*
X4243917Y-48303343D01*
X4243907Y-48303340D01*
X4098920Y-48274500D01*
X4098918Y-48274500D01*
X3951082Y-48274500D01*
X3951080Y-48274500D01*
X3806092Y-48303340D01*
X3806082Y-48303343D01*
X3669511Y-48359912D01*
X3669498Y-48359919D01*
X3546584Y-48442048D01*
X3546580Y-48442051D01*
X3442051Y-48546580D01*
X3442048Y-48546584D01*
X3359919Y-48669498D01*
X3359912Y-48669511D01*
X3303343Y-48806082D01*
X3303340Y-48806092D01*
X3274500Y-48951079D01*
X3274500Y-48951082D01*
X3274500Y-49098918D01*
X3274500Y-49098920D01*
X3274499Y-49098920D01*
X500500Y-49098920D01*
X500500Y-38665691D01*
X2924500Y-38665691D01*
X2924500Y-38784309D01*
X2955201Y-38898886D01*
X3014511Y-39001613D01*
X3098387Y-39085489D01*
X3201114Y-39144799D01*
X3315691Y-39175500D01*
X3315694Y-39175500D01*
X3434306Y-39175500D01*
X3434309Y-39175500D01*
X3548886Y-39144799D01*
X3651613Y-39085489D01*
X3735489Y-39001613D01*
X3794799Y-38898886D01*
X3825500Y-38784309D01*
X3825500Y-38665691D01*
X3794799Y-38551114D01*
X3735489Y-38448387D01*
X3651613Y-38364511D01*
X3548886Y-38305201D01*
X3434309Y-38274500D01*
X3315691Y-38274500D01*
X3201114Y-38305201D01*
X3201112Y-38305201D01*
X3201112Y-38305202D01*
X3098387Y-38364511D01*
X3098384Y-38364513D01*
X3014513Y-38448384D01*
X3014511Y-38448387D01*
X2955201Y-38551114D01*
X2924500Y-38665691D01*
X500500Y-38665691D01*
X500500Y-37180146D01*
X2249500Y-37180146D01*
X2249500Y-37269853D01*
X2249501Y-37269858D01*
X2283827Y-37352733D01*
X2283830Y-37352736D01*
X2347264Y-37416170D01*
X2347267Y-37416171D01*
X2352394Y-37419597D01*
X2390887Y-37460696D01*
X2414511Y-37501613D01*
X2498387Y-37585489D01*
X2601114Y-37644799D01*
X2715691Y-37675500D01*
X2715694Y-37675500D01*
X2834306Y-37675500D01*
X2834309Y-37675500D01*
X2948886Y-37644799D01*
X3051613Y-37585489D01*
X3135489Y-37501613D01*
X3194799Y-37398886D01*
X3225500Y-37284309D01*
X3225500Y-37165691D01*
X3194799Y-37051114D01*
X3135489Y-36948387D01*
X3051613Y-36864511D01*
X3051611Y-36864510D01*
X3051609Y-36864508D01*
X3011558Y-36841385D01*
X2948886Y-36805201D01*
X2834309Y-36774500D01*
X2715691Y-36774500D01*
X2601114Y-36805201D01*
X2601112Y-36805201D01*
X2601112Y-36805202D01*
X2498387Y-36864510D01*
X2414509Y-36948388D01*
X2390886Y-36989303D01*
X2352397Y-37030398D01*
X2347269Y-37033824D01*
X2283827Y-37097267D01*
X2249501Y-37180141D01*
X2249500Y-37180146D01*
X500500Y-37180146D01*
X500500Y-36742125D01*
X4024962Y-36742125D01*
X4024962Y-36860743D01*
X4055663Y-36975320D01*
X4114973Y-37078047D01*
X4198849Y-37161923D01*
X4301576Y-37221233D01*
X4416153Y-37251934D01*
X4416156Y-37251934D01*
X4534768Y-37251934D01*
X4534771Y-37251934D01*
X4649348Y-37221233D01*
X4752075Y-37161923D01*
X4835951Y-37078047D01*
X4895261Y-36975320D01*
X4925962Y-36860743D01*
X4925962Y-36742125D01*
X4895261Y-36627548D01*
X4835951Y-36524821D01*
X4752075Y-36440945D01*
X4649348Y-36381635D01*
X4534771Y-36350934D01*
X4416153Y-36350934D01*
X4301576Y-36381635D01*
X4301574Y-36381635D01*
X4301574Y-36381636D01*
X4198849Y-36440945D01*
X4198846Y-36440947D01*
X4114975Y-36524818D01*
X4114973Y-36524821D01*
X4072211Y-36598887D01*
X4055663Y-36627548D01*
X4024962Y-36742125D01*
X500500Y-36742125D01*
X500500Y-35740691D01*
X1499500Y-35740691D01*
X1499500Y-35859309D01*
X1530201Y-35973886D01*
X1589511Y-36076613D01*
X1673387Y-36160489D01*
X1776114Y-36219799D01*
X1890691Y-36250500D01*
X1890694Y-36250500D01*
X2009306Y-36250500D01*
X2009309Y-36250500D01*
X2123886Y-36219799D01*
X2226613Y-36160489D01*
X2310489Y-36076613D01*
X2369799Y-35973886D01*
X2400500Y-35859309D01*
X2400500Y-35740691D01*
X2369799Y-35626114D01*
X2310489Y-35523387D01*
X2226613Y-35439511D01*
X2123886Y-35380201D01*
X2009309Y-35349500D01*
X1890691Y-35349500D01*
X1776114Y-35380201D01*
X1776112Y-35380201D01*
X1776112Y-35380202D01*
X1673387Y-35439511D01*
X1673384Y-35439513D01*
X1589513Y-35523384D01*
X1589511Y-35523387D01*
X1574547Y-35549306D01*
X1530201Y-35626114D01*
X1499500Y-35740691D01*
X500500Y-35740691D01*
X500500Y-32632691D01*
X9856500Y-32632691D01*
X9856500Y-32751309D01*
X9887201Y-32865886D01*
X9946511Y-32968613D01*
X10030387Y-33052489D01*
X10133114Y-33111799D01*
X10247691Y-33142500D01*
X10247694Y-33142500D01*
X10366306Y-33142500D01*
X10366309Y-33142500D01*
X10397535Y-33134133D01*
X19526844Y-33134133D01*
X19526844Y-33252751D01*
X19557545Y-33367328D01*
X19616855Y-33470055D01*
X19700731Y-33553931D01*
X19803458Y-33613241D01*
X19918035Y-33643942D01*
X19918038Y-33643942D01*
X20036650Y-33643942D01*
X20036653Y-33643942D01*
X20151230Y-33613241D01*
X20253957Y-33553931D01*
X20337833Y-33470055D01*
X20354786Y-33440691D01*
X22799500Y-33440691D01*
X22799500Y-33559309D01*
X22830201Y-33673886D01*
X22889511Y-33776613D01*
X22973387Y-33860489D01*
X23076114Y-33919799D01*
X23190691Y-33950500D01*
X23190694Y-33950500D01*
X23309306Y-33950500D01*
X23309309Y-33950500D01*
X23423886Y-33919799D01*
X23526613Y-33860489D01*
X23610489Y-33776613D01*
X23669799Y-33673886D01*
X23700500Y-33559309D01*
X23700500Y-33440691D01*
X23669799Y-33326114D01*
X23610489Y-33223387D01*
X23526613Y-33139511D01*
X23423886Y-33080201D01*
X23309309Y-33049500D01*
X23190691Y-33049500D01*
X23076114Y-33080201D01*
X23076112Y-33080201D01*
X23076112Y-33080202D01*
X22973387Y-33139511D01*
X22973384Y-33139513D01*
X22889513Y-33223384D01*
X22889511Y-33223387D01*
X22872558Y-33252751D01*
X22830201Y-33326114D01*
X22799500Y-33440691D01*
X20354786Y-33440691D01*
X20397143Y-33367328D01*
X20427844Y-33252751D01*
X20427844Y-33134133D01*
X20397143Y-33019556D01*
X20337833Y-32916829D01*
X20253957Y-32832953D01*
X20151230Y-32773643D01*
X20036653Y-32742942D01*
X19918035Y-32742942D01*
X19803458Y-32773643D01*
X19803456Y-32773643D01*
X19803456Y-32773644D01*
X19700731Y-32832953D01*
X19700728Y-32832955D01*
X19616857Y-32916826D01*
X19616855Y-32916829D01*
X19557545Y-33019556D01*
X19526844Y-33134133D01*
X10397535Y-33134133D01*
X10480886Y-33111799D01*
X10583613Y-33052489D01*
X10667489Y-32968613D01*
X10726799Y-32865886D01*
X10757500Y-32751309D01*
X10757500Y-32632691D01*
X10726799Y-32518114D01*
X10667489Y-32415387D01*
X10583613Y-32331511D01*
X10480886Y-32272201D01*
X10366309Y-32241500D01*
X10247691Y-32241500D01*
X10133114Y-32272201D01*
X10133112Y-32272201D01*
X10133112Y-32272202D01*
X10030387Y-32331511D01*
X10030384Y-32331513D01*
X9946513Y-32415384D01*
X9946511Y-32415387D01*
X9887201Y-32518114D01*
X9856500Y-32632691D01*
X500500Y-32632691D01*
X500500Y-31465691D01*
X13049500Y-31465691D01*
X13049500Y-31584309D01*
X13080201Y-31698886D01*
X13139511Y-31801613D01*
X13223387Y-31885489D01*
X13326114Y-31944799D01*
X13440691Y-31975500D01*
X13440694Y-31975500D01*
X13559306Y-31975500D01*
X13559309Y-31975500D01*
X13673886Y-31944799D01*
X13776613Y-31885489D01*
X13860489Y-31801613D01*
X13919799Y-31698886D01*
X13950500Y-31584309D01*
X13950500Y-31465691D01*
X18399500Y-31465691D01*
X18399500Y-31584309D01*
X18430201Y-31698886D01*
X18489511Y-31801613D01*
X18573387Y-31885489D01*
X18676114Y-31944799D01*
X18790691Y-31975500D01*
X18790694Y-31975500D01*
X18909306Y-31975500D01*
X18909309Y-31975500D01*
X19023886Y-31944799D01*
X19126613Y-31885489D01*
X19210489Y-31801613D01*
X19269799Y-31698886D01*
X19300500Y-31584309D01*
X19300500Y-31465691D01*
X19269799Y-31351114D01*
X19210489Y-31248387D01*
X19126613Y-31164511D01*
X19023886Y-31105201D01*
X18909309Y-31074500D01*
X18790691Y-31074500D01*
X18676114Y-31105201D01*
X18676112Y-31105201D01*
X18676112Y-31105202D01*
X18573387Y-31164511D01*
X18573384Y-31164513D01*
X18489513Y-31248384D01*
X18489511Y-31248387D01*
X18430201Y-31351114D01*
X18399500Y-31465691D01*
X13950500Y-31465691D01*
X13919799Y-31351114D01*
X13860489Y-31248387D01*
X13776613Y-31164511D01*
X13673886Y-31105201D01*
X13559309Y-31074500D01*
X13440691Y-31074500D01*
X13326114Y-31105201D01*
X13326112Y-31105201D01*
X13326112Y-31105202D01*
X13223387Y-31164511D01*
X13223384Y-31164513D01*
X13139513Y-31248384D01*
X13139511Y-31248387D01*
X13080201Y-31351114D01*
X13049500Y-31465691D01*
X500500Y-31465691D01*
X500500Y-30767012D01*
X8461691Y-30767012D01*
X8461691Y-30885630D01*
X8492392Y-31000207D01*
X8551702Y-31102934D01*
X8635578Y-31186810D01*
X8738305Y-31246120D01*
X8852882Y-31276821D01*
X8852885Y-31276821D01*
X8971497Y-31276821D01*
X8971500Y-31276821D01*
X9086077Y-31246120D01*
X9188804Y-31186810D01*
X9272680Y-31102934D01*
X9331990Y-31000207D01*
X9362691Y-30885630D01*
X9362691Y-30767012D01*
X9335542Y-30665691D01*
X41449500Y-30665691D01*
X41449500Y-30784309D01*
X41480201Y-30898886D01*
X41539511Y-31001613D01*
X41623387Y-31085489D01*
X41726114Y-31144799D01*
X41840691Y-31175500D01*
X41840694Y-31175500D01*
X41959306Y-31175500D01*
X41959309Y-31175500D01*
X42073886Y-31144799D01*
X42176613Y-31085489D01*
X42260489Y-31001613D01*
X42319799Y-30898886D01*
X42350500Y-30784309D01*
X42350500Y-30665691D01*
X44249500Y-30665691D01*
X44249500Y-30784309D01*
X44280201Y-30898886D01*
X44339511Y-31001613D01*
X44423387Y-31085489D01*
X44526114Y-31144799D01*
X44640691Y-31175500D01*
X44640694Y-31175500D01*
X44759306Y-31175500D01*
X44759309Y-31175500D01*
X44873886Y-31144799D01*
X44976613Y-31085489D01*
X45060489Y-31001613D01*
X45119799Y-30898886D01*
X45150500Y-30784309D01*
X45150500Y-30665691D01*
X45119799Y-30551114D01*
X45060489Y-30448387D01*
X44976613Y-30364511D01*
X44873886Y-30305201D01*
X44759309Y-30274500D01*
X44640691Y-30274500D01*
X44526114Y-30305201D01*
X44526112Y-30305201D01*
X44526112Y-30305202D01*
X44423387Y-30364511D01*
X44423384Y-30364513D01*
X44339513Y-30448384D01*
X44339511Y-30448387D01*
X44280743Y-30550176D01*
X44280201Y-30551114D01*
X44249500Y-30665691D01*
X42350500Y-30665691D01*
X42319799Y-30551114D01*
X42260489Y-30448387D01*
X42176613Y-30364511D01*
X42073886Y-30305201D01*
X41959309Y-30274500D01*
X41840691Y-30274500D01*
X41726114Y-30305201D01*
X41726112Y-30305201D01*
X41726112Y-30305202D01*
X41623387Y-30364511D01*
X41623384Y-30364513D01*
X41539513Y-30448384D01*
X41539511Y-30448387D01*
X41480743Y-30550176D01*
X41480201Y-30551114D01*
X41449500Y-30665691D01*
X9335542Y-30665691D01*
X9331990Y-30652435D01*
X9272680Y-30549708D01*
X9188804Y-30465832D01*
X9086077Y-30406522D01*
X8971500Y-30375821D01*
X8852882Y-30375821D01*
X8738305Y-30406522D01*
X8738303Y-30406522D01*
X8738303Y-30406523D01*
X8635578Y-30465832D01*
X8635575Y-30465834D01*
X8551704Y-30549705D01*
X8551702Y-30549708D01*
X8492392Y-30652435D01*
X8461691Y-30767012D01*
X500500Y-30767012D01*
X500500Y-29740691D01*
X1499500Y-29740691D01*
X1499500Y-29859309D01*
X1530201Y-29973886D01*
X1589511Y-30076613D01*
X1673387Y-30160489D01*
X1776114Y-30219799D01*
X1890691Y-30250500D01*
X1890694Y-30250500D01*
X2009306Y-30250500D01*
X2009309Y-30250500D01*
X2123886Y-30219799D01*
X2226613Y-30160489D01*
X2235090Y-30152012D01*
X2733512Y-30152012D01*
X2733512Y-30270630D01*
X2764213Y-30385207D01*
X2823523Y-30487934D01*
X2907399Y-30571810D01*
X3010126Y-30631120D01*
X3124703Y-30661821D01*
X3124706Y-30661821D01*
X3243318Y-30661821D01*
X3243321Y-30661821D01*
X3357898Y-30631120D01*
X3460625Y-30571810D01*
X3544501Y-30487934D01*
X3603811Y-30385207D01*
X3634512Y-30270630D01*
X3634512Y-30152012D01*
X3627014Y-30124031D01*
X20130433Y-30124031D01*
X20130433Y-30242649D01*
X20161134Y-30357226D01*
X20220444Y-30459953D01*
X20304320Y-30543829D01*
X20407047Y-30603139D01*
X20521624Y-30633840D01*
X20521627Y-30633840D01*
X20640239Y-30633840D01*
X20640242Y-30633840D01*
X20754819Y-30603139D01*
X20857546Y-30543829D01*
X20941422Y-30459953D01*
X21000732Y-30357226D01*
X21031433Y-30242649D01*
X21031433Y-30124031D01*
X21000732Y-30009454D01*
X20941422Y-29906727D01*
X20857546Y-29822851D01*
X20754819Y-29763541D01*
X20640242Y-29732840D01*
X20521624Y-29732840D01*
X20407047Y-29763541D01*
X20407045Y-29763541D01*
X20407045Y-29763542D01*
X20304320Y-29822851D01*
X20304317Y-29822853D01*
X20220446Y-29906724D01*
X20220444Y-29906727D01*
X20161134Y-30009454D01*
X20130433Y-30124031D01*
X3627014Y-30124031D01*
X3603811Y-30037435D01*
X3544501Y-29934708D01*
X3460625Y-29850832D01*
X3357898Y-29791522D01*
X3243321Y-29760821D01*
X3124703Y-29760821D01*
X3010126Y-29791522D01*
X3010124Y-29791522D01*
X3010124Y-29791523D01*
X2907399Y-29850832D01*
X2907396Y-29850834D01*
X2823525Y-29934705D01*
X2823523Y-29934708D01*
X2764213Y-30037435D01*
X2733512Y-30152012D01*
X2235090Y-30152012D01*
X2310489Y-30076613D01*
X2369799Y-29973886D01*
X2400500Y-29859309D01*
X2400500Y-29740691D01*
X2369799Y-29626114D01*
X2310489Y-29523387D01*
X2226613Y-29439511D01*
X2163844Y-29403271D01*
X34654249Y-29403271D01*
X34654249Y-29521889D01*
X34684950Y-29636466D01*
X34744260Y-29739193D01*
X34828136Y-29823069D01*
X34930863Y-29882379D01*
X35045440Y-29913080D01*
X35045443Y-29913080D01*
X35164055Y-29913080D01*
X35164058Y-29913080D01*
X35278635Y-29882379D01*
X35381362Y-29823069D01*
X35465238Y-29739193D01*
X35524548Y-29636466D01*
X35555249Y-29521889D01*
X35555249Y-29403271D01*
X35524548Y-29288694D01*
X35465238Y-29185967D01*
X35381362Y-29102091D01*
X35278635Y-29042781D01*
X35164058Y-29012080D01*
X35045440Y-29012080D01*
X34930863Y-29042781D01*
X34930861Y-29042781D01*
X34930861Y-29042782D01*
X34828136Y-29102091D01*
X34828133Y-29102093D01*
X34744262Y-29185964D01*
X34744260Y-29185967D01*
X34685492Y-29287756D01*
X34684950Y-29288694D01*
X34654249Y-29403271D01*
X2163844Y-29403271D01*
X2123886Y-29380201D01*
X2009309Y-29349500D01*
X1890691Y-29349500D01*
X1776114Y-29380201D01*
X1776112Y-29380201D01*
X1776112Y-29380202D01*
X1673387Y-29439511D01*
X1673384Y-29439513D01*
X1589513Y-29523384D01*
X1589511Y-29523387D01*
X1530201Y-29626114D01*
X1499500Y-29740691D01*
X500500Y-29740691D01*
X500500Y-28865691D01*
X5074500Y-28865691D01*
X5074500Y-28984309D01*
X5105201Y-29098886D01*
X5164511Y-29201613D01*
X5248387Y-29285489D01*
X5351114Y-29344799D01*
X5465691Y-29375500D01*
X5465694Y-29375500D01*
X5584306Y-29375500D01*
X5584309Y-29375500D01*
X5698886Y-29344799D01*
X5801613Y-29285489D01*
X5885489Y-29201613D01*
X5885492Y-29201606D01*
X5887483Y-29199014D01*
X5889725Y-29197376D01*
X5891236Y-29195866D01*
X5891471Y-29196101D01*
X5943911Y-29157811D01*
X5985859Y-29150500D01*
X6564141Y-29150500D01*
X6631180Y-29170185D01*
X6662517Y-29199014D01*
X6664510Y-29201611D01*
X6664511Y-29201613D01*
X6748387Y-29285489D01*
X6851114Y-29344799D01*
X6965691Y-29375500D01*
X6965694Y-29375500D01*
X7084306Y-29375500D01*
X7084309Y-29375500D01*
X7198886Y-29344799D01*
X7301613Y-29285489D01*
X7385489Y-29201613D01*
X7444799Y-29098886D01*
X7475500Y-28984309D01*
X7475500Y-28865691D01*
X7444799Y-28751114D01*
X7397715Y-28669562D01*
X7385493Y-28648393D01*
X7385490Y-28648390D01*
X7385489Y-28648387D01*
X7352793Y-28615691D01*
X8392000Y-28615691D01*
X8392000Y-28734309D01*
X8422701Y-28848886D01*
X8482011Y-28951613D01*
X8565887Y-29035489D01*
X8668614Y-29094799D01*
X8783191Y-29125500D01*
X8783194Y-29125500D01*
X8901806Y-29125500D01*
X8901809Y-29125500D01*
X9016386Y-29094799D01*
X9119113Y-29035489D01*
X9202989Y-28951613D01*
X9202992Y-28951606D01*
X9204983Y-28949014D01*
X9207225Y-28947376D01*
X9208736Y-28945866D01*
X9208971Y-28946101D01*
X9261411Y-28907811D01*
X9303359Y-28900500D01*
X22781641Y-28900500D01*
X22848680Y-28920185D01*
X22880017Y-28949014D01*
X22882010Y-28951611D01*
X22882011Y-28951613D01*
X22965887Y-29035489D01*
X23068614Y-29094799D01*
X23183191Y-29125500D01*
X23183194Y-29125500D01*
X23301806Y-29125500D01*
X23301809Y-29125500D01*
X23416386Y-29094799D01*
X23519113Y-29035489D01*
X23602989Y-28951613D01*
X23662299Y-28848886D01*
X23693000Y-28734309D01*
X23693000Y-28615691D01*
X23662299Y-28501114D01*
X23653861Y-28486500D01*
X23637389Y-28418601D01*
X23660241Y-28352574D01*
X23715162Y-28309383D01*
X23761249Y-28300500D01*
X24201510Y-28300500D01*
X24268549Y-28320185D01*
X24314304Y-28372989D01*
X24324248Y-28442147D01*
X24295223Y-28505703D01*
X24289191Y-28512181D01*
X24273272Y-28528099D01*
X24273270Y-28528102D01*
X24213960Y-28630829D01*
X24183259Y-28745406D01*
X24183259Y-28864024D01*
X24213960Y-28978601D01*
X24273270Y-29081328D01*
X24357146Y-29165204D01*
X24459873Y-29224514D01*
X24574450Y-29255215D01*
X24574453Y-29255215D01*
X24693065Y-29255215D01*
X24693068Y-29255215D01*
X24807645Y-29224514D01*
X24910372Y-29165204D01*
X24994248Y-29081328D01*
X25053558Y-28978601D01*
X25084259Y-28864024D01*
X25084259Y-28745406D01*
X25053558Y-28630829D01*
X24994248Y-28528102D01*
X24978327Y-28512181D01*
X24944842Y-28450858D01*
X24949826Y-28381166D01*
X24991698Y-28325233D01*
X25057162Y-28300816D01*
X25066008Y-28300500D01*
X28181641Y-28300500D01*
X28248680Y-28320185D01*
X28280017Y-28349014D01*
X28282010Y-28351611D01*
X28282011Y-28351613D01*
X28365887Y-28435489D01*
X28468614Y-28494799D01*
X28583191Y-28525500D01*
X28583194Y-28525500D01*
X28701806Y-28525500D01*
X28701809Y-28525500D01*
X28816386Y-28494799D01*
X28919113Y-28435489D01*
X29002989Y-28351613D01*
X29062299Y-28248886D01*
X29093000Y-28134309D01*
X29093000Y-28015691D01*
X29992000Y-28015691D01*
X29992000Y-28134309D01*
X30022701Y-28248886D01*
X30082011Y-28351613D01*
X30165887Y-28435489D01*
X30268614Y-28494799D01*
X30383191Y-28525500D01*
X30383194Y-28525500D01*
X30501806Y-28525500D01*
X30501809Y-28525500D01*
X30616386Y-28494799D01*
X30719113Y-28435489D01*
X30802989Y-28351613D01*
X30802992Y-28351606D01*
X30804983Y-28349014D01*
X30807225Y-28347376D01*
X30808736Y-28345866D01*
X30808971Y-28346101D01*
X30861411Y-28307811D01*
X30903359Y-28300500D01*
X32734027Y-28300500D01*
X32801066Y-28320185D01*
X32846821Y-28372989D01*
X32856765Y-28442147D01*
X32827740Y-28505703D01*
X32796028Y-28531886D01*
X32743361Y-28562294D01*
X32743352Y-28562300D01*
X32659481Y-28646171D01*
X32659479Y-28646174D01*
X32608596Y-28734306D01*
X32600169Y-28748901D01*
X32569468Y-28863478D01*
X32569468Y-28982096D01*
X32600169Y-29096673D01*
X32659479Y-29199400D01*
X32743355Y-29283276D01*
X32846082Y-29342586D01*
X32960659Y-29373287D01*
X32960662Y-29373287D01*
X33079274Y-29373287D01*
X33079277Y-29373287D01*
X33193854Y-29342586D01*
X33288820Y-29287756D01*
X33288822Y-29287756D01*
X33290549Y-29286758D01*
X33296581Y-29283276D01*
X33380457Y-29199400D01*
X33439767Y-29096673D01*
X33470468Y-28982096D01*
X33470468Y-28863478D01*
X33439767Y-28748901D01*
X33380457Y-28646174D01*
X33296581Y-28562298D01*
X33294376Y-28561025D01*
X33243908Y-28531886D01*
X33195693Y-28481319D01*
X33182471Y-28412712D01*
X33208439Y-28347847D01*
X33265354Y-28307319D01*
X33305909Y-28300500D01*
X34781641Y-28300500D01*
X34848680Y-28320185D01*
X34880017Y-28349014D01*
X34882010Y-28351611D01*
X34882011Y-28351613D01*
X34965887Y-28435489D01*
X35068614Y-28494799D01*
X35183191Y-28525500D01*
X35183194Y-28525500D01*
X35301806Y-28525500D01*
X35301809Y-28525500D01*
X35416386Y-28494799D01*
X35519113Y-28435489D01*
X35602989Y-28351613D01*
X35662299Y-28248886D01*
X35693000Y-28134309D01*
X35693000Y-28015691D01*
X35662299Y-27901114D01*
X35602989Y-27798387D01*
X35595293Y-27790691D01*
X39024500Y-27790691D01*
X39024500Y-27909309D01*
X39055201Y-28023886D01*
X39114511Y-28126613D01*
X39198387Y-28210489D01*
X39301114Y-28269799D01*
X39415691Y-28300500D01*
X39415694Y-28300500D01*
X39534306Y-28300500D01*
X39534309Y-28300500D01*
X39648886Y-28269799D01*
X39751613Y-28210489D01*
X39835489Y-28126613D01*
X39894799Y-28023886D01*
X39925500Y-27909309D01*
X39925500Y-27790691D01*
X39925497Y-27790682D01*
X39925072Y-27787452D01*
X39925500Y-27784705D01*
X39925500Y-27782564D01*
X39925834Y-27782564D01*
X39935831Y-27718416D01*
X39960323Y-27683580D01*
X40132087Y-27511816D01*
X40193410Y-27478334D01*
X40219767Y-27475500D01*
X42314141Y-27475500D01*
X42381180Y-27495185D01*
X42412517Y-27524014D01*
X42414510Y-27526611D01*
X42414511Y-27526613D01*
X42498387Y-27610489D01*
X42601114Y-27669799D01*
X42715691Y-27700500D01*
X42715694Y-27700500D01*
X42834306Y-27700500D01*
X42834309Y-27700500D01*
X42948886Y-27669799D01*
X43051613Y-27610489D01*
X43135489Y-27526613D01*
X43194799Y-27423886D01*
X43225500Y-27309309D01*
X43225500Y-27190691D01*
X43212102Y-27140691D01*
X45099500Y-27140691D01*
X45099500Y-27259309D01*
X45130201Y-27373886D01*
X45189511Y-27476613D01*
X45273387Y-27560489D01*
X45376114Y-27619799D01*
X45490691Y-27650500D01*
X45490694Y-27650500D01*
X45609306Y-27650500D01*
X45609309Y-27650500D01*
X45723886Y-27619799D01*
X45826613Y-27560489D01*
X45910489Y-27476613D01*
X45969799Y-27373886D01*
X46000500Y-27259309D01*
X46000500Y-27140691D01*
X45969799Y-27026114D01*
X45910489Y-26923387D01*
X45826613Y-26839511D01*
X45723886Y-26780201D01*
X45609309Y-26749500D01*
X45490691Y-26749500D01*
X45376114Y-26780201D01*
X45376112Y-26780201D01*
X45376112Y-26780202D01*
X45273387Y-26839511D01*
X45273384Y-26839513D01*
X45189513Y-26923384D01*
X45189511Y-26923387D01*
X45147693Y-26995818D01*
X45130201Y-27026114D01*
X45099500Y-27140691D01*
X43212102Y-27140691D01*
X43194799Y-27076114D01*
X43135489Y-26973387D01*
X43051613Y-26889511D01*
X42948886Y-26830201D01*
X42834309Y-26799500D01*
X42715691Y-26799500D01*
X42601114Y-26830201D01*
X42601112Y-26830201D01*
X42601112Y-26830202D01*
X42498387Y-26889511D01*
X42498384Y-26889513D01*
X42414512Y-26973385D01*
X42412517Y-26975986D01*
X42410274Y-26977623D01*
X42408764Y-26979134D01*
X42408528Y-26978898D01*
X42356089Y-27017189D01*
X42314141Y-27024500D01*
X40030145Y-27024500D01*
X40030143Y-27024500D01*
X40030141Y-27024501D01*
X39947266Y-27058827D01*
X39947264Y-27058829D01*
X39883829Y-27122265D01*
X39641424Y-27364669D01*
X39580101Y-27398154D01*
X39537564Y-27399928D01*
X39534312Y-27399500D01*
X39534309Y-27399500D01*
X39415691Y-27399500D01*
X39301114Y-27430201D01*
X39301112Y-27430201D01*
X39301112Y-27430202D01*
X39198387Y-27489511D01*
X39198384Y-27489513D01*
X39114513Y-27573384D01*
X39114511Y-27573387D01*
X39093091Y-27610488D01*
X39055201Y-27676114D01*
X39024500Y-27790691D01*
X35595293Y-27790691D01*
X35519113Y-27714511D01*
X35416386Y-27655201D01*
X35301809Y-27624500D01*
X35183191Y-27624500D01*
X35068614Y-27655201D01*
X35068612Y-27655201D01*
X35068612Y-27655202D01*
X34965887Y-27714511D01*
X34965884Y-27714513D01*
X34882012Y-27798385D01*
X34880017Y-27800986D01*
X34877774Y-27802623D01*
X34876264Y-27804134D01*
X34876028Y-27803898D01*
X34823589Y-27842189D01*
X34781641Y-27849500D01*
X30903359Y-27849500D01*
X30836320Y-27829815D01*
X30804983Y-27800986D01*
X30802987Y-27798385D01*
X30719115Y-27714513D01*
X30719113Y-27714511D01*
X30616386Y-27655201D01*
X30501809Y-27624500D01*
X30383191Y-27624500D01*
X30268614Y-27655201D01*
X30268612Y-27655201D01*
X30268612Y-27655202D01*
X30165887Y-27714511D01*
X30165884Y-27714513D01*
X30082013Y-27798384D01*
X30082011Y-27798387D01*
X30022701Y-27901114D01*
X29992000Y-28015691D01*
X29093000Y-28015691D01*
X29062299Y-27901114D01*
X29002989Y-27798387D01*
X28919113Y-27714511D01*
X28816386Y-27655201D01*
X28701809Y-27624500D01*
X28583191Y-27624500D01*
X28468614Y-27655201D01*
X28468612Y-27655201D01*
X28468612Y-27655202D01*
X28365887Y-27714511D01*
X28365884Y-27714513D01*
X28282012Y-27798385D01*
X28280017Y-27800986D01*
X28277774Y-27802623D01*
X28276264Y-27804134D01*
X28276028Y-27803898D01*
X28223589Y-27842189D01*
X28181641Y-27849500D01*
X23703359Y-27849500D01*
X23636320Y-27829815D01*
X23604983Y-27800986D01*
X23602987Y-27798385D01*
X23519115Y-27714513D01*
X23519113Y-27714511D01*
X23416386Y-27655201D01*
X23327569Y-27631402D01*
X23267910Y-27595038D01*
X23237381Y-27532190D01*
X23245676Y-27462815D01*
X23290161Y-27408937D01*
X23297639Y-27404255D01*
X23341834Y-27378740D01*
X23425710Y-27294864D01*
X23485020Y-27192137D01*
X23515721Y-27077560D01*
X23515721Y-26958942D01*
X23485020Y-26844365D01*
X23425710Y-26741638D01*
X23341834Y-26657762D01*
X23239107Y-26598452D01*
X23210143Y-26590691D01*
X27299500Y-26590691D01*
X27299500Y-26709309D01*
X27330201Y-26823886D01*
X27389511Y-26926613D01*
X27473387Y-27010489D01*
X27576114Y-27069799D01*
X27690691Y-27100500D01*
X27690694Y-27100500D01*
X27809306Y-27100500D01*
X27809309Y-27100500D01*
X27923886Y-27069799D01*
X28026613Y-27010489D01*
X28110489Y-26926613D01*
X28169799Y-26823886D01*
X28200500Y-26709309D01*
X28200500Y-26590691D01*
X28169799Y-26476114D01*
X28110489Y-26373387D01*
X28026613Y-26289511D01*
X27923886Y-26230201D01*
X27809309Y-26199500D01*
X27690691Y-26199500D01*
X27576114Y-26230201D01*
X27576112Y-26230201D01*
X27576112Y-26230202D01*
X27473387Y-26289511D01*
X27473384Y-26289513D01*
X27389513Y-26373384D01*
X27389511Y-26373387D01*
X27336218Y-26465693D01*
X27330201Y-26476114D01*
X27299500Y-26590691D01*
X23210143Y-26590691D01*
X23124530Y-26567751D01*
X23005912Y-26567751D01*
X22891335Y-26598452D01*
X22891333Y-26598452D01*
X22891333Y-26598453D01*
X22788608Y-26657762D01*
X22788605Y-26657764D01*
X22704734Y-26741635D01*
X22704732Y-26741638D01*
X22645422Y-26844365D01*
X22614721Y-26958942D01*
X22614721Y-27077560D01*
X22645422Y-27192137D01*
X22704732Y-27294864D01*
X22788608Y-27378740D01*
X22891335Y-27438050D01*
X22980151Y-27461848D01*
X23039810Y-27498212D01*
X23070339Y-27561059D01*
X23062044Y-27630434D01*
X23017559Y-27684312D01*
X23010058Y-27689008D01*
X22965890Y-27714509D01*
X22965884Y-27714513D01*
X22882013Y-27798384D01*
X22882011Y-27798387D01*
X22822701Y-27901114D01*
X22792000Y-28015691D01*
X22792000Y-28134309D01*
X22822701Y-28248886D01*
X22822702Y-28248887D01*
X22831138Y-28263499D01*
X22847611Y-28331399D01*
X22824759Y-28397426D01*
X22769838Y-28440617D01*
X22723751Y-28449500D01*
X22369844Y-28449500D01*
X22302805Y-28429815D01*
X22257050Y-28377011D01*
X22247106Y-28307853D01*
X22257400Y-28278114D01*
X22255661Y-28277394D01*
X22258771Y-28269884D01*
X22258771Y-28269882D01*
X22258773Y-28269880D01*
X22289474Y-28155303D01*
X22289474Y-28036685D01*
X22258773Y-27922108D01*
X22199463Y-27819381D01*
X22115587Y-27735505D01*
X22012860Y-27676195D01*
X21898283Y-27645494D01*
X21779665Y-27645494D01*
X21665088Y-27676195D01*
X21665086Y-27676195D01*
X21665086Y-27676196D01*
X21562361Y-27735505D01*
X21562358Y-27735507D01*
X21478487Y-27819378D01*
X21478485Y-27819381D01*
X21426565Y-27909309D01*
X21419175Y-27922108D01*
X21388474Y-28036685D01*
X21388474Y-28155303D01*
X21413550Y-28248886D01*
X21419176Y-28269884D01*
X21422287Y-28277394D01*
X21419172Y-28278683D01*
X21431964Y-28331386D01*
X21409120Y-28397415D01*
X21354204Y-28440612D01*
X21308104Y-28449500D01*
X9303359Y-28449500D01*
X9236320Y-28429815D01*
X9204983Y-28400986D01*
X9202987Y-28398385D01*
X9119115Y-28314513D01*
X9119113Y-28314511D01*
X9016386Y-28255201D01*
X8901809Y-28224500D01*
X8783191Y-28224500D01*
X8668614Y-28255201D01*
X8668612Y-28255201D01*
X8668612Y-28255202D01*
X8565887Y-28314511D01*
X8565884Y-28314513D01*
X8482013Y-28398384D01*
X8482011Y-28398387D01*
X8451717Y-28450858D01*
X8422701Y-28501114D01*
X8392000Y-28615691D01*
X7352793Y-28615691D01*
X7301613Y-28564511D01*
X7198886Y-28505201D01*
X7084309Y-28474500D01*
X6965691Y-28474500D01*
X6851114Y-28505201D01*
X6851112Y-28505201D01*
X6851112Y-28505202D01*
X6748387Y-28564511D01*
X6748384Y-28564513D01*
X6664512Y-28648385D01*
X6662517Y-28650986D01*
X6660274Y-28652623D01*
X6658764Y-28654134D01*
X6658528Y-28653898D01*
X6606089Y-28692189D01*
X6564141Y-28699500D01*
X5985859Y-28699500D01*
X5918820Y-28679815D01*
X5887483Y-28650986D01*
X5885487Y-28648385D01*
X5801615Y-28564513D01*
X5801613Y-28564511D01*
X5698886Y-28505201D01*
X5584309Y-28474500D01*
X5465691Y-28474500D01*
X5351114Y-28505201D01*
X5351112Y-28505201D01*
X5351112Y-28505202D01*
X5248387Y-28564511D01*
X5248384Y-28564513D01*
X5164513Y-28648384D01*
X5164511Y-28648387D01*
X5108497Y-28745406D01*
X5105201Y-28751114D01*
X5074500Y-28865691D01*
X500500Y-28865691D01*
X500500Y-26465691D01*
X2974500Y-26465691D01*
X2974500Y-26584309D01*
X3005201Y-26698886D01*
X3064511Y-26801613D01*
X3148387Y-26885489D01*
X3219619Y-26926615D01*
X3251897Y-26945251D01*
X3300113Y-26995818D01*
X3313335Y-27064425D01*
X3287367Y-27129290D01*
X3277581Y-27140316D01*
X3269515Y-27148382D01*
X3269511Y-27148387D01*
X3245087Y-27190691D01*
X3210201Y-27251114D01*
X3179500Y-27365691D01*
X3179500Y-27484309D01*
X3210201Y-27598886D01*
X3269511Y-27701613D01*
X3353387Y-27785489D01*
X3456114Y-27844799D01*
X3570691Y-27875500D01*
X3570694Y-27875500D01*
X3689306Y-27875500D01*
X3689309Y-27875500D01*
X3803886Y-27844799D01*
X3906613Y-27785489D01*
X3990489Y-27701613D01*
X3990492Y-27701606D01*
X3992483Y-27699014D01*
X3994725Y-27697376D01*
X3996236Y-27695866D01*
X3996471Y-27696101D01*
X4048911Y-27657811D01*
X4090859Y-27650500D01*
X7669141Y-27650500D01*
X7736180Y-27670185D01*
X7767517Y-27699014D01*
X7769510Y-27701611D01*
X7769511Y-27701613D01*
X7853387Y-27785489D01*
X7956114Y-27844799D01*
X8070691Y-27875500D01*
X8070694Y-27875500D01*
X8189306Y-27875500D01*
X8189309Y-27875500D01*
X8303886Y-27844799D01*
X8406613Y-27785489D01*
X8490489Y-27701613D01*
X8549799Y-27598886D01*
X8580500Y-27484309D01*
X8580500Y-27365691D01*
X8549799Y-27251114D01*
X8490489Y-27148387D01*
X8406613Y-27064511D01*
X8303886Y-27005201D01*
X8189309Y-26974500D01*
X8070691Y-26974500D01*
X7956114Y-27005201D01*
X7956112Y-27005201D01*
X7956112Y-27005202D01*
X7853387Y-27064511D01*
X7853384Y-27064513D01*
X7769512Y-27148385D01*
X7767517Y-27150986D01*
X7765274Y-27152623D01*
X7763764Y-27154134D01*
X7763528Y-27153898D01*
X7711089Y-27192189D01*
X7669141Y-27199500D01*
X6043749Y-27199500D01*
X5976710Y-27179815D01*
X5930955Y-27127011D01*
X5921011Y-27057853D01*
X5936362Y-27013499D01*
X5938100Y-27010489D01*
X5944799Y-26998886D01*
X5975500Y-26884309D01*
X5975500Y-26765691D01*
X5944799Y-26651114D01*
X5885489Y-26548387D01*
X5801613Y-26464511D01*
X5698886Y-26405201D01*
X5644734Y-26390691D01*
X19404500Y-26390691D01*
X19404500Y-26509309D01*
X19435201Y-26623886D01*
X19494511Y-26726613D01*
X19578387Y-26810489D01*
X19681114Y-26869799D01*
X19795691Y-26900500D01*
X19795694Y-26900500D01*
X19914306Y-26900500D01*
X19914309Y-26900500D01*
X20028886Y-26869799D01*
X20131613Y-26810489D01*
X20215489Y-26726613D01*
X20250662Y-26665692D01*
X20562339Y-26665692D01*
X20562339Y-26784310D01*
X20593040Y-26898887D01*
X20652350Y-27001614D01*
X20736226Y-27085490D01*
X20838953Y-27144800D01*
X20953530Y-27175501D01*
X20953533Y-27175501D01*
X21072145Y-27175501D01*
X21072148Y-27175501D01*
X21186725Y-27144800D01*
X21289452Y-27085490D01*
X21373328Y-27001614D01*
X21432638Y-26898887D01*
X21463339Y-26784310D01*
X21463339Y-26665692D01*
X21432638Y-26551115D01*
X21373328Y-26448388D01*
X21289452Y-26364512D01*
X21186725Y-26305202D01*
X21072148Y-26274501D01*
X20953530Y-26274501D01*
X20838953Y-26305202D01*
X20838951Y-26305202D01*
X20838951Y-26305203D01*
X20736226Y-26364512D01*
X20736223Y-26364514D01*
X20652352Y-26448385D01*
X20652350Y-26448388D01*
X20595967Y-26546046D01*
X20593040Y-26551115D01*
X20562339Y-26665692D01*
X20250662Y-26665692D01*
X20274799Y-26623886D01*
X20305500Y-26509309D01*
X20305500Y-26390691D01*
X20274799Y-26276114D01*
X20215489Y-26173387D01*
X20131613Y-26089511D01*
X20130534Y-26088888D01*
X20089077Y-26064951D01*
X20089074Y-26064951D01*
X20028886Y-26030201D01*
X19914309Y-25999500D01*
X19795691Y-25999500D01*
X19681114Y-26030201D01*
X19681112Y-26030201D01*
X19681112Y-26030202D01*
X19578387Y-26089511D01*
X19578384Y-26089513D01*
X19494513Y-26173384D01*
X19494511Y-26173387D01*
X19461709Y-26230202D01*
X19435201Y-26276114D01*
X19404500Y-26390691D01*
X5644734Y-26390691D01*
X5584309Y-26374500D01*
X5465691Y-26374500D01*
X5351114Y-26405201D01*
X5351112Y-26405201D01*
X5351112Y-26405202D01*
X5248387Y-26464511D01*
X5248383Y-26464514D01*
X5210689Y-26502207D01*
X5149365Y-26535691D01*
X5105474Y-26537277D01*
X4596106Y-26464511D01*
X3908315Y-26366255D01*
X3844733Y-26337287D01*
X3818464Y-26305501D01*
X3793483Y-26262233D01*
X3777010Y-26194333D01*
X3799862Y-26128306D01*
X3838870Y-26092846D01*
X3851612Y-26085490D01*
X3935488Y-26001614D01*
X3956228Y-25965691D01*
X46424500Y-25965691D01*
X46424500Y-26084309D01*
X46455201Y-26198886D01*
X46514511Y-26301613D01*
X46598387Y-26385489D01*
X46701114Y-26444799D01*
X46815691Y-26475500D01*
X46815694Y-26475500D01*
X46934306Y-26475500D01*
X46934309Y-26475500D01*
X47048886Y-26444799D01*
X47151613Y-26385489D01*
X47235489Y-26301613D01*
X47294799Y-26198886D01*
X47325500Y-26084309D01*
X47325500Y-25965691D01*
X47294799Y-25851114D01*
X47235489Y-25748387D01*
X47151613Y-25664511D01*
X47048886Y-25605201D01*
X46934309Y-25574500D01*
X46815691Y-25574500D01*
X46701114Y-25605201D01*
X46701112Y-25605201D01*
X46701112Y-25605202D01*
X46598387Y-25664511D01*
X46598384Y-25664513D01*
X46514513Y-25748384D01*
X46514511Y-25748387D01*
X46455201Y-25851114D01*
X46424500Y-25965691D01*
X3956228Y-25965691D01*
X3994798Y-25898887D01*
X4025499Y-25784310D01*
X4025499Y-25665692D01*
X3994798Y-25551115D01*
X3935488Y-25448388D01*
X3851612Y-25364512D01*
X3748885Y-25305202D01*
X3634308Y-25274501D01*
X3515690Y-25274501D01*
X3401113Y-25305202D01*
X3401111Y-25305202D01*
X3401111Y-25305203D01*
X3298386Y-25364512D01*
X3298383Y-25364514D01*
X3214512Y-25448385D01*
X3214510Y-25448388D01*
X3155200Y-25551115D01*
X3124499Y-25665692D01*
X3124499Y-25784310D01*
X3155200Y-25898887D01*
X3155201Y-25898888D01*
X3206515Y-25987766D01*
X3222988Y-26055666D01*
X3200136Y-26121693D01*
X3161132Y-26157152D01*
X3148390Y-26164508D01*
X3148384Y-26164513D01*
X3064513Y-26248384D01*
X3064511Y-26248387D01*
X3031709Y-26305202D01*
X3005201Y-26351114D01*
X2974500Y-26465691D01*
X500500Y-26465691D01*
X500500Y-24890691D01*
X16499500Y-24890691D01*
X16499500Y-25009309D01*
X16530201Y-25123886D01*
X16589511Y-25226613D01*
X16673387Y-25310489D01*
X16776114Y-25369799D01*
X16890691Y-25400500D01*
X16890694Y-25400500D01*
X17009306Y-25400500D01*
X17009309Y-25400500D01*
X17123886Y-25369799D01*
X17226613Y-25310489D01*
X17310489Y-25226613D01*
X17328866Y-25194783D01*
X18090006Y-25194783D01*
X18090006Y-25313401D01*
X18120707Y-25427978D01*
X18180017Y-25530705D01*
X18263893Y-25614581D01*
X18366620Y-25673891D01*
X18481197Y-25704592D01*
X18481200Y-25704592D01*
X18599812Y-25704592D01*
X18599815Y-25704592D01*
X18714392Y-25673891D01*
X18817119Y-25614581D01*
X18900995Y-25530705D01*
X18960305Y-25427978D01*
X18991006Y-25313401D01*
X18991006Y-25194783D01*
X18960305Y-25080206D01*
X18900995Y-24977479D01*
X18817119Y-24893603D01*
X18714392Y-24834293D01*
X18599815Y-24803592D01*
X18481197Y-24803592D01*
X18366620Y-24834293D01*
X18366618Y-24834293D01*
X18366618Y-24834294D01*
X18263893Y-24893603D01*
X18263890Y-24893605D01*
X18180019Y-24977476D01*
X18180017Y-24977479D01*
X18161642Y-25009306D01*
X18120707Y-25080206D01*
X18090006Y-25194783D01*
X17328866Y-25194783D01*
X17369799Y-25123886D01*
X17400500Y-25009309D01*
X17400500Y-24890691D01*
X17369799Y-24776114D01*
X17310489Y-24673387D01*
X17226613Y-24589511D01*
X17123886Y-24530201D01*
X17009309Y-24499500D01*
X16890691Y-24499500D01*
X16776114Y-24530201D01*
X16776112Y-24530201D01*
X16776112Y-24530202D01*
X16673387Y-24589511D01*
X16673384Y-24589513D01*
X16589513Y-24673384D01*
X16589511Y-24673387D01*
X16530201Y-24776114D01*
X16499500Y-24890691D01*
X500500Y-24890691D01*
X500500Y-23649691D01*
X30627500Y-23649691D01*
X30627500Y-23768309D01*
X30658201Y-23882886D01*
X30717511Y-23985613D01*
X30801387Y-24069489D01*
X30904114Y-24128799D01*
X31018691Y-24159500D01*
X31018694Y-24159500D01*
X31137306Y-24159500D01*
X31137309Y-24159500D01*
X31251886Y-24128799D01*
X31354613Y-24069489D01*
X31438489Y-23985613D01*
X31497799Y-23882886D01*
X31528500Y-23768309D01*
X31528500Y-23649691D01*
X31497799Y-23535114D01*
X31438489Y-23432387D01*
X31354613Y-23348511D01*
X31251886Y-23289201D01*
X31137309Y-23258500D01*
X31018691Y-23258500D01*
X30904114Y-23289201D01*
X30904112Y-23289201D01*
X30904112Y-23289202D01*
X30801387Y-23348511D01*
X30801384Y-23348513D01*
X30717513Y-23432384D01*
X30717511Y-23432387D01*
X30658743Y-23534176D01*
X30658201Y-23535114D01*
X30627500Y-23649691D01*
X500500Y-23649691D01*
X500500Y-23110691D01*
X27218500Y-23110691D01*
X27218500Y-23229309D01*
X27249201Y-23343886D01*
X27308511Y-23446613D01*
X27392387Y-23530489D01*
X27495114Y-23589799D01*
X27609691Y-23620500D01*
X27609694Y-23620500D01*
X27728306Y-23620500D01*
X27728309Y-23620500D01*
X27842886Y-23589799D01*
X27945613Y-23530489D01*
X28029489Y-23446613D01*
X28088799Y-23343886D01*
X28119500Y-23229309D01*
X28119500Y-23110691D01*
X28088799Y-22996114D01*
X28029489Y-22893387D01*
X27945613Y-22809511D01*
X27842886Y-22750201D01*
X27728309Y-22719500D01*
X27609691Y-22719500D01*
X27495114Y-22750201D01*
X27495112Y-22750201D01*
X27495112Y-22750202D01*
X27392387Y-22809511D01*
X27392384Y-22809513D01*
X27308513Y-22893384D01*
X27308511Y-22893387D01*
X27249201Y-22996114D01*
X27218500Y-23110691D01*
X500500Y-23110691D01*
X500500Y-22546691D01*
X17580500Y-22546691D01*
X17580500Y-22665309D01*
X17611201Y-22779886D01*
X17670511Y-22882613D01*
X17754387Y-22966489D01*
X17857114Y-23025799D01*
X17971691Y-23056500D01*
X17971694Y-23056500D01*
X18090306Y-23056500D01*
X18090309Y-23056500D01*
X18204886Y-23025799D01*
X18307613Y-22966489D01*
X18391489Y-22882613D01*
X18450799Y-22779886D01*
X18481500Y-22665309D01*
X18481500Y-22546691D01*
X18450799Y-22432114D01*
X18391489Y-22329387D01*
X18307613Y-22245511D01*
X18204886Y-22186201D01*
X18162909Y-22174953D01*
X18129466Y-22165992D01*
X18090309Y-22155500D01*
X17971691Y-22155500D01*
X17857114Y-22186201D01*
X17857112Y-22186201D01*
X17857112Y-22186202D01*
X17754387Y-22245511D01*
X17754384Y-22245513D01*
X17670513Y-22329384D01*
X17670511Y-22329387D01*
X17621483Y-22414306D01*
X17611201Y-22432114D01*
X17580500Y-22546691D01*
X500500Y-22546691D01*
X500500Y-22063306D01*
X25008787Y-22063306D01*
X25008787Y-22181924D01*
X25039488Y-22296501D01*
X25098798Y-22399228D01*
X25182674Y-22483104D01*
X25285401Y-22542414D01*
X25399978Y-22573115D01*
X25399981Y-22573115D01*
X25518593Y-22573115D01*
X25518596Y-22573115D01*
X25633173Y-22542414D01*
X25735900Y-22483104D01*
X25819776Y-22399228D01*
X25839139Y-22365691D01*
X46424500Y-22365691D01*
X46424500Y-22484309D01*
X46455201Y-22598886D01*
X46514511Y-22701613D01*
X46598387Y-22785489D01*
X46701114Y-22844799D01*
X46815691Y-22875500D01*
X46815694Y-22875500D01*
X46934306Y-22875500D01*
X46934309Y-22875500D01*
X47048886Y-22844799D01*
X47151613Y-22785489D01*
X47235489Y-22701613D01*
X47294799Y-22598886D01*
X47325500Y-22484309D01*
X47325500Y-22365691D01*
X47306743Y-22295691D01*
X51915500Y-22295691D01*
X51915500Y-22414309D01*
X51946201Y-22528886D01*
X52005511Y-22631613D01*
X52089387Y-22715489D01*
X52192114Y-22774799D01*
X52306691Y-22805500D01*
X52306694Y-22805500D01*
X52425306Y-22805500D01*
X52425309Y-22805500D01*
X52539886Y-22774799D01*
X52642613Y-22715489D01*
X52726489Y-22631613D01*
X52785799Y-22528886D01*
X52816500Y-22414309D01*
X52816500Y-22295691D01*
X52785799Y-22181114D01*
X52726489Y-22078387D01*
X52642613Y-21994511D01*
X52539886Y-21935201D01*
X52425309Y-21904500D01*
X52306691Y-21904500D01*
X52192114Y-21935201D01*
X52192112Y-21935201D01*
X52192112Y-21935202D01*
X52089387Y-21994511D01*
X52089384Y-21994513D01*
X52005513Y-22078384D01*
X52005511Y-22078387D01*
X51949758Y-22174954D01*
X51946201Y-22181114D01*
X51915500Y-22295691D01*
X47306743Y-22295691D01*
X47294799Y-22251114D01*
X47235489Y-22148387D01*
X47151613Y-22064511D01*
X47048886Y-22005201D01*
X46934309Y-21974500D01*
X46815691Y-21974500D01*
X46701114Y-22005201D01*
X46701112Y-22005201D01*
X46701112Y-22005202D01*
X46598387Y-22064511D01*
X46598384Y-22064513D01*
X46514513Y-22148384D01*
X46514511Y-22148387D01*
X46455201Y-22251114D01*
X46424500Y-22365691D01*
X25839139Y-22365691D01*
X25865717Y-22319657D01*
X25879082Y-22296509D01*
X25879084Y-22296505D01*
X25879085Y-22296502D01*
X25879086Y-22296501D01*
X25909787Y-22181924D01*
X25909787Y-22063306D01*
X25879086Y-21948729D01*
X25819776Y-21846002D01*
X25735900Y-21762126D01*
X25667597Y-21722691D01*
X42047500Y-21722691D01*
X42047500Y-21841309D01*
X42078201Y-21955886D01*
X42137511Y-22058613D01*
X42221387Y-22142489D01*
X42324114Y-22201799D01*
X42438691Y-22232500D01*
X42438694Y-22232500D01*
X42557306Y-22232500D01*
X42557309Y-22232500D01*
X42671886Y-22201799D01*
X42774613Y-22142489D01*
X42858489Y-22058613D01*
X42917799Y-21955886D01*
X42948500Y-21841309D01*
X42948500Y-21722691D01*
X42917799Y-21608114D01*
X42858489Y-21505387D01*
X42774613Y-21421511D01*
X42671886Y-21362201D01*
X42557309Y-21331500D01*
X42438691Y-21331500D01*
X42324114Y-21362201D01*
X42324112Y-21362201D01*
X42324112Y-21362202D01*
X42221387Y-21421511D01*
X42221384Y-21421513D01*
X42137513Y-21505384D01*
X42137511Y-21505387D01*
X42082244Y-21601112D01*
X42078201Y-21608114D01*
X42047500Y-21722691D01*
X25667597Y-21722691D01*
X25633173Y-21702816D01*
X25605089Y-21695290D01*
X25588747Y-21684748D01*
X25578110Y-21672429D01*
X25564214Y-21663959D01*
X25555747Y-21646529D01*
X25543085Y-21631864D01*
X25540796Y-21615751D01*
X25533686Y-21601112D01*
X25535986Y-21581873D01*
X25533262Y-21562689D01*
X25540048Y-21547896D01*
X25541981Y-21531736D01*
X25554318Y-21516793D01*
X25562398Y-21499184D01*
X25576104Y-21490409D01*
X25586467Y-21477859D01*
X25618703Y-21463137D01*
X25621242Y-21461512D01*
X25622258Y-21461513D01*
X25623871Y-21460777D01*
X25732000Y-21431804D01*
X25834727Y-21372494D01*
X25918603Y-21288618D01*
X25977913Y-21185891D01*
X25983326Y-21165691D01*
X44024500Y-21165691D01*
X44024500Y-21284309D01*
X44055201Y-21398886D01*
X44114511Y-21501613D01*
X44198387Y-21585489D01*
X44301114Y-21644799D01*
X44415691Y-21675500D01*
X44415694Y-21675500D01*
X44534306Y-21675500D01*
X44534309Y-21675500D01*
X44648886Y-21644799D01*
X44751613Y-21585489D01*
X44835489Y-21501613D01*
X44894799Y-21398886D01*
X44925500Y-21284309D01*
X44925500Y-21165691D01*
X44894799Y-21051114D01*
X44835489Y-20948387D01*
X44751613Y-20864511D01*
X44648886Y-20805201D01*
X44534309Y-20774500D01*
X44415691Y-20774500D01*
X44301114Y-20805201D01*
X44301112Y-20805201D01*
X44301112Y-20805202D01*
X44198387Y-20864511D01*
X44198384Y-20864513D01*
X44114513Y-20948384D01*
X44114511Y-20948387D01*
X44085355Y-20998887D01*
X44055201Y-21051114D01*
X44024500Y-21165691D01*
X25983326Y-21165691D01*
X26008614Y-21071314D01*
X26008614Y-20952696D01*
X25977913Y-20838119D01*
X25918603Y-20735392D01*
X25834727Y-20651516D01*
X25732000Y-20592206D01*
X25617423Y-20561505D01*
X25498805Y-20561505D01*
X25384228Y-20592206D01*
X25384226Y-20592206D01*
X25384226Y-20592207D01*
X25281501Y-20651516D01*
X25281498Y-20651518D01*
X25197627Y-20735389D01*
X25197625Y-20735392D01*
X25138315Y-20838119D01*
X25107614Y-20952696D01*
X25107614Y-21071314D01*
X25138315Y-21185891D01*
X25197625Y-21288618D01*
X25281501Y-21372494D01*
X25384228Y-21431804D01*
X25393524Y-21434294D01*
X25453183Y-21470656D01*
X25483714Y-21533503D01*
X25475421Y-21602878D01*
X25430937Y-21656758D01*
X25393525Y-21673844D01*
X25285399Y-21702816D01*
X25182674Y-21762126D01*
X25182671Y-21762128D01*
X25098800Y-21845999D01*
X25098798Y-21846002D01*
X25039488Y-21948729D01*
X25008787Y-22063306D01*
X500500Y-22063306D01*
X500500Y-21256691D01*
X1500500Y-21256691D01*
X1500500Y-21375309D01*
X1531201Y-21489886D01*
X1590511Y-21592613D01*
X1674387Y-21676489D01*
X1777114Y-21735799D01*
X1891691Y-21766500D01*
X1891694Y-21766500D01*
X2010306Y-21766500D01*
X2010309Y-21766500D01*
X2124886Y-21735799D01*
X2227613Y-21676489D01*
X2311489Y-21592613D01*
X2370799Y-21489886D01*
X2401500Y-21375309D01*
X2401500Y-21256691D01*
X2370799Y-21142114D01*
X2311489Y-21039387D01*
X2227613Y-20955511D01*
X2124886Y-20896201D01*
X2010309Y-20865500D01*
X1891691Y-20865500D01*
X1777114Y-20896201D01*
X1777112Y-20896201D01*
X1777112Y-20896202D01*
X1674387Y-20955511D01*
X1674384Y-20955513D01*
X1590513Y-21039384D01*
X1590511Y-21039387D01*
X1540811Y-21125470D01*
X1531201Y-21142114D01*
X1500500Y-21256691D01*
X500500Y-21256691D01*
X500500Y-20265691D01*
X44764500Y-20265691D01*
X44764500Y-20384309D01*
X44795201Y-20498886D01*
X44854511Y-20601613D01*
X44938387Y-20685489D01*
X45041114Y-20744799D01*
X45155691Y-20775500D01*
X45155694Y-20775500D01*
X45274306Y-20775500D01*
X45274309Y-20775500D01*
X45388886Y-20744799D01*
X45491613Y-20685489D01*
X45527319Y-20649783D01*
X45588642Y-20616298D01*
X45658334Y-20621282D01*
X45702681Y-20649783D01*
X45738387Y-20685489D01*
X45841114Y-20744799D01*
X45955691Y-20775500D01*
X45955694Y-20775500D01*
X46074306Y-20775500D01*
X46074309Y-20775500D01*
X46188886Y-20744799D01*
X46188888Y-20744797D01*
X46188890Y-20744797D01*
X46188891Y-20744796D01*
X46238499Y-20716155D01*
X46306399Y-20699681D01*
X46372426Y-20722533D01*
X46415617Y-20777453D01*
X46424500Y-20823541D01*
X46424500Y-20884309D01*
X46455201Y-20998886D01*
X46514511Y-21101613D01*
X46598387Y-21185489D01*
X46701114Y-21244799D01*
X46815691Y-21275500D01*
X46815694Y-21275500D01*
X46934306Y-21275500D01*
X46934309Y-21275500D01*
X47048886Y-21244799D01*
X47151613Y-21185489D01*
X47235489Y-21101613D01*
X47294799Y-20998886D01*
X47325500Y-20884309D01*
X47325500Y-20765691D01*
X47294799Y-20651114D01*
X47243119Y-20561603D01*
X47226647Y-20493705D01*
X47235947Y-20452149D01*
X47237293Y-20448895D01*
X47237299Y-20448886D01*
X47268000Y-20334309D01*
X47268000Y-20215691D01*
X47237299Y-20101114D01*
X47177989Y-19998387D01*
X47094113Y-19914511D01*
X46991386Y-19855201D01*
X46876809Y-19824500D01*
X46758191Y-19824500D01*
X46643614Y-19855201D01*
X46643612Y-19855201D01*
X46643612Y-19855202D01*
X46540887Y-19914511D01*
X46540884Y-19914513D01*
X46478931Y-19976467D01*
X46417608Y-20009952D01*
X46347916Y-20004968D01*
X46303569Y-19976467D01*
X46291615Y-19964513D01*
X46291613Y-19964511D01*
X46188886Y-19905201D01*
X46074309Y-19874500D01*
X45955691Y-19874500D01*
X45841114Y-19905201D01*
X45841112Y-19905201D01*
X45841112Y-19905202D01*
X45738387Y-19964511D01*
X45738384Y-19964513D01*
X45702681Y-20000217D01*
X45641358Y-20033702D01*
X45571666Y-20028718D01*
X45527319Y-20000217D01*
X45491615Y-19964513D01*
X45491613Y-19964511D01*
X45388886Y-19905201D01*
X45274309Y-19874500D01*
X45155691Y-19874500D01*
X45041114Y-19905201D01*
X45041112Y-19905201D01*
X45041112Y-19905202D01*
X44938387Y-19964511D01*
X44938384Y-19964513D01*
X44854513Y-20048384D01*
X44854511Y-20048387D01*
X44795201Y-20151114D01*
X44764500Y-20265691D01*
X500500Y-20265691D01*
X500500Y-19584691D01*
X17858500Y-19584691D01*
X17858500Y-19703309D01*
X17889201Y-19817886D01*
X17948511Y-19920613D01*
X18032387Y-20004489D01*
X18135114Y-20063799D01*
X18249691Y-20094500D01*
X18249694Y-20094500D01*
X18368306Y-20094500D01*
X18368309Y-20094500D01*
X18482886Y-20063799D01*
X18585613Y-20004489D01*
X18669489Y-19920613D01*
X18728799Y-19817886D01*
X18759500Y-19703309D01*
X18759500Y-19584691D01*
X18728799Y-19470114D01*
X18669489Y-19367387D01*
X18585613Y-19283511D01*
X18554746Y-19265690D01*
X23742914Y-19265690D01*
X23742914Y-19384308D01*
X23773615Y-19498885D01*
X23832925Y-19601612D01*
X23916801Y-19685488D01*
X24019528Y-19744798D01*
X24134105Y-19775499D01*
X24134108Y-19775499D01*
X24252720Y-19775499D01*
X24252723Y-19775499D01*
X24367300Y-19744798D01*
X24470027Y-19685488D01*
X24553903Y-19601612D01*
X24613213Y-19498885D01*
X24635505Y-19415691D01*
X37967000Y-19415691D01*
X37967000Y-19534309D01*
X37997701Y-19648886D01*
X38057011Y-19751613D01*
X38140887Y-19835489D01*
X38243614Y-19894799D01*
X38358191Y-19925500D01*
X38358194Y-19925500D01*
X38476806Y-19925500D01*
X38476809Y-19925500D01*
X38591386Y-19894799D01*
X38694113Y-19835489D01*
X38777989Y-19751613D01*
X38837299Y-19648886D01*
X38868000Y-19534309D01*
X38868000Y-19415691D01*
X42367000Y-19415691D01*
X42367000Y-19534309D01*
X42397701Y-19648886D01*
X42457011Y-19751613D01*
X42540887Y-19835489D01*
X42643614Y-19894799D01*
X42758191Y-19925500D01*
X42758194Y-19925500D01*
X42876806Y-19925500D01*
X42876809Y-19925500D01*
X42991386Y-19894799D01*
X43094113Y-19835489D01*
X43177989Y-19751613D01*
X43237299Y-19648886D01*
X43268000Y-19534309D01*
X43268000Y-19415691D01*
X43241564Y-19317031D01*
X48914965Y-19317031D01*
X48914965Y-19435649D01*
X48945666Y-19550226D01*
X49004976Y-19652953D01*
X49088852Y-19736829D01*
X49191579Y-19796139D01*
X49306156Y-19826840D01*
X49306159Y-19826840D01*
X49424771Y-19826840D01*
X49424774Y-19826840D01*
X49539351Y-19796139D01*
X49642078Y-19736829D01*
X49725954Y-19652953D01*
X49785264Y-19550226D01*
X49815965Y-19435649D01*
X49815965Y-19317031D01*
X49785264Y-19202454D01*
X49725954Y-19099727D01*
X49642078Y-19015851D01*
X49539351Y-18956541D01*
X49424774Y-18925840D01*
X49306156Y-18925840D01*
X49191579Y-18956541D01*
X49191577Y-18956541D01*
X49191577Y-18956542D01*
X49088852Y-19015851D01*
X49088849Y-19015853D01*
X49004978Y-19099724D01*
X49004976Y-19099727D01*
X48945666Y-19202454D01*
X48914965Y-19317031D01*
X43241564Y-19317031D01*
X43237299Y-19301114D01*
X43177989Y-19198387D01*
X43094113Y-19114511D01*
X42991386Y-19055201D01*
X42876809Y-19024500D01*
X42758191Y-19024500D01*
X42643614Y-19055201D01*
X42643612Y-19055201D01*
X42643612Y-19055202D01*
X42540887Y-19114511D01*
X42540884Y-19114513D01*
X42457013Y-19198384D01*
X42457011Y-19198387D01*
X42397701Y-19301114D01*
X42367000Y-19415691D01*
X38868000Y-19415691D01*
X38837299Y-19301114D01*
X38777989Y-19198387D01*
X38694113Y-19114511D01*
X38591386Y-19055201D01*
X38476809Y-19024500D01*
X38358191Y-19024500D01*
X38243614Y-19055201D01*
X38243612Y-19055201D01*
X38243612Y-19055202D01*
X38140887Y-19114511D01*
X38140884Y-19114513D01*
X38057013Y-19198384D01*
X38057011Y-19198387D01*
X37997701Y-19301114D01*
X37967000Y-19415691D01*
X24635505Y-19415691D01*
X24643914Y-19384308D01*
X24643914Y-19265690D01*
X24613213Y-19151113D01*
X24553903Y-19048386D01*
X24470027Y-18964510D01*
X24367300Y-18905200D01*
X24252723Y-18874499D01*
X24134105Y-18874499D01*
X24019528Y-18905200D01*
X24019526Y-18905200D01*
X24019526Y-18905201D01*
X23916801Y-18964510D01*
X23916798Y-18964512D01*
X23832927Y-19048383D01*
X23832925Y-19048386D01*
X23773615Y-19151113D01*
X23742914Y-19265690D01*
X18554746Y-19265690D01*
X18482886Y-19224201D01*
X18368309Y-19193500D01*
X18249691Y-19193500D01*
X18135114Y-19224201D01*
X18135112Y-19224201D01*
X18135112Y-19224202D01*
X18032387Y-19283511D01*
X18032384Y-19283513D01*
X17948513Y-19367384D01*
X17948511Y-19367387D01*
X17909100Y-19435649D01*
X17889201Y-19470114D01*
X17858500Y-19584691D01*
X500500Y-19584691D01*
X500500Y-17746625D01*
X22002732Y-17746625D01*
X22002732Y-17865243D01*
X22033433Y-17979820D01*
X22092743Y-18082547D01*
X22176619Y-18166423D01*
X22279346Y-18225733D01*
X22393923Y-18256434D01*
X22393926Y-18256434D01*
X22512538Y-18256434D01*
X22512541Y-18256434D01*
X22627118Y-18225733D01*
X22729845Y-18166423D01*
X22813721Y-18082547D01*
X22873031Y-17979820D01*
X22903732Y-17865243D01*
X22903732Y-17746625D01*
X22873031Y-17632048D01*
X22813721Y-17529321D01*
X22729845Y-17445445D01*
X22627118Y-17386135D01*
X22512541Y-17355434D01*
X22393923Y-17355434D01*
X22279346Y-17386135D01*
X22279344Y-17386135D01*
X22279344Y-17386136D01*
X22176619Y-17445445D01*
X22176616Y-17445447D01*
X22092745Y-17529318D01*
X22092743Y-17529321D01*
X22059221Y-17587383D01*
X22033433Y-17632048D01*
X22002732Y-17746625D01*
X500500Y-17746625D01*
X500500Y-17354187D01*
X23059794Y-17354187D01*
X23059794Y-17472805D01*
X23090495Y-17587382D01*
X23137881Y-17669457D01*
X23137885Y-17669466D01*
X23149801Y-17690103D01*
X23149803Y-17690106D01*
X23149805Y-17690109D01*
X23233681Y-17773985D01*
X23336408Y-17833295D01*
X23450985Y-17863996D01*
X23450988Y-17863996D01*
X23569600Y-17863996D01*
X23569603Y-17863996D01*
X23684180Y-17833295D01*
X23786907Y-17773985D01*
X23870783Y-17690109D01*
X23930093Y-17587382D01*
X23960794Y-17472805D01*
X23960794Y-17443691D01*
X25279500Y-17443691D01*
X25279500Y-17562309D01*
X25310201Y-17676886D01*
X25369511Y-17779613D01*
X25453387Y-17863489D01*
X25556114Y-17922799D01*
X25670691Y-17953500D01*
X25670694Y-17953500D01*
X25789306Y-17953500D01*
X25789309Y-17953500D01*
X25903886Y-17922799D01*
X26006613Y-17863489D01*
X26090489Y-17779613D01*
X26149799Y-17676886D01*
X26180500Y-17562309D01*
X26180500Y-17443691D01*
X26149799Y-17329114D01*
X26120247Y-17277929D01*
X29775771Y-17277929D01*
X29775771Y-17396547D01*
X29806472Y-17511124D01*
X29865782Y-17613851D01*
X29949658Y-17697727D01*
X30052385Y-17757037D01*
X30166962Y-17787738D01*
X30166965Y-17787738D01*
X30285577Y-17787738D01*
X30285580Y-17787738D01*
X30400157Y-17757037D01*
X30502884Y-17697727D01*
X30586760Y-17613851D01*
X30643433Y-17515691D01*
X31137000Y-17515691D01*
X31137000Y-17634309D01*
X31167701Y-17748886D01*
X31227011Y-17851613D01*
X31310887Y-17935489D01*
X31413614Y-17994799D01*
X31528191Y-18025500D01*
X31528194Y-18025500D01*
X31646806Y-18025500D01*
X31646809Y-18025500D01*
X31761386Y-17994799D01*
X31864113Y-17935489D01*
X31947989Y-17851613D01*
X32007299Y-17748886D01*
X32038000Y-17634309D01*
X32038000Y-17515691D01*
X32007299Y-17401114D01*
X31947989Y-17298387D01*
X31864113Y-17214511D01*
X31761386Y-17155201D01*
X31646809Y-17124500D01*
X31528191Y-17124500D01*
X31413614Y-17155201D01*
X31413612Y-17155201D01*
X31413612Y-17155202D01*
X31310887Y-17214511D01*
X31310884Y-17214513D01*
X31227013Y-17298384D01*
X31227011Y-17298387D01*
X31170340Y-17396544D01*
X31167701Y-17401114D01*
X31137000Y-17515691D01*
X30643433Y-17515691D01*
X30646070Y-17511124D01*
X30676771Y-17396547D01*
X30676771Y-17277929D01*
X30646070Y-17163352D01*
X30586760Y-17060625D01*
X30502884Y-16976749D01*
X30400157Y-16917439D01*
X30285580Y-16886738D01*
X30166962Y-16886738D01*
X30052385Y-16917439D01*
X30052383Y-16917439D01*
X30052383Y-16917440D01*
X29949658Y-16976749D01*
X29949655Y-16976751D01*
X29865784Y-17060622D01*
X29865782Y-17060625D01*
X29818504Y-17142513D01*
X29806472Y-17163352D01*
X29775771Y-17277929D01*
X26120247Y-17277929D01*
X26120144Y-17277750D01*
X26090491Y-17226390D01*
X26090486Y-17226384D01*
X26006615Y-17142513D01*
X26006613Y-17142511D01*
X25903886Y-17083201D01*
X25789309Y-17052500D01*
X25670691Y-17052500D01*
X25556114Y-17083201D01*
X25556112Y-17083201D01*
X25556112Y-17083202D01*
X25453387Y-17142511D01*
X25453384Y-17142513D01*
X25369513Y-17226384D01*
X25369511Y-17226387D01*
X25310201Y-17329114D01*
X25279500Y-17443691D01*
X23960794Y-17443691D01*
X23960794Y-17354187D01*
X23930093Y-17239610D01*
X23870783Y-17136883D01*
X23786907Y-17053007D01*
X23684180Y-16993697D01*
X23569603Y-16962996D01*
X23450985Y-16962996D01*
X23336408Y-16993697D01*
X23336406Y-16993697D01*
X23336406Y-16993698D01*
X23233681Y-17053007D01*
X23233678Y-17053009D01*
X23149807Y-17136880D01*
X23149805Y-17136883D01*
X23090495Y-17239610D01*
X23059794Y-17354187D01*
X500500Y-17354187D01*
X500500Y-16097794D01*
X6664733Y-16097794D01*
X6664733Y-16216412D01*
X6695434Y-16330989D01*
X6754744Y-16433716D01*
X6838620Y-16517592D01*
X6941347Y-16576902D01*
X7055924Y-16607603D01*
X7055927Y-16607603D01*
X7174539Y-16607603D01*
X7174542Y-16607603D01*
X7289119Y-16576902D01*
X7391846Y-16517592D01*
X7475722Y-16433716D01*
X7515574Y-16364691D01*
X12895500Y-16364691D01*
X12895500Y-16483309D01*
X12926201Y-16597886D01*
X12985511Y-16700613D01*
X13069387Y-16784489D01*
X13172114Y-16843799D01*
X13286691Y-16874500D01*
X13286694Y-16874500D01*
X13405306Y-16874500D01*
X13405309Y-16874500D01*
X13519886Y-16843799D01*
X13622613Y-16784489D01*
X13706489Y-16700613D01*
X13765799Y-16597886D01*
X13796500Y-16483309D01*
X13796500Y-16415691D01*
X25937000Y-16415691D01*
X25937000Y-16534309D01*
X25967701Y-16648886D01*
X26027011Y-16751613D01*
X26110887Y-16835489D01*
X26213614Y-16894799D01*
X26328191Y-16925500D01*
X26328194Y-16925500D01*
X26446806Y-16925500D01*
X26446809Y-16925500D01*
X26561386Y-16894799D01*
X26664113Y-16835489D01*
X26747989Y-16751613D01*
X26807299Y-16648886D01*
X26838000Y-16534309D01*
X26838000Y-16415691D01*
X26810222Y-16312023D01*
X26811885Y-16242179D01*
X26825886Y-16212579D01*
X27510004Y-15155286D01*
X29480941Y-15155286D01*
X29480941Y-15273904D01*
X29511642Y-15388481D01*
X29570952Y-15491208D01*
X29654828Y-15575084D01*
X29757555Y-15634394D01*
X29872132Y-15665095D01*
X29872135Y-15665095D01*
X29990747Y-15665095D01*
X29990750Y-15665095D01*
X30105327Y-15634394D01*
X30208054Y-15575084D01*
X30291930Y-15491208D01*
X30351240Y-15388481D01*
X30381941Y-15273904D01*
X30381941Y-15155286D01*
X30363859Y-15087803D01*
X30945994Y-15087803D01*
X30945994Y-15206421D01*
X30976695Y-15320998D01*
X31036005Y-15423725D01*
X31119881Y-15507601D01*
X31222608Y-15566911D01*
X31291109Y-15585266D01*
X31350769Y-15621630D01*
X31381298Y-15684477D01*
X31373003Y-15753852D01*
X31328518Y-15807730D01*
X31291111Y-15824814D01*
X31228657Y-15841549D01*
X31228656Y-15841549D01*
X31228654Y-15841550D01*
X31125930Y-15900859D01*
X31125927Y-15900861D01*
X31042056Y-15984732D01*
X31042054Y-15984735D01*
X31025474Y-16013453D01*
X30982744Y-16087462D01*
X30952043Y-16202039D01*
X30952043Y-16320657D01*
X30982744Y-16435234D01*
X31042054Y-16537961D01*
X31125930Y-16621837D01*
X31228657Y-16681147D01*
X31343234Y-16711848D01*
X31343237Y-16711848D01*
X31461849Y-16711848D01*
X31461852Y-16711848D01*
X31576429Y-16681147D01*
X31679156Y-16621837D01*
X31763032Y-16537961D01*
X31822342Y-16435234D01*
X31853043Y-16320657D01*
X31853043Y-16202039D01*
X31822342Y-16087462D01*
X31763032Y-15984735D01*
X31679156Y-15900859D01*
X31616699Y-15864799D01*
X31576430Y-15841549D01*
X31513977Y-15824815D01*
X31507926Y-15823193D01*
X31448266Y-15786828D01*
X31417738Y-15723981D01*
X31426033Y-15654606D01*
X31470519Y-15600728D01*
X31507922Y-15583646D01*
X31570380Y-15566911D01*
X31673107Y-15507601D01*
X31756983Y-15423725D01*
X31816293Y-15320998D01*
X31846994Y-15206421D01*
X31846994Y-15087803D01*
X31816293Y-14973226D01*
X31756983Y-14870499D01*
X31673107Y-14786623D01*
X31570380Y-14727313D01*
X31455803Y-14696612D01*
X31337185Y-14696612D01*
X31222608Y-14727313D01*
X31222606Y-14727313D01*
X31222606Y-14727314D01*
X31119881Y-14786623D01*
X31119878Y-14786625D01*
X31036007Y-14870496D01*
X31036005Y-14870499D01*
X30980047Y-14967421D01*
X30976695Y-14973226D01*
X30945994Y-15087803D01*
X30363859Y-15087803D01*
X30351240Y-15040709D01*
X30291930Y-14937982D01*
X30208054Y-14854106D01*
X30105327Y-14794796D01*
X29990750Y-14764095D01*
X29872132Y-14764095D01*
X29757555Y-14794796D01*
X29757553Y-14794796D01*
X29757553Y-14794797D01*
X29654828Y-14854106D01*
X29654825Y-14854108D01*
X29570954Y-14937979D01*
X29570952Y-14937982D01*
X29520596Y-15025201D01*
X29511642Y-15040709D01*
X29480941Y-15155286D01*
X27510004Y-15155286D01*
X27923852Y-14515691D01*
X35169500Y-14515691D01*
X35169500Y-14634309D01*
X35200201Y-14748886D01*
X35259511Y-14851613D01*
X35343387Y-14935489D01*
X35446114Y-14994799D01*
X35560691Y-15025500D01*
X35560694Y-15025500D01*
X35679306Y-15025500D01*
X35679309Y-15025500D01*
X35793886Y-14994799D01*
X35896613Y-14935489D01*
X35980489Y-14851613D01*
X36039799Y-14748886D01*
X36070500Y-14634309D01*
X36070500Y-14565691D01*
X36737000Y-14565691D01*
X36737000Y-14684309D01*
X36767701Y-14798886D01*
X36827011Y-14901613D01*
X36910887Y-14985489D01*
X37013614Y-15044799D01*
X37128191Y-15075500D01*
X37128194Y-15075500D01*
X37246806Y-15075500D01*
X37246809Y-15075500D01*
X37361386Y-15044799D01*
X37464113Y-14985489D01*
X37547989Y-14901613D01*
X37578477Y-14848806D01*
X42994857Y-14848806D01*
X42994857Y-14967424D01*
X43025558Y-15082001D01*
X43084868Y-15184728D01*
X43168744Y-15268604D01*
X43271471Y-15327914D01*
X43386048Y-15358615D01*
X43386051Y-15358615D01*
X43504663Y-15358615D01*
X43504666Y-15358615D01*
X43619243Y-15327914D01*
X43721970Y-15268604D01*
X43805846Y-15184728D01*
X43865156Y-15082001D01*
X43895857Y-14967424D01*
X43895857Y-14848806D01*
X43865156Y-14734229D01*
X43805846Y-14631502D01*
X43721970Y-14547626D01*
X43619243Y-14488316D01*
X43504666Y-14457615D01*
X43386048Y-14457615D01*
X43271471Y-14488316D01*
X43271469Y-14488316D01*
X43271469Y-14488317D01*
X43168744Y-14547626D01*
X43168741Y-14547628D01*
X43084870Y-14631499D01*
X43084868Y-14631502D01*
X43040818Y-14707799D01*
X43025558Y-14734229D01*
X42994857Y-14848806D01*
X37578477Y-14848806D01*
X37607299Y-14798886D01*
X37638000Y-14684309D01*
X37638000Y-14565691D01*
X37607299Y-14451114D01*
X37547989Y-14348387D01*
X37464113Y-14264511D01*
X37361386Y-14205201D01*
X37246809Y-14174500D01*
X37128191Y-14174500D01*
X37013614Y-14205201D01*
X37013612Y-14205201D01*
X37013612Y-14205202D01*
X36910887Y-14264511D01*
X36910884Y-14264513D01*
X36827013Y-14348384D01*
X36827011Y-14348387D01*
X36767701Y-14451114D01*
X36737000Y-14565691D01*
X36070500Y-14565691D01*
X36070500Y-14515691D01*
X36039799Y-14401114D01*
X35980489Y-14298387D01*
X35896613Y-14214511D01*
X35793886Y-14155201D01*
X35679309Y-14124500D01*
X35560691Y-14124500D01*
X35446114Y-14155201D01*
X35446112Y-14155201D01*
X35446112Y-14155202D01*
X35343387Y-14214511D01*
X35343384Y-14214513D01*
X35259513Y-14298384D01*
X35259511Y-14298387D01*
X35230355Y-14348887D01*
X35200201Y-14401114D01*
X35169500Y-14515691D01*
X27923852Y-14515691D01*
X28667955Y-13365691D01*
X30737000Y-13365691D01*
X30737000Y-13484309D01*
X30767701Y-13598886D01*
X30827011Y-13701613D01*
X30910887Y-13785489D01*
X31013614Y-13844799D01*
X31128191Y-13875500D01*
X31128194Y-13875500D01*
X31246806Y-13875500D01*
X31246809Y-13875500D01*
X31361386Y-13844799D01*
X31464113Y-13785489D01*
X31547989Y-13701613D01*
X31607299Y-13598886D01*
X31638000Y-13484309D01*
X31638000Y-13465691D01*
X38184500Y-13465691D01*
X38184500Y-13584309D01*
X38215201Y-13698886D01*
X38274511Y-13801613D01*
X38358387Y-13885489D01*
X38461114Y-13944799D01*
X38575691Y-13975500D01*
X38575694Y-13975500D01*
X38694306Y-13975500D01*
X38694309Y-13975500D01*
X38808886Y-13944799D01*
X38911613Y-13885489D01*
X38995489Y-13801613D01*
X39054799Y-13698886D01*
X39085500Y-13584309D01*
X39085500Y-13465691D01*
X39054799Y-13351114D01*
X38995489Y-13248387D01*
X38911613Y-13164511D01*
X38808886Y-13105201D01*
X38694309Y-13074500D01*
X38575691Y-13074500D01*
X38461114Y-13105201D01*
X38461112Y-13105201D01*
X38461112Y-13105202D01*
X38358387Y-13164511D01*
X38358384Y-13164513D01*
X38274513Y-13248384D01*
X38274511Y-13248387D01*
X38218046Y-13346187D01*
X38215201Y-13351114D01*
X38184500Y-13465691D01*
X31638000Y-13465691D01*
X31638000Y-13365691D01*
X31607299Y-13251114D01*
X31547989Y-13148387D01*
X31464113Y-13064511D01*
X31361386Y-13005201D01*
X31246809Y-12974500D01*
X31128191Y-12974500D01*
X31013614Y-13005201D01*
X31013612Y-13005201D01*
X31013612Y-13005202D01*
X30910887Y-13064511D01*
X30910884Y-13064513D01*
X30827013Y-13148384D01*
X30827011Y-13148387D01*
X30796519Y-13201201D01*
X30767701Y-13251114D01*
X30737000Y-13365691D01*
X28667955Y-13365691D01*
X29290582Y-12403430D01*
X29343526Y-12357841D01*
X29412715Y-12348111D01*
X29476181Y-12377333D01*
X29502074Y-12408792D01*
X29519652Y-12439236D01*
X29537939Y-12470910D01*
X29621815Y-12554786D01*
X29724542Y-12614096D01*
X29839119Y-12644797D01*
X29839122Y-12644797D01*
X29957734Y-12644797D01*
X29957737Y-12644797D01*
X30072314Y-12614096D01*
X30175041Y-12554786D01*
X30258917Y-12470910D01*
X30318227Y-12368183D01*
X30332292Y-12315691D01*
X31937000Y-12315691D01*
X31937000Y-12434309D01*
X31967701Y-12548886D01*
X32027011Y-12651613D01*
X32110887Y-12735489D01*
X32213614Y-12794799D01*
X32328191Y-12825500D01*
X32328194Y-12825500D01*
X32446806Y-12825500D01*
X32446809Y-12825500D01*
X32561386Y-12794799D01*
X32664113Y-12735489D01*
X32747989Y-12651613D01*
X32807299Y-12548886D01*
X32838000Y-12434309D01*
X32838000Y-12315691D01*
X32824602Y-12265691D01*
X34984500Y-12265691D01*
X34984500Y-12384309D01*
X35015201Y-12498886D01*
X35074511Y-12601613D01*
X35158387Y-12685489D01*
X35261114Y-12744799D01*
X35375691Y-12775500D01*
X35375694Y-12775500D01*
X35494306Y-12775500D01*
X35494309Y-12775500D01*
X35608886Y-12744799D01*
X35638712Y-12727579D01*
X43053245Y-12727579D01*
X43053245Y-12846197D01*
X43083946Y-12960774D01*
X43143256Y-13063501D01*
X43227132Y-13147377D01*
X43329859Y-13206687D01*
X43444436Y-13237388D01*
X43444439Y-13237388D01*
X43563051Y-13237388D01*
X43563054Y-13237388D01*
X43677631Y-13206687D01*
X43780358Y-13147377D01*
X43864234Y-13063501D01*
X43923544Y-12960774D01*
X43954245Y-12846197D01*
X43954245Y-12727579D01*
X43923544Y-12613002D01*
X43864234Y-12510275D01*
X43793193Y-12439234D01*
X47849500Y-12439234D01*
X47849500Y-12590766D01*
X47852407Y-12601615D01*
X47888719Y-12737136D01*
X47910869Y-12775500D01*
X47964485Y-12868365D01*
X48071635Y-12975515D01*
X48202865Y-13051281D01*
X48349234Y-13090500D01*
X48349236Y-13090500D01*
X48500764Y-13090500D01*
X48500766Y-13090500D01*
X48647135Y-13051281D01*
X48778365Y-12975515D01*
X48885515Y-12868365D01*
X48961281Y-12737135D01*
X49000500Y-12590766D01*
X49000500Y-12439234D01*
X48961281Y-12292865D01*
X48885515Y-12161635D01*
X48778365Y-12054485D01*
X48709128Y-12014511D01*
X48647136Y-11978719D01*
X48559367Y-11955202D01*
X48500766Y-11939500D01*
X48349234Y-11939500D01*
X48202863Y-11978719D01*
X48071635Y-12054485D01*
X48071632Y-12054487D01*
X47964487Y-12161632D01*
X47964485Y-12161635D01*
X47888719Y-12292863D01*
X47866086Y-12377333D01*
X47849500Y-12439234D01*
X43793193Y-12439234D01*
X43780358Y-12426399D01*
X43677631Y-12367089D01*
X43563054Y-12336388D01*
X43444436Y-12336388D01*
X43329859Y-12367089D01*
X43329857Y-12367089D01*
X43329857Y-12367090D01*
X43227132Y-12426399D01*
X43227129Y-12426401D01*
X43143258Y-12510272D01*
X43143256Y-12510275D01*
X43090522Y-12601613D01*
X43083946Y-12613002D01*
X43053245Y-12727579D01*
X35638712Y-12727579D01*
X35711613Y-12685489D01*
X35795489Y-12601613D01*
X35854799Y-12498886D01*
X35885500Y-12384309D01*
X35885500Y-12265691D01*
X35854799Y-12151114D01*
X35795489Y-12048387D01*
X35711613Y-11964511D01*
X35608886Y-11905201D01*
X35494309Y-11874500D01*
X35375691Y-11874500D01*
X35261114Y-11905201D01*
X35261112Y-11905201D01*
X35261112Y-11905202D01*
X35158387Y-11964511D01*
X35158384Y-11964513D01*
X35074513Y-12048384D01*
X35074511Y-12048387D01*
X35015201Y-12151114D01*
X34984500Y-12265691D01*
X32824602Y-12265691D01*
X32807299Y-12201114D01*
X32747989Y-12098387D01*
X32664113Y-12014511D01*
X32561386Y-11955201D01*
X32446809Y-11924500D01*
X32328191Y-11924500D01*
X32213614Y-11955201D01*
X32213612Y-11955201D01*
X32213612Y-11955202D01*
X32110887Y-12014511D01*
X32110884Y-12014513D01*
X32027013Y-12098384D01*
X32027011Y-12098387D01*
X31971878Y-12193880D01*
X31967701Y-12201114D01*
X31937000Y-12315691D01*
X30332292Y-12315691D01*
X30348928Y-12253606D01*
X30348928Y-12134988D01*
X30318227Y-12020411D01*
X30258917Y-11917684D01*
X30175041Y-11833808D01*
X30072314Y-11774498D01*
X30067974Y-11771992D01*
X30019759Y-11721424D01*
X30006537Y-11652817D01*
X30032505Y-11587952D01*
X30067974Y-11557218D01*
X30086213Y-11546689D01*
X30170089Y-11462813D01*
X30229399Y-11360086D01*
X30260100Y-11245509D01*
X30260100Y-11126891D01*
X30229399Y-11012314D01*
X30170089Y-10909587D01*
X30086213Y-10825711D01*
X29983486Y-10766401D01*
X29868909Y-10735700D01*
X29750291Y-10735700D01*
X29635714Y-10766401D01*
X29635712Y-10766401D01*
X29635712Y-10766402D01*
X29532987Y-10825711D01*
X29532984Y-10825713D01*
X29449113Y-10909584D01*
X29449111Y-10909587D01*
X29389800Y-11012314D01*
X29389800Y-11012315D01*
X29386064Y-11026259D01*
X29349699Y-11085919D01*
X29286851Y-11116447D01*
X29217476Y-11108152D01*
X29163599Y-11063666D01*
X29146515Y-11026257D01*
X29146263Y-11025316D01*
X29146263Y-11025314D01*
X29115562Y-10910737D01*
X29056252Y-10808010D01*
X28972376Y-10724134D01*
X28869649Y-10664824D01*
X28755072Y-10634123D01*
X28636454Y-10634123D01*
X28521877Y-10664824D01*
X28521875Y-10664824D01*
X28521875Y-10664825D01*
X28419150Y-10724134D01*
X28419147Y-10724136D01*
X28335276Y-10808007D01*
X28335274Y-10808010D01*
X28281171Y-10901719D01*
X28275964Y-10910737D01*
X28245263Y-11025314D01*
X28245263Y-11143932D01*
X28275964Y-11258509D01*
X28335274Y-11361236D01*
X28335276Y-11361238D01*
X28361006Y-11386968D01*
X28394491Y-11448291D01*
X28389507Y-11517983D01*
X28347635Y-11573916D01*
X28282171Y-11598333D01*
X28241232Y-11594424D01*
X28208797Y-11585733D01*
X28148192Y-11569494D01*
X28029574Y-11569494D01*
X27914997Y-11600195D01*
X27914995Y-11600195D01*
X27914995Y-11600196D01*
X27812270Y-11659505D01*
X27812267Y-11659507D01*
X27728396Y-11743378D01*
X27728394Y-11743381D01*
X27670369Y-11843883D01*
X27669084Y-11846108D01*
X27638383Y-11960685D01*
X27638383Y-12079303D01*
X27669084Y-12193880D01*
X27728394Y-12296607D01*
X27812270Y-12380483D01*
X27914997Y-12439793D01*
X28029574Y-12470494D01*
X28029577Y-12470494D01*
X28148189Y-12470494D01*
X28148192Y-12470494D01*
X28262769Y-12439793D01*
X28365496Y-12380483D01*
X28449372Y-12296607D01*
X28508682Y-12193880D01*
X28539383Y-12079303D01*
X28539383Y-11960685D01*
X28508682Y-11846108D01*
X28449372Y-11743381D01*
X28423639Y-11717648D01*
X28390154Y-11656325D01*
X28395138Y-11586633D01*
X28437010Y-11530700D01*
X28502474Y-11506283D01*
X28543409Y-11510191D01*
X28636454Y-11535123D01*
X28636457Y-11535123D01*
X28755069Y-11535123D01*
X28755072Y-11535123D01*
X28869649Y-11504422D01*
X28972376Y-11445112D01*
X29056252Y-11361236D01*
X29115562Y-11258509D01*
X29119299Y-11244564D01*
X29155658Y-11184907D01*
X29218504Y-11154376D01*
X29287880Y-11162668D01*
X29341760Y-11207151D01*
X29358847Y-11244564D01*
X29359100Y-11245508D01*
X29359100Y-11245509D01*
X29362583Y-11258509D01*
X29386876Y-11349169D01*
X29385213Y-11419019D01*
X29371208Y-11448625D01*
X26447054Y-15967862D01*
X26394109Y-16013453D01*
X26342947Y-16024500D01*
X26328191Y-16024500D01*
X26213614Y-16055201D01*
X26213612Y-16055201D01*
X26213612Y-16055202D01*
X26110887Y-16114511D01*
X26110884Y-16114513D01*
X26027013Y-16198384D01*
X26027011Y-16198387D01*
X25967701Y-16301114D01*
X25937000Y-16415691D01*
X13796500Y-16415691D01*
X13796500Y-16364691D01*
X13765799Y-16250114D01*
X13706489Y-16147387D01*
X13622613Y-16063511D01*
X13519886Y-16004201D01*
X13405309Y-15973500D01*
X13286691Y-15973500D01*
X13172114Y-16004201D01*
X13172112Y-16004201D01*
X13172112Y-16004202D01*
X13069387Y-16063511D01*
X13069384Y-16063513D01*
X12985513Y-16147384D01*
X12985511Y-16147387D01*
X12926201Y-16250114D01*
X12895500Y-16364691D01*
X7515574Y-16364691D01*
X7535032Y-16330989D01*
X7565733Y-16216412D01*
X7565733Y-16097794D01*
X7535032Y-15983217D01*
X7475722Y-15880490D01*
X7391846Y-15796614D01*
X7289119Y-15737304D01*
X7174542Y-15706603D01*
X7055924Y-15706603D01*
X6941347Y-15737304D01*
X6941345Y-15737304D01*
X6941345Y-15737305D01*
X6838620Y-15796614D01*
X6838617Y-15796616D01*
X6754746Y-15880487D01*
X6754744Y-15880490D01*
X6695434Y-15983217D01*
X6664733Y-16097794D01*
X500500Y-16097794D01*
X500500Y-15048654D01*
X15763104Y-15048654D01*
X15763104Y-15167272D01*
X15793805Y-15281849D01*
X15853115Y-15384576D01*
X15936991Y-15468452D01*
X16039718Y-15527762D01*
X16154295Y-15558463D01*
X16154298Y-15558463D01*
X16272910Y-15558463D01*
X16272913Y-15558463D01*
X16387490Y-15527762D01*
X16490217Y-15468452D01*
X16572978Y-15385691D01*
X20549500Y-15385691D01*
X20549500Y-15504309D01*
X20580201Y-15618886D01*
X20639511Y-15721613D01*
X20723387Y-15805489D01*
X20826114Y-15864799D01*
X20940691Y-15895500D01*
X20940694Y-15895500D01*
X21059306Y-15895500D01*
X21059309Y-15895500D01*
X21173886Y-15864799D01*
X21276613Y-15805489D01*
X21360489Y-15721613D01*
X21419799Y-15618886D01*
X21450500Y-15504309D01*
X21450500Y-15385691D01*
X21419799Y-15271114D01*
X21360489Y-15168387D01*
X21276613Y-15084511D01*
X21173886Y-15025201D01*
X21059309Y-14994500D01*
X20940691Y-14994500D01*
X20826114Y-15025201D01*
X20826112Y-15025201D01*
X20826112Y-15025202D01*
X20723387Y-15084511D01*
X20723384Y-15084513D01*
X20639513Y-15168384D01*
X20639511Y-15168387D01*
X20580201Y-15271114D01*
X20549500Y-15385691D01*
X16572978Y-15385691D01*
X16574093Y-15384576D01*
X16633403Y-15281849D01*
X16664104Y-15167272D01*
X16664104Y-15048654D01*
X16633403Y-14934077D01*
X16598817Y-14874172D01*
X17844780Y-14874172D01*
X17844780Y-14992790D01*
X17875481Y-15107367D01*
X17934791Y-15210094D01*
X18018667Y-15293970D01*
X18121394Y-15353280D01*
X18235971Y-15383981D01*
X18235974Y-15383981D01*
X18354586Y-15383981D01*
X18354589Y-15383981D01*
X18469166Y-15353280D01*
X18571893Y-15293970D01*
X18655769Y-15210094D01*
X18715079Y-15107367D01*
X18745780Y-14992790D01*
X18745780Y-14874172D01*
X18715079Y-14759595D01*
X18655769Y-14656868D01*
X18571893Y-14572992D01*
X18469166Y-14513682D01*
X18354589Y-14482981D01*
X18235971Y-14482981D01*
X18121394Y-14513682D01*
X18121392Y-14513682D01*
X18121392Y-14513683D01*
X18018667Y-14572992D01*
X18018664Y-14572994D01*
X17934793Y-14656865D01*
X17934791Y-14656868D01*
X17916722Y-14688165D01*
X17875481Y-14759595D01*
X17844780Y-14874172D01*
X16598817Y-14874172D01*
X16574093Y-14831350D01*
X16490217Y-14747474D01*
X16387490Y-14688164D01*
X16272913Y-14657463D01*
X16154295Y-14657463D01*
X16039718Y-14688164D01*
X16039716Y-14688164D01*
X16039716Y-14688165D01*
X15936991Y-14747474D01*
X15936988Y-14747476D01*
X15853117Y-14831347D01*
X15853115Y-14831350D01*
X15793805Y-14934077D01*
X15763104Y-15048654D01*
X500500Y-15048654D01*
X500500Y-14115691D01*
X20549500Y-14115691D01*
X20549500Y-14234309D01*
X20580201Y-14348886D01*
X20639511Y-14451613D01*
X20723387Y-14535489D01*
X20826114Y-14594799D01*
X20940691Y-14625500D01*
X20940694Y-14625500D01*
X21059306Y-14625500D01*
X21059309Y-14625500D01*
X21173886Y-14594799D01*
X21276613Y-14535489D01*
X21360489Y-14451613D01*
X21376070Y-14424626D01*
X21426635Y-14376412D01*
X21495242Y-14363188D01*
X21560107Y-14389156D01*
X21600636Y-14446070D01*
X21603230Y-14454531D01*
X21605200Y-14461885D01*
X21620461Y-14488317D01*
X21664511Y-14564613D01*
X21748387Y-14648489D01*
X21851114Y-14707799D01*
X21965691Y-14738500D01*
X21965694Y-14738500D01*
X22084306Y-14738500D01*
X22084309Y-14738500D01*
X22198886Y-14707799D01*
X22301613Y-14648489D01*
X22324411Y-14625691D01*
X24922304Y-14625691D01*
X24922304Y-14744309D01*
X24953005Y-14858886D01*
X25012315Y-14961613D01*
X25096191Y-15045489D01*
X25198918Y-15104799D01*
X25313495Y-15135500D01*
X25313498Y-15135500D01*
X25432110Y-15135500D01*
X25432113Y-15135500D01*
X25546690Y-15104799D01*
X25649417Y-15045489D01*
X25733293Y-14961613D01*
X25792603Y-14858886D01*
X25823304Y-14744309D01*
X25823304Y-14625691D01*
X25792603Y-14511114D01*
X25733293Y-14408387D01*
X25649417Y-14324511D01*
X25590106Y-14290267D01*
X25546689Y-14265200D01*
X25539186Y-14262093D01*
X25539977Y-14260181D01*
X25489747Y-14229558D01*
X25459223Y-14166708D01*
X25467524Y-14097333D01*
X25512014Y-14043459D01*
X25549410Y-14026383D01*
X25663167Y-13995902D01*
X25765894Y-13936592D01*
X25849770Y-13852716D01*
X25909080Y-13749989D01*
X25939781Y-13635412D01*
X25939781Y-13540348D01*
X25959466Y-13473309D01*
X26012270Y-13427554D01*
X26081428Y-13417610D01*
X26144984Y-13446635D01*
X26171167Y-13478347D01*
X26190284Y-13511458D01*
X26274160Y-13595334D01*
X26376887Y-13654644D01*
X26491464Y-13685345D01*
X26491467Y-13685345D01*
X26610079Y-13685345D01*
X26610082Y-13685345D01*
X26724659Y-13654644D01*
X26827386Y-13595334D01*
X26911262Y-13511458D01*
X26970572Y-13408731D01*
X27001273Y-13294154D01*
X27001273Y-13175536D01*
X26970572Y-13060959D01*
X26911262Y-12958232D01*
X26827386Y-12874356D01*
X26724659Y-12815046D01*
X26639931Y-12792343D01*
X26580273Y-12755979D01*
X26549744Y-12693132D01*
X26558039Y-12623756D01*
X26602524Y-12569878D01*
X26639930Y-12552795D01*
X26686583Y-12540295D01*
X26789310Y-12480985D01*
X26873186Y-12397109D01*
X26932496Y-12294382D01*
X26963197Y-12179805D01*
X26963197Y-12061187D01*
X26932496Y-11946610D01*
X26873186Y-11843883D01*
X26789310Y-11760007D01*
X26686583Y-11700697D01*
X26572006Y-11669996D01*
X26453388Y-11669996D01*
X26338811Y-11700697D01*
X26338809Y-11700697D01*
X26338809Y-11700698D01*
X26236084Y-11760007D01*
X26236081Y-11760009D01*
X26152210Y-11843880D01*
X26152208Y-11843883D01*
X26109599Y-11917684D01*
X26092898Y-11946610D01*
X26062197Y-12061187D01*
X26062197Y-12179805D01*
X26092898Y-12294382D01*
X26152208Y-12397109D01*
X26236084Y-12480985D01*
X26338811Y-12540295D01*
X26423537Y-12562997D01*
X26483196Y-12599361D01*
X26513725Y-12662208D01*
X26505430Y-12731583D01*
X26460945Y-12785461D01*
X26423538Y-12802545D01*
X26376887Y-12815045D01*
X26274160Y-12874356D01*
X26274157Y-12874358D01*
X26190286Y-12958229D01*
X26190284Y-12958232D01*
X26130974Y-13060959D01*
X26100273Y-13175536D01*
X26100273Y-13175538D01*
X26100273Y-13270599D01*
X26080588Y-13337638D01*
X26027784Y-13383393D01*
X25958626Y-13393337D01*
X25895070Y-13364312D01*
X25868886Y-13332600D01*
X25849770Y-13299490D01*
X25765894Y-13215614D01*
X25663167Y-13156304D01*
X25548590Y-13125603D01*
X25429972Y-13125603D01*
X25315395Y-13156304D01*
X25315393Y-13156304D01*
X25315393Y-13156305D01*
X25212668Y-13215614D01*
X25212665Y-13215616D01*
X25128794Y-13299487D01*
X25128792Y-13299490D01*
X25069482Y-13402217D01*
X25038781Y-13516794D01*
X25038781Y-13635412D01*
X25069482Y-13749989D01*
X25128792Y-13852716D01*
X25212668Y-13936592D01*
X25315393Y-13995901D01*
X25315395Y-13995902D01*
X25322899Y-13999010D01*
X25322106Y-14000924D01*
X25372326Y-14031532D01*
X25402858Y-14094378D01*
X25394566Y-14163754D01*
X25350083Y-14217633D01*
X25312670Y-14234721D01*
X25198916Y-14265201D01*
X25096191Y-14324511D01*
X25096188Y-14324513D01*
X25012317Y-14408384D01*
X25012315Y-14408387D01*
X24966168Y-14488316D01*
X24953005Y-14511114D01*
X24922304Y-14625691D01*
X22324411Y-14625691D01*
X22385489Y-14564613D01*
X22388482Y-14559428D01*
X22390716Y-14555561D01*
X22444797Y-14461889D01*
X22444796Y-14461889D01*
X22444799Y-14461886D01*
X22475500Y-14347309D01*
X22475500Y-14228691D01*
X22444799Y-14114114D01*
X22385489Y-14011387D01*
X22301613Y-13927511D01*
X22198886Y-13868201D01*
X22084309Y-13837500D01*
X21965691Y-13837500D01*
X21851114Y-13868201D01*
X21851112Y-13868201D01*
X21851112Y-13868202D01*
X21748387Y-13927511D01*
X21748384Y-13927513D01*
X21664513Y-14011384D01*
X21664507Y-14011393D01*
X21648928Y-14038375D01*
X21598360Y-14086589D01*
X21529753Y-14099810D01*
X21464889Y-14073840D01*
X21424362Y-14016925D01*
X21421776Y-14008493D01*
X21419799Y-14001114D01*
X21419689Y-14000924D01*
X21387284Y-13944797D01*
X21360489Y-13898387D01*
X21276613Y-13814511D01*
X21173886Y-13755201D01*
X21059309Y-13724500D01*
X20940691Y-13724500D01*
X20826114Y-13755201D01*
X20826112Y-13755201D01*
X20826112Y-13755202D01*
X20723387Y-13814511D01*
X20723384Y-13814513D01*
X20639513Y-13898384D01*
X20639511Y-13898387D01*
X20591532Y-13981489D01*
X20580201Y-14001114D01*
X20549500Y-14115691D01*
X500500Y-14115691D01*
X500500Y-13481494D01*
X10051423Y-13481494D01*
X10051423Y-13600112D01*
X10082124Y-13714689D01*
X10141434Y-13817416D01*
X10225310Y-13901292D01*
X10328037Y-13960602D01*
X10442614Y-13991303D01*
X10442617Y-13991303D01*
X10561229Y-13991303D01*
X10561232Y-13991303D01*
X10675809Y-13960602D01*
X10778536Y-13901292D01*
X10862412Y-13817416D01*
X10921722Y-13714689D01*
X10952423Y-13600112D01*
X10952423Y-13561691D01*
X11780500Y-13561691D01*
X11780500Y-13680309D01*
X11811201Y-13794886D01*
X11870511Y-13897613D01*
X11954387Y-13981489D01*
X12057114Y-14040799D01*
X12171691Y-14071500D01*
X12171694Y-14071500D01*
X12290306Y-14071500D01*
X12290309Y-14071500D01*
X12404886Y-14040799D01*
X12507613Y-13981489D01*
X12591489Y-13897613D01*
X12650799Y-13794886D01*
X12681500Y-13680309D01*
X12681500Y-13561691D01*
X12650799Y-13447114D01*
X12592527Y-13346184D01*
X12591493Y-13344393D01*
X12591490Y-13344390D01*
X12591489Y-13344387D01*
X12539415Y-13292313D01*
X17598698Y-13292313D01*
X17598698Y-13410931D01*
X17629399Y-13525508D01*
X17688709Y-13628235D01*
X17772585Y-13712111D01*
X17875312Y-13771421D01*
X17989889Y-13802122D01*
X17989892Y-13802122D01*
X18108504Y-13802122D01*
X18108507Y-13802122D01*
X18223084Y-13771421D01*
X18325811Y-13712111D01*
X18409687Y-13628235D01*
X18468997Y-13525508D01*
X18499698Y-13410931D01*
X18499698Y-13292313D01*
X18468997Y-13177736D01*
X18409687Y-13075009D01*
X18325811Y-12991133D01*
X18223084Y-12931823D01*
X18108507Y-12901122D01*
X17989889Y-12901122D01*
X17875312Y-12931823D01*
X17875310Y-12931823D01*
X17875310Y-12931824D01*
X17772585Y-12991133D01*
X17772582Y-12991135D01*
X17688711Y-13075006D01*
X17688709Y-13075009D01*
X17637035Y-13164511D01*
X17629399Y-13177736D01*
X17598698Y-13292313D01*
X12539415Y-13292313D01*
X12507613Y-13260511D01*
X12404886Y-13201201D01*
X12290309Y-13170500D01*
X12171691Y-13170500D01*
X12057114Y-13201201D01*
X12057112Y-13201201D01*
X12057112Y-13201202D01*
X11954387Y-13260511D01*
X11954384Y-13260513D01*
X11870513Y-13344384D01*
X11870511Y-13344387D01*
X11811478Y-13446635D01*
X11811201Y-13447114D01*
X11780500Y-13561691D01*
X10952423Y-13561691D01*
X10952423Y-13481494D01*
X10921722Y-13366917D01*
X10862412Y-13264190D01*
X10778536Y-13180314D01*
X10675809Y-13121004D01*
X10561232Y-13090303D01*
X10442614Y-13090303D01*
X10328037Y-13121004D01*
X10328035Y-13121004D01*
X10328035Y-13121005D01*
X10225310Y-13180314D01*
X10225307Y-13180316D01*
X10141436Y-13264187D01*
X10141434Y-13264190D01*
X10094093Y-13346187D01*
X10082124Y-13366917D01*
X10051423Y-13481494D01*
X500500Y-13481494D01*
X500500Y-11365691D01*
X824500Y-11365691D01*
X824500Y-11484309D01*
X855201Y-11598886D01*
X914511Y-11701613D01*
X998387Y-11785489D01*
X1101114Y-11844799D01*
X1215691Y-11875500D01*
X1215694Y-11875500D01*
X1334306Y-11875500D01*
X1334309Y-11875500D01*
X1448886Y-11844799D01*
X1551613Y-11785489D01*
X1635489Y-11701613D01*
X1694799Y-11598886D01*
X1725500Y-11484309D01*
X1725500Y-11365691D01*
X1694799Y-11251114D01*
X1635489Y-11148387D01*
X1551613Y-11064511D01*
X1448886Y-11005201D01*
X1334309Y-10974500D01*
X1215691Y-10974500D01*
X1101114Y-11005201D01*
X1101112Y-11005201D01*
X1101112Y-11005202D01*
X998387Y-11064511D01*
X998384Y-11064513D01*
X914513Y-11148384D01*
X914511Y-11148387D01*
X855201Y-11251114D01*
X824500Y-11365691D01*
X500500Y-11365691D01*
X500500Y-10448902D01*
X15653817Y-10448902D01*
X15653817Y-10567520D01*
X15684518Y-10682097D01*
X15743828Y-10784824D01*
X15827704Y-10868700D01*
X15930431Y-10928010D01*
X16045008Y-10958711D01*
X16045011Y-10958711D01*
X16163623Y-10958711D01*
X16163626Y-10958711D01*
X16278203Y-10928010D01*
X16380930Y-10868700D01*
X16464806Y-10784824D01*
X16504104Y-10716758D01*
X16842185Y-10716758D01*
X16842185Y-10835376D01*
X16872886Y-10949953D01*
X16932196Y-11052680D01*
X17016072Y-11136556D01*
X17118799Y-11195866D01*
X17233376Y-11226567D01*
X17233379Y-11226567D01*
X17351991Y-11226567D01*
X17351994Y-11226567D01*
X17466571Y-11195866D01*
X17569298Y-11136556D01*
X17653174Y-11052680D01*
X17712484Y-10949953D01*
X17743185Y-10835376D01*
X17743185Y-10716758D01*
X17712484Y-10602181D01*
X17653174Y-10499454D01*
X17569298Y-10415578D01*
X17466571Y-10356268D01*
X17351994Y-10325567D01*
X17233376Y-10325567D01*
X17118799Y-10356268D01*
X17118797Y-10356268D01*
X17118797Y-10356269D01*
X17016072Y-10415578D01*
X17016069Y-10415580D01*
X16932198Y-10499451D01*
X16932196Y-10499454D01*
X16872886Y-10602181D01*
X16842185Y-10716758D01*
X16504104Y-10716758D01*
X16524116Y-10682097D01*
X16554817Y-10567520D01*
X16554817Y-10448902D01*
X16524116Y-10334325D01*
X16464806Y-10231598D01*
X16380930Y-10147722D01*
X16278203Y-10088412D01*
X16163626Y-10057711D01*
X16045008Y-10057711D01*
X15930431Y-10088412D01*
X15930429Y-10088412D01*
X15930429Y-10088413D01*
X15827704Y-10147722D01*
X15827701Y-10147724D01*
X15743830Y-10231595D01*
X15743828Y-10231598D01*
X15685060Y-10333387D01*
X15684518Y-10334325D01*
X15653817Y-10448902D01*
X500500Y-10448902D01*
X500500Y-9892691D01*
X3849500Y-9892691D01*
X3849500Y-10011309D01*
X3880201Y-10125886D01*
X3939511Y-10228613D01*
X4023387Y-10312489D01*
X4126114Y-10371799D01*
X4240691Y-10402500D01*
X4240694Y-10402500D01*
X4359306Y-10402500D01*
X4359309Y-10402500D01*
X4473886Y-10371799D01*
X4540415Y-10333387D01*
X4540418Y-10333387D01*
X4576606Y-10312493D01*
X4576605Y-10312493D01*
X4576613Y-10312489D01*
X4660489Y-10228613D01*
X4719799Y-10125886D01*
X4750500Y-10011309D01*
X4750500Y-9892691D01*
X4719799Y-9778114D01*
X4660489Y-9675387D01*
X4576613Y-9591511D01*
X4473886Y-9532201D01*
X4359309Y-9501500D01*
X4240691Y-9501500D01*
X4126114Y-9532201D01*
X4126112Y-9532201D01*
X4126112Y-9532202D01*
X4023387Y-9591511D01*
X4023384Y-9591513D01*
X3939513Y-9675384D01*
X3939511Y-9675387D01*
X3880201Y-9778114D01*
X3849500Y-9892691D01*
X500500Y-9892691D01*
X500500Y-8783461D01*
X13303003Y-8783461D01*
X13303003Y-8902079D01*
X13333704Y-9016656D01*
X13393014Y-9119383D01*
X13476890Y-9203259D01*
X13579617Y-9262569D01*
X13694194Y-9293270D01*
X13694197Y-9293270D01*
X13812809Y-9293270D01*
X13812812Y-9293270D01*
X13927389Y-9262569D01*
X14030116Y-9203259D01*
X14113992Y-9119383D01*
X14173302Y-9016656D01*
X14184887Y-8973422D01*
X14415468Y-8973422D01*
X14415468Y-9092040D01*
X14446169Y-9206617D01*
X14505479Y-9309344D01*
X14589355Y-9393220D01*
X14692082Y-9452530D01*
X14806659Y-9483231D01*
X14806662Y-9483231D01*
X14925274Y-9483231D01*
X14925277Y-9483231D01*
X15039854Y-9452530D01*
X15142581Y-9393220D01*
X15151308Y-9384493D01*
X21105730Y-9384493D01*
X21105730Y-9503111D01*
X21136431Y-9617688D01*
X21195741Y-9720415D01*
X21279617Y-9804291D01*
X21382344Y-9863601D01*
X21496921Y-9894302D01*
X21496924Y-9894302D01*
X21615536Y-9894302D01*
X21615539Y-9894302D01*
X21730116Y-9863601D01*
X21832843Y-9804291D01*
X21916719Y-9720415D01*
X21976029Y-9617688D01*
X22006730Y-9503111D01*
X22006730Y-9384493D01*
X21979482Y-9282801D01*
X23936959Y-9282801D01*
X23936959Y-9401419D01*
X23967660Y-9515996D01*
X24026970Y-9618723D01*
X24110846Y-9702599D01*
X24213573Y-9761909D01*
X24328150Y-9792610D01*
X24328153Y-9792610D01*
X24446765Y-9792610D01*
X24446768Y-9792610D01*
X24561345Y-9761909D01*
X24664072Y-9702599D01*
X24747948Y-9618723D01*
X24749699Y-9615691D01*
X30337000Y-9615691D01*
X30337000Y-9734309D01*
X30367701Y-9848886D01*
X30427011Y-9951613D01*
X30510887Y-10035489D01*
X30613614Y-10094799D01*
X30728191Y-10125500D01*
X30728194Y-10125500D01*
X30839759Y-10125500D01*
X30906798Y-10145185D01*
X30952553Y-10197989D01*
X30962497Y-10267147D01*
X30959534Y-10281593D01*
X30941609Y-10348491D01*
X30937000Y-10365691D01*
X30937000Y-10484309D01*
X30967701Y-10598886D01*
X31027011Y-10701613D01*
X31110887Y-10785489D01*
X31213614Y-10844799D01*
X31328191Y-10875500D01*
X31328194Y-10875500D01*
X31446806Y-10875500D01*
X31446809Y-10875500D01*
X31561386Y-10844799D01*
X31664113Y-10785489D01*
X31747989Y-10701613D01*
X31768729Y-10665691D01*
X38184500Y-10665691D01*
X38184500Y-10784309D01*
X38215201Y-10898886D01*
X38274511Y-11001613D01*
X38358387Y-11085489D01*
X38461114Y-11144799D01*
X38575691Y-11175500D01*
X38575694Y-11175500D01*
X38694306Y-11175500D01*
X38694309Y-11175500D01*
X38808886Y-11144799D01*
X38911613Y-11085489D01*
X38995489Y-11001613D01*
X39054799Y-10898886D01*
X39085500Y-10784309D01*
X39085500Y-10665691D01*
X39058734Y-10565798D01*
X39920163Y-10565798D01*
X39920163Y-10684416D01*
X39950864Y-10798993D01*
X40010174Y-10901720D01*
X40094050Y-10985596D01*
X40196777Y-11044906D01*
X40311354Y-11075607D01*
X40311357Y-11075607D01*
X40429969Y-11075607D01*
X40429972Y-11075607D01*
X40544549Y-11044906D01*
X40647276Y-10985596D01*
X40731152Y-10901720D01*
X40790462Y-10798993D01*
X40821163Y-10684416D01*
X40821163Y-10565798D01*
X40790462Y-10451221D01*
X40731152Y-10348494D01*
X40647276Y-10264618D01*
X40544549Y-10205308D01*
X40429972Y-10174607D01*
X40311354Y-10174607D01*
X40196777Y-10205308D01*
X40196775Y-10205308D01*
X40196775Y-10205309D01*
X40094050Y-10264618D01*
X40094047Y-10264620D01*
X40010176Y-10348491D01*
X40010174Y-10348494D01*
X39971442Y-10415580D01*
X39950864Y-10451221D01*
X39920163Y-10565798D01*
X39058734Y-10565798D01*
X39054799Y-10551114D01*
X38995489Y-10448387D01*
X38911613Y-10364511D01*
X38808886Y-10305201D01*
X38694309Y-10274500D01*
X38575691Y-10274500D01*
X38461114Y-10305201D01*
X38461112Y-10305201D01*
X38461112Y-10305202D01*
X38358387Y-10364511D01*
X38358384Y-10364513D01*
X38274513Y-10448384D01*
X38274511Y-10448387D01*
X38215201Y-10551114D01*
X38184500Y-10665691D01*
X31768729Y-10665691D01*
X31805398Y-10602179D01*
X31807295Y-10598894D01*
X31807297Y-10598890D01*
X31807298Y-10598887D01*
X31807299Y-10598886D01*
X31838000Y-10484309D01*
X31838000Y-10365691D01*
X31807299Y-10251114D01*
X31747989Y-10148387D01*
X31664113Y-10064511D01*
X31561386Y-10005201D01*
X31446809Y-9974500D01*
X31335241Y-9974500D01*
X31268202Y-9954815D01*
X31222447Y-9902011D01*
X31212503Y-9832853D01*
X31215466Y-9818407D01*
X31219248Y-9804291D01*
X31238000Y-9734309D01*
X31238000Y-9615691D01*
X31207299Y-9501114D01*
X31186847Y-9465691D01*
X33184500Y-9465691D01*
X33184500Y-9584309D01*
X33215201Y-9698886D01*
X33274511Y-9801613D01*
X33358387Y-9885489D01*
X33461114Y-9944799D01*
X33575691Y-9975500D01*
X33575694Y-9975500D01*
X33694306Y-9975500D01*
X33694309Y-9975500D01*
X33808886Y-9944799D01*
X33911613Y-9885489D01*
X33995489Y-9801613D01*
X34054799Y-9698886D01*
X34085500Y-9584309D01*
X34085500Y-9465691D01*
X37184500Y-9465691D01*
X37184500Y-9584309D01*
X37215201Y-9698886D01*
X37274511Y-9801613D01*
X37358387Y-9885489D01*
X37461114Y-9944799D01*
X37575691Y-9975500D01*
X37575694Y-9975500D01*
X37694306Y-9975500D01*
X37694309Y-9975500D01*
X37808886Y-9944799D01*
X37911613Y-9885489D01*
X37995489Y-9801613D01*
X38054799Y-9698886D01*
X38085500Y-9584309D01*
X38085500Y-9465691D01*
X38054799Y-9351114D01*
X37995489Y-9248387D01*
X37911613Y-9164511D01*
X37808886Y-9105201D01*
X37694309Y-9074500D01*
X37575691Y-9074500D01*
X37461114Y-9105201D01*
X37461112Y-9105201D01*
X37461112Y-9105202D01*
X37358387Y-9164511D01*
X37358384Y-9164513D01*
X37274513Y-9248384D01*
X37274511Y-9248387D01*
X37248598Y-9293270D01*
X37215201Y-9351114D01*
X37184500Y-9465691D01*
X34085500Y-9465691D01*
X34054799Y-9351114D01*
X33995489Y-9248387D01*
X33911613Y-9164511D01*
X33808886Y-9105201D01*
X33694309Y-9074500D01*
X33575691Y-9074500D01*
X33461114Y-9105201D01*
X33461112Y-9105201D01*
X33461112Y-9105202D01*
X33358387Y-9164511D01*
X33358384Y-9164513D01*
X33274513Y-9248384D01*
X33274511Y-9248387D01*
X33248598Y-9293270D01*
X33215201Y-9351114D01*
X33184500Y-9465691D01*
X31186847Y-9465691D01*
X31147989Y-9398387D01*
X31064113Y-9314511D01*
X30961386Y-9255201D01*
X30846809Y-9224500D01*
X30728191Y-9224500D01*
X30613614Y-9255201D01*
X30613612Y-9255201D01*
X30613612Y-9255202D01*
X30510887Y-9314511D01*
X30510884Y-9314513D01*
X30427013Y-9398384D01*
X30427011Y-9398387D01*
X30388152Y-9465693D01*
X30367701Y-9501114D01*
X30337000Y-9615691D01*
X24749699Y-9615691D01*
X24807258Y-9515996D01*
X24837959Y-9401419D01*
X24837959Y-9282801D01*
X24807258Y-9168224D01*
X24747948Y-9065497D01*
X24664072Y-8981621D01*
X24561345Y-8922311D01*
X24446768Y-8891610D01*
X24328150Y-8891610D01*
X24213573Y-8922311D01*
X24213571Y-8922311D01*
X24213571Y-8922312D01*
X24110846Y-8981621D01*
X24110843Y-8981623D01*
X24026972Y-9065494D01*
X24026970Y-9065497D01*
X23968258Y-9167189D01*
X23967660Y-9168224D01*
X23936959Y-9282801D01*
X21979482Y-9282801D01*
X21976029Y-9269916D01*
X21916719Y-9167189D01*
X21832843Y-9083313D01*
X21730116Y-9024003D01*
X21615539Y-8993302D01*
X21496921Y-8993302D01*
X21382344Y-9024003D01*
X21382342Y-9024003D01*
X21382342Y-9024004D01*
X21279617Y-9083313D01*
X21279614Y-9083315D01*
X21195743Y-9167186D01*
X21195741Y-9167189D01*
X21148863Y-9248384D01*
X21136431Y-9269916D01*
X21105730Y-9384493D01*
X15151308Y-9384493D01*
X15226457Y-9309344D01*
X15285767Y-9206617D01*
X15316468Y-9092040D01*
X15316468Y-8973422D01*
X15285767Y-8858845D01*
X15226457Y-8756118D01*
X15142581Y-8672242D01*
X15039854Y-8612932D01*
X14925277Y-8582231D01*
X14806659Y-8582231D01*
X14692082Y-8612932D01*
X14692080Y-8612932D01*
X14692080Y-8612933D01*
X14589355Y-8672242D01*
X14589352Y-8672244D01*
X14505481Y-8756115D01*
X14505479Y-8756118D01*
X14448071Y-8855549D01*
X14448070Y-8855551D01*
X14446169Y-8858845D01*
X14415468Y-8973422D01*
X14184887Y-8973422D01*
X14204003Y-8902079D01*
X14204003Y-8783461D01*
X14173302Y-8668884D01*
X14113992Y-8566157D01*
X14030116Y-8482281D01*
X13927389Y-8422971D01*
X13812812Y-8392270D01*
X13694194Y-8392270D01*
X13579617Y-8422971D01*
X13579615Y-8422971D01*
X13579615Y-8422972D01*
X13476890Y-8482281D01*
X13476887Y-8482283D01*
X13393016Y-8566154D01*
X13393014Y-8566157D01*
X13333704Y-8668884D01*
X13303003Y-8783461D01*
X500500Y-8783461D01*
X500500Y-7941706D01*
X17307323Y-7941706D01*
X17307323Y-8060324D01*
X17338024Y-8174901D01*
X17397334Y-8277628D01*
X17481210Y-8361504D01*
X17583937Y-8420814D01*
X17698514Y-8451515D01*
X17698517Y-8451515D01*
X17817129Y-8451515D01*
X17817132Y-8451515D01*
X17931709Y-8420814D01*
X18027184Y-8365691D01*
X28054500Y-8365691D01*
X28054500Y-8484309D01*
X28085201Y-8598886D01*
X28144511Y-8701613D01*
X28228387Y-8785489D01*
X28331114Y-8844799D01*
X28445691Y-8875500D01*
X28445694Y-8875500D01*
X28564306Y-8875500D01*
X28564309Y-8875500D01*
X28678886Y-8844799D01*
X28781613Y-8785489D01*
X28817319Y-8749783D01*
X28878642Y-8716298D01*
X28948334Y-8721282D01*
X28992681Y-8749783D01*
X29028387Y-8785489D01*
X29131114Y-8844799D01*
X29245691Y-8875500D01*
X29245694Y-8875500D01*
X29364306Y-8875500D01*
X29364309Y-8875500D01*
X29478886Y-8844799D01*
X29581613Y-8785489D01*
X29665489Y-8701613D01*
X29724799Y-8598886D01*
X29755500Y-8484309D01*
X29755500Y-8365691D01*
X29734133Y-8285949D01*
X30747742Y-8285949D01*
X30747742Y-8404567D01*
X30778443Y-8519144D01*
X30837753Y-8621871D01*
X30921629Y-8705747D01*
X31024356Y-8765057D01*
X31138933Y-8795758D01*
X31138936Y-8795758D01*
X31257548Y-8795758D01*
X31257551Y-8795758D01*
X31372128Y-8765057D01*
X31474855Y-8705747D01*
X31558731Y-8621871D01*
X31564864Y-8611249D01*
X43999499Y-8611249D01*
X43999499Y-8729867D01*
X44030200Y-8844444D01*
X44089510Y-8947171D01*
X44173386Y-9031047D01*
X44276113Y-9090357D01*
X44390690Y-9121058D01*
X44390693Y-9121058D01*
X44509305Y-9121058D01*
X44509308Y-9121058D01*
X44623885Y-9090357D01*
X44726612Y-9031047D01*
X44810488Y-8947171D01*
X44869798Y-8844444D01*
X44900499Y-8729867D01*
X44900499Y-8611249D01*
X44869798Y-8496672D01*
X44810488Y-8393945D01*
X44726612Y-8310069D01*
X44623885Y-8250759D01*
X44509308Y-8220058D01*
X44390690Y-8220058D01*
X44276113Y-8250759D01*
X44276111Y-8250759D01*
X44276111Y-8250760D01*
X44173386Y-8310069D01*
X44173383Y-8310071D01*
X44089512Y-8393942D01*
X44089510Y-8393945D01*
X44037340Y-8484306D01*
X44030200Y-8496672D01*
X43999499Y-8611249D01*
X31564864Y-8611249D01*
X31618041Y-8519144D01*
X31622404Y-8502858D01*
X31626821Y-8493273D01*
X31643122Y-8474586D01*
X31656027Y-8453412D01*
X31665688Y-8448717D01*
X31672751Y-8440622D01*
X31696566Y-8433715D01*
X31718872Y-8422878D01*
X31729539Y-8424152D01*
X31739856Y-8421161D01*
X31763622Y-8428225D01*
X31788248Y-8431168D01*
X31801442Y-8437772D01*
X31806379Y-8440622D01*
X31813614Y-8444799D01*
X31928191Y-8475500D01*
X31928194Y-8475500D01*
X32046806Y-8475500D01*
X32046809Y-8475500D01*
X32161386Y-8444799D01*
X32264113Y-8385489D01*
X32347989Y-8301613D01*
X32407299Y-8198886D01*
X32438000Y-8084309D01*
X32438000Y-7965691D01*
X33937000Y-7965691D01*
X33937000Y-8084309D01*
X33967701Y-8198886D01*
X34027011Y-8301613D01*
X34110887Y-8385489D01*
X34213614Y-8444799D01*
X34328191Y-8475500D01*
X34328194Y-8475500D01*
X34446806Y-8475500D01*
X34446809Y-8475500D01*
X34561386Y-8444799D01*
X34664113Y-8385489D01*
X34747989Y-8301613D01*
X34807299Y-8198886D01*
X34838000Y-8084309D01*
X34838000Y-7965691D01*
X34807299Y-7851114D01*
X34747989Y-7748387D01*
X34664113Y-7664511D01*
X34561386Y-7605201D01*
X34446809Y-7574500D01*
X34328191Y-7574500D01*
X34213614Y-7605201D01*
X34213612Y-7605201D01*
X34213612Y-7605202D01*
X34110887Y-7664511D01*
X34110884Y-7664513D01*
X34027013Y-7748384D01*
X34027011Y-7748387D01*
X33967701Y-7851114D01*
X33937000Y-7965691D01*
X32438000Y-7965691D01*
X32407299Y-7851114D01*
X32347989Y-7748387D01*
X32264113Y-7664511D01*
X32161386Y-7605201D01*
X32046809Y-7574500D01*
X31928191Y-7574500D01*
X31813614Y-7605201D01*
X31813612Y-7605201D01*
X31813612Y-7605202D01*
X31710887Y-7664511D01*
X31710884Y-7664513D01*
X31627013Y-7748384D01*
X31627011Y-7748387D01*
X31567700Y-7851114D01*
X31566072Y-7857193D01*
X31529706Y-7916852D01*
X31466859Y-7947381D01*
X31397483Y-7939084D01*
X31384301Y-7932486D01*
X31372131Y-7925460D01*
X31372132Y-7925460D01*
X31340006Y-7916852D01*
X31257551Y-7894758D01*
X31138933Y-7894758D01*
X31024356Y-7925459D01*
X31024354Y-7925459D01*
X31024354Y-7925460D01*
X30921629Y-7984769D01*
X30921626Y-7984771D01*
X30837755Y-8068642D01*
X30837753Y-8068645D01*
X30791714Y-8148387D01*
X30778443Y-8171372D01*
X30747742Y-8285949D01*
X29734133Y-8285949D01*
X29724799Y-8251114D01*
X29665489Y-8148387D01*
X29581613Y-8064511D01*
X29478886Y-8005201D01*
X29364309Y-7974500D01*
X29245691Y-7974500D01*
X29131114Y-8005201D01*
X29131112Y-8005201D01*
X29131112Y-8005202D01*
X29028387Y-8064511D01*
X29028384Y-8064513D01*
X28992681Y-8100217D01*
X28931358Y-8133702D01*
X28861666Y-8128718D01*
X28817319Y-8100217D01*
X28781615Y-8064513D01*
X28781613Y-8064511D01*
X28678886Y-8005201D01*
X28564309Y-7974500D01*
X28445691Y-7974500D01*
X28331114Y-8005201D01*
X28331112Y-8005201D01*
X28331112Y-8005202D01*
X28228387Y-8064511D01*
X28228384Y-8064513D01*
X28144513Y-8148384D01*
X28144511Y-8148387D01*
X28115355Y-8198887D01*
X28085201Y-8251114D01*
X28054500Y-8365691D01*
X18027184Y-8365691D01*
X18034436Y-8361504D01*
X18118312Y-8277628D01*
X18177622Y-8174901D01*
X18208323Y-8060324D01*
X18208323Y-7941706D01*
X18177622Y-7827129D01*
X18118312Y-7724402D01*
X18034436Y-7640526D01*
X17931709Y-7581216D01*
X17817132Y-7550515D01*
X17698514Y-7550515D01*
X17583937Y-7581216D01*
X17583935Y-7581216D01*
X17583935Y-7581217D01*
X17481210Y-7640526D01*
X17481207Y-7640528D01*
X17397336Y-7724399D01*
X17397334Y-7724402D01*
X17338024Y-7827129D01*
X17307323Y-7941706D01*
X500500Y-7941706D01*
X500500Y-5565691D01*
X24054500Y-5565691D01*
X24054500Y-5684309D01*
X24085201Y-5798886D01*
X24144511Y-5901613D01*
X24228387Y-5985489D01*
X24331114Y-6044799D01*
X24445691Y-6075500D01*
X24445694Y-6075500D01*
X24564306Y-6075500D01*
X24564309Y-6075500D01*
X24678886Y-6044799D01*
X24781613Y-5985489D01*
X24865489Y-5901613D01*
X24924799Y-5798886D01*
X24955500Y-5684309D01*
X24955500Y-5565691D01*
X27654500Y-5565691D01*
X27654500Y-5684309D01*
X27685201Y-5798886D01*
X27744511Y-5901613D01*
X27828387Y-5985489D01*
X27931114Y-6044799D01*
X28011621Y-6066371D01*
X28071281Y-6102735D01*
X28101810Y-6165582D01*
X28093515Y-6234957D01*
X28086917Y-6248141D01*
X28085202Y-6251111D01*
X28085202Y-6251112D01*
X28085201Y-6251114D01*
X28054500Y-6365691D01*
X28054500Y-6484309D01*
X28085201Y-6598886D01*
X28144511Y-6701613D01*
X28228387Y-6785489D01*
X28331114Y-6844799D01*
X28445691Y-6875500D01*
X28445694Y-6875500D01*
X28564306Y-6875500D01*
X28564309Y-6875500D01*
X28678886Y-6844799D01*
X28781613Y-6785489D01*
X28865489Y-6701613D01*
X28889957Y-6659234D01*
X47849500Y-6659234D01*
X47849500Y-6810766D01*
X47858619Y-6844799D01*
X47888719Y-6957136D01*
X47926602Y-7022750D01*
X47964485Y-7088365D01*
X48071635Y-7195515D01*
X48202865Y-7271281D01*
X48349234Y-7310500D01*
X48349236Y-7310500D01*
X48500764Y-7310500D01*
X48500766Y-7310500D01*
X48647135Y-7271281D01*
X48778365Y-7195515D01*
X48885515Y-7088365D01*
X48961281Y-6957135D01*
X49000500Y-6810766D01*
X49000500Y-6659234D01*
X48961281Y-6512865D01*
X48885515Y-6381635D01*
X48778365Y-6274485D01*
X48709901Y-6234957D01*
X48647136Y-6198719D01*
X48573950Y-6179109D01*
X48500766Y-6159500D01*
X48349234Y-6159500D01*
X48202863Y-6198719D01*
X48071635Y-6274485D01*
X48071632Y-6274487D01*
X47964487Y-6381632D01*
X47964485Y-6381635D01*
X47888719Y-6512863D01*
X47865670Y-6598886D01*
X47849500Y-6659234D01*
X28889957Y-6659234D01*
X28924799Y-6598886D01*
X28955500Y-6484309D01*
X28955500Y-6365691D01*
X28924799Y-6251114D01*
X28865489Y-6148387D01*
X28781613Y-6064511D01*
X28730249Y-6034856D01*
X28678887Y-6005201D01*
X28605320Y-5985489D01*
X28598377Y-5983628D01*
X28538718Y-5947263D01*
X28508189Y-5884416D01*
X28516484Y-5815041D01*
X28523090Y-5801846D01*
X28524799Y-5798886D01*
X28555500Y-5684309D01*
X28555500Y-5565691D01*
X28524799Y-5451114D01*
X28509149Y-5424008D01*
X32662037Y-5424008D01*
X32662037Y-5542626D01*
X32692738Y-5657203D01*
X32752048Y-5759930D01*
X32835924Y-5843806D01*
X32938651Y-5903116D01*
X33053228Y-5933817D01*
X33053231Y-5933817D01*
X33171843Y-5933817D01*
X33171846Y-5933817D01*
X33286423Y-5903116D01*
X33389150Y-5843806D01*
X33473026Y-5759930D01*
X33532336Y-5657203D01*
X33563037Y-5542626D01*
X33563037Y-5424008D01*
X33532336Y-5309431D01*
X33473026Y-5206704D01*
X33389150Y-5122828D01*
X33286423Y-5063518D01*
X33171846Y-5032817D01*
X33053228Y-5032817D01*
X32938651Y-5063518D01*
X32938649Y-5063518D01*
X32938649Y-5063519D01*
X32835924Y-5122828D01*
X32835921Y-5122830D01*
X32752050Y-5206701D01*
X32752048Y-5206704D01*
X32692738Y-5309431D01*
X32662037Y-5424008D01*
X28509149Y-5424008D01*
X28465489Y-5348387D01*
X28381613Y-5264511D01*
X28278886Y-5205201D01*
X28164309Y-5174500D01*
X28045691Y-5174500D01*
X27931114Y-5205201D01*
X27931112Y-5205201D01*
X27931112Y-5205202D01*
X27828387Y-5264511D01*
X27828384Y-5264513D01*
X27744513Y-5348384D01*
X27744511Y-5348387D01*
X27715355Y-5398887D01*
X27685201Y-5451114D01*
X27654500Y-5565691D01*
X24955500Y-5565691D01*
X24924799Y-5451114D01*
X24865489Y-5348387D01*
X24781613Y-5264511D01*
X24678886Y-5205201D01*
X24564309Y-5174500D01*
X24445691Y-5174500D01*
X24331114Y-5205201D01*
X24331112Y-5205201D01*
X24331112Y-5205202D01*
X24228387Y-5264511D01*
X24228384Y-5264513D01*
X24144513Y-5348384D01*
X24144511Y-5348387D01*
X24115355Y-5398887D01*
X24085201Y-5451114D01*
X24054500Y-5565691D01*
X500500Y-5565691D01*
X500500Y-4990690D01*
X22134568Y-4990690D01*
X22134568Y-5109308D01*
X22165269Y-5223885D01*
X22224579Y-5326612D01*
X22308455Y-5410488D01*
X22411182Y-5469798D01*
X22525759Y-5500499D01*
X22525762Y-5500499D01*
X22644374Y-5500499D01*
X22644377Y-5500499D01*
X22758954Y-5469798D01*
X22861681Y-5410488D01*
X22945557Y-5326612D01*
X23004867Y-5223885D01*
X23035568Y-5109308D01*
X23035568Y-4990690D01*
X23004867Y-4876113D01*
X22945557Y-4773386D01*
X22861681Y-4689510D01*
X22758954Y-4630200D01*
X22644377Y-4599499D01*
X22525759Y-4599499D01*
X22411182Y-4630200D01*
X22411180Y-4630200D01*
X22411180Y-4630201D01*
X22308455Y-4689510D01*
X22308452Y-4689512D01*
X22224581Y-4773383D01*
X22224579Y-4773386D01*
X22171969Y-4864509D01*
X22165269Y-4876113D01*
X22134568Y-4990690D01*
X500500Y-4990690D01*
X500500Y-4096674D01*
X6802521Y-4096674D01*
X6802521Y-4215292D01*
X6833222Y-4329869D01*
X6892532Y-4432596D01*
X6976408Y-4516472D01*
X7079135Y-4575782D01*
X7193712Y-4606483D01*
X7193715Y-4606483D01*
X7312327Y-4606483D01*
X7312330Y-4606483D01*
X7426907Y-4575782D01*
X7529634Y-4516472D01*
X7613510Y-4432596D01*
X7672820Y-4329869D01*
X7703521Y-4215292D01*
X7703521Y-4096674D01*
X7672820Y-3982097D01*
X7613510Y-3879370D01*
X7529634Y-3795494D01*
X7478014Y-3765691D01*
X24454500Y-3765691D01*
X24454500Y-3884309D01*
X24485201Y-3998886D01*
X24544511Y-4101613D01*
X24628387Y-4185489D01*
X24731114Y-4244799D01*
X24845691Y-4275500D01*
X24845694Y-4275500D01*
X24964306Y-4275500D01*
X24964309Y-4275500D01*
X25078886Y-4244799D01*
X25181613Y-4185489D01*
X25223808Y-4143294D01*
X34316915Y-4143294D01*
X34316915Y-4261912D01*
X34347616Y-4376489D01*
X34406926Y-4479216D01*
X34490802Y-4563092D01*
X34574981Y-4611693D01*
X34575880Y-4612212D01*
X34624095Y-4662780D01*
X34637317Y-4731387D01*
X34611349Y-4796251D01*
X34575881Y-4826985D01*
X34510890Y-4864509D01*
X34510884Y-4864513D01*
X34427013Y-4948384D01*
X34427011Y-4948387D01*
X34379032Y-5031489D01*
X34367701Y-5051114D01*
X34337000Y-5165691D01*
X34337000Y-5284309D01*
X34367701Y-5398886D01*
X34427011Y-5501613D01*
X34510887Y-5585489D01*
X34613614Y-5644799D01*
X34728191Y-5675500D01*
X34728194Y-5675500D01*
X34846806Y-5675500D01*
X34846809Y-5675500D01*
X34961386Y-5644799D01*
X35064113Y-5585489D01*
X35147989Y-5501613D01*
X35207299Y-5398886D01*
X35238000Y-5284309D01*
X35238000Y-5165691D01*
X35937000Y-5165691D01*
X35937000Y-5284309D01*
X35967701Y-5398886D01*
X36027011Y-5501613D01*
X36110887Y-5585489D01*
X36213614Y-5644799D01*
X36328191Y-5675500D01*
X36328194Y-5675500D01*
X36446806Y-5675500D01*
X36446809Y-5675500D01*
X36561386Y-5644799D01*
X36664113Y-5585489D01*
X36747989Y-5501613D01*
X36807299Y-5398886D01*
X36838000Y-5284309D01*
X36838000Y-5165691D01*
X36807299Y-5051114D01*
X36747989Y-4948387D01*
X36664113Y-4864511D01*
X36561386Y-4805201D01*
X36446809Y-4774500D01*
X36328191Y-4774500D01*
X36213614Y-4805201D01*
X36213612Y-4805201D01*
X36213612Y-4805202D01*
X36110887Y-4864511D01*
X36110884Y-4864513D01*
X36027013Y-4948384D01*
X36027011Y-4948387D01*
X35979032Y-5031489D01*
X35967701Y-5051114D01*
X35937000Y-5165691D01*
X35238000Y-5165691D01*
X35207299Y-5051114D01*
X35147989Y-4948387D01*
X35064113Y-4864511D01*
X34979034Y-4815390D01*
X34930819Y-4764822D01*
X34917597Y-4696215D01*
X34943565Y-4631350D01*
X34963585Y-4611691D01*
X41155500Y-4611691D01*
X41155500Y-4730309D01*
X41186201Y-4844886D01*
X41245511Y-4947613D01*
X41329387Y-5031489D01*
X41432114Y-5090799D01*
X41546691Y-5121500D01*
X41546694Y-5121500D01*
X41665306Y-5121500D01*
X41665309Y-5121500D01*
X41779886Y-5090799D01*
X41882613Y-5031489D01*
X41966489Y-4947613D01*
X42025799Y-4844886D01*
X42056500Y-4730309D01*
X42056500Y-4611691D01*
X43362500Y-4611691D01*
X43362500Y-4730309D01*
X43393201Y-4844886D01*
X43452511Y-4947613D01*
X43536387Y-5031489D01*
X43639114Y-5090799D01*
X43753691Y-5121500D01*
X43753694Y-5121500D01*
X43872306Y-5121500D01*
X43872309Y-5121500D01*
X43986886Y-5090799D01*
X44089613Y-5031489D01*
X44173489Y-4947613D01*
X44232799Y-4844886D01*
X44263500Y-4730309D01*
X44263500Y-4611691D01*
X44232799Y-4497114D01*
X44173489Y-4394387D01*
X44089613Y-4310511D01*
X43986886Y-4251201D01*
X43872309Y-4220500D01*
X43753691Y-4220500D01*
X43639114Y-4251201D01*
X43639112Y-4251201D01*
X43639112Y-4251202D01*
X43536387Y-4310511D01*
X43536384Y-4310513D01*
X43452513Y-4394384D01*
X43452511Y-4394387D01*
X43403535Y-4479216D01*
X43393201Y-4497114D01*
X43362500Y-4611691D01*
X42056500Y-4611691D01*
X42025799Y-4497114D01*
X41966489Y-4394387D01*
X41882613Y-4310511D01*
X41779886Y-4251201D01*
X41665309Y-4220500D01*
X41546691Y-4220500D01*
X41432114Y-4251201D01*
X41432112Y-4251201D01*
X41432112Y-4251202D01*
X41329387Y-4310511D01*
X41329384Y-4310513D01*
X41245513Y-4394384D01*
X41245511Y-4394387D01*
X41196535Y-4479216D01*
X41186201Y-4497114D01*
X41155500Y-4611691D01*
X34963585Y-4611691D01*
X34966165Y-4609157D01*
X34972330Y-4604487D01*
X35044028Y-4563092D01*
X35127904Y-4479216D01*
X35187214Y-4376489D01*
X35217915Y-4261912D01*
X35217915Y-4143294D01*
X35187214Y-4028717D01*
X35127904Y-3925990D01*
X35044028Y-3842114D01*
X34941301Y-3782804D01*
X34826724Y-3752103D01*
X34708106Y-3752103D01*
X34593529Y-3782804D01*
X34593527Y-3782804D01*
X34593527Y-3782805D01*
X34490802Y-3842114D01*
X34490799Y-3842116D01*
X34406928Y-3925987D01*
X34406926Y-3925990D01*
X34364839Y-3998887D01*
X34347616Y-4028717D01*
X34316915Y-4143294D01*
X25223808Y-4143294D01*
X25265489Y-4101613D01*
X25324799Y-3998886D01*
X25355500Y-3884309D01*
X25355500Y-3765691D01*
X25324799Y-3651114D01*
X25265489Y-3548387D01*
X25181613Y-3464511D01*
X25078886Y-3405201D01*
X24964309Y-3374500D01*
X24845691Y-3374500D01*
X24731114Y-3405201D01*
X24731112Y-3405201D01*
X24731112Y-3405202D01*
X24628387Y-3464511D01*
X24628384Y-3464513D01*
X24544513Y-3548384D01*
X24544511Y-3548387D01*
X24485201Y-3651114D01*
X24454500Y-3765691D01*
X7478014Y-3765691D01*
X7426907Y-3736184D01*
X7312330Y-3705483D01*
X7193712Y-3705483D01*
X7079135Y-3736184D01*
X7079133Y-3736184D01*
X7079133Y-3736185D01*
X6976408Y-3795494D01*
X6976405Y-3795496D01*
X6892534Y-3879367D01*
X6892532Y-3879370D01*
X6833222Y-3982097D01*
X6802521Y-4096674D01*
X500500Y-4096674D01*
X500500Y-2685691D01*
X849500Y-2685691D01*
X849500Y-2804309D01*
X880201Y-2918886D01*
X939511Y-3021613D01*
X1023387Y-3105489D01*
X1126114Y-3164799D01*
X1240691Y-3195500D01*
X1240694Y-3195500D01*
X1359306Y-3195500D01*
X1359309Y-3195500D01*
X1473886Y-3164799D01*
X1576613Y-3105489D01*
X1660489Y-3021613D01*
X1699909Y-2953336D01*
X31592775Y-2953336D01*
X31592775Y-3071954D01*
X31623476Y-3186531D01*
X31682786Y-3289258D01*
X31766662Y-3373134D01*
X31869389Y-3432444D01*
X31983966Y-3463145D01*
X31983969Y-3463145D01*
X32102581Y-3463145D01*
X32102584Y-3463145D01*
X32217161Y-3432444D01*
X32319888Y-3373134D01*
X32403764Y-3289258D01*
X32463074Y-3186531D01*
X32493775Y-3071954D01*
X32493775Y-2953336D01*
X32463074Y-2838759D01*
X32403764Y-2736032D01*
X32319888Y-2652156D01*
X32217161Y-2592846D01*
X32102584Y-2562145D01*
X31983966Y-2562145D01*
X31869389Y-2592846D01*
X31869387Y-2592846D01*
X31869387Y-2592847D01*
X31766662Y-2652156D01*
X31766659Y-2652158D01*
X31682788Y-2736029D01*
X31682786Y-2736032D01*
X31623476Y-2838759D01*
X31592775Y-2953336D01*
X1699909Y-2953336D01*
X1719799Y-2918886D01*
X1750500Y-2804309D01*
X1750500Y-2685691D01*
X1719799Y-2571114D01*
X1660489Y-2468387D01*
X1576613Y-2384511D01*
X1473886Y-2325201D01*
X1359309Y-2294500D01*
X1240691Y-2294500D01*
X1126114Y-2325201D01*
X1126112Y-2325201D01*
X1126112Y-2325202D01*
X1023387Y-2384511D01*
X1023384Y-2384513D01*
X939513Y-2468384D01*
X939511Y-2468387D01*
X880201Y-2571114D01*
X849500Y-2685691D01*
X500500Y-2685691D01*
X500500Y-624500D01*
X520185Y-557461D01*
X572989Y-511706D01*
X624500Y-500500D01*
X55670500Y-500500D01*
X55737539Y-520185D01*
G37*
%TD.AperFunction*%
%TD*%
D18*
X19680000Y-35525000D03*
X14880000Y-36425000D03*
X26880000Y-35525000D03*
X19680000Y-36125000D03*
X36105000Y-34625000D03*
X30405000Y-34625000D03*
X20850000Y-23425000D03*
X6350000Y-29625000D03*
X11505000Y-45450000D03*
X1200000Y-1200000D03*
X40962500Y-10025000D03*
X19230000Y-32725000D03*
X47975000Y-22825000D03*
X41625000Y-27800000D03*
X28050000Y-24025000D03*
X31765000Y-14080000D03*
X11225000Y-40525000D03*
X35712500Y-10325000D03*
X25442500Y-30800000D03*
X33755000Y-5925000D03*
X47075000Y-28225000D03*
X29965000Y-13180000D03*
X31355000Y-6225000D03*
X7550000Y-31725000D03*
X30842500Y-30800000D03*
X37175000Y-43500000D03*
X21000000Y-15445000D03*
X38825000Y-41500000D03*
X3425000Y-26525000D03*
X7025000Y-28925000D03*
X5525000Y-28925000D03*
X5525000Y-26825000D03*
X13944800Y-33888100D03*
X11233700Y-48596200D03*
X10025000Y-46025000D03*
X10625000Y-46025000D03*
X10625000Y-44825000D03*
X12981300Y-46762500D03*
X10347300Y-39635100D03*
X44449999Y-8670558D03*
X40370663Y-10625107D03*
X38635000Y-13525000D03*
X35435000Y-12325000D03*
X38635000Y-10725000D03*
X3574999Y-25725001D03*
X4300000Y-9952000D03*
X18049198Y-13351622D03*
X13753503Y-8842770D03*
X17292685Y-10776067D03*
X47633000Y-35490000D03*
X25558114Y-21012005D03*
X18031000Y-22606000D03*
X24193414Y-19324999D03*
X39475000Y-27850000D03*
X23242500Y-28075000D03*
X1950000Y-29800000D03*
X8842500Y-28675000D03*
X1950000Y-35800000D03*
X42775000Y-27250000D03*
X8130000Y-27425000D03*
X40130000Y-37825000D03*
X43430000Y-37825000D03*
X28642500Y-28075000D03*
X23242500Y-28675000D03*
X3630000Y-27425000D03*
X35242500Y-28075000D03*
X30442500Y-28075000D03*
X31198242Y-8345258D03*
X41606000Y-4671000D03*
X33112537Y-5483317D03*
X34767415Y-4202603D03*
X33635000Y-9525000D03*
X37635000Y-9525000D03*
X33375000Y-41500000D03*
X21000000Y-14175000D03*
X2775000Y-37225000D03*
X3375000Y-38725000D03*
X1275000Y-11425000D03*
X1300000Y-2745000D03*
X16950000Y-24950000D03*
X18850000Y-31525000D03*
X27750000Y-26650000D03*
X25855000Y-37650000D03*
X13500000Y-31525000D03*
X45550000Y-27200000D03*
X23250000Y-33500000D03*
X19855000Y-26450000D03*
X25355000Y-41500000D03*
X25855000Y-38625000D03*
X19977344Y-33193442D03*
X7253021Y-4155983D03*
X16213604Y-15107963D03*
X18747637Y-35389870D03*
X18540506Y-25254092D03*
X24387459Y-9342110D03*
X18295280Y-14933481D03*
X15925001Y-36739131D03*
X20580933Y-30183340D03*
X3184012Y-30211321D03*
X1951000Y-21316000D03*
X27334051Y-37536687D03*
X21012839Y-26725001D03*
X25925807Y-36244752D03*
X25730000Y-17503000D03*
X21838974Y-28095994D03*
X18309000Y-19644000D03*
X22453232Y-17805934D03*
X41411000Y-44031000D03*
X24402813Y-37291112D03*
X13346000Y-16424000D03*
X7115233Y-16157103D03*
X4475462Y-36801434D03*
X16104317Y-10508211D03*
X10501923Y-13540803D03*
X8912191Y-30826321D03*
X12231000Y-13621000D03*
X10307000Y-32692000D03*
X15269880Y-40333717D03*
X34930000Y-38018683D03*
X29931441Y-15214595D03*
X22585068Y-5049999D03*
X35104749Y-29462580D03*
X30226271Y-17337238D03*
X37200000Y-45500000D03*
X34787500Y-5225000D03*
X34387500Y-8025000D03*
X24905000Y-3825000D03*
X37187500Y-14625000D03*
X24505000Y-5625000D03*
X31187500Y-13425000D03*
X31387500Y-10425000D03*
X31987500Y-8025000D03*
X28505000Y-8425000D03*
X29305000Y-8425000D03*
X46015000Y-20325000D03*
X45215000Y-20325000D03*
X36387500Y-5225000D03*
X28105000Y-5625000D03*
X28505000Y-6425000D03*
X23065221Y-27018251D03*
X31078000Y-23709000D03*
X31402543Y-16261348D03*
X25489281Y-13576103D03*
X25372804Y-14685000D03*
X27669000Y-23170000D03*
X44700000Y-30725000D03*
X41900000Y-30725000D03*
X30787500Y-9675000D03*
X29809600Y-11186200D03*
X26387500Y-16475000D03*
X32387500Y-12375000D03*
X31587500Y-17575000D03*
X43503745Y-12786888D03*
X35620000Y-14575000D03*
X24633759Y-28804715D03*
X33019968Y-28922787D03*
X29898428Y-12194297D03*
X28695763Y-11084623D03*
X49365465Y-19376340D03*
X42498000Y-21782000D03*
X46875000Y-22425000D03*
X46875000Y-20825000D03*
X42817500Y-19475000D03*
X46817500Y-20275000D03*
X38417500Y-19475000D03*
X44475000Y-21225000D03*
X46875000Y-26025000D03*
X26512697Y-12120496D03*
X28088883Y-12019994D03*
X22025000Y-14288000D03*
X31396494Y-15147112D03*
X14865968Y-9032731D03*
X17757823Y-8001015D03*
X21556230Y-9443802D03*
X25459287Y-22122615D03*
X43445357Y-14908115D03*
X52366000Y-22355000D03*
X26550773Y-13234845D03*
X23510294Y-17413496D03*
X32043275Y-3012645D03*
X43813000Y-4671000D03*
D19*
X4525000Y-50525000D03*
X7025000Y-50525000D03*
X9025000Y-50525000D03*
X11525000Y-50525000D03*
X12025000Y-49025000D03*
X10025000Y-49025000D03*
X8025000Y-49025000D03*
X6025000Y-49025000D03*
X4025000Y-49025000D03*
D20*
X1625000Y-52625000D03*
X14425000Y-52625000D03*
D19*
X49900000Y-54000000D03*
X43500000Y-54000000D03*
D18*
X9020000Y-8052500D03*
X9020000Y-9577500D03*
X9782500Y-7290000D03*
X9782500Y-8815000D03*
X9782500Y-10340000D03*
X10545000Y-8052500D03*
X10545000Y-9577500D03*
X11307500Y-7290000D03*
X11307500Y-8815000D03*
X11307500Y-10340000D03*
X12070000Y-8052500D03*
X12070000Y-9577500D03*
D19*
X46700000Y-54000000D03*
X48425000Y-12515000D03*
X48425000Y-6735000D03*
D21*
X47895000Y-13945000D03*
D22*
X52075000Y-13945000D03*
D21*
X47895000Y-5305000D03*
D22*
X52075000Y-5305000D03*
D19*
X22525000Y-50525000D03*
X25025000Y-50525000D03*
X27025000Y-50525000D03*
X29525000Y-50525000D03*
X30025000Y-49025000D03*
X28025000Y-49025000D03*
X26025000Y-49025000D03*
X24025000Y-49025000D03*
X22025000Y-49025000D03*
D20*
X19625000Y-52625000D03*
X32425000Y-52625000D03*
M02*
