#VRML V2.0 utf8
# DIAGNOSTIC MODEL ONLY — NOT FIT VALIDATED
# Nine 0.64 mm square pins on 4.00 mm centres.
# The J1 pad row is 4.00 mm inside the console-side PCB edge; each pin therefore
# runs 20.00 mm from its pad centre: 4.00 mm to the PCB edge, then 8.00 mm
# of printed-nose capture/support and 8.00 mm of console mating insertion.

Shape { appearance Appearance { material Material { diffuseColor 0.82 0.58 0.12 specularColor 0.95 0.82 0.35 shininess 0.75 } } geometry IndexedFaceSet { solid FALSE coord Coordinate { point [ -16.32 -20 0, -15.68 -20 0, -15.68 0 0, -16.32 0 0, -16.32 -20 0.64, -15.68 -20 0.64, -15.68 0 0.64, -16.32 0 0.64 ] } coordIndex [ 0,1,2,3,-1, 4,7,6,5,-1, 0,4,5,1,-1, 1,5,6,2,-1, 2,6,7,3,-1, 4,0,3,7,-1 ] } }
Shape { appearance Appearance { material Material { diffuseColor 0.82 0.58 0.12 specularColor 0.95 0.82 0.35 shininess 0.75 } } geometry IndexedFaceSet { solid FALSE coord Coordinate { point [ -12.32 -20 0, -11.68 -20 0, -11.68 0 0, -12.32 0 0, -12.32 -20 0.64, -11.68 -20 0.64, -11.68 0 0.64, -12.32 0 0.64 ] } coordIndex [ 0,1,2,3,-1, 4,7,6,5,-1, 0,4,5,1,-1, 1,5,6,2,-1, 2,6,7,3,-1, 4,0,3,7,-1 ] } }
Shape { appearance Appearance { material Material { diffuseColor 0.82 0.58 0.12 specularColor 0.95 0.82 0.35 shininess 0.75 } } geometry IndexedFaceSet { solid FALSE coord Coordinate { point [ -8.32 -20 0, -7.68 -20 0, -7.68 0 0, -8.32 0 0, -8.32 -20 0.64, -7.68 -20 0.64, -7.68 0 0.64, -8.32 0 0.64 ] } coordIndex [ 0,1,2,3,-1, 4,7,6,5,-1, 0,4,5,1,-1, 1,5,6,2,-1, 2,6,7,3,-1, 4,0,3,7,-1 ] } }
Shape { appearance Appearance { material Material { diffuseColor 0.82 0.58 0.12 specularColor 0.95 0.82 0.35 shininess 0.75 } } geometry IndexedFaceSet { solid FALSE coord Coordinate { point [ -4.32 -20 0, -3.68 -20 0, -3.68 0 0, -4.32 0 0, -4.32 -20 0.64, -3.68 -20 0.64, -3.68 0 0.64, -4.32 0 0.64 ] } coordIndex [ 0,1,2,3,-1, 4,7,6,5,-1, 0,4,5,1,-1, 1,5,6,2,-1, 2,6,7,3,-1, 4,0,3,7,-1 ] } }
Shape { appearance Appearance { material Material { diffuseColor 0.82 0.58 0.12 specularColor 0.95 0.82 0.35 shininess 0.75 } } geometry IndexedFaceSet { solid FALSE coord Coordinate { point [ -0.32 -20 0, 0.32 -20 0, 0.32 0 0, -0.32 0 0, -0.32 -20 0.64, 0.32 -20 0.64, 0.32 0 0.64, -0.32 0 0.64 ] } coordIndex [ 0,1,2,3,-1, 4,7,6,5,-1, 0,4,5,1,-1, 1,5,6,2,-1, 2,6,7,3,-1, 4,0,3,7,-1 ] } }
Shape { appearance Appearance { material Material { diffuseColor 0.82 0.58 0.12 specularColor 0.95 0.82 0.35 shininess 0.75 } } geometry IndexedFaceSet { solid FALSE coord Coordinate { point [ 3.68 -20 0, 4.32 -20 0, 4.32 0 0, 3.68 0 0, 3.68 -20 0.64, 4.32 -20 0.64, 4.32 0 0.64, 3.68 0 0.64 ] } coordIndex [ 0,1,2,3,-1, 4,7,6,5,-1, 0,4,5,1,-1, 1,5,6,2,-1, 2,6,7,3,-1, 4,0,3,7,-1 ] } }
Shape { appearance Appearance { material Material { diffuseColor 0.82 0.58 0.12 specularColor 0.95 0.82 0.35 shininess 0.75 } } geometry IndexedFaceSet { solid FALSE coord Coordinate { point [ 7.68 -20 0, 8.32 -20 0, 8.32 0 0, 7.68 0 0, 7.68 -20 0.64, 8.32 -20 0.64, 8.32 0 0.64, 7.68 0 0.64 ] } coordIndex [ 0,1,2,3,-1, 4,7,6,5,-1, 0,4,5,1,-1, 1,5,6,2,-1, 2,6,7,3,-1, 4,0,3,7,-1 ] } }
Shape { appearance Appearance { material Material { diffuseColor 0.82 0.58 0.12 specularColor 0.95 0.82 0.35 shininess 0.75 } } geometry IndexedFaceSet { solid FALSE coord Coordinate { point [ 11.68 -20 0, 12.32 -20 0, 12.32 0 0, 11.68 0 0, 11.68 -20 0.64, 12.32 -20 0.64, 12.32 0 0.64, 11.68 0 0.64 ] } coordIndex [ 0,1,2,3,-1, 4,7,6,5,-1, 0,4,5,1,-1, 1,5,6,2,-1, 2,6,7,3,-1, 4,0,3,7,-1 ] } }
Shape { appearance Appearance { material Material { diffuseColor 0.82 0.58 0.12 specularColor 0.95 0.82 0.35 shininess 0.75 } } geometry IndexedFaceSet { solid FALSE coord Coordinate { point [ 15.68 -20 0, 16.32 -20 0, 16.32 0 0, 15.68 0 0, 15.68 -20 0.64, 16.32 -20 0.64, 16.32 0 0.64, 15.68 0 0.64 ] } coordIndex [ 0,1,2,3,-1, 4,7,6,5,-1, 0,4,5,1,-1, 1,5,6,2,-1, 2,6,7,3,-1, 4,0,3,7,-1 ] } }
